<svg width="49" height="56" viewBox="0 0 49 56" fill="none" xmlns="http://www.w3.org/2000/svg">
<path d="M0.175013 1.74222C0.13501 1.41444 0.315023 1.08665 0.575042 0.902268C0.83506 0.697401 1.15508 0.615455 1.4551 0.533508C3.37524 0.0213404 5.39538 -0.122067 7.35553 0.103287C7.51554 0.123774 7.65555 0.144261 7.79556 0.226207C8.15558 0.431074 8.19559 0.922755 8.21559 1.33249C8.23559 2.13147 8.23559 2.97142 7.83556 3.64749C7.37553 4.44647 6.45546 4.83571 5.5754 5.08155C4.29531 5.42983 2.93521 5.59372 1.67512 5.18399C1.11508 4.99961 0.555039 4.69231 0.255018 4.15965C-0.12501 3.50408 -0.00499914 2.66412 0.135011 1.90612" transform="translate(35.8926 4.74767)" fill="#C7E4DD"/>
<path d="M1.10008 5.6953C1.30009 5.20362 1.76013 4.87583 2.24016 4.69145C2.72019 4.52756 3.26023 4.48659 3.76027 4.44561C4.86035 4.38415 5.98043 4.32269 7.0605 4.48659C7.36052 4.52756 7.66055 4.60951 7.90057 4.79389C8.3606 5.14216 8.4606 5.77725 8.54061 6.35088C8.64062 7.29326 8.68062 8.35857 8.02057 9.01415C7.70055 9.34193 7.26052 9.50583 6.82049 9.62875C5.70041 9.91556 4.52032 9.95653 3.40024 9.71069C2.88021 9.60826 2.34017 9.42388 1.92014 9.07561C1.62011 8.85025 1.4001 8.54295 1.08008 8.3176C0.780056 8.11273 0.340025 8.0103 0.0400035 8.21516C0.020002 8.23565 1.22079e-06 8.23565 1.22079e-06 8.27662C1.22079e-06 8.29711 1.22079e-06 8.3176 1.22079e-06 8.33809C0.220017 8.95269 0.440031 9.58777 0.920065 10.018C1.16008 10.2433 1.4401 10.3868 1.72012 10.5302C3.62026 11.4111 5.76041 11.534 7.82056 11.8003C9.8807 12.0667 12.0409 12.5379 13.601 13.9514C13.981 12.5788 14.041 11.1448 13.821 9.73118C13.761 9.40339 13.701 9.07561 13.521 8.80928C13.361 8.52246 13.1009 8.29711 12.8609 8.09224C12.3009 7.62105 11.7208 7.19083 11.1008 6.80158C10.9608 6.69915 10.7808 6.55574 10.8608 6.39185C10.8808 6.33039 10.9408 6.3099 10.9808 6.26893C11.4808 5.92065 12.0809 5.6953 12.4409 5.18313C12.6409 4.89632 12.7609 4.54805 12.8609 4.22026C13.2609 2.86814 13.441 1.43407 13.401 0C12.5809 0.696548 11.4808 0.921901 10.4207 1.08579C8.74062 1.33164 7.0405 1.47504 5.34038 1.51602C4.58033 1.5365 3.82027 1.5365 3.12022 1.82332C2.54018 2.04867 2.04015 2.4584 1.58011 2.90911C0.800057 3.68761 0.0800057 4.71194 0.28002 5.81822C0.300021 5.90017 0.320022 5.98211 0.360024 6.04357C0.460032 6.1665 0.640047 6.18698 0.800058 6.10503C0.940068 6.04357 1.04007 5.90017 1.14008 5.77725" transform="translate(34.7271 0.24144)" fill="#DB786F"/>
<path d="M0.0400026 26.486C-0.0200017 23.1057 1.3401 19.8484 1.60011 16.468C1.72012 14.7472 1.56011 12.9648 2.02014 11.2849C2.18016 10.7318 2.40017 10.1786 2.38017 9.58452C2.38017 9.01089 2.14015 8.45775 2.06015 7.90461C1.88013 6.51151 2.72019 5.17988 3.68026 4.17603C6.80049 0.857184 11.6408 -0.679318 16.0411 0.283557C16.6012 0.406477 17.2612 0.734264 17.2012 1.30789C15.1411 1.96347 12.7809 1.32838 10.8608 2.31174C9.90071 2.80342 9.14065 3.68435 8.78063 4.70868C8.50061 5.54864 8.4606 6.45005 8.4406 7.33098C8.4006 8.80602 8.34059 10.2811 8.30059 11.7561C8.24059 13.5794 8.20058 15.4642 8.76062 17.2056C8.96064 17.8407 9.26066 18.4348 9.32067 19.1108C9.38067 19.7049 9.24066 20.34 9.40067 20.9137C9.58068 21.5692 10.1207 22.0609 10.3007 22.7165C10.5007 23.3926 10.3207 24.1096 10.1407 24.7652C9.68069 26.4246 9.16065 28.0635 8.62062 29.682C8.4206 30.2966 8.20059 30.9112 7.84056 31.4438C7.58054 31.8536 7.22052 32.2018 6.9405 32.5706C6.52047 33.1032 6.20044 33.6974 5.90042 34.312C5.30038 35.5412 4.76034 36.8728 3.72027 37.7537C3.08022 33.513 1.82013 29.3542 3.05198e-07 25.5027" transform="translate(21.3862 6.26778)" fill="#2E555B"/>
<path d="M3.05198e-07 20.036C0.300022 19.0117 0.620044 17.9873 0.920066 16.9425C1.16008 16.1845 1.3801 15.406 1.80013 14.7299C2.08015 14.2792 2.42017 13.89 2.68019 13.4393C3.02022 12.8861 3.26023 12.251 3.50025 11.6364C3.80027 10.8375 4.10029 10.0385 4.40031 9.2395C4.58033 8.76831 4.76034 8.27663 4.86035 7.76446C4.98035 7.12937 4.96035 6.49428 4.96035 5.8592C4.96035 4.38415 5.12037 2.90911 5.40039 1.47504C5.52039 0.880927 5.74041 0.204866 6.30045 -6.25204e-07C6.76048 0.55314 7.22052 1.10628 7.68055 1.65942C8.10058 2.17159 8.52061 2.68376 8.74062 3.31884C8.96064 3.93344 8.96064 4.58902 9.14065 5.22411C9.38067 6.10503 9.94071 6.88353 10.2007 7.76446C10.4207 8.52247 10.4207 9.36242 10.6808 10.0999C10.9008 10.7555 11.3008 11.3087 11.5808 11.9233C12.0809 13.0295 12.2209 14.2587 12.3609 15.4879C12.8609 15.0782 13.1809 14.5046 13.461 13.931C14.521 11.7798 15.3011 9.48534 16.2812 7.31375C17.0012 5.71579 17.8413 4.13831 18.2213 2.43792C18.3413 1.86429 18.4413 1.24969 18.8413 0.839955C19.2214 0.430221 19.8414 0.327788 20.3815 0.491682C20.9215 0.655575 21.3615 1.04482 21.6815 1.49553C22.2016 2.23305 22.4216 3.17544 22.3016 4.07685C22.1816 4.91681 21.7816 5.71579 21.6215 6.55574C21.3415 8.11273 21.9216 9.69021 22.4016 11.1857C23.2017 13.6237 23.7417 16.3484 22.8016 18.7453C22.4616 19.6058 21.9416 20.4047 21.6015 21.2652C21.3615 21.9412 21.2215 22.6788 20.9215 23.3343C20.5215 24.1948 19.8414 24.8913 19.1614 25.5264C18.9414 25.7313 18.7013 25.9566 18.4013 25.9976C18.0613 26.0591 17.7413 25.8747 17.4412 25.7313C16.2412 25.1577 14.9211 24.9528 13.641 24.6455C12.0809 24.2562 10.5808 23.6826 9.06065 23.109C7.28052 22.4329 5.52039 21.7569 3.74027 21.0808C2.56018 20.6301 1.3401 20.1794 0.0800063 20.2409C0.120009 19.8926 0.160012 19.5238 0.200015 19.1755" transform="translate(13.0859 29.1686)" fill="#F8D24F"/>
<path d="M9.91225 26.1871C10.9523 25.0808 12.1124 23.9745 12.8125 22.6019C13.5525 21.1678 13.9725 19.447 14.1926 17.849C14.5126 15.616 14.1926 13.301 13.4925 11.1703C12.9125 9.42897 11.5524 7.76955 12.4524 5.92574C12.9125 4.98336 13.7125 4.08194 13.5525 2.95517C13.3725 1.64402 11.8324 0.209958 10.5923 0.0255776C8.71216 -0.261236 8.45214 1.93084 8.13212 3.26247C7.57208 5.51601 6.63201 7.66711 5.61194 9.73627C4.47186 12.0718 3.19177 14.3253 2.15169 16.7222C1.37164 18.4841 0.851601 20.2869 0.331564 22.1307C0.531578 22.1922 0.711591 22.2332 0.911605 22.2946C0.931607 22.2332 0.951608 22.1512 0.951608 22.0897C0.931606 21.8029 0.531579 21.6595 0.391569 21.9259C0.191554 22.3151 0.111548 22.8068 0.0115412 23.2165C-0.088466 23.6058 0.491576 23.7697 0.591583 23.3804C0.671589 23.0731 0.8316 22.4175 0.911605 22.2332C0.731593 22.1717 0.531578 22.1307 0.351565 22.0693C0.351565 21.9463 0.351565 22.0693 0.331564 22.1102C0.251558 22.4995 0.791597 22.6634 0.911605 22.2741C1.29163 20.9425 1.63166 19.6313 2.13169 18.3407C2.87175 16.4149 3.81181 14.5916 4.75188 12.7683C5.65194 11.0064 6.57201 9.26508 7.33207 7.44176C8.07212 5.72088 8.53215 3.97951 8.99218 2.15619C9.13219 1.56208 9.35221 0.824559 10.0523 0.640179C10.7323 0.455798 11.4724 1.00894 11.9324 1.45965C12.5124 1.9923 13.0925 2.66836 12.9725 3.5288C12.8125 4.55314 11.9524 5.3726 11.6524 6.37645C11.2723 7.66712 11.8524 8.62999 12.3324 9.77724C13.2125 11.8054 13.7525 14.018 13.7325 16.251C13.7125 18.1563 13.2525 20.3074 12.4324 22.0283C11.7524 23.4624 10.5523 24.6096 9.49222 25.7364C9.2122 26.0437 9.65223 26.4739 9.91225 26.1871Z" transform="translate(22.395 29.0201)" fill="black"/>
<path d="M0.611575 20.4807C1.11161 18.6983 1.77166 16.957 2.55171 15.2975C3.25176 13.7815 4.31184 12.3679 4.89188 10.811C6.17197 7.41016 4.27184 3.59964 6.73201 0.547123C6.572 0.526636 6.41199 0.506149 6.25198 0.485662C7.47206 2.53433 8.53214 4.66495 9.49221 6.85703C10.2923 8.65985 10.9923 10.5241 11.4723 12.4499C11.8724 14.0479 12.1724 15.8507 11.6324 17.4486C11.5124 17.8174 12.0924 17.9813 12.2124 17.6125C13.3125 14.2937 11.5724 10.1759 10.2923 7.16433C9.27219 4.76738 8.11211 2.39092 6.77201 0.157874C6.67201 -0.00601947 6.43199 -0.0674771 6.29198 0.0964165C5.25191 1.38708 4.75187 2.82115 4.71187 4.50106C4.65186 6.34486 5.01189 8.18866 4.51185 10.012C4.01182 11.8148 2.73173 13.4333 1.95167 15.1336C1.19162 16.8136 0.531569 18.5344 0.0115317 20.3168C-0.0884755 20.706 0.491566 20.8699 0.611575 20.4807Z" transform="translate(12.7744 28.4371)" fill="black"/>
<path d="M0.604388 8.22402C0.884408 6.85142 1.14443 5.47881 1.42445 4.1062C1.66446 2.877 1.82448 1.40195 2.90455 0.602972C2.76454 0.459565 2.62453 0.31616 2.48452 0.172753C1.94448 1.29952 2.1245 2.44677 2.58453 3.57354C2.88455 4.33155 3.32458 5.06907 3.5446 5.86805C3.84462 6.93336 3.80462 7.97818 3.5646 9.04349C3.48459 9.43274 4.06463 9.59663 4.14464 9.20738C4.44466 7.85526 4.44466 6.50314 3.94463 5.19199C3.38459 3.69646 2.2245 2.11899 3.00456 0.480053C3.12457 0.234213 2.86455 -0.134549 2.58453 0.0498316C1.64446 0.725892 1.28444 1.77071 1.04442 2.877C0.664392 4.57739 0.364371 6.31876 0.00434512 8.03964C-0.0556592 8.44938 0.524382 8.61327 0.604388 8.22402Z" transform="translate(16.062 41.7181)" fill="black"/>
<path d="M0.512376 16.3407C2.45251 14.415 1.73246 11.4444 2.2125 8.98602C2.81254 6.05643 4.13263 3.31121 4.19264 0.27918C3.99262 0.27918 3.79261 0.27918 3.59259 0.27918C3.83261 2.92196 3.49259 5.58523 3.83261 8.22802C4.19264 11.0757 3.75261 14.0872 3.6126 16.9554C3.5926 17.3446 4.19264 17.3446 4.21264 16.9554C4.35265 14.1487 4.77268 11.1986 4.45266 8.39191C4.15264 5.68767 4.45266 3.00391 4.19264 0.299668C4.15263 -0.0895794 3.59259 -0.110066 3.59259 0.299668C3.53259 3.1678 2.33251 5.74913 1.71246 8.51483C1.19242 10.8913 1.93248 14.0872 0.0923444 15.931C-0.187676 16.1769 0.232356 16.6276 0.512376 16.3407Z" transform="translate(26.3945 37.6988)" fill="black"/>
<path d="M0.28502 2.60318C3.42524 2.5827 6.26545 0.943761 9.36567 0.656947C12.4859 0.370133 15.5261 1.27155 18.4263 2.37783C21.3865 3.5046 24.2667 4.87721 27.3069 5.75814C30.2472 6.61858 33.2874 7.08977 36.3276 7.19221C39.8678 7.29464 43.3881 6.84393 46.8083 5.90154C47.1884 5.79911 47.0284 5.20499 46.6483 5.30743C40.3879 7.06928 33.7074 7.00782 27.467 5.1845C21.8066 3.52508 16.4462 -0.0805732 10.4057 0.00137361C6.90549 0.042347 3.76527 1.9681 0.28502 1.98858C-0.0950068 1.98858 -0.0950068 2.60318 0.28502 2.60318Z" transform="translate(0 48.7935)" fill="black"/>
<path d="M0.751672 26.5594C0.271637 24.0395 1.1317 21.6016 1.77174 19.1842C2.33178 17.0536 2.6118 14.9024 2.75181 12.6899C2.91183 10.3749 2.5918 7.46578 3.71188 5.39662C4.69195 3.59379 6.67209 2.26216 8.51223 1.52464C10.3324 0.787118 12.3325 0.500304 14.2726 0.705171C15.0327 0.787118 16.4128 0.910038 17.0128 1.40172C17.9129 2.13924 16.4328 2.13924 15.9128 2.13924C15.3327 2.13924 14.7527 2.07778 14.1526 2.05729C12.4325 2.01632 10.9524 2.46703 9.91233 3.94207C8.81225 5.45808 8.39222 7.44529 8.1922 9.2891C7.93219 11.8294 8.25221 14.3698 8.69224 16.8692C9.11227 19.2661 9.5123 21.786 10.4924 23.9985C10.6524 24.3673 11.1724 24.0395 11.0124 23.6912C9.95233 21.3148 9.5523 18.5081 9.13227 15.9473C8.69224 13.3045 8.47222 10.5593 8.99226 7.896C9.4923 5.37614 10.6324 2.8153 13.4526 2.67189C14.2726 2.63092 18.1729 3.38893 18.1329 1.81145C18.0929 0.438844 15.1527 0.172517 14.2526 0.0700832C12.3525 -0.134784 10.3924 0.111057 8.61223 0.787118C6.7921 1.48367 5.03198 2.61043 3.79189 4.16742C2.45179 5.84733 2.39179 7.896 2.27178 9.96516C2.11177 13.0177 1.95176 16.0292 1.1717 18.9793C0.491653 21.5197 -0.348407 24.019 0.151629 26.6823C0.251636 27.1125 0.831677 26.9486 0.751672 26.5594Z" transform="translate(21.0347 5.76422)" fill="black"/>
<path d="M0.72054 2.01034C1.76061 1.21136 2.9607 0.719678 4.26079 0.637732C4.90084 0.596758 5.54088 0.658218 6.16093 0.801625C7.181 1.06795 7.50103 1.74401 7.54103 2.76835C7.56103 3.58782 7.56103 4.59166 6.84098 5.10383C6.30094 5.49308 5.18086 5.49308 4.56081 5.47259C3.74076 5.4521 0.680539 5.26772 0.600533 4.05901C0.580532 3.66976 -0.0195111 3.66976 0.000490283 4.05901C0.100497 5.77989 2.9607 6.00525 4.20079 6.08719C5.20086 6.14865 6.38095 6.04622 7.30101 5.57502C8.00106 5.20626 8.06107 4.71458 8.10107 3.95658C8.14107 3.09614 8.26108 2.05131 7.84105 1.25233C7.44102 0.494325 6.64096 0.248484 5.86091 0.105077C3.94077 -0.243196 1.96063 0.289458 0.400519 1.47769C0.100497 1.70304 0.400517 2.25618 0.72054 2.01034Z" transform="translate(35.3271 4.21321)" fill="black"/>
<path d="M1.32201 5.81381C1.64203 2.7613 5.00227 1.9828 7.46245 1.85988C9.74261 1.75745 12.0428 1.83939 14.0829 0.610192C13.9429 0.487272 13.7829 0.384839 13.6429 0.261918C13.2829 1.3682 13.5229 2.45399 13.4229 3.60125C13.3029 5.01483 12.4828 6.16209 11.1627 6.65377C10.8627 6.77669 10.8827 7.24788 11.2427 7.24788C14.723 7.26837 14.4229 11.7754 13.9629 14.1314C14.1229 14.0904 14.3029 14.0495 14.4629 13.988C12.8028 12.1647 10.3427 11.9393 8.04249 11.9188C5.3623 11.8984 1.04199 11.7754 0.601956 8.19027C0.561953 7.80102 -0.0380894 7.80102 0.00191347 8.19027C0.321936 10.7306 2.6421 12.0827 4.92227 12.4105C7.96248 12.8407 11.6827 11.8369 14.0229 14.4387C14.1629 14.6026 14.4829 14.5207 14.523 14.2953C14.863 12.513 15.203 10.5462 14.4029 8.84584C13.8029 7.57567 12.6428 6.65377 11.2227 6.63328C11.2427 6.83815 11.2827 7.04301 11.3027 7.2274C12.3628 6.83815 13.2229 6.10063 13.6829 5.01483C14.3229 3.5193 13.7029 1.90085 14.2029 0.384839C14.2829 0.118512 13.9829 -0.0863554 13.7629 0.0365648C11.0427 1.65501 7.82247 0.794573 4.88226 1.53209C2.82211 2.04426 0.941981 3.49882 0.701963 5.77284C0.681962 6.20306 1.28201 6.20306 1.32201 5.81381Z" transform="translate(34.106)" fill="black"/>
</svg>
