<svg width="61" height="94" viewBox="0 0 61 94" fill="none" xmlns="http://www.w3.org/2000/svg">
<path d="M3.10583 14.1957C3.34151 11.8441 1.69175 9.44545 2.39879 7.1879C2.72874 6.20021 3.43578 5.40066 4.18996 4.74221C6.82958 2.34355 10.1291 0.697417 13.6172 0.133028C14.2771 0.038963 14.8898 -0.055102 15.5498 0.0389629C17.1052 0.321158 18.1894 1.6851 18.8021 3.1431C20.122 6.43538 19.3206 10.1509 18.755 13.6313C17.9537 18.3346 17.5766 23.1319 17.6237 27.9292C17.6237 29.4342 17.6709 30.8923 17.5295 32.3503C17.1995 34.9841 16.1154 37.5238 16.3982 40.1576C16.5396 41.7097 17.1995 43.2148 17.2466 44.8139C17.2938 45.8486 17.0581 46.9303 16.9167 47.965C16.7753 49.376 16.9167 50.787 16.5867 52.198C16.3039 53.5619 15.5026 54.9729 14.1828 55.4432C12.863 55.9135 11.0718 55.0199 11.0718 53.6089C11.0718 52.9505 11.4018 52.3861 11.7317 51.8217C12.2974 50.9281 12.8159 49.9874 13.3815 49.0938C13.7586 48.4354 14.1828 47.7299 14.0885 46.9774C13.9943 46.1308 13.2401 45.4723 12.4388 45.1431C9.56347 43.8732 6.31108 45.6134 3.62433 47.2595C3.24724 47.4947 2.82301 47.7769 2.63447 48.2002C2.25738 49.0938 2.87015 50.4107 2.11597 50.9281C1.64461 51.2573 0.984709 50.9751 0.654756 50.5048C0.324804 50.0345 0.277667 49.4701 0.230531 48.9057C-0.382238 41.2864 0.230529 33.5731 2.0217 26.142C2.39879 24.5899 2.82301 23.0849 3.01156 21.4858C3.34151 18.899 3.05869 16.2181 2.16311 13.7254" transform="translate(36.2095 0.388565)" fill="#2E555B"/>
<path d="M14.9893 1.20757C14.6122 1.34866 14.4708 1.86602 14.3765 2.28931C14.188 3.04183 13.8109 3.74732 13.4338 4.4528C12.6325 5.91081 11.7369 7.46288 10.2757 8.3565C9.2858 8.92089 8.15454 9.15605 7.21182 9.86154C5.37351 11.2255 5.04356 13.8593 3.48807 15.5525C3.06384 15.9758 2.59248 16.352 2.21539 16.8223C1.88544 17.2927 1.6969 17.8571 1.50835 18.4214C1.03699 19.8794 0.565633 21.3375 0.0942721 22.8425C0.0471361 22.9836 -3.5962e-07 23.1717 -3.5962e-07 23.3128C0.0471357 23.548 0.282817 23.7831 0.518497 23.8772C1.60263 24.3946 2.92244 23.7361 3.77088 22.8895C4.80788 21.8548 5.46778 20.4438 6.50478 19.4091C7.4475 18.4685 8.67304 17.81 9.71003 16.9634C10.4642 16.352 11.1241 15.5995 11.8312 14.894C12.5853 14.1415 13.4338 13.389 14.4708 13.1068C15.6492 12.7776 16.8747 13.1068 17.9588 13.6241C19.043 14.1415 19.9386 14.941 20.9284 15.5995C21.2584 15.8347 21.5883 16.0228 21.9654 16.0698C22.3425 16.1169 22.7667 15.9287 22.861 15.5525C22.9553 15.2232 22.7667 14.941 22.6253 14.6118C21.6826 12.7776 21.5883 10.6611 21.5412 8.63869C21.5412 8.0743 21.494 7.46288 21.6355 6.94552C21.8711 6.05191 22.531 5.34642 23.0967 4.64093C23.8037 3.74732 24.3693 2.80667 24.8878 1.77196C24.935 1.63086 25.0292 1.53679 24.9821 1.39569C24.935 1.2546 24.8407 1.20756 24.7464 1.1135C23.0967 -0.156376 20.8341 -0.0623099 18.7602 0.0787874C17.7232 0.172852 16.6862 0.219885 15.6492 0.31395C15.0364 0.360982 14.2351 0.502078 14.0465 1.1135" transform="translate(25.3159 46.2994)" fill="#F2B1AA"/>
<path d="M7.48885 0.94065C7.48885 2.53975 6.07477 3.99776 4.51928 4.13886C3.7651 4.18589 2.96379 3.99776 2.20961 3.95072C1.45544 3.90369 0.559851 4.13886 0.182763 4.79731C-0.335734 5.69093 0.324171 6.86674 1.21976 7.43113C2.11534 7.94849 3.19947 8.04255 4.18933 8.32474C6.12191 8.88913 7.77167 10.206 9.04434 11.7111C9.89279 12.6988 10.6941 13.8746 11.9196 14.3919C13.0038 14.8623 14.2293 14.6741 15.4077 14.5801C18.8015 14.2979 22.2424 14.7212 25.4948 15.7088C26.3433 15.991 27.1917 16.2732 28.0873 16.4143C31.1983 16.8846 34.1679 14.9563 37.2788 14.533C38.6458 14.3449 40.0127 14.3919 41.4268 14.2979C43.3123 14.1097 45.1506 13.5453 46.9417 13.028C48.1673 12.6517 49.4399 12.2755 50.5241 11.57C51.184 11.1467 51.7967 10.5823 52.4567 10.112C53.8707 9.1243 55.5676 8.51287 56.7932 7.29003C57.4059 6.67861 57.9244 5.73796 57.6888 4.89137C57.5002 4.23292 56.9346 3.7626 56.3689 3.38634C54.8606 2.25756 53.3522 1.12878 51.8439 1.43532e-06" transform="translate(1.6123 75.2562)" fill="#DB786F"/>
<path d="M15.5025 10.1827C14.9369 9.85348 14.3713 9.38316 13.7114 9.24206C12.533 9.0069 11.4488 9.99458 10.5061 10.7001C8.33786 12.3932 5.55684 13.1928 2.77581 13.4279C1.73881 13.522 0.466141 13.7101 0.0890523 14.6978C-0.193764 15.4503 0.230461 16.2969 0.890366 16.7673C1.55027 17.2376 2.35158 17.3787 3.1529 17.5668C8.47927 18.7426 13.5228 21.0942 17.8122 24.4335C19.3206 25.6094 21.0646 26.9733 22.95 26.6441C23.7514 26.503 24.4584 26.0326 25.1654 25.6094C31.246 21.9879 39.1177 20.9531 43.6428 15.4503C44.9154 13.9453 45.8582 12.064 47.5551 11.0763C48.4506 10.559 49.4876 10.2768 50.2418 9.57129C50.4304 9.43019 50.5718 9.19503 50.5718 9.0069C50.5718 8.81877 50.4304 8.63064 50.2418 8.48954C48.7806 7.1256 46.6595 6.79637 44.9154 5.90275C43.7842 5.33836 42.7943 4.53881 41.7102 3.92739C38.7878 2.42235 35.2054 2.51642 32.3773 0.823248C31.6702 0.399956 30.916 -0.1174 30.1147 0.0236977C29.7376 0.117763 29.4077 0.352923 29.0777 0.588086C26.6267 2.42235 24.1284 4.30365 22.3373 6.74934C21.3003 8.16031 20.499 9.75942 19.0378 10.653C17.5765 11.5467 15.1726 11.3115 14.6541 9.66535" transform="translate(8.96484 59.6647)" fill="#C7E4DD"/>
<path d="M3.24338 0.877232C4.1861 4.40467 4.37465 8.02616 3.5262 11.6006C2.91343 14.2815 1.35794 16.5861 1.64075 19.361C1.73503 20.3957 2.11212 21.2423 1.8293 22.324C1.64075 22.8884 1.26366 23.4528 1.07512 24.0172C0.745167 24.9108 0.650898 25.8515 0.650898 26.7921C0.698034 29.52 1.9707 32.6241 0.132398 35.0228C-0.338963 35.6342 0.556625 36.2456 1.12226 36.0105C4.61033 34.3643 8.66403 32.2008 12.6706 32.9063C14.7446 33.2826 16.8657 34.5995 17.4785 36.81C18.1855 39.3968 15.6873 41.9836 13.0948 40.9489C12.2464 40.6197 11.8693 41.9836 12.7177 42.3128C14.7446 43.1124 16.9128 42.2658 18.1384 40.4786C19.5053 38.4562 19.0811 35.9634 17.5727 34.1292C13.0948 28.7675 5.41164 32.389 0.368078 34.7876C0.698031 35.1169 1.02799 35.4461 1.35794 35.7753C2.96056 33.7059 2.53634 31.2602 2.25352 28.8145C2.06498 27.0273 2.06498 25.5222 2.77202 23.782C3.24338 22.6062 3.47906 21.8537 3.33765 20.5838C3.29052 19.8783 3.0077 19.2669 3.0077 18.5614C2.96056 17.4797 3.38479 16.539 3.76188 15.5984C4.46892 13.7641 5.03455 11.9769 5.31736 10.0015C5.78873 6.80332 5.50591 3.65215 4.65746 0.548005C4.37465 -0.392644 3.0077 -0.0163843 3.24338 0.877232Z" transform="translate(34.7993 13.66)" fill="black"/>
<path d="M0.125275 1.0272C0.832316 2.06192 1.53936 3.09663 2.2464 4.13135C2.76489 4.88387 3.99043 4.17838 3.47193 3.42586C2.76489 2.39115 2.05785 1.35643 1.35081 0.321717C0.832315 -0.430803 -0.393222 0.274684 0.125275 1.0272Z" transform="translate(34.9482 48.3141)" fill="black"/>
<path d="M15.0027 0.867654C15.8512 4.53619 13.3058 6.74671 10.1006 7.54626C7.97944 8.06362 7.46095 8.86317 7.03672 10.8856C6.42395 13.5664 5.81118 13.0961 4.30283 14.413C3.7372 14.9304 3.31297 15.5418 3.03016 16.2473C2.22884 18.0815 2.41739 20.9505 0.3434 21.9382C-0.0336885 22.1263 -0.0808246 22.5966 0.10772 22.9259C0.909033 24.525 2.74734 25.0894 4.3971 24.4309C6.98958 23.4432 7.50808 20.3861 9.34639 18.693C11.0433 17.1409 13.2587 16.8587 14.767 15.0715C15.8512 13.8016 16.4168 12.955 18.1137 13.7545C18.8679 14.0838 19.4335 14.6952 20.1405 15.1185C21.6018 16.0591 23.1101 16.6235 24.807 16.9057C25.2312 16.9998 25.7497 16.7176 25.7026 16.2473C25.5612 14.0838 24.6656 12.2025 24.1 10.133C23.1101 6.51155 25.5612 4.15993 27.6352 1.47908C28.2008 0.77359 27.211 -0.214094 26.6453 0.491393C25.0427 2.56082 22.6388 4.81838 22.4031 7.5933C22.1674 10.6034 24.1 13.2842 24.2885 16.2473C24.5713 16.0121 24.9013 15.7769 25.1841 15.5888C23.4872 15.2596 21.9789 14.6482 20.5176 13.7075C19.5278 13.0491 18.5851 12.2495 17.4067 12.0143C15.6155 11.6851 14.767 12.4376 13.8243 13.7545C12.9759 14.9774 12.4102 15.5418 11.0904 16.1532C10.1006 16.5765 9.11071 16.9998 8.35653 17.7523C7.08386 18.9751 3.45438 26.4533 1.33326 22.2674C1.23898 22.5966 1.14471 22.9259 1.09758 23.2551C3.07729 22.3145 3.40724 20.245 3.92574 18.3167C4.44424 16.4354 5.24555 15.7769 6.80104 14.6952C7.60235 14.1308 8.12085 13.5194 8.35653 12.5317C8.63935 11.2618 8.12085 9.94492 9.91202 9.14536C10.4777 8.9102 11.1847 8.9102 11.7975 8.72207C12.9287 8.39285 13.9186 7.78142 14.7199 6.98187C16.3697 5.24167 16.9824 2.89005 16.4639 0.58546C16.134 -0.402222 14.767 -0.025963 15.0027 0.867654Z" transform="translate(23.7471 46.4983)" fill="black"/>
<path d="M41.0573 1.31318C44.7339 3.28854 48.4106 5.31093 52.04 7.2863C51.9929 6.91004 51.9458 6.53378 51.8986 6.15752C45.4881 13.9649 37.0979 20.0791 27.6236 23.6066C26.0681 24.1709 24.7483 24.6883 23.2399 23.9358C22.2972 23.4655 21.4487 22.5718 20.5531 21.9604C18.5263 20.5965 16.3109 19.4207 14.0484 18.48C9.94753 16.7869 3.6313 16.5047 1.2745 12.2717C1.18022 12.601 1.08595 12.9302 1.03882 13.2594C6.31806 10.8608 11.7858 8.93244 17.4422 7.56849C18.3378 7.33333 17.9607 5.96939 17.0651 6.20455C11.3145 7.61552 5.70529 9.54386 0.331775 12.0366C0.00182285 12.1777 -0.0924493 12.695 0.096095 13.0243C2.35863 17.1161 7.30791 17.6334 11.3616 18.9974C14.3783 20.0321 17.2536 21.4431 19.8932 23.2303C22.1558 24.7824 23.4284 26.5696 26.2566 25.676C36.6737 22.3367 46.0538 15.611 52.9828 7.19223C53.2656 6.86301 53.2656 6.29862 52.8414 6.06346C49.1647 4.08809 45.4881 2.06569 41.8586 0.0903296C41.0102 -0.332962 40.256 0.842852 41.0573 1.31318Z" transform="translate(7.1665 61.5735)" fill="black"/>
<path d="M8.39409 1.75192C7.92272 2.8807 7.63991 3.91541 7.54564 5.13825C7.78132 4.90309 8.017 4.66793 8.25268 4.43277C5.66019 4.57386 1.93644 3.11586 0.333819 6.0789C-0.608903 7.77207 0.569499 9.41821 2.31353 9.74744C3.91616 10.0767 5.61306 9.37118 7.07428 10.3118C8.48836 11.2054 9.24253 12.8986 10.3738 14.0744C12.4007 16.1909 15.1817 16.426 17.9156 16.4731C19.9896 16.5201 21.9221 16.5671 23.8547 17.3667C25.3159 17.9311 26.6829 18.6836 28.2855 18.9188C32.0564 19.4361 35.403 17.0375 39.0797 16.6142C41.955 16.285 45.0188 16.7553 47.7998 15.7676C48.8368 15.3913 49.7795 14.8269 50.5809 14.0274C51.0051 13.6041 51.2879 13.0397 51.665 12.6164C53.4562 10.6881 54.3046 11.6287 56.2372 11.2525C58.4997 10.8292 60.0081 8.61865 59.8667 6.40813C59.6781 3.06883 55.3887 1.56379 52.9848 0.105783C52.1835 -0.364541 51.4764 0.858305 52.2778 1.32863C53.9275 2.31631 56.0958 3.25696 57.5099 4.57387C59.0182 5.98484 58.6411 8.66569 56.7557 9.60634C55.3416 10.3118 53.5976 9.55931 52.1363 10.2178C51.1465 10.6881 50.6751 11.5817 50.0624 12.3813C47.7998 15.2973 44.0289 14.874 40.7294 15.0151C37.5242 15.1562 34.8846 16.332 31.8207 17.1315C27.9556 18.1192 25.2688 15.7676 21.6393 15.2032C18.3398 14.6858 14.2861 15.7676 11.5993 13.2278C9.90244 11.6287 9.05399 9.13602 6.55578 8.47756C5.47165 8.19537 3.86902 8.75976 2.9263 8.33646C2.12499 6.40813 2.36067 5.46749 3.68048 5.56155C4.15184 5.46749 4.6232 5.51452 5.09456 5.56155C6.17869 5.65562 7.16855 5.84374 8.29981 5.74968C8.72404 5.70265 8.95972 5.46748 9.00686 5.04419C9.05399 4.10354 9.24253 3.20993 9.66676 2.36334C9.99671 1.65786 8.77117 0.952367 8.39409 1.75192Z" transform="translate(0 74.0686)" fill="black"/>
<path d="M2.24104 0.887224C2.7124 3.14478 2.66526 5.26124 2.05249 7.47177C1.67541 8.83571 1.06264 10.1997 1.0155 11.6577C0.968366 12.9746 1.67541 13.7741 1.91109 14.997C2.24104 16.6431 0.826957 18.1952 0.308461 19.7002C-0.681396 22.6162 1.25118 25.4382 0.685551 28.4482C0.21419 30.8939 -0.587123 33.1045 0.685551 35.409C1.10978 36.2086 2.33531 35.5031 1.91109 34.7036C0.44987 32.0227 2.52385 28.8245 2.28817 25.9555C2.14677 24.2624 1.25118 22.7103 1.48686 20.9701C1.67541 19.5591 2.61813 18.4303 3.08949 17.1134C3.37231 16.3139 3.51371 15.5143 3.32517 14.6207C3.2309 14.1504 2.94808 13.8682 2.80667 13.3979C2.33531 11.8458 2.52385 10.9051 2.94808 9.44713C3.79653 6.39002 4.26789 3.70917 3.60799 0.510963C3.41944 -0.382654 2.05249 -0.00639293 2.24104 0.887224Z" transform="translate(51.9692 15.6254)" fill="black"/>
</svg>
