<svg width="31" height="34" viewBox="0 0 31 34" fill="none" xmlns="http://www.w3.org/2000/svg">
<path d="M9.1876 0C5.45961 1.54 2.81894 4.97934 1.42095 8.72667C0.02295 12.474 -0.132383 16.5293 0.0747277 20.5333C0.230061 23.1 0.592505 25.872 2.30117 27.874C3.28494 29.0034 4.63116 29.7734 6.02916 30.3894C11.1034 32.5454 17.1096 32.5454 22.2356 30.338C26.0153 28.6954 29.5362 25.5127 29.9504 21.406C30.4164 17.094 27.4651 13.244 26.5849 9.03467C26.2742 7.64867 26.1707 6.21134 25.5493 4.97934C24.2031 2.41267 20.9929 1.54 18.0934 0.872667C14.0029 -0.0513333 9.23937 -0.821334 6.02916 1.89933" transform="translate(1 1)" fill="#DB786E"/>
<path d="M12.9687 0C5.53189 0.0495544 1.43403 6.88806 0.523399 13.3797C-0.387235 19.9704 -0.943733 28.8407 6.29075 32.1113C11.8557 34.589 19.3432 34.6881 24.3517 30.8228C29.866 26.5612 31.4344 17.0963 29.5119 10.8029C27.4377 3.96435 20.2032 -0.594654 13.0699 0.0991073C12.1087 0.198216 12.1087 1.68485 13.0699 1.58574C20.9115 0.842423 28.0954 6.68985 28.6013 14.4203C29.1072 22.0517 26.2235 30.5751 17.6737 32.1113C14.0311 32.7555 10.0345 32.2599 6.69547 30.7237C2.39526 28.692 1.73758 24.7772 1.68699 20.5651C1.58581 13.231 3.00235 1.63529 12.9181 1.58574C13.9805 1.48663 13.9805 0 12.9687 0Z" transform="translate(0.214111)" fill="black"/>
<path d="M1.43566 4.79341C1.89098 2.06791 4.82525 1.52281 7.20301 1.82014C7.96187 1.91925 8.97369 2.01836 9.63137 2.5139C11.4526 3.85187 10.5926 5.88361 9.4796 7.07291C7.70892 8.95598 4.5217 9.50107 3.25693 11.8301C2.54866 13.1185 2.64984 14.6052 4.21816 14.9521C5.43233 15.2494 7.05124 15.0512 8.31601 15.0512C10.2385 15.0512 12.2115 15.0016 14.1339 14.853C15.0952 14.8034 15.0952 13.3168 14.1339 13.3663C11.8574 13.515 9.63137 13.5645 7.35478 13.515C6.6971 13.515 6.03942 13.515 5.43233 13.4654C5.17938 12.0779 5.58411 11.1859 6.64651 10.6904C7.20301 10.1948 8.01246 9.89751 8.61955 9.50107C10.6938 8.1631 12.8186 6.03227 12.1609 3.35633C10.8455 -1.74777 0.879165 -0.707133 0.0191218 4.29786C-0.183241 5.3385 1.28389 5.73494 1.43566 4.79341Z" transform="translate(7.59875 9.67648)" fill="black"/>
</svg>
