<svg width="31" height="35" viewBox="0 0 31 35" fill="none" xmlns="http://www.w3.org/2000/svg">
<path d="M9.1876 0C5.45961 1.54 2.81894 4.97934 1.42095 8.72667C0.02295 12.474 -0.132383 16.5293 0.0747277 20.5333C0.230061 23.1 0.592505 25.872 2.30117 27.874C3.28494 29.0034 4.63116 29.7734 6.02916 30.3894C11.1034 32.5454 17.1096 32.5454 22.2356 30.338C26.0153 28.6954 29.5362 25.5127 29.9504 21.406C30.4164 17.094 27.4651 13.244 26.5849 9.03467C26.2742 7.64867 26.1707 6.21134 25.5493 4.97934C24.2031 2.41267 20.9929 1.54 18.0934 0.872667C14.0029 -0.0513333 9.23937 -0.821334 6.02916 1.89933" transform="translate(1)" fill="#F8D24F"/>
<path d="M12.9687 -1.51228e-06C5.53189 0.0495529 1.43403 6.88806 0.523399 13.3797C-0.387235 19.9704 -0.943733 28.8407 6.29075 32.1113C11.8557 34.589 19.3432 34.6881 24.3517 30.8228C29.866 26.5612 31.4344 17.0963 29.5119 10.8029C27.4377 3.96435 20.2032 -0.594656 13.0699 0.0991058C12.1087 0.198215 12.1087 1.68485 13.0699 1.58574C20.9115 0.842422 28.0954 6.68985 28.6013 14.4203C29.1072 22.0517 26.2235 30.5751 17.6737 32.1113C14.0311 32.7555 10.0345 32.2599 6.69547 30.7237C2.39526 28.692 1.73758 24.7772 1.68699 20.5651C1.58581 13.231 3.00235 1.63529 12.9181 1.58574C13.9805 1.48663 13.9805 -1.51228e-06 12.9687 -1.51228e-06Z" transform="translate(0.703247 1)" fill="black"/>
<path d="M1.49632 3.2221C2.154 1.68592 3.21641 1.19037 4.78473 1.73547C6.15068 1.88413 6.75777 2.5779 6.5554 3.7672C6.75777 5.50161 5.64477 6.93868 3.87409 7.58289C3.06464 7.88022 3.21641 8.92086 4.07645 9.01997C5.13886 9.16863 7.21308 9.4164 7.92135 10.4075C8.68021 11.4481 8.73081 13.4799 7.92135 14.471C6.45422 16.3045 4.32941 15.9576 2.2046 15.7098C1.24337 15.6107 1.24337 17.0973 2.2046 17.1964C6.10008 17.692 9.3379 17.3451 10.0968 12.8852C10.7544 9.21819 7.06131 7.88022 4.02586 7.48378C4.07645 7.97933 4.17764 8.47487 4.22823 8.92086C7.01072 7.92977 10.0968 4.06453 7.46604 1.43815C5.24004 -0.742246 0.889235 -0.544032 0.0291913 2.72656C-0.223763 3.7672 1.24337 4.16364 1.49632 3.2221Z" transform="translate(10 10)" fill="black"/>
</svg>
