<svg width="15" height="15" viewBox="0 0 15 15" fill="none" xmlns="http://www.w3.org/2000/svg">
<path d="M13.9513 13.6626L10.4589 9.94962C11.3569 8.85844 11.8489 7.48552 11.8489 6.05624C11.8489 2.71688 9.19112 0 5.92443 0C2.65775 0 7.00106e-09 2.71688 7.00106e-09 6.05624C7.00106e-09 9.3956 2.65775 12.1125 5.92443 12.1125C7.15079 12.1125 8.31945 11.7344 9.31862 11.0166L12.8375 14.7578C12.9846 14.9139 13.1824 15 13.3944 15C13.595 15 13.7854 14.9218 13.9299 14.7796C14.2369 14.4776 14.2467 13.9768 13.9513 13.6626ZM5.92443 1.57989C8.33903 1.57989 10.3034 3.58793 10.3034 6.05624C10.3034 8.52456 8.33903 10.5326 5.92443 10.5326C3.50984 10.5326 1.5455 8.52456 1.5455 6.05624C1.5455 3.58793 3.50984 1.57989 5.92443 1.57989Z" fill="#C5C5C5"/>
</svg>
