<svg width="108" height="262" viewBox="0 0 108 262" fill="none" xmlns="http://www.w3.org/2000/svg">
<mask id="path-1-inside-1" fill="white">
<path d="M18.4616 8.41998C19.4092 7.37877 19.6677 6.77139 19.6677 5.38309C19.7538 3.30066 17.3417 2.78005 15.9634 3.82127C14.4989 4.94925 13.379 6.25078 12.3452 7.89938C11.053 9.98182 13.982 12.3246 15.7049 10.5024C17.6863 8.50675 18.8923 6.33755 19.7538 3.56096C20.443 1.04468 17.1694 0.00345993 15.7911 1.91236C15.1019 2.86681 14.3266 3.82127 13.6374 4.86249C12.1729 6.85816 15.3603 9.28767 16.9971 7.46554C18.2893 6.07724 18.9785 4.68895 19.3231 2.78005C19.4954 1.47852 18.8062 -0.0833073 17.2556 0.003461C11.9145 0.350534 8.55478 5.20956 5.53966 9.11413C2.78298 12.6716 -1.52434 18.8322 0.543175 23.6912C5.28122 34.5372 29.4022 15.1011 30.5221 17.2704C30.9528 18.0513 32.0727 18.5719 32.9342 18.2248C33.9679 17.8777 35.0878 17.5307 36.1216 17.1836C37.8445 16.5762 38.2753 14.2335 36.6385 13.1922C34.0541 11.6304 31.4697 10.0686 28.8853 8.50675C27.3347 7.5523 22.0797 5.46986 21.7352 3.56096C20.7014 4.34188 19.6677 5.20956 18.5478 5.99047C22.0797 7.5523 26.0425 11.6304 21.9936 15.2747C23.0274 16.3159 24.0611 17.3571 25.0087 18.3116C25.8702 17.2704 26.5594 16.3159 27.2485 15.1011C28.3684 13.1055 26.2148 11.2833 24.3195 12.151C21.649 13.3658 19.2369 14.8408 16.911 16.5762C17.7724 17.7042 18.6339 18.8322 19.4954 19.9602C20.9598 18.4851 22.4243 17.01 23.8888 15.535C25.6117 13.7996 23.3719 10.7627 21.3044 12.151C18.2032 14.2335 15.188 16.4894 12.3452 18.9189C13.379 19.9602 14.4127 21.0014 15.3603 21.9558C17.4278 19.4396 19.3231 16.9233 21.046 14.1467C22.1659 12.3246 19.9261 9.98181 18.117 11.1966C15.7911 12.7584 13.7236 14.407 11.7422 16.4894C12.9482 17.1836 14.1543 17.8777 15.3603 18.5719C16.3941 15.9688 16.9971 13.3658 17.3417 10.5892C17.514 8.68029 14.8435 7.72584 13.6374 9.02736C11.2253 11.7172 9.50239 14.5805 8.21019 17.9645C9.58854 18.138 11.053 18.3116 12.4314 18.5719C12.6898 16.5762 12.8621 14.5805 12.8621 12.5849C12.8621 10.676 10.45 9.72151 9.1578 11.023C6.65956 13.6261 5.10893 16.4894 4.41976 20.0469C3.90288 22.7368 7.86561 23.9515 8.55478 21.1749C9.24395 18.4851 9.93312 15.8821 10.6223 13.1922C11.3115 10.5024 7.34873 9.37444 6.48727 12.0643C5.45351 15.2747 4.85049 18.5719 4.5059 21.9558C4.33361 24.0383 7.69332 24.9927 8.55478 23.0838C9.50239 20.9146 9.93312 19.0925 9.84697 16.663C9.76083 14.6673 6.74571 13.4525 5.7981 15.535C4.85049 17.6174 4.85049 19.0057 5.88425 21.0014C6.31498 21.7823 7.43488 22.3029 8.29634 21.9558C11.8283 20.8279 12.6898 16.5762 15.9634 15.6218C18.3755 14.8408 20.0122 14.407 19.6677 11.1966C18.2893 11.5436 16.9971 11.8907 15.6188 12.3246C17.4278 15.7953 21.3044 13.8864 23.4581 11.6304C25.5256 9.37444 24.4918 5.46986 21.1321 5.73017C19.8399 5.81694 19.1508 6.68462 18.9785 7.89938C18.6339 10.676 19.1508 12.9319 20.443 15.4482C21.7352 17.8777 25.4395 15.7085 24.1473 13.279C23.1997 11.4569 23.0274 9.89505 23.2858 7.89938C22.5966 8.59352 21.8213 9.37444 21.1321 10.0686C20.9598 8.85383 20.3568 8.59352 19.5815 9.46121C18.9785 9.72151 18.9785 9.98181 19.5815 10.3289C18.6339 8.50675 15.3603 9.28767 15.5326 11.4569C16.7387 11.5436 16.8248 11.5436 15.8772 11.4569C15.5326 11.4569 15.188 11.5436 14.8435 11.5436C14.0681 11.804 13.379 11.9775 12.6037 12.4981C10.7084 13.7996 9.67468 17.2703 7.43488 17.9645C8.2102 18.3116 9.07166 18.6586 9.84697 18.9189C9.84697 18.5719 9.76083 18.138 9.76083 17.791C8.38249 17.4439 7.09029 17.0968 5.71195 16.663C5.88424 18.138 5.71195 19.5263 5.02278 20.9146C6.40112 21.2617 7.69332 21.6088 9.07166 22.0426C9.3301 19.0057 10.0193 16.2291 10.8807 13.3658C9.50239 13.0187 8.12405 12.5849 6.74571 12.2378C6.05654 14.9276 5.36737 17.5307 4.6782 20.2205C6.05654 20.5675 7.43488 21.0014 8.81322 21.3485C9.3301 18.5719 10.45 16.3159 12.4314 14.2335C11.2253 13.7129 10.0193 13.1922 8.72707 12.6716C8.72707 14.6673 8.55478 16.663 8.29634 18.6586C7.95176 21.2617 11.7422 21.2617 12.5175 19.266C13.5513 16.663 15.0158 14.407 16.8248 12.2378C15.6188 11.7172 14.4127 11.1966 13.1205 10.676C12.8621 13.1055 12.2591 15.2747 11.3115 17.5307C10.45 19.6131 13.5513 21.0882 14.9296 19.6131C16.6525 17.8777 18.3755 16.4027 20.443 15.0144C19.4954 14.0599 18.4616 13.0187 17.514 12.0643C15.9634 14.4938 14.3266 16.7497 12.4314 18.9189C10.6223 21.0882 13.379 23.778 15.4465 21.9558C18.0309 19.7866 20.7014 17.7042 23.5442 15.7953C22.6828 14.6673 21.8213 13.5393 20.9598 12.4113C19.4954 13.8864 18.0309 15.3614 16.5664 16.8365C14.9296 18.4851 17.1694 21.7823 19.1508 20.2205C21.4767 18.4851 23.8888 17.01 26.5594 15.7953C25.6117 14.8408 24.578 13.7996 23.6304 12.8452C23.2858 13.7129 22.7689 14.4938 22.0797 15.1011C20.2707 17.1836 23.0274 20.0469 25.0949 18.138C31.039 12.7584 26.9039 4.86248 20.7876 1.99913C19.0646 1.21822 17.2556 2.51974 17.6001 4.42864C18.117 7.37877 20.8737 8.41999 23.1996 9.89505C26.9901 12.151 30.6944 14.4938 34.4848 16.7497C34.6571 15.4482 34.8294 14.1467 35.0017 12.7584C33.9679 13.1055 32.848 13.4525 31.8143 13.7996C32.5896 14.1467 33.4511 14.4938 34.2264 14.7541C33.0203 12.4113 30.6082 12.0643 28.2823 12.9319C23.6304 14.6673 19.3231 17.4439 14.7573 19.3528C12.6898 20.2205 10.5361 21.2617 8.38249 21.7823C3.21371 23.0838 4.5059 18.6586 6.05654 15.7085C7.86561 12.2378 12.9482 4.16834 17.3417 3.90803C16.6525 2.95358 15.9634 2.0859 15.2742 1.13145C15.2742 2.17267 14.8435 3.12712 14.0681 3.90803C15.188 4.77572 16.3079 5.6434 17.4278 6.51108C18.117 5.55663 18.8923 4.60218 19.5815 3.56096C18.2893 3.04035 16.9971 2.43297 15.6188 1.91236C15.0158 4.08157 14.3266 5.29633 12.6898 6.94492C13.8097 7.81261 14.9296 8.68029 16.0495 9.54797C16.911 8.15968 17.6863 7.37877 18.9785 6.33755C17.7724 5.81694 16.5664 5.29633 15.2742 4.77572C13.5513 7.37876 16.5664 10.4157 18.4616 8.41998Z"/>
</mask>
<path d="M18.4616 8.41998C19.4092 7.37877 19.6677 6.77139 19.6677 5.38309C19.7538 3.30066 17.3417 2.78005 15.9634 3.82127C14.4989 4.94925 13.379 6.25078 12.3452 7.89938C11.053 9.98182 13.982 12.3246 15.7049 10.5024C17.6863 8.50675 18.8923 6.33755 19.7538 3.56096C20.443 1.04468 17.1694 0.00345993 15.7911 1.91236C15.1019 2.86681 14.3266 3.82127 13.6374 4.86249C12.1729 6.85816 15.3603 9.28767 16.9971 7.46554C18.2893 6.07724 18.9785 4.68895 19.3231 2.78005C19.4954 1.47852 18.8062 -0.0833073 17.2556 0.003461C11.9145 0.350534 8.55478 5.20956 5.53966 9.11413C2.78298 12.6716 -1.52434 18.8322 0.543175 23.6912C5.28122 34.5372 29.4022 15.1011 30.5221 17.2704C30.9528 18.0513 32.0727 18.5719 32.9342 18.2248C33.9679 17.8777 35.0878 17.5307 36.1216 17.1836C37.8445 16.5762 38.2753 14.2335 36.6385 13.1922C34.0541 11.6304 31.4697 10.0686 28.8853 8.50675C27.3347 7.5523 22.0797 5.46986 21.7352 3.56096C20.7014 4.34188 19.6677 5.20956 18.5478 5.99047C22.0797 7.5523 26.0425 11.6304 21.9936 15.2747C23.0274 16.3159 24.0611 17.3571 25.0087 18.3116C25.8702 17.2704 26.5594 16.3159 27.2485 15.1011C28.3684 13.1055 26.2148 11.2833 24.3195 12.151C21.649 13.3658 19.2369 14.8408 16.911 16.5762C17.7724 17.7042 18.6339 18.8322 19.4954 19.9602C20.9598 18.4851 22.4243 17.01 23.8888 15.535C25.6117 13.7996 23.3719 10.7627 21.3044 12.151C18.2032 14.2335 15.188 16.4894 12.3452 18.9189C13.379 19.9602 14.4127 21.0014 15.3603 21.9558C17.4278 19.4396 19.3231 16.9233 21.046 14.1467C22.1659 12.3246 19.9261 9.98181 18.117 11.1966C15.7911 12.7584 13.7236 14.407 11.7422 16.4894C12.9482 17.1836 14.1543 17.8777 15.3603 18.5719C16.3941 15.9688 16.9971 13.3658 17.3417 10.5892C17.514 8.68029 14.8435 7.72584 13.6374 9.02736C11.2253 11.7172 9.50239 14.5805 8.21019 17.9645C9.58854 18.138 11.053 18.3116 12.4314 18.5719C12.6898 16.5762 12.8621 14.5805 12.8621 12.5849C12.8621 10.676 10.45 9.72151 9.1578 11.023C6.65956 13.6261 5.10893 16.4894 4.41976 20.0469C3.90288 22.7368 7.86561 23.9515 8.55478 21.1749C9.24395 18.4851 9.93312 15.8821 10.6223 13.1922C11.3115 10.5024 7.34873 9.37444 6.48727 12.0643C5.45351 15.2747 4.85049 18.5719 4.5059 21.9558C4.33361 24.0383 7.69332 24.9927 8.55478 23.0838C9.50239 20.9146 9.93312 19.0925 9.84697 16.663C9.76083 14.6673 6.74571 13.4525 5.7981 15.535C4.85049 17.6174 4.85049 19.0057 5.88425 21.0014C6.31498 21.7823 7.43488 22.3029 8.29634 21.9558C11.8283 20.8279 12.6898 16.5762 15.9634 15.6218C18.3755 14.8408 20.0122 14.407 19.6677 11.1966C18.2893 11.5436 16.9971 11.8907 15.6188 12.3246C17.4278 15.7953 21.3044 13.8864 23.4581 11.6304C25.5256 9.37444 24.4918 5.46986 21.1321 5.73017C19.8399 5.81694 19.1508 6.68462 18.9785 7.89938C18.6339 10.676 19.1508 12.9319 20.443 15.4482C21.7352 17.8777 25.4395 15.7085 24.1473 13.279C23.1997 11.4569 23.0274 9.89505 23.2858 7.89938C22.5966 8.59352 21.8213 9.37444 21.1321 10.0686C20.9598 8.85383 20.3568 8.59352 19.5815 9.46121C18.9785 9.72151 18.9785 9.98181 19.5815 10.3289C18.6339 8.50675 15.3603 9.28767 15.5326 11.4569C16.7387 11.5436 16.8248 11.5436 15.8772 11.4569C15.5326 11.4569 15.188 11.5436 14.8435 11.5436C14.0681 11.804 13.379 11.9775 12.6037 12.4981C10.7084 13.7996 9.67468 17.2703 7.43488 17.9645C8.2102 18.3116 9.07166 18.6586 9.84697 18.9189C9.84697 18.5719 9.76083 18.138 9.76083 17.791C8.38249 17.4439 7.09029 17.0968 5.71195 16.663C5.88424 18.138 5.71195 19.5263 5.02278 20.9146C6.40112 21.2617 7.69332 21.6088 9.07166 22.0426C9.3301 19.0057 10.0193 16.2291 10.8807 13.3658C9.50239 13.0187 8.12405 12.5849 6.74571 12.2378C6.05654 14.9276 5.36737 17.5307 4.6782 20.2205C6.05654 20.5675 7.43488 21.0014 8.81322 21.3485C9.3301 18.5719 10.45 16.3159 12.4314 14.2335C11.2253 13.7129 10.0193 13.1922 8.72707 12.6716C8.72707 14.6673 8.55478 16.663 8.29634 18.6586C7.95176 21.2617 11.7422 21.2617 12.5175 19.266C13.5513 16.663 15.0158 14.407 16.8248 12.2378C15.6188 11.7172 14.4127 11.1966 13.1205 10.676C12.8621 13.1055 12.2591 15.2747 11.3115 17.5307C10.45 19.6131 13.5513 21.0882 14.9296 19.6131C16.6525 17.8777 18.3755 16.4027 20.443 15.0144C19.4954 14.0599 18.4616 13.0187 17.514 12.0643C15.9634 14.4938 14.3266 16.7497 12.4314 18.9189C10.6223 21.0882 13.379 23.778 15.4465 21.9558C18.0309 19.7866 20.7014 17.7042 23.5442 15.7953C22.6828 14.6673 21.8213 13.5393 20.9598 12.4113C19.4954 13.8864 18.0309 15.3614 16.5664 16.8365C14.9296 18.4851 17.1694 21.7823 19.1508 20.2205C21.4767 18.4851 23.8888 17.01 26.5594 15.7953C25.6117 14.8408 24.578 13.7996 23.6304 12.8452C23.2858 13.7129 22.7689 14.4938 22.0797 15.1011C20.2707 17.1836 23.0274 20.0469 25.0949 18.138C31.039 12.7584 26.9039 4.86248 20.7876 1.99913C19.0646 1.21822 17.2556 2.51974 17.6001 4.42864C18.117 7.37877 20.8737 8.41999 23.1996 9.89505C26.9901 12.151 30.6944 14.4938 34.4848 16.7497C34.6571 15.4482 34.8294 14.1467 35.0017 12.7584C33.9679 13.1055 32.848 13.4525 31.8143 13.7996C32.5896 14.1467 33.4511 14.4938 34.2264 14.7541C33.0203 12.4113 30.6082 12.0643 28.2823 12.9319C23.6304 14.6673 19.3231 17.4439 14.7573 19.3528C12.6898 20.2205 10.5361 21.2617 8.38249 21.7823C3.21371 23.0838 4.5059 18.6586 6.05654 15.7085C7.86561 12.2378 12.9482 4.16834 17.3417 3.90803C16.6525 2.95358 15.9634 2.0859 15.2742 1.13145C15.2742 2.17267 14.8435 3.12712 14.0681 3.90803C15.188 4.77572 16.3079 5.6434 17.4278 6.51108C18.117 5.55663 18.8923 4.60218 19.5815 3.56096C18.2893 3.04035 16.9971 2.43297 15.6188 1.91236C15.0158 4.08157 14.3266 5.29633 12.6898 6.94492C13.8097 7.81261 14.9296 8.68029 16.0495 9.54797C16.911 8.15968 17.6863 7.37877 18.9785 6.33755C17.7724 5.81694 16.5664 5.29633 15.2742 4.77572C13.5513 7.37876 16.5664 10.4157 18.4616 8.41998Z" transform="translate(13.2711 24.2667)" fill="#6B99C3" stroke="#6B99C3" stroke-width="4" mask="url(#path-1-inside-1)"/>
<path d="M46.3451 17.4978C46.1728 17.4111 46.0866 17.2375 45.9143 17.1507C46.862 20.7082 47.7234 24.179 48.671 27.7365C48.671 27.5629 48.7572 27.3894 48.7572 27.2159C46.2589 29.7321 43.7607 32.2484 41.2624 34.7647C41.4347 34.7647 41.607 34.6779 41.7793 34.6779C38.2473 33.7235 34.8015 32.8558 31.2695 31.9014C31.4418 32.0749 31.5279 32.1617 31.7002 32.3352C30.6665 29.8189 29.6327 27.2159 28.5128 24.6996C28.5989 26.0879 28.6851 27.5629 28.7712 28.9512C29.7188 42.8342 49.5325 42.9209 50.3078 28.9512C50.4801 26.5217 50.5662 24.0054 50.7385 21.5759C50.8247 20.4479 50.8247 19.4067 50.9108 18.2787C50.9108 17.7581 50.997 17.1507 50.997 16.6301C51.2554 14.2874 50.5662 15.4154 49.1018 20.1009C47.5511 21.0553 45.9143 21.923 44.3637 22.8775C43.5022 22.7907 43.5022 22.7039 44.2776 22.7907C44.8806 22.7907 45.3975 22.7907 46.0005 22.7039C48.3264 22.4436 50.3078 21.8362 52.3753 20.7082C47.2927 16.3698 42.0378 12.2917 36.7828 8.21361C35.7491 14.2006 36.5244 19.32 38.8503 24.8731C40.5733 28.9512 42.2101 32.8558 43.33 37.1075C45.8282 46.2181 46.862 55.6759 49.5325 64.6998C50.8247 69.2117 52.3753 74.7649 55.132 78.5827C55.4766 79.1033 55.735 80.0578 55.4766 78.9298C55.3904 78.6695 55.5627 80.4048 55.5627 80.8387C55.5627 83.5285 55.5627 86.2183 55.735 88.9081C56.0796 94.201 56.5103 99.9277 58.061 105.134C59.0086 108.171 60.5592 111.208 62.799 113.55C63.3159 114.071 63.8328 114.418 64.3497 114.852C68.2262 118.062 65.5557 115.98 64.6942 113.724C69.0877 109.299 73.5673 104.787 77.9608 100.362C64.6942 97.585 50.9108 94.8951 38.9365 88.214C32.6478 84.6565 25.9284 78.9298 18.3475 78.9298C8.35456 78.7562 3.61652 88.6478 0.51525 96.7173C-1.37997 101.663 2.23818 107.65 6.71778 109.472C11.3697 111.381 17.7445 109.993 20.1566 105.047C27.3067 90.2964 24.1193 74.1575 28.7712 58.7995C30.9249 51.5978 34.1123 44.7431 36.9551 37.7148C40.0564 29.9925 42.2101 22.3568 43.2438 14.0271C44.6222 3.18105 27.9098 -0.463216 23.1717 8.56069C19.2951 15.8492 15.4186 23.4848 14.2125 31.7278C12.748 41.3591 14.5571 50.6433 18.1752 59.4937C24.7224 75.1987 34.543 89.4287 45.9143 101.923C49.4463 95.8496 52.8922 89.8626 56.4242 83.7888C51.8584 82.9211 47.2927 82.1402 42.8992 80.6651C41.0902 80.0578 40.2287 79.7107 38.3335 78.6695C37.472 78.1489 36.6105 77.368 35.6629 76.9341C34.6292 76.5003 34.8876 73.7237 36.1798 78.843C35.8352 81.6196 35.4906 84.3962 35.0599 87.1728C34.1123 89.0817 32.8201 90.0361 31.1833 90.0361C31.6141 90.0361 32.0448 90.0361 32.4755 90.0361C31.7864 89.7758 34.543 90.47 34.8876 90.47C37.9889 91.0773 41.2624 91.7715 44.4499 91.6847C53.7537 91.2509 59.6116 83.8756 58.5778 74.6781C57.0272 61.3158 53.8398 48.127 49.0156 35.5456C42.1239 37.4545 35.1461 39.3634 28.2544 41.2723C34.3707 57.2377 41.1763 72.9428 48.671 88.3008C51.2554 93.5069 58.664 94.9819 63.402 92.2053C68.7431 89.0817 69.863 82.6608 67.2786 77.368C60.5592 63.6586 54.4428 49.7756 49.0156 35.4589C46.9481 29.9925 41.7793 26.2614 35.7491 27.91C30.5803 29.3851 26.1007 35.7192 28.2544 41.2723C30.5803 47.5197 32.6478 53.767 34.1984 60.2746C34.9738 63.3983 35.6629 66.5219 36.1798 69.6456C36.4383 71.2074 36.7828 72.7692 36.9551 74.3311C37.0413 74.6781 37.0413 75.0252 37.1274 75.3723C37.2136 77.368 37.3859 77.0209 37.6443 74.5046C38.9365 73.2031 40.2287 71.9015 41.5209 70.6C43.933 69.3853 43.33 70.0794 41.2624 69.6456C39.7118 69.2985 38.1612 69.0382 36.6105 68.7779C32.9924 68.2573 29.4604 67.997 25.8423 68.9514C17.4861 71.2074 11.8866 80.1445 16.9692 88.214C23.8609 99.1468 38.9365 102.531 50.5662 104.613C60.9899 106.522 68.657 94.8084 61.0761 86.4786C52.0307 76.587 44.4499 65.3939 38.7642 53.2464C36.3521 48.0403 34.2846 41.7929 35.0599 35.9795C35.8352 29.9925 38.9365 24.6128 41.6932 19.4067C34.9738 17.5846 28.3405 15.7625 21.6211 13.9403C19.8982 27.5629 11.8004 39.9708 7.83768 52.9861C5.68403 60.2746 4.90871 67.8234 4.47798 75.3723C4.30569 81.7064 4.39183 88.3875 1.63515 94.1142C8.18227 96.8908 14.7294 99.6674 21.2765 102.444C21.6211 101.663 21.9657 100.882 22.3964 100.188C22.9994 99.06 24.7224 97.7585 22.5687 99.1468C20.7596 99.6674 18.9506 100.101 17.1415 100.622C16.1939 100.709 17.7445 100.795 18.0891 100.969C18.9506 101.403 19.812 101.923 20.5873 102.357C22.6548 103.572 24.6362 104.874 26.7037 106.088C31.6141 108.952 36.869 111.294 42.2101 113.29C51.9446 116.934 62.1098 119.104 72.189 121.186C79.5114 122.748 88.4706 116.153 85.4555 107.824C84.5079 105.221 83.388 103.051 81.4928 100.969C80.5452 100.014 79.3391 99.06 78.2192 98.2791C79.1668 98.8865 78.3915 98.6262 78.0469 98.0188C79.253 100.014 78.6499 98.5394 78.3915 97.1511C78.1331 96.1099 77.9608 95.0687 77.8746 94.0275C77.6162 92.0318 77.3577 89.9493 77.2716 87.9537C77.0132 83.0947 77.7023 77.8018 76.2378 73.0295C75.0318 68.9514 72.5335 65.4807 71.1552 61.4893C68.3985 53.2464 67.1925 44.5695 65.2973 36.0662C64.3497 31.8146 63.2297 27.6497 61.6791 23.5716C60.8176 21.4024 57.2857 15.5021 57.5441 13.68C59.1809 4.48257 50.4801 -3.32657 41.6932 1.44569C41.3486 1.61922 41.0902 1.79276 40.7456 1.96629C42.5546 1.44568 44.3637 1.01185 46.1728 0.491236C43.1577 0.838309 40.3148 0.664772 37.472 2.05306C33.8539 3.78843 31.4418 6.73855 30.2357 10.5564C28.6851 16.2831 29.202 23.051 28.8574 28.7777C36.0075 28.7777 43.2438 28.7777 50.394 28.7777C50.1355 24.4393 50.1355 20.1876 46.9481 16.8904C43.7607 13.5933 39.798 12.8991 35.4906 13.8536C32.1309 14.5477 28.5989 17.9317 27.9959 21.4024C27.2206 25.7408 27.7375 29.7322 31.0972 32.9426C41.2624 42.3136 56.5965 26.9556 46.3451 17.4978Z" transform="translate(1.84149 40.5252)" fill="#6B99C3"/>
<path d="M14.9326 11.6496C13.2958 12.3438 11.4006 11.9967 9.93613 11.129C6.23184 9.13333 1.66608 10.8687 0.460036 15.0336C-0.918305 19.6323 0.890767 24.4046 4.6812 27.1811C8.81623 30.1313 13.4681 29.6974 18.2062 29.0033C28.6299 27.4414 39.2259 27.8753 49.6496 28.5694C58.8672 29.09 69.894 30.9122 77.561 24.3178C80.9207 21.3677 83.3328 17.0292 83.3328 12.4305C83.4189 6.53028 79.37 4.18754 75.1489 0.977115C72.306 -1.19209 67.9126 0.54327 66.2758 3.31986C64.2944 6.61705 65.8451 10.0878 68.6018 12.257C70.1524 13.385 71.703 14.5997 73.1675 15.7277C72.2199 14.4262 71.1861 13.1247 70.2385 11.8232C71.9615 18.9382 47.1513 15.3806 43.8778 15.2071C38.1921 14.9468 32.5065 14.7733 26.8208 15.1203C24.1503 15.2939 21.3936 15.5542 18.723 15.9013C17.1724 16.0748 15.6218 16.4219 14.0711 16.5954C13.5543 16.5954 13.0374 16.6822 12.5205 16.6822C11.3145 16.4219 11.4006 17.0292 12.6928 18.5043C9.5054 19.8058 6.40413 21.1074 3.21672 22.4089C9.16081 25.6193 15.1049 25.6193 21.3074 22.9295C24.4949 21.5412 25.184 16.8557 23.6334 13.9924C21.8243 10.6084 18.12 10.2613 14.9326 11.6496Z" transform="translate(3.27509 131.233)" fill="#6B99C3"/>
<path d="M15.4257 14.0284C15.6841 13.421 15.9426 12.9004 16.201 12.293C14.9088 13.2475 13.6166 14.2887 12.3244 15.2431C12.7551 15.1564 13.1859 15.0696 13.6166 14.9828C16.1148 14.549 17.9239 11.8592 18.2685 9.60319C18.6131 7.17367 17.4932 4.31032 15.1672 3.09556C12.9274 1.96758 10.5153 0.926355 8.10324 0.232208C4.82968 -0.722243 0.953101 1.3602 0.177784 4.74416C-0.597533 8.2149 1.21154 11.7724 4.65739 12.7268C5.51885 12.9871 6.38032 13.3342 7.32793 13.5945C8.70627 14.0284 5.94958 12.9871 7.24178 13.5945C7.75866 13.8548 8.18939 14.0284 8.70627 14.2887C9.22315 10.2973 9.74002 6.39276 10.2569 2.40142C8.36168 2.74849 6.81105 3.35587 5.605 4.9177C5.00198 5.69861 4.74354 6.47953 4.39895 7.34721C3.70978 8.99581 3.27905 10.5576 3.70978 12.3798C4.14051 13.8548 5.26042 15.5034 6.63876 16.2843C8.10324 17.0653 9.91232 17.4991 11.6352 16.9785C13.0997 16.5446 14.8227 15.5034 15.4257 14.0284Z" transform="translate(55.8481 57.9643)" fill="#6B99C3"/>
<path d="M7.49473 4.78757C7.32244 3.83312 7.064 3.39928 6.28868 2.7919C4.99648 1.75068 3.27356 2.09776 2.67053 3.74636C2.41209 4.52727 2.06751 5.30819 1.80907 6.00234C3.01512 5.65526 4.22117 5.39495 5.42722 5.04788C4.6519 4.09343 4.13502 3.0522 4.13502 1.92422C2.75668 2.27129 1.37834 2.70513 0 3.05221C1.1199 8.08477 2.32595 13.0306 3.44585 18.0631C4.6519 17.369 5.85795 16.6748 7.064 15.9807C6.97785 15.1998 6.8917 14.5056 6.80556 13.7247C5.51336 13.5512 4.22117 13.3776 2.84283 13.2041C3.3597 15.1998 4.04887 16.9351 5.25492 18.5837C6.63326 20.4926 9.99297 22.4883 10.3376 24.9178C11.5436 24.3972 12.7497 23.8766 14.0418 23.356C11.9743 21.1868 9.99297 19.1043 7.92546 16.9351C7.23629 18.1499 6.54712 19.3646 5.85795 20.5794C8.95921 21.7942 11.0267 28.4753 12.7497 31.1651C14.3003 33.6814 16.0232 36.8918 18.263 38.8007C20.2444 40.5361 22.9149 40.1023 25.4132 40.1023C29.9789 40.1023 34.5447 40.1023 39.1966 40.1023C41.1779 40.1023 42.2978 36.9786 40.3165 36.0242C36.7845 34.2888 34.8031 30.1239 32.8217 26.9135C30.5819 23.2692 28.6006 19.5382 27.1361 15.5469C26.4469 16.5013 25.7577 17.369 25.0686 18.3234C27.7391 18.2367 30.4096 18.2367 33.1663 18.4102C35.923 18.5837 35.923 14.2453 33.1663 14.0718C30.6681 13.8982 28.256 13.7247 25.7577 13.4644C23.9487 13.2909 22.9149 15.9807 24.2071 17.1954C26.7915 19.4514 28.3421 21.9677 29.2036 25.3517C30.2373 24.5707 31.2711 23.7031 32.391 22.9222C27.9975 20.4059 27.1361 14.5056 22.398 11.9026C17.8323 9.38629 11.9743 9.6466 7.92546 5.91556C7.064 7.04355 6.20253 8.17153 5.34107 9.29952C7.92546 10.6878 10.3376 12.2496 12.6635 14.0718C13.1804 12.857 13.6973 11.6423 14.2141 10.3408C12.4051 10.0804 10.9406 9.64661 9.3038 9.03923C7.58087 8.34508 6.46097 10.254 6.63327 11.729C6.8917 13.2909 7.49473 14.4189 8.44234 15.6336C9.73453 17.2822 11.9743 15.7204 12.1466 14.0718C12.3189 12.4232 11.802 11.4687 10.7683 10.254C9.3038 8.60538 6.54712 10.3407 7.15014 12.3364C7.66702 14.0718 8.27004 15.6336 9.13151 17.1954C10.1653 19.1043 13.0942 18.1499 13.1804 16.0675C13.1804 15.113 13.2665 14.1585 13.2665 13.2041C11.8882 13.5512 10.596 13.8982 9.21765 14.3321C10.3376 16.1542 11.5436 17.8896 12.9219 19.625C13.8696 20.8397 15.1617 21.0133 16.2817 20.0588C17.4016 19.1911 17.9184 18.2367 18.263 16.9351C17.057 17.2822 15.8509 17.5425 14.6449 17.8896C15.0756 18.3234 15.5063 18.6705 15.8509 19.1043C16.7985 20.0588 18.5215 19.8853 19.2106 18.6705C19.5552 18.0631 19.8998 17.369 20.2444 16.7616C18.9522 16.5881 17.66 16.4145 16.2817 16.241C16.4539 17.5425 16.8847 18.5837 17.5738 19.7117C18.4353 21.0132 20.5028 21.1868 21.2781 19.7117C21.5366 19.1911 21.795 18.7573 22.0534 18.2367C20.7613 18.0631 19.4691 17.8896 18.0907 17.7161C18.7799 20.3191 19.8998 22.3148 21.795 24.3104C22.8288 25.4384 24.3794 24.9178 25.1547 23.8766C25.93 22.8354 26.0162 22.3148 26.1023 21.0132C24.6378 21.0132 23.2595 21.0132 21.795 21.0132C21.9673 24.2237 22.8288 27.0003 24.4655 29.6901C25.4132 31.1651 27.9975 31.0784 28.4283 29.1695C29.1174 26.1326 28.9452 23.4428 27.8253 20.5794C26.7915 18.0631 23.0011 18.9308 23.6902 21.7074C24.5517 25.4384 25.93 28.8224 27.7391 32.1196C29.0313 34.3756 32.0464 32.727 31.7018 30.471C31.185 27.2606 30.1512 24.3972 28.5144 21.5339C27.3084 19.4514 23.8625 20.8397 24.5517 23.1824C25.4993 26.1326 26.3608 28.9959 27.3084 31.9461C28.6006 31.4254 29.8928 30.8181 31.2711 30.2975C28.6006 26.1326 26.0162 22.0545 23.3456 17.8896C21.9673 15.7204 19.0383 17.1954 19.3829 19.5382C19.9859 23.6163 21.3643 27.2606 23.5179 30.8181C24.724 30.1239 26.0162 29.343 27.2222 28.6489C25.1547 25.8723 23.0872 23.1825 21.0197 20.4059C19.7275 18.6705 16.1955 19.5382 17.057 22.0545C18.0046 24.6575 18.9522 27.3473 19.9859 29.9504C20.9335 32.5534 25.0686 31.4254 24.121 28.8224C22.9149 25.4384 21.192 22.5751 18.866 19.8853C17.4016 18.2367 14.6449 19.972 15.2479 21.9677C16.1955 25.0914 17.057 28.3018 18.0046 31.4254C19.3829 31.0784 20.7613 30.6445 22.1396 30.2975C21.0197 27.087 19.4691 24.3972 17.3154 21.7942C15.9371 20.1456 13.0942 21.8809 13.6973 23.8766C14.731 27.4341 16.4539 30.471 18.866 33.2476C20.4167 34.9829 22.8288 33.074 22.4842 31.1651C21.795 27.087 20.0721 23.6163 17.5738 20.4059C16.1094 18.497 13.6111 20.6662 13.9557 22.4883C14.8172 27.3473 17.2293 31.3387 21.0197 34.4623C22.3119 35.5035 24.8101 34.9829 24.724 32.9005C24.6378 32.0328 24.6378 31.2519 24.5517 30.3842C23.3456 30.9048 22.1396 31.4254 20.8474 31.9461C21.2781 32.4667 21.7089 33.074 22.2257 33.5946C23.4318 35.0697 25.93 33.855 25.93 32.0328C25.8439 30.6445 25.8439 30.2107 25.4132 28.8224C24.6378 26.1326 20.589 27.2606 21.2781 29.9504C21.6227 31.5122 22.0534 33.074 22.398 34.6359C23.7764 34.2888 25.1547 33.855 26.5331 33.5079C26.1023 32.1196 25.4993 31.1651 24.4655 30.2107C23.2595 29.0827 21.3643 29.6033 20.8474 31.1651C20.4167 32.4667 20.4167 32.727 20.5028 34.1153C21.9673 34.1153 23.3456 34.1153 24.8101 34.1153C24.724 34.3756 24.5517 34.6359 24.4655 34.8962C23.6041 34.9829 22.7426 35.1565 21.8812 35.2433C24.3794 36.458 26.4469 36.2845 27.9114 33.7682C26.7054 33.7682 25.4132 33.7682 24.2071 33.7682C24.4655 34.2888 24.8101 34.8094 25.0686 35.33C25.4993 36.1109 26.6192 36.6315 27.4807 36.2845C28.3421 35.9374 29.2036 35.6771 30.1512 35.33C29.2897 34.8094 28.3421 34.2888 27.4807 33.855C27.5668 34.3756 27.7391 34.8094 27.8253 35.33C28.0837 36.3712 29.3759 37.2389 30.4958 36.8051C31.3573 36.458 31.788 36.2845 32.5633 35.6771C31.7018 35.5903 30.8404 35.4168 29.9789 35.33C32.3049 37.2389 35.2338 37.4992 36.3537 34.1153C34.9754 34.1153 33.5971 34.1153 32.2187 34.1153C32.9079 35.7639 33.5971 36.8051 35.1477 37.6728C36.8706 38.6272 38.6797 37.0654 38.3351 35.2433C37.5598 31.6858 35.923 28.7356 33.2525 26.2193C31.4434 24.484 28.7729 26.6532 29.8928 28.8224C31.3572 31.7725 32.8217 34.7226 34.2862 37.586C34.8893 36.458 35.4923 35.4168 36.1814 34.2888C26.1885 34.8962 19.9859 26.4797 15.2479 18.7573C14.0418 16.6748 10.596 17.9764 11.2852 20.4059C11.5436 21.1868 11.802 22.0545 11.9743 22.8354C13.1804 22.1412 14.3864 21.4471 15.5925 20.7529C14.9033 20.0588 14.128 19.2779 13.4388 18.5837C12.3189 17.4558 10.2514 17.9764 9.82068 19.5382C8.01161 26.5664 18.6937 28.4753 23.6902 28.9092C26.4469 29.1695 26.4469 24.8311 23.6902 24.5707C22.4842 24.484 13.4388 23.0089 14.0418 20.6662C12.8358 21.0132 11.6297 21.2736 10.4237 21.6206C11.1129 22.3148 11.8882 23.0957 12.5774 23.7898C14.0418 25.2649 16.7985 23.7898 16.1955 21.7074C15.9371 20.9265 15.6786 20.0588 15.5063 19.2779C14.2141 19.7985 12.9219 20.4059 11.5436 20.9265C17.057 29.9504 24.5517 39.2346 36.1814 38.6272C37.9044 38.5404 38.7658 36.8918 38.0767 35.33C36.6122 32.3799 35.1477 29.4298 33.6832 26.5664C32.5633 27.4341 31.4434 28.3018 30.3235 29.1695C32.4771 31.2519 33.6832 33.4211 34.2862 36.2845C35.32 35.5036 36.3537 34.6359 37.4736 33.855C37.1291 33.5079 36.7845 33.2476 36.526 32.9005C35.7507 30.9916 33.0802 30.7313 32.391 32.9005C32.3049 33.1608 32.2187 33.4211 32.1326 33.6814C32.6494 33.1608 33.1663 32.6402 33.5971 32.2064C33.4248 32.2064 33.3386 32.2064 33.1663 32.2064C32.4771 31.6858 31.3573 31.2519 30.5819 31.8593C30.2373 32.1196 29.8928 32.2931 29.5482 32.5534C30.4096 33.074 31.3573 33.5946 32.2187 34.0285C32.1326 33.5079 31.9603 33.074 31.8741 32.5534C31.6157 31.5122 30.3235 30.6445 29.2036 31.0784C28.3421 31.4254 27.4807 31.6858 26.5331 32.0328C27.3084 32.3799 28.1698 32.727 28.9452 32.9873C28.6867 32.4667 28.3421 31.946 28.0837 31.4254C27.3084 29.9504 25.1547 30.0371 24.3794 31.4254C24.2933 31.4254 24.2933 31.3387 24.2071 31.3387C23.2595 30.9048 22.398 30.9916 21.6227 31.6857C20.9335 32.2931 20.589 32.9873 20.6751 33.9417C21.0197 36.6315 25.1547 36.8051 24.9824 33.9417C25.0686 33.3344 25.1547 32.727 25.2409 32.2064C24.0348 32.5534 22.8288 32.8137 21.6227 33.1608C21.9673 33.5946 22.2257 34.1153 22.5703 34.5491C23.4318 37.1522 27.3945 36.1109 26.7054 33.4211C26.3608 31.8593 25.93 30.2975 25.5854 28.7356C24.2071 29.0827 22.8288 29.5165 21.4504 29.8636C21.5366 30.5578 21.7089 31.2519 21.795 31.9461C23.0011 31.4254 24.2071 30.9048 25.4993 30.3842C25.0686 29.8636 24.6378 29.2562 24.121 28.7356C22.9149 27.3473 20.3305 28.4753 20.4167 30.2975C20.5028 31.1651 20.5028 31.9461 20.589 32.8137C21.795 32.2931 23.0011 31.7725 24.2933 31.2519C21.0197 28.5621 19.1245 25.4384 18.3492 21.1868C17.1431 21.8809 15.9371 22.5751 14.731 23.2692C16.7985 25.8723 18.0046 28.8224 18.5215 32.1196C19.7275 31.4254 20.9335 30.7313 22.1396 30.0372C20.1582 27.7812 18.866 25.4384 18.0907 22.5751C16.8847 23.2692 15.6786 23.9634 14.4726 24.6575C16.1955 26.6532 17.3154 28.7356 18.1769 31.2519C19.0383 33.855 23.0872 32.8137 22.3119 30.1239C21.3643 27.0003 20.5028 23.7898 19.5552 20.6662C18.3492 21.3603 17.1431 22.0545 15.9371 22.7486C17.8323 24.9178 19.1245 27.087 20.0721 29.7768C21.4504 29.4298 22.8288 28.9959 24.2071 28.6489C23.2595 26.0458 22.3119 23.356 21.2781 20.7529C19.9859 21.2736 18.6937 21.8809 17.3154 22.4015C19.3829 25.1781 21.4504 27.8679 23.5179 30.6445C25.1547 32.8137 28.7729 30.9048 27.2222 28.4753C25.2409 25.2649 24.121 21.9677 23.5179 18.2367C22.2257 18.7573 20.9335 19.3647 19.5552 19.8853C22.2257 24.0501 24.8101 28.1282 27.4807 32.2931C28.7729 34.2888 32.2187 33.074 31.4434 30.6445C30.4958 27.6944 29.6343 24.831 28.6867 21.8809C27.3945 22.4015 26.1023 23.0089 24.724 23.5295C26.1023 26.0458 26.9638 28.5621 27.4807 31.4254C28.7729 30.9048 30.0651 30.2975 31.4434 29.7768C29.8066 26.74 28.6006 23.7031 27.8253 20.4059C26.4469 20.7529 25.0686 21.1868 23.6902 21.5339C24.5517 23.7031 24.8101 25.5252 24.2933 27.8679C25.5854 27.6944 26.8776 27.5209 28.256 27.3473C26.9638 25.2649 26.2746 23.2692 26.1885 20.8397C26.0162 17.9764 22.1396 18.0631 21.8812 20.8397C21.7089 21.1 21.6227 21.2736 21.4504 21.5339C22.5703 21.3603 23.6902 21.2736 24.8101 21.1C23.4318 19.625 22.7426 18.3234 22.2257 16.4145C21.795 14.6792 19.1245 14.2453 18.263 15.8939C18.0046 16.4145 17.7461 16.8484 17.4877 17.369C18.6937 17.369 19.9859 17.369 21.192 17.369C20.589 16.6748 20.3305 15.8939 20.3305 14.9395C20.0721 13.0306 17.2293 12.9438 16.3678 14.4189C16.0232 15.0262 15.6786 15.7204 15.334 16.3278C16.4539 16.1542 17.5738 16.0675 18.6937 15.8939C18.263 15.4601 17.8323 15.113 17.4877 14.6792C16.3678 13.5512 14.3003 14.0718 13.8696 15.6336C13.6111 16.0675 13.2665 16.4145 13.0081 16.8484C14.128 17.0219 15.2479 17.1087 16.3678 17.2822C15.0756 15.5469 13.8696 13.8115 12.6635 11.9893C11.5436 10.1672 8.70078 10.9481 8.61463 13.1173C8.61463 14.0718 8.52848 15.0262 8.52848 15.9807C9.90683 15.6336 11.199 15.2865 12.5774 14.8527C11.802 13.6379 11.2852 12.4232 11.0267 11.0349C9.82068 11.729 8.61463 12.4232 7.40858 13.1173C7.40858 13.3776 7.49473 13.6379 7.49473 13.8982C8.70078 13.3776 9.90682 12.857 11.199 12.3364C10.9406 11.6423 10.6821 11.0349 10.5098 10.3408C9.64839 11.2084 8.70077 12.1629 7.83931 13.0306C9.82068 13.8115 11.802 14.2453 13.9557 14.5056C15.7648 14.7659 16.8847 11.9026 15.5063 10.7746C12.9219 8.69215 10.2514 6.87002 7.32243 5.30819C5.25492 4.1802 2.84283 6.95678 4.73805 8.69215C8.70078 12.3364 13.6111 12.7703 18.4353 14.5924C24.121 16.8484 24.8963 23.356 29.9789 26.3061C31.6157 27.2606 33.5971 25.6987 33.1663 23.8766C32.1326 19.8853 30.1512 16.5881 27.0499 13.8115C26.5331 15.0262 26.0162 16.241 25.4993 17.5425C27.9975 17.716 30.4096 17.8896 32.9079 18.1499C32.9079 16.6748 32.9079 15.2865 32.9079 13.8115C30.2373 13.6379 27.5668 13.6379 24.8101 13.7247C23.5179 13.8115 22.2257 15.113 22.7426 16.5013C24.4655 21.3603 26.9638 25.8723 29.7205 30.2107C31.9603 33.7682 34.0278 37.6728 37.9905 39.5817C38.3351 38.1934 38.6797 36.8919 39.1104 35.5036C35.0615 35.5036 31.0988 35.5036 27.0499 35.5036C24.2071 35.5036 21.795 35.6771 19.5552 33.2476C18.3492 31.9461 17.4016 30.1239 16.4539 28.6489C13.6973 24.3104 12.1466 18.0631 6.97785 16.0675C4.91034 15.1998 3.532 18.2367 4.91034 19.7117C6.97785 21.8809 8.95921 23.9634 11.0267 26.1326C12.2328 27.3473 14.9033 26.5664 14.731 24.5707C14.0418 19.1043 8.44234 17.0219 7.064 11.729C6.63327 9.99367 3.96273 9.47307 3.10127 11.2084C1.72292 13.985 2.06751 16.4145 4.04888 18.6705C5.51336 20.4059 8.09775 18.497 7.66702 16.5881C6.54712 11.5555 5.34107 6.60971 4.22117 1.57715C3.61815 -1.19944 -0.344586 0.0153224 0.086145 2.70514C0.43073 4.78758 1.20605 6.17587 2.49824 7.82446C3.61815 9.21276 5.59951 8.25831 6.11639 6.87002C6.37482 6.08911 6.71941 5.30819 6.97785 4.61404C5.7718 4.96111 4.56575 5.22142 3.35971 5.5685C3.35971 5.5685 3.35971 5.65526 3.44585 5.65526C3.87658 8.69215 8.01161 7.56416 7.49473 4.78757Z" transform="translate(27.5977 142.346)" fill="#373737"/>
<path d="M3.11261 0.196348C3.02647 0.196348 3.02647 0.196343 2.94032 0.109574C1.99271 -0.237499 0.958956 0.283116 0.528225 1.06403C-0.763969 3.14647 0.614373 6.79073 1.47584 8.7864C3.19876 12.8645 6.12773 16.3352 8.71212 19.806C12.158 24.4915 16.293 34.036 23.2708 32.8212C26.0275 32.3874 24.8215 28.1357 22.1509 28.6564C19.825 29.0902 17.5852 24.7518 16.4653 23.1032C14.7424 20.8472 13.1056 18.5045 11.3827 16.2485C10.0043 14.4263 8.62598 12.6042 7.33378 10.6085C6.47232 9.30702 3.37106 4.62153 4.23252 3.14646C3.4572 3.49354 2.59574 3.84062 1.82042 4.10092C1.90657 4.10092 1.90657 4.10091 1.99271 4.18768C4.5771 5.31567 5.697 1.06403 3.11261 0.196348Z" transform="translate(27.5864 147.458)" fill="#373737"/>
<path d="M26.7725 11.1547C25.0495 9.7664 23.2405 8.3781 21.5175 6.98981C20.5699 6.29566 18.0717 4.64707 17.8994 3.95292C16.0903 5.77505 14.3674 7.51043 12.5583 9.33257C16.4349 10.6341 20.3976 11.5885 24.4465 12.1959C26.514 12.4562 28.6677 12.7165 30.7352 12.8033C32.4581 12.8901 35.7317 12.1959 37.11 13.3239C39.5221 15.3196 39.5221 21.3934 39.9529 24.2567C40.4697 28.2481 40.9866 32.1526 42.5372 35.8837C43.9156 39.3544 50.032 40.5691 50.8073 35.8837C51.7549 30.4173 51.1519 25.5582 48.7398 20.6124C46.3277 15.5799 39.0052 20.0051 41.3312 24.9509C42.8818 28.1613 42.3649 31.9791 40.039 34.7557C37.9715 37.2719 39.0052 42.6516 43.0541 42.131C43.7433 42.0442 44.4325 41.9574 45.2078 41.8707C44.8632 39.0073 44.4325 36.2307 44.0879 33.3674C37.0239 35.7969 28.84 33.0203 21.5175 32.9335C17.7271 32.9335 13.8505 33.1071 10.0601 33.3674C6.78652 33.6277 4.54672 33.7145 2.56536 36.5778C-0.0190317 40.1353 4.97745 44.6473 8.4233 42.4781C16.0903 37.7058 13.3336 25.9921 6.35579 21.8272C5.23589 24.4302 4.11599 27.1201 2.99609 29.7231C10.4047 30.9379 17.8994 31.3717 25.3941 31.0246C24.705 28.3348 23.9296 25.645 23.2405 22.9552C19.9669 24.7773 16.6933 26.1656 13.1613 27.1201C8.25101 28.4216 9.62935 35.2763 14.2813 35.6234C16.0042 35.7969 17.2102 36.2307 18.7609 37.0984C18.5024 34.8424 18.1578 32.5865 17.8994 30.2437C16.5211 31.8923 15.0566 33.4542 13.6782 35.1027C11.0077 38.1396 13.0752 42.0442 16.6933 42.4781C19.2777 42.8251 21.9483 43.1722 24.5327 43.5193C24.1881 40.6559 23.7573 37.8793 23.4128 35.016C20.4838 35.5366 17.641 35.3631 14.7981 34.6689C14.4535 37.5323 14.0228 40.3088 13.6782 43.1722C18.9332 43.1722 24.2742 43.1722 29.5291 43.1722C33.2334 43.1722 37.8853 43.7796 40.7282 40.7427C43.3987 37.8793 42.7095 33.888 42.4511 30.3305C41.9342 24.6906 41.3312 19.0506 40.642 13.3239C37.7992 13.671 35.0425 14.1048 32.1997 14.4519C32.372 15.8402 32.5443 17.2285 32.8027 18.6168C35.3871 17.4888 38.0576 16.3608 40.642 15.2328C37.3685 9.59286 29.8737 5.60153 25.5664 12.543C27.8062 12.2827 30.046 11.9356 32.372 11.6753C31.6828 10.9812 30.9075 10.287 30.2183 9.59286C28.4092 7.85749 24.6188 7.77073 23.4128 10.4605C24.2742 10.5473 25.1357 10.7209 25.9971 10.8076C24.6188 8.63842 21.0868 7.68396 19.1916 9.93994C17.4687 12.0224 16.5211 14.018 16.7795 16.7946C19.45 16.1005 22.1206 15.3196 24.7911 14.6254C23.3266 12.4562 21.776 10.8944 19.3639 9.67963C15.8319 7.8575 10.7493 11.8488 13.5059 15.5799C16.8656 20.2654 20.2253 25.0376 23.5851 29.7231C26.1694 33.3674 33.4057 31.3717 31.4244 26.3391C30.7352 24.517 30.046 22.6949 29.2707 20.8727C27.2032 22.5213 25.0495 24.1699 22.982 25.7318C26.8586 28.1613 25.8249 34.0615 31.1659 35.2763C35.7317 36.3175 39.0914 32.2394 37.9715 27.901C36.9377 23.6493 30.8213 23.9096 29.7014 27.901C29.5291 28.4216 29.3569 28.9422 29.1846 29.4628C31.9412 29.4628 34.6979 29.4628 37.4546 29.4628C36.8516 25.7318 35.904 22.1743 34.6118 18.6168C32.975 14.2784 26.1694 14.6254 26.1694 19.7448C26.1694 21.7404 26.1694 23.6493 26.1694 25.645C26.1694 26.5127 26.1694 27.2936 26.1694 28.1613C28.7538 28.1613 29.2707 27.7274 27.7201 26.9465C25.911 25.645 22.8097 26.5127 21.8621 28.5084C18.1578 36.3175 27.4616 44.9076 33.8365 37.7926C39.9528 31.0246 30.8213 21.133 23.6712 26.5995C19.2777 29.8966 23.5851 37.4455 27.9785 34.0615C28.9261 31.8923 29.3569 31.4585 29.2707 32.8468C27.2893 33.3674 25.308 33.888 23.4128 34.4086C26.3417 36.491 30.3906 37.3587 33.0611 34.4954C36.2486 31.1982 34.7841 23.9096 34.7841 19.7448C31.9412 20.0918 29.1846 20.5257 26.3417 20.8727C27.6339 24.4302 28.5815 27.9877 29.1846 31.7188C29.8737 36.144 36.3347 35.5366 37.4546 31.7188C37.6269 31.1982 37.7992 30.6776 37.9715 30.157C35.2148 30.157 32.4581 30.157 29.7014 30.157C29.7876 30.4173 29.8737 30.7643 29.8737 31.0246C30.046 29.8967 30.1322 28.7687 30.3045 27.6407C30.3906 27.5539 30.4768 27.4671 30.5629 27.3804C31.6828 27.2068 32.8027 27.1201 33.9226 26.9465C34.2672 27.0333 32.4581 23.2155 31.8551 22.3478C30.649 20.6124 29.0984 19.3109 27.3755 18.1829C24.3604 16.274 19.6223 19.4844 21.0868 23.0419C21.776 24.8641 22.4652 26.6862 23.2405 28.5084C25.8249 27.3804 28.4954 26.2524 31.0798 25.1244C27.7201 20.4389 24.3604 15.6666 21.0007 10.9812C19.0193 12.9768 17.0379 14.9725 15.1427 16.8814C16.0903 17.2285 16.8656 17.8358 17.4687 18.7035C19.7085 21.914 25.911 21.2198 25.4803 16.5343C25.4803 16.274 25.3941 16.1005 25.3941 15.8402C23.1543 15.5799 20.9145 15.2328 18.5886 14.9725C21.3452 19.3977 28.6677 19.9183 30.9075 14.6254C28.6677 14.8857 26.4279 15.2328 24.1019 15.4931C24.7911 16.1873 25.5664 16.8814 26.2556 17.5756C28.3231 19.5712 31.5105 19.1374 33.0611 16.7079C32.372 17.6623 32.4581 18.53 33.3196 19.3977C35.9901 23.9964 41.8481 20.6124 41.1589 16.0137C40.9866 14.6254 40.8143 13.2371 40.5559 11.8488C39.8667 7.07658 31.5105 8.11781 32.1135 12.9768C32.5443 16.9682 32.975 20.8727 33.4057 24.8641C33.578 26.5995 33.7503 28.248 33.9226 29.9834C34.0088 30.5908 34.2672 34.6689 34.6118 34.2351C35.3009 33.9748 35.0425 33.888 33.8365 34.0615C32.7166 34.0615 31.5967 34.0615 30.4768 34.0615C28.84 34.0615 27.117 34.0615 25.4803 34.0615C21.6037 34.0615 17.7271 34.0615 13.7644 34.0615C9.02633 34.0615 7.82028 41.4368 12.6445 42.5648C17.1241 43.606 21.3452 43.6928 25.8249 42.9119C31.0798 42.0442 29.0123 34.9292 24.705 34.4086C22.1206 34.0615 19.45 33.7145 16.8656 33.3674C17.8994 35.7969 18.9332 38.3132 19.8808 40.7427C21.2591 39.0941 22.7236 37.5323 24.1019 35.8837C25.911 33.888 25.8249 30.504 23.2405 29.029C20.3976 27.4671 17.641 26.6862 14.4535 26.4259C14.7981 29.2893 15.2289 32.0659 15.5734 34.9292C19.8808 33.8012 23.8435 32.0659 27.7201 29.8967C31.3382 27.8142 29.8737 21.5669 25.5664 21.8272C18.847 22.1743 12.1276 21.914 5.49433 20.8727C0.928575 20.1786 -2.34498 26.1656 2.13463 28.7687C3.08223 29.376 5.83891 33.4541 4.20213 34.4086C6.1835 36.4043 8.16486 38.3999 10.0601 40.3088C10.2324 40.1353 10.4047 39.875 10.4908 39.7015C9.62935 40.3956 8.76789 41.003 7.90642 41.6971C14.0228 40.2221 21.8621 40.7427 28.0647 41.3501C34.3533 41.9574 40.2974 43.259 46.4138 41.0898C50.635 39.6147 50.3765 31.8923 45.2939 32.5865C44.6047 32.6732 43.9156 32.76 43.1403 32.8468C44.174 35.2763 45.2078 37.7926 46.1554 40.2221C51.0657 34.2351 52.0133 26.9465 48.7398 19.9183C46.2415 21.3934 43.7433 22.8684 41.3312 24.2567C42.6234 26.9465 43.0541 29.8966 42.5372 32.8468C45.2939 32.8468 48.0506 32.8468 50.8073 32.8468C47.5337 24.6905 49.6874 13.0636 43.3125 6.38243C40.039 2.99847 35.8178 3.43231 31.5105 3.34554C25.7387 3.25878 20.2253 2.04403 14.7981 0.221893C11.6107 -0.906095 8.68174 2.47787 9.45706 5.60153C10.7493 10.5473 16.7795 13.671 20.5699 16.6211C24.9634 20.6992 31.1659 14.5387 26.7725 11.1547Z" transform="translate(48.6364 158.105)" fill="#373737"/>
<path d="M24.0098 11.9485C24.0098 11.8618 23.9236 11.8618 23.9236 11.775C23.4067 13.7707 22.8899 15.7663 22.373 17.6752C22.4591 17.5885 22.5453 17.5885 22.6314 17.5017C20.5639 16.634 18.4103 15.7663 16.3427 14.8987C16.515 13.2501 16.4289 12.9898 16.0843 14.031C15.8259 14.6383 15.6536 15.2457 15.5674 15.8531C15.309 17.0679 15.309 18.2826 15.3951 19.5841C15.6536 24.1829 22.8037 25.7447 23.8375 20.7121C24.2682 18.4562 25.1297 16.5473 27.0249 15.159C24.9574 13.5104 22.8037 11.8618 20.7362 10.2999C18.7548 15.8531 16.4289 21.2327 13.6722 26.3521C11.174 31.1243 8.67573 35.376 8.245 40.9291C11.0878 40.9291 14.0168 40.9291 16.8596 40.9291C16.8596 37.5452 15.5674 34.0745 12.4662 32.3391C11.174 31.6449 9.53719 31.2979 8.07271 31.3846C7.1251 31.4714 6.26363 31.7317 5.40217 32.1655C5.22988 32.2523 3.42081 33.12 4.36841 33.0332C5.74676 34.8554 7.1251 36.6775 8.50344 38.4996C12.0354 29.5625 14.8783 20.5386 17.2904 11.2544C14.4475 10.9073 11.6909 10.4735 8.84802 10.1264C9.3649 16.9811 6.86666 23.4887 7.1251 30.3434C7.38354 35.5495 13.7584 35.8966 15.5674 31.4714C19.0994 22.9681 22.2007 14.2045 24.6989 5.35414C26.2496 -0.025494 17.9795 -2.28147 16.4289 3.0114C13.8445 11.8618 10.8294 20.6254 7.29739 29.1286C10.1402 29.4757 12.8969 29.9096 15.7397 30.2566C15.3951 23.4019 17.9795 16.8943 17.4627 10.0396C17.1181 5.35414 10.3125 3.87908 9.02031 8.91165C6.69436 18.1959 3.76539 27.2197 0.233394 36.1569C-0.800362 38.7599 1.78403 41.7968 4.36841 41.6233C5.31602 41.6233 6.69436 41.6233 7.46968 41.0159C8.41729 40.235 8.15885 39.0202 8.15885 40.8424C8.245 46.4823 16.3427 46.3088 16.7735 40.8424C17.2042 35.723 20.9946 31.0376 23.1483 26.5256C25.3881 22.0136 27.2833 17.3282 29.0063 12.5559C30.2123 9.17195 25.6465 5.35414 22.7176 7.69688C19.0133 10.4735 16.515 13.8574 15.5674 18.4562C18.4103 18.8032 21.1669 19.2371 24.0098 19.5841C23.8375 17.1546 25.4743 14.9854 24.6989 12.6427C23.7513 9.86609 20.9085 8.7381 18.4103 10.0396C18.3241 10.1264 18.238 10.1264 18.1518 10.2132C16.0843 11.2544 15.4813 14.2045 16.6012 16.1134C16.6012 16.2002 16.6873 16.2002 16.6873 16.287C19.2717 21.146 26.7665 16.8076 24.0098 11.9485Z" transform="translate(42.7843 191.498)" fill="#373737"/>
<path d="M11.9337 13.7577C12.6229 13.0636 12.9675 12.6297 13.1398 11.6753C13.5705 9.41928 11.2446 8.20453 9.52165 9.59282C7.88487 10.8943 7.02341 12.2826 6.33424 14.2783C5.55892 16.4475 8.48789 17.6623 9.95238 16.3607C12.2783 14.2783 12.4506 11.762 10.0385 9.85313C9.69394 9.59282 8.83248 9.41928 8.40175 9.59282C6.33424 10.4605 5.81736 11.6753 5.55892 13.8445C5.38663 16.0137 8.66019 16.7946 9.6078 14.9725C10.5554 13.0636 10.8138 11.415 10.0385 9.41928C9.52165 8.03099 7.62643 7.07654 6.42038 8.46483C3.23297 12.1091 1.07931 16.1872 0.0455567 21.0462C-0.212882 22.3478 0.648582 23.9096 2.11307 23.8228C2.80224 23.7361 3.6637 24.6905 4.43902 24.7773C5.64507 24.9508 6.42038 24.6905 7.36799 23.9964C9.78009 22.1742 8.74633 19.3109 10.2108 17.0549C11.503 15.0592 8.40175 12.5429 6.85112 14.4518C4.86975 16.8814 4.86975 19.4844 6.93726 21.8272C8.05716 23.0419 10.1247 22.3478 10.5554 20.8727C11.6753 16.7078 15.9826 14.7989 20.2899 17.9226C19.9454 19.3109 19.6008 20.6124 19.17 22.0007C22.7882 21.9139 22.9605 19.5712 24.2527 16.8814C25.4587 14.3651 27.957 13.4106 30.1968 12.1091C32.2643 10.8943 34.2456 9.41928 36.1409 7.94422C34.9348 7.42361 33.7288 6.903 32.4366 6.38239C32.3504 6.20886 32.4366 6.12209 32.5227 5.94855C33.7288 6.6427 34.9348 7.33685 36.1409 8.03099C36.9162 4.7338 35.2794 0.915991 31.6612 0.135076C27.1816 -0.819375 24.9418 3.51904 21.7544 5.77502C22.6159 6.903 23.4774 8.03099 24.3388 9.15898C25.2003 8.20453 26.0617 7.25008 27.0093 6.20886C28.3877 4.64703 27.0955 1.95721 24.9418 2.56459C22.702 3.25874 20.9791 4.21319 19.2562 5.86178C17.2748 7.77069 20.2899 10.8076 22.2713 8.89867C22.7882 8.37807 23.3912 7.85746 23.9081 7.33685C22.8743 6.29563 21.8406 5.25441 20.893 4.29995C19.6869 5.42794 18.9116 6.46916 18.2224 8.03099C17.7917 9.07221 17.8778 10.3737 18.9977 10.9811C22.702 12.9768 26.3202 9.33252 29.163 7.07654C27.957 6.72947 26.7509 6.46916 25.5449 6.12209C25.631 6.55593 25.8033 6.98977 25.8895 7.42361C26.234 8.72514 27.8708 9.50605 29.0769 8.72514C29.5937 8.37806 30.1968 8.03099 30.7136 7.59715C29.6799 6.81624 28.6461 5.94855 27.5262 5.16764C27.3539 5.77502 27.1816 6.29563 26.9232 6.903C27.4401 6.38239 27.957 5.86178 28.3877 5.42794C27.0955 5.77502 25.7172 6.20886 24.5111 6.903C23.2189 7.59715 22.099 8.98544 20.8068 9.59282C18.9977 10.3737 17.7055 9.85313 17.0164 12.1959C18.3947 12.1959 19.7731 12.1959 21.1514 12.1959C20.2038 9.15898 17.4471 9.33252 15.3796 11.0679C16.5856 11.5885 17.7917 12.1091 19.0839 12.6297C18.9977 11.5885 18.9116 10.9811 18.6532 9.85313C18.3947 8.81191 17.1025 7.94422 15.9826 8.37807C14.8627 8.81191 14.1736 9.07221 13.1398 9.67959C14.1736 10.4605 15.2073 11.3282 16.3272 12.1091C16.5856 11.415 16.8441 10.8076 17.1025 10.1134C17.7917 8.20453 15.4657 6.903 13.9151 7.68392C13.3982 7.94422 12.7952 8.2913 12.2783 8.5516C13.3982 9.15898 14.432 9.76636 15.5519 10.4605C15.638 6.29563 11.503 6.12209 8.74634 7.94422C9.6078 9.07221 10.4693 10.2002 11.3307 11.3282C13.0536 10.1134 14.6043 10.1134 16.0688 11.3282C18.3947 12.89 20.5484 9.15898 18.2224 7.59715C14.8627 5.34117 11.3307 5.77502 8.3156 8.20453C6.42038 9.76636 8.91863 12.9768 10.9 11.5885C10.9861 11.1547 11.0723 10.7208 11.1584 10.3737C11.1584 12.1091 12.9675 12.9768 14.432 12.2826C14.9489 12.0223 15.5519 11.6753 16.0688 11.415C15.035 10.634 14.0013 9.76636 12.8814 8.98544C12.6229 9.67959 12.3645 10.287 12.106 10.9811C11.4169 12.8032 13.7428 14.2783 15.2935 13.4106C15.8965 13.1503 16.4995 12.8032 17.1025 12.5429C16.2411 12.0223 15.2935 11.5017 14.432 11.0679C14.5181 11.5885 14.6043 12.1091 14.6904 12.6297C14.7766 14.6254 16.9302 15.3195 18.3947 14.1915L18.3086 14.2783C17.7917 13.7577 17.2748 13.2371 16.8441 12.8032C16.9302 13.0636 17.0164 13.2371 17.0164 13.4974C17.6194 15.5798 20.5484 15.5798 21.1514 13.4974C20.893 14.2783 19.6008 14.1048 20.7207 14.4518C21.1514 14.6254 21.9267 14.1048 22.3574 13.9312C23.8219 13.3239 24.8557 11.9356 26.1479 11.0679C29.163 9.15898 30.3691 9.93989 31.5751 6.46916C32.1781 4.7338 29.9383 2.99843 28.3877 4.03965C27.8708 4.38672 27.2678 4.7338 26.7509 5.16764C27.7847 5.60148 28.8184 6.03532 29.9383 6.46916C29.8522 6.03532 29.6799 5.60148 29.5937 5.16764C29.163 3.43227 27.1816 3.25873 25.9756 4.21319C25.5449 4.56026 21.9267 7.85745 21.0653 7.42361C21.3237 8.37806 21.5821 9.41928 21.8406 10.3737C22.1852 9.24575 22.8743 8.2913 23.8219 7.59715C25.8894 5.68825 22.7882 2.65136 20.8068 4.56026C20.2899 5.08087 19.6869 5.60148 19.17 6.12209C20.2038 7.16331 21.2375 8.20453 22.1852 9.15898C23.2189 8.03099 24.425 7.25008 25.9756 6.98977C25.2864 5.77502 24.5973 4.56026 23.9081 3.3455C23.0466 4.29995 22.1852 5.25441 21.2375 6.29563C19.6869 8.03099 21.7544 11.2414 23.8219 9.67959C24.8557 8.89867 25.8033 8.11776 26.6648 7.25008C27.1816 6.72947 27.6124 6.20886 28.1293 5.68825C29.4214 4.03965 30.6275 4.56026 31.7474 7.07654C31.2305 9.15898 33.8149 10.7208 35.3655 9.15898C36.227 8.2913 36.5716 7.68392 36.3993 6.46916C36.227 4.47349 34.2456 3.77934 32.695 4.90733C29.5076 7.42361 25.5449 8.98544 22.4436 11.5885C21.496 12.3694 20.7207 13.2371 20.2038 14.2783C19.9454 14.7989 19.5146 17.749 18.7393 17.749C16.4995 17.749 15.9826 20.6124 17.6194 21.8272C19.2562 23.0419 21.4098 22.4345 22.1852 20.5256C23.2189 18.1829 21.496 15.5798 19.6008 14.1915C17.1887 12.5429 13.0536 12.0223 10.2108 12.8032C6.50653 13.7577 6.76497 16.7078 5.9035 19.9182C7.10955 19.5712 8.3156 19.3109 9.52165 18.9638C9.52165 18.53 9.52165 18.0961 9.4355 17.6623C8.3156 16.7946 7.1957 15.9269 6.0758 15.0592C5.12819 16.4475 5.47277 17.8358 4.7836 19.2241C4.00829 21.0462 3.49141 19.5712 1.68234 19.7447C2.37151 20.6992 3.06068 21.5668 3.74985 22.5213C4.61131 18.4432 6.24809 14.9725 9.00477 11.9356C7.79873 11.5885 6.59268 11.3282 5.38663 10.9811C5.38663 11.6753 5.38663 12.4562 5.38663 13.1503C6.76497 13.4974 8.05716 13.8445 9.4355 14.2783C9.00477 14.3651 8.57404 14.4518 8.14331 14.5386C7.79873 13.9312 7.45414 13.3239 7.10955 12.6297C6.93726 12.9768 6.67882 13.2371 6.50653 13.5842C7.71258 14.2783 8.91863 14.9725 10.1247 15.6666C10.4693 14.4518 11.1584 13.4974 12.1922 12.89C10.9861 12.1959 9.78009 11.5017 8.57404 10.8076C8.57404 10.8943 8.48789 10.8943 8.48789 10.9811C6.76497 12.6297 9.86623 15.6666 11.9337 13.7577Z" transform="translate(31.2563 1.48854)" fill="#E66A49"/>
<path d="M5.22364 6.4615C4.53447 8.80424 3.24227 10.3661 1.08862 11.5808C-1.15119 12.8824 0.399443 16.006 2.72539 15.5722C2.98383 15.5722 3.15613 15.4854 3.41457 15.4854C2.89769 15.3986 2.29466 15.3119 1.77778 15.2251C1.86393 15.3119 1.95008 15.3119 2.03622 15.3986C2.72539 16.6134 4.44832 16.7869 5.39593 15.8325C6.94656 14.3574 7.03271 12.6221 7.89417 10.7999C9.4448 7.50272 13.2352 7.84979 16.2504 7.50272C19.8685 7.06888 21.333 3.59815 19.007 0.734793C17.2841 -1.43441 14.269 1.68924 15.9919 3.77168C16.2504 3.16431 15.9919 2.904 15.475 3.16431C14.872 3.16431 14.3551 3.25107 13.8383 3.25107C13.0629 3.33784 12.3738 3.42461 11.5985 3.51138C9.96168 3.85845 8.3249 4.37906 6.94656 5.42028C5.91281 6.2012 4.9652 7.15565 4.36217 8.28364C3.58686 9.67193 3.58686 11.5808 2.46695 12.6221C3.58686 12.7956 4.70676 12.8824 5.82666 13.0559C4.87905 11.4073 3.50071 10.9735 1.69164 11.3205C2.20852 12.6221 2.81154 13.9236 3.32842 15.3119C6.34354 13.5765 8.41105 10.9735 9.35866 7.58949C10.2201 4.98644 6.0851 3.85845 5.22364 6.4615Z" transform="translate(46.9257 3.75219)" fill="#E66A49"/>
<path d="M8.27004 9.08583C5.94409 8.65199 4.13502 9.08583 2.4121 10.908C3.61815 11.4286 4.82419 11.9492 6.11639 12.4698C6.11639 12.383 6.20253 12.2963 6.20253 12.1227C5.08263 11.255 3.96273 10.3874 2.84283 9.51967C2.4121 9.86674 1.98137 10.127 1.55063 10.4741C-0.516877 10.908 -0.516877 14.2919 1.55063 14.639C4.99649 15.3331 7.58087 16.895 9.90682 19.498C11.5436 21.3202 12.6635 22.5349 15.2479 22.7085C14.6449 21.5805 14.0418 20.5392 13.3527 19.4113C13.2665 19.6716 13.0942 19.9319 13.0081 20.1054C14.3003 20.626 15.5925 21.2334 16.9708 21.754C18.0907 18.7171 21.7089 18.2833 24.3794 17.9362C25.0686 17.8494 25.6716 17.0685 25.8439 16.4611C26.4469 14.2052 25.93 12.5566 24.8963 10.6477C24.2071 9.4329 23.0872 8.82552 22.7426 7.35046C22.398 5.8754 23.0872 3.61943 23.2595 2.14437C23.4318 -0.0248409 20.1582 -0.805756 19.2106 1.01638C17.4016 4.74741 16.9708 11.1683 11.199 9.69321C9.13151 9.1726 7.49473 11.7756 9.13151 13.3375C10.6821 14.8993 12.3189 15.8538 14.4726 16.3744C14.0418 15.3331 13.6111 14.2919 13.1804 13.1639C12.9219 13.5978 12.5774 14.1184 12.3189 14.5522C11.199 16.2876 13.0081 18.023 14.731 17.7627C16.7985 17.4156 18.263 16.8082 19.7275 15.2464C19.0383 15.4199 18.3492 15.5935 17.66 15.767C19.5552 16.3744 21.3643 15.4199 21.6227 13.4242C21.8812 11.3418 19.7275 9.69321 18.0046 11.3418C17.3154 11.9492 17.1431 12.5566 17.057 13.511C16.9708 15.5067 19.4691 16.2008 20.7613 15.0728C21.5366 14.3787 21.8812 13.9449 22.4842 13.0772C21.1058 12.7301 19.8136 12.383 18.4353 11.9492C18.4353 12.383 18.3492 12.9036 18.3492 13.3375C18.263 15.0728 20.2444 15.9405 21.6227 15.2464C22.5703 14.7258 23.0011 14.2919 23.6041 13.4242C22.398 12.7301 21.1058 11.9492 19.8998 11.255C19.7275 11.5153 19.6414 11.7756 19.4691 12.0359C18.263 14.5522 21.9673 16.7214 23.1734 14.2052C23.3456 13.9449 23.4318 13.6845 23.6041 13.4242C24.8101 10.908 21.5366 8.99906 19.8998 11.255C19.7275 11.3418 19.6414 11.4286 19.4691 11.5153C20.589 12.1227 21.6227 12.7301 22.7426 13.4242C22.7426 12.9904 22.8288 12.4698 22.8288 12.0359C22.9149 9.6932 19.9859 9.34613 18.7799 10.908C18.4353 11.255 18.0907 11.6889 17.66 12.0359C18.866 12.5566 20.0721 13.0772 21.3643 13.5978C21.2781 13.9449 21.1058 14.2052 21.0197 14.5522C19.8136 13.8581 18.6076 13.1639 17.4016 12.4698C17.8323 12.2095 18.263 12.0359 18.6937 11.7756C18.0046 11.5153 17.057 11.7756 16.6262 12.2963C15.7648 13.1639 14.731 13.5978 13.525 13.6845C14.3003 14.7258 15.1617 15.767 15.9371 16.895C16.1955 16.4611 16.5401 15.9405 16.7985 15.5067C17.5738 14.2919 16.7985 12.6433 15.5063 12.2963C14.128 12.036 13.0081 11.4286 12.0605 10.3874C11.3713 11.6021 10.6821 12.8169 9.99297 14.0316C12.9219 14.7258 15.8509 14.3787 18.263 12.4698C21.2781 10.127 21.2781 6.56955 22.8288 3.35912C21.4504 3.01205 20.1582 2.66497 18.7799 2.23113C18.6076 4.31357 17.9184 6.82985 18.4353 8.91229C18.9522 10.908 22.1396 13.2507 21.5366 15.4199C22.0534 14.8993 22.5703 14.3787 23.0011 13.9449C18.3492 14.639 14.3003 16.1141 12.5774 20.7995C11.7159 23.0555 15.4202 24.7041 16.5401 22.4481C16.6262 22.1878 16.7985 21.9275 16.8847 21.754C17.66 20.2789 16.7124 18.6303 14.9895 18.4568C13.3527 18.37 10.596 14.2919 9.13151 13.2507C7.064 11.8624 4.82419 10.9947 2.4121 10.5609C2.4121 11.9492 2.4121 13.3375 2.4121 14.7258C4.30732 14.2919 5.34107 13.511 6.28868 11.7756C7.40858 9.69321 4.47961 7.17693 2.92897 9.1726C1.98136 10.3874 1.72293 10.9947 1.55063 12.5566C1.37834 14.3787 4.04888 15.4199 5.25492 14.1184C5.7718 13.8581 6.37482 13.6845 6.8917 13.4242C9.82068 13.7713 10.9406 9.60644 8.27004 9.08583Z" transform="translate(38.8829 15.7049)" fill="#CD9993"/>
<path d="M14.011 7.94731C15.3032 6.29871 16.1647 4.56335 16.94 2.65444C15.5616 2.30737 14.1833 1.87353 12.805 1.52646C12.6327 1.69999 12.5465 1.9603 12.3742 2.13384C13.3218 1.87353 14.3556 1.61323 15.3032 1.35292C12.9772 -0.382445 10.3067 2.74121 8.66993 4.12951C5.74096 6.73256 2.98428 9.59591 0.572182 12.6328C-0.375427 13.7608 -0.203135 15.93 1.51979 16.2771C2.63969 16.5374 4.62106 16.5374 5.65481 17.058C5.31023 16.4506 5.31023 16.4506 5.56867 17.1447C5.65482 17.4051 5.74096 17.5786 5.91326 17.7521C6.43013 18.2727 6.86086 18.533 7.55003 18.6198C9.70369 18.9669 8.66993 18.0124 9.70369 16.5374C10.3067 16.1903 10.9097 15.8432 11.5989 15.4962C11.4266 15.4962 11.2543 15.4962 11.082 15.5829C8.4115 15.93 8.23921 19.7478 11.082 19.9213C13.6664 20.0949 16.0785 19.7478 18.4906 18.7933C20.5581 18.0124 20.5581 14.3682 17.8876 14.5417C17.1123 14.6285 16.2508 14.6285 15.4755 14.5417C14.7002 14.3682 13.9249 14.1079 13.1495 13.7608C12.3742 15.0623 12.4604 15.3226 13.2357 14.4549C13.6664 14.1079 14.011 13.7608 14.3556 13.3269C15.8201 11.6783 16.5954 9.42237 18.5768 8.20762C20.6443 6.99286 19.2659 3.34859 16.94 4.21627C11.9435 6.03841 7.55003 8.46792 4.44876 12.8931C3.07042 14.8888 6.17169 17.3183 7.80847 15.4962C9.27296 13.8476 10.9097 12.4593 12.805 11.3313C11.6851 10.7239 10.6513 10.1165 9.5314 9.42237C9.61754 10.1165 9.70369 10.7239 9.78984 11.418C10.3067 14.1946 14.4417 12.9799 13.9249 10.2901C13.9249 10.0297 13.8387 9.76944 13.8387 9.42237C13.7526 7.86054 12.1158 6.64578 10.5651 7.51347C8.32535 8.81499 6.43013 10.3768 4.70721 12.3725C5.82711 13.2402 6.94701 14.1079 8.06691 14.9755C10.479 11.5048 14.1833 9.68268 17.9737 8.29438C17.4569 6.99286 16.8538 5.69134 16.337 4.30304C14.5279 5.34426 13.4941 6.81932 12.3742 8.55469C11.3405 10.0297 9.10067 11.418 8.58379 13.1534C7.20545 17.6654 15.0448 18.8801 17.8876 18.7066C17.7153 17.3183 17.543 15.8432 17.2846 14.4549C15.2171 15.3226 13.2357 15.5829 10.9959 15.4094C10.9959 16.8844 10.9959 18.2727 10.9959 19.7478C14.614 19.314 14.9586 14.7152 11.3405 13.7608C10.6513 13.5872 9.61755 13.5005 8.92838 13.7608C7.03316 14.5417 10.3929 15.4962 8.84222 13.9343C7.29159 12.3725 4.79335 12.3725 2.63969 11.9387C2.98428 13.1534 3.24272 14.3682 3.5873 15.5829C5.22408 13.5005 6.94701 11.5916 8.84222 9.76945C10.3929 8.29438 12.4604 5.69134 14.4417 4.99719C13.9249 4.91042 13.3218 4.82365 12.805 4.73689C12.8911 4.82365 13.0634 4.91042 13.1495 4.99719C14.1833 5.7781 15.4755 5.08396 16.0785 4.21627C16.5092 3.69566 16.6815 3.17506 16.94 2.56768C17.9737 -0.0353707 13.8387 -1.07659 12.805 1.43969C12.2019 3.00152 11.3405 4.30304 10.3067 5.69134C8.58379 7.94731 12.3742 10.1165 14.011 7.94731Z" transform="translate(65.0159 41.4856)" fill="#CD9993"/>
<path d="M5.15852 1.52346C3.60788 7.25017 1.0235 13.4975 0.420472 19.3977C0.334326 20.1786 0.851207 20.8728 1.45423 21.3066C2.48799 22.0008 3.34945 21.5669 4.21091 22.0008C7.82905 23.9097 3.4356 27.7275 1.45423 28.3349C1.79882 29.7232 2.22954 31.1115 2.57413 32.4997C6.27842 31.0247 9.72427 32.2394 13.2563 33.541C14.29 33.888 15.7545 33.1071 15.9268 32.0659C16.8744 26.5127 18.2528 21.5669 20.4926 16.4476C22.0432 12.8901 24.7137 8.29139 24.4553 4.30005C24.4553 3.6059 24.1107 2.73822 23.4215 2.39114C19.545 0.655779 13.8593 0.916084 9.72427 0.395474C8.60437 0.221938 7.57062 1.52346 7.57062 2.56468C7.65676 8.46493 4.64164 13.7578 4.03862 19.5713C3.86633 21.5669 6.45071 22.3479 7.74291 21.1331C9.20739 19.658 10.155 18.183 10.8442 16.1873C9.46584 16.0138 8.00135 15.8402 6.62301 15.5799C6.62301 17.1418 6.70915 18.7904 6.70915 20.3522C6.70915 21.914 8.51823 23.2155 9.98271 22.2611C11.1026 21.4802 11.6195 20.9596 12.3948 19.8316C11.0165 19.4845 9.72427 19.1374 8.34593 18.7036C8.43208 21.3934 8.51822 24.17 8.60437 26.8598C8.69052 29.2893 12.1364 29.8099 12.8255 27.4672C14.8069 20.5257 16.7883 13.5843 18.8558 6.64279C19.4588 4.56035 16.7021 2.91176 15.2376 4.56035C14.4623 4.64712 13.7732 4.64712 12.9978 4.73389C11.9641 3.95297 10.0689 4.73389 9.81042 6.03541C9.20739 9.59291 8.69052 13.2372 8.08749 16.7947C7.65676 19.4845 11.7918 20.6993 12.2225 17.9227C12.5671 15.8402 12.5671 13.0636 13.4286 11.1547C14.2039 9.24584 16.616 8.37816 18.8558 8.37816C18.2528 8.03108 17.6497 7.68401 16.9606 7.33694C16.9606 7.25017 15.6684 11.1547 15.6684 11.068C15.2376 12.6298 14.8069 14.1049 14.3762 15.6667C13.6009 18.3565 17.822 19.4845 18.5112 16.7947C19.3727 13.671 22.2155 8.29139 20.6649 5.08096C20.3203 4.38682 19.545 4.03974 18.7696 4.03974C16.5298 4.03974 12.2225 4.90743 10.4996 6.64279C8.34593 8.89877 8.51823 13.8446 8.00135 16.7079C9.37969 17.055 10.758 17.4888 12.1364 17.8359C12.7394 14.2784 13.2563 10.6341 13.8593 7.07663C12.8255 7.51047 11.7918 7.94432 10.6719 8.37816C13.084 10.2003 16.0991 9.76645 18.1666 7.59724C16.9606 6.9031 15.7545 6.20895 14.5485 5.5148C12.5671 12.4563 10.5857 19.3977 8.51822 26.3392C9.89656 26.5127 11.3611 26.6863 12.7394 26.9466C12.6532 24.2568 12.5671 21.4802 12.481 18.7904C12.3948 16.5344 9.72427 16.0138 8.43208 17.6624C8.17364 17.9227 7.82906 18.183 7.57062 18.5301C8.69052 19.1374 9.72428 19.7448 10.8442 20.439C10.8442 18.8771 10.758 17.2285 10.758 15.6667C10.6719 13.1504 7.31218 12.8033 6.53686 15.0593C6.19228 16.2741 5.50311 17.3153 4.5555 18.0962C5.76154 18.6168 6.9676 19.1374 8.25979 19.658C8.86281 13.7578 11.8779 8.63846 11.7918 2.65145C11.1026 3.3456 10.3273 4.12651 9.63813 4.82066C11.7056 5.08096 13.687 5.34127 15.7545 5.60157C17.3051 5.77511 19.8034 5.60157 21.1817 6.20895C20.8371 5.60157 20.4926 4.99419 20.148 4.30005C20.4064 8.46493 16.9606 13.671 15.4099 17.3153C13.6009 21.7405 12.481 26.1657 11.7056 30.8511C12.5671 30.3305 13.5147 29.8099 14.3762 29.3761C10.0689 27.7275 5.84769 26.5127 1.45423 28.3349C-1.04401 29.3761 -0.0964056 33.3674 2.57413 32.4997C6.36457 31.3718 9.55198 28.1613 9.81042 24.0832C9.89656 22.3479 9.46584 20.6993 8.25979 19.3977C6.70916 17.7491 5.24467 18.7036 3.69403 17.6624C4.03862 18.2697 4.3832 18.8771 4.72779 19.5713C4.98623 16.8815 6.27842 13.8446 6.9676 11.2415C7.74291 8.46492 8.51823 5.68834 9.29354 2.91175C10.0689 -0.0383675 5.84769 -1.16636 5.15852 1.52346Z" transform="translate(81.6216 23.4408)" fill="#3FA495"/>
<path d="M12.3204 9.61629C12.1481 9.18245 9.73602 4.75727 9.64988 4.84403C9.04685 5.19111 8.44383 5.53818 7.75466 5.88525C8.09924 5.88525 8.52997 5.88526 8.87456 5.97203C10.9421 6.49264 12.4927 3.88958 10.9421 2.32775C9.04685 0.332075 6.20403 -1.14297 3.96422 1.19977C1.72442 3.45574 2.2413 9.0089 2.58588 11.8723C2.84432 13.9547 3.44734 15.9504 3.3612 18.1196C3.18891 20.8962 2.32744 23.6728 1.63827 26.3626C0.604517 30.1804 -0.687679 34.6923 0.432223 38.6837C2.49973 46.3193 10.5975 44.2368 13.871 38.7704C19.2121 30.0068 15.1632 18.5534 13.268 9.44276C11.9758 9.96337 10.6836 10.5707 9.30529 11.0913C9.99446 12.2193 10.6836 13.4341 11.4589 14.5621C12.5789 16.2974 15.5078 15.6901 15.5078 13.4341C15.4217 10.6575 14.2156 8.57507 11.8035 7.18678C9.64988 5.97202 7.41007 8.83537 9.21915 10.5707C13.9572 15.343 12.9234 22.1977 11.8897 28.2715C13.268 28.2715 14.6464 28.2715 16.0247 28.2715C14.4741 22.7183 12.9234 17.1651 11.2867 11.612C10.5975 9.18245 7.15164 9.78983 7.06549 12.2193C6.8932 15.9504 6.63476 19.6814 6.46246 23.4124C7.92695 23.4124 9.30529 23.4124 10.7698 23.4124C10.4252 19.5946 10.1668 15.7768 9.82217 11.959C9.56373 9.18245 5.34256 9.18245 5.51486 11.959C5.85944 17.599 6.20403 23.2389 6.63476 28.9656C8.09924 28.9656 9.47759 28.9656 10.9421 28.9656C10.2529 22.8918 9.47759 16.8181 8.78841 10.7443C8.44383 8.05446 4.30881 7.88093 4.4811 10.7443C5.08412 18.9873 5.17027 27.2303 4.73954 35.4732C6.11788 35.2997 7.58237 35.1262 8.96071 34.8659C8.78842 33.9982 8.61612 33.1305 8.44383 32.2628C7.92695 30.0068 4.99798 30.4407 4.30881 32.2628C3.70578 33.8246 3.53349 35.1262 3.61964 36.8615C3.70578 39.2043 7.23778 39.8984 7.84081 37.4689C8.0131 36.688 8.27154 35.9071 8.44383 35.0394C7.06549 34.8659 5.601 34.6923 4.22266 34.432C4.39495 35.9071 4.56725 36.688 5.25642 37.9895C5.94559 39.3778 8.35768 39.4646 8.96071 37.9895C9.99446 35.56 10.7698 33.2173 11.1144 30.5274C9.73602 30.3539 8.27154 30.1804 6.8932 29.9201C6.97934 31.2216 7.06549 32.4364 7.15163 33.7379C7.32393 35.4732 9.47759 36.7748 10.8559 35.2997C12.5789 33.4776 13.268 31.7422 13.268 29.2259C13.268 26.3626 9.21915 26.5361 8.96071 29.2259C8.78842 30.701 8.61612 32.2628 8.52998 33.7379C8.27154 36.1674 12.2343 36.688 12.7511 34.3453C13.0957 32.6099 13.0957 32.0893 12.7511 30.3539C12.2343 28.1847 9.21915 28.3582 8.61612 30.3539C7.75466 33.304 6.54861 36.0806 4.99798 38.6837C6.29017 38.8572 7.58237 39.0307 8.96071 39.2043C8.87456 38.4234 8.70227 37.5557 8.61612 36.7748C8.44383 35.3865 6.54861 34.7791 5.42871 35.4732C5.34256 35.4732 5.34256 35.56 5.25642 35.56C4.4811 35.9938 3.87808 37.1218 4.30881 37.9895C4.30881 38.0763 4.39495 38.163 4.39495 38.2498C4.73954 39.2043 5.85944 40.2455 7.06549 39.7249C9.64988 38.6837 10.8559 35.9071 11.4589 33.304C10.0806 33.1305 8.61612 32.957 7.23778 32.6967C7.23778 32.8702 7.23778 32.957 7.23778 33.1305C7.23778 33.9114 7.66851 34.6056 8.27154 35.0394C8.44383 35.1262 8.61612 35.2129 8.70227 35.2997C9.39144 35.6468 10.2529 35.7335 10.8559 35.2997C10.9421 35.2129 11.1144 35.1262 11.2005 35.0394C13.5265 33.5643 11.3728 29.7465 9.04685 31.3084C8.96071 31.3951 8.78842 31.4819 8.70227 31.5687C9.39144 31.5687 10.1668 31.5687 10.8559 31.5687C10.6836 31.4819 10.5113 31.3951 10.4252 31.3084C10.7698 31.9157 11.1144 32.5231 11.4589 33.2173C11.4589 33.0437 11.4589 32.957 11.4589 32.7834C11.4589 30.3539 7.84081 29.7465 7.23778 32.176C7.06549 33.3908 6.54861 34.5188 5.85944 35.56C6.7209 36.0806 7.66851 36.6012 8.52998 37.0351C8.52998 36.9483 8.44383 36.8615 8.44383 36.7748C8.09924 37.5557 7.75466 38.4234 7.49622 39.2043C7.58237 39.2043 7.58237 39.1175 7.66851 39.1175C6.63476 38.6837 5.601 38.2498 4.4811 37.816C4.56725 38.5969 4.73954 39.4646 4.82569 40.2455C5.08413 42.1544 7.92695 42.2412 8.78841 40.7661C10.5113 37.7292 11.8035 34.6923 12.8373 31.3951C11.459 31.3951 10.0806 31.3951 8.70227 31.3951C8.70227 32.0025 8.70227 32.5231 8.70227 33.1305C10.0806 33.304 11.5451 33.4776 12.9234 33.7379C13.0957 32.2628 13.268 30.701 13.3542 29.2259C11.8897 29.2259 10.5113 29.2259 9.04685 29.2259C8.70227 30.1804 8.27154 31.2216 7.92695 32.176C9.133 32.6967 10.339 33.2173 11.6312 33.7379C11.5451 32.4364 11.459 31.2216 11.3728 29.9201C11.2005 27.6641 7.49622 26.7964 7.15163 29.3127C6.80705 31.5687 6.29017 33.5643 5.42871 35.7335C6.63476 35.7335 7.92695 35.7335 9.133 35.7335C8.96071 35.2997 8.87456 34.7791 8.70227 34.3453C8.44383 32.0893 5.17027 31.2216 4.4811 33.7379C4.30881 34.5188 4.05037 35.2997 3.87808 36.1674C5.25642 36.3409 6.7209 36.5145 8.09925 36.7748C7.92695 35.56 8.09925 34.432 8.70227 33.3908C7.32393 33.3908 5.94559 33.3908 4.56725 33.3908C4.73954 34.2585 4.91183 35.1262 5.08412 35.9938C5.601 38.5101 9.21915 37.7292 9.30529 35.3865C9.73602 27.1435 9.64988 18.9005 9.04685 10.6575C7.58237 10.6575 6.20403 10.6575 4.73954 10.6575C5.42871 16.7313 6.20403 22.8051 6.8932 28.8789C7.23778 31.5687 11.3728 31.7422 11.2005 28.8789C10.8559 23.2389 10.5113 17.599 10.0806 11.8723C8.61612 11.8723 7.23778 11.8723 5.77329 11.8723C6.11788 15.6901 6.37632 19.5079 6.7209 23.3257C6.97934 26.1023 10.8559 26.1023 11.0282 23.3257C11.2005 19.5946 11.459 15.8636 11.6312 12.1326C10.2529 12.3061 8.78842 12.4796 7.41008 12.7399C8.96071 18.2931 10.5113 23.8463 12.1481 29.3995C12.665 31.3084 15.9386 31.5687 16.2831 29.3995C17.6615 21.6771 18.5229 13.4341 12.5789 7.44708C11.7174 8.57507 10.8559 9.70305 9.99446 10.831C10.5113 11.6987 11.0282 12.4796 11.5451 13.3473C12.9234 13.0003 14.2156 12.6532 15.594 12.2193C14.9048 11.0914 14.2156 9.8766 13.4403 8.74861C12.1481 6.5794 8.96071 8.05446 9.47758 10.3972C10.7698 16.3842 12.7511 22.7183 12.5789 28.8789C12.4927 31.9157 11.7174 35.2997 9.64988 37.6425C8.87456 39.0307 7.84081 39.2043 6.63476 38.0763C5.08412 37.9895 4.39495 37.2086 4.73954 35.7335C4.39495 34.432 4.91183 32.6967 5.17027 31.4819C6.03173 26.9699 7.75466 22.5448 8.0131 17.946C8.09924 15.9504 7.66851 14.1282 7.41008 12.2193C7.15164 10.6575 7.23778 9.35598 7.32393 7.79415C7.32393 7.01324 6.80705 3.71605 8.35768 5.27788C9.04685 4.06312 9.73603 2.84837 10.4252 1.63361C8.61612 1.19977 6.46246 1.19977 5.77329 3.36898C4.99798 5.88526 7.8408 9.52952 8.87456 11.612C9.90832 14.3018 13.6126 12.1326 12.3204 9.61629Z" transform="translate(23.9779 184.459)" fill="#6B99C3"/>
<path d="M3.88778 0.878967C3.80163 0.792199 3.71548 0.705415 3.62934 0.618646C2.85402 -0.162268 1.38953 -0.249037 0.614215 0.618646C-0.161101 1.48633 -0.247247 2.78785 0.614215 3.65554C0.700362 3.74231 0.786511 3.82909 0.872657 3.91586C1.64797 4.69677 3.11246 4.78354 3.88778 3.91586C4.66309 3.04817 4.74924 1.65988 3.88778 0.878967Z" transform="translate(44.7294 253.414)" fill="#6B99C3"/>
<path d="M15.334 6.70081C15.6786 6.1802 16.0232 5.6596 16.2817 5.13899C17.4016 3.40363 15.0756 0.88735 13.3527 2.18887C9.90682 4.61839 6.46097 7.74204 2.06751 7.65527C-0.68917 7.65527 -0.68917 11.8201 2.06751 11.9937C12.3189 12.7746 22.398 10.4318 32.6494 11.0392C35.4923 11.2128 35.32 7.04788 32.6494 6.70081C29.462 6.26697 17.8323 6.52729 17.7461 2.1021C17.7461 0.10643 15.5063 -0.587705 14.0418 0.540282C10.6821 3.31687 7.32244 6.00669 3.96273 8.78327C2.06751 10.3451 4.6519 13.6423 6.54712 12.1672C10.3376 9.30388 13.8696 5.65961 18.7799 7.82882C21.2781 8.87004 23.5179 5.13898 20.9336 4.09776C18.263 2.96977 15.8509 1.32119 13.0942 2.62272C9.99297 4.01101 7.064 6.44051 4.39346 8.52295C5.25493 9.65094 6.11639 10.7789 6.97785 11.9069C10.3376 9.13032 13.6973 6.44051 17.057 3.66392C15.8509 3.14331 14.6449 2.62271 13.3527 2.1021C13.4388 11.0392 26.4469 10.2583 32.5633 11.0392C32.5633 9.56417 32.5633 8.17587 32.5633 6.70081C22.3119 6.09343 12.2328 8.34941 1.98137 7.65527C1.98137 9.13033 1.98137 10.5186 1.98137 11.9937C7.32244 12.0805 11.2852 8.87002 15.4202 5.9199C14.4726 4.96545 13.4388 3.92424 12.4912 2.96978C12.1466 3.49039 11.802 4.01099 11.5436 4.5316C10.1653 6.87435 13.8696 9.04356 15.334 6.70081Z" transform="translate(33.2832 248.113)" fill="#6B99C3"/>
<path d="M3.29342 5.00652C4.15488 4.39914 5.01635 4.13885 6.0501 4.39916C8.72064 5.0933 9.92668 0.92841 7.17 0.234264C5.10249 -0.286346 2.86269 0.0607379 1.05361 1.27549C0.106005 1.96964 -0.324727 3.18439 0.278297 4.22561C0.881321 5.18006 2.34581 5.6139 3.29342 5.00652Z" transform="translate(55.4031 244.167)" fill="#6B99C3"/>
<path d="M6.7172 2.11158C5.51115 2.63219 4.64969 1.2439 3.87437 0.636524C3.09906 0.0291457 2.15145 -0.231167 1.28998 0.289443C1.20384 0.376211 1.11769 0.376208 1.03155 0.462977C0.170084 0.983586 -0.1745 1.93804 0.0839387 2.89249C0.773109 5.322 2.92676 6.53676 4.90813 7.66475C7.8371 9.40012 6.63105 12.8708 7.49252 15.6474C8.87086 20.0726 14.9872 16.5151 17.0548 14.4327C19.8976 11.5693 20.5006 6.88383 17.8301 3.76017C16.5379 2.28511 14.4704 1.59098 12.8336 0.636524C10.5076 -0.665001 7.32022 0.376211 4.90813 0.723284C2.84062 0.983589 2.92676 4.54109 4.90813 4.88817C6.97564 5.32201 9.81847 5.32201 11.7137 6.18969C11.3691 5.75585 11.0245 5.32201 10.7661 4.88817C10.5938 4.28079 9.99076 6.36323 9.90461 6.62353C8.957 9.13981 12.489 10.0943 13.8673 8.27212C14.2119 7.92505 14.3842 7.57798 14.5565 7.05737C15.6764 4.45432 12.489 2.63219 10.8522 4.88817C10.3353 5.66908 9.99076 6.36322 9.64617 7.23091C8.957 9.05304 11.283 10.5281 12.8336 9.66042C14.0396 8.96628 14.815 8.09859 14.9872 6.62353C15.3318 4.28079 12.489 2.71896 11.0245 4.97494C9.47388 7.31768 10.8522 8.8795 10.7661 11.309C10.6799 13.0444 13.2643 14.3459 14.4704 12.8708C14.9872 12.2635 15.3318 11.8296 15.6764 11.1355C16.7102 8.96627 14.1258 6.7103 12.3167 8.53243C11.7998 9.05304 11.5414 9.48688 11.1107 10.0075C9.99076 11.7429 12.3167 14.2591 14.0396 12.9576C15.3318 12.0032 15.8487 11.1355 15.9349 9.57365C16.1071 7.83828 14.0396 7.05737 12.6613 7.66475C11.9721 8.01182 11.6275 8.27213 11.1107 8.87951C9.30159 10.962 12.3167 13.9988 14.1258 11.9164C14.3842 11.7429 14.5565 11.5693 14.815 11.3958C13.695 10.7884 12.6613 10.181 11.5414 9.48689C11.6275 9.40012 11.7137 9.22658 11.7998 9.13981C12.7474 10.0943 13.7812 11.1355 14.7288 12.0899C14.9011 11.9164 15.0734 11.6561 15.2457 11.4826C14.1258 10.6149 13.0059 9.7472 11.886 8.87951C11.7137 9.13982 11.5414 9.48689 11.3691 9.7472C12.5751 10.2678 13.7812 10.7884 15.0734 11.309C15.0734 10.7884 14.5565 7.49121 14.7288 7.23091C13.4366 6.7103 12.1444 6.10292 10.7661 5.58231C10.6799 5.75585 10.6799 5.84262 10.5938 6.01616C11.6275 6.79707 12.6613 7.66476 13.7812 8.44567C13.9535 7.92506 14.2119 7.49122 14.5565 7.14415C13.3505 6.45 12.0583 5.66909 10.8522 4.97494C10.6799 5.40878 10.5076 5.84262 10.1631 6.18969C11.4552 6.7103 12.7474 7.31767 14.1258 7.83828C14.815 6.18968 15.8487 4.19402 14.2119 2.71896C12.489 1.15713 8.35398 1.15713 6.20032 0.810058C6.20032 2.19835 6.20032 3.58665 6.20032 4.97494C7.23408 4.8014 8.61242 4.45433 9.64617 4.5411C10.6799 4.5411 10.5076 4.54109 11.4552 5.0617C12.4029 5.58231 14.0396 5.84262 14.815 6.62353C17.4855 9.40012 12.9197 13.4782 10.1631 13.565C10.6799 13.7385 11.1968 13.9988 11.7137 14.1724C12.489 14.9533 11.7998 13.3915 11.7137 12.7841C11.6275 12.1767 11.6275 11.6561 11.5414 11.0487C11.3691 9.7472 11.1107 8.53244 10.5938 7.31768C10.1631 6.36323 9.56003 5.49554 8.69857 4.80139C7.57866 3.84694 4.90813 3.32633 4.56354 1.7645C4.21896 2.54542 3.87437 3.4131 3.61593 4.19402C3.70208 4.10725 3.78823 4.10725 3.87437 4.02048C3.01291 3.93371 2.15145 3.76018 1.28998 3.67341C3.3575 5.32201 5.42501 7.49122 8.26783 6.27646C10.4215 5.23524 9.30159 1.07036 6.7172 2.11158Z" transform="translate(32.5962 183.287)" fill="#CD9993"/>
<path d="M10.5812 0.544057C10.2366 0.370521 9.80588 0.196984 9.46129 0.110216C8.77212 -0.150089 7.82451 0.110221 7.39378 0.630831C3.5172 4.88248 5.41242 12.6049 0.674371 16.3359C-1.22085 17.811 1.2774 21.1949 3.25876 19.7199C4.89554 18.5919 6.53232 17.5507 8.34139 16.683C9.80588 15.9888 11.4427 15.4682 12.6487 14.3402C15.75 11.5636 14.1993 7.22521 16.0946 3.84124C16.5253 3.06033 16.5253 1.84557 15.75 1.23819C13.0794 -0.931014 9.89202 -0.150084 8.1691 2.80004C6.70461 5.31632 5.32627 10.696 8.42754 12.4313C9.03056 12.7784 9.97817 12.8652 10.5812 12.4313C12.6487 11.043 13.3379 8.61351 13.1656 6.184C13.0794 4.70894 11.3565 3.32063 9.89202 4.27508C8.08295 5.57661 6.8769 7.05168 6.44617 9.22089C6.01544 11.3033 8.42754 12.8652 10.0643 11.3033C11.0119 10.4356 11.5288 9.56796 11.8734 8.26643C12.5626 6.27076 9.63358 4.44863 8.25524 6.184C7.30764 7.31199 6.44617 8.52675 5.757 9.82828C4.46481 12.2578 8.1691 14.5138 9.46129 11.9975C9.97817 10.9563 10.495 10.0886 11.2704 9.22089C10.0643 8.52674 8.85827 7.8326 7.65222 7.13845C7.39378 7.48553 7.13534 7.83259 6.96305 8.17966C8.1691 8.87381 9.37515 9.56797 10.5812 10.2621C10.6673 9.2209 11.1842 8.43997 12.0457 7.83259C10.9258 7.22521 9.89202 6.61785 8.77212 5.9237C8.77212 6.53108 8.85827 8.00613 8.25524 8.35321C8.94441 8.35321 9.71973 8.35321 10.4089 8.35321C10.8396 8.61351 11.7011 3.23387 12.5626 3.92802C12.4764 3.06033 12.3041 2.19265 12.218 1.32497C11.4427 2.71326 10.8396 4.10155 10.5812 5.66338C10.2366 7.48552 10.8396 9.7415 9.289 11.043C8.34139 11.8239 6.79076 12.171 5.67086 12.7784C4.03408 13.5593 2.48344 14.5138 1.01895 15.6417C1.88042 16.7697 2.74188 17.8977 3.60334 19.0257C5.58471 17.3771 6.53232 14.6873 7.39378 12.3446C7.91066 10.9563 8.34139 9.56797 8.68598 8.09291C9.03056 6.53108 9.11671 4.44864 10.2366 3.23388C9.54744 3.40742 8.85827 3.58096 8.1691 3.7545C8.51368 3.92803 8.94442 4.10157 9.289 4.18834C11.9595 5.83694 13.0794 1.58528 10.5812 0.544057Z" transform="translate(34.8488 233.619)" fill="#CD9993"/>
<path d="M1.14891 3.94101C3.56101 4.98223 5.54237 6.71759 6.57613 9.23387C7.60988 11.5766 7.09301 14.0929 8.12676 16.4356C9.24666 18.9519 12.951 16.7827 11.831 14.2664C11.3142 12.9649 11.5726 11.056 11.228 9.66771C10.8834 8.27942 10.2804 6.9779 9.59125 5.76314C8.12676 3.33363 5.88696 1.42473 3.30257 0.209973C0.804329 -0.918014 -1.43547 2.81303 1.14891 3.94101Z" transform="translate(32.2205 184.061)" fill="#6B99C3"/>
<path d="M2.17594 16.2275C3.72658 8.33161 11.8243 0.175389 20.3528 2.6049C21.7312 2.95197 22.248 0.869535 20.9558 0.522462C11.2213 -2.25412 1.83136 6.50947 0.0222867 15.6201C-0.236152 17.0084 1.83136 17.529 2.17594 16.2275Z" transform="translate(29.2982 5.09249)" fill="black"/>
<path d="M12.2328 8.82538C14.4726 5.96203 17.3154 3.79282 20.8474 2.83837C25.2409 1.62361 32.8217 3.70605 29.6343 9.51953C26.9638 14.4653 19.8998 12.0358 18.1769 17.2419C17.7461 18.4567 18.0046 20.6259 17.3154 21.7539C13.9557 23.9231 12.1466 23.7495 11.9743 21.32C11.8882 20.9729 11.7159 20.6259 11.6298 20.192C11.0267 18.8905 10.1653 17.5022 8.61463 17.2419C3.18741 16.2007 4.82419 25.1378 1.03376 25.5717C-0.344585 25.7452 -0.344585 27.9144 1.03376 27.7409C4.47961 27.307 4.13502 25.1378 5.68565 22.7083C8.70077 17.7625 9.90682 23.1421 10.8544 24.8775C11.4575 25.9187 12.2328 26.6996 13.4388 26.96C15.5925 27.3938 17.7461 25.832 18.6937 24.0966C19.7275 22.2745 19.2106 19.6714 20.2444 17.9361C21.5366 15.7668 24.724 15.7668 26.8776 14.8124C31.4434 12.6432 35.4061 5.61495 30.1512 1.71038C24.121 -2.80157 14.6449 2.49129 10.7683 7.43709C9.82068 8.39154 11.3713 9.95337 12.2328 8.82538Z" transform="translate(37.5043)" fill="black"/>
<path d="M8.43867 1.02048C8.61096 3.79707 8.43867 6.92073 8.95554 9.61055C9.30013 11.4327 11.6261 12.7342 11.7984 14.2093C11.2815 15.5976 10.7646 16.9858 10.2477 18.3741C9.21398 18.808 8.18023 18.9815 7.14647 18.8948C6.71574 18.9815 6.37115 18.8948 5.94042 19.0683C3.95906 19.7624 1.8054 22.7993 0.340914 24.1876C-0.692841 25.1421 0.857791 26.7039 1.89155 25.7494C3.70062 24.0141 5.3374 21.9316 7.83564 21.1507C8.6971 20.8904 9.47242 21.1507 10.42 20.8037C11.9707 20.1963 13.2629 18.9815 13.8659 17.4197C14.4689 15.8579 14.2105 14.0357 13.4351 12.5607C12.4014 10.565 11.6261 10.8253 11.0231 7.96195C10.5923 5.79274 10.7646 3.36323 10.5923 1.19402C10.5062 -0.367807 8.35252 -0.367808 8.43867 1.02048Z" transform="translate(53.1006 14.9199)" fill="black"/>
<path d="M1.03376 2.16921C2.4121 2.16921 2.4121 -6.6199e-07 1.03376 -6.6199e-07C-0.344584 -6.6199e-07 -0.344584 2.16921 1.03376 2.16921Z" transform="translate(59.2134 23.576)" fill="black"/>
<path d="M0.0385473 1.35567C0.469279 3.00427 1.24459 4.91318 2.96752 5.60732C4.43201 6.2147 6.15494 5.78086 7.0164 4.39256C7.70557 3.17781 5.81035 2.04982 5.12118 3.26458C4.77659 3.87196 3.82898 3.78519 3.39825 3.35134C2.62293 2.74397 2.3645 1.70275 2.1922 0.748295C1.76147 -0.55323 -0.306038 -0.0326193 0.0385473 1.35567Z" transform="translate(52.7139 31.331)" fill="black"/>
<path d="M0.52042 2.06357C6.29222 5.7946 11.8056 9.69918 17.1467 13.9508C22.4016 18.2025 28.6903 22.5409 31.0162 29.222C33.1699 35.3826 34.2898 42.0638 35.8404 48.4846C37.4772 55.3393 39.2001 62.194 40.8369 69.0487C42.2152 74.6886 43.1628 80.5889 46.178 85.7082C47.8147 88.4848 49.5377 91.0878 50.0545 94.385C50.5714 97.6822 49.8822 100.979 50.1407 104.277C50.5714 109.656 53.845 114.168 55.9986 119.027C58.7553 125.188 60.5644 131.609 61.7704 138.203C62.0289 139.591 64.0964 138.984 63.8379 137.596C62.718 131.522 61.0813 125.622 58.7553 119.982C57.4631 116.945 55.9125 114.081 54.448 111.045C52.3805 106.88 52.2082 103.322 52.3805 98.8102C52.5528 92.7364 50.5714 89.1789 47.7286 83.9728C44.3689 77.8123 43.4213 70.1767 41.7845 63.4955C40.1477 56.6408 38.4248 49.7861 36.788 42.9314C35.3235 36.8577 34.5482 29.6559 31.1885 24.2763C27.9149 19.0702 22.1431 15.1656 17.4051 11.4345C12.3225 7.4432 7.06754 3.71216 1.55417 0.154665C0.434271 -0.539482 -0.685628 1.28265 0.52042 2.06357Z" transform="translate(28.714 21.7727)" fill="black"/>
<path d="M17.6824 0.149838C11.9967 3.09996 7.17254 7.43837 3.81283 12.9048C1.40073 16.8094 -1.78668 23.2302 1.22844 27.6554C4.502 32.5144 11.566 30.0849 16.0456 28.6098C24.4018 25.8333 32.2411 21.9287 40.8557 20.1065C42.2341 19.8462 41.6311 17.7638 40.2527 18.0241C34.6532 19.1521 29.3983 21.1478 24.1434 23.2302C19.1469 25.2259 13.2889 28.2628 7.86171 28.3495C-1.95897 28.4363 3.72669 16.6358 6.74181 12.3842C9.84307 7.95899 13.9781 4.48825 18.8023 1.97197C20.0083 1.36459 18.8884 -0.544308 17.6824 0.149838Z" transform="translate(11.1213 21.7776)" fill="black"/>
<path d="M20.4249 0.753901C10.2597 30.4287 3.45413 61.1446 0.00827625 92.2945C-0.07787 92.9018 0.525154 93.3357 1.04203 93.3357C3.71257 93.596 5.34935 92.2945 6.98612 90.2988C10.3458 86.2207 13.7917 84.3118 19.1328 86.0471C27.0582 88.6502 31.8824 96.8064 39.3771 100.451C47.0441 104.182 55.7449 106.524 64.015 108.52C73.1465 110.776 82.5364 112.078 91.9264 111.557C93.3047 111.47 93.3047 109.301 91.9264 109.388C81.8473 109.908 71.9404 108.433 62.1197 105.83C53.1605 103.488 42.6507 101.058 35.156 95.4181C29.5565 91.2533 25.0768 85.0059 17.9267 83.5309C15.5146 83.0102 12.8441 83.097 10.5181 84.0515C7.07227 85.5265 4.74632 91.6003 0.955885 91.1665C1.30047 91.5135 1.64506 91.8606 1.98964 92.2077C5.43549 61.2314 12.241 30.7757 22.3202 1.27451C22.9232 -0.0270152 20.8557 -0.547624 20.4249 0.753901Z" transform="translate(0.108582 50.7615)" fill="black"/>
<path d="M2.01218 2.08244C-0.31377 6.42085 2.35677 13.2756 6.06106 15.8786C11.2298 19.4361 18.2938 18.5684 24.1518 18.4817C40.0888 18.3949 56.1121 18.3081 72.0491 18.2213C73.4275 18.2213 73.4275 16.0521 72.0491 16.0521C56.9735 16.1389 41.8118 16.2257 26.7362 16.3124C19.9306 16.3124 7.69784 18.3949 4.42428 10.499C3.47667 8.24298 5.37189 0.0867709 1.32301 2.64796e-06C0.978424 2.64796e-06 0.547693 0.173531 0.3754 0.520604C0.289254 0.694141 0.203108 0.867683 0.116961 1.04122C-0.486063 2.16921 1.40916 3.29719 2.01218 2.08244Z" transform="translate(0 143.75)" fill="black"/>
<path d="M5.83638 1.09568C5.23336 14.0242 -1.31376 26.1717 0.236873 39.2737C1.70136 52.0287 12.6419 58.9701 21.515 66.7793C22.5488 67.647 24.0994 66.1719 23.0656 65.2175C18.3276 61.1393 13.3311 57.148 8.93765 52.7228C4.11346 47.8638 2.13209 41.9636 2.13209 35.1956C2.13209 23.5687 7.47316 12.7226 7.99004 1.18245C7.99004 -0.37938 5.83638 -0.379379 5.83638 1.09568Z" transform="translate(27.8776 66.9057)" fill="black"/>
<path d="M9.99297 0.467229C7.66702 3.76442 5.59951 7.23516 3.70429 10.7927C2.4121 13.2222 -1.31449e-06 16.6061 -1.31449e-06 19.4695C-1.31449e-06 21.3784 1.55063 22.3328 2.92897 23.5476C6.28868 26.4977 9.73453 29.3611 13.1804 32.2244C14.2141 33.0921 15.7648 31.617 14.731 30.6626C12.4051 28.6669 10.0791 26.6713 7.66702 24.6756C6.63326 23.8079 5.34107 23.027 4.47961 21.9858C3.18741 21.4652 2.75668 20.5107 3.10127 19.1224C2.75668 17.9944 2.92897 16.9532 3.61814 15.9988C5.25492 10.9662 8.87307 5.93363 11.8882 1.59521C12.5774 0.467225 10.7683 -0.660759 9.99297 0.467229Z" transform="translate(49.2205 84.3672)" fill="black"/>
<path d="M2.08392 24.7301C7.59728 17.3548 12.5938 9.63239 17.2457 1.6497C17.9348 0.434947 16.1258 -0.693044 15.3504 0.521712C10.7847 8.5044 5.70206 16.2268 0.1887 23.6021C-0.586617 24.8168 1.22245 25.8581 2.08392 24.7301Z" transform="translate(50.5823 111.645)" fill="black"/>
<path d="M0.540334 2.11327C2.60784 3.32802 4.67535 4.54278 6.82901 5.584C7.60433 6.01784 12.0839 7.23259 12.5147 7.92674C12.7731 8.36058 8.63809 13.4799 8.20735 14.0873C6.91516 15.9094 5.19223 17.8183 4.41692 19.9875C4.33077 20.3346 4.41691 20.7685 4.67535 21.0288C4.7615 21.1155 4.84765 21.2023 4.93379 21.2891C5.19223 21.5494 5.62296 21.7229 5.96755 21.5494C6.05369 21.5494 6.13984 21.4626 6.22599 21.4626C7.51818 21.0288 7.00131 18.9463 5.62297 19.3802C8.81038 18.3389 10.6195 14.2608 12.5147 11.4842C13.29 10.3563 14.9268 8.8812 14.496 7.31937C13.9792 5.584 10.964 5.06339 9.58569 4.45601C6.82901 3.15448 4.15848 1.67942 1.48794 0.117594C0.36804 -0.489785 -0.665714 1.41912 0.540334 2.11327Z" transform="translate(62.7218 55.4759)" fill="black"/>
<path d="M2.04369 17.3058C4.1112 14.0953 6.43715 11.1452 9.10769 8.54216C11.6921 6.02588 14.7072 2.98899 18.2392 2.1213C19.6175 1.77423 19.0145 -0.308208 17.6362 0.0388649C14.018 0.993316 11.0029 3.7699 8.41852 6.28618C5.23111 9.2363 2.56057 12.6203 0.148471 16.3513C-0.5407 17.3925 1.35452 18.4337 2.04369 17.3058Z" transform="translate(63.8029 38.8083)" fill="black"/>
<path d="M3.18852 5.12833C4.56686 4.43418 6.03134 3.74004 7.49583 3.21943C8.01271 3.04589 10.0802 2.09144 10.3387 2.35175C11.8893 3.5665 7.66812 5.82248 6.8928 6.60339C4.48071 9.11967 3.61924 12.8507 0.517975 14.5861C-0.688073 15.2802 0.431831 17.1891 1.63788 16.495C4.04998 15.1067 5.25603 12.9375 6.63437 10.5947C7.66812 8.85937 8.87417 7.64461 10.511 6.42985C11.4586 5.73571 12.5785 5.04156 13.1815 3.82681C13.9568 2.17821 13.4399 0.442843 11.5447 0.0957695C8.70188 -0.511609 4.48071 1.91791 1.98247 3.21943C0.862564 3.91358 1.98247 5.73571 3.18852 5.12833Z" transform="translate(73.7709 44.3046)" fill="black"/>
<path d="M1.03376 8.06575C5.59951 7.71868 9.73453 5.54947 12.5774 1.9052C13.4388 0.863984 11.8882 -0.697844 11.0267 0.343375C8.52848 3.5538 5.08263 5.4627 1.03376 5.80978C-0.344583 5.98331 -0.344583 8.15252 1.03376 8.06575Z" transform="translate(76.7871 54.903)" fill="black"/>
<path d="M4.57594 0.723813C2.59458 8.09912 1.13009 15.5612 0.0101887 23.11C-0.162104 24.4983 1.90541 25.1057 2.0777 23.7174C3.11146 16.1686 4.66209 8.7065 6.64345 1.33119C6.98804 0.0296672 4.92053 -0.577712 4.57594 0.723813Z" transform="translate(80.5674 20.3359)" fill="black"/>
<path d="M6.80556 2.01815C13.6973 2.9726 20.5028 4.01382 27.3945 5.14181C27.2222 4.6212 26.9638 4.10059 26.7915 3.57998C24.121 8.69931 24.2933 14.5996 21.9673 19.8924C19.5552 25.3588 17.8323 30.912 16.3678 36.7255C16.7985 36.4652 17.2293 36.2049 17.66 35.9446C12.3189 33.8621 6.80556 32.9077 1.03376 33.2547C-0.344583 33.3415 -0.344583 35.5107 1.03376 35.4239C6.63327 35.1636 11.8882 36.0313 17.057 38.1138C17.5738 38.2873 18.263 37.8535 18.3492 37.3328C19.8998 31.1723 21.795 25.5324 24.2933 19.7189C26.3608 14.8599 26.1023 9.39346 28.5144 4.70797C28.7729 4.18736 28.6006 3.23291 27.9114 3.14614C21.1058 2.01815 14.2141 0.976934 7.32243 0.0224829C6.03024 -0.237822 5.42722 1.84462 6.80556 2.01815Z" transform="translate(79.3716 21.2108)" fill="black"/>
<path d="M0.21684 1.05232C-0.300038 8.94824 -0.213891 16.4103 4.17957 23.265C9.08991 30.7271 15.034 37.6685 20.4612 44.6968C21.3227 45.8248 23.1318 44.6968 22.3564 43.5688C17.4461 37.1479 12.4496 30.8139 7.62542 24.3062C2.3705 17.1045 1.76747 9.72916 2.3705 0.965564C2.45664 -0.335961 0.302987 -0.335969 0.21684 1.05232Z" transform="translate(26.1749 140.182)" fill="black"/>
<path d="M0.148472 1.66679C4.02506 8.78179 7.81549 15.8968 11.6921 22.925C12.3812 24.1398 14.1903 23.0986 13.5873 21.797C9.71071 14.682 5.92028 7.56703 2.04369 0.538801C1.35452 -0.675955 -0.540698 0.365267 0.148472 1.66679Z" transform="translate(57.2559 161.519)" fill="black"/>
<path d="M2.12619 34.9571C3.50453 30.0981 4.96902 25.0655 4.36599 19.9462C3.93526 16.7358 2.55692 13.4386 2.72921 10.1414C2.90151 4.84851 6.51965 2.85284 11.2577 2.50576C22.9736 1.63808 34.9479 2.33223 46.6638 2.33223C48.0422 2.33223 48.0422 0.16302 46.6638 0.16302C38.9968 0.16302 31.3298 0.249794 23.6628 0.249794C18.2355 0.249794 11.2577 -0.791436 6.08892 1.37777C2.12619 3.02637 0.489411 6.75741 0.575558 10.9223C0.661704 14.6533 2.29848 18.2108 2.38463 21.9419C2.47077 26.1935 1.26473 30.3584 0.0586797 34.4365C-0.372052 35.738 1.69546 36.2586 2.12619 34.9571Z" transform="translate(23.7485 181.939)" fill="black"/>
<path d="M0.584879 28.109C-0.448877 32.7077 -0.707315 39.3889 4.97834 40.9507C10.1471 42.4258 15.0575 38.0874 17.0388 33.749C19.6232 28.0222 19.5371 20.5602 18.7617 14.4864C18.1587 9.8009 16.8665 2.07853 11.87 0.0828603C10.5778 -0.43775 10.061 1.64468 11.267 2.16529C14.799 3.64036 15.9189 10.148 16.4358 13.5319C16.9527 17.1762 17.0388 20.9072 16.7804 24.5515C16.5219 28.6296 15.7466 32.968 12.9038 36.0917C11.1809 38.0006 8.16575 39.736 5.49522 38.8683C0.843317 37.3932 1.87707 31.9268 2.56624 28.6296C2.99697 27.3281 0.929464 26.8075 0.584879 28.109Z" transform="translate(23.2223 188.613)" fill="black"/>
<path d="M1.3647 3.56003C4.46597 2.86589 7.65338 2.43204 10.8408 2.17174C12.2191 2.08497 12.2191 -0.0842389 10.8408 0.00252938C7.48109 0.262834 4.12138 0.783455 0.847823 1.4776C-0.616664 1.82467 -0.0136383 3.90711 1.3647 3.56003Z" transform="translate(26.5775 200.668)" fill="black"/>
<path d="M3.61814 2.16529C10.6821 4.76834 8.44234 14.9202 1.03376 14.6599C-0.344585 14.5732 -0.344585 16.7424 1.03376 16.8291C5.34107 17.0027 9.47609 14.0526 10.0791 9.62737C10.7683 5.37573 8.0116 1.47115 4.13502 0.0828603C2.92897 -0.43775 2.32595 1.64468 3.61814 2.16529Z" transform="translate(43.7931 184.275)" fill="black"/>
<path d="M1.03376 39.1336C10.4237 39.8278 19.8998 40.3484 29.3759 40.6087C34.0278 40.7822 38.7658 40.869 43.4177 40.869C46.4328 40.869 49.6203 40.6087 52.1185 38.5262C56.3397 35.0555 56.0812 28.8082 55.3921 23.8624C54.186 15.6194 51.257 7.72348 47.2943 0.521715C46.6051 -0.693041 44.7961 0.434949 45.3991 1.64971C49.8787 9.80593 62.1115 37.6586 44.8822 38.6998C30.4096 39.5675 15.5063 38.0924 1.03376 37.0512C-0.344584 36.8776 -0.344584 39.0468 1.03376 39.1336Z" transform="translate(45.2577 161.797)" fill="black"/>
<path d="M10.5641 0.753896C6.85984 11.5999 3.15555 22.446 0.0542878 33.4656C-0.290297 34.5935 1.08804 35.2009 1.86336 34.5068C7.54901 29.8213 12.2009 35.1142 14.3546 40.3203C14.6992 41.1012 15.9052 41.535 16.3359 40.5805C22.1939 28.0859 28.0518 15.5045 33.9959 3.00988C34.5989 1.79512 32.7037 0.66713 32.1007 1.88189C26.2428 14.3765 20.3848 26.8712 14.5269 39.4526C15.216 39.5393 15.8191 39.6261 16.5082 39.7129C15.0437 36.2421 13.407 32.5111 9.61652 31.1228C6.34296 29.908 2.98326 30.8625 0.398871 32.9449C1.00189 33.292 1.60492 33.6391 2.20794 33.9862C5.22306 22.9666 8.92735 12.1205 12.7178 1.27451C13.1485 -0.0270138 11.081 -0.547629 10.5641 0.753896Z" transform="translate(39.7761 200.784)" fill="black"/>
<path d="M1.0663 2.16921C2.44464 2.16921 2.44464 0 1.0663 0C-0.312037 0 -0.398183 2.16921 1.0663 2.16921Z" transform="translate(39.5393 235.464)" fill="black"/>
<path d="M6.49956 0.521723C3.91517 6.42197 1.76151 12.4957 0.038585 18.7431C-0.306 20.1314 1.76151 20.6519 2.1061 19.3504C3.74288 13.2766 5.81039 7.37641 8.30863 1.6497C8.91165 0.434944 7.10258 -0.693033 6.49956 0.521723Z" transform="translate(33.1586 235.463)" fill="black"/>
<path d="M1.65485 10.6664C6.90977 8.23693 12.1647 5.63387 16.6443 1.81606C17.6781 0.94838 16.2136 -0.613439 15.0937 0.254244C10.7864 3.89851 5.61758 6.32801 0.534945 8.75753C-0.671103 9.36491 0.362652 11.2738 1.65485 10.6664Z" transform="translate(32.8344 245.709)" fill="black"/>
<path d="M20.8303 0.389386C17.5568 4.55426 16.7814 10.1074 19.9689 14.6194C21.261 16.4415 23.0701 17.8298 25.1376 18.6107C28.8419 20.0858 36.5951 18.4372 37.0258 23.9036C37.3704 23.5565 37.715 23.2094 38.0596 22.8624C32.0293 23.6433 25.9991 24.2507 19.9689 24.511C17.2122 24.5977 14.4555 24.6845 11.6988 24.5977C10.062 24.511 8.42525 24.4242 6.78847 24.3374C5.66857 24.2507 2.91189 23.2962 2.48116 23.4698C3.8595 23.2095 3.25647 21.0403 1.87813 21.3873C0.413646 21.7344 -0.447818 23.0359 0.241352 24.5977C1.27511 26.6802 4.9794 26.4199 6.78847 26.5934C17.2122 27.4611 27.722 26.5066 38.0596 25.1184C38.5765 25.0316 39.1795 24.6845 39.0933 24.0771C38.8349 20.2593 35.9059 18.4372 32.2878 17.743C28.7558 17.0489 25.5684 17.4827 22.7255 14.7062C19.1074 11.2354 19.1935 5.85578 22.2087 2.03798C23.1563 0.823222 21.6918 -0.738602 20.8303 0.389386Z" transform="translate(30.8882 235.075)" fill="black"/>
<path d="M2.2409 4.47324C3.87768 3.51879 5.68676 2.30406 7.66812 2.21729C8.44344 2.21729 10.2525 2.39081 10.6832 3.25849C11.6308 5.34093 8.96032 5.68801 7.92656 5.86154C6.80666 6.03508 5.60061 6.03508 4.56685 5.4277C3.79154 4.99386 3.44695 4.29972 2.75778 3.77911C1.98246 3.17173 1.37944 2.99821 0.517978 3.51882C-0.68807 4.29973 0.431831 6.12185 1.63788 5.4277C1.121 5.77477 3.5331 7.42337 4.04998 7.59691C5.34217 8.11752 6.63437 8.20429 8.01271 8.03075C9.99407 7.77044 13.3538 7.07629 13.4399 4.47324C13.4399 2.1305 11.2001 0.481904 9.1326 0.134831C6.20363 -0.472547 3.5331 1.08929 1.121 2.47758C0.00110119 3.34527 1.03486 5.16739 2.2409 4.47324Z" transform="translate(52.2344 242.531)" fill="black"/>
<path d="M3.20727 8.85104C4.58561 7.80982 5.36093 6.5083 5.44708 4.77293C5.53322 2.9508 2.94883 1.82281 1.74279 3.21111C1.13976 3.99202 0.622882 4.77293 0.364444 5.81415C-0.152434 8.1569 3.03498 9.63196 4.32717 7.46275C4.9302 6.5083 5.18864 5.46708 5.27478 4.33909C5.36093 2.9508 3.8103 1.82281 2.5181 2.25665C1.57049 2.60373 0.96747 3.03757 0.450592 3.90525C-0.755456 5.98769 2.17352 8.4172 3.81029 6.5083C5.10249 5.12001 5.10249 3.38464 4.67176 1.56251C4.15488 -0.606701 1.13976 -0.433165 0.536737 1.56251C0.450591 1.99635 0.278297 2.34342 0.19215 2.77726C-0.669312 5.46708 3.46571 6.59507 4.32717 3.90525C4.41332 3.47141 4.58561 3.12434 4.67176 2.6905C3.29342 2.6905 1.91508 2.6905 0.536737 2.6905C0.622883 2.9508 0.622884 3.12434 0.70903 3.38464C0.795176 3.90525 0.536738 3.73171 0.881323 3.38464C2.00122 4.25232 3.12112 5.12001 4.24103 5.98769C4.06873 6.07446 3.89644 6.24799 3.72415 6.33476C2.77654 5.64062 1.91508 4.94647 0.967468 4.25232C0.967468 4.5994 0.881321 4.8597 0.622882 5.20678C1.91508 5.72739 3.20727 6.33476 4.58561 6.85537C4.67176 6.59507 4.67176 6.42153 4.84405 6.16123C3.638 5.64062 2.43196 5.12001 1.13976 4.5994C1.13976 4.42586 1.05361 4.94647 1.05361 4.94647C0.106004 5.64062 -0.324725 6.85537 0.278299 7.89659C0.795176 9.02458 2.25966 9.63196 3.20727 8.85104Z" transform="translate(42.5671 20.712)" fill="#CD9993"/>
</svg>
