<?xml version="1.0" encoding="utf-8"?>
<!-- Generator: Adobe Illustrator 21.1.0, SVG Export Plug-In . SVG Version: 6.00 Build 0)  -->
<svg version="1.1" id="Calque_1" xmlns="http://www.w3.org/2000/svg" xmlns:xlink="http://www.w3.org/1999/xlink" x="0px" y="0px"
	 viewBox="0 0 110 66" style="enable-background:new 0 0 110 66;" xml:space="preserve">
<style type="text/css">
	.st0{fill:#F8D24F;}
</style>
<g>
	<path class="st0" d="M55.8,5.3c0.4,2.5-2,4.4-3.9,6c-3.1,2.7-5.5,6.2-7.7,9.8c-5.3,8.7-9.8,18-13.2,27.6c5.5,0.2,10.4,3.3,15.4,5.8
		c8.7,4.4,18.4,6.9,28.1,7.4c0.6,0,1.1,0,1.7-0.2c0.7-0.3,1.1-1,1.6-1.5c1-1.2,2.2-2.1,3.2-3.3c1.6-1.9,2.5-4.3,3.1-6.7
		c1.8-7.6,0.7-15.7-2.3-22.9C78.5,20,73.8,13.6,68.4,8c-2-2.1-4.3-4.2-7.1-5s-6.3,0.3-7.4,3"/>
	<path d="M75.4,63.7c2.3-2.3,4.7-4.6,6.4-7.5c1.7-2.8,2.5-6,3.2-9.2c2.1-9.2-0.6-18.8-5.4-26.7c-2.4-4.1-5.4-7.9-8.5-11.5
		c-2.4-2.8-5.6-7.8-9.7-8.3c-4-0.5-5,3.9-5.5,6.9c-0.8,4.9-0.9,9.9-0.8,15c0.2,10.9,0.9,21.5-2.2,32c0.5,0.1,0.9,0.2,1.4,0.4
		c0-0.1,0.1-0.3,0.1-0.5c0-0.7-1-1-1.3-0.4c-0.5,0.9-0.7,2-0.9,3c-0.2,0.9,1.1,1.3,1.4,0.4c0.2-0.7,0.6-2.2,0.8-2.6
		c-0.4-0.1-0.9-0.2-1.3-0.4c0-0.3,0,0,0,0.1c-0.2,0.9,1.1,1.3,1.4,0.4c2.1-7,2.7-14.2,2.5-21.5c-0.1-9.1-1.4-18.9,0.9-27.8
		c0.3-1.2,0.7-2.1,1.7-2.9c1.4-1.1,2.8-0.5,4.2,0.4c2,1.4,3.6,3.5,5.2,5.3c3,3.4,5.9,6.8,8.4,10.6c4.9,7.5,8.3,16.5,6.9,25.5
		c-0.5,3.5-1.5,7.4-3.2,10.5c-1.6,3-4.2,5.3-6.5,7.7C73.8,63.3,74.7,64.4,75.4,63.7z"/>
	<path d="M57.2,2.4c-6.3,7.3-11.5,15.4-16.7,23.4c-4.6,7.3-8.5,14.8-11,23.1c-0.2,0.9,1.1,1.3,1.4,0.4c2.4-8.2,6.2-15.6,10.8-22.7
		c5.1-8,10.2-15.9,16.5-23.2C58.8,2.8,57.8,1.8,57.2,2.4z"/>
	<path d="M0.2,55c7.4,0,14-3.8,21.3-4.5c7.3-0.7,14.5,1.4,21.3,3.9c6.9,2.6,13.7,5.7,20.8,7.7c6.9,2,14,3,21.2,3.3
		c8.3,0.2,16.6-0.8,24.6-3c0.9-0.2,0.5-1.6-0.4-1.4c-14.7,4-30.4,3.9-45-0.3c-13.3-3.8-25.9-12-40-11.9c-8.2,0.1-15.6,4.5-23.8,4.5
		C-0.7,53.6-0.7,55,0.2,55z"/>
	<path d="M38.6,51.7c0.7-3.1,1.3-6.3,1.9-9.4c0.6-2.8,0.9-6.2,3.5-8c-0.3-0.3-0.7-0.7-1-1c-1.3,2.6-0.8,5.2,0.2,7.8
		c0.7,1.7,1.7,3.4,2.3,5.3c0.7,2.4,0.6,4.8,0,7.3c-0.2,0.9,1.2,1.3,1.4,0.4c0.7-3.1,0.7-6.2-0.5-9.2c-1.3-3.4-4-7-2.2-10.8
		c0.3-0.6-0.3-1.4-1-1c-2.2,1.5-3.1,3.9-3.6,6.5c-0.9,3.9-1.6,7.9-2.4,11.8C37.1,52.2,38.5,52.6,38.6,51.7z"/>
	<path d="M62.7,61c3.9-3.8,3.4-9.8,3.4-14.9c0-7.5,0-15.1,0-22.6c-0.5,0-0.9,0-1.4,0c0.8,6.1,4.1,11.5,5.4,17.5
		c0.8,3.5,0.5,7.1,0.3,10.6c-0.2,3.6-0.4,7.2-0.6,10.8c0,0.9,1.4,0.9,1.4,0c0.4-6.6,1.5-13.6,0.5-20.2c-1-6.5-4.8-12.1-5.7-18.7
		c-0.1-0.9-1.4-0.9-1.4,0c0,6.6,0,13.3,0,19.9c0,5.3,1.1,12.6-3.1,16.6C61.1,60.7,62.1,61.7,62.7,61z"/>
</g>
</svg>
