<svg width="86" height="23" viewBox="0 0 86 23" fill="none" xmlns="http://www.w3.org/2000/svg">
<path d="M10.3268 13.546C10.4038 13.6984 10.4809 13.8761 10.558 14.0285C10.8405 14.5617 11.0974 15.095 11.3543 15.6537C11.7396 16.5424 12.1763 17.4058 12.613 18.2946C12.8442 18.7771 13.0754 19.2849 13.3066 19.7674C13.358 19.869 13.4094 19.9452 13.4608 20.0467C13.5635 20.2245 13.6406 20.4276 13.769 20.6054C13.8461 20.7324 13.9488 20.8339 14.0516 20.9355C14.0002 21.1386 13.8461 21.1894 13.6663 21.2148C13.3323 21.2402 12.9984 21.2402 12.6644 21.2656C11.9965 21.3418 11.3029 21.3418 10.6093 21.3672C10.224 21.3926 9.86437 21.418 9.47905 21.4434C9.17079 21.4688 8.96528 21.3418 8.83684 21.0625C8.6827 20.7577 8.4772 20.4784 8.32307 20.1737C8.27169 20.0721 8.22031 19.9959 8.19462 19.8944C8.04049 19.3103 7.75792 18.7771 7.50104 18.2438C7.3469 17.8883 7.16709 17.5328 6.98727 17.2027C6.9102 17.0503 6.88451 16.8979 6.80745 16.7456C6.73038 16.517 6.62763 16.2631 6.42212 16.0853C6.26799 16.0853 6.11386 16.0346 5.93404 16.1107C5.54871 16.2885 5.112 16.3647 4.82943 16.7202C4.75237 17.2027 4.80375 17.6851 4.80375 18.193C4.80375 18.7263 4.80374 19.2849 4.77806 19.8182C4.75237 20.1483 4.70099 20.4784 4.64961 20.8085C4.59824 21.0371 4.70099 22.129 4.54686 22.0782C4.18722 21.9512 3.82758 21.9512 3.49363 21.8751C2.9028 21.7735 2.31196 21.7735 1.72113 21.7735C1.43856 21.7735 1.18167 21.6973 0.899098 21.7227C0.642213 21.7481 0.462392 21.5957 0.411015 21.3418C0.359638 21.0371 0.282572 20.707 0.282572 20.4022C0.282572 19.5389 0.33395 18.7009 0.359639 17.8375C0.411016 16.7202 0.462393 15.5775 0.488081 14.4602C0.488081 14.1047 0.462393 13.7745 0.436705 13.419C0.436705 13.2667 0.411015 13.0889 0.411015 12.9366C0.411015 12.124 0.411016 11.286 0.436705 10.4734C0.436705 10.448 0.436705 10.4226 0.436705 10.3718C0.565147 9.50844 0.385326 8.64506 0.333949 7.78168C0.30826 7.24842 0.256884 6.71516 0.15413 6.1819C0.0770646 5.75021 0.0770662 5.29313 0.0513777 4.83604C0.0256893 4.45514 0.0513762 4.04885 0.0256877 3.66794C0.0256877 3.4394 1.5679e-06 3.21086 1.5679e-06 3.00771C1.5679e-06 2.85535 1.5679e-06 2.6776 1.5679e-06 2.52524C0.02569 2.14434 0.0513777 1.78883 0.0513777 1.40793C0.0513777 1.23017 0.128444 1.1286 0.256886 1.02702C0.256886 0.874663 0.256886 0.722304 0.256886 0.569943C0.256886 0.290615 0.436703 0.163647 0.6679 0.11286C1.1046 0.011286 1.54131 -0.0395017 1.97801 0.0366787C2.05508 0.0620721 2.15783 0.0620737 2.2349 0.0620737C2.69729 -0.0395002 3.18537 0.0366791 3.64776 0.0112856C3.90465 0.0112856 4.16153 0.0620737 4.36704 0.316008C4.4698 0.722304 4.39273 1.15399 4.36704 1.58568C4.31567 1.96658 4.31566 2.32209 4.34135 2.70299C4.36704 3.0585 4.39273 3.38862 4.41842 3.74413C4.41842 3.92188 4.41842 4.09963 4.41842 4.27739C4.41842 4.37896 4.39273 4.48054 4.41842 4.58211C4.54686 5.34391 4.4698 6.10572 4.49548 6.86752C4.52117 7.47696 4.52117 8.06101 4.52117 8.67046C4.49548 9.48305 4.44411 10.2956 4.41842 11.1082C4.41842 11.3368 4.39273 11.5907 4.39273 11.8192C4.39273 11.8954 4.41842 11.9716 4.4441 12.0478C4.54686 12.0478 4.64961 12.0478 4.72668 12.0224C5.29183 11.87 5.85697 11.6923 6.37074 11.3876C6.85882 11.1336 7.32122 10.8543 7.8093 10.6004C7.86067 10.575 7.91205 10.5242 7.96343 10.4988C8.06618 10.0671 8.04049 9.63541 8.06618 9.20372C8.09187 8.41652 8.09187 7.65472 8.09187 6.86752C8.09187 6.81673 8.09187 6.76595 8.09187 6.74055C8.11756 6.5628 8.19462 6.46123 8.37444 6.43583C8.78546 6.35965 9.17078 6.30886 9.5818 6.25808C9.89006 6.20729 10.1726 6.1819 10.4809 6.20729C10.7121 6.23268 10.969 6.20729 11.2002 6.20729C11.3029 6.20729 11.4057 6.20729 11.5084 6.23268C11.8681 6.30886 12.0993 6.53741 12.0736 6.91831C12.0479 7.3246 12.125 7.75629 12.0222 8.16259C11.9708 8.36573 12.0736 8.56888 12.0736 8.79742C12.0736 9.25451 12.125 9.6862 12.202 10.1433C12.2791 10.6258 12.3048 11.1336 12.3305 11.6161C12.3305 11.7177 12.3048 11.7939 12.2277 11.8446C11.7653 12.124 11.4314 12.5303 11.0204 12.8858C10.9947 12.9112 10.9433 12.9366 10.9176 12.962C10.7892 13.1143 10.5323 13.2921 10.3268 13.546Z" transform="translate(46.2905)" fill="#2E555B"/>
<path d="M8.70839 5.77299C8.78545 5.41749 8.88821 5.06198 8.78546 4.70647C8.70839 4.42714 8.52857 4.27478 8.27169 4.17321C8.22031 4.14781 8.14324 4.14781 8.09187 4.12242C7.21846 3.74152 6.34505 3.84309 5.49733 4.24939C5.13769 4.42714 4.72668 4.55411 4.36704 4.73186C4.11015 4.85883 3.87896 5.08737 3.64777 5.26513C3.49363 5.39209 3.3395 5.51906 3.21106 5.64603C3.1083 5.7476 2.97986 5.7476 2.87711 5.69681C2.6716 5.59524 2.49178 5.46827 2.28628 5.3667C2.08077 5.23973 1.87526 5.11276 1.66975 4.9858C1.13029 4.68107 0.590837 4.42714 0.179821 3.97006C1.57709e-06 3.7923 -0.0256893 3.61455 0.0770646 3.4114C0.179819 3.20825 0.308263 3.00511 0.436706 2.80196C0.565148 2.6242 0.6679 2.42106 0.847719 2.2687C1.28442 1.91319 1.64406 1.4815 2.13214 1.20217C2.51747 0.999024 2.87711 0.795875 3.26244 0.643514C3.5707 0.516547 3.85327 0.414974 4.18722 0.440368C4.26429 0.440368 4.36704 0.38958 4.44411 0.364187C4.82944 0.237219 5.18907 0.0848586 5.60009 0.110252C5.62578 0.110252 5.65146 0.110252 5.67715 0.110252C6.62763 -0.118289 7.5781 0.059466 8.52857 0.186433C8.78546 0.211827 9.04234 0.288007 9.29923 0.338794C9.76162 0.389581 10.1983 0.516548 10.6093 0.719696C10.8662 0.846663 11.1488 0.948236 11.4057 1.04981C11.9708 1.30374 12.4846 1.68465 12.8956 2.14173C13.4608 2.80196 13.8461 3.53837 13.8718 4.40175C13.8975 4.9604 13.9232 5.54445 13.9745 6.10311C14.0259 6.78873 13.9745 7.44896 13.8975 8.10919C13.8718 8.43931 13.7947 8.79482 13.7433 9.12493C13.692 9.58201 13.6406 10.0391 13.5892 10.5216C13.5892 10.6485 13.5892 10.7501 13.6149 10.8517C13.8975 11.131 14.2314 11.2834 14.5654 11.3849C14.7709 11.4611 14.8993 11.5881 14.9507 11.7912C14.9764 11.9436 15.0021 12.1214 15.0278 12.2737C15.0278 12.2991 15.0278 12.2991 15.0278 12.3245C15.0791 12.7816 15.0534 13.2387 15.0021 13.7211C14.9764 14.1528 14.9764 14.5845 14.9764 15.0162C14.9764 15.2194 14.8993 15.3463 14.6938 15.4225C14.4112 15.5495 14.103 15.5749 13.7947 15.5749C13.6149 15.5749 13.4351 15.5495 13.2553 15.5495C12.8442 15.5749 12.4332 15.4733 12.0479 15.3717C11.8938 15.3209 11.7396 15.2448 11.6112 15.1432C11.4057 14.9654 11.2002 14.7369 11.0204 14.5337C10.8662 14.356 10.7121 14.2036 10.4809 14.1021C10.0956 14.3306 9.68456 14.5845 9.29923 14.8131C8.93959 15.0416 8.55427 15.1686 8.16894 15.2701C7.44966 15.4479 6.73038 15.6257 5.98542 15.651C5.47165 15.6764 4.95788 15.651 4.44411 15.5241C4.08447 15.4479 3.72483 15.4225 3.36519 15.3209C2.95417 15.2194 2.54316 15.0924 2.15783 14.9654C1.82388 14.8639 1.51562 14.7115 1.18167 14.5845C0.84772 14.4322 0.590834 14.229 0.333949 13.9751C0.15413 13.7973 0.0770646 13.5942 0.0770646 13.3656C0.0513762 12.5784 -1.5679e-06 11.7659 -1.5679e-06 10.9787C-1.5679e-06 10.4454 7.80888e-07 9.91213 0.102755 9.37887C0.17982 9.04875 0.179821 8.69324 0.308263 8.36313C0.411017 8.0838 0.565146 7.82987 0.847719 7.6775C1.13029 7.49975 1.38718 7.27121 1.69544 7.16964C1.87526 7.09345 2.05508 7.01727 2.26059 6.96649C2.95417 6.78873 3.67345 6.61098 4.36704 6.43322C5.21476 6.25547 6.03679 5.97614 6.9102 5.95075C6.93588 5.95075 6.96158 5.95075 7.01296 5.95075C7.5781 5.82378 8.14324 5.77299 8.70839 5.77299ZM4.31567 10.1407C4.2386 10.3438 4.18722 10.547 4.2386 10.7501C4.28997 10.9787 4.31567 11.2326 4.31567 11.4611C4.31567 11.8166 4.49549 12.0452 4.82944 12.1721C5.26614 12.3245 5.70284 12.4261 6.11386 12.5784C6.57625 12.7562 6.96157 12.6546 7.29552 12.2737C7.42397 12.1468 7.5781 12.0706 7.75792 11.9944C8.04049 11.8674 8.29738 11.7151 8.52857 11.5373C8.75977 11.3596 8.88821 11.1056 8.88821 10.8009C8.88821 10.6231 8.9139 10.4454 8.9139 10.2676C8.9139 9.93752 8.86252 9.58201 8.75977 9.2519C8.45151 9.2265 8.19462 9.2519 7.93774 9.37887C7.83498 9.42965 7.73223 9.48044 7.62948 9.48044C7.16709 9.58201 6.7047 9.65819 6.2423 9.75977C5.85698 9.83595 5.49733 9.86134 5.112 9.93752C4.85512 9.98831 4.57255 10.0645 4.31567 10.1407Z" transform="translate(62.0376 5.97009)" fill="#2E555B"/>
<path d="M15.3103 15.3653C15.1305 15.5431 14.9507 15.5939 14.7452 15.5939C13.8718 15.5685 12.9984 15.4415 12.1763 15.1114C11.7396 14.9336 11.3543 14.6543 10.9947 14.375C10.9176 14.3242 10.8662 14.2734 10.7892 14.2226C10.4295 14.3496 10.1213 14.5274 9.83869 14.7305C9.29923 15.086 8.70839 15.3653 8.06618 15.5431C7.91205 15.5939 7.73223 15.5939 7.5781 15.6193C7.16708 15.6701 6.75607 15.7462 6.37074 15.7462C5.90835 15.7462 5.42027 15.7208 4.95788 15.6701C4.34135 15.5939 3.77621 15.3399 3.18537 15.1114C2.36334 14.7813 1.69544 14.2734 1.02754 13.7655C0.976162 13.7148 0.899096 13.664 0.84772 13.6132C0.513769 13.3339 0.33395 13.0037 0.308262 12.5721C0.308262 12.2673 0.205508 11.988 0.282573 11.6833C0.308262 11.6071 0.256885 11.5309 0.231196 11.4547C0.231196 11.2516 0.179819 11.0484 0.231196 10.8707C0.33395 10.3882 0.308262 9.90574 0.33395 9.44866C0.359639 9.04236 0.33395 8.61067 0.436704 8.20438C0.462393 8.1282 0.488081 8.02662 0.513769 7.95044C0.565146 7.74729 0.693589 7.62033 0.873408 7.51875C1.41287 7.23943 2.0037 7.08706 2.59454 6.9601C3.46794 6.78234 4.31566 6.62998 5.18907 6.47762C5.67715 6.37605 6.16523 6.24908 6.65331 6.14751C6.78176 6.12211 6.9102 6.07133 7.03864 6.04593C7.50103 5.91897 7.93774 5.81739 8.42582 5.86818C8.50288 5.86818 8.60564 5.84279 8.73408 5.84279C8.52857 5.56346 8.52857 5.25874 8.4772 4.97941C8.45151 4.70008 8.40013 4.44614 8.34875 4.16682C8.29738 3.86209 8.14325 3.68434 7.83498 3.63355C7.44966 3.55737 7.09002 3.55737 6.70469 3.63355C6.60194 3.65895 6.49918 3.68434 6.39643 3.68434C5.72853 3.70974 5.11201 3.93828 4.54686 4.26839C4.18722 4.47154 3.80189 4.67469 3.54501 5.03019C3.28812 5.0048 3.05693 4.87783 2.87711 4.77626C2.56885 4.59851 2.26059 4.47154 1.92664 4.31918C1.72113 4.21761 1.567 4.2176 1.36149 4.29378C1.25874 4.2176 1.15598 4.16682 1.05323 4.09064C0.899096 3.98906 0.744966 3.88749 0.590835 3.81131C0.359639 3.70974 0.128442 3.58277 -3.8279e-10 3.35423C-3.8279e-10 3.22726 0.205508 3.20187 0.179819 3.04951C0.154131 2.92254 0.282573 2.87175 0.33395 2.79557C0.411016 2.694 0.462393 2.59242 0.513769 2.49085C0.642212 2.33849 0.693589 2.21152 0.796343 2.13534C1.13029 1.83062 1.46424 1.5259 1.82388 1.27196C2.18352 1.01803 2.54316 0.738701 3.00555 0.637127C3.08262 0.611734 3.15968 0.586339 3.21106 0.560946C3.72483 0.281618 4.28997 0.205438 4.88081 0.154651C5.3432 0.129257 5.77991 0.103864 6.2423 0.0276836C6.57625 -0.0231033 6.9102 0.00228973 7.24415 0.0530766C7.65516 0.103864 8.04049 0.205438 8.45151 0.281618C8.96528 0.383192 9.45336 0.484765 9.96713 0.611732C10.8405 0.840273 11.5084 1.34814 12.125 1.95759C12.4846 2.33849 12.7415 2.77018 12.9984 3.22726C13.2039 3.55737 13.3066 3.93828 13.358 4.34457C13.5378 5.48728 13.7176 6.62998 13.8718 7.77269C13.9232 8.22977 13.9488 8.66146 13.9745 9.11854C14.0002 9.60102 14.0516 10.0835 14.0773 10.566C14.0773 10.6421 14.1287 10.7437 14.1543 10.8199C14.18 10.9469 14.2828 11.0231 14.4112 11.0231C14.514 11.0231 14.5911 11.0484 14.6938 11.0484C14.7966 11.0738 14.8993 11.0738 15.0021 11.0992C15.2333 11.15 15.336 11.3024 15.336 11.5309C15.336 11.7087 15.3617 11.8864 15.3103 12.0642C15.1819 12.6228 15.259 13.1561 15.259 13.7148C15.259 13.7402 15.259 13.7402 15.259 13.7655C15.2333 14.2988 15.3103 14.8321 15.3103 15.3653ZM4.62393 11.5055C5.08632 11.6071 5.49733 11.7087 5.93404 11.7849C5.98541 11.8102 6.06248 11.8103 6.11386 11.8103C6.57625 11.8103 7.01295 11.9372 7.47535 11.861C7.83498 11.9626 8.11756 11.7341 8.42582 11.6579C8.50288 11.6325 8.57995 11.5563 8.63133 11.5055C8.81115 11.3278 8.96528 11.1246 9.04234 10.8707C9.19647 10.3882 9.29923 9.90574 9.24785 9.42326C9.24785 9.32169 9.19647 9.22012 9.17078 9.11854C9.04234 9.11854 8.96528 9.09315 8.86252 9.09315C8.19462 9.06776 7.55241 9.2709 6.88451 9.32169C6.78176 9.32169 6.70469 9.34708 6.62763 9.37248C5.90835 9.57562 5.16338 9.6772 4.39273 9.82956C4.41842 10.3882 4.54686 10.9215 4.62393 11.5055Z" transform="translate(0 5.9003)" fill="#2E555B"/>
<path d="M14.9129 9.63763C14.7074 9.71381 14.5276 9.78999 14.5019 9.99314C14.0652 10.1709 13.6028 10.0947 13.1918 10.0439C12.5753 9.94235 11.9588 9.96775 11.3422 9.91696C11.111 9.89157 10.8541 9.86617 10.6229 9.84078C10.5716 9.84078 10.4945 9.84078 10.4431 9.84078C9.98074 9.86617 9.49266 9.86617 9.03026 9.89157C8.67063 9.91696 8.31099 9.94235 7.95135 9.96774C7.33483 10.0185 6.74399 10.0693 6.12747 10.0947C5.87058 10.1201 5.6137 10.0947 5.33113 10.0947C5.33113 10.1455 5.33112 10.2217 5.35681 10.2471C5.48525 10.4756 5.63939 10.6788 5.76783 10.8819C5.97334 11.212 6.2816 11.4152 6.61555 11.6183C7.07794 11.8976 7.56602 11.9738 8.10548 11.9484C8.722 11.9484 9.33853 11.923 9.98074 11.8469C10.0578 11.8469 10.1349 11.8469 10.2119 11.8215C10.7514 11.6183 11.3165 11.4914 11.8303 11.1866C12.1129 11.0343 12.267 11.0343 12.5239 11.2374C12.6267 11.3136 12.678 11.4152 12.7808 11.4914C13.089 11.8469 13.3716 12.2532 13.7569 12.5579C13.9111 12.6848 14.0138 12.888 14.1166 13.0657C14.2193 13.2435 14.2964 13.4467 14.5019 13.5482C14.5533 13.5736 14.579 13.6244 14.6304 13.6752C14.7331 13.8276 14.7074 13.9545 14.579 14.0815C14.3735 14.2592 14.1423 14.4116 13.8854 14.4878C12.8322 14.8179 11.7532 15.1226 10.6743 15.3258C10.3147 15.4019 9.92936 15.4273 9.54403 15.4781C9.08164 15.5543 8.64494 15.4527 8.18254 15.4019C7.79722 15.3512 7.43758 15.275 7.07794 15.1734C6.76968 15.0972 6.43573 14.9703 6.12747 14.8433C5.71645 14.6909 5.33112 14.5132 4.92011 14.3354C3.99532 13.9291 3.22467 13.2943 2.50539 12.6087C1.86318 11.9992 1.40079 11.2628 0.912707 10.5264C0.784265 10.3233 0.707199 10.0693 0.578756 9.84078C0.321872 9.30752 0.167741 8.69807 0.0392988 8.11402C-0.0377666 7.78391 0.0136099 7.4284 0.0649869 7.09829C0.193429 6.18412 0.578757 5.34614 1.06684 4.55894C1.55492 3.72095 2.24851 3.03533 2.91641 2.32431C3.3788 1.81644 3.96963 1.48633 4.58616 1.207C4.84304 1.08003 5.09993 0.953066 5.35681 0.826099C5.94765 0.495984 6.58986 0.292836 7.28345 0.165869C7.95135 0.0642952 8.59356 -0.0372783 9.26146 0.0135086C10.4688 0.115082 11.6248 0.318231 12.7294 0.851494C13.2175 1.08003 13.7056 1.33397 14.1936 1.56251C14.6047 1.76566 14.7845 2.07038 14.8359 2.50207C14.99 3.5432 14.9386 4.55894 14.9386 5.60007C14.9386 5.80322 14.9386 5.98097 14.9386 6.18412C14.9386 6.33648 14.9643 6.48884 14.9129 6.6412C14.7845 7.27604 14.8616 7.88548 14.8359 8.52032C14.8102 8.92661 14.8615 9.25673 14.9129 9.63763ZM10.1606 4.07646C9.95505 4.05107 9.82661 4.02568 9.67248 4.02568C9.31284 4.02568 8.97889 4.02568 8.61925 4.02568C8.0541 4.02568 7.56602 4.25422 7.12932 4.60972C6.84675 4.86366 6.51279 5.0922 6.20453 5.34614C5.97334 5.52389 5.76783 5.72704 5.56232 5.90479C5.43388 6.03176 5.30544 6.15873 5.17699 6.28569C5.12562 6.33648 5.07424 6.38727 5.12562 6.48884C5.27975 6.48884 5.43388 6.48884 5.6137 6.51424C6.07609 6.51424 6.56417 6.53963 7.02656 6.53963C7.97704 6.59042 8.92751 6.69199 9.87799 6.59042C10.0321 6.56502 10.2119 6.61581 10.3661 6.48884C10.4431 6.2603 10.4174 6.00637 10.3918 5.77782C10.289 5.26995 10.1606 4.7113 10.1606 4.07646Z" transform="translate(28.2437 5.93985)" fill="#2E555B"/>
<path d="M4.62392 15.1204C4.49548 15.1712 4.39273 15.222 4.26429 15.222C3.67345 15.2728 3.08262 15.2982 2.49178 15.3235C2.2349 15.3235 1.97801 15.2982 1.72113 15.2728C1.46424 15.2474 1.20736 15.1966 0.950474 15.222C0.462393 15.2728 0.0770658 14.8919 0.0513773 14.3586C3.90444e-07 13.6984 0.0256893 13.0381 0.0256893 12.3779C0.0256893 11.7177 0.0513773 11.0574 0.0513773 10.3972C0.0513773 10.2195 0.0513773 10.0417 0.0513773 9.86395C0.102754 8.84821 0.0513773 7.85787 0.0513773 6.84213C0.0513773 5.67403 0.0770658 4.50593 0.0513773 3.33783C0.0513773 2.72839 -7.8395e-07 2.11894 -7.8395e-07 1.48411C-7.8395e-07 1.10321 0.0256893 0.747696 0.0256893 0.366794C0.359639 0.18904 0.69359 0.0874668 1.05323 0.0874668C1.51562 0.0874668 2.0037 0.0874672 2.46609 0.0620737C2.64591 0.0620737 2.82573 0.0620721 3.00555 0.0366787C3.3395 -0.0395017 3.67345 0.011286 4.0074 0.11286C4.13585 0.138253 4.26429 0.214433 4.36704 0.290613C4.46979 0.3414 4.52117 0.442974 4.52117 0.544548C4.54686 0.747696 4.62393 0.950844 4.72668 1.15399C5.18907 0.798483 5.70284 0.595336 6.19092 0.366794C6.62763 0.18904 7.1414 0.138254 7.62948 0.189041C8.09187 0.239828 8.55426 0.316007 9.01666 0.392188C9.1451 0.417581 9.24785 0.442975 9.35061 0.493762C9.45336 0.544549 9.50474 0.620729 9.53043 0.747696C9.55611 0.950844 9.60749 1.1286 9.63318 1.33175C9.73593 2.06816 9.813 2.77917 9.89006 3.51558C9.89006 3.54098 9.89006 3.54098 9.89006 3.56637C9.91575 3.99806 9.813 4.09963 9.37629 4.07424C9.32492 4.07424 9.24785 4.04885 9.19647 4.07424C8.45151 4.17581 7.70654 4.15042 6.98727 4.37896C6.73038 4.45514 6.4735 4.48054 6.2423 4.53132C5.93404 4.58211 5.67715 4.70908 5.39458 4.86144C5.00925 5.08998 4.80375 5.3947 4.6753 5.801C4.44411 6.48662 4.39273 7.17224 4.28998 7.88326C4.28998 7.90865 4.26429 7.93405 4.26429 7.95944C4.36704 8.61967 4.26429 9.2799 4.26429 9.94013C4.26429 10.2702 4.2386 10.6004 4.2386 10.9305C4.2386 12.0224 4.26429 13.1143 4.28998 14.2062C4.28998 14.4348 4.28997 14.6887 4.49548 14.8665C4.57255 14.9426 4.57255 15.0188 4.62392 15.1204Z" transform="translate(17.9305 5.96747)" fill="#2E555B"/>
<path d="M3.84774 14.4489C3.35966 14.3981 2.92296 14.4489 2.48625 14.5251C2.3835 14.5505 2.28074 14.5505 2.17799 14.5505C1.97248 14.5505 1.79266 14.5505 1.58716 14.5505C1.45871 14.5505 1.30458 14.5251 1.17614 14.4997C0.713746 14.4235 0.610994 14.2965 0.559617 13.8648C0.559617 13.8394 0.559617 13.8394 0.559617 13.814C0.610994 13.2554 0.508235 12.6967 0.482546 12.1635C0.456858 11.3509 0.456863 10.5129 0.302732 9.7003C0.277043 9.57334 0.277042 9.47176 0.277042 9.3448C0.328419 8.98929 0.277039 8.65917 0.225662 8.30366C0.148596 7.92276 0.148595 7.56725 0.199972 7.18635C0.22566 6.88163 0.225662 6.57691 0.225662 6.29758C0.225662 6.19601 0.199972 6.11983 0.199972 6.01825C0.277037 5.25645 0.174289 4.49464 0.174289 3.73284C0.174289 3.5043 0.148599 3.27576 0.148599 3.04722C0.148599 2.79328 0.122909 2.53935 0.122909 2.28541C0.122909 1.85372 0.122911 1.42203 0.020157 0.990345C-0.03122 0.711017 0.0201554 0.457083 0.122909 0.177755C0.405483 0.0761812 0.688054 -3.87474e-07 0.996316 -3.87474e-07C1.71559 0.0253931 2.46056 0.0507873 3.17984 0.0761808C3.23121 0.0761808 3.30828 0.0761808 3.35966 0.0761808C3.97618 -0.0253931 4.56702 0.126967 5.18354 0.15236C5.23492 0.15236 5.2863 0.152362 5.31198 0.177755C5.44043 0.203148 5.4918 0.279328 5.51749 0.380902C5.51749 0.406295 5.51749 0.431689 5.51749 0.482476C5.44042 0.964952 5.44043 1.47282 5.31198 1.9553C5.15785 2.53935 5.00372 3.098 4.92666 3.70744C4.90097 3.96138 4.79821 4.21532 4.72114 4.49464C4.66977 4.6724 4.64408 4.85015 4.64408 5.02791C4.64408 5.63735 4.56702 6.24679 4.51564 6.85624C4.48995 7.11017 4.48995 7.3641 4.46426 7.61804C4.43857 7.89737 4.43858 8.1513 4.41289 8.43063C4.33582 9.24322 4.20737 10.0558 4.18168 10.8938C4.156 11.6048 4.00187 12.2904 3.97618 13.0015C3.97618 13.103 3.9505 13.2046 3.89912 13.3062C3.82205 13.5855 3.79636 13.8648 4.02756 14.1188C4.00187 14.2457 3.9248 14.3219 3.84774 14.4489Z" transform="translate(80.0508 0.646118)" fill="#2E555B"/>
<path d="M2.74581 4.34228C2.28342 4.36767 1.82103 4.2915 1.35864 4.11374C0.947622 3.96138 0.587984 3.75823 0.331099 3.40272C0.0228373 2.97104 -0.105611 2.48856 0.0998965 1.9553C0.176962 1.75215 0.279716 1.549 0.356781 1.34585C0.536601 0.837983 0.896244 0.507868 1.33295 0.203146C1.46139 0.101572 1.61552 0.0253927 1.79534 0.0253927C2.05222 -7.75704e-07 2.30911 1.54989e-06 2.56599 1.54989e-06C2.66875 1.54989e-06 2.74581 -7.75704e-07 2.82288 0.0253927C3.10545 0.15236 3.38803 0.126968 3.6706 0.177755C4.51832 0.304722 5.18621 0.736409 5.62292 1.47282C5.64861 1.49821 5.64861 1.52361 5.64861 1.549C5.6743 2.15844 5.80274 2.81867 5.28897 3.32654C5.18622 3.42812 5.10915 3.52969 5.0064 3.60587C4.82658 3.78363 4.62107 3.8852 4.38987 3.98677C3.90179 4.24071 3.33665 4.29149 2.74581 4.34228Z" transform="translate(79.3802 16.8979)" fill="#2E555B"/>
</svg>
