<svg width="17" height="11" viewBox="0 0 17 11" fill="none" xmlns="http://www.w3.org/2000/svg">
<path d="M0.357884 3.01487C1.77983 4.24541 3.20178 5.47596 4.62372 6.70651C5.64575 7.58547 6.84552 8.90391 8.08972 9.51918C8.44521 9.69498 8.88957 9.73892 9.20062 9.51918C10.3559 8.68417 11.2002 7.27783 12.0445 6.22308C13.1998 4.77279 14.3552 3.36645 15.5549 1.91616C16.4437 0.817462 14.8884 -0.720722 13.9997 0.377981C13.0221 1.60853 12.0445 2.79513 11.0225 4.02567C10.1338 5.08043 9.20062 6.8823 8.08972 7.67336C8.44521 7.67336 8.84513 7.67336 9.20062 7.67336C7.86754 7.05809 6.62334 5.6078 5.55688 4.64095C4.31267 3.54224 3.11291 2.53144 1.91314 1.47668C0.846678 0.509825 -0.708576 2.09196 0.357884 3.01487Z" transform="translate(0.473389) rotate(2.80672)" fill="white"/>
</svg>
