<?xml version="1.0" encoding="utf-8"?>
<!-- Generator: Adobe Illustrator 21.1.0, SVG Export Plug-In . SVG Version: 6.00 Build 0)  -->
<svg version="1.1" xmlns="http://www.w3.org/2000/svg" xmlns:xlink="http://www.w3.org/1999/xlink" x="0px" y="0px"
	 viewBox="0 0 375 583" style="enable-background:new 0 0 375 583;" xml:space="preserve">
<style type="text/css">
	.st0{fill:#DB786F;}
	.st1{fill:#F3F3F3;}
	.st2{fill:#2E555B;}
</style>
<g id="Calque_1">
	<path class="st0" d="M1.6,267.7c119.9-4.9,240.1-4.2,360,2.1c6.8,0.4,13.8,0.8,20,3.4c5.3,2.2,9.6,5.9,13.3,9.9
		c18.5,19.6,24.6,46.3,27.7,71.9c8.3,66.3,2.2,134.1-19.2,198c-5.4,16.1-12.1,32.5-24.6,45c-25.9,25.6-68.7,28.3-107,29.6
		c-97.3,3.3-194.6,9.2-291.9,4.8c-20.1-0.9-40.7-2.4-58.9-10.2c-4.7-2.1-9.6-4.9-11.4-9.3c-1.7-4.2-0.1-8.9,1.5-13.2
		c17.2-44.8-24.5-89-1.5-131.6s40.6-91.6,29.8-138c-4.9-21.3,55-38.1,62.5-58.8"/>
	<path class="st1" d="M453.2,16.3C430.4,6.2,405.7,0.6,380.8,0c-11.9-0.3-24.7,0.9-34,8.2c-3.7,2.9-6.7,6.7-10.6,9.4
		c-5.1,3.4-11.2,4.5-17.3,5c-26.2,2.2-54.3-5.6-77.8,6.2c-5.8,2.9-11.2,6.9-17.7,7.7c-4.4,0.5-8.9-0.6-13.2-1.4
		c-10-1.7-20.4-1.7-30.4,0c-1.1,6.4,3.9,12.7,9.9,15.4c6,2.6,12.8,2.5,19.4,2.5c50.5-0.1,101,7.9,149.1,23.8
		c21.1,7,42.2,15.6,64.5,15.6c26.6,0,52-12.7,71.4-30.9c5.1-4.7,10.1-11.8,7.1-18c-1.6-3.3-5-5.2-8.3-6.9
		C479,29.5,465,22.3,451.1,15.3"/>
	<path class="st1" d="M-73.8,85.6C-51.4,76.5-26.9,71.5-2.3,71c11.8-0.2,24.4,0.8,33.6,7.4c3.6,2.6,6.6,6,10.5,8.4
		c5,3,11.1,4,17.1,4.5c25.9,2,53.7-5,77,5.5c5.7,2.6,11.1,6.2,17.4,6.9c4.4,0.5,8.7-0.5,13.1-1.2c9.9-1.6,20.2-1.6,30,0
		c1.1,5.8-3.9,11.4-9.8,13.8c-5.9,2.4-12.6,2.3-19.2,2.2c-50-0.1-99.9,7.2-147.4,21.4c-20.9,6.3-41.8,14-63.7,14
		c-26.2,0-51.5-11.4-70.6-27.8c-5-4.3-10-10.6-7-16.2c1.6-2.9,5-4.7,8.1-6.2c13.7-6.3,27.4-12.7,41.2-19"/>
	<path class="st2" d="M56.2,249.7c-1.6,0.1-3.3,0-5-0.3c-0.7-0.1-1.3-0.3-1.8-0.7s-0.8-0.9-1.1-1.5c-1.6-3.3-2.5-7-2.8-10.7
		c0-0.5,0-0.9-0.3-1.3c-0.6-1.2-2.3-1-3.6-1c-3.7,0.2-7.4-1.3-9.9-3.9c-1.3-1.3-2.6-3-4.4-2.8c-1.2,0.1-2.2,1.3-2.5,2.4
		c-0.3,1.2-0.2,2.4-0.1,3.7c0.2,1.9,0.5,4,1.8,5.4c0.9,0.9,2.1,1.5,3.1,2.3c2.9,2.5,2.8,7.1,1.9,10.8c-0.9,3.8-2.4,7.6-1.3,11.3
		c0.3,0.9,0.7,1.9,1.4,2.5c0.8,0.8,1.9,1,3,1.4c3.9,1.1,7.8,2.3,11.7,3.3c3.4,0.9,6.9,1.9,10.3,1.5c1.5-0.2,3.1-0.6,4.3-1.6
		c2.2-1.8,2.7-4.8,3-7.6c0.2-2,0.4-4.1-0.7-5.9c-0.8-1.3-2.3-2.2-3.1-3.6c-0.8-1.4-1.3-3.6-2.9-3.6"/>
	<path class="st2" d="M98.2,291.7c11-4.5,18.6-17.3,15.1-28.7c-1.4-4.6-4.4-8.6-7.7-12.2c-2.6-2.9-5.4-5.6-7.6-8.9
		c-2.2-3.2-3.6-7.2-3-11c0.8-4.5,4.2-8.9,2.9-13.3c-1-3.2-4.1-5-6.8-7c-5.5-4-9.9-9.7-12.4-16c-0.4-0.9-0.7-1.9-1.4-2.6
		c-1.6-1.7-4.6-1.2-6.3,0.4c-1.7,1.6-2.3,4-2.6,6.4c-0.9,7.9,1.6,16.5-2,23.6c-2,4-5.6,6.9-8.3,10.5c-3.2,4.3-5.2,9.6-5.4,15
		c0,1.2,0,2.4,0.7,3.3c0.8,1.1,2.2,1.5,3.4,2.2c3.9,2.1,5.4,6.8,6.7,11.1c0.2,0.9,0.5,1.8,0.4,2.7c-0.1,1.3-1,2.3-1.7,3.4
		c-3.4,5.1-4.4,11.6-2.7,17.5c0.3,1.1,0.8,2.3,1.8,2.9c0.8,0.5,1.7,0.6,2.6,0.7c11.4,1,22.8,1.3,34.2,0.8"/>
	<path class="st2" d="M338.1,292.5c0.2,0.8,1,1.1,1.8,1.2c0.8,0,1.5,0,2.3,0.1c0.8,0.2,1.4,0.8,2.1,1.1c0.6,0.3,1.3,0.3,2,0.4
		c2.3,0.2,4.7,0.5,7,0.7c0.9,0.1,1.9,0.1,2.6-0.5c0.8-0.7,0.8-2,0.4-3c-0.1-0.5-0.4-1-0.7-1.4c-0.7-0.8-1.6-1-2.6-1
		s-1.9,0.2-2.9,0.3c-2.6,0.3-5.2-0.2-7.7-0.2c-0.8,0-1.7,0-2.5,0.3s-1.5,0.8-1.9,1.5"/>
	<path class="st2" d="M348.1,282.3c-0.3,0.5-0.7,1.1-0.7,1.7c0,0.9,0.8,1.6,1.6,1.8c0.8,0.2,1.7,0.2,2.6,0.1c1.5,0,3,0.1,4.3,0.7
		c0.8,0.3,1.4,0.8,2.2,0.9c1.4,0.4,3,0,4-1s1.5-2.5,1.2-3.9c-0.1-0.5-0.4-1.1-0.8-1.4s-0.8-0.4-1.3-0.6c-2.5-0.6-5.2-0.5-7.7,0.4
		c-0.5,0.2-1,0.4-1.6,0.5c-0.7,0.1-1.4-0.1-2.1-0.2c-0.7,0-1.5,0.1-1.9,0.6"/>
	<path class="st2" d="M342.3,280.4c-0.4-0.8-0.8-1.6-0.8-2.4c-0.1-0.8,0.1-1.8,0.8-2.3c0.6-0.5,1.5-0.6,2.2-1.1
		c1.1-0.8,1.4-2.5,2.6-3c0.3-0.1,0.6-0.1,0.8-0.3c0.5-0.2,0.8-0.8,1.1-1.2c0.7-0.8,1.7-1.3,2.7-0.9c0.9,0.4,1.4,1.4,1.6,2.4
		c0.2,1.2,0,2.6-0.9,3.2c-0.8,0.5-1.7,0.4-2.4,0.8c-0.4,0.3-0.7,0.7-0.9,1.1c-0.6,0.8-1.1,1.7-1.7,2.6c-0.2,0.4-0.5,0.8-0.9,1
		c-0.3,0.2-0.7,0.2-1,0.3c-0.7,0.1-1.3,0.2-2,0.3C342.8,280.9,342.3,280.8,342.3,280.4"/>
	<path class="st2" d="M338.6,275.4c-0.8,0.3-1.2,1.1-1.4,1.9c0,0.2-0.1,0.5-0.3,0.6c-0.1,0-0.3,0-0.5,0c-0.9-0.1-1.6,0.8-1.9,1.7
		c-0.2,0.9-0.2,1.9-0.7,2.7c-0.3,0.6-0.9,0.9-1.3,1.5c-0.5,0.7-0.7,1.6-0.5,2.4c0,0.2,0.1,0.4,0.3,0.5c0.1,0.1,0.3,0.2,0.4,0.3
		c1,0.5,2.2,0.9,3.1,0.3c0.6-0.4,0.8-1.1,0.8-1.8c0-0.7,0-1.4,0.3-2c0.3-0.8,0.9-1.3,1.4-2c1.2-1.5,1.6-3.7,1-5.6"/>
	<path class="st0" d="M326.7,282.8c0.3-1.4-1.5-2.2-2.6-3.1c-1.3-1.1-1.9-2.8-2.4-4.4c-0.7-2.3-1.3-4.6-0.8-7c0-0.2,0.1-0.5,0.3-0.7
		c0.5-0.4,1.1,0.3,1.4,0.8c0.5,1,1,2,1.5,3c0.9-2,0.4-4.3-0.6-6.2c-0.9-1.9-2.3-3.7-3.1-5.7c-0.7-1.5-1-3.2-1.8-4.7
		c-0.9-1.6-2.3-2.9-3.2-4.5c-1.6-2.8-1.5-6.2-1.4-9.5c0-0.4,0-0.9,0.4-1.2c0.7-0.7,1.8,0.2,2.3,1c2.3,3.5,4.5,6.9,6.8,10.4
		c0.5-5.3-1.3-10.5-1.9-15.8c-0.5-4.6-0.1-9.3,0.3-13.9c0.1-1.4,0.2-2.7,0.3-4.1c0.3-3.4,0.6-6.9,0.9-10.3c0-0.4,0.1-0.8,0.4-0.9
		c0.2-0.1,0.4,0,0.6,0c1.4,0.3,2.3,1.4,2.9,2.7s0.8,2.6,1.1,3.9c0.5,2.2,1.4,4.2,2,6.4c1,3.8,1.2,7.7,1.4,11.6
		c0.1,3.5,0.3,6.9,0.5,10.4c1.7-7.6,3.8-15.7,9.6-20.8c1-0.9,2.5-1.7,3.6-0.8c0.4,0.3,0.7,0.8,0.8,1.2c2.4,5.5,2.1,12.1-1,17.3
		c-0.3,0.5-0.6,0.9-0.5,1.5c0.1,0.4,0.4,0.7,0.6,1c1.1,1.6,0.6,3.8,0.6,5.7c0,1.8,0.4,3.6,0,5.3c-0.8,3.4-4.6,5.7-4.7,9.2
		c0,2.2,1.4,4.2,1,6.3c-0.2,1.1-0.9,2-1.6,2.9c-2.1,2.5-4.3,4.9-6.7,7.1c-1.8,1.7-3.8,3.5-4.3,6c-0.1,0.4-0.1,0.9-0.3,1.3
		c-0.2,0.4-0.7,0.7-1.1,0.5s-0.3-0.9,0.1-0.9"/>
</g>
<g id="Calque_2">
</g>
</svg>
