<svg width="35" height="42" viewBox="0 0 35 42" fill="none" xmlns="http://www.w3.org/2000/svg">
<path d="M3.30714 -8.41984e-08L0.44691 0.618019L2.13103e-08 3.88469L3.30714 5.16487L31.5966 4.94415L33.2948 1.8982L31.105 -8.41984e-08H3.30714Z" transform="translate(0.780518 6.52325)" fill="#C7E4DE"/>
<path d="M1.43011 1.68397e-07L-8.52414e-08 1.01532L1.43011 27.7226L6.12267 29.5325L24.6695 28.2523L26.904 27.1045V0.132432L1.43011 1.68397e-07Z" transform="translate(3.90894 11.5557)" fill="#C7E4DE"/>
<path d="M-1.70483e-07 4.1937L1.11728 0H9.16166L10.1896 4.94415L-1.70483e-07 4.1937Z" transform="translate(12.2661 1.5791)" fill="#C7E4DE"/>
<path d="M1.62272 5.72866C1.84617 4.44848 1.66741 2.99172 2.78468 2.24127C3.81258 1.57911 5.33207 1.75569 6.53873 1.75569C7.25379 1.75569 8.95205 1.49082 9.62241 1.84397C10.6503 2.41785 10.3822 4.6692 10.4269 5.68452C10.4715 6.74398 12.1698 6.74398 12.1251 5.68452C12.0357 4.44848 12.3933 2.10884 11.5441 1.00524C10.6056 -0.230802 8.23699 0.122351 6.94095 0.078207C5.33207 0.078207 2.96345 -0.274946 1.53333 0.519649C0.0585302 1.35839 0.237295 3.83046 0.0138394 5.24308C-0.164925 6.34668 1.44395 6.78812 1.62272 5.72866Z" transform="translate(11.4031)" fill="black"/>
<path d="M0.804439 1.67748C10.3236 1.67748 19.8428 1.67748 29.362 1.67748C30.4346 1.67748 30.4346 1.68397e-07 29.362 1.68397e-07C19.8428 1.68397e-07 10.3236 1.68397e-07 0.804439 1.68397e-07C-0.268146 0.0441444 -0.268146 1.67748 0.804439 1.67748Z" transform="translate(2.34473 5.37552)" fill="black"/>
<path d="M0.804439 1.67748C10.3236 1.67748 19.8428 1.67748 29.362 1.67748C30.4346 1.67748 30.4346 -1.68397e-07 29.362 -1.68397e-07C19.8428 -1.68397e-07 10.3236 -1.68397e-07 0.804439 -1.68397e-07C-0.268146 -1.68397e-07 -0.268146 1.67748 0.804439 1.67748Z" transform="translate(2.34473 10.5845)" fill="black"/>
<path d="M3.19379 -8.41984e-08C1.36146 -8.41984e-08 0.199494 1.5009 0.0207295 3.22253C-0.158035 5.16487 0.825168 6.44505 2.74688 6.75406C3.81947 6.93064 4.26638 5.34145 3.19379 5.16487C2.1659 4.98829 1.62961 4.63514 1.6743 3.53154C1.71899 2.64865 2.12121 1.63333 3.19379 1.67748C4.26638 1.67748 4.26638 -8.41984e-08 3.19379 -8.41984e-08Z" transform="translate(0 5.41965)" fill="black"/>
<path d="M0.625674 1.56603C1.4748 1.69846 2.59208 1.8309 2.36863 2.97865C2.23455 3.55252 1.5195 5.14171 0.804439 5.09757C-0.268146 5.00928 -0.268146 6.64261 0.804439 6.77505C2.5027 6.95162 3.84343 4.56784 4.06688 3.15522C4.33503 1.21288 2.81553 0.28585 1.11728 0.0209854C-6.3931e-07 -0.199736 -0.44691 1.38946 0.625674 1.56603Z" transform="translate(30.9023 5.53109)" fill="black"/>
<path d="M4.26207e-08 0.794595C4.26207e-08 9.04956 4.26207e-08 17.2604 4.26207e-08 25.5153C4.26207e-08 26.5748 1.69826 26.5748 1.69826 25.5153C1.69826 17.2604 1.69826 9.04956 1.69826 0.794595C1.65357 -0.264866 4.26207e-08 -0.264866 4.26207e-08 0.794595Z" transform="translate(3.32788 11.2908)" fill="black"/>
<path d="M1.36386e-06 0.794595C1.36386e-06 9.04956 1.36386e-06 17.3045 1.36386e-06 25.5595C1.36386e-06 26.6189 1.69826 26.6189 1.69826 25.5595C1.69826 17.3045 1.69826 9.04956 1.69826 0.794595C1.65357 -0.264865 1.36386e-06 -0.264865 1.36386e-06 0.794595Z" transform="translate(30.3213 11.1584)" fill="black"/>
<path d="M0.00753556 1.10361C0.722592 7.85767 10.3759 5.47388 14.8897 5.78289C19.0459 6.04775 28.9226 7.1955 28.6545 0.794594C28.6098 -0.264867 26.9562 -0.264867 26.9562 0.794594C27.0903 4.06126 23.6491 4.06127 21.2358 4.1937C19.0906 4.32613 16.9901 4.32613 14.8897 4.14956C11.5825 3.92883 2.1974 5.95947 1.6611 1.10361C1.57172 0.0441448 -0.126538 0.0441448 0.00753556 1.10361Z" transform="translate(3.32031 35.9674)" fill="black"/>
<path d="M1.6108 3.84486C2.86215 2.16738 4.91794 1.32864 6.97372 1.81423C7.82285 2.03495 8.85075 2.47639 9.47642 3.09441C10.1021 3.71243 10.2362 4.50703 10.7278 5.16919C11.3088 6.05207 12.7836 5.21333 12.1579 4.33045C11.3534 3.13856 11.2194 2.21153 9.96802 1.37279C8.94013 0.666481 7.77816 0.180895 6.52681 0.0484621C3.93473 -0.260547 1.6108 0.931347 0.135996 2.96198C-0.444987 3.88901 0.985125 4.72775 1.6108 3.84486Z" transform="translate(12.0408 19.2325)" fill="black"/>
<path d="M0.434048 3.14001C1.10441 3.44901 1.73009 4.02289 2.31107 4.46433C2.75798 4.81748 3.38366 4.42019 3.56242 3.97874C3.87526 3.05172 4.1434 2.08054 4.63501 1.2418C5.1713 0.314776 3.69649 -0.523963 3.20489 0.403065C2.6686 1.37424 2.35576 2.47784 1.99823 3.5373C2.40045 3.36073 2.80267 3.22829 3.24958 3.05172C2.62391 2.61027 2.04293 2.0364 1.37256 1.72739C0.299976 1.2418 -0.549155 2.69856 0.434048 3.14001Z" transform="translate(21.3064 22.4535)" fill="black"/>
<path d="M0.0854395 1.27017C1.2921 3.74224 3.48196 5.5963 6.29749 5.90531C8.80019 6.17017 11.4817 5.15486 12.5095 2.81521C12.9118 1.84404 11.4817 1.0053 11.0794 1.97647C10.1856 4.05125 7.72761 4.66927 5.67182 4.0954C3.66072 3.60981 2.36468 2.19719 1.51555 0.431427C1.06864 -0.539745 -0.361471 0.298995 0.0854395 1.27017Z" transform="translate(11.4656 26.0891)" fill="black"/>
<path d="M1.42782 2.82523C1.96411 2.33964 2.41102 1.80991 2.76855 1.19189C2.27695 1.19189 1.78535 1.19189 1.33844 1.19189C1.83004 1.98649 2.5451 2.51622 3.43892 2.78108C4.46681 3.09009 4.91372 1.45676 3.88583 1.19189C3.39423 1.05946 3.0367 0.794595 2.76855 0.397297C2.41102 -0.132433 1.65128 -0.132433 1.33844 0.397297C1.0256 0.882883 0.668073 1.28018 0.265853 1.67748C-0.538585 2.42793 0.668073 3.57568 1.42782 2.82523Z" transform="translate(9.94434 24.1809)" fill="black"/>
<path d="M0.048266 1.05946C0.048266 1.67748 0.048266 2.2955 0.048266 2.95766C0.048266 3.44325 -0.085807 4.1937 0.0929572 4.67928C0.361103 5.25316 1.07616 5.78289 1.74653 5.34145C2.23813 4.98829 2.46158 4.37027 2.14875 3.84054C1.43369 2.60451 -0.532717 3.75226 0.227031 4.94415C0.361104 4.45856 0.495177 3.92883 0.62925 3.44325C1.16554 3.66397 1.70183 3.88469 2.28282 4.10541C2.28282 4.06127 2.32751 3.70811 2.32751 3.57568C2.32751 3.26667 2.32751 3.00181 2.32751 2.6928C2.32751 2.16307 2.32751 1.58919 2.32751 1.05946C2.28282 -0.353153 0.048266 -0.353153 0.048266 1.05946Z" transform="translate(9.4917 14.2044)" fill="black"/>
<path d="M-6.81931e-07 1.1036C-6.81931e-07 1.76577 -6.81931e-07 2.42793 -6.81931e-07 3.04595C-6.81931e-07 3.66397 0.491601 4.14955 1.11728 4.14955C1.74295 4.14955 2.23455 3.66397 2.23455 3.04595C2.23455 2.38379 2.23455 1.72162 2.23455 1.1036C2.23455 0.485586 1.74295 0 1.11728 0C0.536292 0 -6.81931e-07 0.52973 -6.81931e-07 1.1036Z" transform="translate(16.3777 13.9395)" fill="black"/>
<path d="M0.213828 0.824855C0.0350643 1.75188 -0.0543167 2.72305 0.0350654 3.69423C0.0797564 4.35639 0.705431 4.97441 1.46518 4.75369H1.50987C1.8674 4.6654 2.22493 4.35639 2.26962 4.00324V3.95909C2.359 3.38522 2.09085 2.7672 1.50987 2.59062C0.973577 2.45819 0.258521 2.7672 0.124448 3.34107V3.38522C0.392594 3.12035 0.660739 2.85549 0.884194 2.63477H0.839504C1.33111 2.98792 1.77802 3.34107 2.26962 3.69423C2.18024 2.94378 2.22493 2.19333 2.359 1.39873C2.49307 0.824856 2.18024 0.206837 1.59925 0.0302598C1.01827 -0.102173 0.347902 0.206836 0.213828 0.824855Z" transform="translate(23.5378 13.8209)" fill="black"/>
<path d="M3.40966e-07 1.05946C3.40966e-07 2.38379 3.40966e-07 3.70811 3.40966e-07 5.07658C3.40966e-07 6.4892 2.23455 6.4892 2.23455 5.07658C2.23455 3.75226 2.23455 2.42793 2.23455 1.05946C2.23455 -0.353153 3.40966e-07 -0.353153 3.40966e-07 1.05946Z" transform="translate(9.49512 30.935)" fill="black"/>
<path d="M0.0877367 1.02572C0.0877367 1.33472 0.132427 1.64373 0.132427 1.95274C0.132427 2.08517 0.132427 2.21761 0.132427 2.35004C0.132427 2.43833 0.0877353 2.87977 0.177117 2.61491C0.266499 2.43833 0.355882 2.3059 0.445265 2.12932C0.445265 2.12932 0.445264 2.17346 0.400573 2.17346C0.758101 2.08517 1.11563 1.99689 1.47316 1.9086C1.47316 1.9086 1.47316 1.9086 1.42847 1.9086C0.847484 1.68788 0.221809 2.12932 0.0430446 2.65905C-0.13572 3.27707 0.2665 3.8068 0.802793 4.02752C0.802793 4.02752 0.802792 4.02752 0.847483 4.02752C1.20501 4.15995 1.69661 4.02752 1.92007 3.76265C2.32229 3.32121 2.2776 2.87977 2.2776 2.35004C2.2776 1.95274 2.23291 1.5113 2.23291 1.114C2.18822 0.540128 1.7413 0.0103975 1.11563 0.0103975C0.624029 -0.0778908 0.0877367 0.407697 0.0877367 1.02572Z" transform="translate(16.4241 32.9111)" fill="black"/>
<path d="M3.40966e-07 1.05946C3.40966e-07 2.2955 3.40966e-07 3.48739 3.40966e-07 4.72343C3.40966e-07 6.13604 2.23455 6.13604 2.23455 4.72343C2.23455 4.67928 2.23455 4.63514 2.23455 4.591C2.23455 3.17838 3.40966e-07 3.17838 3.40966e-07 4.591C3.40966e-07 4.63514 3.40966e-07 4.67928 3.40966e-07 4.72343C0.759748 4.72343 1.4748 4.72343 2.23455 4.72343C2.23455 3.48739 2.23455 2.2955 2.23455 1.05946C2.23455 -0.353153 3.40966e-07 -0.353153 3.40966e-07 1.05946Z" transform="translate(23.3494 30.7143)" fill="black"/>
</svg>
