<svg width="47" height="46" viewBox="0 0 47 46" fill="none" xmlns="http://www.w3.org/2000/svg">
<path d="M2.96351 0.648163C2.4888 0.598056 2.08904 0.773431 1.71427 1.07407C1.1646 1.52503 1.91415 2.47706 2.46381 2.05116C2.66369 1.90084 2.88856 1.72546 3.08844 1.57514C3.61312 1.17429 3.33829 0.222255 2.61372 0.422682C1.96412 0.62311 1.38946 0.923751 0.839791 1.34966C0.589941 1.55009 0.614926 1.95094 0.789821 2.17642C0.989701 2.45201 1.31451 2.47707 1.58934 2.32674C2.26394 2.0261 2.83859 1.70041 3.26333 1.07407C3.58814 0.598057 3.06346 0.0468805 2.56376 0.147094C1.93913 0.297415 1.31451 0.522896 0.739851 0.798484C0.115226 1.12418 0.539971 2.17642 1.21457 1.95094C1.76424 1.75052 2.26394 1.49998 2.71367 1.17429C3.26333 0.77343 2.96351 -0.153547 2.23895 0.0218271C1.53937 0.197201 0.889761 0.47279 0.290121 0.873645C-0.384473 1.32461 0.240151 2.40191 0.914746 1.95094C1.43943 1.60019 1.96412 1.37471 2.56376 1.22439C2.41385 0.848591 2.23895 0.472789 2.08904 0.0719342C1.71427 0.347522 1.31451 0.573003 0.889761 0.723324C1.03967 1.09913 1.21457 1.47493 1.36448 1.87578C1.83919 1.62525 2.36388 1.44987 2.88856 1.34966C2.6637 1.04902 2.41385 0.748377 2.18898 0.422682C1.91415 0.823538 1.38946 1.02396 0.964716 1.22439C1.21457 1.55009 1.46442 1.87578 1.71427 2.20148C2.08904 1.92589 2.4888 1.72546 2.93853 1.60019C2.78862 1.22439 2.61372 0.848591 2.46381 0.447736C2.26394 0.598057 2.03907 0.77343 1.83919 0.923751C2.08904 1.24945 2.33889 1.57514 2.58874 1.90084C2.68868 1.80062 2.81361 1.82568 2.93853 1.82568C3.76303 1.976 3.76303 0.723324 2.96351 0.648163Z" transform="translate(9.93213 8.03085)" fill="#43676E"/>
<path d="M13.9399 5.89356C13.2902 5.39249 12.2908 3.96444 11.6662 3.18778C10.7668 2.06038 9.69241 1.03319 8.3682 0.381796C6.89409 -0.344754 4.94526 -0.0691664 4.09577 1.5092C3.09637 3.38821 2.02202 5.26722 1.09757 7.19633C0.098174 9.32588 -0.301586 11.8062 1.12256 13.8856C1.49733 12.4576 1.87211 11.0295 2.24688 9.60147C2.17193 9.65157 2.07199 9.70168 1.99703 9.72673C2.79655 9.62652 3.59607 9.52631 4.39559 9.40104C4.29565 9.37599 4.19571 9.35093 4.12076 9.32588C4.37061 11.2299 4.62046 13.134 4.87031 15.0381C6.89409 14.086 9.56748 13.2843 10.8667 11.3051C11.1665 10.8541 11.6662 10.1526 11.6412 9.60147C11.6412 9.27577 11.9411 8.82481 11.1915 9.852C10.8667 9.97727 10.8667 9.97727 11.2165 9.87705C11.3914 9.82695 11.5663 9.77684 11.7412 9.70168C12.1909 9.55136 12.6656 9.37599 13.0654 9.12545C15.1641 7.84772 15.5639 5.26722 14.7644 3.08757C13.74 0.306635 10.1421 -0.89593 7.94346 1.40899C5.17013 4.34024 9.46754 8.67449 12.3658 5.84345C11.5413 6.57 10.8167 6.51989 10.2171 5.64302C9.49253 4.7912 9.19271 4.61583 9.39259 5.1169C9.34262 5.39249 9.74238 6.09398 9.8673 6.31946C10.292 7.09612 10.9666 7.6974 11.6912 8.17342C12.8655 8.92502 14.2647 9.42609 15.5889 9.87705C18.612 10.9042 21.6352 10.9293 24.5585 9.60147C25.9576 8.97513 26.4074 6.99591 25.8327 5.69313C25.1581 4.16487 23.734 3.61369 22.1599 3.88928C21.0356 4.08971 19.9363 4.16487 18.8119 4.0396C18.8119 6.11904 18.8119 8.22353 18.8119 10.303C22.1349 10.4282 25.5079 10.1526 28.756 9.45115C32.2539 8.69954 34.9272 6.1942 34.1027 2.36102C32.8285 3.63874 31.5293 4.94152 30.2551 6.21925C31.0546 6.54494 32.5287 6.82053 33.4032 6.54494C34.1777 6.29441 33.5531 6.72032 33.4781 6.39462C32.8785 5.41754 32.6786 5.24217 32.8535 5.91861C32.8785 6.09398 32.9035 6.26936 32.9534 6.44473C33.1533 7.37171 33.5531 8.29869 34.0028 9.12545C34.4275 9.87705 35.252 10.6287 35.6018 11.2299C35.4519 10.7038 35.327 10.1777 35.1771 9.65157C35.277 10.6537 35.277 11.5807 35.7018 12.5327C36.2015 13.6601 36.976 14.4368 37.9754 15.1383C38.5001 13.1841 39.0248 11.255 39.5495 9.30082C28.1563 9.35093 16.8131 10.2027 5.5449 11.731C6.7192 13.2593 7.89349 14.7875 9.06778 16.3408C9.24268 16.0653 9.21769 16.0402 9.39259 15.965C9.44256 15.94 10.0422 15.5892 10.2671 15.489C9.8673 15.6644 10.9167 15.2886 10.8417 15.3137C11.2165 15.1884 11.5913 15.0882 11.991 14.988C13.9898 14.4618 16.0386 14.061 18.0874 13.7603C22.1349 13.134 26.2575 12.8835 30.355 12.8835C33.7779 12.8584 34.7274 7.42182 31.1795 6.72032C30.7797 6.64516 30.405 6.57 30.0052 6.49484C30.2551 8.3989 30.5049 10.303 30.7548 12.207C31.1045 12.0317 31.4044 12.0567 31.9041 12.1068C30.8547 11.0546 29.8303 10.0274 28.7809 8.97513C28.8309 8.57427 28.4561 9.72673 28.606 9.42609C28.5061 9.62652 28.3812 9.852 28.2563 10.0274C28.2313 10.0524 27.9314 10.4533 28.1063 10.2529C27.4567 11.0546 26.9071 11.4053 26.0076 11.8563C24.4086 12.7081 21.9351 13.0338 19.9113 13.2843C17.2878 13.6351 14.7644 14.2364 12.1909 14.8376C9.99223 15.3638 7.91847 15.6393 5.79475 14.8126C5.51992 16.867 5.24508 18.9213 4.97025 20.9757C15.9137 21.3766 26.7821 21.7774 37.6756 20.2993C36.4014 19.0216 35.1021 17.7188 33.8279 16.4411C32.004 20.8254 32.7036 25.6357 33.4281 30.1703C33.678 31.6986 35.4769 32.6256 36.8511 32.4252C38.5251 32.1746 39.3496 30.947 39.5495 29.3436C39.7244 27.8905 39.9242 26.4624 40.0991 25.0093C38.0504 25.2849 36.0016 25.5605 33.9528 25.8361C34.1277 26.6629 33.9528 27.5147 33.8029 28.3414C33.5781 29.5941 33.3532 30.8718 33.3032 32.1496C33.2283 34.5046 33.3782 37.962 35.6018 39.2648C35.2271 38.889 34.8523 38.5131 34.4775 38.1373C34.5275 38.2125 34.6024 38.2877 34.6524 38.3879C35.8267 36.8596 37.001 35.3314 38.1753 33.778C35.5019 33.1267 32.8035 33.302 30.0802 33.4524C27.3068 33.6027 24.5335 33.7279 21.7352 33.8783C16.2635 34.1538 10.7917 34.4294 5.29505 34.705C6.29445 35.4817 7.29385 36.2333 8.31823 37.0099C7.09397 32.1496 6.64424 27.214 6.89409 22.2284C6.11956 23.2305 5.37001 24.2327 4.59547 25.2599C8.99283 24.6085 13.4402 24.2327 17.8625 24.1074C19.9862 24.0323 22.1349 24.0323 24.2587 24.2327C25.1831 24.3078 26.1075 24.4582 27.032 24.6586C27.4817 24.7588 27.9065 24.859 28.3562 24.9843C28.656 25.0594 28.9308 25.1597 29.2307 25.2599C29.7304 25.3601 29.8053 25.4102 29.5055 25.4102C29.1307 25.0344 28.756 24.6586 28.3812 24.2828C28.1813 24.0072 28.3812 24.2828 28.4062 24.4832C28.4561 24.8089 28.4811 25.1346 28.5311 25.4603C28.606 26.237 28.681 27.0136 28.731 27.8153C28.7809 28.5168 28.8059 29.2183 28.8059 29.9449C28.8059 30.3457 28.8059 30.7215 28.8059 31.1224C28.8059 31.2978 28.606 32.4252 28.7809 31.8489C29.0558 31.398 29.3056 30.922 29.5805 30.471C29.5055 30.5462 29.4555 30.6213 29.3806 30.6965C29.8303 30.4209 30.305 30.1704 30.7548 29.8948C30.355 30.0451 29.0308 30.1453 28.2313 30.2205C27.1819 30.3457 26.1075 30.4459 25.0582 30.5712C22.8595 30.8217 20.6608 31.0723 18.4621 31.2978C16.3634 31.5232 14.2647 31.899 12.1659 31.9742C11.8161 31.9993 11.4663 31.9993 11.1166 31.9491C10.9417 31.9241 10.7917 31.6736 10.6418 31.7237C10.7418 31.7487 10.7917 31.8239 10.8417 31.9241C11.0916 32.5755 10.8667 33.2269 10.1421 33.8783C9.81733 33.8783 10.9417 33.6277 10.8917 33.6528C12.5907 33.1517 14.3396 33.0765 16.0886 32.9513C18.1623 32.801 20.2611 32.6757 22.3598 32.5755C23.4841 32.5254 24.6084 32.4753 25.7328 32.4502C26.8071 32.4252 27.9065 32.4502 28.8809 31.9241C31.0546 30.7716 31.4543 27.8404 31.4793 25.6106C31.5293 23.4059 29.4555 22.2535 27.5317 22.5792C24.1337 23.1554 20.7108 23.7316 17.2629 23.907C15.5389 23.9821 13.8399 23.932 12.116 24.1325C11.2165 24.2327 8.8679 24.9843 8.24328 24.7087C6.69421 24.0573 4.89529 24.2327 3.97085 25.8361C3.19631 27.1389 3.52112 29.4438 5.09517 30.1202C7.29385 31.0472 9.16772 30.9721 11.4913 30.5462C13.2403 30.2205 14.9892 30.2706 16.7881 30.1954C20.9606 30.0451 25.0832 29.3185 29.1807 28.617C27.8565 27.6149 26.5573 26.6128 25.2331 25.5856C25.2331 25.9363 25.2081 26.2871 25.1581 26.6128C25.1081 26.8132 25.0832 27.0136 25.0082 27.214C24.9582 27.665 24.9083 27.7402 24.8583 27.4896C25.2331 27.1138 25.6078 26.738 25.9826 26.3622C26.2075 26.2871 26.4573 26.2119 26.6822 26.1618C26.3574 26.1618 26.0326 26.1618 25.7078 26.1869C25.383 26.1869 25.0582 26.2119 24.7334 26.2119C23.9339 26.237 23.1343 26.262 22.3348 26.3121C20.5609 26.3873 18.8119 26.5125 17.038 26.6378C14.0148 26.8382 10.8417 26.9134 7.99343 28.0659C6.14454 28.7924 4.74538 30.1202 4.67043 32.2247C4.59547 34.1539 5.66983 35.9076 7.19391 36.9849C9.94226 38.9391 13.3902 38.1875 16.5133 37.8367C19.8363 37.4609 23.1843 37.0851 26.5073 36.7093C28.0564 36.5339 29.6054 36.3836 31.1545 36.1832C33.4531 35.9076 34.8523 34.4795 35.0022 32.0995C35.1021 30.5462 35.0272 28.9427 34.9023 27.3894C34.8023 25.786 34.7274 24.0323 34.3276 22.4789C33.4032 18.8462 28.1813 18.4453 25.1331 18.0946C17.8125 17.2678 10.1421 18.1948 2.87151 19.2721C1.47235 19.4725 0.647844 21.0258 0.572889 22.3036C0.273069 27.8404 0.847723 33.4022 2.2219 38.7637C2.5467 40.0414 3.89589 41.1187 5.24508 41.0686C10.5669 40.793 15.8637 40.5425 21.1855 40.2669C23.8089 40.1416 26.4074 39.9913 29.0308 39.866C31.4543 39.7408 34.0778 39.3399 36.4513 39.9161C37.6756 40.2168 38.9748 39.8159 39.7244 38.7887C40.4239 37.8618 40.6988 36.3335 39.9742 35.3063C39.5245 34.68 39.0997 34.1789 38.4251 33.778C38.8999 34.4044 39.3746 35.0307 39.8493 35.6571C39.4495 34.0536 39.3496 32.4252 39.5994 30.7716C39.9742 28.5168 40.399 26.4875 39.8993 24.2327C39.5745 22.7295 37.9254 21.7774 36.4763 21.9779C34.8023 22.2284 33.9778 23.456 33.7779 25.0594C33.603 26.5125 33.4032 27.9406 33.2283 29.3937C35.277 29.1181 37.3258 28.8425 39.3746 28.5669C38.8249 25.0594 38.3752 21.5269 39.7743 18.1697C40.1991 17.1676 39.6744 15.8398 38.9748 15.1132C38.1003 14.2364 37.076 14.1612 35.9266 14.3115C25.6328 15.7145 15.2141 15.1383 4.87031 14.7625C3.34622 14.7124 1.97205 15.9901 1.79715 17.4682C1.59727 19.1218 2.5467 20.3243 4.0458 20.9006C6.99403 22.0781 10.2671 21.7273 13.2902 21.0509C14.8643 20.7001 16.3884 20.2241 17.9624 19.8984C19.4366 19.5978 20.9357 19.4475 22.4098 19.222C28.3062 18.3702 34.0528 15.489 34.9023 9.00018C35.1271 7.22139 33.2782 5.99377 31.7791 5.8685C30.2551 5.74324 28.8309 6.14409 27.4817 6.82053C25.1581 7.99805 25.6078 12.0317 28.2313 12.5327C28.631 12.6079 29.0058 12.683 29.4056 12.7582C29.6804 10.7038 29.9552 8.64944 30.2301 6.59505C25.2331 6.62011 20.2611 7.04601 15.339 7.84772C11.1915 8.52417 5.91968 9.25072 3.5461 13.1591C2.89649 14.2364 3.02142 15.6895 3.79595 16.6415C4.64544 17.7188 5.76977 17.9443 7.06899 17.7689C17.7875 16.3158 28.606 15.6143 39.4245 15.5642C42.6976 15.5391 43.4471 11.4554 40.9986 9.72673C41.4483 10.0524 41.3734 10.4783 41.2984 9.65157C41.2235 8.47406 40.6988 7.67235 39.9242 6.82053C39.2496 6.06893 38.9998 5.39249 38.7499 4.26508C38.3752 2.61155 37.4008 1.33383 35.8267 0.707491C35.0772 0.406849 34.2526 0.281582 33.4281 0.281582C32.7286 0.281582 32.2539 0.406849 31.7791 0.206422C29.4056 -0.770663 27.5067 1.98522 27.9314 4.06465C27.8565 3.81412 27.9065 3.56358 28.0314 3.3381C28.5311 2.91219 28.5811 2.83703 28.1313 3.13768C28.5061 3.13768 27.4817 3.31305 27.5067 3.31305C26.6072 3.53853 25.7078 3.68885 24.7833 3.83917C22.7596 4.11476 20.6858 4.16487 18.637 4.08971C16.9381 4.01455 15.5139 5.56786 15.5139 7.22139C15.5139 9.07534 16.963 10.1526 18.637 10.3531C20.311 10.5535 21.985 10.2529 23.659 9.97727C22.8595 8.07321 22.06 6.16914 21.2605 4.26508C20.436 4.64088 19.4116 4.51562 18.5121 4.31519C17.8375 4.16487 17.1629 3.93939 16.4883 3.68885C15.9886 3.48842 15.364 3.01241 14.8393 2.91219C14.5645 2.71177 14.6145 2.83703 14.9892 3.23789C15.314 3.76401 15.389 3.81412 15.2141 3.3381C15.1891 2.9623 14.8893 2.46123 14.6894 2.18564C14.1897 1.40899 13.5151 0.857811 12.6656 0.48201C10.9666 -0.219487 9.06778 0.181368 7.76856 1.45909C9.24268 2.93725 10.7168 4.4154 12.1909 5.89356C12.116 5.96872 12.041 6.01882 11.966 6.09398C11.4414 6.2443 10.9167 6.36957 10.392 6.51989C9.81733 6.04388 9.26766 5.56786 8.69301 5.1169C8.71799 5.21711 8.74298 5.34238 8.76796 5.44259C8.76796 5.29227 8.71799 5.19206 8.81793 5.04174C9.09277 4.64088 9.3676 4.26508 9.64244 3.86423C9.94226 3.73896 9.99223 3.7139 9.76736 3.78907C9.61745 3.78907 9.39259 3.91433 9.24268 3.96444C7.96844 4.4154 6.81914 5.04174 6.11956 6.26936C6.0446 6.41968 5.29505 7.92288 5.44496 8.04815C5.41998 8.0231 5.89469 7.62224 5.86971 7.62224C5.86971 7.6473 5.29505 7.94794 5.24508 7.97299C4.02082 8.59933 2.77157 9.1505 1.52232 9.75179C-0.951195 10.9293 -0.201646 14.8376 2.27187 15.464C3.37121 15.7396 4.2207 15.5892 5.2201 15.0882C6.64424 14.3616 7.26887 12.1319 6.34442 10.804C5.94466 10.2027 6.14454 10.9293 6.2195 10.9544C6.16953 10.9293 6.29445 10.5284 6.34442 10.4032C6.49433 9.95221 6.84412 9.37599 7.11896 8.89997C7.84352 7.52203 8.59307 6.14409 9.31763 4.7411C7.89349 5.1169 6.46935 5.4927 5.0452 5.8685C6.01962 6.34452 6.74418 7.2715 7.36881 8.07321C8.34322 9.35093 9.31763 10.4282 10.6169 11.3803C11.966 12.3824 14.1148 11.6057 14.8893 10.2529C15.9886 8.57428 15.289 6.89569 13.9399 5.89356Z" transform="translate(3.0033 4.03816)" fill="#C7E4DD"/>
<path d="M3.40021 0.0204561C2.40081 0.070563 1.32645 0.170777 0.626875 0.747006C-0.14766 1.3984 -0.172645 2.50075 0.377025 3.2774C0.926694 4.05406 1.97606 4.55513 3.05042 4.78061C4.12477 5.00609 5.22411 4.98104 6.34843 4.95599C7.29786 4.93093 8.24729 4.93093 9.19672 4.90588C10.1711 4.88083 11.1456 4.85577 12.045 4.55513C12.9445 4.25449 13.744 3.6031 13.8439 2.80139C13.9439 1.94957 13.2693 1.14786 12.3698 0.721953C11.4953 0.296044 10.446 0.170777 9.42159 0.0956164C7.44777 -0.0296509 5.39901 -0.00459735 3.40021 0.0204561Z" transform="translate(16.9657 2.21985)" fill="#C7E4DD"/>
<path d="M1.25364 11.1C2.67778 7.56749 4.42673 4.16022 6.45052 0.928323C6.87526 0.25188 5.80091 -0.39951 5.37616 0.301987C3.27742 3.6341 1.52848 7.14158 0.0543611 10.7743C-0.270444 11.5259 0.953821 11.8516 1.25364 11.1Z" transform="translate(1.97266 3.59183)" fill="black"/>
<path d="M0.599639 1.35289C3.39796 1.32783 6.19628 1.27773 8.96961 1.25267C9.76913 1.25267 9.76913 -9.55713e-08 8.96961 -9.55713e-08C6.17129 0.0250534 3.37297 0.0751604 0.599639 0.100214C-0.19988 0.125267 -0.19988 1.37794 0.599639 1.35289Z" transform="translate(7.49866 3.39275)" fill="black"/>
<path d="M0.784478 1.66847C4.43229 1.14234 8.13006 1.29267 11.8029 1.31772C15.5006 1.34277 19.2234 1.36783 22.9212 1.39288C26.544 1.41793 30.1918 1.44299 33.8146 1.46804C35.6385 1.49309 37.4374 1.51815 39.2614 1.56825C40.2607 1.59331 41.2352 1.64341 42.2346 1.64341C42.7343 1.64341 43.0591 1.69352 43.4338 1.36783C43.7087 1.14234 43.6337 0.74149 43.4338 0.490955C43.4089 0.465902 43.3839 0.440848 43.3589 0.390741C43.209 0.190313 42.8092 0.140207 42.6093 0.290528C42.5844 0.315581 42.5594 0.31558 42.5344 0.340634C41.8848 0.816649 42.5094 1.89395 43.159 1.41793C43.184 1.39288 43.209 1.39288 43.234 1.36783C42.9841 1.34277 42.7343 1.29267 42.4844 1.26761C42.5094 1.29267 42.5344 1.31772 42.5594 1.36783C42.5594 1.06718 42.5594 0.766543 42.5594 0.490955C42.8342 0.415795 42.8092 0.390741 42.4844 0.390741C42.2346 0.390741 41.9847 0.365688 41.7349 0.365688C41.3101 0.340634 40.9104 0.340634 40.4856 0.315581C39.5862 0.290527 38.6617 0.265474 37.7623 0.240421C35.9383 0.190314 34.1394 0.16526 32.3155 0.16526C28.6927 0.115153 25.0449 0.115153 21.4221 0.0900993C17.7993 0.0650458 14.1764 0.0399926 10.5536 0.0149391C7.18063 -0.0101143 3.80766 -0.0602206 0.434688 0.415795C-0.339846 0.566116 0.00994365 1.76868 0.784478 1.66847Z" transform="translate(2.21704 14.1257)" fill="black"/>
<path d="M0.0340391 0.770244C1.30827 4.55332 2.78239 8.16101 4.90611 11.5432C5.33086 12.2197 6.43019 11.5933 5.98046 10.9169C3.88172 7.63489 2.45758 4.12741 1.23332 0.444549C0.983465 -0.332108 -0.215811 -0.00641284 0.0340391 0.770244Z" transform="translate(39.4955 3.32402)" fill="black"/>
<path d="M0.618379 1.26565C3.39171 1.39091 6.26499 1.74166 9.01333 1.21554C9.81285 1.06522 9.46306 -0.137348 8.68853 0.0129731C6.0651 0.514042 3.26679 0.13824 0.618379 0.0129731C-0.206126 -0.0371338 -0.206126 1.21554 0.618379 1.26565Z" transform="translate(31.1158 3.65536)" fill="black"/>
<path d="M4.24878 0.031598C2.77466 0.156865 1.12566 0.382346 0.351121 1.8605C-0.273504 3.06307 -0.0236541 4.59133 0.775865 5.61852C3.0495 8.52472 7.89658 7.72301 11.0947 7.57269C12.6937 7.49753 14.3927 7.19688 15.4171 5.844C16.2666 4.71659 16.1916 3.28855 15.3671 2.16114C14.3677 0.808255 12.6937 0.4074 11.1196 0.232026C8.82103 -0.0435623 6.52241 -0.0185089 4.24878 0.031598C3.44926 0.0566515 3.44926 1.30932 4.24878 1.28427C6.79725 1.23416 9.44565 1.1089 11.9442 1.60997C13.2434 1.8605 15.1422 2.78748 14.7175 4.46606C14.3427 5.99432 12.3439 6.26991 11.0697 6.34507C8.77106 6.44528 5.89779 6.84614 3.67412 6.11959C2.49983 5.74378 1.30055 4.86691 1.22559 3.53908C1.10067 1.73523 2.84962 1.40954 4.22379 1.30932C5.0483 1.23416 5.0483 -0.0435623 4.24878 0.031598Z" transform="translate(16.342 0.530121)" fill="black"/>
<path d="M0.000369839 0.601283C0.10031 2.83104 0.60001 5.76229 3.34836 5.8124C4.22283 5.83745 5.17226 5.48671 5.67196 4.71005C6.32157 3.63275 6.07172 2.05438 6.07172 0.876871C6.07172 0.0751602 4.82247 0.0751602 4.82247 0.876871C4.82247 2.1546 5.29719 4.63489 3.37334 4.55973C1.49947 4.48457 1.32457 2.02933 1.2746 0.601283C1.22463 -0.200427 -0.0246151 -0.200427 0.000369839 0.601283Z" transform="translate(2.10156 14.3912)" fill="black"/>
<path d="M0.00324038 0.585949C0.15315 1.78851 0.103181 3.24162 0.55291 4.36902C0.95267 5.39621 1.95207 5.62169 2.97645 5.69685C3.95087 5.74696 5.02522 5.44632 5.54991 4.56945C6.17453 3.49215 5.84973 1.78852 5.84973 0.611003C5.84973 -0.190707 4.60048 -0.190707 4.60048 0.611003C4.60048 1.38766 4.60048 2.18937 4.60048 2.96603C4.60048 3.49215 4.62546 3.96817 4.12576 4.26881C3.77597 4.46923 3.35123 4.46923 2.97645 4.46923C2.52672 4.44418 1.97705 4.39407 1.7272 3.96817C1.57729 3.71763 1.60228 3.31678 1.55231 3.04119C1.45237 2.23948 1.35243 1.43777 1.27747 0.636056C1.17753 -0.190707 -0.0717146 -0.215761 0.00324038 0.585949Z" transform="translate(6.99585 14.8074)" fill="black"/>
<path d="M0.00118843 0.610714C-0.0237966 2.43962 0.325993 5.87194 2.89945 5.52119C3.79891 5.39592 4.99818 4.91991 5.44791 4.06809C5.99758 3.091 5.92263 1.66296 6.04755 0.610714C6.14749 -0.190996 4.89824 -0.190996 4.79831 0.610714C4.72335 1.28716 4.6484 1.98865 4.54846 2.6651C4.42353 3.54197 3.94882 3.91777 3.12431 4.1683C2.04996 4.494 1.75014 3.84261 1.50029 2.94068C1.30041 2.16403 1.22545 1.41242 1.22545 0.610714C1.25044 -0.190996 0.00118843 -0.21605 0.00118843 0.610714Z" transform="translate(11.745 14.8077)" fill="black"/>
<path d="M0.0126947 0.601282C-0.0122903 1.72869 -0.0622601 3.40727 0.562365 4.40941C1.06206 5.21112 2.1614 5.53681 3.06086 5.46165C5.68429 5.26122 5.95912 2.70577 6.10903 0.601282C6.18399 -0.200428 4.93474 -0.200428 4.85978 0.601282C4.75984 1.95417 4.8348 3.90834 3.11083 4.18393C1.11203 4.48457 1.26194 1.95417 1.26194 0.601282C1.28693 -0.200428 0.0376797 -0.200428 0.0126947 0.601282Z" transform="translate(16.6805 14.8672)" fill="black"/>
<path d="M0.120163 0.580653C-0.204642 2.15902 0.0202239 5.24059 2.16893 5.2907C3.11836 5.31575 4.3926 4.93995 5.06719 4.23846C5.86671 3.38664 5.94167 1.85838 6.16653 0.78108C6.34143 0.00442304 5.14215 -0.346325 4.96725 0.455385C4.81734 1.13183 4.69242 1.80827 4.51752 2.48472C4.31764 3.31148 3.84293 3.66223 3.04341 3.88771C2.2189 4.11319 1.7192 4.03803 1.46935 3.18621C1.26947 2.50977 1.19452 1.60784 1.31944 0.906347C1.49434 0.12969 0.295058 -0.221058 0.120163 0.580653Z" transform="translate(21.3201 14.938)" fill="black"/>
<path d="M0.167874 0.444549C-0.331826 2.34861 0.217845 5.48029 2.71634 5.43019C5.1149 5.38008 6.06433 2.79957 6.1143 0.745191C6.13929 -0.0565195 4.89004 -0.0565195 4.86505 0.745191C4.84007 1.97281 4.46529 3.7516 3.1161 4.10235C1.24223 4.60342 1.06733 1.97281 1.39214 0.770244C1.56703 -0.00641296 0.367754 -0.332108 0.167874 0.444549Z" transform="translate(25.8948 14.9989)" fill="black"/>
<path d="M0.350584 0.551175C0.175689 1.70363 -0.299027 3.282 0.275628 4.38435C0.750343 5.31133 1.79971 5.71219 2.79911 5.68713C5.39755 5.58692 6.27203 2.80599 6.02218 0.601283C5.92224 -0.200428 4.67299 -0.200428 4.77293 0.601283C4.92284 1.90406 4.74794 4.03361 3.17389 4.38435C2.47431 4.53468 1.54986 4.38435 1.325 3.58264C1.10013 2.78093 1.44992 1.65353 1.57485 0.876871C1.67479 0.100214 0.475509 -0.250535 0.350584 0.551175Z" transform="translate(30.5092 14.7921)" fill="black"/>
<path d="M0.0170574 1.0773C0.191952 1.8289 0.266907 2.58051 0.316877 3.35716C0.366846 3.88329 0.366848 4.38435 0.716638 4.86037C1.26631 5.63703 2.4406 5.86251 3.34006 5.86251C5.78859 5.83745 6.31327 2.45524 6.11339 0.601283C6.03844 -0.200427 4.78919 -0.200427 4.86414 0.601283C4.98907 1.90406 4.83916 4.76016 2.99027 4.60984C2.69045 4.58478 2.19075 4.53468 1.9409 4.33425C1.54114 4.03361 1.56612 3.45738 1.54114 3.03147C1.49117 2.27986 1.36625 1.52826 1.21634 0.776657C1.06643 -0.0501073 -0.157837 0.300641 0.0170574 1.0773Z" transform="translate(35.3149 14.6919)" fill="black"/>
<path d="M0.00324323 1.30904C0.103183 2.33623 0.00324096 3.78933 0.652851 4.6662C1.27748 5.51802 2.60168 5.69339 3.57609 5.51801C5.67483 5.09211 6.69922 2.08569 5.74979 0.306898C5.37501 -0.394599 4.30066 0.231738 4.67543 0.933234C5.27507 2.08569 4.45057 4.16513 3.12637 4.31545C2.32685 4.41566 1.62727 4.16513 1.42739 3.36342C1.27748 2.71203 1.27748 1.98548 1.22751 1.33409C1.17754 0.532379 -0.0717117 0.507326 0.00324323 1.30904Z" transform="translate(40.1509 14.3599)" fill="black"/>
<path d="M0.225235 0.601282C0.325175 8.31774 0.25022 16.0342 0.000369815 23.7256C-0.0246152 24.5273 1.22463 24.5273 1.24962 23.7256C1.52445 16.0092 1.59941 8.29269 1.47448 0.601282C1.4495 -0.200428 0.20025 -0.200428 0.225235 0.601282Z" transform="translate(4.40015 19.3769)" fill="black"/>
<path d="M0.297885 0.793715C0.7726 2.89821 0.0730233 4.95259 0.0980083 7.05708C0.0980083 8.08427 0.297887 9.08641 0.272902 10.1136C0.247917 11.0656 0.0730226 12.0177 0.0230526 12.9697C-0.0768874 14.8236 0.17296 16.7528 0.297885 18.6067C0.42281 20.5358 0.522752 22.49 0.647677 24.4191C0.697647 25.2208 1.9469 25.2208 1.89693 24.4191C1.772 22.4148 1.64708 20.3855 1.52215 18.3812C1.39723 16.4521 1.12239 14.4478 1.29728 12.5187C1.37224 11.5667 1.54714 10.6147 1.52215 9.66264C1.49717 8.63545 1.32227 7.60825 1.34726 6.58106C1.42221 4.50163 1.97188 2.5224 1.49717 0.442967C1.32227 -0.33369 0.12299 -0.00799502 0.297885 0.793715Z" transform="translate(41.8052 19.0341)" fill="black"/>
<path d="M0.59964 1.25267C15.6156 1.25267 30.6066 1.25267 45.6226 1.25267C46.4221 1.25267 46.4221 -1.52914e-06 45.6226 -1.52914e-06C30.6066 -1.52914e-06 15.6156 -1.52914e-06 0.59964 -1.52914e-06C-0.19988 -1.52914e-06 -0.19988 1.25267 0.59964 1.25267Z" transform="translate(0.77771 42.9772)" fill="black"/>
<path d="M9.53102e-08 0.601283C9.53102e-08 4.18393 9.53102e-08 7.76657 9.53102e-08 11.3743C9.53102e-08 12.176 1.24925 12.176 1.24925 11.3743C1.24925 7.79162 1.24925 4.20898 1.24925 0.601283C1.24925 -0.200428 9.53102e-08 -0.200428 9.53102e-08 0.601283Z" transform="translate(8.17334 25.4899)" fill="black"/>
<path d="M-3.81241e-07 0.601283C-3.81241e-07 4.18393 -3.81241e-07 7.76657 -3.81241e-07 11.3743C-3.81241e-07 12.176 1.24925 12.176 1.24925 11.3743C1.24925 7.79162 1.24925 4.20898 1.24925 0.601283C1.24925 -0.200428 -3.81241e-07 -0.200428 -3.81241e-07 0.601283Z" transform="translate(24.7885 25.4899)" fill="black"/>
<path d="M0.618379 1.35289C6.06511 1.32783 11.5118 1.27773 16.9586 1.25267C17.7581 1.25267 17.7581 0 16.9586 0C11.5118 0.0250535 6.06511 0.0751607 0.618379 0.100214C-0.206126 0.100214 -0.206126 1.35289 0.618379 1.35289Z" transform="translate(8.25452 25.3396)" fill="black"/>
<path d="M0.618379 1.25267C6.14006 1.25267 11.6617 1.27773 17.1834 1.27773C17.9829 1.27773 17.9829 0.0250535 17.1834 0.0250535C11.6617 0.0250535 6.14006 -1.52914e-06 0.618379 -1.52914e-06C-0.206126 -1.52914e-06 -0.206126 1.25267 0.618379 1.25267Z" transform="translate(8.25452 36.338)" fill="black"/>
<path d="M1.7186 17.4873C1.26887 14.2053 1.11896 10.9233 1.3938 7.61625C1.46875 6.73938 1.49374 5.76229 1.7186 4.93553C1.8935 4.25909 2.36821 3.85823 2.718 3.282C3.19272 2.5304 3.61746 2.05438 4.46695 1.75374C5.24148 1.50321 6.14094 1.22762 6.96545 1.25267C8.58947 1.30278 10.4633 2.43018 10.8131 4.08371C11.1379 5.66208 11.4128 7.29055 11.6127 8.89397C11.9874 11.8252 12.0624 14.8567 11.6127 17.7629C11.4877 18.5396 12.687 18.8903 12.8119 18.0886C13.3616 14.4809 13.1867 10.8231 12.6121 7.21539C12.3622 5.68713 12.3622 3.30706 11.3128 2.05438C10.3384 0.901925 8.46455 0.0250527 6.96545 -7.64571e-07C5.61626 -7.64571e-07 3.66743 0.375803 2.61806 1.27773C1.99344 1.80385 1.54371 2.65567 1.06899 3.30706C0.619263 3.93339 0.519322 4.53468 0.394397 5.28628C-0.205242 9.4702 -0.0803171 13.6291 0.494337 17.813C0.619262 18.6147 1.81854 18.289 1.7186 17.4873Z" transform="translate(27.892 25.515)" fill="black"/>
</svg>
