<svg width="76" height="74" viewBox="0 0 76 74" fill="none" xmlns="http://www.w3.org/2000/svg">
<path d="M20.9195 3.2922C15.6263 5.45699 10.7067 8.76601 7.12598 13.2193C4.07459 17.0231 2.05071 21.6001 0.960929 26.3317C-1.1875 35.6093 0.275924 45.722 5.25778 53.8244C7.09484 56.8242 12.9797 62.2362 13.509 62.5764C22.9745 68.2976 34.7441 70.184 45.5485 67.6791C47.7281 67.1843 49.8765 66.5039 51.7447 65.2978C53.2393 64.3391 54.5159 63.1021 55.7613 61.8651C59.5289 58.1231 63.2341 54.1956 65.7562 49.5258C71.4231 39.0111 70.1465 25.4658 63.5766 15.5078C61.2414 11.9823 58.3145 8.85879 54.7338 6.60123C51.1531 4.34367 47.0431 3.07572 42.9642 1.86963C39.1655 0.756312 35.2735 -0.295155 31.3503 0.0759513C28.2055 0.354281 25.2163 1.52945 22.2584 2.70462C20.6393 3.35405 19.0202 4.00349 17.4011 4.622" transform="translate(3.69397 3.21321)" fill="#2E555B"/>
<path d="M22.6702 3.44379C15.3531 6.50541 8.90787 11.3298 4.95352 18.2571C0.936897 25.2153 -0.619933 33.5961 0.220756 41.5749C0.968034 48.7187 3.4901 55.8934 8.34741 61.3054C10.0599 63.2228 11.897 65.0783 13.8586 66.7483C16.2561 68.7893 19.5877 70.0573 22.5146 71.1397C29.9562 73.8921 38.0517 74.6652 45.867 73.4282C49.9459 72.8097 54.0248 71.6963 57.2941 69.0986C60.5012 66.5318 63.3969 63.3465 66.0124 60.223C71.0254 54.2234 74.139 47.2961 74.6061 39.472C75.042 32.0189 73.1115 24.4113 69.2506 18.0097C67.071 14.3914 64.2687 11.0824 60.906 8.51557C57.2007 5.70135 52.8416 4.00045 48.3891 2.63972C43.7186 1.21715 38.7679 -0.360047 33.8483 0.0729097C28.6173 0.567718 23.7289 2.97991 18.965 4.89729C17.595 5.45394 18.1866 7.68058 19.5877 7.12392C23.4175 5.60857 27.2473 3.81489 31.2639 2.8562C35.6542 1.80474 39.9511 2.67065 44.1856 3.84582C48.0154 4.92821 51.9075 6.04153 55.4571 7.83521C58.7887 9.53611 61.6221 11.8864 64.0197 14.7007C73.1427 25.4627 75.2288 41.946 67.6315 54.0688C65.6076 57.316 63.0233 60.1921 60.3455 62.9444C57.5432 65.8205 54.8344 68.6038 50.9111 69.9027C43.812 72.1911 35.8722 72.2221 28.6485 70.5521C25.0055 69.7171 21.4559 68.4182 18.1243 66.6864C16.1004 65.6349 14.9172 64.6453 13.2047 62.9754C11.3677 61.1817 9.43719 59.2952 7.97377 57.1614C5.98103 54.2234 4.61102 50.8216 3.67692 47.4198C1.46622 39.3174 1.96441 30.4108 5.29602 22.7104C8.72105 14.7625 15.322 9.01038 23.2618 5.67042C24.6318 5.11376 24.0403 2.8562 22.6702 3.44379Z" transform="translate(0.666748)" fill="black"/>
<path d="M3.04761 12.6031C1.83328 12.5103 0.805777 11.5826 0.338728 10.4693C-0.128321 9.35594 -0.0660492 8.088 0.245317 6.94375C0.712366 5.21193 1.77101 3.66565 3.26557 2.64511C4.26194 1.96475 5.41399 1.53179 6.56605 1.19161C10.0845 0.140147 13.8209 -0.230959 17.4639 0.140147C17.4327 2.1503 16.8723 4.12953 16.2495 6.01599C15.6268 7.93337 14.8795 9.85075 13.7275 11.4589C12.5443 13.0979 10.8629 14.4277 8.87016 14.8298C6.87741 15.2318 4.63558 14.4896 3.5458 12.7887" transform="translate(35.9822 23.3743)" fill="#C7E4DD"/>
<path d="M16.6581 4.38444C15.7863 3.05465 14.8522 1.663 13.4821 0.828013C10.9601 -0.718261 7.53506 0.0548742 5.19981 1.87948C2.86457 3.70408 1.40115 6.36368 -2.37553e-07 8.96142C2.11729 9.64178 4.04776 10.786 6.13391 11.621C8.18893 12.456 10.4619 13.0127 12.6415 12.5178C13.2953 12.3632 13.9492 12.1158 14.4162 11.6519C15.3503 10.8169 15.5683 9.45622 15.724 8.2192C15.8485 7.29144 16.409 5.96164 16.5024 5.0648" transform="translate(17.7324 36.3864)" fill="#C7E4DD"/>
<path d="M1.52852 27.6294C2.2758 22.6504 1.03034 17.7024 1.83989 12.7234C2.18239 10.4658 2.71171 7.55881 4.11286 5.70328C5.60742 3.69312 8.65881 2.39425 10.9006 1.40463C11.8036 1.0026 11.0252 -0.327194 10.1222 0.0748371C7.78698 1.09538 4.98469 2.39425 3.24104 4.31163C1.74648 5.98161 1.15488 8.54842 0.687836 10.6823C0.127377 13.2182 -0.0905787 15.8468 0.0339677 18.4446C0.189651 21.4134 0.532153 24.2586 0.0651038 27.2583C-0.121716 28.1861 1.37284 28.6191 1.52852 27.6294Z" transform="translate(36.4115 27.3362)" fill="black"/>
<path d="M1.32219 4.16958C2.78561 2.43775 4.9029 1.75738 7.1136 1.57183C9.6668 1.35535 11.0991 2.77793 12.6248 4.60253C13.2786 5.37567 14.3684 4.26235 13.7146 3.52014C11.9086 1.35535 10.0716 -0.221844 7.08247 0.0255596C4.49813 0.242038 1.88265 1.01518 0.170138 3.08718C-0.421457 3.82939 0.668325 4.94271 1.32219 4.16958Z" transform="translate(23.7272 38.9207)" fill="black"/>
<path d="M19.7818 5.17673C18.5675 3.35213 17.2909 1.4966 15.2048 0.599763C13.3988 -0.204299 11.2815 -0.142448 9.41334 0.445136C4.80512 1.92956 2.28306 6.2282 0.103498 10.2176C-0.145595 10.6815 0.0723609 11.1763 0.570547 11.3618C5.02308 12.9081 9.35107 16.2171 14.3329 15.3821C16.0143 15.1038 17.4466 14.2998 18.1627 12.6916C18.5986 11.702 18.6609 10.6505 18.8789 9.59908C19.0968 8.54761 19.5016 7.558 19.6884 6.50653C19.8441 5.54784 18.3495 5.11488 18.1939 6.1045C17.9136 7.65077 17.4466 9.19705 17.1352 10.7433C16.637 13.2174 14.8934 14.0214 12.4336 13.9596C8.32356 13.8359 4.74285 11.1763 0.975322 9.87741C1.13101 10.2485 1.28669 10.6196 1.44237 11.0217C3.21716 7.77448 5.17876 4.09434 8.6972 2.39344C10.3786 1.58938 12.3713 1.2492 14.1772 1.83678C16.1388 2.51714 17.3532 4.31082 18.443 5.94987C18.9723 6.78486 20.3112 6.01172 19.7818 5.17673Z" transform="translate(15.4492 34.1715)" fill="black"/>
<path d="M4.37306 14.4498C1.57076 14.0168 1.07258 10.9861 1.78872 8.69762C2.47373 6.47099 4.0617 4.70824 6.14785 3.68769C10.507 1.61569 15.8936 1.27551 20.6575 1.67754C20.4084 1.43013 20.1282 1.1518 19.8791 0.904401C19.7857 3.25474 19.1629 5.48137 18.4468 7.67708C17.7618 9.71816 16.9834 11.7283 15.7068 13.4911C13.4338 16.6145 8.17173 18.934 5.36943 15.0373C4.80897 14.2333 3.43896 15.0064 4.03056 15.8105C6.80171 19.738 12.1261 19.1195 15.3954 16.1507C17.2636 14.4498 18.4468 12.1613 19.3186 9.84186C20.4084 6.96579 21.3425 3.96602 21.4359 0.904401C21.4359 0.471444 21.0623 0.162189 20.6575 0.131263C17.357 -0.147066 14.0254 0.00756012 10.7561 0.687921C7.95377 1.27551 4.87125 2.07957 2.78509 4.15158C-0.297431 7.15135 -1.94767 15.0373 3.96829 15.9651C4.93352 16.0888 5.33829 14.6044 4.37306 14.4498Z" transform="translate(33.7227 21.3112)" fill="black"/>
</svg>
