<svg width="42" height="43" viewBox="0 0 42 43" fill="none" xmlns="http://www.w3.org/2000/svg">
<path d="M36.9403 8.15824C34.8981 5.41898 31.82 3.66228 28.8307 2.02467C26.0189 0.476394 22.6448 0.119098 19.3891 0C14.3871 0 9.35558 2.35219 5.7743 5.86559C2.19302 9.379 0.0620067 14.3811 0.00281199 19.4428C-0.0267854 21.0506 0.180396 22.6585 0.47637 24.2365C1.71946 30.4892 5.38954 36.5632 11.161 39.2131C14.5351 40.7614 19.0931 41.5058 22.7632 40.7912C26.4037 40.0766 29.837 38.439 32.9151 36.2952C34.247 35.3722 35.5493 34.3301 36.526 32.9902C37.5323 31.5908 38.1538 29.9532 38.6866 28.2859C39.7225 25.0404 40.5216 21.6759 40.5216 18.2518C40.5216 14.8575 38.9826 10.8975 36.9403 8.15824ZM20.8098 7.3841C23.3847 6.58018 25.6637 8.42621 26.5813 10.7189C27.4692 13.0115 27.4692 15.7805 27.3212 18.222C27.1732 20.6338 26.4629 23.1646 24.6574 24.8618C20.721 28.5836 13.5288 27.5713 11.605 22.2714C9.38518 16.2569 12.7297 4.94258 20.8098 7.3841ZM31.0801 36.0868C30.6065 36.1166 30.1033 36.6823 29.7186 36.9205C29.3338 37.1587 28.949 37.3373 28.5051 37.516C27.4692 37.9626 26.3445 38.171 25.2198 38.3794C25.0718 38.4092 24.9238 38.439 24.7758 38.4688C24.6574 38.5581 24.539 38.6176 24.3911 38.6772C22.2304 39.5704 19.8627 39.3025 17.6133 39.2727C17.1397 39.2727 16.7549 39.094 16.4886 38.8558C15.7782 38.7963 15.0383 38.6772 14.3279 38.5283C12.8777 38.2306 11.457 37.7542 10.1843 37.0098C9.1188 36.4143 8.26048 35.4318 7.10618 34.9851C5.53752 34.3897 5.59672 32.4245 7.10618 31.829C9.41478 30.906 13.6768 30.8465 14.5055 27.9881C14.8903 26.6185 16.459 26.5887 17.2581 27.3331C19.1227 27.3629 20.8986 27.1842 22.6744 26.5292C23.2664 26.291 24.2431 26.678 24.5094 27.2735C25.7821 30.2808 28.2387 32.3352 31.4944 32.8414C33.4478 33.1689 32.7671 35.9677 31.0801 36.0868Z" transform="translate(1.08789 1.93579)" fill="#45666D"/>
<path d="M20.1218 0.000440709C11.5682 0.0897645 3.66569 6.04468 1.00193 14.1731C-1.60264 22.0634 1.03153 31.8593 7.03979 37.5164C9.99953 40.3152 13.8176 41.8337 17.8428 42.3399C22.312 42.9056 26.5741 41.804 30.5401 39.7495C34.5358 37.6653 37.9986 35.0451 39.6265 30.698C41.2248 26.3807 42.527 21.3488 41.7871 16.7338C41.0176 11.9698 38.413 7.71206 34.5358 4.91325C32.5231 3.45429 30.2441 2.05489 27.9059 1.2212C25.4198 0.327961 22.7264 0.119539 20.1218 0.000440709C19.1747 -0.0293339 19.1747 1.4594 20.1218 1.48917C22.2824 1.57849 24.4726 1.75714 26.5445 2.35263C28.5571 2.94813 30.3921 4.02001 32.1384 5.12167C35.6013 7.29522 38.1762 10.2131 39.5673 14.1136C41.0472 18.282 40.4552 22.5696 39.3009 26.7678C38.7682 28.7031 38.2058 30.7576 37.1699 32.4845C36.0452 34.4199 34.2398 35.7597 32.4047 36.9507C28.9419 39.1838 24.887 40.9703 20.7138 41.0298C16.9845 41.0894 13.0481 40.1068 9.96993 37.9928C3.78408 33.7351 0.498772 24.892 1.68267 17.5377C3.10334 8.66485 11.1242 1.60827 20.1218 1.48917C21.069 1.48917 21.069 0.000440709 20.1218 0.000440709Z" fill="black"/>
<path d="M9.11717 0.134081C7.07495 0.5807 4.76635 0.759348 3.16809 2.30763C1.71782 3.70703 0.800303 5.70193 0.38594 7.66705C-0.501982 11.6271 0.0603695 16.927 2.93131 19.9937C5.80226 23.0307 10.5674 22.733 13.7344 20.3808C15.4806 19.1005 16.3093 17.3438 16.9309 15.2893C17.6412 12.9372 18.2332 10.4361 18.0852 7.93502C17.9668 5.76148 17.3452 3.67726 15.4806 2.42672C13.7048 1.20597 11.3962 -0.491185 9.11717 0.134081C8.19965 0.372278 8.58441 1.83123 9.50193 1.56326C10.7746 1.20597 11.7809 1.95033 12.8168 2.5756C13.7936 3.14131 15.0366 3.67726 15.7174 4.65982C16.9901 6.50584 16.7237 9.42375 16.3389 11.4782C15.9838 13.6517 15.451 16.5697 13.8823 18.2668C12.4025 19.8746 10.0939 20.8572 7.90367 20.7083C2.87212 20.351 1.36265 14.6045 1.51064 10.3765C1.59943 8.29232 2.13219 6.17832 3.31608 4.4514C4.79595 2.27785 7.13414 2.0992 9.50193 1.59304C10.449 1.35484 10.0643 -0.074341 9.11717 0.134081Z" transform="translate(11.2415 7.78641)" fill="black"/>
<path d="M9.86115 0.506921C8.32209 4.19897 4.11926 5.5686 0.537978 6.22364C-0.409138 6.40229 0.00522546 7.83147 0.922744 7.65282C5.12557 6.87868 9.50598 5.12198 11.2818 0.893992C11.637 0.000754036 10.2163 -0.386317 9.86115 0.506921Z" transform="translate(5.22913 28.1367)" fill="black"/>
<path d="M0.115434 1.0901C1.32893 3.05523 2.60161 4.99057 4.61424 6.18156C6.41968 7.25344 9.20183 8.65285 11.3624 8.50398C12.3096 8.44443 12.3096 6.9557 11.3624 7.01525C9.4978 7.13434 6.95243 5.85404 5.38377 4.90125C3.57833 3.82936 2.48322 2.07266 1.41772 0.345738C0.884966 -0.458176 -0.387722 0.286189 0.115434 1.0901Z" transform="translate(24.0612 27.5833)" fill="black"/>
<path d="M0.103836 0.729478C0.163031 1.50362 0.133434 2.27776 0.015044 3.0519C-0.16254 3.97491 1.28773 4.39175 1.43572 3.43896C1.5837 2.54573 1.6725 1.62272 1.5837 0.699703C1.52451 -0.223309 0.0446412 -0.253084 0.103836 0.729478Z" transform="translate(16.4071 14.7538)" fill="black"/>
<path d="M0.0892293 0.71459C0.0596319 1.6376 0.0300359 2.59039 0.000438537 3.5134C-0.0291588 4.46619 1.45071 4.46619 1.48031 3.5134C1.5099 2.59039 1.5395 1.6376 1.5691 0.71459C1.5987 -0.238197 0.118827 -0.238197 0.0892293 0.71459Z" transform="translate(21.8676 15.0962)" fill="black"/>
</svg>
