<svg width="19" height="16" viewBox="0 0 19 16" fill="none" xmlns="http://www.w3.org/2000/svg">
<path d="M1.45821 5.893C0.877186 5.84962 0.385546 5.41581 0.162074 4.89524C-0.061399 4.37467 -0.0316031 3.78181 0.117379 3.24678C0.340851 2.43701 0.84739 1.71399 1.5625 1.23681C2.03924 0.918683 2.59048 0.71624 3.14171 0.557177C4.8252 0.0655301 6.61298 -0.107993 8.35607 0.06553C8.34117 1.00544 8.073 1.9309 7.77504 2.81297C7.47708 3.7095 7.11952 4.60604 6.56829 5.35797C6.00216 6.12436 5.19766 6.74615 4.24417 6.93413C3.29069 7.12211 2.21802 6.77507 1.69659 5.97976" transform="translate(9.82446 0.979141)" fill="#43676E"/>
<path d="M7.97052 2.03563C7.55337 1.41384 7.10643 0.77759 6.45091 0.387164C5.24416 -0.335847 3.60536 0.0256589 2.488 0.878811C1.37063 1.73196 0.685316 2.97554 2.8416e-08 4.17574C1.01308 4.49386 1.93676 5.02889 2.93494 5.41932C3.93312 5.80974 5.00579 6.07003 6.04866 5.83866C6.36152 5.76636 6.67438 5.65068 6.89785 5.43378C7.3448 5.04335 7.44909 4.4071 7.52358 3.82869C7.58317 3.39489 7.85134 2.7731 7.89603 2.35375" transform="translate(1.09241 7.06339)" fill="#43676E"/>
<path d="M0.731364 12.919C1.08892 10.5909 0.492994 8.27731 0.880346 5.94922C1.04423 4.89362 1.2975 3.53436 1.96791 2.66675C2.68303 1.72684 4.14305 1.11951 5.21572 0.656782C5.64776 0.468799 5.27531 -0.15299 4.84326 0.0349928C3.7259 0.51218 2.38506 1.11951 1.55076 2.01604C0.835652 2.79689 0.552587 3.99709 0.329114 4.99485C0.0609471 6.18058 -0.0433399 7.4097 0.0162528 8.62436C0.0907437 10.0125 0.254623 11.3429 0.0311507 12.7455C-0.0582383 13.1793 0.656874 13.3818 0.731364 12.919Z" transform="translate(10.0299 2.81721)" fill="black"/>
<path d="M0.63264 1.94962C1.33285 1.13985 2.34593 0.821723 3.4037 0.734962C4.62535 0.63374 5.31067 1.29891 6.04068 2.15206C6.35354 2.51357 6.87498 1.993 6.56211 1.64596C5.69802 0.633741 4.81903 -0.103731 3.3888 0.011951C2.15225 0.113172 0.900807 0.474678 0.0814077 1.44351C-0.201658 1.79056 0.319778 2.31113 0.63264 1.94962Z" transform="translate(3.96082 8.23391)" fill="black"/>
<path d="M9.46517 2.42055C8.88414 1.5674 8.27331 0.699785 7.27514 0.280438C6.41104 -0.095527 5.39797 -0.0666066 4.50408 0.208137C2.29915 0.902228 1.09239 2.92666 0.0495214 4.79202C-0.069664 5.00893 0.0346232 5.24029 0.272994 5.32705C2.40343 6.0356 4.47428 7.58285 6.85799 7.19242C7.66249 7.06228 8.3478 6.68631 8.69046 5.93438C8.89904 5.47165 8.92883 4.98001 9.03312 4.48836C9.13741 3.99671 9.33108 3.53399 9.42047 3.04234C9.49496 2.59407 8.77985 2.39163 8.70536 2.85436C8.57128 3.57737 8.3478 4.30038 8.19882 5.02339C7.96045 6.18021 7.12615 6.55617 5.9492 6.52725C3.98264 6.46941 2.26935 5.22583 0.46667 4.6185C0.541161 4.79203 0.615652 4.96555 0.690143 5.15353C1.53934 3.63521 2.47792 1.91444 4.16142 1.11913C4.96592 0.743165 5.9194 0.584103 6.7835 0.858847C7.72208 1.17697 8.30311 2.01566 8.82455 2.78206C9.07782 3.17248 9.71844 2.81098 9.46517 2.42055Z" transform="translate(0 6.01329)" fill="black"/>
<path d="M2.10731 6.75645C0.766474 6.55401 0.528104 5.13691 0.870762 4.06685C1.19852 3.02572 1.95833 2.20149 2.95651 1.7243C5.04225 0.755466 7.61964 0.596404 9.89906 0.784387C9.77987 0.668705 9.64579 0.538563 9.5266 0.422881C9.48191 1.52186 9.18394 2.56299 8.84129 3.58967C8.51353 4.54404 8.14107 5.48396 7.53025 6.30819C6.44268 7.76867 3.92489 8.85318 2.58405 7.0312C2.31589 6.65523 1.66037 7.01674 1.94343 7.3927C3.26937 9.22915 5.81696 8.93995 7.38126 7.55177C8.27515 6.75645 8.84128 5.6864 9.25843 4.60188C9.77987 3.25708 10.2268 1.85444 10.2715 0.422881C10.2715 0.220438 10.0927 0.0758363 9.89906 0.061376C8.30495 -0.0687659 6.71085 0.00353519 5.14654 0.32166C3.8057 0.596404 2.33078 0.972369 1.33261 1.9412C-0.142314 3.34384 -0.931917 7.0312 1.89874 7.465C2.37548 7.53731 2.56915 6.82876 2.10731 6.75645Z" transform="translate(8.72852)" fill="black"/>
</svg>
