<svg width="39" height="40" viewBox="0 0 39 40" fill="none" xmlns="http://www.w3.org/2000/svg">
<path d="M0.17683 0.121513C0.128681 4.13144 0.056457 8.14137 0.00830787 12.1513C-0.0157667 13.3178 -0.0157665 14.533 0.417576 15.6023C4.89545 15.6752 9.37332 15.7238 13.8512 15.7967C14.4531 15.7967 15.1753 15.7481 15.4883 15.2377C15.729 14.8732 15.6568 14.3871 15.5605 13.9497C14.8864 9.98837 14.7179 5.92983 15.079 1.91991C15.1271 1.43385 15.1512 0.899196 14.8623 0.510354C14.5012 0.0243024 13.803 1.85414e-07 13.2253 1.85414e-07C8.9159 0.0486054 4.58248 0.072908 0.273129 0.121513" transform="translate(11.9358 12.3503)" fill="#C7E4DD"/>
<path d="M0.57779 1.41841C3.15377 1.66144 5.72975 1.56423 8.28166 1.17538C9.05204 1.05387 8.715 -0.112653 7.96869 0.00885966C5.51308 0.373399 3.05747 0.446306 0.57779 0.20328C-0.192597 0.130373 -0.192597 1.3455 0.57779 1.41841Z" transform="translate(0.34021 0.894974)" fill="black"/>
<path d="M0.144804 0.583262C0.0966547 2.96492 0.0485055 5.34657 0.000356317 7.70392C-0.0237183 8.48161 1.18001 8.48161 1.20409 7.70392C1.25223 5.32227 1.30038 2.94061 1.34853 0.583262C1.34853 -0.194421 0.144804 -0.194421 0.144804 0.583262Z" transform="translate(0.508301 1.00104)" fill="black"/>
<path d="M0.57779 1.21513C3.08155 1.21513 5.5853 1.21513 8.08906 1.21513C7.89646 0.947801 7.70387 0.704775 7.51127 0.437447C7.0057 2.98922 6.78903 5.56529 6.93348 8.16567C6.98163 8.94336 8.18536 8.94336 8.13721 8.16567C8.01684 5.68681 8.18536 3.20794 8.66685 0.777683C8.73907 0.388842 8.49833 0 8.08906 0C5.5853 0 3.08155 0 0.57779 0C-0.192597 0 -0.192597 1.21513 0.57779 1.21513Z" transform="translate(29.5425 0.879517)" fill="black"/>
<path d="M0.00312299 0.583263C0.219794 2.7705 0.412391 4.98203 0.629062 7.16927C0.653137 7.5095 0.869808 7.75253 1.23093 7.77683C3.32542 7.84974 5.39583 7.92265 7.49032 7.99555C8.26071 8.01986 8.26071 6.80473 7.49032 6.78042C5.39583 6.70752 3.32542 6.63461 1.23093 6.5617C1.42352 6.75612 1.6402 6.97485 1.83279 7.16927C1.6402 4.98203 1.42352 2.7948 1.20685 0.583263C1.13463 -0.19442 -0.0691008 -0.19442 0.00312299 0.583263Z" transform="translate(0 31.1363)" fill="black"/>
<path d="M0.595846 7.84974C2.01625 7.84974 3.43665 7.84974 4.83297 7.84974C5.60336 7.84974 7.02376 8.18998 7.6497 7.5095C8.17934 6.95054 7.91452 5.73541 7.93859 5.05494C7.96267 3.57248 7.98674 2.09002 7.98674 0.583262C7.98674 -0.194421 6.78301 -0.194421 6.78301 0.583262C6.75894 1.67688 6.75894 2.7705 6.73487 3.86411C6.73487 4.39877 6.92746 6.44019 6.71079 6.65891C6.63857 6.73182 5.50706 6.61031 5.31447 6.61031C4.83297 6.61031 4.37556 6.61031 3.89406 6.61031C2.78663 6.61031 1.70328 6.61031 0.595846 6.61031C-0.198615 6.63461 -0.198615 7.84974 0.595846 7.84974Z" transform="translate(29.8618 31.2821)" fill="black"/>
<path d="M0.249834 0.797139C0.201685 3.73775 0.17761 6.67837 0.129461 9.61898C0.105386 12.1708 -0.327956 15.0871 0.538729 17.5173C0.635028 17.7847 0.827625 17.9548 1.11652 17.9548C5.88329 18.0277 10.6982 18.2464 15.465 18.1492C16.9335 18.1249 18.0891 17.5659 17.9687 15.9134C17.8002 13.6532 17.3428 11.4417 17.2465 9.15723C17.1502 6.89709 17.3909 4.66125 17.415 2.40111C17.4391 0.894349 16.5965 0.140968 15.1279 0.043758C12.8168 -0.077755 10.4334 0.0923633 8.12222 0.0923633C5.73884 0.116666 3.35546 0.140968 0.947997 0.165271C0.177611 0.165271 0.177611 1.3804 0.947997 1.3804C4.77586 1.3561 8.57964 1.30749 12.4075 1.28319C13.2983 1.28319 14.2372 1.21028 15.1279 1.25889C16.5483 1.3561 16.1872 2.66844 16.115 3.64054C15.9705 5.56045 15.9465 7.48035 16.0428 9.40026C16.115 11.15 16.2835 12.8755 16.5483 14.601C16.7169 15.6703 17.1743 16.8855 15.6335 16.9341C14.7187 16.9827 13.7557 16.9098 12.8408 16.9098C8.94076 16.8612 5.0166 16.8126 1.11652 16.7396C1.30912 16.8855 1.50171 17.0313 1.69431 17.1771C0.827624 14.7468 1.30912 11.6847 1.33319 9.13293C1.38134 6.36243 1.40541 3.56764 1.45356 0.797139C1.45356 0.0194559 0.249834 0.0194559 0.249834 0.797139Z" transform="translate(10.2498 10.8727)" fill="black"/>
</svg>
