<svg width="207" height="48" viewBox="0 0 207 48" fill="none" xmlns="http://www.w3.org/2000/svg">
<path d="M12.3932 1.83876C12.5163 1.22584 12.3932 0.551629 12.1472 0C11.1015 0.612921 9.99437 1.10326 8.82569 1.28713C7.34945 1.5323 5.62718 1.5323 4.64303 2.69685C3.90491 3.55494 3.78189 4.84208 3.96642 5.94533C4.15095 7.04859 4.4585 8.21314 4.39699 9.37769C3.35133 9.3164 2.30566 9.37769 1.26 9.50027C0.890942 9.56157 0.460374 9.62286 0.214336 9.92932C-0.585289 10.8487 1.13698 12.1358 0.767922 13.2391C1.93661 13.3004 3.04378 13.3004 4.21246 13.3617C4.02793 17.2844 4.21246 21.2071 4.82756 25.0685C5.50417 25.804 6.85738 25.4362 7.47247 24.5781C8.02606 23.72 8.02606 22.6168 7.96455 21.6361C7.90304 19.1231 7.78002 16.6714 7.657 14.1585C9.19474 13.852 10.671 13.4843 12.2087 13.1778C12.2702 12.3197 12.3317 11.4616 11.9627 10.6648C11.5936 9.92932 10.6095 9.37769 9.87135 9.74544C9.50229 9.92932 9.13323 10.2971 8.82569 10.0519C8.70267 9.92932 8.70267 9.74544 8.64116 9.62286C8.57965 8.88735 8.45663 8.21314 8.39512 7.47764C8.33361 6.74213 8.2721 5.82275 8.94871 5.3937C9.87135 4.78078 11.5321 5.82275 12.1472 4.90337C12.3317 4.59691 12.3317 4.29045 12.2702 3.92269C12.2702 3.43236 12.2087 3.00331 12.2087 2.51298C12.2087 2.39039 12.2087 2.20652 12.3317 2.14522C12.4548 2.08393 12.5778 2.39039 12.3932 2.3291" transform="translate(18.6582 11.3369)" fill="#DB786F"/>
<path d="M14.2767 2.75699C14.2767 1.65374 14.3383 1.77632 13.9692 0.673062C13.7847 0.121434 13.1696 -0.185027 12.616 0.121434C10.3401 1.40857 6.77257 0.979522 4.92728 2.94087C3.08199 4.96351 4.31219 7.96682 4.3737 10.2959C4.68124 9.98946 4.98879 9.683 5.29634 9.37654C4.00464 9.37654 1.35972 9.00879 0.375568 10.2346C-0.670096 11.5218 0.806136 12.7476 0.744626 14.096C0.683117 14.5864 1.17519 15.0154 1.66727 15.0154C2.83595 15.0767 3.94313 15.0767 5.11181 15.138C4.80426 14.8315 4.49671 14.5251 4.18917 14.2186C4.06615 17.7736 4.18917 21.2672 4.61973 24.7609C4.80426 26.2932 5.29634 27.519 7.20314 27.2125C8.74088 26.9674 9.47899 25.5577 9.72503 24.1479C10.1556 21.2672 9.60202 17.8961 9.479 15.0154C9.23296 15.3219 9.04843 15.6283 8.80239 15.8735C10.3401 15.567 11.8164 15.1993 13.3541 14.8928C13.7847 14.8315 14.0307 14.4025 14.0307 14.0347C14.1537 12.6863 14.1537 11.154 12.985 10.2346C11.6933 9.19266 11.0782 10.112 9.72503 9.98946C10.0326 10.2346 10.3401 10.4185 10.5862 10.6637C10.4016 9.92817 10.2786 9.13137 10.2171 8.33457C10.4632 7.23132 11.0167 6.80227 11.9394 7.10873C12.493 6.86356 12.739 7.10873 13.2926 6.74098C14.5843 5.88289 13.7232 4.47317 14.1537 3.30862C13.7232 3.4925 13.2311 3.67637 12.8005 3.86025C12.862 3.92154 12.9235 3.92154 12.9235 3.98283C12.8005 3.55379 12.6775 3.12475 12.616 2.6957C12.616 2.75699 12.5545 2.75699 12.5545 2.81829C11.9394 3.86025 13.5386 4.77963 14.1537 3.73767C14.1537 3.67637 14.2152 3.67637 14.2152 3.61508C14.4613 3.18604 14.2767 2.63441 13.9077 2.32795C13.8462 2.26666 13.7847 2.26666 13.7847 2.20536C13.2311 1.83761 12.616 2.26666 12.4315 2.75699C12.2469 3.18604 12.3699 3.30862 12.2469 3.73767C11.9394 5.08609 12.1854 4.84092 11.2628 5.14738C10.5862 5.33126 9.90956 5.08609 9.23296 5.57643C7.81824 6.74098 8.31031 9.683 8.8639 11.0927C8.98692 11.5218 9.29447 11.7669 9.72503 11.7669C11.0782 11.8282 12.3084 12.3186 12.1854 13.9734C12.4315 13.667 12.616 13.3605 12.862 13.1154C11.3243 13.4218 9.84805 13.7896 8.31031 14.096C7.94125 14.1573 7.63371 14.5864 7.63371 14.9541C7.69522 16.3638 7.75673 17.7736 7.81824 19.1833C7.87975 20.4704 8.49484 23.0447 7.14163 23.3511C5.91144 23.5963 6.28049 22.8608 6.15747 21.7575C6.09596 20.9607 6.03445 20.2252 6.03445 19.4284C5.97295 17.651 5.97295 15.9348 6.03445 14.1573C6.03445 13.667 5.60389 13.2379 5.11181 13.2379C3.94313 13.1766 2.83595 13.1766 1.66727 13.1154C1.97482 13.4218 2.28237 13.7283 2.58992 14.0347C2.65143 13.5444 2.28237 12.8089 2.34388 12.3799C1.79029 11.7056 2.09784 11.2766 3.20501 11.0927C3.88162 11.0314 4.61973 11.0314 5.29634 11.0927C5.78842 11.0927 6.21899 10.6637 6.21899 10.1733C6.15748 9.00879 6.09597 8.76362 5.97295 7.66036C5.35785 6.31193 5.6654 5.26997 6.9571 4.59576C7.38767 3.61508 8.12578 3.12475 9.10994 3.12475C10.7092 2.57312 12.0624 2.45053 13.6001 1.59244C13.1696 1.40857 12.6775 1.22469 12.2469 1.04082C12.3084 1.59244 12.4315 2.08278 12.493 2.63441C12.3699 3.92154 14.2152 3.92154 14.2767 2.75699Z" transform="translate(17.6973 10.4185)" fill="#DB786F"/>
<path d="M8.29253 4.53314C5.15554 8.57842 1.46496 13.1753 0.357791 18.3239C-0.749383 23.4724 0.911378 29.4177 2.63365 34.3211C6.1397 44.3117 15.4892 48.2344 25.6383 47.9892C35.3568 47.7441 45.5059 42.7181 48.5813 32.9114C51.5338 23.4724 49.1964 12.0721 41.5692 5.51382C31.7277 -2.8832 19.4258 -0.370224 8.47706 4.34927C7.36989 4.8396 8.35404 6.4332 9.39971 5.94286C18.3186 2.08146 28.4062 -0.615392 37.3251 4.71702C45.3213 9.4978 48.2123 17.7722 47.7202 26.7209C47.1666 36.7728 40.0315 43.944 30.2515 45.6601C21.5171 47.1924 10.0763 45.4763 5.70913 36.8341C3.49478 32.421 1.711 26.1692 1.89553 21.2046C2.14157 15.4431 6.20121 10.2333 9.64575 5.82028C10.3224 4.9009 9.03065 3.55247 8.29253 4.53314Z" fill="#DB786F"/>
<path d="M14.2767 2.75699C14.2767 1.65374 14.3383 1.77632 13.9692 0.673062C13.7847 0.121434 13.1696 -0.185027 12.616 0.121434C10.3401 1.40857 6.77257 0.979522 4.92728 2.94087C3.08199 4.96351 4.31219 7.96682 4.3737 10.2959C4.68124 9.98946 4.98879 9.683 5.29634 9.37654C4.00464 9.37654 1.35972 9.00879 0.375569 10.2346C-0.670095 11.5218 0.806136 12.7476 0.744627 14.096C0.683117 14.5864 1.17519 15.0154 1.66727 15.0154C2.83595 15.0767 3.94313 15.0767 5.11181 15.138C4.80426 14.8315 4.49672 14.5251 4.18917 14.2186C4.06615 17.7736 4.18917 21.2672 4.61973 24.7609C4.80426 26.2932 5.29634 27.519 7.20314 27.2125C8.74088 26.9674 9.479 25.5577 9.72504 24.1479C10.1556 21.2672 9.60202 17.8961 9.479 15.0154C9.23296 15.3219 9.04843 15.6283 8.80239 15.8735C10.3401 15.567 11.8164 15.1993 13.3541 14.8928C13.7847 14.8315 14.0307 14.4025 14.0307 14.0347C14.1537 12.6863 14.1537 11.154 12.985 10.2346C11.6933 9.19266 11.0782 10.112 9.72504 9.98946C10.0326 10.2346 10.3401 10.4185 10.5862 10.6637C10.4016 9.92817 10.2786 9.13137 10.2171 8.33457C10.4631 7.23132 11.0167 6.80227 11.9394 7.10873C12.493 6.86356 12.739 7.10873 13.2926 6.74098C14.5843 5.88289 13.7232 4.47317 14.1537 3.30862C13.7232 3.4925 13.2311 3.67637 12.8005 3.86025C12.862 3.92154 12.9235 3.92154 12.9235 3.98283C12.8005 3.55379 12.6775 3.12475 12.616 2.6957C12.616 2.75699 12.5545 2.75699 12.5545 2.81829C11.9394 3.86025 13.5386 4.77963 14.1537 3.73767C14.1537 3.67637 14.2152 3.67637 14.2152 3.61508C14.4613 3.18604 14.2767 2.63441 13.9077 2.32795C13.8462 2.26666 13.7847 2.26666 13.7847 2.20536C13.2311 1.83761 12.616 2.26666 12.4315 2.75699C12.2469 3.18604 12.3699 3.30862 12.2469 3.73767C11.9394 5.08609 12.1854 4.84092 11.2628 5.14738C10.5862 5.33126 9.90956 5.08609 9.23296 5.57643C7.81824 6.74098 8.31031 9.683 8.8639 11.0927C8.98692 11.5218 9.29447 11.7669 9.72504 11.7669C11.0782 11.8282 12.3084 12.3186 12.1854 13.9734C12.4315 13.667 12.616 13.3605 12.862 13.1154C11.3243 13.4218 9.84806 13.7896 8.31031 14.096C7.94126 14.1573 7.63371 14.5864 7.63371 14.9541C7.69522 16.3638 7.75673 17.7736 7.81823 19.1833C7.87974 20.4704 8.49484 23.0447 7.14163 23.3511C5.91144 23.5963 6.2805 22.8608 6.15748 21.7575C6.09597 20.9607 6.03446 20.2252 6.03446 19.4284C5.97295 17.651 5.97295 15.9348 6.03446 14.1573C6.03446 13.667 5.60389 13.2379 5.11181 13.2379C3.94313 13.1766 2.83595 13.1766 1.66727 13.1154C1.97482 13.4218 2.28237 13.7283 2.58991 14.0347C2.65142 13.5444 2.28237 12.8089 2.34388 12.3799C1.79029 11.7056 2.09784 11.2766 3.20501 11.0927C3.88162 11.0314 4.61973 11.0314 5.29634 11.0927C5.78842 11.0927 6.21899 10.6637 6.21899 10.1733C6.15748 9.00879 6.09596 8.76362 5.97295 7.66036C5.35785 6.31193 5.6654 5.26997 6.9571 4.59576C7.38767 3.61508 8.12578 3.12475 9.10994 3.12475C10.7092 2.57312 12.0624 2.45053 13.6001 1.59244C13.1696 1.40857 12.6775 1.22469 12.2469 1.04082C12.3084 1.59244 12.4315 2.08278 12.493 2.63441C12.3699 3.92154 14.2152 3.92154 14.2767 2.75699Z" transform="translate(17.7588 10.4185)" fill="#DB786F"/>
<path d="M2.04002 24.9733C1.2404 18.9666 2.77814 12.1632 7.14532 7.75019C11.0819 3.7662 17.725 3.27586 23.0763 2.41777C26.9514 1.80485 30.0269 1.55968 33.533 3.70491C35.6858 5.05333 37.8386 6.52434 39.8069 8.11794C44.7277 12.1632 46.819 17.2505 46.5115 23.6248C46.2039 29.4476 42.5134 34.9026 38.5152 38.9479C34.2096 43.2996 28.3046 43.9738 22.3997 43.7286C16.5563 43.4835 10.7744 42.6867 7.08381 37.6607C4.4389 34.1058 3.14719 29.6315 2.04002 25.341C1.73247 24.1765 -0.0513068 24.6668 0.256241 25.8314C2.59361 34.5348 6.03815 43.2996 15.9412 45.0771C20.6774 45.9352 25.9673 46.119 30.7035 45.1997C35.7473 44.219 39.3149 41.3382 42.3288 37.3543C45.5273 33.1251 48.1107 29.1411 48.3568 23.6861C48.6028 18.8441 47.6187 14.0633 44.5432 10.2632C41.4677 6.52434 36.5469 2.78553 32.1182 0.885472C27.5665 -1.07588 21.7231 0.701596 17.1099 1.62098C11.574 2.72423 7.0223 4.13395 3.76229 9.03732C0.50228 13.8794 -0.543384 19.7634 0.256241 25.4636C0.44077 26.6282 2.22455 26.1378 2.04002 24.9733Z" transform="translate(1.14746 1.01221)" fill="#DB786F"/>
<path d="M8.35405 4.47185C5.21705 8.51713 1.52647 13.114 0.357791 18.2626C-0.749383 23.4111 0.911376 29.4177 2.63365 34.2598C6.1397 44.2504 15.4892 48.1731 25.6383 47.9279C35.3568 47.6828 45.5674 42.7181 48.5814 32.9114C51.5338 23.4724 49.258 12.0721 41.5693 5.51382C31.7277 -2.8832 19.4258 -0.370224 8.47706 4.34927C7.36989 4.8396 8.35404 6.4332 9.39971 5.94286C18.2571 2.08146 28.4062 -0.676684 37.2636 4.65573C45.2598 9.43651 48.1508 17.7109 47.6587 26.6596C47.1051 36.7115 40.0315 43.8827 30.19 45.5988C21.5171 47.1311 10.0148 45.415 5.64762 36.7728C3.43328 32.3597 1.64949 26.108 1.83402 21.1433C2.08006 15.3818 6.1397 10.172 9.58424 5.75898C10.3224 4.8396 9.03065 3.49118 8.35405 4.47185Z" transform="translate(78.3633 0.0615234)" fill="#DB786F"/>
<path d="M2.11011 25.5684C1.24897 19.5005 2.84822 12.881 7.03088 8.28405C10.8445 4.11619 17.18 3.56456 22.4698 2.70647C26.2834 2.09355 29.7894 1.35804 33.357 3.31939C35.8174 4.66781 38.2163 6.38399 40.3691 8.10017C45.4129 12.1454 47.6888 17.1714 47.5657 23.6684C47.4427 29.7976 43.8752 35.0687 39.8155 39.4204C35.6944 43.8335 30.097 44.9367 24.2536 44.8141C18.4717 44.6916 12.1977 44.3238 8.13805 39.7269C4.75502 35.9268 3.34031 30.717 2.0486 25.9362C1.74106 24.7716 -0.0427299 25.262 0.264818 26.4265C2.78671 35.8655 6.53881 44.6915 17.303 46.2238C22.1007 46.8981 27.3906 47.1432 32.1268 45.9787C36.9861 44.8141 40.3691 41.8721 43.3216 37.9494C46.5201 33.659 49.042 29.675 49.3495 24.22C49.5956 19.0715 48.4269 13.9842 44.9823 10.0002C41.8453 6.3227 36.8016 2.52259 32.3113 0.745121C27.5751 -1.09364 21.1166 0.928997 16.3804 1.90967C10.906 3.01293 6.66183 4.85169 3.58634 9.63247C0.449353 14.5358 -0.534807 20.2973 0.264818 25.9975C0.449347 27.2233 2.23313 26.733 2.11011 25.5684Z" transform="translate(79.0098 1.09131)" fill="#DB786F"/>
<path d="M0.336965 2.93134C1.13659 8.26375 1.38262 13.5962 1.01357 18.9286C0.890546 21.1964 0.459981 24.5062 3.04339 25.6707C4.58113 26.3449 6.91849 25.9159 8.45624 25.8546C10.8551 25.7933 13.254 25.7933 15.6529 25.732C18.3593 25.6707 21.3733 25.9772 24.0182 25.6094C24.8793 25.4868 25.4944 25.4255 25.9865 24.69C26.7861 23.5868 26.3555 21.6254 26.2325 20.3996C26.1095 17.764 25.925 15.1285 25.802 12.4929C25.6789 9.85735 25.5559 7.22179 25.3714 4.58623C25.3099 3.42168 25.3714 2.01196 24.5102 1.09258C23.4646 -0.0106773 21.8038 0.173199 20.4506 0.173199C17.8057 0.111907 15.1608 0.111907 12.5159 0.111907C8.51774 0.111907 4.15056 -0.562306 0.459983 1.39904C-0.585681 1.95067 0.336963 3.54426 1.38263 2.99263C4.45811 1.33775 8.45623 1.95067 11.9008 1.95067C13.5 1.95067 15.1608 1.95067 16.76 2.01196C18.6053 2.01196 21.0657 1.58292 22.4804 2.74747C24.4487 4.34106 23.7721 11.2058 23.8951 13.78C24.0182 15.6188 24.0797 17.4576 24.2027 19.235C24.2642 20.8899 25.0023 23.219 23.2185 23.7707C21.9268 24.1997 19.774 23.8319 18.4208 23.8319C16.637 23.8319 14.8532 23.8932 13.0079 23.8932C10.117 23.9545 2.98188 25.303 2.42829 21.4416C2.05923 18.5608 2.79735 15.3736 2.73584 12.4316C2.67433 9.06055 2.30527 5.68949 1.81319 2.31842C1.93621 1.27646 0.152436 1.82809 0.336965 2.93134Z" transform="translate(90.1328 11.2861)" fill="#DB786F"/>
<path d="M0.439107 0.874172C0.254578 1.85485 0.0700455 2.83552 0.0700455 3.81619C0.00853587 4.61299 -0.114482 5.71625 0.254576 6.45175C0.623634 7.12597 1.30024 7.24855 1.97685 7.12596C3.08402 6.94209 4.1912 6.57433 5.23686 6.26787C5.60592 6.14529 5.91346 5.77754 5.91346 5.40979C5.91346 4.5517 5.85196 3.69361 5.85196 2.83552C5.85196 2.16131 5.85196 1.4258 5.42139 0.812881C4.56026 -0.412961 3.08402 -0.0452095 1.91533 0.567711C0.869671 1.11934 1.79232 2.71293 2.83798 2.16131C3.08402 2.03872 3.63761 1.73226 3.88365 1.85485C4.00667 1.97743 3.94516 2.71293 4.00667 2.83552C4.00667 3.69361 4.06817 4.5517 4.06817 5.40979C4.31421 5.10333 4.49874 4.79686 4.74478 4.5517C4.12969 4.73557 3.5761 4.85816 2.96101 5.04203C2.71497 5.10333 1.73081 5.53237 1.54628 5.40979C1.6693 5.59366 1.85383 5.77754 1.97685 5.96141C1.73081 5.40979 1.85383 4.5517 1.91533 3.87748C1.97684 3.0194 2.09986 2.2226 2.22288 1.4258C2.46892 0.261252 0.685146 -0.290378 0.439107 0.874172Z" transform="translate(106.885 13.7109)" fill="#DB786F"/>
<path d="M2.82456 0.586891C0.856253 2.42565 -1.05055 5.36768 0.671724 8.00324C2.02494 10.0259 5.28495 10.9453 7.62232 10.271C10.0827 9.53554 11.2514 6.59352 10.6978 4.20313C10.0212 1.44498 7.43779 -0.271196 4.66985 0.0352641C3.50117 0.157848 3.50117 1.99661 4.66985 1.87403C6.45363 1.69015 8.1759 2.48695 8.791 4.26442C9.40609 6.10318 8.54496 8.49357 6.39212 8.67745C4.9774 8.80003 2.88608 8.2484 2.14796 6.96127C1.1023 5.12251 2.88608 3.16116 4.11627 1.99661C5.03891 1.07723 3.6857 -0.209906 2.82456 0.586891Z" transform="translate(98.1631 19.0854)" fill="#DB786F"/>
<path d="M1.14725 2.11517C1.82386 1.99259 2.50047 1.87 3.17707 1.74742C2.80802 1.56354 2.43896 1.31837 2.0699 1.1345C3.05405 6.65078 4.71482 11.5542 11.2348 11.0638C13.1416 10.9412 15.1099 10.3283 16.4632 8.91859C17.9394 7.325 17.4473 2.48292 19.7847 2.54421C19.4771 2.23775 19.1696 1.93129 18.862 1.62483C18.9235 3.09584 18.9851 4.62815 18.9235 6.09916C18.9235 7.14112 19.2926 9.6541 18.8005 10.5735C17.7549 12.4122 12.465 11.5542 10.7428 11.6154C9.14351 11.6767 7.54426 11.6767 6.00652 11.738C4.16123 11.7993 3.48463 12.4122 2.80802 10.0218C2.13142 7.38629 2.43896 4.13781 2.56198 1.44096C2.62349 0.276406 0.778198 0.276406 0.716688 1.44096C0.593669 4.56685 -0.0214275 9.28634 1.33178 12.2284C2.62349 14.9865 7.72879 13.5768 10.1277 13.5155C12.5265 13.4542 14.8639 13.3929 17.2628 13.3316C18.1854 13.3316 19.4771 13.5155 20.2152 12.78C21.0149 11.9832 20.7073 9.83797 20.7073 8.91859C20.8303 6.46691 20.7688 4.07652 20.7073 1.62483C20.7073 1.1345 20.2768 0.705451 19.7847 0.705451C18.5545 0.644159 17.2628 0.766745 16.5247 1.80871C15.6635 3.09584 16.4016 4.81202 15.9096 6.22174C15.0484 8.91859 10.5582 10.0831 8.03634 8.97988C4.83784 7.57017 4.40727 3.70876 3.85368 0.644159C3.79217 0.153823 3.17708 -0.0913456 2.74651 0.0312386C2.0699 0.153823 1.39329 0.276406 0.716688 0.39899C-0.513505 0.582866 -0.0214293 2.36034 1.14725 2.11517Z" transform="translate(93.1973 21.4189)" fill="#DB786F"/>
<path d="M21.8359 4.82204C22.8201 3.78007 23.8657 2.73811 24.8499 1.63485C23.6812 1.32839 22.328 2.18648 21.2208 1.75743C20.8518 1.57356 20.5442 1.2671 20.2367 1.02193C18.945 -0.0200383 17.0997 -0.265206 15.5619 0.286423C14.0242 0.838052 12.794 2.30906 12.4864 3.90266C12.3019 4.69945 12.2404 5.80271 11.3793 5.98659C11.0717 6.04788 10.7027 5.98659 10.3951 5.864C7.13511 4.69945 4.05964 3.10586 1.23019 1.08322C0.738116 3.16715 1.47623 5.43496 3.01397 6.90597C2.33736 6.84468 1.59925 6.78338 0.922645 6.78338C1.41472 8.86731 2.76794 10.7061 4.67474 11.748C4.12115 11.9319 3.50605 11.8093 3.07548 11.3803C2.82944 12.4223 3.69057 13.4029 4.55171 13.9546C5.41284 14.5062 6.52003 14.8739 7.19664 15.6707C5.16682 17.0805 2.46039 17.203 0 17.2643C3.50605 19.5934 8.18077 20.1451 12.1789 18.674C17.7148 16.5901 21.3439 10.8287 21.9589 5.00591C21.8974 5.18979 21.8359 5.31237 21.7744 5.49625" transform="translate(169.448 14.1763)" fill="#DB786F"/>
<path d="M23.2937 6.41465C24.2779 5.37269 25.3235 4.33072 26.3077 3.22747C26.8613 2.61454 26.4307 1.69516 25.6311 1.63387C24.1548 1.57258 22.9862 1.81775 21.5714 1.20483C20.7718 0.898365 20.2797 0.408029 19.4186 0.162861C17.6348 -0.266184 15.7895 0.162861 14.3748 1.32741C13.7597 1.81775 13.2676 2.49196 12.8986 3.22747C12.468 4.08555 12.5295 5.55656 11.4839 5.92432C10.5612 6.23078 7.8548 4.45331 6.93215 3.96297C5.39441 3.16617 3.91817 2.24679 2.50345 1.26612C2.07288 0.959657 1.21174 1.26612 1.15023 1.81775C0.781173 4.39201 1.39628 6.53724 3.18006 8.49858C3.4261 7.94696 3.61063 7.45662 3.85667 6.90499C3.18006 6.8437 2.44193 6.78241 1.76533 6.78241C1.15023 6.72111 0.719667 7.39533 0.904196 7.94696C1.5808 10.3373 2.93403 12.1148 5.08686 13.4632C5.27139 12.9116 5.3944 12.2987 5.57893 11.7471C5.20988 11.6858 4.84082 11.6245 4.47177 11.5019C3.85667 11.1954 3.05703 11.5632 3.05703 12.2987C3.11854 15.1794 5.64045 15.6085 7.48574 17.2634C7.54725 16.773 7.60875 16.2827 7.67026 15.7923C5.57893 17.0795 3.30307 17.2021 0.904196 17.2634C-0.0184483 17.2634 -0.325989 18.4892 0.412127 18.9795C11.1148 25.5378 22.248 17.1408 23.7243 5.92432C23.8473 4.82106 22.248 4.82106 21.9405 5.67915C21.879 5.86303 21.8175 5.98561 21.756 6.16949C21.3254 7.27274 23.1092 7.76308 23.5398 6.65982C23.6013 6.47595 23.6628 6.35336 23.7243 6.16949C23.1092 6.10819 22.4941 5.98561 21.9405 5.92432C20.6488 15.8536 10.8688 23.2087 1.39628 17.4472C1.21176 17.9989 1.08873 18.6118 0.904196 19.1634C3.61062 19.1021 6.19403 18.8569 8.5929 17.4472C9.08498 17.1408 9.20801 16.4053 8.77744 15.9762C7.54725 14.873 4.90232 14.1375 4.90232 12.2987C4.41025 12.5439 3.97969 12.8503 3.48761 13.0955C4.41025 13.5858 4.47176 13.6471 5.51742 13.5858C6.44006 13.5245 6.80913 12.36 6.00951 11.8696C4.22573 10.7664 3.24156 9.47926 2.68797 7.45662C2.38042 7.82437 2.07288 8.25342 1.82684 8.62117C2.50345 8.68246 3.24156 8.74375 3.91816 8.74375C4.7793 8.80505 5.08685 7.70179 4.59477 7.15016C3.30307 5.74044 2.74949 4.20814 3.05703 2.24679C2.62647 2.43067 2.1344 2.61454 1.70383 2.79842C3.61063 4.14685 11.1763 9.72443 13.5137 7.21145C14.0057 6.72111 14.0058 6.0469 14.1903 5.43398C14.9284 3.16617 16.7737 1.20483 19.4186 2.12421C20.2797 2.43067 20.9563 3.35005 21.879 3.59522C23.1707 4.02426 24.4624 3.47263 25.7541 3.53393C25.508 2.9823 25.3235 2.49196 25.0775 1.94033C24.0933 2.9823 23.0477 4.02426 22.0635 5.12752C21.1409 5.92432 22.4941 7.27274 23.2937 6.41465Z" transform="translate(168.79 13.748)" fill="#DB786F"/>
<path d="M8.35405 4.47185C5.21706 8.51713 1.52648 13.114 0.357795 18.2626C-0.749379 23.4111 0.91137 29.4177 2.63364 34.2598C6.13969 44.2504 15.4892 48.1731 25.6383 47.9279C35.3568 47.6828 45.5674 42.7181 48.5814 32.9114C51.5338 23.4724 49.258 12.0721 41.5693 5.51382C31.7277 -2.8832 19.4258 -0.370224 8.47706 4.34927C7.36988 4.8396 8.35404 6.4332 9.3997 5.94286C18.2571 2.08146 28.4062 -0.676684 37.2636 4.65573C45.2598 9.43651 48.1508 17.7109 47.6587 26.6596C47.1051 36.7115 40.0315 43.8827 30.19 45.5988C21.5171 47.1311 10.0148 45.415 5.64763 36.7728C3.43328 32.3597 1.64949 26.108 1.83402 21.1433C2.08006 15.3818 6.1397 10.172 9.58424 5.75898C10.3839 4.8396 9.09217 3.49118 8.35405 4.47185Z" transform="translate(156.85 0.0615234)" fill="#DB786F"/>
<path d="M2.0486 25.5684C1.18746 19.5005 2.78671 12.8197 6.96937 8.22275C10.783 4.05489 17.18 3.50326 22.4698 2.64518C26.2834 2.03225 29.7894 1.29675 33.4185 3.2581C35.8789 4.60652 38.2778 6.3227 40.4306 8.10017C45.4744 12.1454 47.8118 17.2327 47.6272 23.7297C47.5042 29.8589 43.9367 35.13 39.877 39.543C35.7559 44.0173 30.1585 45.0593 24.2536 44.9367C18.4717 44.8141 12.1977 44.4464 8.13805 39.7882C4.75502 35.9268 3.3403 30.7782 2.0486 25.9362C1.74105 24.7716 -0.0427261 25.262 0.264822 26.4265C2.78672 35.8655 6.5388 44.7528 17.3645 46.2851C22.2238 46.9594 27.4521 47.2045 32.2498 46.04C37.1091 44.8754 40.5536 41.9334 43.4446 38.0107C46.6431 33.7203 49.2265 29.7363 49.4725 24.2813C49.7186 19.0715 48.5499 14.0455 45.1053 10.0002C41.9684 6.3227 36.9246 2.52259 32.3729 0.745121C27.6366 -1.09364 21.1781 0.928997 16.3804 1.90967C10.906 3.01293 6.66182 4.85169 3.58634 9.69377C0.449347 14.5971 -0.534803 20.3586 0.264822 26.12C0.449351 27.2233 2.23313 26.733 2.0486 25.5684Z" transform="translate(157.496 1.09131)" fill="#DB786F"/>
</svg>
