<svg width="17" height="16" viewBox="0 0 17 16" fill="none" xmlns="http://www.w3.org/2000/svg">
<path d="M0.341163 2.07009C4.83459 6.76271 9.59665 11.1665 14.6518 15.2816C15.8484 16.2683 17.5823 14.5597 16.3856 13.573C11.3305 9.48201 6.54405 5.05411 2.07504 0.3615C0.976104 -0.745475 -0.733353 0.939052 0.341163 2.07009Z" transform="translate(0.211426 0.359009)" fill="black"/>
<path d="M2.13973 15.7128C4.60623 13.7876 6.51105 11.0924 8.68451 8.87844C11.0289 6.49603 13.4466 4.20989 15.9619 2.02C17.1341 0.985219 15.4002 -0.699308 14.228 0.311408C11.7127 2.50129 9.29503 4.78744 6.97505 7.16984C4.8016 9.40786 2.87235 12.079 0.430274 14.0042C-0.815187 14.9909 0.91869 16.6754 2.13973 15.7128Z" fill="black"/>
</svg>
