<svg width="246" height="131" viewBox="0 0 246 131" fill="none" xmlns="http://www.w3.org/2000/svg">
<path d="M29.5394 39.4339C29.7598 39.8775 29.9802 40.3949 30.2007 40.8385C31.009 42.3908 31.7438 43.9432 32.4786 45.5695C33.5808 48.1569 34.83 50.6702 36.0792 53.2576C36.7405 54.6621 37.4018 56.1406 38.0631 57.5451C38.2101 57.8408 38.3571 58.0626 38.504 58.3583C38.798 58.8757 39.0184 59.4671 39.3858 59.9846C39.6063 60.3542 39.9002 60.6499 40.1941 60.9456C40.0471 61.537 39.6063 61.6848 39.0919 61.7587C38.1366 61.8326 37.1814 61.8326 36.2261 61.9066C34.3156 62.1283 32.3316 62.1283 30.3476 62.2023C29.2454 62.2762 28.2167 62.3501 27.1145 62.424C26.2327 62.498 25.6449 62.1283 25.2775 61.3152C24.8366 60.4281 24.2487 59.6149 23.8078 58.7279C23.6609 58.4322 23.5139 58.2104 23.4404 57.9147C22.9995 56.2145 22.1913 54.6621 21.4564 53.1097C21.0156 52.0748 20.5012 51.0399 19.9868 50.0789C19.7664 49.6353 19.6929 49.1918 19.4725 48.7482C19.252 48.0829 18.9581 47.3437 18.3703 46.8262C17.9294 46.8262 17.4885 46.6784 16.9741 46.9002C15.8719 47.4176 14.6227 47.6394 13.8144 48.6743C13.594 50.0789 13.7409 51.4834 13.7409 52.9619C13.7409 54.5142 13.7409 56.1406 13.6675 57.693C13.594 58.654 13.447 59.6149 13.3001 60.576C13.1531 61.2413 13.447 64.42 13.0061 64.2721C11.9774 63.9025 10.9487 63.9025 9.99341 63.6807C8.30335 63.385 6.61329 63.385 4.92323 63.385C4.11494 63.385 3.38013 63.1633 2.57184 63.2372C1.83703 63.3111 1.32266 62.8676 1.17569 62.1283C1.02873 61.2413 0.808289 60.2803 0.808289 59.3932C0.808289 56.8798 0.955253 54.4403 1.02873 51.9269C1.1757 48.6743 1.32266 45.3478 1.39614 42.0951C1.39614 41.0602 1.32266 40.0992 1.24918 39.0643C1.24918 38.6208 1.17569 38.1033 1.17569 37.6598C1.17569 35.2942 1.1757 32.8548 1.24918 30.4892C1.24918 30.4153 1.24918 30.3414 1.24918 30.1935C1.61658 27.6801 1.10221 25.1667 0.955248 22.6534C0.881767 21.101 0.734808 19.5486 0.440884 17.9962C0.220441 16.7395 0.220445 15.4089 0.146964 14.0783C0.0734832 12.9694 0.14696 11.7866 0.0734787 10.6778C0.0734787 10.0125 4.48492e-06 9.34718 4.48492e-06 8.75579C4.48492e-06 8.31225 4.48492e-06 7.79479 4.48492e-06 7.35125C0.0734855 6.2424 0.146964 5.20748 0.146964 4.09863C0.146964 3.58117 0.367409 3.28547 0.734814 2.98978C0.734814 2.54624 0.734814 2.10271 0.734814 1.65917C0.734814 0.846012 1.24917 0.476394 1.9105 0.328548C3.15968 0.0328548 4.40886 -0.114994 5.65804 0.106776C5.87848 0.180699 6.1724 0.180703 6.39285 0.180703C7.71551 -0.114989 9.11164 0.106777 10.4343 0.0328536C11.1691 0.0328536 11.9039 0.180703 12.4918 0.919935C12.7857 2.10271 12.5653 3.3594 12.4918 4.6161C12.3448 5.72494 12.3448 6.75986 12.4183 7.86871C12.4918 8.90364 12.5653 9.86464 12.6387 10.8996C12.6387 11.417 12.6387 11.9345 12.6387 12.452C12.6387 12.7476 12.5653 13.0433 12.6387 13.339C13.0061 15.5567 12.7857 17.7744 12.8592 19.9921C12.9327 21.7663 12.9327 23.4665 12.9327 25.2407C12.8592 27.6062 12.7122 29.9718 12.6387 32.3373C12.6387 33.0026 12.5652 33.7418 12.5652 34.4071C12.5652 34.6289 12.6387 34.8507 12.7122 35.0724C13.0061 35.0724 13.3001 35.0724 13.5205 34.9985C15.1371 34.555 16.7537 34.0375 18.2233 33.1504C19.6194 32.4112 20.9421 31.5981 22.3382 30.8588C22.4852 30.7849 22.6321 30.6371 22.7791 30.5631C23.073 29.3064 22.9995 28.0497 23.073 26.7931C23.1465 24.5014 23.1465 22.2837 23.1465 19.9921C23.1465 19.8443 23.1465 19.6964 23.1465 19.6225C23.22 19.105 23.4404 18.8093 23.9548 18.7354C25.1305 18.5137 26.2327 18.3658 27.4084 18.218C28.2902 18.0701 29.0985 17.9962 29.9802 18.0701C30.6416 18.144 31.3764 18.0701 32.0377 18.0701C32.3316 18.0701 32.6256 18.0701 32.9195 18.144C33.9482 18.3658 34.6096 19.0311 34.5361 20.14C34.4626 21.3227 34.683 22.5794 34.3891 23.7622C34.2421 24.3536 34.5361 24.945 34.5361 25.6103C34.5361 26.9409 34.683 28.1976 34.9035 29.5282C35.1239 30.9327 35.1974 32.4112 35.2709 33.8158C35.2709 34.1115 35.1974 34.3332 34.9769 34.4811C33.6543 35.2942 32.699 36.477 31.5233 37.5119C31.4499 37.5858 31.3029 37.6598 31.2294 37.7337C30.862 38.1772 30.1272 38.6947 29.5394 39.4339Z" transform="translate(132.413 48.3949)" fill="#2E555B"/>
<path d="M24.91 16.8058C25.1305 15.7709 25.4244 14.736 25.1305 13.7011C24.9101 12.8879 24.3957 12.4444 23.6609 12.1487C23.5139 12.0747 23.2935 12.0747 23.1465 12.0008C20.6482 10.892 18.1498 11.1877 15.7249 12.3704C14.6962 12.8879 13.5205 13.2575 12.4918 13.775C11.757 14.1446 11.0956 14.8099 10.4343 15.3274C9.99342 15.697 9.55252 16.0666 9.18512 16.4362C8.8912 16.7319 8.5238 16.7319 8.22987 16.5841C7.64203 16.2884 7.12766 15.9187 6.53981 15.6231C5.95196 15.2534 5.36411 14.8838 4.77626 14.5142C3.23316 13.6271 1.69007 12.8879 0.514371 11.5573C4.5112e-06 11.0398 -0.0734832 10.5224 0.220441 9.93097C0.514365 9.33959 0.881776 8.7482 1.24918 8.15681C1.61659 7.63935 1.9105 7.04797 2.42487 6.60443C3.67405 5.5695 4.70278 4.31281 6.09892 3.49966C7.20113 2.90827 8.22987 2.31688 9.33209 1.87334C10.2139 1.50373 11.0222 1.20804 11.9774 1.28196C12.1979 1.28196 12.4918 1.13411 12.7122 1.06019C13.8144 0.690572 14.8432 0.247033 16.0189 0.320956C16.0923 0.320956 16.1658 0.320956 16.2393 0.320956C18.9581 -0.344353 21.6769 0.173112 24.3957 0.542728C25.1305 0.616651 25.8653 0.83842 26.6001 0.986266C27.9228 1.13411 29.172 1.50373 30.3477 2.09511C31.0825 2.46473 31.8907 2.76042 32.6255 3.05611C34.2421 3.79534 35.7118 4.90419 36.8875 6.23481C38.504 8.15681 39.6062 10.3006 39.6797 12.814C39.7532 14.4403 39.8267 16.1405 39.9736 17.7668C40.1206 19.7628 39.9737 21.6848 39.7532 23.6068C39.6797 24.5678 39.4593 25.6027 39.3123 26.5637C39.1654 27.8943 39.0184 29.2249 38.8714 30.6295C38.8714 30.9991 38.8714 31.2948 38.9449 31.5905C39.7532 32.4036 40.7085 32.8472 41.6637 33.1428C42.2516 33.3646 42.619 33.7342 42.7659 34.3256C42.8394 34.7692 42.9129 35.2866 42.9864 35.7302C42.9864 35.8041 42.9864 35.8041 42.9864 35.878C43.1333 37.2086 43.0598 38.5392 42.9129 39.9438C42.8394 41.2005 42.8394 42.4572 42.8394 43.7139C42.8394 44.3053 42.619 44.6749 42.0311 44.8966C41.2228 45.2663 40.3411 45.3402 39.4593 45.3402C38.9449 45.3402 38.4306 45.2663 37.9162 45.2663C36.7405 45.3402 35.5648 45.0445 34.4626 44.7488C34.0217 44.6009 33.5808 44.3792 33.2134 44.0835C32.6256 43.566 32.0377 42.9007 31.5233 42.3093C31.0824 41.7919 30.6416 41.3483 29.9802 41.0526C28.878 41.7179 27.7023 42.4572 26.6001 43.1225C25.5714 43.7878 24.4692 44.1574 23.367 44.4531C21.3095 44.9706 19.252 45.488 17.1211 45.5619C15.6515 45.6359 14.1818 45.5619 12.7122 45.1923C11.6835 44.9706 10.6547 44.8966 9.62601 44.6009C8.45031 44.3052 7.27462 43.9356 6.17241 43.566C5.21715 43.2703 4.33538 42.8268 3.38013 42.4572C2.42487 42.0136 1.69006 41.4223 0.955251 40.683C0.440884 40.1656 0.220441 39.5742 0.220441 38.9089C0.14696 36.6172 -4.48492e-06 34.2517 -4.48492e-06 31.9601C-4.48492e-06 30.4077 2.2337e-06 28.8553 0.293926 27.3029C0.514369 26.3419 0.514371 25.307 0.881776 24.346C1.1757 23.5328 1.61658 22.7936 2.42487 22.3501C3.23316 21.8326 3.96797 21.1673 4.84974 20.8716C5.36411 20.6498 5.87848 20.4281 6.46632 20.2802C8.45031 19.7628 10.5078 19.2453 12.4918 18.7278C14.9166 18.2104 17.268 17.3972 19.7664 17.3233C19.8399 17.3233 19.9134 17.3233 20.0603 17.3233C21.6769 16.9537 23.2935 16.8058 24.91 16.8058ZM12.3448 29.5206C12.1244 30.112 11.9774 30.7034 12.1244 31.2948C12.2713 31.9601 12.3448 32.6993 12.3448 33.3646C12.3448 34.3995 12.8592 35.0649 13.8144 35.4345C15.0636 35.878 16.3128 36.1737 17.4885 36.6172C18.8111 37.1347 19.9133 36.839 20.8686 35.7302C21.236 35.3605 21.6769 35.1388 22.1913 34.917C22.9996 34.5474 23.7344 34.1039 24.3957 33.5864C25.057 33.0689 25.4244 32.3297 25.4244 31.4426C25.4244 30.9252 25.4979 30.4077 25.4979 29.8902C25.4979 28.9292 25.3509 27.8943 25.057 26.9333C24.1752 26.8594 23.4404 26.9333 22.7056 27.3029C22.4117 27.4508 22.1178 27.5986 21.8239 27.5986C20.5012 27.8943 19.1785 28.1161 17.8559 28.4118C16.7537 28.6335 15.7249 28.7075 14.6227 28.9292C13.8879 29.0771 13.0796 29.2988 12.3448 29.5206Z" transform="translate(177.457 65.7745)" fill="#2E555B"/>
<path d="M43.7947 44.7302C43.2803 45.2477 42.7659 45.3955 42.1781 45.3955C39.6797 45.3216 37.1814 44.952 34.83 43.991C33.5808 43.4735 32.4786 42.6603 31.4499 41.8472C31.2294 41.6993 31.0825 41.5515 30.862 41.4037C29.8333 41.7733 28.9515 42.2907 28.1432 42.8821C26.6001 43.917 24.9101 44.7302 23.073 45.2477C22.6321 45.3955 22.1178 45.3955 21.6769 45.4694C20.5012 45.6173 19.3255 45.839 18.2233 45.839C16.9006 45.839 15.5045 45.7651 14.1818 45.6173C12.4183 45.3955 10.8017 44.6563 9.11164 43.991C6.76025 43.03 4.84974 41.5515 2.93924 40.073C2.79228 39.9252 2.57183 39.7773 2.42487 39.6295C1.46962 38.8163 0.955253 37.8553 0.881772 36.5986C0.881772 35.7116 0.587848 34.8984 0.808291 34.0113C0.881772 33.7896 0.73481 33.5678 0.661329 33.346C0.661329 32.7546 0.514367 32.1633 0.661329 31.6458C0.955253 30.2413 0.881772 28.8367 0.955253 27.5061C1.02873 26.3233 0.955253 25.0666 1.24918 23.8839C1.32266 23.6621 1.39614 23.3664 1.46962 23.1446C1.61658 22.5532 1.98399 22.1836 2.49835 21.8879C4.04145 21.0748 5.73152 20.6312 7.42158 20.2616C9.91993 19.7442 12.3448 19.3006 14.8432 18.8571C16.2393 18.5614 17.6354 18.1918 19.0316 17.8961C19.399 17.8222 19.7664 17.6743 20.1338 17.6004C21.4564 17.2308 22.7056 16.9351 24.1018 17.0829C24.3222 17.0829 24.6161 17.009 24.9835 17.009C24.3957 16.1958 24.3957 15.3088 24.2487 14.4956C24.1752 13.6825 24.0283 12.9432 23.8813 12.1301C23.7344 11.243 23.2935 10.7255 22.4117 10.5777C21.3095 10.3559 20.2808 10.3559 19.1785 10.5777C18.8846 10.6516 18.5907 10.7255 18.2968 10.7255C16.3863 10.7995 14.6227 11.4648 13.0061 12.4258C11.9774 13.0171 10.8752 13.6085 10.1404 14.6435C9.40557 14.5695 8.74424 14.1999 8.22987 13.9042C7.3481 13.3868 6.46633 13.0171 5.51107 12.5736C4.92323 12.2779 4.48234 12.2779 3.89449 12.4997C3.60057 12.2779 3.30664 12.1301 3.01272 11.9083C2.57183 11.6126 2.13095 11.3169 1.69006 11.0951C1.02873 10.7995 0.367405 10.4298 -1.09496e-09 9.76453C-1.09496e-09 9.39491 0.587848 9.32099 0.514367 8.87745C0.440886 8.50783 0.808291 8.35999 0.955253 8.13822C1.1757 7.84253 1.32266 7.54683 1.46962 7.25114C1.83702 6.8076 1.98399 6.43798 2.27791 6.21621C3.23316 5.32913 4.18842 4.44206 5.21715 3.70283C6.24588 2.9636 7.27462 2.15044 8.59727 1.85475C8.81772 1.78082 9.03816 1.7069 9.18512 1.63298C10.6547 0.819821 12.2713 0.598052 13.9614 0.450206C15.284 0.376283 16.5332 0.30236 17.8559 0.08059C18.8111 -0.0672564 19.7664 0.00666565 20.7216 0.154512C21.8973 0.302358 22.9995 0.598052 24.1752 0.819822C25.6449 1.11551 27.041 1.4112 28.5106 1.78082C31.009 2.44613 32.9195 3.92459 34.683 5.69875C35.7118 6.8076 36.4466 8.06429 37.1814 9.39491C37.7692 10.3559 38.0631 11.4648 38.2101 12.6475C38.7245 15.9741 39.2388 19.3006 39.6797 22.6272C39.8267 23.9578 39.9002 25.2145 39.9737 26.5451C40.0471 27.9496 40.1941 29.3542 40.2676 30.7587C40.2676 30.9805 40.4145 31.2762 40.488 31.4979C40.5615 31.8676 40.8554 32.0893 41.2228 32.0893C41.5168 32.0893 41.7372 32.1633 42.0311 32.1633C42.325 32.2372 42.619 32.2372 42.9129 32.3111C43.5742 32.4589 43.8681 32.9025 43.8681 33.5678C43.8681 34.0853 43.9416 34.6027 43.7947 35.1202C43.4273 36.7465 43.6477 38.2989 43.6477 39.9252C43.6477 39.9991 43.6477 39.9991 43.6477 40.073C43.5742 41.6254 43.7947 43.1778 43.7947 44.7302ZM13.2266 33.4939C14.5492 33.7896 15.7249 34.0853 16.9741 34.307C17.1211 34.3809 17.3415 34.381 17.4885 34.381C18.8111 34.381 20.0603 34.7506 21.383 34.5288C22.4117 34.8245 23.22 34.1592 24.1018 33.9374C24.3222 33.8635 24.5426 33.6417 24.6896 33.4939C25.204 32.9764 25.6449 32.385 25.8653 31.6458C26.3062 30.2413 26.6001 28.8367 26.4532 27.4322C26.4532 27.1365 26.3062 26.8408 26.2327 26.5451C25.8653 26.5451 25.6449 26.4712 25.3509 26.4712C23.4404 26.3972 21.6034 26.9886 19.6929 27.1365C19.399 27.1365 19.1785 27.2104 18.9581 27.2843C16.9006 27.8757 14.7697 28.1714 12.5652 28.6149C12.6387 30.2413 13.0061 31.7936 13.2266 33.4939Z" transform="translate(0 65.5714)" fill="#2E555B"/>
<path d="M42.6579 28.0562C42.07 28.278 41.5557 28.4998 41.4822 29.0911C40.233 29.6086 38.9104 29.3868 37.7347 29.239C35.9711 28.9433 34.2076 29.0172 32.444 28.8694C31.7827 28.7954 31.0479 28.7215 30.3866 28.6476C30.2396 28.6476 30.0192 28.6476 29.8722 28.6476C28.5496 28.7215 27.1534 28.7215 25.8308 28.7954C24.802 28.8694 23.7733 28.9433 22.7446 29.0172C20.981 29.1651 19.2909 29.3129 17.5274 29.3868C16.7926 29.4608 16.0578 29.3868 15.2495 29.3868C15.2495 29.5347 15.2495 29.7564 15.323 29.8304C15.6904 30.4957 16.1313 31.0871 16.4987 31.6785C17.0865 32.6395 17.9683 33.2308 18.9235 33.8222C20.2462 34.6354 21.6423 34.8571 23.1854 34.7832C24.949 34.7832 26.7125 34.7093 28.5496 34.4875C28.77 34.4875 28.9904 34.4875 29.2109 34.4136C30.754 33.8222 32.3706 33.4526 33.8402 32.5655C34.6485 32.122 35.0894 32.122 35.8242 32.7134C36.1181 32.9351 36.2651 33.2308 36.559 33.4526C37.4408 34.4875 38.249 35.6703 39.3513 36.5574C39.7921 36.927 40.0861 37.5184 40.38 38.0358C40.6739 38.5533 40.8944 39.1447 41.4822 39.4404C41.6292 39.5143 41.7027 39.6622 41.8496 39.81C42.1435 40.2535 42.0701 40.6232 41.7027 40.9928C41.1148 41.5102 40.4535 41.9538 39.7187 42.1755C36.7059 43.1365 33.6197 44.0236 30.5335 44.615C29.5048 44.8368 28.4026 44.9107 27.3004 45.0585C25.9777 45.2803 24.7285 44.9846 23.4059 44.8368C22.3037 44.6889 21.2749 44.4672 20.2462 44.1715C19.3644 43.9497 18.4092 43.5801 17.5274 43.2105C16.3517 42.7669 15.2495 42.2495 14.0738 41.732C11.4285 40.5492 9.22405 38.7012 7.16659 36.7052C5.32956 34.9311 4.00691 32.7873 2.61077 30.6435C2.24336 30.0521 2.02292 29.3129 1.65551 28.6476C0.920703 27.0952 0.479818 25.3211 0.112413 23.6208C-0.10803 22.6598 0.0389307 21.6249 0.185893 20.6639C0.553298 18.0027 1.65551 15.5632 3.05165 13.2716C4.44779 10.8321 6.43178 8.83618 8.34228 6.76633C9.66494 5.28787 11.355 4.32687 13.1185 3.51371C13.8534 3.1441 14.5882 2.77448 15.323 2.40487C17.013 1.44386 18.8501 0.852479 20.834 0.482863C22.7446 0.18717 24.5816 -0.108521 26.4921 0.0393251C29.9457 0.335018 33.2523 0.926406 36.412 2.47879C37.8082 3.1441 39.2043 3.88333 40.6004 4.54864C41.7761 5.14002 42.2905 6.02711 42.4375 7.2838C42.8783 10.3147 42.7314 13.2716 42.7314 16.3024C42.7314 16.8938 42.7314 17.4113 42.7314 18.0027C42.7314 18.4462 42.8049 18.8897 42.6579 19.3333C42.2905 21.1814 42.5109 22.9555 42.4375 24.8036C42.364 25.9864 42.5109 26.9474 42.6579 28.0562ZM29.0639 11.867C28.4761 11.7931 28.1087 11.7192 27.6678 11.7192C26.639 11.7192 25.6838 11.7192 24.6551 11.7192C23.0385 11.7192 21.6423 12.3845 20.3932 13.4194C19.5849 14.1587 18.6296 14.824 17.7479 15.5632C17.0865 16.0807 16.4987 16.672 15.9108 17.1895C15.5434 17.5591 15.176 17.9287 14.8086 18.2984C14.6616 18.4462 14.5147 18.594 14.6617 18.8897C15.1025 18.8897 15.5434 18.8897 16.0578 18.9637C17.3804 18.9637 18.7766 19.0376 20.0992 19.0376C22.818 19.1854 25.5368 19.4811 28.2556 19.1854C28.6965 19.1115 29.2109 19.2594 29.6518 18.8897C29.8722 18.2244 29.7987 17.4852 29.7253 16.8199C29.4313 15.3414 29.0639 13.7151 29.0639 11.867Z" transform="translate(80.7902 65.6865)" fill="#2E555B"/>
<path d="M13.2266 44.0172C12.8592 44.165 12.5653 44.3129 12.1978 44.3129C10.5078 44.4607 8.81772 44.5346 7.12766 44.6085C6.39285 44.6085 5.65804 44.5346 4.92323 44.4607C4.18842 44.3868 3.45361 44.2389 2.7188 44.3129C1.32266 44.4607 0.220444 43.3519 0.146963 41.7995C1.11685e-06 39.8775 0.0734832 37.9555 0.0734832 36.0335C0.0734832 34.1115 0.146963 32.1894 0.146963 30.2674C0.146963 29.75 0.146963 29.2325 0.146963 28.7151C0.293925 25.7581 0.146963 22.8751 0.146963 19.9182C0.146963 16.5177 0.220444 13.1173 0.146963 9.71679C0.146963 7.94264 -2.24246e-06 6.16848 -2.24246e-06 4.3204C-2.24246e-06 3.21155 0.0734832 2.17663 0.0734832 1.06778C1.02874 0.550317 1.98399 0.254625 3.01272 0.254625C4.33538 0.254625 5.73152 0.254627 7.05418 0.180703C7.56854 0.180703 8.08291 0.180699 8.59728 0.106776C9.55253 -0.114994 10.5078 0.0328548 11.463 0.328548C11.8304 0.402471 12.1978 0.624238 12.4918 0.846008C12.7857 0.993854 12.9327 1.28955 12.9327 1.58524C13.0061 2.17663 13.2266 2.76801 13.5205 3.3594C14.8432 2.32447 16.3128 1.73309 17.7089 1.06778C18.9581 0.550317 20.4277 0.402473 21.8239 0.550319C23.1465 0.698166 24.4692 0.919932 25.7918 1.1417C26.1592 1.21562 26.4532 1.28955 26.7471 1.4374C27.041 1.58524 27.188 1.80701 27.2614 2.17663C27.3349 2.76801 27.4819 3.28548 27.5554 3.87686C27.8493 6.02064 28.0697 8.09048 28.2902 10.2343C28.2902 10.3082 28.2902 10.3082 28.2902 10.3821C28.3637 11.6388 28.0697 11.9345 26.8206 11.8606C26.6736 11.8606 26.4532 11.7866 26.3062 11.8606C24.1752 12.1563 22.0443 12.0823 19.9868 12.7476C19.252 12.9694 18.5172 13.0433 17.8559 13.1912C16.9741 13.339 16.2393 13.7086 15.431 14.1522C14.3288 14.8175 13.7409 15.7046 13.3735 16.8873C12.7122 18.8833 12.5652 20.8792 12.2713 22.949C12.2713 23.023 12.1978 23.0969 12.1978 23.1708C12.4918 25.0928 12.1978 27.0148 12.1978 28.9368C12.1978 29.8978 12.1244 30.8588 12.1244 31.8198C12.1244 34.9985 12.1978 38.1772 12.2713 41.3559C12.2713 42.0212 12.2713 42.7605 12.8592 43.2779C13.0796 43.4997 13.0796 43.7215 13.2266 44.0172Z" transform="translate(51.2898 65.7669)" fill="#2E555B"/>
<path d="M7.77914 54.8591C7.19129 54.7852 6.60344 54.7852 6.08908 54.8591C5.79515 54.9331 5.50123 54.9331 5.2073 54.7852C4.47249 54.4895 3.81116 53.9721 3.22332 53.3807C2.92939 53.085 2.92939 52.7154 3.07635 52.4197C3.37028 51.9022 3.2968 51.3108 3.2968 50.7194C3.22332 49.0931 3.22332 47.3929 3.44376 45.7666C3.73768 44.0663 3.51724 42.2922 3.44376 40.518C3.44376 40.2963 3.37028 40.0745 3.37028 39.8527C3.2968 37.4872 3.2968 35.1216 3.22332 32.83C3.22332 32.5343 3.22332 32.2386 3.14984 31.9429C2.70895 29.2078 2.26806 26.5465 2.04762 23.7375C1.90066 22.0372 1.60674 20.337 1.38629 18.7107C1.31281 17.8975 1.23933 17.1583 1.16585 16.3451C1.09237 15.2363 0.945406 14.2014 0.871925 13.0925C0.798444 12.2794 0.724964 11.4662 0.651483 10.6531C0.651483 10.3574 0.578001 10.0617 0.357559 9.8399C-0.230289 9.10067 -0.0833274 8.50929 0.724963 7.99182C1.53325 7.47436 2.41503 6.9569 3.2968 6.58728C4.47249 6.06982 5.72167 5.62628 6.89737 5.18274C7.26477 5.0349 7.70566 4.81313 8.07306 4.59136C8.44047 4.44351 8.88135 4.22174 9.24876 4.0739C9.39572 3.99997 9.61616 3.99997 9.76312 3.92605C11.2327 2.96505 12.9963 2.66935 14.6129 2.15189C15.9355 1.70835 17.3317 1.26481 18.6543 0.821275C20.7118 0.0820432 22.8427 -0.139726 25.0472 0.0820432C25.4146 0.155966 25.8555 0.155966 26.2229 0.0820432C26.8842 -0.0658032 27.3986 0.155966 27.9129 0.525582C29.75 1.78228 31.587 2.96505 33.424 4.22174C34.0118 4.66528 34.6732 5.0349 35.261 5.40451C36.8776 6.58728 38.5677 7.69613 40.1108 8.8789C41.7273 10.1356 43.4909 11.0966 45.181 12.2794C45.9158 12.7968 46.7241 13.2404 47.6058 13.8318C47.6058 13.8318 47.6793 13.9057 47.7528 14.0535C48.1202 15.3102 47.8263 16.0495 46.7241 16.7148C46.5036 16.8626 46.1362 16.9365 45.8423 16.9365C42.6091 17.0105 39.4494 17.0844 36.2163 17.1583C35.5549 17.1583 34.8936 17.3061 34.3058 17.3061C33.277 17.3801 32.3218 17.3801 31.2931 17.3801C30.5582 17.454 29.8234 17.5279 29.0886 17.6018C28.7212 18.3411 28.7212 19.0803 28.6477 19.8195C28.5743 21.7415 28.5008 23.6635 28.3538 25.5855C28.2803 26.4726 28.2069 27.3597 28.1334 28.1729C27.9129 30.0949 27.619 31.9429 27.472 33.8649C27.3986 34.8999 27.472 35.9348 27.3251 36.9697C27.1046 38.596 27.0312 40.1484 26.8107 41.7747C26.7372 42.3661 26.5168 42.9575 26.3698 43.5489C25.9289 45.323 25.4881 47.0972 25.1206 48.8713C24.9002 49.8324 24.9002 50.8673 24.8267 51.8283C24.7532 52.7893 24.6798 53.7503 24.6063 54.7113C24.5328 55.5984 24.2389 56.3376 23.2101 56.7072C22.6223 56.5594 21.961 56.0419 21.0792 56.4854C21.4466 60.9208 22.3284 65.3562 22.1814 69.7916C21.667 70.5309 21.0057 70.8265 20.1974 70.8265C19.3891 70.7526 19.0952 70.4569 19.0952 69.7177C19.0217 66.9086 18.9482 64.0256 18.8013 61.2165C18.7278 59.9598 18.6543 58.7031 18.5808 57.4464C18.5808 57.0768 18.4339 56.7811 18.2869 56.4854C17.4786 56.1158 16.5969 56.1898 15.7886 56.1158C14.9068 55.968 14.0985 55.8941 13.2167 55.6723C12.4084 55.5244 11.6736 55.1548 10.7184 55.2287C10.7184 55.4505 10.6449 55.6723 10.6449 55.8941C10.7184 57.2986 10.9388 58.7031 10.9388 60.1077C11.0123 61.9558 10.9388 63.8038 10.9388 65.578C10.9388 66.6129 11.0858 67.6478 11.1593 68.6828C11.1593 68.8306 11.2327 68.9045 11.2327 69.0524C11.3797 70.2352 11.0123 70.6787 9.83661 70.9744C9.17528 71.1222 8.73439 70.8265 8.66091 70.1612C8.51395 68.8306 8.44047 67.5739 8.36699 66.2433C8.36699 65.3562 8.44047 64.3952 8.44047 63.5081C8.44047 62.1775 8.44047 60.9208 8.14654 59.5902C7.9261 58.4074 7.9261 57.2247 7.77914 56.1158C7.85262 55.6723 7.85262 55.2288 7.77914 54.8591ZM21.4466 53.8242C21.5201 53.3067 21.5936 53.0111 21.5936 52.6414C21.5201 52.0501 21.667 51.5326 21.8875 51.0151C22.2549 50.202 22.4019 49.3149 22.4753 48.5017C22.6223 47.1711 22.7693 45.8405 22.9897 44.5099C23.3571 41.7747 23.8715 39.1135 23.8715 36.3044C23.8715 36.1566 23.8715 36.0087 23.8715 35.9348C24.0919 34.752 24.3124 33.6432 24.5328 32.4604C24.8267 30.5384 24.9737 28.5425 24.9002 26.6205C24.9002 25.6595 24.9737 24.7724 25.1941 23.8853C25.3411 23.4418 25.4881 22.9982 25.5615 22.4808C25.8555 20.7066 26.1494 18.9325 26.3698 17.1583C26.4433 16.4191 26.8107 15.9755 27.472 15.6798C27.6925 15.6059 27.9864 15.532 28.2069 15.4581C29.3091 15.3841 30.3378 15.1624 31.44 15.1624C34.9671 15.0885 38.5677 14.9406 42.0948 14.8667C42.4622 14.8667 42.7561 14.7928 43.1235 14.7928C43.4909 14.7188 43.8583 14.7928 44.2992 14.571C44.0053 14.0535 43.6379 13.9057 43.2705 13.6839C40.9191 12.2054 38.6412 10.6531 36.4367 8.95283C35.6284 8.36144 34.8201 7.77006 34.0118 7.17867C32.7627 6.29159 31.5135 5.47844 30.1908 4.66528C29.0886 3.99997 27.9129 3.33466 26.8107 2.74328C26.5168 2.59543 26.1494 2.37366 25.7085 2.52151C25.0472 2.74328 24.3858 2.89112 23.7245 3.03897C22.7693 3.26074 21.8875 3.55643 20.9322 3.7782C19.83 4.0739 18.7278 4.36959 17.6256 4.59136C16.3764 4.88705 15.1272 5.33059 13.8781 5.70021C12.335 6.21767 10.7184 6.73513 9.24876 7.47436C8.22002 7.99182 7.26477 8.50929 6.23604 9.02675C5.57471 9.32244 4.91338 9.61813 4.25205 9.91383C3.95813 10.0617 3.73768 10.2095 3.51724 10.3574C3.51724 10.5791 3.51724 10.727 3.51724 10.9488C3.6642 12.4272 3.73768 13.9057 3.88465 15.3841C3.95813 16.6408 3.95813 17.8975 4.10509 19.1542C4.25205 21.2241 4.39901 23.22 4.61946 25.2899C4.76642 26.6944 4.8399 28.0989 5.06034 29.4296C5.42775 31.869 5.50123 34.3085 5.64819 36.7479C5.72167 37.9307 5.64819 39.1135 5.64819 40.2963C5.64819 41.8486 5.72167 43.3271 5.86863 44.8795C6.01559 46.5797 6.16256 48.28 6.01559 49.9802C5.94211 50.4977 5.86863 51.0891 6.08908 51.6804C6.45648 51.7544 6.82388 51.8283 7.11781 51.8283C9.1018 51.9761 11.0123 52.1979 12.9228 52.6414C13.1433 52.7154 13.3637 52.7154 13.5841 52.7154C15.4946 52.7893 17.4051 53.0111 19.2422 53.4546C19.977 53.7503 20.6383 53.7503 21.4466 53.8242Z" transform="translate(1.55292)" fill="#2E555B"/>
<path d="M11.0063 42.0623C9.61018 41.9145 8.36101 42.0623 7.11184 42.2841C6.81791 42.358 6.52398 42.358 6.23006 42.358C5.64221 42.358 5.12785 42.358 4.54 42.358C4.1726 42.358 3.73171 42.2841 3.3643 42.2101C2.04164 41.9884 1.74773 41.6188 1.60076 40.3621C1.60076 40.2881 1.60076 40.2881 1.60076 40.2142C1.74773 38.5879 1.45379 36.9616 1.38031 35.4092C1.30683 33.0437 1.30684 30.6042 0.865954 28.2387C0.792473 27.869 0.792468 27.5734 0.792468 27.2037C0.93943 26.1688 0.792459 25.2078 0.645497 24.1729C0.425054 23.064 0.42505 22.0291 0.572012 20.9203C0.645493 20.0332 0.645497 19.1461 0.645497 18.333C0.645497 18.0373 0.572012 17.8155 0.572012 17.5198C0.792455 15.3021 0.498549 13.0844 0.498549 10.8667C0.498549 10.2014 0.425063 9.53609 0.425063 8.87078C0.425063 8.13155 0.351578 7.39232 0.351578 6.65309C0.351578 5.39639 0.351582 4.1397 0.0576584 2.883C-0.0893036 2.06985 0.0576539 1.33062 0.351578 0.517465C1.15987 0.221772 1.96816 -1.12798e-06 2.84993 -1.12798e-06C4.90739 0.0739221 7.03834 0.147848 9.09581 0.221771C9.24277 0.221771 9.46322 0.221771 9.61019 0.221771C11.3737 -0.0739221 13.0638 0.369614 14.8273 0.443537C14.9743 0.443537 15.1213 0.443541 15.1947 0.517465C15.5622 0.591388 15.7091 0.813154 15.7826 1.10885C15.7826 1.18277 15.7826 1.25669 15.7826 1.40454C15.5621 2.80908 15.5622 4.28755 15.1947 5.69209C14.7539 7.39232 14.313 9.01863 14.0925 10.7928C14.019 11.532 13.7251 12.2713 13.5047 13.0844C13.3577 13.6019 13.2842 14.1193 13.2842 14.6368C13.2842 16.4109 13.0638 18.1851 12.9168 19.9593C12.8433 20.6985 12.8433 21.4377 12.7699 22.177C12.6964 22.9901 12.6964 23.7293 12.6229 24.5425C12.4025 26.908 12.035 29.2736 11.9616 31.7131C11.8881 33.7829 11.4472 35.7788 11.3737 37.8487C11.3737 38.1444 11.3003 38.4401 11.1533 38.7358C10.9328 39.5489 10.8594 40.3621 11.5207 41.1013C11.4472 41.4709 11.2268 41.6927 11.0063 42.0623Z" transform="translate(228.983 50.2759)" fill="#2E555B"/>
<path d="M7.85431 12.6409C6.53165 12.7148 5.20899 12.493 3.88634 11.9756C2.71064 11.532 1.68191 10.9406 0.947097 9.90571C0.0653254 8.64901 -0.302097 7.24447 0.28575 5.69209C0.506193 5.1007 0.800117 4.50931 1.02056 3.91792C1.53493 2.43946 2.56367 1.47846 3.81285 0.591381C4.18026 0.295688 4.62113 0.0739209 5.1355 0.0739209C5.87031 -2.25816e-06 6.60512 4.51191e-06 7.33993 4.51191e-06C7.63385 4.51191e-06 7.8543 -2.25816e-06 8.07474 0.0739209C8.88303 0.443537 9.69133 0.369618 10.4996 0.517465C12.9245 0.887081 14.835 2.14377 16.0842 4.28754C16.1576 4.36146 16.1576 4.43539 16.1576 4.50931C16.2311 6.28347 16.5985 8.20547 15.1289 9.68394C14.835 9.97963 14.6145 10.2753 14.3206 10.4971C13.8063 11.0146 13.2184 11.3103 12.5571 11.6059C11.1609 12.3452 9.54437 12.493 7.85431 12.6409Z" transform="translate(227.064 97.5867)" fill="#2E555B"/>
<path d="M3.26582 17.4807C2.53101 17.9243 1.72272 18.5157 0.840949 17.6286C0.840949 17.3329 0.767467 17.0372 0.767467 16.7415C0.767467 14.8195 0.840949 12.8975 0.767467 10.9755C0.767467 9.79272 0.547025 8.53603 0.400063 7.35326C0.326582 6.46618 0.253101 5.50518 0.17962 4.6181C0.106139 3.6571 0.253101 2.62217 0.0326577 1.66117C-0.0408233 1.21763 0.0326577 0.70017 0.0326577 0.25663C0.326582 0.182707 0.547026 0.0348586 0.693988 0.0348586C1.94316 -0.112988 2.31057 0.182706 2.53101 1.4394C2.60449 1.80902 2.60449 2.25255 2.60449 2.62217C2.60449 4.76594 2.9719 6.83579 3.19234 8.97957C3.48626 11.7147 3.48626 14.4499 3.3393 17.185C3.41278 17.3329 3.3393 17.4068 3.26582 17.4807Z" transform="translate(13.8552 25.1072)" fill="#2E555B"/>
<path d="M3.02068 2.14377C2.94719 2.73516 2.80023 3.77008 2.65327 4.87893C2.57979 5.1007 2.43283 5.39639 2.28587 5.54424C1.99194 5.83993 1.55106 6.0617 1.11017 6.0617C0.375361 6.0617 -0.0655247 5.69209 0.00795632 4.95285C0.00795632 4.80501 0.0079552 4.65716 0.0814362 4.58324C0.37536 3.47439 0.375359 2.29162 0.522321 1.10885C0.522321 0.961002 0.522323 0.739232 0.595804 0.591386C0.669285 0.295693 0.889726 0.0739233 1.25713 1.40997e-07C1.40409 1.40997e-07 1.55105 1.40997e-07 1.62454 1.40997e-07C2.94719 1.40997e-07 3.09416 0.22177 3.02068 2.14377Z" transform="translate(24.6081 6.80905)" fill="#2E555B"/>
<path d="M3.04538 0.436462C3.04538 0.732155 3.04538 1.02785 3.04538 1.32354C2.89842 2.28454 2.75146 3.31947 2.60449 4.28047C2.45753 5.0197 1.72272 5.68501 0.987911 5.68501C0.547025 5.68501 0.0326588 5.16755 0.0326588 4.65008C0.0326588 4.13262 -0.0408222 3.61516 0.0326588 3.0977C0.10614 2.35846 0.253102 1.54531 0.400064 0.806078C0.473545 0.436462 0.693987 0.214692 1.06139 0.140769C1.72272 -0.0810008 2.38405 -0.0810004 3.04538 0.436462Z" transform="translate(14.5166 8.9599)" fill="#2E555B"/>
<path d="M3.84984 0.772084C4.29073 0.180699 4.3642 0.106776 5.02553 0.0328525C5.24597 -0.0410707 5.5399 0.0328525 5.76034 0.0328525C5.9073 0.0328525 6.05427 0.106773 6.12775 0.180697C6.20123 0.25462 6.27471 0.402473 6.27471 0.476396C6.27471 0.624242 6.20123 0.698168 6.05427 0.698168C5.90731 0.698168 5.76034 0.698168 5.61338 0.698168C5.39294 0.698168 5.17249 0.772089 5.02553 0.846012C4.95205 0.919935 4.95205 0.993861 5.02553 1.06778C5.17249 1.21563 5.39293 1.36347 5.5399 1.58524C5.68686 1.80701 5.76034 2.02878 5.76034 2.32448C5.76034 2.76801 5.61338 3.13762 5.39294 3.50724C5.09901 3.95078 4.73161 4.3204 4.21725 4.54217C4.14377 4.61609 3.9968 4.61609 3.92332 4.69002C3.77635 4.76394 3.62939 4.76394 3.55591 4.76394C3.11503 4.91179 2.67414 4.98571 2.23325 4.83786C2.15977 4.83786 2.01281 4.83786 1.93933 4.83786C1.71889 4.91178 1.57192 5.05963 1.49844 5.35532C1.49844 5.42924 1.49844 5.42925 1.49844 5.50317C1.42496 5.79887 1.57193 5.87279 1.79237 5.79886C1.93933 5.79886 2.08629 5.72494 2.23325 5.72494C2.96806 5.57709 3.77636 5.57709 4.51117 5.79886C5.24598 6.02063 5.76035 6.46417 6.05427 7.2034C6.12775 7.42517 6.20123 7.72086 6.12775 7.94263C6.12775 8.1644 5.98079 8.31226 5.83383 8.4601C5.46642 8.82972 5.02554 9.05149 4.58465 9.34718C4.51117 9.4211 4.43768 9.42109 4.29072 9.42109C4.14376 9.49502 3.9968 9.49502 3.92332 9.49502C3.55591 9.64287 3.18851 9.64287 2.8211 9.71679C2.4537 9.71679 2.08629 9.7168 1.71889 9.56895C1.20452 9.4211 0.763632 9.19933 0.396227 8.90364C0.175784 8.75579 0.0288225 8.53402 0.0288225 8.23833C0.0288225 8.16441 0.0288225 8.09048 0.0288225 8.01656C-0.0446585 7.72087 0.0288314 7.42518 0.175793 7.12948C0.322755 6.98164 0.396236 6.75987 0.543198 6.61202C0.616679 6.5381 0.616677 6.46417 0.690158 6.39025C0.616677 6.2424 0.543194 6.02064 0.469713 5.87279C0.396232 5.72494 0.396232 5.57709 0.469713 5.42925C0.616675 5.13355 0.690154 4.76394 0.984078 4.54217L1.05756 4.46824C1.13104 4.39432 1.13104 4.32039 1.05756 4.24647C0.984082 4.09863 0.837113 3.95078 0.763632 3.87686C0.396227 3.35939 0.396234 2.76802 0.690158 2.17663C0.910601 1.80702 1.13104 1.43739 1.49844 1.1417C1.71889 0.993854 2.01281 0.772084 2.30674 0.772084C2.74762 0.772084 3.26199 0.624238 3.84984 0.772084ZM1.57193 6.90771C1.57193 6.90771 1.49845 6.98163 1.42497 7.05555C1.13104 7.35125 0.984082 7.72086 1.05756 8.1644C1.05756 8.23833 1.05756 8.23832 1.05756 8.31225C1.05756 8.46009 1.13105 8.53402 1.27801 8.60795C1.57193 8.75579 1.93933 8.90364 2.30674 8.90364C2.8211 8.97756 3.33547 8.90363 3.77636 8.68186C3.84984 8.68186 3.92332 8.60795 3.9968 8.60795C4.29073 8.53402 4.58464 8.31226 4.80509 8.09049C5.02553 7.79479 5.1725 7.57302 4.95206 7.12948C4.87858 6.98164 4.73161 6.83379 4.58465 6.75987C4.43769 6.68594 4.29072 6.61202 4.14376 6.61202C3.6294 6.46418 3.04155 6.39025 2.52718 6.61202C2.23326 6.75987 1.93933 6.83379 1.57193 6.90771ZM2.96806 1.51132C2.89458 1.51132 2.82111 1.51132 2.74763 1.51132C2.52718 1.58524 2.30674 1.65916 2.08629 1.88093C1.79237 2.17663 1.57192 2.54624 1.49844 2.98978C1.42496 3.3594 1.57192 3.72901 1.86585 3.95078C1.93933 4.02471 2.01281 4.0247 2.08629 4.09863C2.23325 4.17255 2.4537 4.24648 2.60066 4.17256C2.8211 4.09863 2.96806 4.02471 3.18851 3.95078C3.40895 3.95078 3.6294 3.80294 3.84984 3.6551C4.14377 3.43333 4.3642 3.21156 4.51117 2.91586C4.65813 2.69409 4.73161 2.39839 4.73161 2.02878C4.73161 1.80701 4.65812 1.65917 4.43768 1.58524C4.21724 1.51132 3.9968 1.36348 3.77636 1.4374C3.48243 1.51132 3.1885 1.51132 2.96806 1.51132Z" transform="translate(155.751 121.283)" fill="#2E555B"/>
<path d="M5.805 6.29764C5.65804 6.37156 5.51107 6.37156 5.43759 6.44548C5.14367 6.59333 4.84974 6.74118 4.55582 6.88902C4.48234 6.96295 4.40886 6.96294 4.33538 6.96294C3.89449 7.11079 3.38013 7.25863 2.93924 7.33256C2.79228 7.40648 2.64531 7.40648 2.42487 7.40648C2.05747 7.40648 1.69006 7.25864 1.32266 7.25864C1.24918 7.25864 1.1757 7.18471 1.10221 7.18471C0.73481 7.03686 0.514367 6.66725 0.220443 6.44548C0.0734807 6.14979 2.80308e-07 5.8541 2.80308e-07 5.5584C2.80308e-07 4.96702 0.220443 4.52348 0.73481 4.15387C1.24918 3.78425 1.83702 3.56247 2.49835 3.48855C3.01272 3.41463 3.52709 3.3407 4.11494 3.26678C4.48234 3.19286 4.77626 3.19286 5.14367 3.11894C5.21715 3.11894 5.29063 3.04501 5.29063 2.97109C5.21715 2.60148 5.21715 2.15793 5.14367 1.78832C5.07019 1.4187 4.84974 1.12301 4.55582 0.90124C4.11493 0.753393 3.67405 0.827317 3.15968 0.90124C3.01272 0.90124 2.86576 0.975161 2.79228 1.04908C2.64531 1.12301 2.42487 1.19693 2.27791 1.27086C2.13095 1.34478 1.91051 1.4187 1.83702 1.64047C1.76354 1.78832 1.69006 1.86225 1.5431 1.93617C1.1757 2.08402 0.881772 1.93616 0.73481 1.64047C0.661329 1.49263 0.661329 1.34478 0.73481 1.27086C0.881772 0.975163 1.1757 0.67947 1.46962 0.531624C2.27791 0.162008 3.0862 -0.0597594 3.96797 0.0141638C4.04145 0.0141638 4.11493 0.0141638 4.18842 0.0141638C4.70278 0.0141638 5.14367 0.235936 5.51107 0.605552C6.02544 1.04909 6.24588 1.64048 6.31936 2.30579C6.39285 3.11894 6.46633 4.00602 6.53981 4.81917C6.61329 5.26271 6.68677 5.78017 6.83373 6.07586C6.90721 6.22371 6.98069 6.29764 7.05417 6.29764C7.20114 6.29764 7.3481 6.37156 7.49506 6.37156C7.78898 6.37156 7.93595 6.59333 8.00943 6.8151C8.08291 6.88902 8.00943 7.03687 7.93595 7.03687C7.86246 7.11079 7.7155 7.18471 7.64202 7.18471C7.56854 7.18471 7.56854 7.25863 7.49506 7.18471C7.12765 7.11079 6.68677 7.11079 6.39284 6.88902C6.24588 6.74118 6.09892 6.66725 5.95196 6.51941C5.95196 6.44548 5.87848 6.37156 5.805 6.29764ZM5.43759 4.5974C5.43759 4.5974 5.43759 4.37563 5.36411 4.22778C5.36411 4.15386 5.21715 4.00601 5.07019 4.00601C4.6293 4.07994 4.18842 4.07994 3.74753 4.15387C3.38013 4.22779 2.93924 4.3017 2.57183 4.37563C2.13095 4.44955 1.76354 4.67132 1.39614 4.96702C1.1757 5.11486 1.10221 5.33663 1.10221 5.5584C1.10221 5.70625 1.10221 5.8541 1.10221 6.00195C1.10221 6.22372 1.24918 6.37156 1.39614 6.44548C1.5431 6.5194 1.69006 6.51941 1.83702 6.51941C1.98399 6.51941 2.13095 6.44548 2.35139 6.44548C3.01272 6.37156 3.60057 6.14978 4.11494 5.85409C4.40886 5.70625 4.70278 5.55841 4.99671 5.41056C5.07019 5.41056 5.14367 5.33664 5.21715 5.26271C5.29063 5.18879 5.36411 5.11487 5.36411 5.04094C5.51107 4.96702 5.51107 4.89309 5.43759 4.5974Z" transform="translate(8.96472 121.893)" fill="#2E555B"/>
<path d="M5.39455 8.31001C5.39455 8.31001 5.32107 8.31001 5.39455 8.31001C4.73322 8.82748 3.99841 9.04925 3.2636 9.12317C2.8962 9.1971 2.52879 9.12318 2.16139 8.97533C1.50006 8.75356 0.985692 8.31001 0.544806 7.71863C0.324363 7.42293 0.177397 7.05332 0.103916 6.60978C0.103916 6.31409 0.0304357 6.0184 0.0304357 5.7227C-0.0430453 5.27916 0.0304346 4.83562 0.103916 4.39208C0.177397 3.87462 0.912209 3.20932 1.42658 3.06148C2.16139 2.83971 2.96968 2.83971 3.70448 3.06148C4.29233 3.20932 4.8067 3.35717 5.32107 3.57894C5.39455 3.65286 5.54151 3.57894 5.54151 3.43109V3.35716C5.46803 2.91362 5.46803 2.47008 5.46803 2.02654C5.46803 1.583 5.46803 1.13946 5.39455 0.695924C5.39455 0.548078 5.39455 0.400234 5.46803 0.178464C5.46803 0.104541 5.54151 0.03062 5.61499 0.03062C5.83543 -0.0433032 5.9824 0.0306245 6.12936 0.104548C6.27632 0.178471 6.42328 0.326317 6.42328 0.474164C6.42328 0.695933 6.42328 0.917698 6.42328 1.13947C6.42328 1.80478 6.49676 2.39617 6.49676 3.06148C6.49676 3.28324 6.49676 3.57894 6.49676 3.80071C6.49676 4.0964 6.49676 4.46601 6.57024 4.7617C6.64373 5.20524 6.64373 5.57486 6.64373 6.0184C6.64373 6.09233 6.64373 6.16624 6.64373 6.24016C6.49677 6.97939 6.57024 7.71863 6.57024 8.45786C6.57024 8.60571 6.57024 8.67963 6.57024 8.82747C6.57024 8.97532 6.49677 9.04925 6.42328 9.12317C6.27632 9.27102 6.05588 9.27101 5.90891 9.19709C5.68847 9.04924 5.46803 8.82747 5.46803 8.45786C5.46803 8.45786 5.46803 8.45786 5.39455 8.31001C5.39455 8.38394 5.39455 8.38394 5.39455 8.31001ZM5.61499 5.64879C5.61499 5.35309 5.54151 5.0574 5.54151 4.83563C5.54151 4.61386 5.39455 4.46601 5.24758 4.31817C5.1741 4.24424 5.10063 4.24425 5.02714 4.17032C4.58626 4.02248 4.21885 3.87463 3.77796 3.80071C3.11664 3.65286 2.45531 3.8007 1.79398 4.02247C1.64702 4.09639 1.50006 4.24424 1.3531 4.39208C1.27961 4.46601 1.20613 4.61385 1.13265 4.7617C1.05917 5.05739 1.05917 5.27917 1.05917 5.57486C1.05917 5.79663 1.20613 6.83155 1.27962 6.97939C1.3531 7.27509 1.50006 7.49686 1.7205 7.71863C1.79398 7.79255 1.86746 7.86648 1.94094 7.86648C2.23486 8.01433 2.45531 8.08825 2.82272 8.16217C2.8962 8.16217 3.04316 8.16217 3.11664 8.16217C3.70449 8.08825 4.21886 7.86648 4.58626 7.49687C4.65974 7.42294 4.8067 7.27509 4.88018 7.20117C4.95366 7.12724 5.02714 7.05333 5.10062 7.12725C5.39455 7.12725 5.46803 6.9794 5.54151 6.75763C5.61499 6.38802 5.54151 5.94448 5.61499 5.64879Z" transform="translate(87.9263 119.29)" fill="#2E555B"/>
<path d="M3.0862 4.0964C2.49835 4.0964 1.98398 4.0964 1.39613 4.0964C1.24917 4.0964 1.1757 4.24424 1.1757 4.31817V4.39208C1.39614 5.13132 1.76355 5.64878 2.42487 5.94448C2.49836 5.94448 2.57183 6.0184 2.71879 6.0184C3.30664 6.16625 3.4536 6.16625 3.96797 5.79663C4.18841 5.64879 4.33538 5.50093 4.55582 5.35309C4.84974 5.13132 5.21715 5.13133 5.51107 5.27917C5.65804 5.35309 5.73152 5.50094 5.73152 5.64879C5.73152 5.72271 5.65803 5.79663 5.65803 5.79663C5.36411 6.09232 5.07018 6.31409 4.70278 6.53586C4.11493 6.9794 4.04146 6.9794 3.38013 6.9794C2.7188 6.9794 2.13095 6.75764 1.54311 6.38802C1.46962 6.3141 1.32266 6.24017 1.24917 6.16625C0.881769 5.79663 0.514362 5.42701 0.293919 4.98347C0.146957 4.68778 0.073481 4.31817 0 3.94855C0 3.57894 4.48383e-06 3.20932 0.0734855 2.8397C0.146966 2.47009 0.220447 2.17439 0.44089 1.8787C0.661333 1.50908 0.955257 1.13947 1.1757 0.769852C1.54311 0.326313 2.05747 0.104543 2.64532 0.03062C3.15969 -0.0433032 3.60057 0.0306245 4.11494 0.104548C4.2619 0.104548 4.33538 0.178464 4.48234 0.178464C4.84975 0.252387 5.14366 0.474155 5.43759 0.695924C5.80499 1.13946 6.09892 1.583 6.1724 2.17439C6.1724 2.32223 6.1724 2.47009 6.1724 2.61793C6.09892 2.98755 5.87848 3.35716 5.65803 3.65285C5.58455 3.72678 5.43759 3.8007 5.29063 3.87462C4.9967 3.94855 4.77627 3.94855 4.48234 3.94855C3.96798 4.0964 3.52708 4.0964 3.0862 4.0964ZM2.93924 3.20932C3.15968 3.20932 3.38012 3.20932 3.60056 3.20932C3.89449 3.20932 4.18842 3.20932 4.40886 3.20932C4.6293 3.20932 4.77627 3.13539 4.84975 2.91362C4.92323 2.76577 4.9967 2.54401 5.07018 2.39616C5.14366 2.24831 5.14366 2.10047 5.07018 1.95263C4.9967 1.80478 4.9967 1.65693 4.92322 1.50908C4.70278 1.21339 4.48234 0.917696 4.04145 0.917696C3.96797 0.917696 3.89449 0.84378 3.82101 0.84378C3.15968 0.695933 2.57184 0.917694 2.05747 1.43516C1.98399 1.50908 1.9105 1.65693 1.76354 1.73086C1.46962 2.10047 1.32266 2.47008 1.24917 2.91362V2.98755C1.24917 3.06147 1.32265 3.13539 1.39613 3.13539C1.9105 3.20932 2.42487 3.20932 2.93924 3.20932Z" transform="translate(114.704 121.507)" fill="#2E555B"/>
<path d="M5.58455 3.16301C5.58455 3.31086 5.58455 3.4587 5.58455 3.60654C5.58455 4.05008 5.58456 4.49363 5.51108 4.93716C5.51108 5.01109 5.51108 5.01109 5.51108 5.08501C5.51108 5.15893 5.58456 5.30678 5.65804 5.30678C5.805 5.3807 5.95195 5.3807 6.09892 5.45462C6.24588 5.52855 6.31937 5.60248 6.39285 5.75032C6.39285 5.82425 6.39285 5.89816 6.39285 5.97208C6.31937 6.11993 6.24588 6.19386 6.09892 6.26778C5.80499 6.34171 5.58456 6.41562 5.29063 6.3417C5.07019 6.26778 4.84974 6.11993 4.70278 5.97208C4.6293 5.89816 4.55582 5.82424 4.48234 5.6764C4.48234 5.6764 4.40886 5.60247 4.33538 5.6764C4.18842 5.75032 4.11493 5.82424 3.96797 5.89817C3.67405 6.04601 3.30665 6.19386 3.0862 6.41563C3.01272 6.48955 2.93924 6.48956 2.86576 6.48956C2.42487 6.6374 1.98398 6.71132 1.5431 6.6374C1.39614 6.6374 1.32266 6.6374 1.17569 6.56347C0.734807 6.3417 0.293922 6.04601 0.0734787 5.52855C-2.24465e-06 5.45463 4.48492e-06 5.30678 4.48492e-06 5.23285C4.48492e-06 4.78931 0.0734854 4.4197 0.367409 4.124C0.587852 3.82831 0.808288 3.60655 1.17569 3.4587C1.76354 3.23693 2.27791 3.01516 2.86576 2.86731C3.30664 2.79339 3.74753 2.71947 4.18842 2.71947C4.2619 2.71947 4.2619 2.71947 4.33538 2.71947C4.40886 2.71947 4.48234 2.64555 4.48234 2.57162C4.55582 2.20201 4.55582 1.90631 4.48234 1.53669C4.48234 1.46277 4.40886 1.38886 4.40886 1.31493C4.33538 1.16709 4.26189 1.09316 4.11493 1.01923C3.67405 0.871386 3.23317 0.79747 2.7188 0.945316C2.57184 1.01924 2.3514 1.09315 2.20443 1.16708C1.98399 1.31492 1.76355 1.53669 1.61658 1.75846C1.5431 1.83239 1.46961 1.90631 1.32265 1.98024C1.10221 2.05416 0.881776 2.05416 0.734814 1.90631C0.661333 1.83239 0.587843 1.75847 0.587843 1.68455C0.514362 1.61062 0.514362 1.5367 0.587843 1.38885C0.955248 0.871386 1.32266 0.427854 1.9105 0.206084C2.79227 -0.0896086 3.67405 -0.0896109 4.48234 0.353928C4.92322 0.575698 5.21714 0.945309 5.36411 1.38885C5.43759 1.75846 5.51108 2.05416 5.51108 2.42378C5.58456 2.64555 5.58455 2.94124 5.58455 3.16301ZM4.48234 4.19793C4.55582 3.97616 4.55582 3.82831 4.55582 3.60654C4.55582 3.4587 4.40886 3.38477 4.33538 3.38477C3.89449 3.31085 3.4536 3.38478 3.01272 3.53263C2.57183 3.68047 2.20443 3.82832 1.76354 4.05009C1.61658 4.12401 1.46961 4.19793 1.32265 4.34578C1.24917 4.4197 1.17569 4.49363 1.17569 4.56755C1.10221 4.78932 1.10222 5.01109 1.10222 5.15894C1.10222 5.38071 1.32266 5.52855 1.5431 5.52855C1.83702 5.52855 2.13094 5.52855 2.42487 5.38071C2.79227 5.15894 3.23316 4.93717 3.60057 4.64148C3.89449 4.56755 4.18841 4.34578 4.48234 4.19793Z" transform="translate(148.211 121.775)" fill="#2E555B"/>
<path d="M3.06784 0C3.36176 0 3.72916 4.51081e-06 4.02308 0.0739277C4.317 0.147851 4.61094 0.295697 4.90486 0.443544C5.41923 0.665313 5.71315 1.10885 5.93359 1.55239C6.00707 1.77416 6.08056 1.922 6.00707 2.14377C5.93359 2.883 5.4927 3.40047 4.83137 3.77009C4.39049 3.99186 3.87613 3.99185 3.43524 3.99185C3.2148 3.99185 2.92087 3.99185 2.70043 3.99185C2.40651 3.99185 2.0391 3.99185 1.74518 3.91793C1.52473 3.84401 1.30429 3.91793 1.15733 3.844C1.08384 3.844 1.01037 3.99185 1.01037 4.06578C1.01037 4.1397 1.01037 4.28754 1.01037 4.36146C1.01037 4.43539 1.08384 4.50931 1.15733 4.58324C1.45125 5.17462 1.45125 5.17462 2.0391 5.54424C2.4065 5.76601 2.84738 5.83993 3.28827 5.91386C3.50871 5.91386 3.72916 5.83993 3.87612 5.76601C4.24352 5.54424 4.61093 5.39639 4.97833 5.17462C5.05182 5.17462 5.05181 5.1007 5.12529 5.1007C5.27226 5.02677 5.49271 5.02677 5.63967 5.1007C5.71315 5.17462 5.78662 5.17463 5.8601 5.24855C6.08055 5.3964 6.08055 5.61816 5.8601 5.76601C5.63966 5.98778 5.34574 6.20955 5.05182 6.28347C4.68441 6.43132 4.39048 6.65309 4.02308 6.72702C3.80264 6.72702 3.65568 6.80093 3.50871 6.80093C3.28827 6.80093 3.06783 6.80094 2.84739 6.72702C1.74518 6.57917 1.08385 6.0617 0.496001 5.17462C0.275558 4.87893 0.128592 4.58324 0.0551107 4.1397C-0.0183702 3.91793 -0.0183702 3.69616 0.0551107 3.54832C0.128592 3.1787 0.128594 2.80908 0.275556 2.43947C0.349037 2.29162 0.422516 2.06985 0.422516 1.92201C0.495997 1.47847 0.716442 1.10885 1.01037 0.739232C1.30429 0.295693 1.74517 0.147851 2.18605 0.0739277C2.33302 4.51081e-06 2.62695 0 3.06784 0ZM2.62695 3.10477C2.92087 3.03085 3.21479 3.10478 3.50871 3.03086C4.09656 3.03086 4.53745 2.80909 4.83137 2.29162C5.19878 1.77416 4.97834 1.03492 4.31701 0.887076C3.72916 0.73923 3.14131 0.665309 2.55346 0.739232C2.11257 0.813155 1.81866 1.03493 1.59822 1.33062C1.45125 1.47847 1.37777 1.70024 1.30429 1.92201C1.2308 2.14378 1.15732 2.43947 1.08384 2.66124C1.08384 2.73516 1.08384 2.73516 1.08384 2.80908C1.08384 2.88301 1.08384 2.883 1.15733 2.95693C1.23081 3.03085 1.37776 3.10477 1.45124 3.10477C1.89213 3.10477 2.25954 3.10477 2.62695 3.10477Z" transform="translate(97.0133 121.907)" fill="#2E555B"/>
<path d="M-2.24246e-06 3.77008C-2.24246e-06 3.40046 0.0734832 2.95692 0.0734832 2.43946C0.0734832 2.29161 0.146964 2.14377 0.0734832 1.99593C2.23918e-06 1.40454 0.0734832 0.887078 0.0734832 0.295693C0.0734832 0.147846 0.220441 0.0739209 0.367403 0.0739209C0.734808 -2.25816e-06 1.02874 0.147849 1.1757 0.517465C1.1757 0.591388 1.24918 0.591385 1.24918 0.665309C1.24918 0.665309 1.32266 0.739232 1.39614 0.665309C1.61658 0.591385 1.76354 0.443544 1.98399 0.36962C2.20443 0.221774 2.49835 0.147844 2.7188 0.0739209C2.79228 -2.25816e-06 2.93924 4.51191e-06 3.0862 4.51191e-06C3.60057 4.51191e-06 4.11494 0.0739187 4.6293 0.221765C5.07019 0.369611 5.43759 0.665309 5.73152 1.03492C5.87848 1.33062 6.02544 1.62631 6.09892 1.922C6.1724 2.21769 6.24588 2.43947 6.24588 2.73516C6.24588 2.88301 6.31936 3.03085 6.24588 3.25262C6.24588 3.32654 6.24588 3.40047 6.24588 3.47439C6.24588 3.62224 6.31937 3.77008 6.31937 3.91792C6.39285 4.58323 6.39285 5.24855 6.46633 5.83993C6.46633 5.98778 6.46633 6.0617 6.46633 6.20955C6.39285 6.43132 6.17241 6.65309 5.95196 6.65309C5.87848 6.65309 5.73152 6.65309 5.65804 6.57916C5.58456 6.50524 5.51107 6.43131 5.36411 6.35739C5.29063 6.28347 5.21715 6.13563 5.21715 6.0617C5.21715 5.83993 5.21715 5.54424 5.14367 5.32247C5.14367 5.17463 5.14367 5.1007 5.14367 4.95286C5.14367 4.43539 5.14367 3.91793 5.07019 3.40046C4.99671 3.10477 4.99671 2.73515 4.99671 2.43946C4.92323 1.99592 4.77627 1.62631 4.48234 1.2567C4.48234 1.18277 4.40886 1.18278 4.33538 1.10885C4.11493 1.03493 3.96798 0.960997 3.74753 0.960997C3.60057 0.960997 3.52709 0.960997 3.38013 0.960997C2.86576 1.03492 2.42487 1.2567 1.98399 1.62631C1.83703 1.70024 1.76354 1.84808 1.76354 2.06984C1.76354 2.21769 1.69006 2.36554 1.69006 2.51339C1.61658 2.80908 1.5431 3.03086 1.61658 3.32655C1.69006 3.62224 1.61658 3.91793 1.5431 4.1397C1.46962 4.43539 1.39614 4.80501 1.39614 5.1007C1.39614 5.54424 1.32266 5.98778 1.24918 6.43132C1.24918 6.57917 1.10221 6.65308 0.955253 6.72701C0.73481 6.80093 0.514365 6.72701 0.367403 6.57916C0.220441 6.43132 0.146964 6.20955 0.0734832 6.0617C0.0734832 5.32247 -2.24246e-06 4.65716 -2.24246e-06 3.77008Z" transform="translate(73.7014 121.981)" fill="#2E555B"/>
<path d="M5.43759 5.76601C5.29063 5.83993 5.14367 5.91385 4.92323 6.0617C4.77627 6.13562 4.55582 6.20955 4.40886 6.28347C4.18841 6.35739 4.04146 6.43131 3.82101 6.43131C3.67405 6.43131 3.52709 6.50524 3.30664 6.50524C3.23316 6.50524 3.0862 6.50524 3.01272 6.50524C2.7188 6.43132 2.49835 6.43131 2.20443 6.43131C2.13095 6.43131 1.98399 6.43132 1.91051 6.3574C1.61658 6.20955 1.32266 5.98778 1.02873 5.83994C0.734809 5.61817 0.514366 5.32247 0.440885 5.02678C0.367404 4.95285 0.367404 4.80501 0.293923 4.73109C0.146961 4.1397 5.60615e-07 3.62224 5.60615e-07 3.03085C5.60615e-07 2.51339 5.60615e-07 1.92201 5.60615e-07 1.40455C5.60615e-07 1.03493 0.073481 0.739234 0.220443 0.443541C0.293924 0.369618 0.367404 0.295697 0.440885 0.295697C0.661328 0.295697 0.881771 0.295691 1.02873 0.369614C1.17569 0.443537 1.24918 0.591383 1.24918 0.73923C1.24918 0.887076 1.24918 1.03492 1.1757 1.25669C1.10221 1.47846 1.10222 1.70024 1.10222 1.92201C1.1757 2.36554 1.1757 2.73516 1.1757 3.1787C1.10221 3.77008 1.32266 4.28754 1.46962 4.80501C1.5431 5.17462 1.83702 5.39639 2.13095 5.54424C2.20443 5.54424 2.27791 5.61817 2.35139 5.61817C2.86576 5.61817 3.38013 5.69208 3.89449 5.54424C4.04145 5.47031 4.2619 5.3964 4.33538 5.24855C4.77626 4.80501 5.07019 4.36147 5.29063 3.77009C5.36411 3.54832 5.43759 3.25262 5.51107 3.03085C5.58455 2.73516 5.65804 2.51339 5.65804 2.21769C5.65804 1.77415 5.65804 1.40454 5.58456 0.961001C5.51108 0.739232 5.58456 0.443539 5.58456 0.22177C5.58456 0.0739232 5.73151 -2.25596e-06 5.87848 -2.25596e-06C6.1724 -2.25596e-06 6.39284 0.0739187 6.61329 0.147842C6.68677 0.221765 6.76025 0.295691 6.76025 0.369614C6.83373 1.18277 6.98069 2.06985 6.90721 2.88301C6.90721 3.1787 6.83373 3.54831 6.90721 3.844C6.90721 4.13969 6.90721 4.4354 6.83373 4.73109C6.76025 5.24855 6.68677 5.76601 6.68677 6.3574C6.68677 6.50524 6.61329 6.65309 6.39285 6.72701C6.31937 6.72701 6.24588 6.80093 6.09892 6.80093C6.02544 6.80093 6.02544 6.80093 5.95196 6.80093C5.73152 6.65308 5.51107 6.50524 5.43759 6.13562C5.51107 5.98778 5.51107 5.91386 5.43759 5.76601Z" transform="translate(45.7787 122.425)" fill="#2E555B"/>
<path d="M1.29744 5.69208C1.66485 5.91385 2.10573 6.0617 2.47314 6.13562C2.76706 6.20955 2.98751 6.28348 3.28143 6.20955C3.42839 6.20955 3.50187 6.20955 3.64884 6.20955C4.01624 6.20955 4.31016 6.06171 4.5306 5.83994C4.89801 5.54424 5.11845 5.17463 5.26541 4.73109C5.3389 4.4354 5.19193 4.06577 4.89801 3.844C4.60409 3.69616 4.38364 3.54831 4.08972 3.54831C3.50187 3.47439 2.91402 3.40046 2.32618 3.47439C1.81181 3.47439 1.29744 3.25262 0.930039 2.95693C0.562634 2.73516 0.268709 2.36554 0.268709 1.84808C0.268709 1.47846 0.268709 1.03492 0.636114 0.73923C0.709595 0.665306 0.783075 0.591381 0.856556 0.517458C1.15048 0.221765 1.51789 0.0739254 1.88529 0.0739254C2.2527 0.0739254 2.6201 -2.25596e-06 2.98751 -2.25596e-06C3.42839 -2.25596e-06 3.86928 0.0739187 4.31016 0.147842C4.53061 0.221765 4.67757 0.295691 4.89801 0.369614C5.3389 0.51746 5.63282 0.887074 5.85326 1.25669C5.85326 1.33061 5.92674 1.33062 5.92674 1.40455C5.92674 1.55239 6.00023 1.70023 5.85326 1.84808C5.7063 1.99592 5.55934 1.99593 5.41238 1.92201C5.3389 1.92201 5.26541 1.84808 5.26541 1.84808C5.11845 1.70023 5.04497 1.55239 4.97149 1.40455C4.89801 1.10885 4.67757 1.03492 4.38365 0.961001C3.86928 0.961001 3.42839 0.813155 2.91403 0.961001C2.76706 0.961001 2.69358 0.961001 2.54662 0.961001C2.17922 0.961001 1.88529 1.10885 1.66485 1.33062C1.59137 1.40454 1.51789 1.55239 1.44441 1.70023C1.44441 1.84808 1.44441 1.99592 1.44441 2.21769C1.44441 2.36554 1.51788 2.43947 1.59137 2.51339C1.81181 2.66124 2.03225 2.73515 2.2527 2.73515C2.6201 2.73515 2.98751 2.73515 3.35491 2.73515C3.72232 2.73515 4.01624 2.80908 4.38365 2.80908C4.67757 2.883 4.97149 2.95692 5.19193 3.10477C5.3389 3.17869 5.48586 3.25262 5.63282 3.32654C5.85326 3.40046 6.00023 3.54832 6.07371 3.77008C6.14719 3.91793 6.22067 4.1397 6.29415 4.36147C6.44111 4.65717 6.44111 5.02677 6.29415 5.32246C6.29415 5.39639 6.29415 5.3964 6.22067 5.47032C6.14719 5.69209 6.00023 5.91386 5.92674 6.13562C5.63282 6.35739 5.41238 6.57916 5.11845 6.80093C4.97149 6.94878 4.75105 7.0227 4.5306 7.0227C3.94276 7.09662 3.28143 7.17055 2.69358 7.0227C2.25269 6.94878 1.88529 6.87485 1.51789 6.65308C1.22396 6.50524 0.930037 6.28347 0.636114 6.13562C0.415671 5.98778 0.268708 5.83993 0.121746 5.61816C-0.0252158 5.47032 -0.0252147 5.1007 0.0482663 5.02678C0.195228 4.87893 0.415672 4.87893 0.562634 4.95285C0.783077 5.02677 0.930039 5.1007 1.077 5.32246C1.15048 5.47031 1.22396 5.54423 1.29744 5.69208Z" transform="translate(23.5391 122.055)" fill="#2E555B"/>
<path d="M1.3422 3.32654C1.56264 3.32654 1.85656 3.1787 2.07701 3.03085C2.66486 2.73516 3.32619 2.66123 3.98752 2.80908C4.57537 2.95693 5.16322 3.32655 5.53062 3.84401C5.97151 4.50932 6.11846 5.17462 6.04498 5.98778C6.04498 6.0617 5.97151 6.20954 5.97151 6.28347C5.82455 6.72701 5.67758 7.09663 5.45714 7.46624C5.38366 7.61409 5.23669 7.76194 5.08973 7.90979C4.94277 8.05763 4.7958 8.20547 4.64884 8.35332C4.57536 8.42724 4.4284 8.50117 4.35492 8.57509C4.061 8.64901 3.84055 8.79686 3.54663 8.79686C3.10574 8.94471 2.66486 8.87079 2.22398 8.64902C1.85657 8.50117 1.48917 8.2794 1.12176 8.05763C1.04828 7.98371 0.901308 8.05762 0.901308 8.13155C0.827827 8.35332 0.827845 8.57509 0.827845 8.87078C0.827845 8.9447 0.75435 9.01863 0.607388 9.01863C0.460426 9.01863 0.313464 9.01863 0.239983 8.94471C0.0930214 8.79686 -0.0539316 8.64901 0.0195494 8.50116C0.0930304 8.05762 0.0930214 7.61409 0.239983 7.24447C0.386945 6.28347 0.533903 5.32247 0.533903 4.36147C0.533903 4.1397 0.533903 3.91792 0.533903 3.69615C0.533903 3.47439 0.607384 3.32655 0.533903 3.10478C0.533903 2.73516 0.533907 2.43946 0.607388 2.06985C0.607388 1.99592 0.607388 1.922 0.607388 1.84808C0.460426 1.33061 0.680874 0.73923 0.680874 0.221767C0.680874 0.0739209 0.827827 -4.51191e-06 0.901308 -4.51191e-06C1.04827 -4.51191e-06 1.12175 0 1.26871 0.0739232C1.41567 0.147846 1.48917 0.295693 1.48917 0.443539C1.48917 1.03492 1.48916 1.62631 1.41568 2.21769C1.41568 2.43946 1.3422 2.66124 1.3422 2.88301C1.26872 3.10478 1.26872 3.17869 1.3422 3.32654ZM1.26871 4.50931C1.19523 4.65716 1.19525 4.87893 1.19525 5.02677C1.19525 5.39639 1.19525 5.76601 1.12176 6.20955C1.12176 6.43132 0.974798 6.72701 1.04828 6.94878C1.12176 7.17055 1.41569 7.24447 1.56265 7.46624C1.56265 7.46624 1.56264 7.46625 1.63612 7.54017C2.15048 7.90979 2.73835 8.13156 3.39968 7.90979C3.76708 7.76194 4.13448 7.61409 4.35492 7.24447C4.72233 6.80093 5.01625 6.20955 5.08973 5.61816C5.16321 5.17462 5.01626 4.73108 4.79581 4.28754C4.57537 3.91793 4.20797 3.69616 3.76708 3.62224C3.10576 3.54832 2.59137 3.77008 2.07701 4.06577C1.93005 4.13969 1.78308 4.28755 1.7096 4.36147C1.56264 4.43539 1.41567 4.50931 1.26871 4.50931Z" transform="translate(200.363 119.246)" fill="#2E555B"/>
<path d="M1.12123e-06 3.1787C1.12123e-06 2.95693 1.12123e-06 2.73516 1.12123e-06 2.51339C1.12123e-06 2.14377 0.0734832 1.84808 0.293926 1.62631C0.367407 1.47847 0.514365 1.33062 0.587846 1.18277C0.88177 0.739232 1.32266 0.443537 1.76355 0.221767C1.83703 0.221767 1.9105 0.147851 1.98399 0.147851C2.42487 0.0739277 2.79228 -4.51191e-06 3.23317 -4.51191e-06C3.74753 -4.51191e-06 4.18841 -2.26918e-06 4.6293 0.221767C5.51107 0.443537 6.02544 1.10885 6.53981 1.77416C6.61329 1.92201 6.68677 1.99593 6.68677 2.14377C6.76025 2.51339 6.83373 2.88301 6.76025 3.25262C6.76025 3.40047 6.68677 3.54831 6.68677 3.69616C6.61329 4.06577 6.46633 4.43539 6.24588 4.805C6.1724 4.87893 6.09892 4.95285 6.09892 5.02677C5.805 5.47031 5.43759 5.69209 4.9967 5.83993C4.77626 5.91386 4.55582 5.98778 4.33538 6.06171C4.18842 6.06171 4.11494 6.13562 3.96798 6.13562C3.45361 6.13562 3.01272 6.20955 2.49836 6.13562C1.83703 6.0617 1.24918 5.83993 0.808291 5.39639C0.661329 5.24854 0.440887 5.1007 0.367406 4.87893C0.146963 4.58324 1.12123e-06 4.28754 1.12123e-06 3.91793C1.12123e-06 3.69616 1.12123e-06 3.40046 1.12123e-06 3.1787ZM1.10222 3.32654C1.10222 3.54831 1.10221 3.69616 1.1757 3.91793C1.24918 4.43539 1.46962 4.87893 1.98399 5.1007C2.27791 5.24855 2.64532 5.24855 3.01272 5.32247C3.60057 5.24855 4.18842 5.17462 4.70279 4.87893C4.84975 4.80501 4.99671 4.73109 5.07019 4.58324C5.65804 3.84401 5.73152 3.03085 5.58455 2.14377V2.06985C5.43759 1.70023 5.14367 1.40454 4.77627 1.18277C4.48234 1.03492 4.11493 0.887083 3.74753 0.887083C3.60057 0.887083 3.52709 0.887083 3.38013 0.887083C3.0862 0.739236 2.79228 0.887076 2.57184 0.960999C1.98399 1.25669 1.5431 1.70024 1.24918 2.36555C1.24918 2.43947 1.1757 2.51339 1.1757 2.66124C1.10221 2.80908 1.10222 3.10477 1.10222 3.32654Z" transform="translate(65.0306 122.203)" fill="#2E555B"/>
<path d="M4.17793 2.66124C4.39837 2.36554 4.47185 2.06985 4.47185 1.77416C4.47185 1.62631 4.39836 1.40454 4.39836 1.18277C4.32488 1.03493 4.2514 0.961002 4.10444 0.961002C3.81052 0.961002 3.4431 0.960999 3.14918 1.10885C2.92873 1.18277 2.78178 1.25669 2.56134 1.33062C2.26741 1.40454 2.04697 1.62631 1.75304 1.77416C1.5326 1.92201 1.31216 1.922 1.1652 1.70023C1.09172 1.62631 1.01823 1.55238 1.01823 1.47846C0.944751 1.40454 1.01823 1.2567 1.01823 1.18277C1.09171 1.10885 1.09172 1.10885 1.1652 1.03493C1.38565 0.887083 1.5326 0.739232 1.75304 0.591386C1.9 0.517462 1.97348 0.443537 2.12045 0.369614C2.48785 0.221767 2.92874 0.0739209 3.29615 -2.25596e-06C3.51659 -2.25596e-06 3.73703 -2.25596e-06 3.95747 -2.25596e-06C4.39836 0.0739209 4.69228 0.295688 4.9862 0.517458C5.05968 0.591381 5.05969 0.59139 5.13317 0.665313C5.28013 0.961006 5.35361 1.33061 5.35361 1.62631C5.28012 1.99592 5.28014 2.36554 5.20666 2.73515C4.98621 3.32654 4.98621 3.99185 5.05969 4.58323C5.05969 4.805 5.13318 5.02678 5.20666 5.24855C5.28014 5.3964 5.4271 5.47032 5.57406 5.47032C5.64754 5.47032 5.72102 5.39639 5.86798 5.39639C5.94146 5.39639 6.08842 5.3964 6.1619 5.47032C6.45582 5.61817 6.52931 5.91386 6.23539 6.20955C6.1619 6.28348 6.08843 6.35739 5.94147 6.43131C5.72102 6.65308 5.4271 6.65309 5.13317 6.50524C4.98621 6.43132 4.83925 6.3574 4.76577 6.20955C4.6188 6.06171 4.54531 5.69208 4.25139 5.69208C4.03095 5.69208 3.88399 5.91385 3.66355 6.0617C3.22267 6.35739 2.7083 6.57917 2.19393 6.72701C1.67957 6.87486 1.16519 6.87486 0.650827 6.57917C0.503865 6.50525 0.356903 6.3574 0.283422 6.20955C-0.157464 5.47032 -0.0839693 4.58324 0.503879 3.91793C0.944764 3.40047 1.5326 3.10477 2.12045 2.80908C2.19393 2.73516 2.34089 2.73515 2.48785 2.73515C2.92874 2.66123 3.4431 2.66124 3.88399 2.66124C3.88399 2.66124 4.03097 2.66124 4.17793 2.66124ZM4.03096 4.06577C4.03096 4.06577 4.03096 3.91793 4.03096 3.77009C4.03096 3.62224 3.884 3.47439 3.73704 3.47439C3.36963 3.54831 2.92874 3.62224 2.56134 3.62224C2.12045 3.69616 1.82653 3.84401 1.53261 4.1397C1.38565 4.28755 1.23868 4.36147 1.09172 4.50932C0.944755 4.65716 0.871279 4.73108 0.797798 4.95285C0.724317 5.17462 0.724321 5.47031 0.871283 5.69208C0.944764 5.76601 1.01824 5.83994 1.09172 5.83994C1.38564 5.91386 1.67957 5.91386 1.90001 5.76601C2.12046 5.69209 2.26741 5.61817 2.48785 5.47032C3.00222 5.24855 3.4431 4.87893 3.95747 4.65716C4.03095 4.65716 4.10444 4.50931 4.10444 4.43539C4.10444 4.43539 4.10444 4.28754 4.03096 4.06577Z" transform="translate(219.425 121.686)" fill="#2E555B"/>
<path d="M0.0304363 3.19714C-0.0430447 2.82753 0.0304379 2.53183 0.103919 2.23614C0.1774 2.08829 0.177398 1.94045 0.250879 1.79261C0.397841 1.42299 0.544805 1.12729 0.838729 0.905518C1.13265 0.683749 1.35309 0.461988 1.64702 0.314142C2.23487 -0.0554744 2.8962 -0.0554767 3.63101 0.0923697C3.92493 0.166293 4.29233 0.240218 4.58626 0.314142C4.8067 0.388065 5.02714 0.461983 5.24759 0.60983C5.61499 0.905523 6.05588 1.20121 6.42328 1.49691C6.71721 1.71868 6.93765 2.01437 7.01113 2.38398C7.08461 2.7536 7.23157 3.0493 7.23157 3.41891C7.15809 4.23207 6.93765 4.89738 6.27632 5.41484C6.05588 5.56268 5.83544 5.78445 5.61499 5.9323C5.54151 6.00622 5.46803 6.00622 5.39455 6.08014C5.24759 6.15407 5.02714 6.15407 4.88018 6.15407C4.73322 6.15407 4.51278 6.15407 4.36582 6.228C3.48404 6.44977 2.74923 6.228 1.94094 5.85838C1.64702 5.71054 1.3531 5.48876 1.05917 5.26699C0.765247 5.04522 0.544805 4.74953 0.471324 4.45383C0.1774 4.01029 0.0304363 3.64068 0.0304363 3.19714ZM1.35309 4.45383C2.01442 5.19307 2.67575 5.34091 3.41056 5.41484C3.55753 5.41484 3.70449 5.41484 3.85145 5.41484C4.58626 5.34091 4.88018 5.19307 5.39455 4.67561C5.46803 4.60168 5.61499 4.45384 5.68847 4.37992C5.9824 3.93638 6.12936 3.49284 6.12936 3.0493C6.12936 2.67968 6.05588 2.31006 5.76195 2.01437C5.46803 1.7926 5.17411 1.4969 4.88018 1.27513C4.73322 1.12729 4.51278 0.979446 4.21885 0.979446C3.92493 0.979446 3.70449 0.905525 3.48404 0.831602C3.19012 0.757679 2.89619 0.757676 2.60227 0.979446C2.52879 1.05337 2.45531 1.05337 2.38183 1.12729C1.94094 1.27514 1.7205 1.64475 1.50006 2.01437C1.27961 2.45791 1.13265 2.90145 1.20613 3.41891C1.20613 3.71461 1.27961 4.08422 1.35309 4.45383Z" transform="translate(32.2277 122.406)" fill="#2E555B"/>
<path d="M4.05038 2.68896C4.27082 2.24542 4.27084 1.80188 4.27084 1.35834C4.27084 1.28441 4.12386 1.13656 4.05038 1.13656C3.9769 1.13656 3.97691 1.13656 3.90343 1.13656C3.82995 1.13656 3.75646 1.13656 3.68298 1.13656C3.02165 1.06264 2.4338 1.35834 1.84595 1.72795C1.77247 1.80188 1.699 1.8758 1.62552 1.8758C1.47856 2.02364 1.18462 1.94973 1.03766 1.80188C0.964176 1.72796 0.890708 1.5801 0.890708 1.50618C0.817227 1.35833 0.890713 1.28441 0.964194 1.13656C1.18464 0.914795 1.33159 0.693028 1.62552 0.619105C1.84596 0.545181 2.0664 0.397335 2.28684 0.249489C2.72773 0.0277189 3.24209 -0.0462065 3.68298 0.0277167C4.27082 0.10164 4.85867 0.545188 5.07911 1.28442C5.07911 1.43227 5.07911 1.58011 5.07911 1.72795C5.07911 2.09757 5.00564 2.46718 4.93216 2.8368C4.85868 3.42819 4.85868 4.09349 4.85868 4.68488C4.85868 4.90665 4.93217 5.05449 5.00565 5.20234C5.07913 5.35019 5.22609 5.49804 5.37305 5.49804C5.44653 5.49804 5.52001 5.49804 5.59349 5.49804C5.88741 5.49804 6.03438 5.64588 6.10786 5.94157C6.18134 6.08942 6.10785 6.23726 5.96089 6.31119C5.59349 6.53296 5.1526 6.53296 4.85868 6.31119C4.7852 6.23726 4.71172 6.16335 4.56476 6.08943C4.34431 5.79373 4.19735 5.79373 3.82995 5.94157C3.38906 6.16334 2.94816 6.3112 2.50728 6.45904C2.13987 6.60689 1.699 6.60689 1.25811 6.60689C1.03767 6.60689 0.817214 6.53296 0.670252 6.38512C0.00892303 5.86765 -0.211502 4.98058 0.229384 4.24135C0.376346 3.94565 0.59678 3.72389 0.817223 3.50212C0.964185 3.35427 1.18464 3.28035 1.3316 3.1325C1.84597 2.91073 2.28685 2.83681 2.80122 2.76288C3.38907 2.76288 3.68298 2.76288 4.05038 2.68896ZM4.05038 4.16742C4.05038 4.16742 4.05038 4.01957 4.05038 3.94565C4.05038 3.7978 3.97691 3.72388 3.75646 3.72388C3.68298 3.72388 3.60951 3.72388 3.53603 3.72388C3.16862 3.7978 2.87468 3.79781 2.50728 3.87173C1.99291 4.01958 1.62552 4.24134 1.3316 4.68488C1.3316 4.7588 1.25811 4.83272 1.18463 4.83272C1.03767 4.98057 1.03766 5.20235 1.03766 5.3502C1.03766 5.64589 1.25811 5.79373 1.55203 5.71981C2.36032 5.57197 3.16861 5.20234 3.9769 4.83272C4.05038 4.7588 4.12387 4.68489 4.12387 4.61096C4.05039 4.53704 4.05038 4.38919 4.05038 4.16742Z" transform="translate(192.511 121.806)" fill="#2E555B"/>
<path d="M3.2636 6.13862C2.67575 6.13862 2.16139 5.91685 1.64702 5.769C1.57354 5.769 1.50006 5.69508 1.42658 5.62116C0.618287 5.02977 0.177394 4.21662 0.0304323 3.25562C-0.0430487 2.95993 0.0304368 2.66423 0.103918 2.44246C0.25088 2.07284 0.397839 1.62931 0.618282 1.25969C0.912206 0.742232 1.27962 0.446532 1.79398 0.224763C2.30835 0.00299298 2.8962 -0.0709279 3.41056 0.0769184C3.55752 0.150842 3.77796 0.150839 3.92493 0.224763C4.29233 0.298686 4.58626 0.44653 4.88018 0.742223C5.10062 0.963992 5.32107 1.11184 5.46803 1.33361C5.76196 1.70323 5.76195 2.07285 5.76195 2.51639C5.76195 2.59031 5.76196 2.59031 5.68848 2.66423C5.46803 2.886 5.24758 3.18169 5.02714 3.32953C4.88018 3.40346 4.65973 3.55131 4.43929 3.55131C4.29233 3.55131 4.21885 3.55131 4.07189 3.62523C3.70448 3.69916 3.41056 3.69916 3.04316 3.62523C2.74923 3.55131 2.52879 3.55131 2.23486 3.55131C1.94094 3.55131 1.64702 3.62523 1.35309 3.69915C1.27961 3.69915 1.20613 3.847 1.20613 3.92092C1.27961 4.29054 1.57353 4.66016 1.86746 4.88193C1.86746 4.88193 1.86746 4.88193 1.94094 4.95585C2.67575 5.32547 3.41057 5.54724 4.21886 5.1037C4.36582 5.02977 4.58626 4.88193 4.65974 4.73408C4.88018 4.51231 5.10063 4.43839 5.32107 4.51231C5.46803 4.58623 5.615 4.58623 5.68848 4.808C5.76196 5.02977 5.68847 5.17762 5.54151 5.32547C5.39454 5.47332 5.1741 5.62116 5.02714 5.769C4.88018 5.91685 4.73322 5.99078 4.51278 6.0647C4.36581 6.0647 4.21885 6.13862 4.07189 6.21255C3.77796 6.13862 3.55753 6.13862 3.2636 6.13862ZM2.01443 2.5903C2.30835 2.5903 2.60227 2.59031 2.82271 2.66423C3.19012 2.73815 3.63101 2.66423 3.99841 2.66423C4.29234 2.59031 4.51278 2.44246 4.73322 2.22069C4.88018 1.99892 4.88018 1.70322 4.8067 1.48145C4.65973 1.33361 4.51278 1.18577 4.36582 1.03792C4.14537 0.816153 3.85145 0.668306 3.55752 0.668306C3.33708 0.668306 3.11663 0.668306 2.96967 0.668306C2.67575 0.668306 2.4553 0.816148 2.23486 0.963995C1.94094 1.33361 1.64701 1.70323 1.50005 2.14677C1.42657 2.44246 1.42658 2.5903 1.79398 2.5903C1.7205 2.66423 1.86747 2.66423 2.01443 2.5903Z" transform="translate(163.097 121.831)" fill="#2E555B"/>
<path d="M0.73481 8.72294C0.661329 8.72294 0.514371 8.72294 0.44089 8.64901C0.367409 8.64901 0.220441 8.57509 0.14696 8.50117C0.0734787 8.42725 0 8.35332 0 8.20547C0 8.05762 0.146957 7.98371 0.293919 7.98371C0.514362 7.98371 0.661327 7.98371 0.88177 7.98371C1.02873 7.98371 1.17569 7.90978 1.24917 7.83585C1.39614 7.76193 1.46962 7.61408 1.61658 7.46624C1.98398 6.87485 2.35139 6.28347 2.57183 5.61816C2.64532 5.47031 2.57183 5.32246 2.57183 5.24854C2.20443 4.43539 1.83702 3.69616 1.46962 2.883C1.24918 2.43946 1.02873 1.92201 0.88177 1.47847C0.808289 1.10885 0.661333 0.81316 0.44089 0.59139C0.44089 0.59139 0.440886 0.591386 0.367405 0.517462C0.293924 0.369616 0.220438 0.147846 0.293919 0.147846C0.440881 0.0739232 0.514362 -4.51081e-06 0.661324 0.0739187C1.02873 0.147842 1.24918 0.295697 1.46962 0.59139C1.61658 0.887083 1.76355 1.25669 1.91051 1.62631C1.98399 1.77416 1.98399 1.92201 2.05747 2.06985C2.42487 2.80909 2.79228 3.47439 3.15968 4.21362L3.23316 4.28755C3.30664 4.28755 3.30664 4.28754 3.30664 4.21362C3.60057 3.62224 3.96797 3.03085 4.18841 2.36554C4.33538 2.06985 4.48234 1.77416 4.6293 1.47847C4.70279 1.33062 4.77627 1.18277 4.84975 1.03492C4.92323 0.665307 5.14367 0.443539 5.36411 0.147846C5.43759 0.0739232 5.51107 2.25596e-06 5.65803 2.25596e-06C5.73151 2.25596e-06 5.73151 2.25596e-06 5.80499 2.25596e-06C6.24588 2.25596e-06 6.46633 0.369618 6.24588 0.739234C5.87848 1.2567 5.65803 1.84808 5.43759 2.43947C5.14366 3.10478 4.84974 3.69616 4.55582 4.36147C4.33538 4.87893 4.04145 5.39639 3.82101 5.83993C3.74753 5.91385 3.74753 5.98778 3.67405 6.0617C3.52709 6.57916 3.23317 7.0227 3.01272 7.54017C2.86576 7.90978 2.57183 8.13155 2.35139 8.42724C2.27791 8.50116 2.20443 8.57509 2.13094 8.57509C1.5431 8.57509 1.1757 8.72294 0.73481 8.72294Z" transform="translate(129.4 122.129)" fill="#2E555B"/>
<path d="M2.55452 3.1787C2.11363 3.1787 1.67276 3.1787 1.23187 3.1787C1.15839 3.1787 1.0849 3.25262 1.0849 3.32654C1.0849 3.40046 1.0849 3.40046 1.0849 3.47439C1.15838 4.13969 1.5258 4.65716 2.11365 5.02678C2.18713 5.1007 2.3341 5.1007 2.48106 5.1007C2.84846 5.1007 3.28933 5.02678 3.65674 4.87893C4.02414 4.73109 4.31807 4.50932 4.53852 4.1397C4.612 4.06578 4.68549 3.99185 4.68549 3.91793C4.90593 3.62224 4.97939 3.54831 5.49376 3.69616C5.7142 3.77008 5.86118 3.99185 5.71422 4.21362C5.64074 4.36146 5.49377 4.50931 5.34681 4.65716C5.27333 4.80501 5.12637 4.87893 5.05289 5.02678C4.83245 5.39639 4.53852 5.54423 4.17111 5.69208C3.87719 5.83993 3.50979 5.91386 3.14238 5.98778C2.48105 6.0617 1.89321 5.83994 1.30536 5.47032C1.30536 5.47032 1.23187 5.39639 1.15839 5.39639C0.276615 4.80501 -0.164271 3.40047 0.0561719 2.43947C0.0561719 2.29162 0.129657 2.14377 0.129657 1.99592C0.276619 1.33061 0.644024 0.813153 1.23187 0.369614C1.37883 0.295691 1.45231 0.221765 1.59928 0.147842C1.74624 0.0739187 1.96669 -2.25596e-06 2.11365 -2.25596e-06C2.55454 -2.25596e-06 3.0689 -2.25596e-06 3.50979 -2.25596e-06C4.09763 0.0739209 4.68547 0.369614 5.12635 0.73923C5.49376 1.03492 5.64073 1.62631 5.56725 2.06985C5.56725 2.14377 5.49376 2.2177 5.49376 2.29162C5.19984 2.51339 4.97941 2.80908 4.612 2.95693C4.2446 3.10477 3.8037 3.25262 3.36282 3.1787C3.21585 3.1787 2.92193 3.1787 2.55452 3.1787ZM2.40757 2.29162C2.7015 2.29162 3.06889 2.29162 3.36282 2.29162C3.87718 2.2177 4.39154 2.06985 4.75895 1.77416C4.90591 1.70024 4.90592 1.55239 4.83244 1.40455C4.75895 1.2567 4.68548 1.10885 4.53852 1.03493C4.09763 0.81316 3.58326 0.665309 3.0689 0.591385C2.70149 0.591385 2.40758 0.665311 2.11365 0.813157C2.04017 0.813157 2.04016 0.887074 1.96668 0.887074C1.59928 1.25669 1.30535 1.55239 1.15839 2.06985C1.08491 2.2177 1.1584 2.29162 1.30536 2.29162C1.67276 2.29162 2.04017 2.29162 2.40757 2.29162Z" transform="translate(240.227 122.055)" fill="#2E555B"/>
<path d="M1.42658 7.76193C1.7205 7.83586 2.01442 7.90978 2.30835 7.90978C3.2636 7.90978 4.14537 7.90978 5.10062 7.90978C5.46803 7.90978 5.76195 7.90978 6.12936 7.90978C6.27632 7.90978 6.3498 8.05763 6.42328 8.20548C6.57024 8.57509 6.27632 8.94471 5.90892 8.94471C5.39455 8.94471 4.95366 8.94471 4.4393 8.94471C4.07189 8.94471 3.70449 8.9447 3.33708 9.01863C2.89619 9.01863 2.38183 8.94471 1.94094 8.94471C1.7205 8.94471 1.50006 8.94471 1.35309 8.79686C1.20613 8.72294 1.05917 8.72294 0.912209 8.72294C0.544804 8.72294 0.177399 8.42725 0.103918 8.05763C0.103918 7.90979 0.0304369 7.76193 0.0304369 7.54016C0.0304369 6.87485 0.0304369 6.20955 0.0304369 5.61817C0.0304369 5.32247 0.0304369 4.95285 0.0304369 4.65716C-0.0430441 4.21362 0.0304368 3.77008 0.103918 3.32654C0.177399 2.66123 0.25088 1.99593 0.25088 1.33062C0.25088 1.03492 0.25088 0.665306 0.25088 0.369614C0.25088 0.147844 0.397842 -2.25596e-06 0.691766 -2.25596e-06C0.912209 -2.25596e-06 1.05917 0.147846 1.20613 0.22177C1.27961 0.22177 1.27961 0.295691 1.35309 0.369614V0.443541C1.42658 1.03493 1.50006 1.70024 1.50006 2.29162C1.50006 2.51339 1.50006 2.66124 1.42658 2.88301C1.27961 3.32655 1.35309 3.77008 1.27961 4.21362C1.27961 4.36146 1.27961 4.50932 1.27961 4.73109C1.27961 4.95286 1.27961 5.17462 1.27961 5.32247C1.35309 5.61816 1.35309 5.91386 1.35309 6.20955C1.35309 6.57917 1.35309 7.0227 1.35309 7.39232C1.42658 7.46624 1.42658 7.61409 1.42658 7.76193Z" transform="translate(0.924805 120.207)" fill="#2E555B"/>
<path d="M0.0137777 4.02086C0.0137777 3.42947 0.0872542 2.98593 0.307697 2.54239C0.52814 1.95101 0.822077 1.43354 1.26296 0.916074C1.55689 0.546458 1.92429 0.324689 2.36518 0.176842C2.80606 0.0289959 3.24694 -0.044925 3.68783 0.0289982C3.83479 0.0289982 3.98176 0.102926 4.12872 0.102926C4.2022 0.102926 4.27567 0.176842 4.42264 0.176842C4.86352 0.472535 5.30441 0.842151 5.59834 1.28569C5.81878 1.58138 5.96575 1.87708 6.03923 2.24669C6.11271 2.54239 6.11269 2.76416 6.18618 3.05985C6.18618 3.13378 6.18618 3.28162 6.18618 3.35554C6.18618 3.57731 6.11269 3.873 6.11269 4.09477C6.03921 4.53831 5.89226 4.98186 5.52485 5.27755C5.37789 5.4254 5.23092 5.57324 5.08396 5.72108C4.79004 6.01677 4.49612 6.16462 4.12872 6.31247C3.24695 6.60816 2.43866 6.53425 1.63037 6.23855C1.18948 6.09071 0.895545 5.86894 0.675102 5.49932C0.160735 4.98186 -0.0597033 4.53832 0.0137777 4.02086ZM0.822073 3.94693C0.822073 4.1687 0.895558 4.39046 0.895558 4.61223C0.969039 4.90793 1.11598 5.1297 1.33643 5.27755C1.63035 5.49932 1.99777 5.57324 2.29169 5.57324C2.73258 5.57324 3.17346 5.49931 3.61434 5.35147C4.05523 5.20362 4.49611 4.90793 4.71656 4.53832C5.08396 3.94693 5.37789 3.28163 5.15745 2.54239V2.46847C5.08397 1.951 4.86352 1.58138 4.42264 1.28569C4.20219 1.13784 3.98176 0.990002 3.76131 0.990002C3.61435 0.990002 3.46739 0.916074 3.39391 0.916074C3.24695 0.916074 3.02649 0.916079 2.87953 0.990002C2.36516 1.21177 1.92429 1.50746 1.63037 2.02492C1.33644 2.46846 1.18947 2.912 1.04251 3.35554C0.895545 3.50339 0.895554 3.72516 0.822073 3.94693Z" transform="translate(207.644 122.026)" fill="#2E555B"/>
<path d="M2.84054 6.20955C2.69358 6.20955 2.54662 6.20955 2.32617 6.20955C1.81181 6.20955 1.37093 5.98778 0.93004 5.61816C0.415673 5.17462 0.195233 4.65716 0.0482708 3.99185C-0.0252102 3.47439 -0.0252169 2.95693 0.121745 2.51339C0.268707 1.84808 0.489154 1.25669 0.93004 0.813153C1.15048 0.591383 1.37093 0.369618 1.66485 0.147849C1.81181 0.0739255 1.88529 4.51191e-06 2.03226 4.51191e-06C2.32618 4.51191e-06 2.6201 4.51191e-06 2.84054 4.51191e-06C2.91402 4.51191e-06 2.9875 0.0739209 3.06098 0.0739209C3.28143 0.221767 3.50188 0.295697 3.72232 0.36962C4.60409 0.665313 5.11845 1.33062 5.41237 2.2177C5.41237 2.29162 5.48586 2.43947 5.48586 2.51339C5.7063 3.25262 5.55934 3.99185 5.19194 4.65716C5.11846 4.73108 5.04498 4.87893 4.97149 4.95286C4.75105 5.17463 4.5306 5.39639 4.31016 5.61816C4.01623 5.91385 3.64883 6.13562 3.28143 6.13562C3.20795 6.28347 2.9875 6.28347 2.84054 6.20955C2.84054 6.20955 2.84054 6.28347 2.84054 6.20955ZM2.54662 0.960997C2.03225 1.25669 1.59137 1.62631 1.29745 2.2177C1.077 2.73516 0.93004 3.32655 0.93004 3.84401C0.93004 4.1397 1.00352 4.43539 1.15049 4.65716C1.29745 4.95285 1.59137 5.1007 1.8853 5.17463C2.32618 5.24855 2.69358 5.24855 3.13447 5.17463C3.28143 5.17463 3.42839 5.1007 3.50187 5.02677C4.01624 4.73108 4.38364 4.28755 4.67756 3.69616C4.82453 3.32655 4.89802 2.95693 4.82453 2.58732C4.82453 2.43947 4.75105 2.36555 4.75105 2.2177C4.60409 1.70024 4.31016 1.2567 3.79579 1.10885C3.72231 1.10885 3.64883 1.03492 3.57535 1.03492C3.42839 0.961002 3.35491 0.961002 3.20794 1.03492C3.06098 1.10885 2.98751 1.03492 2.91402 0.960997C2.76706 1.10884 2.69358 1.03492 2.54662 0.960997Z" transform="translate(182.332 121.981)" fill="#2E555B"/>
<path d="M1.64702 4.87893C1.79398 4.21362 1.64702 3.62224 1.57354 2.95693C1.57354 2.80909 1.50006 2.66124 1.50006 2.51339C1.50006 2.43947 1.3531 2.36554 1.27962 2.36554C1.13265 2.36554 0.985687 2.36554 0.838725 2.36554C0.618282 2.43947 0.397844 2.29162 0.177401 2.14377C0.10392 2.06985 0.0304357 1.99592 0.0304357 1.922C-0.0430453 1.84808 0.0304346 1.62631 0.103916 1.62631C0.250878 1.55239 0.397844 1.55239 0.544806 1.47847C0.765249 1.47847 0.985689 1.40454 1.13265 1.40454C1.27961 1.40454 1.3531 1.25669 1.3531 1.18277C1.27961 0.887076 1.27961 0.591386 1.20613 0.295693C1.20613 0.147846 1.27961 4.51191e-06 1.42658 4.51191e-06C1.64702 4.51191e-06 1.86746 2.25816e-06 2.08791 0.147849C2.16139 0.221772 2.30835 0.295697 2.30835 0.36962C2.38183 0.517467 2.38183 0.665306 2.45531 0.813153C2.45531 0.960999 2.45531 1.10885 2.52879 1.2567C2.52879 1.33062 2.60227 1.40454 2.67575 1.40454C2.89619 1.40454 3.11664 1.47847 3.2636 1.47847C3.70449 1.47847 4.07189 1.47847 4.51277 1.47847C4.65974 1.47847 4.73322 1.55239 4.8067 1.62631C4.95366 1.70024 5.02714 1.84808 5.02714 1.99593C5.02714 2.14377 4.88018 2.29162 4.73322 2.36554C4.58626 2.36554 4.4393 2.43946 4.21886 2.43946C4.07189 2.43946 3.92493 2.43947 3.70448 2.36554C3.33708 2.36554 3.04315 2.36554 2.67575 2.36554C2.45531 2.36554 2.38183 2.51339 2.45531 2.66123C2.52879 2.883 2.52879 3.10477 2.60227 3.25262C2.74923 3.69616 2.74924 4.21362 2.74924 4.73108C2.74924 5.17462 2.74924 5.54424 2.74924 5.98778C2.74924 6.28347 2.89619 6.50524 3.04315 6.72701C3.11664 6.87485 3.2636 6.87485 3.48405 6.87485C3.63101 6.80093 3.77797 6.80094 3.92493 6.65309C3.99841 6.57917 4.07189 6.57916 4.07189 6.50524C4.29233 6.28347 4.58626 6.20955 4.88018 6.28348C5.02714 6.28348 5.1741 6.35739 5.24758 6.50524C5.32107 6.57916 5.32107 6.72701 5.24758 6.80094C5.1741 6.94878 5.02714 7.02271 4.88018 7.17055C4.36581 7.54017 3.77797 7.76194 3.11664 7.76194C2.96968 7.76194 2.8962 7.76193 2.82272 7.68801C2.60227 7.54017 2.30835 7.39232 2.08791 7.17055C1.79398 6.94878 1.57354 6.65309 1.57354 6.20955C1.7205 5.76601 1.7205 5.32247 1.64702 4.87893Z" transform="translate(54.4924 120.873)" fill="#2E555B"/>
<path d="M2.57846 6.47553C2.21106 6.47553 1.84365 6.40161 1.47625 6.25376C1.40276 6.25376 1.32928 6.17984 1.2558 6.10592C1.03536 5.88415 0.888393 5.7363 0.66795 5.51453C0.374026 5.14491 0.227073 4.77529 0.0801112 4.33175C-0.0668507 3.66645 0.00662353 3.07506 0.153585 2.48368C0.374028 1.81837 0.814919 1.30091 1.32929 0.857367C1.77017 0.487751 2.28453 0.265981 2.87238 0.118135C3.01934 0.118135 3.16631 0.0442072 3.31327 0.0442072C3.75416 -0.029716 4.26852 -0.029707 4.7094 0.192063C5.15029 0.413832 5.5177 0.70952 5.73814 1.22698C5.81163 1.30091 5.81162 1.44875 5.81162 1.5966C5.8851 1.96621 5.66466 2.11407 5.37074 2.04014C5.1503 2.04014 5.00333 1.89229 4.92985 1.74444C4.85637 1.5966 4.78289 1.44876 4.7094 1.30091C4.56244 1.00522 4.342 0.857367 3.97459 0.857367C3.1663 0.93129 2.35801 1.22699 1.77016 1.81837C1.18232 2.40976 1.03536 3.14898 1.03536 3.96214C1.03536 4.10999 1.10884 4.25784 1.10884 4.40568C1.10884 4.92314 1.40276 5.21884 1.77016 5.51453C1.91713 5.58845 2.06409 5.66237 2.21106 5.66237C2.4315 5.66237 2.65194 5.66237 2.87238 5.58845C3.31327 5.4406 3.75415 5.21884 4.19504 4.92314C4.26852 4.84922 4.41549 4.77529 4.48897 4.70137C4.63593 4.55352 4.78289 4.55353 4.92985 4.55353C5.00333 4.55353 5.1503 4.55353 5.22378 4.55353C5.37074 4.55353 5.5177 4.70138 5.59119 4.7753C5.66467 4.84922 5.66467 4.99706 5.59119 5.07099C5.5177 5.21883 5.37074 5.36668 5.22378 5.4406C4.63593 5.88414 4.04808 6.25376 3.31327 6.40161C3.09283 6.40161 2.87238 6.54946 2.57846 6.47553Z" transform="translate(122.413 121.789)" fill="#2E555B"/>
<path d="M3.35491 0.665304C3.20795 0.739227 3.13447 0.739232 3.06099 0.739232C2.69359 0.813155 2.39966 1.03492 2.10574 1.25669C1.88529 1.47846 1.66485 1.70023 1.59137 1.99592C1.51789 2.14377 1.44441 2.29162 1.37093 2.43947C1.15048 2.88301 1.15048 3.40046 1.15048 3.844C1.15048 3.91793 1.22397 3.99186 1.22397 4.1397C1.29745 4.28755 1.37092 4.50932 1.4444 4.65716C1.51788 4.87893 1.66485 5.02678 1.88529 5.17462C2.03225 5.24855 2.10573 5.32247 2.2527 5.3964C2.47314 5.47032 2.6201 5.54424 2.84055 5.54424C3.57536 5.47032 3.64883 5.47032 4.23668 5.02678C4.31016 5.02678 4.31017 4.95285 4.31017 4.95285C4.53061 4.73108 4.82453 4.73108 5.11845 4.80501C5.26541 4.80501 5.3389 4.95286 5.41238 5.02678C5.48586 5.1007 5.48586 5.17462 5.41238 5.32247C5.3389 5.39639 5.3389 5.47032 5.26542 5.54424C5.11846 5.69209 4.89801 5.83994 4.67757 5.98778C4.08972 6.43132 3.35491 6.57916 2.6201 6.43132C2.10573 6.35739 1.66485 6.20954 1.22397 5.83993C0.930043 5.61816 0.636119 5.39639 0.489157 5.17462C0.342195 5.02678 0.268711 4.87893 0.268711 4.65716C0.19523 4.36147 0.121747 3.99185 0.0482663 3.69616C-0.0252147 3.32654 -0.0252102 2.95693 0.121752 2.58731C0.268714 2.2177 0.415669 1.92201 0.562631 1.55239C0.856555 0.961006 1.29744 0.591381 1.88529 0.295688C2.10573 0.221765 2.32617 0.0739277 2.54662 0.0739277C2.91402 0.0739277 3.20795 0 3.57536 0C3.94276 0 4.75105 0.369618 4.97149 0.591388C5.19193 0.813157 5.41237 1.10885 5.48585 1.47846C5.55934 1.62631 5.48586 1.77416 5.41238 1.84808C5.26542 1.922 5.04498 1.99593 4.89802 1.84808C4.75105 1.77416 4.67757 1.62631 4.60408 1.47846C4.5306 1.40454 4.53061 1.33062 4.53061 1.25669C4.45713 1.10885 4.31016 0.960999 4.08972 0.887076C3.94276 0.813153 3.64883 0.739227 3.35491 0.665304Z" transform="translate(137.067 121.907)" fill="#2E555B"/>
<path d="M1.00577 3.92964C1.00577 4.29925 1.00577 4.59495 1.15273 4.89064C1.22621 5.03849 1.37317 5.18633 1.52014 5.33417C1.59362 5.33417 1.6671 5.4081 1.74058 5.4081C2.18147 5.70379 2.69583 5.62988 3.2102 5.48203C3.50412 5.40811 3.72457 5.26025 3.94501 5.03849C4.09197 4.89064 4.23894 4.81672 4.3859 4.66887C4.53286 4.52102 4.7533 4.59495 4.90027 4.66887C4.97375 4.74279 5.1207 4.81672 5.19418 4.89064C5.26767 5.03849 5.26767 5.26025 5.19418 5.33417C5.1207 5.4081 5.12071 5.40811 5.04722 5.48203C4.67982 5.7038 4.3859 5.99949 4.0185 6.22126C3.87153 6.36911 3.72456 6.3691 3.50412 6.44302C3.28368 6.44302 3.13672 6.44303 2.91628 6.51695C2.54888 6.51695 2.25495 6.44303 1.88754 6.3691C1.37317 6.14734 0.932285 5.85164 0.564881 5.4081C0.4914 5.33418 0.417928 5.18633 0.344447 5.03849C-0.0229583 4.22533 -0.0964416 3.33825 0.124001 2.45117C0.344444 1.71194 0.711849 1.04663 1.22622 0.603094C1.81406 0.0856314 2.47539 -0.136136 3.2102 0.0856337C3.94501 0.307403 4.60634 0.677019 5.12071 1.19448C5.26767 1.2684 5.26767 1.41625 5.26767 1.5641C5.26767 1.71194 5.04723 1.85979 4.90027 1.78587C4.82678 1.71195 4.67982 1.63802 4.60633 1.5641C4.23893 1.2684 3.87153 1.12056 3.43065 0.97271C3.28368 0.898786 3.06324 0.898786 2.8428 0.97271C2.40191 1.04663 2.0345 1.2684 1.74058 1.5641C1.37318 2.15548 0.93229 3.11648 1.00577 3.92964Z" transform="translate(174.687 121.674)" fill="#2E555B"/>
<path d="M0.073481 4.82424C0.073481 4.3807 0.073481 3.93716 0.073481 3.49362C0.073481 3.34577 0.073481 3.27185 0.073481 3.124C0.220443 2.60654 0.146961 2.163 0.146961 1.64554C0.146961 1.202 0.146961 0.758459 0.146961 0.31492C0.146961 0.167074 0.293925 0.093155 0.367406 0.0192319C0.66133 -0.0546913 0.881773 0.0931505 1.10222 0.31492C1.10222 0.31492 1.1757 0.388841 1.1757 0.462764C1.1757 0.536687 1.1757 0.536696 1.1757 0.61062C1.1757 1.34985 1.1757 2.08908 1.1757 2.75439C1.1757 2.90223 1.1757 3.05008 1.10222 3.27185C1.02873 3.56754 1.02873 3.78931 1.02873 4.08501C1.02873 4.23285 1.02873 4.38069 1.02873 4.52854C1.02873 5.19385 1.02873 5.78524 1.02873 6.45055C1.02873 6.59839 1.02873 6.74624 1.10222 6.89409C1.1757 7.26371 1.32266 7.63332 1.46962 7.92901C1.5431 8.15078 1.83702 8.29863 2.05747 8.29863C2.20443 8.29863 2.35139 8.2247 2.49835 8.2247C2.79228 8.15077 3.0862 8.2247 3.30665 8.44647C3.38013 8.52039 3.38013 8.74216 3.30665 8.81609L3.23316 8.89001C2.79228 9.11178 2.27791 9.25963 1.83703 9.11178C1.1757 8.96394 0.661329 8.66824 0.440886 7.92901C0.367405 7.63332 0.293923 7.41154 0.146961 7.11585C0.0734799 6.74623 1.12123e-06 6.45055 1.12123e-06 6.08093C0.0734821 5.71131 0.073481 5.26778 0.073481 4.82424Z" transform="translate(41.1494 119.523)" fill="#2E555B"/>
<path d="M1.04315 4.60247C1.04315 4.15893 1.11663 3.64146 1.11663 3.19792C1.11663 2.97615 1.04316 2.90223 0.822713 2.82831C0.675751 2.82831 0.528785 2.82832 0.381823 2.75439C0.16138 2.68047 -0.059063 2.4587 0.014418 2.163C0.014418 2.08908 0.0878855 2.01516 0.161366 2.01516C0.381809 1.94124 0.602266 1.94123 0.749228 1.94123C0.89619 1.94123 0.969671 1.94123 1.11663 1.94123L1.19012 1.8673C1.19012 1.79338 1.26358 1.71947 1.26358 1.64554C1.26358 1.20201 1.2636 0.758464 1.19012 0.314925C1.11664 0.093155 1.41056 -0.0546981 1.55752 0.0192251C1.70449 0.0931483 1.85143 0.167078 1.99839 0.314925C2.07187 0.388848 2.14536 0.53669 2.14536 0.610613C2.14536 0.906306 2.14536 1.12808 2.14536 1.42377C2.14536 1.4977 2.14537 1.64554 2.21885 1.71946L2.29233 1.79339C2.36581 1.79339 2.51277 1.79339 2.58625 1.79339C2.8067 1.71947 3.10062 1.71947 3.32106 1.64554C3.54151 1.57162 3.76194 1.57162 3.98239 1.64554C4.20283 1.71947 4.34978 2.08908 4.20282 2.31085C4.05586 2.45869 3.90891 2.60654 3.76195 2.60654C3.32107 2.68046 2.80668 2.90224 2.3658 2.90224C2.21883 2.90224 2.14536 2.97615 2.07188 3.19792C2.07188 3.49362 1.99839 3.71539 1.99839 4.01108C1.99839 4.52855 1.92493 5.046 1.92493 5.56346C1.92493 6.007 1.92491 6.37662 2.07188 6.74624C2.07188 6.82016 2.14536 6.89409 2.14536 6.96801C2.21884 7.11586 2.3658 7.18977 2.51277 7.04193C2.65973 6.968 2.73321 6.82016 2.88017 6.74624C3.10061 6.52447 3.5415 6.67232 3.61498 6.96801C3.61498 7.04193 3.61498 7.11586 3.61498 7.18978C3.46802 7.78117 2.80668 8.15078 2.3658 8.15078C1.99839 8.15078 1.70448 8.00293 1.48404 7.63332C1.19011 7.18978 1.04315 6.74624 1.04315 6.22878C1.04315 5.93309 1.04315 5.71131 1.04315 5.41562C1.04315 5.046 1.04315 4.82424 1.04315 4.60247Z" transform="translate(226.454 120.336)" fill="#2E555B"/>
<path d="M1.61659 1.87708C1.61659 1.95101 1.61658 2.02493 1.5431 2.02493C1.32266 2.83808 1.32265 2.98593 1.46962 3.79908C1.5431 4.09477 1.5431 4.46439 1.46962 4.76008C1.39613 5.20362 1.32266 5.57324 1.24918 6.01678C1.24918 6.23855 1.17569 6.46032 1.10221 6.60816C1.02873 6.82993 0.734814 6.97778 0.514371 6.82994C0.293928 6.68209 0.146962 6.53425 0.073481 6.31248C0 6.09071 -4.48492e-06 5.79501 -4.48492e-06 5.57324C0.0734765 4.53832 0.0734855 3.50339 0.146966 2.46846C0.146966 2.32061 0.146962 2.17278 0.073481 2.02493C0 1.43354 0 0.916079 0.073481 0.324693C0.073481 0.25077 0.0734855 0.250772 0.146966 0.176849C0.220447 0.102926 0.220445 0.102928 0.293926 0.0290049C0.514369 -0.0449183 0.734808 0.0290027 0.955251 0.176849C1.02873 0.250772 1.10221 0.324691 1.10221 0.472537C1.10221 0.546461 1.24917 0.620381 1.32266 0.620381C1.5431 0.546458 1.76354 0.546461 1.91051 0.472537C2.42487 0.324691 2.93924 0.398619 3.38013 0.546465C3.45361 0.546465 3.60056 0.694314 3.67404 0.768237C3.74753 0.84216 3.82101 0.990002 3.74753 1.06393C3.74753 1.13785 3.74753 1.13785 3.67404 1.21177C3.60056 1.43354 3.52708 1.43354 3.30664 1.43354C3.15968 1.43354 2.93924 1.35962 2.79227 1.2857C2.64531 1.2857 2.57183 1.21177 2.42487 1.2857C2.27791 1.50747 1.91051 1.58139 1.61659 1.87708Z" transform="translate(109.487 121.583)" fill="#2E555B"/>
<path d="M1.33403 2.56884C1.26055 3.01237 1.26055 3.52984 1.33403 4.0473C1.33403 4.56476 1.26055 5.15615 1.18707 5.67361C1.04011 6.33892 1.11358 6.9303 1.33403 7.52169C1.40751 7.66953 1.48098 7.74346 1.62795 7.74346C1.84839 7.66954 2.14231 7.66954 2.36276 7.74346C2.50972 7.74346 2.58321 7.81737 2.65669 7.96522C2.73017 8.11307 2.73017 8.26091 2.65669 8.33484C2.50973 8.48268 2.43624 8.55661 2.28928 8.63054C1.8484 8.70446 1.40751 8.70445 0.966623 8.55661C0.599218 8.40876 0.452249 8.11307 0.305287 7.81738C0.231806 7.59561 0.158334 7.29991 0.084853 7.07814C0.011372 6.6346 -0.062109 6.19107 0.084853 5.67361C0.231815 5.08222 0.231806 4.41691 0.305287 3.82553C0.305287 3.30807 0.305291 2.71668 0.378772 2.19922C0.452253 1.53391 0.525739 0.868598 0.452258 0.277212C0.452258 0.203289 0.525737 0.129363 0.599218 0.0554401C0.74618 -0.0184831 0.893135 -0.0184831 1.0401 0.0554401C1.18706 0.129363 1.33403 0.203287 1.33403 0.425056C1.33403 0.572903 1.40751 0.720753 1.33403 0.8686C1.33403 1.16429 1.33403 1.45998 1.33403 1.68175C1.40751 1.82959 1.33403 2.19922 1.33403 2.56884Z" transform="translate(144.82 119.413)" fill="#2E555B"/>
<path d="M5.51107 0.632454C5.51107 0.632454 5.51107 0.780303 5.43758 0.854226C5.29062 1.076 5.14366 1.22384 5.07018 1.44561C4.84974 1.96308 4.48235 2.40661 4.26191 2.85015C4.04146 3.36761 3.74754 3.81115 3.5271 4.32861C3.30665 4.77215 3.01273 5.28961 2.79229 5.73315C2.71881 5.95492 2.57184 5.95493 2.3514 5.881C2.20443 5.80708 2.05747 5.73315 1.98399 5.58531C1.76355 5.21569 1.61658 4.84607 1.46962 4.47646C1.32265 4.10684 1.10221 3.73723 1.10221 3.29369C0.808286 2.40662 0.587848 1.51954 0.073481 0.706382C0.073481 0.632458 -4.48492e-06 0.558533 -4.48492e-06 0.48461C-4.48492e-06 0.410687 0.0734855 0.18891 0.146966 0.18891C0.367409 0.114987 0.661324 0.114996 0.734805 0.336766C0.881767 0.632459 1.02873 0.854221 1.1757 1.14991C1.39614 1.7413 1.61658 2.33269 1.83702 2.92408C1.98398 3.29369 2.05746 3.73723 2.13094 4.10684C2.13094 4.25469 2.20443 4.32862 2.27791 4.40254C2.27791 4.40254 2.3514 4.47646 2.42488 4.40254C2.49836 4.32862 2.57183 4.25469 2.64532 4.18077C2.86576 3.73723 3.01271 3.29369 3.23315 2.85015C3.23315 2.77623 3.30664 2.7023 3.30664 2.62838C3.74753 1.96307 4.11494 1.29776 4.48234 0.632454C4.55582 0.484608 4.62929 0.410684 4.70277 0.262838C4.92322 -0.0328548 4.99672 -0.032857 5.36412 0.0410662C5.4376 0.262836 5.51107 0.336761 5.51107 0.632454Z" transform="translate(234.037 122.014)" fill="#2E555B"/>
<path d="M-4.48492e-06 6.20954C-4.48492e-06 5.91385 0.073481 5.61816 0.073481 5.32247C0.073481 4.87893 0.146966 4.43539 0.146966 3.99185C0.146966 3.54831 0.146966 3.17869 0.146966 2.73516C0.146966 2.36554 0.220434 1.99592 0.293915 1.62631C0.367396 1.18277 0.440886 0.739232 0.440886 0.369616C0.440886 0.295693 0.440886 0.221767 0.440886 0.147844C0.440886 0.0739209 0.587839 0 0.66132 0C1.02872 0.0739232 1.24918 0.295688 1.24918 0.665304C1.24918 1.10884 1.24918 1.47846 1.1757 1.84808C1.10221 2.29162 1.02872 2.73516 1.02872 3.1787C0.955244 3.99185 0.955262 4.80501 0.955262 5.61817C0.955262 6.13563 0.955262 6.65309 0.955262 7.17055C0.955262 7.24447 0.955262 7.39232 0.955262 7.46625C1.02874 7.76194 1.10222 7.83586 1.32267 7.76194C1.39615 7.76194 1.39613 7.68801 1.46962 7.68801C1.83702 7.61408 2.05746 7.76193 2.20443 8.05762C2.27791 8.27939 2.20444 8.35332 2.05748 8.50117C1.984 8.57509 1.9105 8.64902 1.76353 8.72294C1.69005 8.79686 1.61658 8.79686 1.5431 8.79686C1.24918 8.79686 1.02873 8.72294 0.808291 8.5751C0.661329 8.50117 0.587848 8.35333 0.440886 8.20548C0.146962 7.90979 -4.48492e-06 7.61409 -4.48492e-06 7.24448C0.0734765 7.02271 -4.48492e-06 6.57916 -4.48492e-06 6.20954Z" transform="translate(189.948 119.32)" fill="#2E555B"/>
<path d="M1.02873 3.07941C1.02873 3.30118 1.02872 3.52295 0.955244 3.81864C0.955244 3.96649 0.955244 4.11433 0.955244 4.26218C0.955244 4.77964 0.881781 5.29711 0.881781 5.81457C0.881781 5.96241 0.808295 6.11025 0.808295 6.2581C0.808295 6.40595 0.66132 6.47987 0.587839 6.47987C0.440877 6.5538 0.293915 6.5538 0.220434 6.40596C0.073472 6.25811 0 6.11025 0 5.88848C0 5.74064 4.48383e-06 5.66671 0.0734855 5.51887C0.220447 4.55787 0.293919 3.59687 0.293919 2.56194C0.293919 2.41409 0.293919 2.34017 0.293919 2.19232C0.220438 1.60094 0.220434 0.935631 0.220434 0.344245C0.220434 0.196399 0.220443 0.12248 0.367405 0.0485568C0.514367 -0.0253664 0.661329 -0.0253619 0.73481 0.122484C0.808291 0.196408 0.881763 0.34425 0.955244 0.418173C0.955244 0.418173 0.955248 0.492094 1.02873 0.566017C1.02873 0.63994 1.10222 0.639945 1.1757 0.639945C1.24918 0.639945 1.24917 0.63994 1.32265 0.566017C1.61657 0.270324 2.05746 0.196403 2.49835 0.0485568C2.93923 -0.0253664 3.30664 0.0485522 3.67405 0.344245C3.74753 0.418168 3.82102 0.639938 3.82102 0.713861C3.74754 1.00955 3.4536 1.15741 3.15967 1.00956C2.93923 0.861714 2.79228 0.86171 2.57183 0.935633C2.35139 1.00956 2.20444 1.08349 1.984 1.23133C1.76355 1.30526 1.61659 1.52702 1.54311 1.74879C1.54311 1.82272 1.46962 1.89664 1.46962 1.97056C0.955253 2.26626 0.955248 2.63587 1.02873 3.07941Z" transform="translate(215.373 121.859)" fill="#2E555B"/>
<path d="M1.32266 3.64996C1.39614 4.24134 1.32266 4.75881 1.32266 5.35019C1.32266 5.49804 1.32266 5.64588 1.24918 5.86765C1.17569 6.23727 0.73481 6.38512 0.440886 6.16335C0.367405 6.08943 0.220442 5.94157 0.146961 5.86765C0.0734799 5.79373 0.0734821 5.64589 1.12123e-06 5.57196C1.12123e-06 5.49804 1.12123e-06 5.49804 1.12123e-06 5.42412C0.146963 4.16742 0.146962 2.8368 0.073481 1.5801C0.073481 1.13656 0.0734821 0.693034 1.12123e-06 0.249495C1.12123e-06 0.175572 0.0734787 0.0277235 0.220441 0.0277235C0.514365 -0.0461997 0.808293 0.0277257 1.02874 0.249495C1.10222 0.323418 1.1757 0.397337 1.1757 0.545184C1.1757 0.69303 1.1757 0.766953 1.1757 0.914799C1.1757 1.28442 1.24918 1.5801 1.24918 1.94972C1.32266 2.39326 1.24918 2.91073 1.24918 3.35427C1.32266 3.35427 1.32266 3.50211 1.32266 3.64996Z" transform="translate(60.9893 122.471)" fill="#2E555B"/>
<path d="M8.96985e-06 4.36146C0.07349 3.40046 0.146962 2.51339 0.220443 1.55239C0.220443 1.2567 0.220443 0.961004 0.220443 0.591388C0.220443 0.443541 0.220447 0.295691 0.293928 0.147844C0.293928 0.0739209 0.440881 0 0.514362 0C0.734805 0 0.955257 0.0739187 1.02874 0.295688C1.10222 0.443535 1.10222 0.591386 1.10222 0.739232C1.10222 1.18277 1.10222 1.62631 1.10222 2.06985C1.02874 2.58731 1.02873 3.1787 0.955253 3.69616C0.881772 4.1397 0.881772 4.58324 0.955253 4.95285C0.955253 5.1007 0.955248 5.24854 0.881767 5.47031C0.808286 5.54424 0.661329 5.61816 0.587848 5.54424C0.440886 5.47032 0.367405 5.32247 0.220443 5.24855C0.146962 5.17463 0.146957 5.1007 0.146957 5.02678C-4.4893e-06 4.87893 8.96985e-06 4.58323 8.96985e-06 4.36146Z" transform="translate(231.318 122.277)" fill="#2E555B"/>
<path d="M0.440888 0.0739255C0.808293 0.0739255 1.02874 0.147851 1.1757 0.295697C1.32266 0.443544 1.32266 0.591383 1.24918 0.73923C1.1757 0.887076 1.02873 1.03492 0.881773 1.10885C0.808292 1.18277 0.73481 1.18277 0.587848 1.10885C0.220443 0.960999 0.0734787 0.665313 -2.24246e-06 0.295697C-2.24246e-06 0.147851 0.073481 -2.25596e-06 0.220443 -2.25596e-06C0.367405 0.0739209 0.440888 0.0739255 0.440888 0.0739255Z" transform="translate(61.2097 119.468)" fill="#2E555B"/>
<path d="M0.396232 2.25596e-06C0.543194 0.0739255 0.69016 0.0739232 0.837122 0.147846C0.984084 0.22177 1.13104 0.443544 1.05756 0.59139C0.984075 0.81316 0.837113 0.961006 0.690151 0.961006C0.543189 0.961006 0.396223 0.960997 0.249261 0.813151C0.17578 0.665304 0.102308 0.591381 0.0288269 0.443535C-0.044654 0.295688 0.0288359 0.147842 0.175798 0.0739187C0.249279 0.0739187 0.24927 2.25596e-06 0.396232 2.25596e-06Z" transform="translate(231.51 119.912)" fill="#2E555B"/>
</svg>
