<svg width="375" height="102" viewBox="0 0 375 102" fill="none" xmlns="http://www.w3.org/2000/svg">
<path d="M4.80843 34.1185C3.73232 58.1772 2.70299 82.189 1.62687 106.248C-0.618928 155.772 -2.67758 206.328 11.0312 253.929C29.0444 247.973 48.1337 256.743 66.4744 261.574C91.0847 268.046 116.958 267.295 142.411 266.451C171.232 265.466 200.1 264.435 228.734 260.589C247.683 258.056 266.491 254.305 285.581 253.554C307.43 252.71 329.233 255.758 351.083 257.025C374.664 258.385 398.339 257.54 421.966 256.743C424.118 256.649 426.364 256.556 428.236 255.477C431.698 253.413 432.447 248.864 432.915 244.878C436.611 210.83 440.26 176.735 443.956 142.687C445.407 129.275 446.857 115.862 447.653 102.355C449.477 71.121 447.653 39.7463 445.828 8.51224C445.688 6.07355 445.454 3.35346 443.676 1.61824C441.196 -0.773557 437.172 -0.0231891 433.804 0.774076C404.374 7.62118 374.725 6.40183 344.5 5.97975C322.837 5.65147 300.225 3.16587 278.656 5.13559C200.5 0.774076 133.942 8.98122 61.5617 5.97975C49.9584 5.51077 37.9808 5.04179 27.1261 9.12192C16.2714 13.202 6.58636 22.9099 6.44599 34.5406" transform="translate(-47 102) scale(1 -1)" fill="#DB786F"/>
<path d="M6.1063 62.1075C2.41008 86.4475 0.257854 111.022 0.0239159 135.643C-0.210022 159.608 1.28718 183.526 3.8605 207.304C5.40449 221.373 7.27599 235.442 9.33464 249.418C9.38143 249.652 9.61537 249.887 9.80252 249.887C63.3743 259.736 117.975 264.05 172.436 262.549C199.947 261.799 227.318 259.22 254.735 256.453C282.246 253.686 309.758 251.106 337.456 251.2C368.663 251.341 399.87 253.123 431.078 254.248C431.405 254.248 431.686 254.014 431.733 253.733C445.02 205.803 445.395 155.669 446.143 106.192C446.518 81.4763 446.985 56.7142 449.231 32.0459C449.793 25.7615 450.495 19.4772 451.29 13.2398C451.805 9.48794 453.255 3.71949 449.512 1.09321C447.921 -0.0323454 445.909 -0.0323454 444.038 0.0145526C440.716 0.108349 437.347 0.342839 434.025 0.577328C427.662 0.99941 421.299 1.56219 414.936 1.98427C362.908 5.73611 310.74 3.67259 258.666 2.40635C232.745 1.74978 206.778 1.3277 180.811 1.98427C167.757 2.31255 154.75 2.87533 141.697 3.81329C128.69 4.75125 115.73 6.48647 102.676 7.14304C96.2659 7.47133 89.8092 7.51823 83.3993 6.90856C76.9894 6.34578 70.6731 5.07953 64.3568 3.95398C53.736 2.07806 42.8345 0.577328 32.167 3.15672C22.9498 5.36092 14.762 10.6604 10.2704 19.1958C5.82557 27.6844 5.31091 37.5798 5.45127 46.9594C5.54485 52.0244 5.82557 57.1363 5.96594 62.2013C6.01272 63.0923 7.41635 63.0923 7.36956 62.2013C6.90169 43.2545 3.72013 18.3986 23.5581 7.84651C32.9156 2.87533 43.9106 2.54704 54.2039 3.81329C66.4622 5.26713 78.3463 8.45619 90.745 8.73758C103.331 9.06586 115.87 7.47133 128.362 6.29888C140.901 5.12643 153.487 4.32917 166.026 3.86019C191.198 2.82843 216.416 2.96913 241.588 3.4381C291.978 4.42296 342.462 6.86166 392.852 4.65745C405.391 4.09468 417.884 3.10982 430.376 2.21876C433.417 1.98427 436.411 1.79668 439.453 1.60908C442.353 1.46839 447.734 0.295941 449.606 3.20361C451.009 5.36092 450.448 8.45619 450.167 10.848C449.793 13.5212 449.465 16.1944 449.138 18.9144C446.284 43.02 445.395 67.3131 444.927 91.6063C443.991 139.958 444.786 188.873 434.54 236.38C433.323 242.102 431.92 247.777 430.329 253.404C430.563 253.217 430.797 253.076 430.984 252.888C410.632 252.138 390.279 251.388 369.973 250.637C349.854 249.887 329.829 249.465 309.711 250.497C269.473 252.56 229.517 258.563 189.28 260.533C149.51 262.456 109.554 261.377 69.9713 257.203C59.912 256.124 49.8527 254.905 39.8401 253.451C34.7403 252.701 29.6404 251.904 24.5406 251.059C22.2948 250.684 20.049 250.309 17.8032 249.934C16.5867 249.746 15.417 249.512 14.2005 249.277C13.1244 249.09 11.1594 249.137 10.5043 248.105C9.98967 247.308 10.0832 245.338 9.98967 244.4C9.80252 243.181 9.61537 241.961 9.475 240.742C9.1007 238.162 8.77319 235.63 8.39889 233.051C7.69708 227.939 7.04205 222.827 6.43381 217.715C5.31091 208.382 4.32837 199.05 3.53298 189.717C0.398216 152.433 0.725729 114.961 5.3577 77.7714C6.01272 72.6595 6.71454 67.5476 7.46314 62.4358C7.6035 61.5916 6.24666 61.2164 6.1063 62.1075Z" transform="translate(-49 100.068) scale(1 -1)" fill="black"/>
</svg>
