<svg width="29" height="28" viewBox="0 0 29 28" fill="none" xmlns="http://www.w3.org/2000/svg">
<path d="M12.5578 25.9253C8.04139 22.552 4.18593 18.2253 1.28515 13.2753C0.84453 12.542 0.440624 11.8086 0.220312 10.9653C0.0367187 10.232 3.50177e-08 9.4253 3.50177e-08 8.65529C3.50177e-08 7.84863 0.0367187 7.04196 0.257031 6.27196C0.697655 4.76862 1.79922 3.59528 2.90078 2.56861C4.11249 1.43195 5.47109 0.295276 7.08671 0.148609C9.36327 -0.0347243 11.3094 1.72528 12.8515 3.48528C13.439 2.34861 14.2101 1.28528 15.3117 0.698611C15.9726 0.331943 16.7437 0.148609 17.5148 0.075276C19.314 -0.144724 21.1867 0.111943 22.839 0.918611C24.4914 1.72528 25.9234 3.19195 26.6578 4.95195C27.3921 6.74862 27.3921 8.83863 26.8046 10.7086C26.2171 12.5786 25.0789 14.2286 23.7203 15.5486C22.3984 16.7953 15.3851 24.1653 12.7047 25.8887" transform="translate(1.62549 2.07466)" fill="#DB786F"/>
<path d="M13.9266 26.02C9.41024 22.5733 4.71024 17.8433 2.39697 12.6C0.891499 9.22662 2.32353 6.03662 4.93055 3.76328C6.21571 2.62661 7.68446 1.59994 9.48367 2.14994C11.0259 2.62661 12.1641 3.90994 13.1923 5.08328C13.5962 5.52328 14.3673 5.37661 14.6243 4.89995C15.9094 2.62661 17.6719 1.70994 20.3157 1.89327C22.629 2.03994 24.8321 3.13994 26.1172 5.08328C28.5774 8.78662 26.5211 13.1866 23.6938 16.01C20.3157 19.3833 17.0477 23.3433 13.0821 25.9833C12.0907 26.6433 13.0087 28.22 14.0001 27.56C16.9008 25.6533 19.361 22.9767 21.8212 20.52C24.0977 18.21 26.8516 15.9733 28.1735 12.93C29.9727 8.67662 28.8344 3.72661 24.7586 1.30661C22.8126 0.169937 20.4626 -0.196731 18.2594 0.0966032C15.7259 0.426604 14.2204 1.81994 13.0087 3.94661C13.486 3.87328 13.9634 3.83661 14.4407 3.76328C12.2009 1.23327 9.18992 -0.966733 5.8118 0.829938C2.76415 2.40661 0.193844 5.48662 0.0102503 8.96996C-0.173343 12.9666 2.13993 16.12 4.48993 19.2C6.95008 22.39 9.81414 25.1767 13.0087 27.6333C13.9266 28.33 14.8446 26.7533 13.9266 26.02Z" fill="black"/>
</svg>
