<svg width="114" height="227" viewBox="0 0 114 227" fill="none" xmlns="http://www.w3.org/2000/svg">
<path d="M0.773839 0C2.32604 1.64823 2.27898 4.19122 2.74935 6.40455C3.596 10.219 6.23006 13.5155 6.79449 17.377C6.9356 18.366 6.93561 19.3549 7.12376 20.3439C7.45301 22.6043 8.58188 24.6764 9.61668 26.7013C12.0626 25.0531 13.3326 22.2276 14.5555 19.4962C16.8133 14.3631 19.071 9.23008 21.3287 4.14412C21.6109 3.53192 21.8932 2.91972 22.4106 2.49589C22.928 2.07205 23.7276 1.93078 24.245 2.35461C24.5272 2.59008 24.6683 2.96682 24.7624 3.34355C25.8913 6.68711 27.0672 10.0307 28.1961 13.3271C28.5253 14.269 28.8546 15.2108 29.3249 16.0585C30.2186 17.5654 31.6768 18.8369 31.8179 20.5793C31.8649 21.427 31.5827 22.2746 31.2534 23.0752C30.4068 25.1002 29.372 27.0781 28.055 28.8676C25.562 32.3524 22.3165 35.225 19.118 38.0506C16.437 40.4052 13.8029 42.7598 11.1219 45.0673C10.5574 42.6656 10.04 40.2639 8.91113 38.0506C8.39373 37.0145 7.73522 36.0256 7.50004 34.9425C7.3119 34.0948 7.31188 33.153 6.74744 32.4937C6.46522 32.164 6.08894 31.9757 5.75969 31.6931C4.63081 30.7042 4.72489 28.8205 3.73713 27.6432C3.45491 27.2664 3.03156 26.9839 2.74935 26.6071C2.27898 25.9949 2.13787 25.1944 2.0438 24.4409C0.773816 16.5765 -0.449131 8.61788 0.162343 0.659289" transform="translate(50.7861 163.851)" fill="#2E555B"/>
<path d="M0.00166612 36.4494C-0.0924067 32.3995 3.81161 29.2914 4.61123 25.2886C4.75234 24.5822 4.79939 23.8287 5.12865 23.1694C5.36383 22.6514 5.7401 22.2746 6.02232 21.8037C6.7749 20.5793 6.96306 19.1195 7.05713 17.7067C7.29231 14.0806 7.01009 10.4074 6.1164 6.87548C5.55196 4.61505 4.75236 2.35462 4.98754 2.87428e-06C7.95084 1.36568 10.2556 3.81447 12.4663 6.21618C14.1596 8.05277 15.8529 9.88938 17.5462 11.726C18.6281 12.9033 19.757 14.1277 20.7447 15.4463C22.2969 17.5183 23.5199 19.8259 24.6958 22.1334C25.9187 24.488 27.1417 26.7955 28.3176 29.1501C29.1172 30.7042 29.9639 32.3053 30.152 34.0477C31.5631 34.0948 32.739 33.153 33.8209 32.2111C38.3364 28.2083 42.6167 23.9229 46.4266 19.2136C47.5555 17.8009 48.6373 16.3881 49.531 14.787C50.8951 12.3853 51.6947 9.70101 53.1058 7.29931C53.9054 5.93363 55.0343 4.61504 56.5865 4.42667C57.3391 4.33249 58.0916 4.52086 58.7972 4.75633C60.1612 5.22725 61.4312 6.02781 62.1368 7.29931C62.8423 8.5708 62.7012 10.3132 61.5723 11.208C61.0079 11.6318 60.2553 11.8202 59.6438 12.1969C58.3739 12.9033 57.6213 14.3631 57.292 15.7759C56.9628 17.1887 56.9628 18.6956 56.7746 20.1555C56.2572 24.1583 54.2347 27.8315 52.4473 31.4576C49.7662 36.8262 47.4614 42.3831 45.58 48.0341C45.4389 48.4109 45.2977 48.8347 45.0155 49.1172C44.357 49.8236 43.1811 49.6353 42.2404 49.3527C39.8885 48.7405 37.5367 48.1283 35.1379 47.469C33.8679 47.1394 32.5979 46.8097 31.3279 46.433C23.9432 44.3609 16.8407 41.4883 9.69119 38.804C6.53975 37.6267 3.34127 36.4965 0.0487198 35.8372" transform="translate(31.7558 174.965)" fill="#F8D24F"/>
<path d="M0.28223 6.6871C0.893703 4.94469 2.82217 4.14412 4.60956 3.81448C6.30287 3.48483 8.04323 3.43774 9.73654 3.6261C11.1476 3.76738 12.5587 4.14412 13.9698 4.33249C15.522 4.52086 17.1213 4.56795 18.6735 4.56795C21.6368 4.56795 24.6 4.52086 27.5163 4.37958C28.6452 4.33249 29.7741 4.2854 30.8559 3.90866C31.9848 3.48483 32.9725 2.73135 33.9603 1.97787C34.807 1.31858 35.6536 0.659292 36.5003 0C36.6884 2.87263 36.7354 5.74526 36.6884 8.66498C36.6884 9.37136 36.6414 10.1248 36.3591 10.7841C36.0299 11.4905 35.3714 12.0085 34.7599 12.5266C33.7722 13.3271 32.7844 14.0806 31.7026 14.6457C30.1504 15.3992 28.363 15.6346 26.6226 15.823C23.8004 16.1527 20.9312 16.4823 18.062 16.1527C15.0046 15.823 12.0413 14.787 9.40728 13.1387C6.25584 11.1609 3.57476 8.24115 -5.74175e-06 7.25221" transform="translate(66.3293 80.0269)" fill="#2E555B"/>
<path d="M0.616959 17.769C-0.0415504 17.8632 -0.182654 18.8993 0.240674 19.4173C0.664002 19.9353 1.41657 20.0766 2.07508 20.2178C4.23875 20.7359 6.26131 21.7719 8.33092 22.5254C10.4005 23.3259 12.6583 23.8439 14.822 23.373C16.7975 22.9492 18.4908 21.7719 20.1371 20.5946C20.9837 19.9824 21.8774 19.3702 22.7241 18.758C23.3826 18.2871 24.0411 17.8161 24.6055 17.251C25.0759 16.7801 25.4992 16.215 25.9696 15.6499C27.1455 14.19 28.3685 12.8243 29.6384 11.4587C31.5199 9.4808 33.4484 7.50292 35.8002 6.18434C38.152 4.86575 41.1153 4.30065 43.6553 5.24249C42.5734 3.45298 41.3975 1.5222 39.5161 0.627446C37.8228 -0.173123 35.8943 -0.031845 34.0128 0.109432C30.6732 0.391986 27.2396 0.721634 24.3233 2.32277C23.3826 2.84079 22.4889 3.50008 21.7363 4.30065C21.0307 5.00703 20.4663 5.8076 19.8548 6.60817C17.5971 9.43371 14.7749 11.7412 11.9998 14.0487C10.3065 15.4615 8.51907 16.8743 6.40243 17.5807C5.03838 18.0045 3.53321 18.1458 2.07508 17.8632C1.65175 17.769 1.18139 17.6749 0.758063 17.8161C0.334735 17.9574 0.0525052 18.5225 0.334724 18.8522" transform="translate(68.7226 37.5813)" fill="#F2B1AA"/>
<path d="M5.31906 27.5961C5.41313 25.524 5.46017 23.452 5.55424 21.3799C5.60128 20.4381 5.60127 19.402 5.1309 18.5544C4.37832 17.2358 2.73205 16.7649 1.46207 15.9172C0.192086 15.0695 -0.654576 12.9975 0.662444 12.1498C1.36799 11.6789 2.30874 11.9143 3.1554 11.9143C6.16573 11.8202 7.76497 8.5237 9.50531 6.0749C9.97568 5.41561 10.4931 4.75632 11.2927 4.56795C11.669 4.47377 12.0923 4.47377 12.4686 4.47377C18.8185 4.56795 25.2155 3.01391 30.8128 4.49107e-08C32.8824 11.0196 33.2587 23.0281 27.7554 32.7762C27.5203 33.2001 27.238 33.671 26.8147 33.9535C26.2503 34.3303 25.5918 34.3774 24.9333 34.4716C20.794 34.8954 16.89 36.4965 12.986 38.0506C15.9022 35.3663 19.1478 33.1059 22.6755 31.3164C20.747 30.9396 19.524 29.1501 18.0659 27.8315C15.2908 25.3356 11.1046 24.5351 7.62386 25.8537C7.10646 26.042 6.49498 26.3246 5.97758 26.1362C4.56649 25.7124 5.08388 23.5461 6.11869 22.463" transform="translate(78.7429 2.27734)" fill="#DB786F"/>
<path d="M11.7354 52.037C7.50211 50.3887 3.26884 47.7987 1.38738 43.7016C0.21147 41.1587 0.0703492 38.2389 0.0233128 35.4134C-0.0237236 33.7181 -0.0237236 32.0228 0.258495 30.3274C0.728859 27.5961 1.99885 25.1002 3.26884 22.6043C4.35067 20.4851 5.47954 18.3189 7.31396 16.7649C8.72505 15.5875 10.5124 14.8812 11.8765 13.6568C13.0524 12.6678 13.9461 11.3492 15.075 10.2661C16.2509 9.18299 17.662 8.38243 19.0731 7.58186C22.836 5.5098 26.8341 3.34355 31.1144 3.48483C32.0081 3.53192 32.9018 3.62611 33.6544 3.20228C34.6892 2.59008 34.9244 1.17731 34.8773 -4.49107e-08C36.9469 2.02497 39.1576 4.47377 38.7813 7.3464C38.405 10.3132 35.3947 12.1498 32.5725 13.1387C30.55 13.8451 28.4804 14.3161 26.4108 14.5986C26.0345 14.6457 26.0815 15.6817 25.7993 15.3992C25.6582 15.2579 25.9874 16.9532 25.8463 16.8119C25.423 16.4352 24.7645 16.859 24.5763 17.3771C24.4352 17.8951 24.2471 18.6015 24.3411 19.1666C24.6234 20.8619 23.3534 19.6375 22.4127 21.0973C21.4719 22.5572 20.2019 23.7345 18.979 25.006C16.9094 27.2193 15.075 29.621 13.2876 32.0228C12.7232 32.7762 12.1587 33.5297 11.8295 34.3774C11.5002 35.3192 11.4532 36.3552 11.4061 37.3913C11.3121 39.8872 11.265 42.4301 12.2998 44.6906C13.0995 46.433 14.5576 48.2225 13.852 49.9649C13.4287 51.0009 12.3939 51.6602 11.4061 52.1783" transform="translate(51.7247 0.723389)" fill="#F2B1AA"/>
<path d="M1.41588 18.9044C2.07439 15.7492 2.68588 12.594 3.34439 9.43882C3.90883 6.61329 4.28511 3.22264 6.82507 1.38604C6.49582 1.05639 6.16657 0.726745 5.83732 0.397099C4.56734 2.98717 4.99066 5.62434 6.0725 8.21442C6.77805 9.95683 7.81284 11.6522 8.33024 13.4888C9.03579 15.9376 8.94173 18.3393 8.3773 20.7881C8.18915 21.6828 9.55319 22.0596 9.74134 21.1648C10.4469 18.0567 10.4469 14.9486 9.27097 11.9347C7.95395 8.49697 5.22583 4.87087 7.06025 1.10348C7.34247 0.538376 6.73101 -0.309288 6.0725 0.114542C3.86179 1.66859 3.01513 4.0703 2.45069 6.61329C1.557 10.5219 0.851446 14.5248 0.00479074 18.4805C-0.0892821 19.4224 1.22774 19.7991 1.41588 18.9044Z" transform="translate(38.714 194.017)" fill="black"/>
<path d="M0.670263 5.98251C8.05498 5.93542 14.7342 2.16803 22.0248 1.50874C29.3625 0.849449 36.512 2.92152 43.3323 5.4645C50.2937 8.05458 57.0669 11.2098 64.2165 13.2347C71.1308 15.2126 78.2804 16.2957 85.4299 16.5312C93.7553 16.7667 102.034 15.7306 110.077 13.5644C110.971 13.3289 110.594 11.9632 109.701 12.1987C94.9783 16.2486 79.2681 16.1074 64.5928 11.9161C51.2815 8.10166 38.6757 -0.13948 24.4707 0.00179642C16.2393 0.095981 8.8546 4.52265 0.670263 4.56974C-0.223429 4.56974 -0.223429 5.98251 0.670263 5.98251Z" transform="translate(0.983826 210.282)" fill="black"/>
<path d="M0.853452 17.0321C0.147905 16.5141 -0.0402347 15.6664 0.00680171 14.8188C0.0538381 13.9711 0.383082 13.2647 0.759373 12.5583C3.06416 8.08457 5.88635 4.2701 9.41408 0.738175C9.6963 0.455621 9.93147 0.173066 10.3078 0.0788819C11.2955 -0.203672 12.1892 0.314344 12.8948 0.973636C14.3059 2.24513 15.811 3.32825 16.3284 5.25903C16.9399 7.51946 16.2814 9.63861 15.2466 11.7107C13.7885 14.7246 11.907 17.2676 9.22593 19.2925C8.00298 20.2344 6.78003 20.7995 5.13375 20.6582C3.06415 20.4698 2.12345 18.9629 1.04161 17.3617" transform="translate(67.4511 29.9829)" fill="#C7E4DD"/>
<path d="M4.08334 31.5989C3.61297 30.2803 3.66003 28.8205 4.13039 27.5961C4.64779 26.3246 5.35333 25.3356 6.15295 24.2996C7.79923 22.0863 9.44551 19.9671 11.5151 18.1305C12.0796 17.6125 12.644 17.1416 13.3966 17.0003C14.8077 16.7178 15.9836 17.3771 17.1124 18.1776C18.9468 19.4491 20.6872 20.8619 20.9224 23.2165C21.0635 24.3938 20.5931 25.3827 20.0757 26.4188C18.7587 29.0088 17.0184 31.1751 14.7606 33.0588C13.7258 33.9535 12.644 34.6599 11.2799 35.1308C10.3392 35.4605 9.53958 35.3192 8.59885 36.1198C7.70516 36.8733 6.90554 38.0977 6.71739 39.3691C6.71739 39.4633 6.71739 39.5575 6.71739 39.6046C6.76443 39.6517 6.81146 39.6517 6.8585 39.6517C8.45774 39.8872 9.86883 40.0284 11.327 39.1808C12.0325 38.7569 12.8321 38.3802 13.4906 37.9564C17.9591 35.1308 21.722 32.0698 25.4849 27.8315C28.8715 24.0171 33.0108 24.9589 38.467 20.1555C43.9232 15.5875 34.61 15.0695 31.4115 13.3271C30.706 12.9504 30.0945 12.6207 29.3419 12.4795C28.5893 12.3382 30.0475 11.1609 29.2949 11.3021C27.6016 11.6318 31.6467 8.28824 30.0004 8.80626C29.6241 8.94753 29.1538 9.04172 28.9186 8.61789C28.8245 8.47661 28.8716 8.33533 28.9186 8.19406C29.1067 6.7342 21.5809 10.4545 21.3457 8.94753C21.2046 8.09987 22.2864 6.78129 21.8161 6.122C19.9817 3.29646 17.3006 2.21334 14.7606 -3.59286e-07C14.4784 2.73135 12.3147 4.2854 10.9036 6.54583C8.64587 10.1719 6.19999 13.5155 3.56595 16.859C2.39004 18.366 1.21412 19.6846 0.555606 21.5683C-0.00883086 23.1223 -0.0558557 24.6764 0.0382171 26.3717C0.179326 29.3385 0.743775 31.9286 3.04856 33.9535C3.18967 34.0948 3.33077 34.189 3.56595 34.1419C4.03631 34.0477 4.2715 33.4355 4.36557 32.9646C4.45965 32.4937 4.41259 32.0698 4.31852 31.646" transform="translate(63.3278 15.1807)" fill="#DB786F"/>
<path d="M0.141104 121.365C0.282213 109.498 3.38663 98.5251 4.18625 86.6107C4.60958 80.4887 4.13921 73.5191 4.79772 67.3029C5.0329 65.2308 4.89178 62.8291 4.60956 60.9454C4.32734 59.0617 3.38663 57.6019 3.01034 55.9536C2.06961 51.9037 2.44591 46.0643 3.24552 42.4382C5.83253 30.5238 10.9595 8.90846 19.7083 1.04405C20.7901 0.0551077 22.1071 -0.368724 23.3771 0.384753C19.8494 7.35441 16.6039 12.4875 14.6754 20.4932C13.7346 24.4489 13.5465 30.1471 13.8757 34.5267C14.158 38.1057 15.2868 40.8841 15.8042 44.5102C16.6509 50.538 17.9209 56.8484 18.2501 63.1117C18.6735 70.8348 19.0027 79.1231 20.3668 86.6578C20.8842 89.3892 21.4956 91.6967 21.6838 94.1926C21.919 96.6885 21.6838 99.0431 22.0601 101.304C22.4834 103.846 23.8004 105.683 24.2708 108.132C24.7411 110.581 24.506 113.029 24.1767 115.431C23.283 121.318 25.1174 118.257 23.8004 123.955C23.3301 126.121 19.6142 137.094 18.7205 138.977C18.062 140.39 17.1683 141.426 16.5098 142.651C15.569 144.299 14.6754 146.23 14.1109 147.878C12.9821 151.174 12.2765 154.094 10.0188 156.684C8.56062 151.551 3.57477 140.155 1.26999 131.066C-0.282213 124.991 0.517401 119.999 0 118.304" transform="translate(50.9012 43.3809)" fill="#2E555B"/>
<path d="M3.4807 146.581C1.22295 140.506 1.88147 133.49 1.45814 127.132C0.752594 116.489 3.24551 105.705 5.0329 95.2978C7.19657 82.8654 7.24362 70.5272 5.69142 58.0478C4.8918 51.6903 4.28031 45.5683 5.50326 39.258C6.34992 35.0668 7.33768 30.8755 8.56063 26.7785C11.1006 18.2077 14.6754 7.70615 22.2482 2.24344C22.7656 1.8667 23.9886 0.783579 24.4589 2.29053C24.553 2.52599 23.6593 3.65621 23.4712 3.89167C22.8127 4.97479 22.0601 6.05792 21.4016 7.14104C20.0375 9.26019 18.7205 11.4735 17.7798 13.8281C15.7102 18.867 15.1928 24.471 15.0987 29.8866C14.9576 36.0557 15.9453 42.1306 16.6979 48.2526C17.5446 55.2693 18.2972 62.2861 19.0497 69.3028C20.2257 80.4166 21.7308 91.4833 22.8597 102.644C23.6123 110.132 24.0826 117.855 26.1052 125.154C27.093 128.78 28.2218 132.406 29.4918 135.938C30.2915 138.152 31.2792 141.966 33.4899 143.285C34.2895 143.756 34.9951 142.531 34.1955 142.06C33.2547 141.495 32.7373 140.083 32.314 139.188C31.4674 137.445 30.8089 135.562 30.1974 133.725C29.1155 130.617 28.1748 127.462 27.3282 124.307C25.3997 117.337 25.0234 109.896 24.2708 102.691C23.0949 90.9653 21.4957 79.2864 20.2727 67.5604C19.5201 60.5437 18.7675 53.5269 17.8738 46.5102C17.0742 40.1998 16.2746 33.9836 16.6038 27.5791C16.9331 21.41 18.062 15.6647 21.2134 10.2962C22.5305 8.08288 23.9886 5.96373 25.3056 3.79748C26.0582 2.52599 26.8108 0.78358 24.8823 0.124288C21.966 -0.86465 18.0149 4.3155 16.6038 6.19919C13.7817 9.96658 11.7121 14.252 9.97172 18.5845C8.18434 23.1053 6.77325 27.8145 5.59734 32.5238C4.46847 37.1859 3.15143 42.1306 3.29254 46.9811C3.48069 53.6682 4.75069 60.2611 5.22105 66.9011C5.69142 73.6824 5.64438 80.5579 4.89179 87.3392C3.52774 99.6303 0.0470307 111.686 -5.74175e-06 124.165C-5.74175e-06 127.556 0.235171 131.041 0.37628 134.431C0.564425 138.576 0.658521 143.238 2.16369 147.193C2.44591 147.806 3.80996 147.429 3.4807 146.581Z" transform="translate(49.6312 42.417)" fill="black"/>
<path d="M1.4156 14.9846C1.7919 11.8765 2.68558 8.90967 4.52 6.3196C5.46072 5.00102 6.5896 3.77661 7.81254 2.74058C10.1644 0.809799 12.1399 1.65746 14.1625 3.44697C15.8087 4.90683 17.3609 6.13123 16.2791 8.43875C15.5736 9.89861 14.6799 11.2643 13.6451 12.5358C12.7043 13.6189 11.7166 14.6078 10.6347 15.5497C9.22364 16.8212 6.5896 19.6938 4.52 18.9874C3.67334 18.7049 3.29705 20.0705 4.14371 20.3531C6.21331 21.0595 7.81256 19.6938 9.41179 18.4694C11.4814 16.8212 13.4569 15.0788 15.1032 13.0067C16.3732 11.4056 17.8313 9.3806 18.2546 7.30854C18.725 5.28357 16.8435 3.96498 15.4795 2.69349C14.0213 1.37491 12.328 -0.132044 10.2584 0.00923281C8.28291 0.15051 6.5896 1.79874 5.31962 3.11732C2.12114 6.36669 0.521912 10.4637 0.0045113 14.9375C-0.0895615 15.8793 1.32153 15.8793 1.4156 14.9846Z" transform="translate(66.3716 31.7007)" fill="black"/>
<path d="M21.6436 0.217424C18.7274 3.27842 15.7641 6.33942 12.4715 8.97659C9.32009 11.4725 4.99274 14.0155 0.853532 12.4143C0.00687675 12.0847 -0.369409 13.4504 0.477247 13.78C8.9438 17.1236 17.6455 6.43361 22.6314 1.20636C23.2899 0.54707 22.3021 -0.441868 21.6436 0.217424Z" transform="translate(67.9215 42.0413)" fill="black"/>
<path d="M3.69373 33.2407C-1.15102 26.6949 2.6119 19.5369 6.93925 13.9329C8.72664 11.6254 10.5611 9.50624 12.4895 7.38709C14.2769 5.4563 15.7821 3.43133 16.4406 0.888351C16.6758 -0.00640213 15.3117 -0.38314 15.0765 0.511613C14.1358 4.04353 11.4548 6.30396 9.14997 8.89404C6.9863 11.3428 4.86965 14.0742 3.08226 16.8526C-0.257324 22.127 -1.48026 28.6728 2.47079 33.9471C3.03523 34.6535 4.25817 33.9471 3.69373 33.2407Z" transform="translate(62.5411 14.7632)" fill="black"/>
<path d="M11.7382 51.8656C9.95078 49.6522 6.89341 49.3226 4.91788 47.2976C2.66013 44.8959 1.62532 41.5995 1.43718 38.3501C1.24903 34.3473 2.28384 30.2973 3.27161 26.4358C4.25937 22.7155 6.47007 20.1725 9.10411 17.5353C13.7607 12.8261 19.3581 8.68197 25.8961 7.03374C29.0476 6.23317 37.7493 6.09189 35.3034 0.393723C34.9271 0.676277 34.5508 0.958831 34.1745 1.24138C36.7615 3.69018 39.1604 8.35232 35.3504 10.9895C32.8575 12.7319 29.3768 13.6267 26.5546 14.7569C25.708 15.0865 26.0843 16.4522 26.9309 16.1225C29.3298 15.1336 31.7757 14.2389 34.1275 13.2028C35.7738 12.4964 37.2789 11.6017 38.1256 9.90636C39.8659 6.37444 37.7023 2.65415 35.1623 0.205354C34.5508 -0.359753 33.7512 0.346631 34.0334 1.05302C35.7738 5.05586 26.3194 5.29132 24.0617 5.99771C21.2865 6.89246 18.6055 8.21104 16.1596 9.81218C13.6666 11.4604 11.3619 13.3441 9.19818 15.4162C7.03451 17.4882 4.54157 19.7487 3.13047 22.4329C1.62531 25.3055 1.01385 29.0258 0.496447 32.2281C-0.0209539 35.242 -0.256142 38.3972 0.402368 41.4111C0.966805 43.907 2.09569 46.4029 3.88307 48.2395C5.81157 50.2644 8.96301 50.6883 10.7034 52.8074C11.3148 53.5609 12.3026 52.572 11.7382 51.8656Z" transform="translate(51.8159)" fill="black"/>
<path d="M0.652744 21.6503C2.86346 21.9328 4.88603 23.4869 7.09674 24.0991C8.79005 24.57 10.5774 24.8054 12.3178 24.8525C16.0807 24.8996 19.8436 23.9578 23.0891 22.027C26.805 19.8137 29.2509 16.3759 31.932 13.0795C35.0834 9.26498 40.0222 4.93249 45.2903 7.3342C45.9018 7.61675 46.6544 7.00455 46.2781 6.34526C43.9733 2.67206 40.0222 0.364541 35.6949 0.0348949C33.6253 -0.106382 31.5086 0.176172 29.5801 0.97674C26.852 2.15405 24.7824 4.41448 22.0073 5.59179C21.1606 5.96852 21.9132 7.14583 22.7128 6.81618C26.852 5.02668 29.5801 1.44766 34.4249 1.40057C38.7052 1.35348 42.7974 3.47263 45.0551 7.09874C45.3844 6.76909 45.7136 6.43945 46.0429 6.1098C36.9649 1.91859 31.3205 12.6085 26.0995 17.8829C22.7128 21.2735 18.1033 23.2514 13.3526 23.3927C11.1419 23.4869 8.93117 23.2043 6.81453 22.4979C4.69789 21.8386 2.91049 20.4729 0.652744 20.1904C-0.240948 20.1433 -0.193912 21.5561 0.652744 21.6503Z" transform="translate(67.3228 36.667)" fill="black"/>
<path d="M0.65894 5.15201C7.62033 5.76421 14.4406 4.44563 20.6965 1.29045C20.3672 1.00789 19.9909 0.772431 19.6617 0.489877C18.6269 3.07995 18.768 5.67003 18.9091 8.40138C19.0502 11.7449 19.0972 15.0885 19.0031 18.432C18.768 24.3657 17.9683 30.3935 14.2995 35.1969C13.7351 35.9033 14.958 36.6097 15.5225 35.9033C18.8621 31.5237 19.9439 26.1081 20.3202 20.6925C20.5554 17.4902 20.5554 14.2879 20.4613 11.1327C20.3672 7.695 19.7557 4.11598 21.0728 0.866616C21.3079 0.254416 20.5083 -0.169415 20.0379 0.0660466C14.0173 3.07995 7.43219 4.35144 0.753018 3.73924C-0.234747 3.64506 -0.234752 5.05783 0.65894 5.15201Z" transform="translate(90.0349 1.59912)" fill="black"/>
<path d="M1.36794 8.7644C2.54385 4.99701 9.92858 6.59815 12.8448 6.69234C16.6548 6.83362 20.4647 7.06907 24.3217 7.11617C29.5898 7.25744 35.6575 6.36269 38.2445 1.13545C37.8212 0.94708 37.3978 0.758712 36.9745 0.570343C35.7045 4.38482 37.633 8.24638 36.6923 12.0609C35.5164 16.8643 28.4609 17.9474 24.3217 18.1829C19.8533 18.4183 15.3378 17.5236 11.2926 15.6399C9.27008 14.698 7.38862 13.4736 5.64827 12.0138C4.33125 10.9306 3.10829 9.84752 1.36794 9.51788C0.474248 9.3766 0.0979621 10.7423 0.991654 10.8835C3.39051 11.3074 5.13086 13.5678 7.10639 14.8864C8.98785 16.1108 10.9634 17.1468 13.08 17.9003C17.5014 19.5014 22.2992 19.9724 26.9558 19.3131C30.5776 18.7951 35.4694 17.6177 37.3979 14.0858C39.6556 9.9888 36.8804 5.18539 38.2915 0.899987C38.5267 0.146511 37.3508 -0.371503 37.0216 0.334881C33.4468 7.68128 22.7225 5.56212 16.1374 5.32666C12.3745 5.18538 8.37638 4.57318 4.61346 4.99701C2.49683 5.23248 0.662399 6.17432 0.0509256 8.29347C-0.278329 9.28241 1.08572 9.65915 1.36794 8.7644Z" transform="translate(66.2784 77.6199)" fill="black"/>
<path d="M28.9514 0.124934C24.8122 2.90338 21.7078 7.37715 18.4623 11.1445C17.0982 12.6986 15.7342 14.2526 14.7464 16.0892C13.7587 17.8787 13.2883 20.1862 11.7831 21.6461C10.325 23.0589 8.39649 22.2583 6.79725 23.0589C5.95059 23.4827 5.19801 24.4716 4.58653 25.178C3.03433 26.9675 1.05881 29.0396 0.0710478 31.2058C-0.305244 32.0064 0.917692 32.7599 1.29398 31.9122C2.23471 29.746 4.16322 27.721 5.71542 25.9786C6.75022 24.8484 7.26761 24.2833 8.81981 24.142C10.325 24.0007 11.642 23.7182 12.7709 22.635C13.8998 21.5048 14.5112 19.9508 15.1227 18.538C16.0164 16.513 17.2393 14.7706 18.6975 13.0753C22.037 9.16665 25.3767 4.26905 29.657 1.39643C30.4095 0.831318 29.704 -0.393081 28.9514 0.124934Z" transform="translate(80.4633 2.71753)" fill="black"/>
<path d="M0.853521 1.73903C3.86385 0.750094 7.34455 2.25704 10.3549 2.86924C13.2241 3.48144 16.1404 3.95237 19.0566 4.23492C22.8666 4.61166 28.7932 5.97734 30.4865 1.45648C30.8157 0.608814 29.4517 0.232075 29.1224 1.07974C27.9936 4.09364 23.8073 3.24599 21.3144 3.05762C18.4922 2.86925 15.717 2.49251 12.9419 1.97449C9.03786 1.26811 4.38126 -0.851048 0.477235 0.373352C-0.36942 0.655905 0.00686526 2.02159 0.853521 1.73903Z" transform="translate(68.6741 85.2573)" fill="black"/>
<path d="M0.12501 1.05855C0.548338 1.67075 1.0187 2.23586 1.5361 2.75387C2.19461 3.36607 3.18237 2.37713 2.52386 1.76493C2.05349 1.3411 1.6772 0.87018 1.34795 0.352165C0.830545 -0.448404 -0.39239 0.257981 0.12501 1.05855Z" transform="translate(77.5871 89.093)" fill="black"/>
<path d="M0.194419 1.18359C0.805892 1.70161 1.46441 2.12544 2.16995 2.50218C2.96957 2.92601 3.67512 1.70161 2.8755 1.27778C2.26403 0.948131 1.6996 0.618483 1.1822 0.194653C0.899982 -0.0408089 0.476637 -0.0879012 0.194419 0.194653C-0.0407634 0.430114 -0.0877998 0.948132 0.194419 1.18359Z" transform="translate(84.2439 90.3809)" fill="black"/>
<path d="M0.192412 1.22578C0.850922 1.97925 1.7446 2.49727 2.73236 2.63854C3.10865 2.68564 3.48497 2.54436 3.57904 2.16762C3.67311 1.83798 3.48497 1.36706 3.10868 1.31997C2.30906 1.22578 1.69757 0.849042 1.18016 0.236842C0.568692 -0.469542 -0.419062 0.566484 0.192412 1.22578Z" transform="translate(92.195 90.7625)" fill="black"/>
<path d="M1.05751 1.76642C1.38677 1.53096 1.62194 1.43677 2.04527 1.34258C2.42156 1.2484 2.65674 0.824573 2.51563 0.494927C2.42156 0.118189 2.04527 -0.0701803 1.66898 0.0240043C1.19862 0.118189 0.728259 0.306557 0.351968 0.58911C0.0227126 0.777479 -0.118397 1.20131 0.116785 1.57804C0.304931 1.8606 0.728259 2.00188 1.05751 1.76642Z" transform="translate(79.2416 84.759)" fill="black"/>
<path d="M0.887309 1.91086C1.59286 1.76959 2.2984 1.58122 3.00395 1.39285C3.89764 1.15738 3.52133 -0.208288 2.62763 0.027173C1.92209 0.215542 1.21654 0.403914 0.510995 0.545191C-0.382697 0.73356 -0.00638271 2.09923 0.887309 1.91086Z" transform="translate(85.4796 85.4153)" fill="black"/>
<path d="M1.294 2.31544C1.57622 1.75033 2.42287 1.56196 2.94028 1.3736C3.26953 1.23232 3.55175 0.902671 3.41064 0.525933C3.31657 0.196287 2.89324 -0.133359 2.56399 0.0550102C1.6703 0.431749 0.541401 0.714299 0.0710363 1.65615C-0.305255 2.40962 0.917709 3.11601 1.294 2.31544Z" transform="translate(92.0343 85.3875)" fill="black"/>
<path d="M23.9219 47.0447C26.65 42.5239 27.7789 37.4379 29.9896 32.6816C32.1533 28.0195 35.1636 23.9695 36.2925 18.8365C37.0451 15.4929 35.587 11.3017 39.0206 9.41802C40.4317 8.66455 42.172 8.00525 42.172 6.12156C42.2191 3.29603 39.1617 0.658852 36.6218 0.140837C32.6707 -0.659732 31.2126 2.07162 30.1307 5.32099C27.3556 13.6092 21.476 19.6841 14.985 25.241C11.6454 28.1136 8.21176 30.9392 5.20143 34.1415C3.41405 36.0252 1.86184 38.0972 0.168529 40.028C-0.395908 40.7344 0.591874 41.7233 1.15631 41.0169C4.4959 37.1083 7.78843 33.2938 11.6925 29.9032C16.8665 25.3823 22.3227 21.0969 26.4148 15.4929C28.5315 12.6203 30.1778 9.41802 31.3537 6.02737C32.1062 3.76694 32.8118 1.17687 35.7751 1.41233C37.6095 1.55361 41.0432 3.81404 40.7139 6.07447C40.5258 7.62851 37.7977 8.19362 36.7158 9.18256C34.6933 11.0663 35.4929 13.7034 35.2107 16.1522C34.5992 22.1329 31.1185 26.6538 28.6726 31.9281C26.4619 36.6374 25.333 41.7704 22.6049 46.2913C22.2286 47.0918 23.4516 47.7982 23.9219 47.0447Z" transform="translate(53.2259 177.838)" fill="black"/>
<path d="M1.41575 37.7333C2.68573 30.9049 8.37712 25.5364 8.65934 18.4725C8.75342 15.7883 8.00083 13.2453 7.24825 10.7494C6.21345 7.40584 5.55495 4.25065 6.02531 0.718725C5.60199 0.907094 5.22568 1.04837 4.80235 1.23674C15.997 10.4197 27.1917 22.1928 29.4494 37.074C29.5906 37.9687 30.9546 37.592 30.8135 36.6972C28.5087 21.5806 17.1259 9.52499 5.79013 0.200721C5.27273 -0.223109 4.66124 0.0594331 4.56717 0.718725C4.19088 3.68554 4.47311 6.51108 5.31977 9.4308C6.11939 12.2092 7.20122 14.9406 7.20122 17.8603C7.24826 25.0184 1.27464 30.5282 0.00465765 37.4036C-0.0894152 38.2513 1.27464 38.628 1.41575 37.7333Z" transform="translate(31.0943 172.927)" fill="black"/>
<path d="M1.31855 14.5254C2.07113 13.5365 2.40039 12.3592 3.29409 11.4644C4.18778 10.5697 5.26961 10.3342 6.49256 10.0988C8.32698 9.76911 10.0673 9.34528 11.7136 8.45053C14.771 6.8023 16.9346 4.11804 18.1576 0.868668C17.6872 0.821576 17.2169 0.727394 16.7935 0.680302C16.6054 2.42272 16.9817 4.21223 16.5113 5.90755C15.9939 7.69705 14.771 9.15691 13.5951 10.5226C11.9488 12.4063 10.3966 14.0545 10.1144 16.6446C10.0203 17.5393 11.4314 17.5393 11.5255 16.6446C11.8547 13.301 15.2884 11.229 16.8876 8.40343C18.3458 5.81336 17.8754 3.45875 18.2046 0.680302C18.2987 -0.167359 17.0758 -0.214449 16.8406 0.491935C15.2884 4.58896 11.8077 7.60287 7.48034 8.49762C5.92814 8.82727 4.28184 8.96854 2.96482 9.8633C1.55373 10.8522 1.17746 12.5005 0.189693 13.819C-0.468817 14.5254 0.754113 15.2318 1.31855 14.5254Z" transform="translate(60.0718 207.014)" fill="black"/>
</svg>
