<svg width="34" height="62" viewBox="0 0 34 62" fill="none" xmlns="http://www.w3.org/2000/svg">
<path d="M2.51332 3.92446C2.58512 2.96437 2.87233 2.22583 3.37494 1.45037C2.80053 1.30266 2.26201 1.15496 1.68759 0.970324C1.72349 2.33661 1.40038 3.37056 0.682362 4.44144C1.25678 4.58914 1.7953 4.73685 2.36971 4.92148C2.36971 4.33066 2.36971 3.73983 2.36971 3.149C2.36971 2.07813 0.897769 1.93042 0.61056 2.89051C-0.143363 5.32768 -0.35877 7.39558 0.897769 9.72196C2.29791 12.3438 3.76986 14.744 4.77509 17.5504C5.2059 17.2181 5.63671 16.8488 6.10343 16.5165C5.3136 15.9626 4.81099 14.0424 4.48788 13.1931C4.05707 12.1222 3.69806 11.0144 3.41085 9.86967C2.69282 7.17402 3.48265 4.51529 6.42654 3.92446C6.13933 3.40749 5.85212 2.89051 5.56491 2.37354C4.20067 3.77676 2.98003 5.25383 1.8671 6.8786C1.36448 7.58021 2.19021 8.3926 2.87233 8.24489C3.80576 8.02333 4.73919 7.94948 5.70852 7.94948C6.85735 7.94948 6.85735 6.10314 5.70852 6.10314C4.59558 6.10314 3.48265 6.21392 2.40561 6.47241C2.72872 6.91553 3.08774 7.35865 3.41085 7.8387C4.45198 6.36163 5.60081 4.99534 6.82145 3.7029C7.50357 3.00129 6.78555 2.00427 5.95982 2.15198C3.08774 2.74281 1.00547 5.40153 1.32858 8.42953C1.50809 10.3128 2.22611 12.233 2.90823 13.9685C3.48265 15.4087 3.98526 17.1812 5.2418 18.0674C5.85212 18.5105 6.82145 17.772 6.57014 17.0335C5.81622 14.9286 4.91869 12.8977 3.84166 10.9775C3.26724 9.98045 2.58512 9.05728 2.15431 7.9864C1.50809 6.36163 1.903 4.92149 2.40561 3.33364C1.8312 3.25978 1.22088 3.18593 0.646461 3.07515C0.646461 3.66598 0.646461 4.2568 0.646461 4.84763C0.646461 5.80773 1.8312 6.02929 2.33381 5.32768C3.23134 3.99832 3.62625 2.52125 3.59035 0.89647C3.55445 -0.0266985 2.40562 -0.322112 1.903 0.416423C1.22088 1.4873 0.897769 2.55817 0.790065 3.81368C0.646461 5.10612 2.44152 5.10612 2.51332 3.92446Z" transform="translate(5.78149 0.395996)" fill="#005744"/>
<path d="M1.93866 9.46969C2.26177 7.91877 2.04636 5.92473 3.08749 4.63229C3.84142 3.74605 2.69258 2.52747 1.83096 3.33985C0.538516 4.55844 -0.0718025 6.14629 0.0359008 7.9557C0.107703 8.95272 1.50785 9.24813 1.79506 8.21418C2.15407 6.77404 2.11817 5.03848 3.1593 3.93068C4.23633 2.78595 6.17499 2.45361 7.57513 1.93664C7.25202 1.49352 6.89301 1.0504 6.5699 0.570349C5.92368 2.04742 4.23633 2.19513 3.08749 3.11829C2.22587 3.8199 1.79506 4.63229 1.72325 5.74009C1.68735 6.10936 2.01046 6.55248 2.36947 6.62634C3.55421 6.8479 4.70304 9.13735 5.99548 7.9557C7.07252 6.9956 6.17499 5.07541 5.60057 4.11532C5.09796 3.22907 3.62601 3.8199 3.94912 4.81692C4.30813 4.81692 4.66714 4.78 5.02615 4.78C4.88255 5.03849 4.73895 5.29697 4.59534 5.59239C5.42107 5.07541 7.21612 5.07541 7.07252 3.6722C6.5699 3.89376 6.06729 4.11532 5.52877 4.33688C6.71351 5.44468 8.11365 6.03551 9.6215 6.58941C10.5549 6.95867 11.237 5.3339 10.3036 4.89078C8.79577 4.18917 7.28792 3.59834 5.67237 3.22907C4.55944 2.97059 4.05682 4.74307 5.20566 5.00156C6.67761 5.37083 8.04185 5.85087 9.40609 6.47863C9.6215 5.92473 9.8728 5.37083 10.0882 4.78C8.90347 4.33688 7.75464 3.85683 6.78531 2.97059C6.24679 2.49054 5.16976 2.78595 5.24156 3.63527C5.24156 3.70912 5.24156 3.78298 5.27746 3.85683C5.42107 3.59834 5.56467 3.33985 5.70827 3.04444C5.02615 3.56141 1.72325 4.33688 3.62601 5.96165C4.77485 6.95868 6.10319 5.59239 5.67237 4.29995C5.13386 4.52151 4.59534 4.78 4.02092 5.00156C4.23633 5.37083 4.34403 5.96165 4.59534 6.25707C4.66714 6.14629 4.73895 6.03551 4.81075 5.92473C4.63124 5.74009 4.45174 5.59239 4.27223 5.44468C3.80552 5.07541 3.4106 4.85385 2.83619 4.74307C3.05159 5.03849 3.267 5.3339 3.48241 5.62931C3.59011 4.11532 5.60057 3.8199 6.5699 3.15522C7.25202 2.7121 7.71874 2.1582 8.04185 1.41966C8.32905 0.754983 7.82644 -0.24204 7.03662 0.0533742C5.34926 0.681129 3.0875 1.12425 1.79506 2.49054C0.466715 3.89376 0.466715 5.85087 2.73904e-07 7.62336C0.574418 7.69721 1.18474 7.77106 1.75915 7.88184C1.65145 6.51555 2.04636 5.48161 3.01569 4.55844C2.58488 4.11532 2.15407 3.6722 1.75915 3.266C0.394912 4.96463 0.574418 6.8479 0.143605 8.91579C-0.035901 10.1344 1.68735 10.6514 1.93866 9.46969Z" transform="translate(10.9873 6.92578)" fill="#005744"/>
<path d="M4.00825 0.738535C3.14662 0.480048 2.285 0.258487 1.42337 0C1.27977 0.590828 1.10026 1.18166 0.956658 1.77248C1.42337 1.80941 1.85419 1.99404 2.2132 2.28946C2.14139 1.80941 2.10549 1.32936 2.03369 0.849315C1.35157 1.58785 -0.335782 3.10185 0.0591301 4.32043C0.418141 5.53901 1.53108 4.87433 2.3209 5.16974C2.10549 4.94818 1.89009 4.72662 1.71058 4.54199C1.99779 5.31745 2.06959 6.16677 2.2132 6.97916C2.3568 7.71769 3.25433 7.79154 3.72104 7.38535C4.36726 6.83145 5.01348 6.12984 5.7315 5.64979C6.80854 4.94818 7.52656 4.6897 8.45999 5.61287C9.68063 6.83145 10.65 8.23466 11.4757 9.74866C11.7988 10.3026 12.445 10.3026 12.8758 9.93329C14.3837 8.75164 12.9835 5.94521 12.5886 4.50506C12.3014 3.36033 10.5423 3.84038 10.8654 4.98511C11.009 5.50208 12.0501 8.27159 11.6193 8.64086C12.086 8.71471 12.5527 8.75164 13.0194 8.82549C11.9424 6.9053 10.1114 3.7296 7.95737 2.95414C5.87511 2.2156 3.79284 4.91126 2.4286 6.09291C2.93122 6.24062 3.43383 6.3514 3.93645 6.49911C3.75694 5.61286 3.82875 4.09887 3.00302 3.50804C2.75171 3.32341 2.3568 3.39726 2.14139 3.24955C1.71058 3.32341 1.81828 3.28648 2.4286 3.21263C2.71581 2.88029 3.00302 2.54795 3.29023 2.2156C3.68514 1.77248 3.61334 1.1078 3.11072 0.775461C2.57221 0.406194 2.06959 0.184634 1.42337 0.0738538C0.310438 -0.147707 -0.192178 1.514 0.956658 1.84634C1.81828 2.10482 2.67991 2.32638 3.54154 2.58487C4.65447 2.84336 5.12119 1.07088 4.00825 0.738535Z" transform="translate(0.157959 11.2626)" fill="#005744"/>
<path d="M6.89408 3.02324C5.06312 1.84158 3.33987 0.549146 1.2217 0.0321715C0.21647 -0.226316 -0.322046 1.13997 0.53958 1.7308C1.65251 2.43241 2.72955 3.17094 3.84248 3.87255C3.84248 3.35558 3.84248 2.80168 3.84248 2.2847C3.37577 2.61704 1.54481 2.10007 1.00629 2.02622C1.0781 2.61704 1.1499 3.2448 1.2576 3.83563C2.11923 3.68792 2.94495 3.72485 3.77068 3.7987C3.69888 3.20787 3.62707 2.58012 3.51937 1.98929C2.65775 2.10007 1.79612 2.21085 0.934492 2.35856C0.0369646 2.46934 0.108767 3.98333 0.934492 4.13104C1.79612 4.31567 2.65775 4.38953 3.55527 4.31567C3.30397 3.83563 3.05266 3.39251 2.76545 2.91246C2.58594 3.2448 2.40644 3.46636 2.11923 3.68792C1.3294 4.24182 1.79612 5.71889 2.83725 5.38655C3.33987 5.20191 3.51937 5.05421 3.80658 4.61109C4.381 3.7987 3.30397 2.98631 2.58594 3.35558C2.15513 3.57714 1.79612 3.83563 1.47301 4.16797C0.86269 4.75879 1.47301 6.05123 2.33464 5.71889C2.98085 5.4604 3.41167 5.16499 3.77068 4.53723C4.12969 3.98333 3.66298 3.09709 2.98085 3.13402C2.37054 3.20787 1.86792 3.31865 1.3294 3.68792C1.68842 4.16797 2.04743 4.64802 2.40644 5.12806C2.62184 4.94343 2.80135 4.72187 3.01676 4.53723C3.62707 3.94641 3.08856 3.06016 2.37054 2.94938C1.50891 2.8386 0.719086 3.31865 0.360075 4.09411C-0.142541 5.16499 1.40121 6.08816 1.90382 5.01728C1.97562 4.75879 2.11923 4.68494 2.37054 4.79572C2.15513 4.27875 1.93972 3.76177 1.72432 3.20787C1.50891 3.39251 1.3294 3.61407 1.114 3.7987C0.395976 4.50031 1.3294 5.82967 2.19103 5.23884C2.40644 5.05421 2.65775 4.94343 2.94495 4.94343C2.69365 4.46338 2.44234 4.02026 2.15513 3.54021C2.04743 3.65099 1.90382 3.76177 1.79612 3.87255C2.08333 4.38953 2.37054 4.9065 2.65775 5.42348C2.90905 5.20192 3.12446 5.05421 3.41167 4.86958C3.01676 4.46338 2.58594 4.02026 2.19103 3.61407C2.11923 3.68792 2.08333 3.76177 2.01153 3.87255C2.19103 3.72485 2.37054 3.57714 2.55004 3.46636C2.44234 3.50329 2.37054 3.54021 2.26283 3.57714C2.47824 4.13104 2.72955 4.68494 2.94495 5.27577C3.51937 4.86957 3.91428 4.46338 4.23739 3.83563C4.5246 3.28173 4.16559 2.39548 3.44757 2.43241C2.72955 2.50626 2.04743 2.46934 1.3294 2.32163C1.3294 2.91246 1.3294 3.50328 1.3294 4.09411C2.19103 3.98333 3.05266 3.87255 3.91428 3.72485C4.99132 3.57714 4.59641 1.98929 3.66298 1.91544C2.65775 1.80466 1.65251 1.87851 0.647283 2.02622C-0.42975 2.21085 -0.0348376 3.72485 0.898591 3.83563C2.01153 3.98333 3.62707 4.53723 4.63231 3.83563C5.20672 3.42943 5.24262 2.61704 4.63231 2.24778C3.51937 1.54617 2.44234 0.807633 1.3294 0.106025C1.114 0.659926 0.86269 1.21383 0.647283 1.80466C2.62184 2.32163 4.20149 3.50329 5.88884 4.61109C6.96588 5.27577 7.86341 3.68792 6.89408 3.02324Z" transform="translate(1.72388 11.2673)" fill="#005744"/>
<path d="M0.825726 0.127192H0.789824C0.933428 0.127192 1.11293 0.127192 1.25654 0.127192C1.40014 0.237972 1.54375 0.348753 1.65145 0.459533C1.43604 0.0164124 0.825725 -0.131295 0.430813 0.127192C-2.99582e-07 0.422606 -0.107703 0.939581 0.107704 1.3827C0.179506 1.56734 0.359011 1.71504 0.502615 1.7889C0.753923 1.9366 1.00523 1.9366 1.29244 1.89968C1.50785 1.86275 1.72325 1.64119 1.83096 1.49348C1.93866 1.30885 1.97456 1.01344 1.93866 0.791875C1.86686 0.570314 1.72325 0.348752 1.54375 0.237972C1.29244 0.127192 1.07703 0.0902654 0.825726 0.127192Z" transform="translate(12.926 23.1367)" fill="#E66A49"/>
<path d="M10.5532 4.75756C10.3736 1.06488 6.67583 -1.15072 3.44473 0.621761C0.357237 2.32039 -0.863401 6.1977 0.644445 9.3734C1.97279 12.1429 3.73194 14.8386 5.31159 17.4973C6.71173 19.8237 8.72219 21.5223 10.0146 23.9225C11.7738 27.1721 16.6922 25.6581 16.6922 22.0762C16.6922 18.7159 14.7536 15.7987 14.2151 12.5491C13.6765 9.15184 12.9944 6.04999 10.6609 3.42819C9.47612 2.0619 7.28615 2.0619 5.95781 3.13278C4.48586 4.35136 4.27046 6.16077 5.02438 7.89633C7.10664 12.5491 10.1582 17.2019 10.5891 22.4085C10.7686 24.4026 12.0969 26.1012 14.1792 26.1012C15.9742 26.1012 17.9488 24.4026 17.7693 22.4085C17.1949 15.6509 13.892 10.075 11.2353 4.09287C9.36841 5.56994 7.46566 7.08394 5.5988 8.56101C7.03484 10.2227 7.03484 12.9922 7.39385 15.0601C7.60926 16.3895 7.96827 17.645 8.50679 18.8636C8.9017 19.8606 9.51202 20.8945 9.51202 22.0023C11.7379 21.3746 13.9638 20.7468 16.1896 20.156C15.4716 18.8266 14.6818 17.5342 13.6765 16.3895C12.8149 15.4294 12.0251 14.6539 11.343 13.5092C10.5532 12.1429 9.76333 10.7766 8.9735 9.41032C8.29138 8.22867 7.10664 6.86238 6.89124 5.53302C6.89124 6.1977 6.89124 6.82545 6.89124 7.49013C7.07074 6.38233 7.07074 8.00711 5.4911 7.37935C4.95258 7.04701 4.44996 6.7516 3.91145 6.41926C3.87555 6.34541 3.87554 6.30848 3.83964 6.23462C3.66014 5.60687 3.51653 4.97912 3.33703 4.38829C3.33703 4.49907 3.33703 4.64677 3.37293 4.75756C3.62424 9.48418 10.8045 9.5211 10.5532 4.75756Z" transform="translate(9.69678 19.4664)" fill="#E84726"/>
<path d="M0.086649 2.67197C1.30729 5.3307 2.31252 8.76488 4.35888 10.8697C5.40001 11.9406 6.44114 12.753 7.26687 14.0454C8.09259 15.3378 8.70291 16.778 9.38503 18.1443C9.85175 19.0674 11.3596 18.4397 11.0365 17.4427C10.1749 14.8209 7.55408 13.8608 6.15394 11.6082C5.32821 10.2789 4.8974 8.72795 4.53839 7.21396C4.21528 5.92152 2.92284 2.52426 4.32298 1.7488C3.96397 1.71187 3.60496 1.63802 3.24595 1.60109C3.60496 2.00729 3.89217 2.45041 4.10757 2.96738C4.61019 3.9644 5.90263 3.22587 5.75902 2.26578C5.65132 1.45339 5.36411 0.936412 4.8256 0.345584C4.03577 -0.540658 2.81513 0.751778 3.56906 1.63802C4.8615 3.18894 4.71789 5.8846 5.43591 7.73094C6.18984 9.68805 7.23097 11.4975 7.62588 13.5654C8.1285 13.2699 8.63111 12.9745 9.13373 12.6791C6.47705 9.6142 4.64609 6.0323 3.64086 2.04421C3.06644 2.19192 2.49202 2.37656 1.9176 2.52426C2.49202 4.33367 3.10234 6.10616 4.07167 7.73094C4.61019 8.61718 5.97443 8.02635 5.72312 7.02932C5.32821 5.51533 4.8974 4.00133 4.43068 2.48734C4.07167 1.34261 2.49202 1.82265 2.70743 2.96738C3.03054 4.66601 3.53316 6.32772 4.17938 7.91557C4.61019 8.98645 6.15394 8.61718 5.90263 7.43552C5.54362 5.77382 5.14871 4.14904 4.68199 2.52426C4.10757 2.67197 3.53315 2.8566 2.95874 3.00431C3.92807 5.40455 4.9692 7.73093 6.15394 10.0204C6.69245 11.0543 8.2362 10.1312 7.69768 9.09722C6.58475 6.95547 5.57952 4.77679 4.68199 2.52426C4.25118 1.45339 2.59973 1.85958 2.95874 3.00431C3.42545 4.62909 3.82036 6.25387 4.17938 7.91557C4.75379 7.76786 5.32821 7.58323 5.90263 7.43552C5.25641 5.81074 4.75379 4.18597 4.43068 2.48734C3.85626 2.63504 3.28185 2.81968 2.70743 2.96738C3.21005 4.44445 3.64086 5.95845 3.99987 7.50937C4.53839 7.28781 5.0769 7.02933 5.65132 6.80777C4.78969 5.29377 4.21528 3.70592 3.67676 2.04421C3.31775 0.936411 1.6663 1.37953 1.95351 2.52426C3.03054 6.80777 5.041 10.6851 7.91309 13.9716C8.55931 14.7101 9.56454 13.8977 9.42094 13.0853C8.95422 10.6112 7.55408 8.50639 6.83606 6.10616C6.22574 4.07518 6.33344 2.00729 4.8974 0.308658C4.46658 0.751779 4.03577 1.1949 3.64086 1.60109C3.78446 1.97036 3.96397 2.33963 4.10757 2.7089C4.64609 2.48734 5.18461 2.22885 5.75902 2.00729C5.43591 1.37953 5.0769 0.825633 4.61019 0.271731C4.35888 -0.0606092 3.85626 -0.0606098 3.53315 0.124024C2.31252 0.825632 1.8817 2.04421 2.02531 3.44743C2.20481 5.36762 2.81513 7.47244 3.35365 9.31878C3.82036 10.8697 4.46658 12.3837 5.47181 13.6023C6.69245 15.0794 8.77472 16.0025 9.38503 17.9227C9.92355 17.7012 10.4621 17.4427 11.0365 17.2211C9.77995 14.6732 8.63111 12.1252 6.47705 10.242C4.10757 8.17405 3.06644 4.55523 1.7381 1.7488C1.16368 0.640999 -0.380065 1.60109 0.086649 2.67197Z" transform="translate(22.5327 42.8955)" fill="#E84726"/>
<path d="M33.641 61.483L33.8205 61.4092L29.7637 50.0727C29.5124 49.408 29.2611 48.7064 29.1534 48.0048C29.0816 47.7094 29.0457 47.377 29.0097 47.0816C28.9738 46.6385 28.902 46.1954 28.7943 45.7892C28.6148 45.1245 28.3276 44.4967 28.0404 43.9059C27.8968 43.6105 27.7891 43.352 27.6455 43.0566C27.0711 41.6903 26.7839 40.1763 26.4967 38.6992C26.4249 38.2561 26.3172 37.7761 26.2095 37.296C25.4555 33.6033 24.0554 30.0584 22.5835 26.4026C21.9731 24.8886 21.2551 23.19 20.1422 21.7868C18.8856 20.2728 17.1983 19.4235 15.6186 19.4604C15.0083 19.4973 14.3621 19.645 13.7518 19.9404L12.962 14.8815C12.8902 14.5491 12.8902 14.2168 12.9979 13.9952C13.2133 13.589 13.8595 13.5521 14.3262 13.7737C14.5416 13.8845 14.757 14.0322 14.9724 14.1799C15.2237 14.3645 15.475 14.5491 15.7981 14.6599C16.1931 14.8076 16.6239 14.8076 16.9829 14.6599C17.2342 14.5491 17.4137 14.3645 17.4855 14.106C17.5932 13.8106 17.5214 13.5152 17.4496 13.2567C17.3778 12.9244 17.2701 12.592 17.1265 12.2597C17.8086 12.6289 18.4907 12.9982 19.2446 13.1828C20.2858 13.4413 21.2551 13.3306 22.009 12.8505L22.1885 12.7397L22.0449 12.592C20.8961 11.5211 19.6037 10.6349 18.2394 9.93329C18.7061 9.5271 19.101 9.01013 19.3524 8.45622C19.4242 8.27159 19.5319 8.0131 19.4601 7.75462C19.4242 7.53306 19.2805 7.34842 19.101 7.23764C18.6702 6.97915 18.0599 7.05301 17.5932 7.23764C16.9829 7.4592 16.3726 7.64384 15.7622 7.90232C14.1467 8.53008 12.4952 9.30554 11.6336 10.8195C11.0592 11.7796 10.9156 12.8874 10.9874 14.0322L8.76153 8.93627C8.72563 8.89935 8.72563 8.82549 8.72563 8.78856C8.72563 8.71471 8.90513 8.64086 9.08464 8.64086L11.8849 8.4193C11.9926 8.4193 12.208 8.38237 12.3516 8.23466C12.4593 8.08696 12.4593 7.90232 12.3875 7.68076C12.1362 6.97915 11.4541 6.46218 10.7361 6.42525C11.6336 5.64979 12.4593 4.76355 13.1415 3.76653C13.1774 3.61882 13.3928 3.32341 13.2492 3.02799C13.1415 2.76951 12.8543 2.69565 12.4593 2.73258C11.2746 2.95414 10.1617 3.39726 9.19234 4.06194C9.65905 2.80643 9.65905 1.36629 9.15644 0.147707L9.08464 0L8.94103 0.0738535C6.42795 1.29244 5.53043 4.43121 5.74583 6.83145C5.96124 9.26861 7.07417 11.4842 8.33071 13.6998C6.10484 11.9273 3.51996 11.078 1.18639 11.3734C1.00689 11.4104 0.791481 11.4473 0.647877 11.5581C0.504272 11.6689 0.43247 11.8904 0.43247 12.112C0.43247 12.3705 0.576074 12.6659 0.791481 12.8136C1.00689 12.9982 1.2941 13.0721 1.58131 13.0721L0.504272 14.106C0.324767 14.2537 0.10936 14.4753 0.0375578 14.7338C-0.106047 15.2138 0.181162 15.7308 0.576074 15.9524C0.935085 16.1739 1.4018 16.2478 1.79671 16.2478C1.94032 16.2478 2.08392 16.2847 2.19162 16.3216C2.37113 16.4693 2.29933 16.654 2.19162 17.0602C2.11982 17.2817 2.04802 17.5033 2.04802 17.6879C2.04802 18.0203 2.19162 18.3157 2.47883 18.5372C2.87374 18.8326 3.41226 18.8696 3.87898 18.7219C4.5252 18.4634 4.92011 17.8356 5.31502 17.2817L5.42272 17.134C5.78173 16.617 6.28435 15.9893 6.96647 15.9154C7.25368 15.8785 7.61269 15.9893 7.9717 16.1739C8.86923 16.6909 9.55135 17.5771 10.1258 18.3895L12.1003 21.1221C12.0644 21.159 12.0644 21.159 12.0285 21.159C11.131 22.0083 10.413 23.0792 9.73086 24.1132H9.40775C9.19234 28.1382 11.49 31.6831 14.0749 35.265L16.8034 39.0316C17.5214 40.0286 18.2394 41.0256 19.101 41.9488C19.4601 42.318 19.8191 42.7242 20.1781 43.0566C20.8602 43.7213 21.5423 44.4229 22.1167 45.1983C22.763 46.1215 23.2656 47.1924 23.7323 48.1894C23.84 48.411 23.9477 48.6694 24.0554 48.891C26.2813 53.6915 29.5124 58.0858 33.4256 61.6307L33.3897 61.7046L33.8205 62L34 61.7415C33.8205 61.6677 33.7487 61.5938 33.641 61.483ZM8.90513 0.443121C9.37184 1.73556 9.26414 3.24955 8.61792 4.46814L8.25891 5.16974L8.86923 4.6897C9.91036 3.87731 11.1669 3.32341 12.4952 3.10185C12.567 3.10185 12.8902 3.06492 12.962 3.1757C12.9979 3.24955 12.962 3.39726 12.8183 3.54497C12.0285 4.65277 11.131 5.64979 10.054 6.49911L9.44365 7.01608L10.2335 6.79452C10.9515 6.57296 11.8131 7.05301 12.0644 7.79154C12.1003 7.90232 12.1003 7.97618 12.0644 8.0131C12.0285 8.05003 11.8849 8.08696 11.849 8.08696L9.04873 8.30852C8.65382 8.34544 8.43842 8.49315 8.40252 8.78856C8.40252 8.89934 8.43842 9.01013 8.47432 9.08398L10.9515 14.7338L11.0592 14.6968C11.131 15.4354 11.2746 16.2108 11.4541 16.9494L11.7772 16.8755C11.3105 14.7338 10.9874 12.6289 11.9567 10.9672C12.7824 9.56403 14.3621 8.78857 15.9417 8.19774C16.5521 7.97618 17.1265 7.75462 17.7368 7.56998C18.1317 7.42228 18.6702 7.38535 18.9574 7.56998C19.0651 7.64384 19.1369 7.71769 19.1728 7.8654C19.2087 8.05003 19.1369 8.23466 19.0651 8.38237C18.8138 8.9732 18.383 9.5271 17.8445 9.89637L17.5573 10.0071L17.8086 10.1179C19.2087 10.7826 20.4653 11.6689 21.6141 12.7028C20.9679 13.0351 20.1422 13.109 19.2805 12.8874C18.4189 12.6659 17.5932 12.1858 16.8393 11.7427L16.4085 11.4842L16.6239 11.9643C16.8393 12.4074 16.9829 12.8874 17.0906 13.3675C17.1624 13.589 17.1983 13.8475 17.1265 14.0322C17.0906 14.1799 16.947 14.2906 16.8034 14.4014C16.5521 14.5122 16.1931 14.5122 15.8699 14.4014C15.6186 14.2906 15.3673 14.1429 15.116 13.9583C14.9006 13.8106 14.6493 13.626 14.398 13.5152C13.7877 13.2198 12.9979 13.2936 12.6747 13.8845C12.4952 14.2537 12.567 14.6599 12.6029 14.9923L13.4287 20.162C13.3569 20.1989 13.321 20.2359 13.2492 20.2728C12.208 18.3157 10.7361 15.9154 8.65382 14.0691L8.79743 13.9952C7.46909 11.6689 6.24845 9.37939 6.03304 6.83145C5.85354 4.57892 6.64336 1.6617 8.90513 0.443121ZM10.3053 18.2418C9.69495 17.4294 9.01283 16.4693 8.0435 15.9524C7.61269 15.7308 7.21778 15.62 6.85877 15.6569C6.03304 15.7308 5.45862 16.4693 5.06371 17.0232L4.95601 17.1709C4.597 17.7248 4.20209 18.2787 3.66357 18.5003C3.34046 18.648 2.87374 18.5742 2.58654 18.3526C2.44293 18.2418 2.26343 18.0572 2.29933 17.7987C2.29933 17.6141 2.37113 17.4294 2.44293 17.2448C2.58654 16.8386 2.73014 16.3955 2.33523 16.137C2.15572 15.9893 1.94032 15.9893 1.76081 15.9893C1.4018 15.9524 1.00689 15.9154 0.683778 15.7308C0.43247 15.5092 0.217063 15.1769 0.324767 14.8446C0.396569 14.6599 0.540173 14.5122 0.683778 14.3645L2.33523 12.8136H1.94032C1.5454 12.8136 1.22229 12.7767 0.970986 12.592C0.827382 12.4812 0.75558 12.2966 0.75558 12.1489C0.75558 12.075 0.75558 11.9643 0.863283 11.8904C0.970986 11.8166 1.11459 11.7796 1.2582 11.7796C3.62767 11.4842 6.21255 12.3705 8.40252 14.2537C10.5207 16.0631 11.9926 18.5372 13.0697 20.4943C12.8183 20.642 12.567 20.8267 12.3516 21.0482L10.3053 18.2418ZM24.2708 48.8172C24.1631 48.5956 24.0554 48.3371 23.9477 48.1155C23.481 47.0816 22.9784 46.0107 22.3321 45.0506C21.7577 44.2382 21.0397 43.5366 20.3576 42.8719C19.9986 42.5027 19.6396 42.1334 19.2805 41.7641C18.4548 40.8779 17.7368 39.844 17.0188 38.8839L14.2903 35.0804C12.4234 32.5325 10.7361 29.9845 10.0181 27.3258L10.2335 27.5104C11.2387 26.4026 12.3516 25.4425 13.6441 24.6671L13.4646 24.3717C12.1721 25.1471 11.0233 26.1072 10.0181 27.2519C9.80266 26.3657 9.65905 25.4795 9.65905 24.5563L9.76676 24.6301C10.4848 23.5223 11.2387 22.3776 12.208 21.4544C13.2851 20.4574 14.4698 19.8666 15.6545 19.8297C17.1265 19.7558 18.742 20.6051 19.9268 22.0453C21.0397 23.3746 21.7218 25.0733 22.3321 26.5503C23.8041 30.1691 25.2042 33.7141 25.9582 37.3699C26.0659 37.8499 26.1377 38.293 26.2454 38.7731C26.4608 39.9547 26.7121 41.1364 27.0711 42.2811L26.9634 42.1703C26.3172 42.835 25.3837 43.2412 24.4862 43.2412V43.5736C25.4555 43.5736 26.4249 43.1674 27.1429 42.4658C27.2147 42.6873 27.3224 42.9089 27.3942 43.1674C27.5019 43.4628 27.6455 43.7582 27.7891 44.0167C28.0763 44.6075 28.3635 45.1983 28.5071 45.863C28.6148 46.2692 28.6507 46.7123 28.7225 47.1185C28.7584 47.4139 28.7943 47.7463 28.8661 48.0786C29.0097 48.8172 29.2611 49.5188 29.5124 50.2204L31.6664 56.2764C31.3074 56.6087 30.9125 56.8672 30.4817 57.0518L30.6253 57.3472C31.0561 57.1626 31.451 56.9041 31.81 56.5718L33.4974 61.2984C29.6201 57.8273 26.4608 53.5069 24.2708 48.8172Z" fill="black"/>
<path d="M4.63124 -5.63457e-07C2.97979 0.886241 1.40014 1.99404 2.73904e-07 3.28648L0.215406 3.54497C1.57965 2.28946 3.1234 1.18166 4.77485 0.332341L4.63124 -5.63457e-07Z" transform="translate(12.7825 24.7778)" fill="black"/>
<path d="M0.143604 1.58785C1.54375 0.923169 3.05159 0.480047 4.59534 0.33234L4.55944 -1.12691e-06C2.97979 0.147706 1.43604 0.590827 -5.47807e-07 1.29243L0.143604 1.58785Z" transform="translate(16.8752 27.0304)" fill="black"/>
<path d="M5.24156 -5.63457e-07C3.4106 0.775461 1.65145 1.69863 0 2.76951L0.179506 3.06492C1.83096 1.99404 3.55421 1.07088 5.38517 0.332341L5.24156 -5.63457e-07Z" transform="translate(15.2236 32.9016)" fill="black"/>
<path d="M-2.73904e-07 0.516974L0.0718022 0.849316C0.538517 0.738535 0.933429 0.553902 1.29244 0.258488L1.07703 -5.63457e-07C0.789824 0.22156 0.394912 0.406194 -2.73904e-07 0.516974Z" transform="translate(16.4084 35.6713)" fill="black"/>
<path d="M5.47807e-07 2.51102L0.107704 2.80643C1.50785 2.17868 2.80029 1.32936 3.91322 0.221559L3.69781 -5.63457e-07C2.62078 1.07088 1.40014 1.92019 5.47807e-07 2.51102Z" transform="translate(19.6755 37.5176)" fill="black"/>
<path d="M-1.09561e-06 2.17868L0.107703 2.51102C1.47195 2.0679 2.72848 1.29243 3.69781 0.221559L3.48241 -5.63457e-07C2.51308 0.997022 1.32834 1.73556 -1.09561e-06 2.17868Z" transform="translate(24.4502 46.1953)" fill="black"/>
<path d="M1.68735 -1.12691e-06C1.29244 0.590827 0.682122 1.03395 5.47807e-07 1.18165L0.0718017 1.514C0.861626 1.36629 1.54375 0.886241 1.97456 0.184633L1.68735 -1.12691e-06Z" transform="translate(28.6506 53.9869)" fill="black"/>
</svg>
