<svg width="56" height="57" viewBox="0 0 56 57" fill="none" xmlns="http://www.w3.org/2000/svg">
<path d="M3.60949 3.09275C3.54731 2.21195 3.79601 1.20533 3.04992 0.513276C2.6147 0.0728787 1.93078 -0.115864 1.30904 0.0728782C0.500768 0.26162 0.12772 0.953673 0.00337105 1.77155C-0.0588034 2.58943 0.749464 3.40732 1.55773 3.3444C2.49035 3.28149 3.04992 2.65235 3.11209 1.77155V1.70864C3.04992 1.9603 2.98775 2.21195 2.92557 2.52652C2.8634 2.58943 2.80122 2.65235 2.73905 2.77818C2.49035 2.904 2.30383 3.02983 2.05513 3.15566C1.8686 3.21857 1.68208 3.21857 1.49556 3.15566C1.24686 3.02983 1.06034 2.904 0.811638 2.77818C0.625115 2.58944 0.562941 2.40069 0.500766 2.14904C0.500766 2.02321 0.500766 1.9603 0.500766 2.08612C0.500766 2.21195 0.500766 2.27487 0.500766 2.40069C0.500766 2.65235 0.500766 2.904 0.500766 3.09275C0.562941 3.91063 1.18468 4.72851 2.05513 4.66559C2.86339 4.66559 3.67166 3.97354 3.60949 3.09275Z" transform="translate(21.9561 7.72852)" fill="#F0B1A3"/>
<path d="M17.9648 1.9109C18.3379 2.16255 18.7109 2.47712 19.084 2.72878C19.7679 3.86123 20.3896 5.05659 21.0735 6.18904C21.0114 6.12613 21.0114 6.0003 20.9492 5.93739C21.0114 6.62944 21.1357 7.32149 21.1979 8.01355C21.1979 7.88772 21.1979 7.8248 21.1979 7.69898C21.1357 5.18242 20.0788 3.04335 18.1514 1.53341C16.0996 -0.102348 14.0478 -0.165262 11.4365 0.149308C8.82518 0.526791 6.46256 0.715533 4.22428 2.22547C5.52994 1.84798 6.8356 1.53341 8.14127 1.15593C8.01692 1.15593 7.89257 1.15593 7.76822 1.21884C9.57128 5.68573 11.4365 10.1526 13.2396 14.6195C13.3017 14.5566 13.3639 14.4937 13.3639 14.4937C11.5609 15.2486 9.69563 16.0036 7.89257 16.8215C7.95474 16.8215 8.01692 16.8215 8.14127 16.8215C6.8356 16.444 5.52994 16.1294 4.22428 15.752C4.28645 15.8149 4.34862 15.8149 4.4108 15.8778C3.47818 14.9341 2.54557 13.9904 1.61295 13.0467C1.67512 13.1725 1.67512 13.2354 1.7373 13.3612C1.36425 12.04 1.05338 10.7188 0.680333 9.39765C0.866856 12.2288 0.742508 14.8712 2.17252 17.5135C3.04296 19.0864 4.47297 20.5334 6.02733 21.4771C8.76301 23.05 11.623 22.9871 14.4209 21.54C18.027 19.6526 19.3948 14.242 17.2187 10.7818C14.8561 7.06984 10.4417 5.93739 6.5869 7.95063C6.52473 8.01355 6.46256 8.01355 6.40038 8.07646C9.01171 8.07646 11.623 8.07646 14.2344 8.07646C13.1774 7.57315 14.9805 8.83143 15.2292 9.146C15.54 9.46056 15.7265 9.77513 15.8509 10.1526C16.0996 10.8447 16.1618 10.9076 16.0374 10.2784C16.0996 10.9705 16.2239 11.6626 16.2861 12.3546C15.9752 9.83805 16.4105 7.44732 15.0426 5.11951C12.2448 0.463877 6.08951 -0.039434 2.23469 3.54666C-0.0657608 5.68573 -0.563156 9.33474 0.618158 12.1659C1.7373 14.8082 4.6595 17.2619 7.70604 17.0102C8.51431 16.9473 9.32258 16.8215 10.1308 16.6957C10.9391 16.5069 11.6852 16.1294 12.307 15.689C11.9339 15.8149 11.5609 15.9407 11.1878 16.0665C11.4365 16.0036 11.7474 15.9407 12.0583 15.8778C13.1774 15.689 14.3587 15.5632 15.4778 15.4374C12.1826 12.9208 8.94953 10.4043 5.65429 7.8248C5.71646 11.0963 7.333 13.8645 10.0687 15.5632C13.5504 17.7652 18.7731 16.444 20.7005 12.7321C22.8144 8.83143 21.6953 4.23871 17.9648 1.9109Z" transform="translate(18.2947 0.542725)" fill="#F29D8C"/>
<path d="M11.6913 18.1589C11.8778 18.0331 12.1265 17.9072 12.3752 17.7814C11.7535 18.0331 11.1317 18.2847 10.51 18.5993C10.883 18.4734 11.1939 18.3476 11.6291 18.2847C10.9452 18.3476 10.2613 18.4735 9.57735 18.5364C9.82604 18.4735 10.0747 18.4734 10.3234 18.4734C8.08516 14.5099 5.84688 10.6092 3.6086 6.64564C3.54642 6.64564 3.54643 6.77146 3.48425 6.83438C4.41687 5.89067 5.34948 4.94696 6.2821 4.00325C6.21993 4.06616 6.09558 4.06616 6.0334 4.12908C6.65515 3.87742 7.27689 3.62577 7.89864 3.3112C7.83646 3.3112 7.71211 3.37411 7.64994 3.37411C8.33386 3.3112 9.01778 3.18537 9.7017 3.12246C6.90385 3.37411 5.10079 3.81451 2.92468 5.76484C-0.121867 8.47014 -0.0596926 14.1324 2.92468 16.9006C4.41687 18.2847 6.34427 19.2913 8.39603 19.2284C10.5721 19.1026 12.1887 18.2847 13.8674 16.9006C13.9917 16.8377 14.0539 16.7119 14.1783 16.6489C13.6809 17.0893 13.1213 17.4668 12.6239 17.9072C13.4322 17.341 14.2404 16.8377 15.1109 16.4602C14.4891 16.7119 13.8674 16.9635 13.2456 17.2781C14.1161 16.9006 15.0487 16.6489 15.9191 16.2715C18.5305 15.139 19.7118 13.1258 20.6444 10.6092C20.3957 11.2383 20.147 11.8675 19.8361 12.4966C19.8983 12.3708 19.9605 12.3079 20.0227 12.1821C19.5874 12.6854 19.2144 13.2516 18.7792 13.7549C18.8413 13.692 18.9657 13.5662 19.0279 13.5033C18.5305 13.9436 17.9709 14.3211 17.4735 14.7615C17.5978 14.6986 17.66 14.6357 17.7844 14.5728C20.9553 12.3079 22.5718 8.53305 20.9553 4.75822C20.3335 3.24828 19.2766 1.80126 17.7844 0.983384C15.7948 -0.0861528 13.9917 -0.149067 11.8156 0.165503C11.6913 0.165503 11.5669 0.228417 11.4426 0.228417C9.63952 0.542986 7.64994 2.30458 6.7795 3.81451C5.78471 5.51319 5.41166 7.96683 5.97123 9.85425C6.59297 11.7417 7.77429 13.5662 9.51517 14.5728C11.5048 15.6423 13.3078 15.7052 15.4839 15.3907C15.6083 15.3907 15.7326 15.3278 15.857 15.3278C13.8674 10.5463 11.8778 5.76484 9.88822 0.983384C7.64994 2.61915 6.46862 4.12908 5.47383 6.77146C5.72253 6.14232 5.97123 5.51318 6.2821 4.88405C6.21993 4.94696 6.21993 5.07279 6.15775 5.1357C7.71211 3.94034 9.26647 2.74497 10.8208 1.54961C9.453 2.11583 8.02298 2.49332 6.65515 3.18537C5.22513 3.87742 4.04382 4.88405 2.86251 5.89067C6.5308 9.60259 10.1991 13.3145 13.8674 17.0264C13.9296 16.9635 13.9917 16.9006 14.0539 16.8377C12.9348 17.5297 11.7535 18.1589 10.6343 18.8509C10.8208 18.788 11.0074 18.7251 11.1939 18.7251C10.51 18.788 9.82604 18.9138 9.14212 18.9768C12.5617 18.8509 15.1109 17.5297 17.1005 14.6357C20.3957 9.60259 15.9813 2.49332 10.3234 2.68206C8.02299 2.74497 5.7847 3.3112 3.8573 4.50656C0.437703 6.70855 -1.24101 11.6787 1.05945 15.3278C3.29773 18.788 8.02298 20.4867 11.6913 18.1589Z" transform="translate(21.957 2.16223)" fill="#F29D8C"/>
<path d="M13.2434 18.0859C14.7356 16.6388 15.9791 15.0031 17.2226 13.3044C19.2121 10.662 18.3417 5.94348 15.9791 3.80441C13.4299 1.47659 9.57511 0.721627 6.59073 2.54613C6.27986 2.73487 5.96899 2.92361 5.65812 3.11236C2.17635 5.25143 0.559812 10.2845 2.86027 13.8706C5.16072 17.4567 9.76163 18.9037 13.4921 16.7018C13.9895 16.3872 14.5491 16.1355 15.0465 15.7581C16.2278 14.9402 15.3573 15.2547 14.5491 15.6951C13.8651 16.0726 14.6734 15.821 15.1708 15.821C15.606 15.821 15.606 15.821 15.1708 15.821C13.4299 15.758 12.2486 14.4998 11.6269 12.109C11.8756 10.0958 12.1243 8.08255 12.4351 6.06931C12.9325 5.566 13.4299 4.99977 13.9273 4.49646C13.7408 4.62229 13.4921 4.74812 13.3056 4.87395C13.4921 4.81103 13.6786 4.74812 13.8651 4.6852C13.4921 4.81103 13.1812 4.93686 12.8082 4.99977C12.3108 5.1256 11.8756 5.18852 11.3782 5.31434C10.1347 5.62891 13.1191 5.1256 10.9429 5.37726C6.90161 5.88057 2.98462 8.64878 3.17114 13.2415C3.35766 17.0792 6.59073 21.609 10.9429 21.1057C14.4869 20.6653 18.0308 20.2878 21.2017 18.4004C25.3674 15.9468 28.2274 11.5428 26.1757 6.69845C24.3726 2.29447 20.0204 0.344144 15.5439 0.0295744C11.7512 -0.222081 8.89119 1.16202 5.65812 3.04944C8.26944 7.57924 10.8808 12.109 13.4921 16.6388C13.803 16.4501 14.1138 16.2614 14.4247 16.0726C10.8808 12.5494 7.33683 8.96335 3.79288 5.37726C4.16593 4.87394 4.04158 4.99977 3.41984 5.75474C3.04679 6.19514 2.67374 6.57262 2.23852 6.9501C-0.683676 9.84414 -0.808026 15.1918 2.23852 18.0859C5.40942 20.9799 10.1969 21.1686 13.2434 18.0859Z" transform="translate(28.7363 22.3049)" fill="#F29D8C"/>
<path d="M2.19616 3.83603C0.890497 5.91219 0.579625 8.17709 0.330927 10.5678C0.579625 8.11418 0.0822295 11.4486 0.0822295 11.5744C-0.166468 13.4619 0.144404 15.2235 1.07702 16.9221C2.88008 20.1936 6.4862 22.3956 9.53274 24.2831C14.3823 27.24 21.5324 23.4652 21.2215 17.4884C21.2215 17.2996 21.2215 17.1109 21.1594 16.8592C21.2215 16.1042 21.2215 16.0413 21.1594 16.6705C20.5376 18.0546 22.2785 15.0347 21.035 17.2996C22.9624 13.6506 22.0298 8.55458 18.2372 6.54133C14.631 4.591 9.65709 5.47179 7.60534 9.37246C6.29967 11.8261 5.49141 14.5943 5.61575 17.4254C9.53274 15.1605 13.3876 12.8956 17.3045 10.6307C16.3719 10.0645 15.4393 9.43537 14.5067 8.80623C13.885 8.36584 13.9471 8.30292 14.5067 8.80623C13.0145 7.42213 14.7554 8.61749 15.1284 10.5049C15.1284 11.889 15.1284 13.2731 15.1284 14.6572C15.4393 13.4619 15.5637 12.3923 15.7502 11.134C15.8745 10.2533 15.8745 10.3162 15.688 11.4486C15.9367 10.5678 15.8745 10.6937 15.5637 11.7003C17.6776 8.1771 16.4341 2.89233 12.7658 0.941995C9.03535 -1.00834 4.49661 0.124113 2.19616 3.83603Z" transform="translate(19.5767 30.6407)" fill="#F29D8C"/>
<path d="M14.1965 0.00263668C11.4608 -0.0602772 8.8495 1.00926 6.61122 2.51919C4.43511 3.9033 2.38335 5.47615 1.01552 7.74105C-1.03624 11.2642 0.0828995 16.549 3.81337 18.4993C7.54383 20.5126 12.2691 19.443 14.4452 15.6682C13.5748 16.6748 13.3261 16.9894 13.7613 16.549C14.1965 16.1086 13.8856 16.3603 12.8287 17.241C13.2017 16.9894 13.6369 16.6748 14.01 16.3603C14.7561 15.8569 15.5643 15.3536 16.4348 14.9761C15.813 15.2278 15.1913 15.4795 14.5695 15.794C14.8182 15.6682 15.1291 15.6053 15.3778 15.5424C14.6939 15.6053 14.01 15.7311 13.3261 15.794C13.6369 15.7311 13.8856 15.7311 14.1965 15.7311C18.2378 15.794 22.1548 12.0821 21.9683 7.86687C21.7818 3.52581 18.6109 0.0655506 14.1965 0.00263668Z" transform="translate(1.98071 19.5636)" fill="#F29D8C"/>
<path d="M6.13815 4.34229C6.13815 4.27938 6.20032 4.21646 6.20032 4.09063C5.70293 4.71977 5.26771 5.34891 4.77031 5.97805C4.83249 5.91514 4.89466 5.91514 4.95683 5.85222C3.46465 5.22308 1.91029 4.59395 0.418101 3.96481C1.41289 6.54428 1.97246 9.18666 5.08118 9.87871C8.00338 10.5079 11.8582 8.935 11.8582 5.53765C11.3608 6.41845 10.8012 7.36216 10.3038 8.24295C9.80644 8.11712 9.30905 7.9913 8.81165 7.86547C8.56295 7.42507 8.25208 6.92176 8.00338 6.48136C8.06556 6.60719 8.06556 6.73302 8.12773 6.79593C8.12773 6.22971 8.12773 5.66348 8.12773 5.09726C8.06556 5.60057 7.81686 6.16679 7.38164 6.48136C6.07598 7.48798 5.32988 9.18666 6.2625 10.7595C7.00859 12.0807 9.1847 12.8986 10.4904 11.892C12.853 10.0675 15.7752 6.22971 13.1017 3.33567C10.8012 0.819111 5.64076 1.95156 5.64076 5.91514C5.7651 5.41183 5.95163 4.8456 6.07597 4.34229C6.0138 4.4052 5.88945 4.53103 5.82728 4.65686C6.20032 4.27938 6.57337 3.90189 6.94642 3.52441C7.19512 3.39858 6.44902 3.71315 6.44902 3.71315C6.44902 3.65024 6.69772 4.21646 6.88424 4.02772C7.00859 3.90189 6.44902 2.51779 6.38685 2.32904C5.70293 0.504541 3.65117 -0.690823 1.84811 0.441627C0.97767 1.00785 0.480274 1.69991 0.169402 2.64361C-1.07409 6.54428 4.89466 8.24295 6.13815 4.34229Z" transform="translate(31.3027 0.376221)" fill="#F29D8C"/>
<path d="M5.24064 9.69786C5.92456 8.94289 6.60848 8.18793 7.41674 7.49587C8.22501 6.74091 8.66023 6.42634 9.4685 5.86011C10.7742 4.91641 11.5203 3.0919 10.5876 1.58197C9.7172 0.260775 7.72761 -0.557105 6.35978 0.449518C4.37019 1.83362 2.50496 3.46938 0.888427 5.29389C-0.168539 6.48925 -0.417237 8.56541 0.888427 9.76078C2.00757 10.8303 4.05932 11.0191 5.24064 9.69786Z" transform="translate(26.4802 15.0272)" fill="#F29D8C"/>
<path d="M23.03 3.31794C23.9626 3.19212 23.9626 2.94046 23.0922 2.56298C22.5948 2.18549 22.0974 1.80801 21.5378 1.55635C20.4808 0.990129 19.3617 0.549732 18.1804 0.298076C15.8178 -0.205235 13.3308 -0.079407 11.0925 0.738474C6.98898 2.24841 2.26372 6.40073 0.398489 10.4901C-0.223255 11.8113 -0.161081 13.1954 0.895885 14.3279C3.07199 16.5928 5.55897 18.6689 7.98377 20.4934C10.2842 22.255 13.2686 21.5001 15.6934 20.4934C18.74 19.1723 19.486 17.159 20.9161 14.4537C22.5326 11.4338 26.1387 9.67225 29.1231 8.28814C32.7292 6.58947 29.6205 1.17887 26.0144 2.87755C21.6621 4.89079 17.3099 7.59609 15.196 12.1259C14.5743 13.4471 14.2634 14.5166 12.7712 14.957C11.5277 15.3345 12.2116 15.3974 11.2168 14.8941C9.10291 13.6987 6.98898 11.6855 5.31027 9.9239C5.49679 11.1822 5.62114 12.4405 5.80767 13.7617C7.36203 10.3014 12.0251 6.02324 16.0043 6.46364C19.6726 6.84112 22.2217 11.5597 26.0765 8.91728C29.4961 6.46364 26.3874 1.05304 23.03 3.31794Z" transform="translate(0.235107 19.0793)" fill="#F29D8C"/>
<path d="M0.38951 4.56721C0.38951 4.63012 0.389509 4.63012 0.451684 4.69304C0.327335 4.44138 0.265161 4.18972 0.140812 3.93807C0.202986 4.12681 0.265161 4.31555 0.265161 4.5043C0.202987 4.25264 0.202986 3.93807 0.140812 3.68641C0.140812 3.87515 0.140812 4.0639 0.140812 4.25264C0.202986 4.00098 0.202987 3.68641 0.265161 3.43476C0.202987 3.6235 0.202986 3.81224 0.140812 4.00098C-0.170061 4.69304 0.0786372 5.82549 0.451684 6.45463C0.824731 7.08377 1.57082 7.7129 2.31692 7.90165C3.12519 8.09039 3.99563 8.02747 4.74172 7.58708C4.92824 7.39833 5.17694 7.27251 5.36347 7.08377C5.73651 6.70628 5.98521 6.20297 6.17173 5.69966C6.42043 5.13343 6.48261 4.50429 6.48261 3.93807C6.42043 2.99436 6.23391 2.36522 5.86086 1.54734C5.54999 0.855288 4.67955 0.289064 3.99563 0.100322C3.24953 -0.0884199 2.25474 -0.025506 1.57082 0.414891C0.886904 0.855289 0.327335 1.48443 0.140812 2.30231C0.0786372 2.55396 0.0786367 2.86853 0.0164622 3.12019C-0.0457122 3.56059 0.0786381 4.0639 0.38951 4.56721Z" transform="translate(26.2952 26.2606)" fill="#F0B1A3"/>
<path d="M4.00451 1.51937C4.31539 1.07897 3.63147 1.77102 4.00451 1.51937C3.75582 1.64519 3.50712 1.83394 3.25842 2.02268C2.63668 2.46307 2.01493 2.96639 1.45536 3.59553C0.211874 5.16837 -0.0990006 7.05579 0.0253483 9.00612C0.0875227 10.7048 1.39319 12.1518 3.13407 12.1518C4.75061 12.1518 6.30497 10.7048 6.24279 9.00612C6.24279 8.69155 6.24279 8.37698 6.24279 8.06241C6.24279 7.93659 6.30497 7.24453 6.24279 7.62202C6.18062 7.93659 5.9941 7.5591 6.18062 7.68493C6.18062 7.68493 6.18062 7.62202 6.42932 7.49619C7.61063 6.67831 8.60542 5.92334 9.41369 4.72798C10.3463 3.34387 9.66239 1.2048 8.29455 0.44983C6.74019 -0.493879 4.99931 0.13526 4.00451 1.51937Z" transform="translate(22.4314 27.9242)" fill="#F29D8C"/>
<path d="M0.377036 15.1361C2.36662 19.9176 9.01928 17.8414 10.4493 13.8149C10.5736 13.4375 10.6358 13.1229 10.7602 12.7454C10.8223 12.5567 10.8223 12.3679 10.8845 12.2421C11.0089 11.8646 11.0089 11.8646 10.8845 12.3679C11.8171 11.7388 12.5632 11.3613 13.1228 10.2918C13.558 9.41096 13.6202 8.40434 13.6202 7.46063C13.6202 6.89441 13.6202 6.3911 13.6202 5.82487C13.558 5.19573 13.6824 3.68579 13.1228 4.75533C14.9259 1.16924 9.57885 -2.03937 7.77579 1.60964C7.09188 2.99374 7.09188 4.00037 7.2784 5.57321C7.34057 6.20235 7.34057 6.83149 7.40275 7.46063C7.2784 8.46725 7.34057 8.53017 7.5271 7.64937C7.90014 6.95732 7.83797 6.76858 7.21623 7.27189C6.22143 7.52354 5.47534 9.03348 5.10229 9.91427C4.91577 10.3547 4.66707 10.9838 4.6049 11.4871C4.54272 11.6759 4.48055 11.8646 4.48055 12.0533C4.79142 11.613 5.22664 11.6759 5.66186 12.1163C4.97795 10.5434 2.73967 10.2288 1.434 10.9838C-0.120359 11.8017 -0.306883 13.6262 0.377036 15.1361Z" transform="translate(29.292 38.781)" fill="#F29D8C"/>
<path d="M0.396567 4.75595C0.458742 4.81886 0.458742 4.94469 0.520917 5.00761C0.396568 4.75595 0.334393 4.50429 0.210044 4.25264C0.458742 4.81886 0.645265 5.448 0.70744 6.07714C0.831788 6.83211 1.51571 7.58708 2.13745 7.96456C2.82137 8.34204 3.81616 8.53078 4.56226 8.27913C5.30835 8.02747 6.05444 7.58708 6.42749 6.83211C6.55184 6.58045 6.61401 6.3288 6.73836 6.07714C6.86271 5.51092 6.86271 4.94469 6.73836 4.37847C6.55184 3.37184 6.24097 2.42814 5.80574 1.54734C5.49487 0.855288 4.62443 0.289063 3.94051 0.100321C3.19442 -0.0884204 2.19963 -0.0255065 1.51571 0.414891C0.831788 0.855288 0.272218 1.48443 0.0856951 2.30231C-0.100828 3.1831 0.0235206 3.93807 0.396567 4.75595Z" transform="translate(25.8528 23.3036)" fill="#F0B1A3"/>
<path d="M2.86002 0.0376273C1.74088 0.163455 0.746094 0.981336 0.186524 1.98796C-0.186523 2.68001 -9.6353e-07 3.74955 0.746092 4.12703C1.49219 4.50451 2.48698 4.31577 2.86002 3.56081C2.9222 3.49789 2.9222 3.43498 2.98437 3.37206C3.04655 3.18332 2.79785 3.56081 2.9222 3.43498C2.98437 3.37207 3.04655 3.30915 3.10872 3.24624C3.29525 3.05749 2.9222 3.37206 3.04655 3.24624C3.10872 3.24624 3.1709 3.18332 3.23307 3.12041C3.48177 2.99458 3.29525 3.12041 3.1709 3.12041C3.29525 3.12041 3.54394 2.99458 3.66829 2.99458C4.04134 2.93167 4.41438 2.55418 4.60091 2.30253C4.78743 1.98796 4.84961 1.48465 4.78743 1.10716C4.66308 0.729681 4.41439 0.352197 4.10351 0.163456C3.66829 -0.0252861 3.29525 -0.0252866 2.86002 0.0376273Z" transform="translate(22.9543 16.9491)" fill="#F5CED2"/>
<path d="M2.98208 5.41001C3.16861 4.9067 3.35513 4.34047 3.54165 3.83716C3.60383 3.5855 3.72818 3.33385 3.79035 3.08219C3.85253 2.95636 3.85253 2.89345 3.9147 2.76762C3.79035 3.20802 3.4173 3.27093 2.73338 3.01928C4.47427 4.0259 6.02863 1.3206 4.28775 0.313981C3.10643 -0.378072 1.73859 0.125239 1.17902 1.3206C0.681628 2.32723 0.370757 3.45968 0.0598844 4.52921C-0.188813 5.34709 0.370757 6.22789 1.11685 6.47954C1.92512 6.7312 2.73339 6.22789 2.98208 5.41001Z" transform="translate(26.0654 14.5337)" fill="#F5CED2"/>
<path d="M1.55773 3.21392C1.80643 3.21392 1.43338 3.151 1.30903 3.151C1.12251 3.08809 1.06034 2.96226 0.935988 2.77352C1.18469 3.08809 1.43338 3.40266 1.8686 3.46557C2.24165 3.5914 2.73905 3.52849 3.04992 3.27683C3.67166 2.83644 4.10688 1.82981 3.60949 1.13776C3.11209 0.445707 2.42817 -0.0576047 1.55773 0.00530918C0.749465 0.0682231 -0.0588029 0.697362 0.00337153 1.57816C0.065546 2.45895 0.68729 3.27683 1.55773 3.21392Z" transform="translate(27.6763 16.604)" fill="#F5CED2"/>
<path d="M2.32809 5.78808C3.82027 4.9702 4.75289 3.33444 4.69072 1.57285C4.69072 0.754967 4.0068 4.79995e-07 3.13636 4.79995e-07C2.32809 4.79995e-07 1.582 0.692053 1.582 1.57285C1.582 1.95033 1.58199 2.13907 1.39547 2.45364C1.20895 2.76821 1.0846 2.89404 0.773725 3.08278C0.0276321 3.52318 -0.221064 4.5298 0.214157 5.22185C0.649378 5.97682 1.64417 6.16556 2.32809 5.78808Z" transform="translate(30.0767 16.4834)" fill="#F5CED2"/>
<path d="M0.0208114 1.50993C-0.103538 3.77483 0.331684 5.97682 1.2643 8.05298C2.07257 9.87748 4.74607 8.30464 3.9378 6.48013C3.25388 4.90729 3.06736 3.20861 3.12953 1.50993C3.25388 -0.503311 0.14516 -0.503311 0.0208114 1.50993Z" transform="translate(26.5396 19.8807)" fill="#F5CED2"/>
<path d="M1.14013 3.02207C1.451 3.08498 0.829256 2.83333 1.14013 3.02207C1.26448 3.08498 1.2023 3.08499 1.01578 2.89624C1.14013 2.95916 1.14013 3.02207 1.14013 3.02207C1.6997 3.65121 2.81884 3.65121 3.37841 3.08499C3.93798 2.45585 4.00015 1.51214 3.37841 0.882999C3.00536 0.442602 2.50797 0.190947 1.9484 0.0651187C1.14013 -0.186537 0.207512 0.316772 0.0209885 1.13465C-0.10336 1.88962 0.33186 2.77041 1.14013 3.02207Z" transform="translate(28.0938 21.8918)" fill="#F5CED2"/>
<path d="M2.01471 0.231158C0.70905 1.17487 -0.161392 2.74772 0.0251318 4.38348C0.0873062 5.20136 0.646875 5.95633 1.57949 5.95633C2.32559 5.95633 3.19603 5.26427 3.13385 4.38348C3.13385 4.19474 3.07168 3.94308 3.13385 3.75434C3.07168 4.00599 3.2582 3.43977 3.2582 3.37685C3.13385 3.69142 3.5069 2.99937 3.32038 3.25103C3.38255 3.18811 3.7556 2.81063 3.56907 2.93646C4.25299 2.43315 4.56387 1.55235 4.12865 0.797384C3.7556 0.105331 2.69863 -0.272153 2.01471 0.231158Z" transform="translate(19.634 21.5371)" fill="#F5CED2"/>
<path d="M0.803582 3.76509C1.7362 4.20549 2.73099 4.39423 3.72578 4.14258C4.78275 3.89092 5.77754 2.8843 6.8345 3.32469C7.64277 3.63926 8.51321 3.57635 8.94843 2.75847C9.32148 2.12933 9.13496 0.933964 8.38887 0.619395C7.3319 0.178997 6.39928 -0.198486 5.21797 0.116084C4.4097 0.36774 3.16621 1.43728 2.29577 0.99688C0.554883 0.116085 -0.999477 2.8843 0.803582 3.76509Z" transform="translate(20.1611 25.5527)" fill="#F5CED2"/>
<path d="M0.218369 2.36455C0.715765 3.30826 0.840115 4.25197 0.467068 5.25859C-0.154677 7.20892 2.89187 8.0268 3.45144 6.07647C4.01101 4.25197 3.76231 2.36455 2.8297 0.728788C1.89708 -0.969888 -0.776422 0.602959 0.218369 2.36455Z" transform="translate(24.5391 21.2911)" fill="#F5CED2"/>
<path d="M1.86913 0.214431C0.625645 0.906484 -0.058274 2.3535 0.00390045 3.73761C0.0660749 5.62503 1.74478 6.8833 3.48567 6.06542C4.23176 5.68794 4.41829 4.6184 4.04524 3.92635C3.61002 3.17138 2.6774 2.98264 1.93131 3.36013C2.49088 3.10847 2.86392 3.2343 3.11262 3.73761C3.11262 3.86344 3.11262 3.80052 3.11262 3.61178C3.1748 3.29721 3.05045 3.61178 3.1748 3.36013C3.29914 3.10847 3.1748 3.10847 3.42349 2.98264C4.16959 2.60516 4.41828 1.53562 3.98306 0.84357C3.61002 0.025689 2.61523 -0.225967 1.86913 0.214431Z" transform="translate(22.0178 30.236)" fill="#F5CED2"/>
<path d="M1.50005 3.14663C1.25135 3.14663 1.31353 2.95789 1.3757 3.20954C1.3757 3.27245 1.56222 3.58702 1.6244 3.77576C1.93527 4.46782 2.24614 5.15987 2.55702 5.85192C2.93006 6.60689 3.98703 6.79563 4.67095 6.41815C5.47922 5.97775 5.60356 5.03404 5.23052 4.27908C4.42225 2.51749 3.73833 0.0638446 1.43788 0.00093074C-0.489532 -0.0619832 -0.48953 3.08371 1.50005 3.14663Z" transform="translate(27.0498 29.7573)" fill="#F5CED2"/>
<path d="M3.02724 1.09313C2.84071 0.967302 3.08941 1.15604 3.08941 1.15604C3.08941 1.15604 2.96506 1.03022 2.90289 0.967302C2.84071 0.904388 3.08941 1.28187 3.02724 1.09313C2.96506 1.03022 2.84071 0.77856 3.02724 1.15604C2.84071 0.77856 2.71636 0.46399 2.34332 0.212334C2.03244 0.0235927 1.53505 -0.0393207 1.162 0.0235932C0.415909 0.275249 -0.268011 1.15604 0.105036 1.97392C0.415908 2.72889 0.851131 3.29511 1.53505 3.73551C2.21897 4.17591 3.27593 3.92426 3.64898 3.16929C3.95985 2.47724 3.77333 1.53353 3.02724 1.09313Z" transform="translate(27.3257 26.8407)" fill="#F5CED2"/>
<path d="M3.23307 18.4967C4.16569 20.2583 5.40918 22.2715 7.39876 22.9636C7.39876 23.0265 7.46093 23.0265 7.46093 23.0894C7.52311 23.2152 7.52311 23.3411 7.52311 23.5298C7.52311 23.6556 7.52311 23.7815 7.58528 23.9073C7.58528 23.9702 7.64746 24.096 7.64746 24.1589C7.64746 24.2848 7.70963 24.3477 7.70963 24.4106C7.77181 24.6623 7.70963 24.9768 7.58528 25.2914C7.46093 25.7318 7.33659 26.2351 7.64746 26.6755C7.70963 26.7384 7.70963 26.8013 7.77181 26.8013C6.90136 26.6126 5.96875 26.7384 5.16048 27.053C4.84961 27.1788 4.60091 27.3046 4.35221 27.4305C3.97917 27.6192 3.54394 27.8709 3.1709 27.9338C2.6735 28.0596 2.05176 28.0596 1.43001 27.8709L-2.37177e-07 27.4934L1.30566 28.2483C1.92741 28.6258 2.61133 29.0033 3.35742 29.1921C3.60612 29.255 3.85482 29.255 4.10351 29.255C4.53873 29.255 4.91178 29.1921 5.28483 29.0662C5.65788 28.9404 6.03092 28.7517 6.34179 28.5629C6.52832 28.5 6.65267 28.3742 6.83919 28.3113C7.46093 27.9967 7.95833 27.8709 8.39355 27.9967C8.82877 28.0596 9.32617 28.4371 9.32617 28.8775L9.07747 29.0033C9.32617 29.4437 9.63704 29.947 10.0101 30.3245C10.4453 30.702 10.9427 30.9536 11.4401 30.9536C11.5023 30.9536 11.5644 30.9536 11.6266 30.9536C11.9375 30.8907 12.2484 30.702 12.2484 30.3874C12.2484 30.0099 11.8753 29.8841 11.751 29.8212L10.3831 29.1921C10.1344 29.0662 9.82356 28.9404 9.51269 28.9404H9.76139C9.69921 28.1854 9.07747 27.6821 8.45572 27.6192C7.89615 27.5563 7.33658 27.6821 6.65267 27.9967C6.46614 28.0596 6.27962 28.1854 6.15527 28.2483C5.8444 28.4371 5.47135 28.6258 5.16048 28.7517C4.60091 28.9404 3.97917 29.0033 3.4196 28.8775C3.10872 28.8146 2.79785 28.6887 2.48698 28.5629C2.79785 28.5629 3.04655 28.5 3.29525 28.4371C3.73047 28.3113 4.16569 28.1225 4.60091 27.8709C4.84961 27.745 5.0983 27.6192 5.347 27.4934C6.15527 27.1788 7.08789 27.1159 7.95833 27.3046L8.0205 27.053C8.14485 27.1159 8.2692 27.1788 8.39355 27.2417L10.5075 28.3742L10.6318 28.1225C10.694 28.3113 10.7562 28.5 10.8805 28.6887L11.1914 28.5629C11.3158 28.8146 11.3779 29.1291 11.5023 29.3808L11.8753 29.1921C10.5697 25.8576 10.1966 22.1457 10.8184 18.6225C10.8184 18.4967 10.8805 18.3709 10.9427 18.3079C11.0671 18.245 11.3158 18.3709 11.5023 18.5596L12.6214 19.6291L12.7458 19.4404C12.9945 19.1258 13.1188 18.7483 13.1188 18.3709C13.1188 17.9305 12.9323 17.6159 12.6214 17.3642C12.3105 17.1126 11.9375 16.9868 11.5644 17.0497C11.1292 17.1126 10.8184 17.3013 10.5697 17.553C10.5075 17.6159 10.4453 17.6788 10.4453 17.6788C10.4453 17.6788 10.4453 17.6788 10.4453 17.6159C10.4453 17.2384 10.3831 16.8609 10.5697 16.5464C10.694 16.2947 10.9427 16.043 11.1914 16.043C11.2536 16.043 11.3157 16.043 11.3157 16.043C11.4401 16.043 11.5023 16.106 11.6266 16.106C11.8753 16.106 12.0618 15.9801 12.1862 15.7285C12.3105 15.4768 12.3105 15.1623 12.1862 14.9106C11.9375 14.5331 11.4401 14.3444 10.9427 14.5331C10.5075 14.6589 10.1966 15.0364 10.0101 15.2881C9.63704 15.7914 9.32617 16.3576 9.20182 16.9868C9.13964 17.1126 9.13964 17.2384 9.07747 17.2384C8.95312 17.3013 8.7666 17.3013 8.58007 17.3013H8.5179C7.33658 17.1755 6.15527 17.9934 5.8444 19.1258C5.78222 19.3775 5.78222 19.6291 5.8444 19.8179C5.90657 20.0066 6.09309 20.1324 6.34179 20.1954C6.59049 20.2583 6.96354 20.1954 7.21224 20.0695C7.52311 19.8179 7.70963 19.5033 7.83398 19.1258L7.89615 19C8.0205 18.7483 8.20703 18.3709 8.5179 18.3079L8.39355 17.8675C7.95833 17.9934 7.64746 18.4338 7.46093 18.8113L7.21224 18.9371C7.08789 19.2517 6.90136 19.5033 6.71484 19.6921C6.59049 19.8179 6.40397 19.8179 6.21745 19.755C6.0931 19.755 6.03092 19.6921 6.03092 19.6291C5.96875 19.5662 5.96875 19.3775 6.03092 19.2517C6.27962 18.3079 7.33659 17.6788 8.2692 17.7417H8.33138C8.58007 17.8046 8.95312 17.8046 9.20182 17.553C9.32617 17.4272 9.38834 17.2384 9.45051 17.0497C9.57486 16.4834 9.88574 15.9801 10.1966 15.5397C10.4453 15.2252 10.694 14.9735 10.9427 14.9106C11.1914 14.8477 11.5023 14.8477 11.6888 15.0993C11.751 15.2252 11.751 15.351 11.6888 15.4768C11.6888 15.5397 11.6266 15.6026 11.5023 15.6026C11.4401 15.6026 11.3779 15.6026 11.3157 15.5397C11.2536 15.5397 11.1914 15.4768 11.1292 15.4768C10.6318 15.4139 10.1966 15.7914 10.0101 16.2318C9.82356 16.6093 9.88574 17.0497 9.88574 17.4901C9.88574 17.553 9.88574 17.7417 10.0101 17.8675C10.0723 17.9305 10.1966 17.9934 10.321 17.9934C10.5075 17.9934 10.6318 17.8675 10.8184 17.6788C11.0049 17.4901 11.2536 17.3642 11.5644 17.3013C11.8753 17.3013 12.124 17.3642 12.3105 17.553C12.4971 17.7417 12.6214 17.9934 12.6836 18.3079C12.6836 18.4967 12.6836 18.7483 12.5592 18.8742L11.8131 18.1821C11.2536 17.6788 10.8805 17.8046 10.7562 17.8675C10.5075 18.0563 10.4453 18.3079 10.4453 18.4967C9.94791 21.4536 10.0723 24.4735 10.8805 27.3046C10.1344 25.4801 9.45052 23.404 9.63704 21.3907C9.63704 21.2649 9.69921 21.0762 9.69921 20.9503C9.76139 20.1954 9.88574 19.4404 9.51269 18.7483L9.26399 18.245L8.33138 20.5728C8.2692 20.7616 8.14485 20.8874 8.0205 20.9503C7.95833 20.9503 8.0205 20.7616 8.08268 20.5728L8.7666 19.1258C8.89095 18.8113 9.0153 18.3709 8.89095 18.0563C8.82877 17.8675 8.70442 17.8046 8.5179 17.7417L8.39355 18.1821C8.45573 18.1821 8.45572 18.245 8.45572 18.245C8.5179 18.3709 8.45572 18.6854 8.33138 18.9371L7.64746 20.3841C7.39876 20.8874 7.58528 21.1391 7.70963 21.2649C7.83398 21.3907 7.95833 21.3907 8.14485 21.3278C8.39355 21.2649 8.64225 20.9503 8.7666 20.6987L9.32617 19.3775C9.38834 19.8179 9.32617 20.2583 9.26399 20.7616C9.26399 20.9503 9.20182 21.0762 9.20182 21.2649C9.13964 21.7682 9.13964 22.2086 9.20182 22.649C9.13964 22.4603 9.0153 22.2715 8.89095 22.0828C8.39355 21.4536 7.58528 21.202 6.96354 21.0132L6.59049 20.9503L6.65267 21.2649C6.71484 21.6424 6.83919 21.957 6.96354 22.2715C5.40918 21.4536 4.35221 19.6921 3.54394 18.245C1.86523 14.9735 0.994791 12.457 0.746094 9.9404C0.621745 8.43046 0.746093 7.2351 1.18131 6.16556C2.48698 3.01987 6.21745 1.8245 9.32617 1.13245C10.8805 0.754967 12.3727 0.503311 13.8027 0.817881C13.9271 0.817881 13.9892 0.880795 14.1136 0.880795C14.611 1.00662 15.1706 1.13245 15.668 0.943709C15.8545 0.880795 16.041 0.754967 16.1654 0.692053C16.4141 0.566225 16.6006 0.440397 16.7871 0.440397C16.9736 0.440397 17.2223 0.503311 17.5332 0.754967C17.9062 1.00662 18.2171 1.32119 18.528 1.69868C19.2119 2.39073 19.8958 3.08278 20.8284 3.1457C21.388 3.1457 21.7611 3.01987 22.1341 2.95695C22.3828 2.89404 22.5693 2.83113 22.818 2.83113C24.0615 2.7053 25.3672 3.52318 25.9889 4.71854C26.5485 5.85099 26.5485 7.29801 25.9889 8.6192C25.7402 9.18543 25.4293 9.75165 25.0563 10.3179C24.5589 11.0728 24.1237 11.8907 23.875 12.7715C23.8128 13.0861 23.7506 13.4636 23.6885 13.7781C23.6263 14.3444 23.5019 14.9106 23.2532 15.4139C22.818 16.1689 22.0098 16.6722 21.2015 17.1126C21.015 17.1755 20.8906 17.3013 20.7041 17.3642C19.2741 18.1821 18.0306 19.3146 16.7871 20.3841C15.8545 21.202 14.9219 22.0828 14.2379 23.2152C13.9271 23.7185 13.7406 24.2219 13.6162 24.7252C13.4919 24.1589 13.2432 23.7815 12.9945 23.404C12.4971 22.8377 11.8131 22.5232 11.1914 22.5861C11.1292 22.5861 11.0049 22.649 10.9427 22.7119C10.9427 22.8377 10.9427 22.9007 10.9427 22.9636C10.8184 24.1589 11.1914 25.2914 11.5023 26.298L12.4349 29.1291L12.8701 29.0033L11.9375 26.1722C11.6888 25.4801 11.4401 24.7252 11.3779 23.9702C12.2484 24.0331 13.1188 24.5364 13.4919 25.3543L13.6784 25.6689C13.6784 26.1093 13.7406 26.5497 13.9271 26.9272L14.3001 26.7384C13.9271 25.7947 14.0514 24.5364 14.7353 23.404C15.3571 22.3344 16.2897 21.5166 17.1601 20.6987C18.3415 19.6291 19.5849 18.4967 20.9528 17.6788C21.0771 17.6159 21.2637 17.4901 21.388 17.4272C22.2584 16.9238 23.1289 16.4834 23.6263 15.6026C23.9372 15.0364 23.9993 14.4702 24.0615 13.8411C24.1237 13.5265 24.1237 13.2119 24.248 12.8974C24.4346 12.0795 24.9319 11.3245 25.3672 10.5695C25.678 10.0033 26.0511 9.43709 26.2998 8.80795C26.9215 7.36093 26.8594 5.78808 26.2998 4.5298C25.678 3.1457 24.1859 2.2649 22.7558 2.39073C22.5071 2.39073 22.2585 2.45364 22.0098 2.51656C21.6367 2.57947 21.3258 2.64238 20.9528 2.64238C20.1445 2.57947 19.5228 1.95033 18.901 1.32119C18.5902 1.00662 18.2171 0.629139 17.8441 0.377483C17.5332 0.125828 17.2223 0 16.9114 0C16.6006 0 16.3519 0.188742 16.041 0.31457C15.9167 0.377483 15.7301 0.503311 15.6058 0.566225C15.1706 0.692053 14.7353 0.629139 14.2379 0.503311C14.1136 0.503311 13.9893 0.440397 13.9271 0.440397C12.3727 0.125828 10.8805 0.440397 9.26399 0.754967C6.03092 1.50993 2.17611 2.76821 0.808268 6.03974C0.373047 7.17219 0.186523 8.43046 0.373047 10.0033C0.621744 12.5828 1.49219 15.1623 3.23307 18.4967ZM10.1966 29.5695L11.5644 30.1987C11.8131 30.3245 11.8131 30.3874 11.8131 30.3874C11.8131 30.4503 11.6888 30.5132 11.5644 30.5132C11.1914 30.5762 10.694 30.3874 10.321 30.0099C10.1344 29.8212 10.0101 29.6324 9.82356 29.4437C9.94791 29.4437 10.0723 29.5066 10.1966 29.5695ZM8.89095 25.3543C9.07747 24.851 9.20182 24.3477 9.26399 23.7815V23.7185C9.45052 24.9139 9.82356 26.0464 10.2588 27.1159C10.0723 26.9272 9.76139 26.7384 9.51269 26.6755C9.45052 26.6755 9.38834 26.6126 9.32617 26.6126C9.13964 26.5497 9.01529 26.5497 8.95312 26.4868C8.70442 26.298 8.70442 25.9205 8.89095 25.3543ZM7.58528 22.4603C7.58528 22.3974 7.52311 22.3974 7.52311 22.3344C7.39876 22.0828 7.27441 21.8311 7.15006 21.5795C7.70963 21.7682 8.20703 21.957 8.45572 22.3973C8.70442 22.7119 8.82877 23.2152 8.7666 23.7185C8.70442 24.2219 8.58007 24.7252 8.39355 25.1656C8.33138 25.4172 8.0205 26.298 8.58007 26.7384C8.7666 26.8642 8.95312 26.9272 9.13964 26.9901C9.20182 26.9901 9.26399 26.9901 9.32617 27.053C9.63704 27.1159 9.88574 27.3675 10.0723 27.6192L8.45572 26.8013C8.2692 26.6755 8.0205 26.5497 7.89615 26.3609C7.70963 26.1093 7.83398 25.7318 7.89615 25.3543C7.95833 25.0397 8.08268 24.6623 8.0205 24.3477C8.0205 24.2219 7.95833 24.096 7.95833 24.0331C7.95833 23.9702 7.89615 23.9073 7.89615 23.8444C7.89615 23.7185 7.83398 23.6556 7.83398 23.5298C7.83398 23.404 7.83398 23.3411 7.77181 23.2152C7.77181 23.2152 7.77181 23.2152 7.83398 23.2152L7.95833 22.7748C7.83398 22.7748 7.70963 22.7119 7.58528 22.649C7.64746 22.5861 7.64746 22.5232 7.58528 22.4603ZM11.3157 23.5298C11.3157 23.3411 11.3157 23.2152 11.3157 23.0265C11.8131 22.9636 12.3727 23.2152 12.7458 23.6556C12.8701 23.8444 12.9945 24.0331 13.1188 24.2219C12.6214 23.7815 11.9997 23.5298 11.3157 23.5298Z" transform="translate(18.2913)" fill="black"/>
<path d="M27.792 10.9674C27.4189 8.45086 26.6728 4.86477 24.1237 2.7257C22.7558 1.59325 20.9528 1.08994 19.5849 0.712455C16.2275 -0.105425 13.3675 -0.231253 10.8184 0.397886C7.70963 1.15285 5.0983 3.10318 3.91699 5.68265L4.29004 5.8714C5.47135 3.48067 7.95833 1.59325 10.9427 0.838284C13.4297 0.209145 16.2275 0.334972 19.5228 1.15285C20.8284 1.46742 22.5693 1.97073 23.875 3.04027C26.362 5.05352 27.0459 8.51378 27.4189 10.9674C27.4811 11.4078 27.5433 11.9111 27.4189 12.2886C27.3568 12.6661 27.1081 13.0436 26.9215 13.4211C25.8646 15.3714 24.4967 17.825 22.3828 19.0833C21.1393 19.8383 19.7093 20.1529 18.3415 20.4045C16.3519 20.782 13.9892 21.0336 11.751 20.4674C9.38834 19.8383 7.39876 18.2654 5.47135 16.5668C4.41439 15.6231 3.41959 14.6164 3.1709 13.484H3.23307C3.48177 13.484 3.66829 13.2952 3.79264 13.0436C3.85482 12.7919 3.85482 12.6032 3.79264 12.4144C3.66829 11.5966 3.48177 10.4641 2.73567 9.77206C2.4248 9.45749 1.98958 9.26875 1.61654 9.08L0.186523 8.38795L4.74353e-07 8.76543L0.062174 8.82835C0.186523 9.33166 0.435222 9.9608 0.932617 10.3383C1.05697 10.4641 1.24349 10.527 1.36784 10.5899C1.55436 10.6529 1.67871 10.7787 1.80306 10.9045C2.11393 11.1562 2.17611 11.5966 2.30046 12.037C2.36263 12.4144 2.48698 12.7919 2.6735 13.1065C2.73568 14.6164 3.85482 15.8747 5.16048 16.9442C7.15006 18.6429 9.20182 20.2787 11.6266 20.9078C12.6214 21.1595 13.6162 21.2853 14.611 21.2853C15.9788 21.2853 17.2845 21.0966 18.4036 20.9078C19.8336 20.6562 21.2637 20.2787 22.5693 19.5237C24.8076 18.2025 26.1754 15.686 27.2946 13.6727C27.4811 13.2952 27.7298 12.8548 27.792 12.4144C27.9163 11.974 27.9163 11.4707 27.792 10.9674ZM2.11393 10.5899C1.92741 10.4641 1.74088 10.3383 1.61654 10.2125C1.49219 10.1495 1.36784 10.0866 1.24349 9.9608C0.994792 9.77206 0.808267 9.45749 0.683918 9.08L1.49219 9.45749C1.86523 9.64623 2.23828 9.83497 2.48698 10.0866C3.10872 10.6529 3.29525 11.5336 3.4196 12.4774C3.4196 12.6032 3.48177 12.7919 3.4196 12.9178C3.4196 12.9807 3.29525 13.0436 3.29525 13.0436C3.29525 13.0436 3.23307 12.9807 3.1709 12.9807C2.9222 12.729 2.86002 12.3515 2.73567 11.9111C2.6735 11.4707 2.54915 10.9674 2.11393 10.5899Z" transform="translate(28.1147 22.2511)" fill="black"/>
<path d="M22.4534 8.68212C22.5777 9.9404 22.7643 11.1987 22.5156 12.457C22.2669 13.8411 21.6451 14.9106 20.7125 15.4768C20.5882 15.5397 20.526 15.6026 20.4016 15.6656C20.1529 15.7914 19.9042 15.9801 19.6555 16.1689C19.2825 16.5464 19.096 17.1126 18.9716 17.6159C18.9094 17.8675 18.8473 18.0563 18.7851 18.245C18.1012 20.0066 16.1116 20.6987 14.4951 20.5728C12.692 20.447 10.9511 19.5662 9.45893 18.8113C8.09109 18.1192 6.72325 17.4272 5.66629 16.2947C5.54194 16.1689 5.47977 16.106 5.41759 15.9801C5.16889 15.6656 4.85802 15.351 4.48497 15.1622C4.23628 14.9735 3.9254 14.8477 3.6767 14.7848C3.36583 14.6589 3.05496 14.5331 2.80626 14.3444C2.43322 14.0927 2.18452 13.6523 1.93582 13.2119C-0.302459 9.18543 0.00841444 3.96358 2.61974 0.251656L2.24669 -9.5999e-07C-0.488983 3.90066 -0.73768 9.31126 1.56277 13.4636C1.81147 13.904 2.12234 14.3444 2.55757 14.7219C2.86844 14.9106 3.17931 15.0993 3.49018 15.2252C3.73888 15.351 3.98758 15.4139 4.23628 15.6026C4.54715 15.7914 4.79585 16.106 5.10672 16.3576C5.23107 16.4834 5.29324 16.5464 5.41759 16.6722C6.53673 17.8046 7.96674 18.5596 9.33458 19.2517C10.8889 20.0695 12.6298 20.9503 14.5572 21.0762C14.6194 21.0762 14.7438 21.0762 14.8059 21.0762C16.4846 21.0762 18.5364 20.2583 19.2203 18.4338C19.2825 18.245 19.3447 17.9934 19.4068 17.7417C19.5312 17.2384 19.6555 16.798 19.9664 16.4834C20.1529 16.2947 20.3395 16.1689 20.5882 16.043C20.7125 15.9801 20.8369 15.9172 20.899 15.8543C21.8938 15.2252 22.6399 13.9669 22.8886 12.5199C23.0751 11.1987 22.9508 9.87749 22.8264 8.61921L22.4534 8.68212Z" transform="translate(19.4019 35.9238)" fill="black"/>
<path d="M21.5864 13.7852C22.5812 12.0865 24.3843 10.8282 26.3117 10.4508L26.2495 10.0104C24.1978 10.3879 22.3325 11.709 21.2134 13.5965C20.8404 14.2885 20.5295 14.9806 20.2808 15.7355C19.8456 16.8051 19.4725 17.8746 18.7264 18.6925C17.6073 19.9508 15.742 20.4541 14.312 20.8945C12.3846 21.4607 10.0842 21.9011 8.71634 20.517C8.59199 20.3912 8.52981 20.3282 8.46764 20.2024C8.28111 19.9508 8.03242 19.6991 7.72154 19.5104C7.41067 19.3216 7.0998 19.2587 6.78893 19.1958C6.66458 19.1958 6.54023 19.1329 6.41588 19.1329C5.29674 18.8183 4.48847 17.8746 3.80455 17.1196L1.56627 14.5402C1.31758 14.2885 1.06888 13.9739 0.882355 13.6594C0.571483 13.1561 0.447134 12.5898 0.509308 12.0236C0.571483 10.7653 1.44193 9.6958 2.31237 8.68917C4.79935 5.85805 7.84589 2.77527 11.7629 1.26533C15.1825 -0.0558588 19.9077 -0.0558573 22.9543 2.9011L23.2652 2.58653C20.0943 -0.496255 15.1203 -0.496255 11.5764 0.887851C7.59719 2.4607 4.4263 5.54348 1.93932 8.43752C1.0067 9.50706 0.136262 10.6395 0.0119127 12.0236C-0.0502617 12.7157 0.136262 13.3448 0.447134 13.911C0.633657 14.2885 0.944529 14.5402 1.19323 14.8547L3.43151 17.4342C4.1776 18.2521 5.04804 19.2587 6.29153 19.5733C6.41588 19.6362 6.54023 19.6362 6.66458 19.6362C6.97545 19.6991 7.22415 19.762 7.41067 19.8879C7.65937 20.0137 7.84589 20.2653 8.03242 20.517C8.15676 20.6428 8.21894 20.7686 8.34329 20.8945C9.08938 21.7124 10.0842 21.964 11.2033 21.964C12.2603 21.964 13.3794 21.7124 14.3742 21.3978C15.8664 20.9574 17.7316 20.3912 18.9751 19.07C19.7834 18.1892 20.2186 17.0567 20.6538 15.9872C20.9025 15.1064 21.2134 14.4143 21.5864 13.7852Z" transform="translate(0 19.0559)" fill="black"/>
<path d="M0.176004 -2.39997e-07C-0.44574 3.77483 0.611225 7.86424 2.8495 10.8841L2.97385 11.0728L3.16038 10.947C3.3469 10.8212 3.40907 10.5066 3.3469 10.3179L3.03603 10.4437C0.922096 7.54967 -0.0105201 3.64901 0.54905 0.125828L0.176004 -2.39997e-07Z" transform="translate(20.9131 5.28479)" fill="black"/>
<path d="M1.67871 9.68874L1.74088 8.55629H1.43001C0.808268 7.48675 0.497395 6.16556 0.43522 4.65563C0.43522 3.08278 0.746092 1.50993 1.05696 0.125828L0.621745 5.99994e-08C0.310873 1.38411 9.48707e-07 3.01987 9.48707e-07 4.65563C9.48707e-07 6.41722 0.497396 7.99007 1.30566 9.18543L1.67871 9.68874Z" transform="translate(23.5759 4.34106)" fill="black"/>
<path d="M2.05176 0.377483L1.92741 0C1.61654 0.125828 1.49219 0.566225 1.43001 0.754967C0.746093 3.08278 0.248698 5.47351 4.74353e-07 7.92715L0.435222 7.99007C0.746094 5.59934 1.24349 3.20861 1.86523 0.880795C1.86523 0.629139 1.92741 0.440397 2.05176 0.377483Z" transform="translate(31.2234 3.77478)" fill="black"/>
<path d="M3.73047 0.46399C3.66829 0.46399 3.66829 0.401076 3.60612 0.401076C3.60612 0.401076 3.60612 0.46399 3.54394 0.526904L9.48707e-07 7.25869L0.373047 7.44743L3.91699 0.715646C3.97916 0.652732 4.10351 0.401076 4.04134 0.212335C3.91699 0.0235928 3.73047 -0.0393212 3.60612 0.0235927C3.48177 0.0865066 3.35742 0.212334 3.4196 0.338162L3.85481 0.275248C3.79264 0.338162 3.79264 0.401076 3.73047 0.46399Z" transform="translate(33.835 4.38037)" fill="black"/>
<path d="M6.90136 0.994456C7.39876 1.24611 7.89615 1.62359 8.39355 2.00108C8.89095 2.37856 9.45051 2.75604 10.0101 3.07061C10.8805 3.51101 11.8131 3.63684 12.6836 3.82558L14.8597 4.20306L14.9219 3.76267L12.7458 3.38518C11.8753 3.25936 11.0049 3.07062 10.1966 2.69313C9.63704 2.44148 9.13964 2.06399 8.64225 1.68651C8.14485 1.30902 7.64746 0.931542 7.08789 0.679886C4.97396 -0.38965 2.54915 -0.0121674 0 0.554058L0.0621735 0.994456C2.54915 0.365317 4.91178 -0.012167 6.90136 0.994456Z" transform="translate(36.6948 26.8135)" fill="black"/>
<path d="M-4.74353e-07 0.440398C1.49219 0.692054 3.10872 0.880794 4.47656 1.50993C5.47135 1.95033 6.40397 2.57947 7.33658 3.1457C7.58528 3.33444 7.89615 3.52318 8.14485 3.64901C11.6888 5.85099 15.7301 7.42384 19.8336 8.17881L19.8958 7.73841C15.8545 6.98344 11.8753 5.47351 8.33137 3.27152C8.08267 3.08278 7.77181 2.95695 7.52311 2.76821C6.59049 2.13907 5.65787 1.50993 4.60091 1.06954C3.10872 0.440398 1.55436 0.188742 -4.74353e-07 4.79995e-07V0.440398Z" transform="translate(33.1509 28.7516)" fill="black"/>
<path d="M1.43001 1.44702L1.36784 1.32119C1.05697 0.81788 0.746092 0.31457 0.248697 0L4.74353e-07 0.377482C0.435222 0.629138 0.683918 1.13245 0.99479 1.57285L1.05697 1.69868C2.79785 4.46689 5.16048 6.85761 7.89615 8.6192L8.14485 8.24172C5.40918 6.54305 3.10872 4.15232 1.43001 1.44702Z" transform="translate(35.5757 32.0861)" fill="black"/>
<path d="M1.31304 9.5999e-07C-0.241323 1.88742 -0.116974 4.59272 0.193898 6.98344C0.442596 8.74503 0.753468 10.5695 1.12652 12.3311C1.31304 13.4007 1.62391 14.7219 2.05913 16.106C2.37 17.1126 2.74305 18.1192 3.17827 19.1258C3.17827 19.1887 3.24044 19.1887 3.24044 19.2517L3.55132 18.9371C3.1161 17.9934 2.74305 16.9868 2.43218 15.9801C1.99696 14.6589 1.68608 13.2748 1.49956 12.2682C1.12651 10.5066 0.815642 8.74503 0.566944 6.98344C0.256072 4.65563 0.131722 2.07616 1.56173 0.377483L1.31304 9.5999e-07Z" transform="translate(27.4236 35.1689)" fill="black"/>
<path d="M3.69268 8.38392C3.69268 8.50974 3.81703 8.57265 3.94138 8.63557H4.00356C4.06573 8.63557 4.19008 8.57266 4.25225 8.50974C4.3766 8.321 4.31443 8.06934 4.25225 8.00643L0.646135 0.268022C0.58396 0.0792806 0.273089 -0.0465481 0.14874 0.0163658C0.0243909 0.0792797 -0.0377841 0.205107 0.0243904 0.393848L0.459612 0.205109C0.459612 0.268023 0.459613 0.330934 0.397438 0.393848C0.335264 0.456762 0.273089 0.456761 0.273089 0.456761L3.81703 8.19517L3.75486 8.13226C3.69268 8.19517 3.69268 8.25809 3.69268 8.38392ZM3.87921 8.25809C3.94138 8.19517 3.94138 8.19517 4.00356 8.19517C4.06573 8.19517 4.06573 8.25809 4.06573 8.321C4.06573 8.38391 4.06573 8.44683 4.00356 8.50974L3.87921 8.25809Z" transform="translate(29.5825 41.1923)" fill="black"/>
<path d="M11.3157 0.377484L11.1292 -9.5999e-07C7.39876 2.07616 3.66829 4.21523 -2.37177e-07 6.3543L0.248698 6.73179C3.85482 4.5298 7.58528 2.39073 11.3157 0.377484Z" transform="translate(8.03247 31.8345)" fill="black"/>
<path d="M10.694 1.38803C11.0049 1.57677 11.1292 1.45095 11.2536 1.38803C11.3779 1.32512 11.3779 1.13638 11.3157 1.07346C11.2536 0.947634 11.1292 0.88472 11.0049 0.88472C10.9427 0.88472 10.8805 0.947633 10.8805 0.947633C9.32617 0.0668386 7.39876 -0.184817 5.347 0.129753C3.73047 0.381409 1.98958 1.01055 1.18588e-07 2.143L0.186524 2.52048C2.11393 1.45094 3.79264 0.821806 5.347 0.570151C7.33658 0.255581 9.26399 0.507236 10.694 1.38803ZM10.9427 1.07346H11.2536C11.2536 1.13638 11.1914 1.19929 11.1292 1.2622C11.1292 1.2622 11.0049 1.2622 11.0049 1.19929C10.8805 1.19929 10.8805 1.13638 10.9427 1.07346Z" transform="translate(7.34863 23.9033)" fill="black"/>
<path d="M0.148839 5.85099C0.211013 5.91391 0.335361 5.91391 0.397535 5.91391C0.521884 5.91391 0.58406 5.91391 0.646234 5.85099L1.9519 5.41059C2.38712 5.28477 2.88451 5.09603 3.25756 4.71854C3.69278 4.27815 3.81713 3.58609 3.69278 2.89404C3.56843 2.2649 3.31973 1.76159 3.07104 1.19536L2.44929 0L2.63582 1.32119C2.69799 1.95033 2.38712 2.51656 2.01407 3.08278C1.57885 3.77483 1.08146 4.5298 0.335362 5.03311L0.397535 5.15894C0.273186 5.15894 0.148837 5.15894 0.086663 5.28477C-0.0376858 5.53642 -0.0376844 5.72516 0.148839 5.85099ZM2.32494 3.46026C2.57364 3.08278 2.82234 2.64238 2.94669 2.20199C3.07104 2.45364 3.13321 2.76821 3.19539 3.08278C3.31973 3.64901 3.13321 4.21523 2.82234 4.5298C2.51147 4.84437 2.07625 4.9702 1.7032 5.09603L0.584058 5.47351C1.39233 4.90729 1.88972 4.0894 2.32494 3.46026ZM0.459711 5.34768L0.521885 5.47351C0.45971 5.47351 0.397535 5.47351 0.397535 5.53642C0.45971 5.53642 0.459711 5.59934 0.459711 5.66225C0.397537 5.72517 0.33536 5.72516 0.273186 5.72516L0.459711 5.34768Z" transform="translate(30.5771 15.4139)" fill="black"/>
<path d="M1.72534 0.0876952C1.16577 0.213523 0.668376 0.591006 0.357504 1.09432C0.108806 1.4718 0.0466318 1.97511 0.0466318 2.3526C-0.0155427 2.98173 -0.0155427 3.54796 0.0466318 4.1771C0.108806 4.74332 0.357504 5.05789 0.668376 5.12081H0.792723L0.854899 5.05789C1.04142 4.86915 1.1036 4.61749 1.16577 4.30293V4.1771C1.29012 3.48505 1.41447 2.73008 1.78752 2.16385C2.16056 1.59763 2.84448 1.09432 3.5284 1.28306L3.96362 1.40889L3.83927 1.0314C3.71492 0.716834 3.5284 0.465178 3.34188 0.276436V0.150608C2.72013 -0.0381336 2.16056 -0.0381326 1.72534 0.0876952ZM1.47664 1.9122C1.04142 2.60425 0.917072 3.35922 0.792723 4.11418V4.24001C0.792723 4.36584 0.730551 4.49167 0.668376 4.61749C0.544027 4.49167 0.544025 4.30293 0.481851 4.11418C0.419677 3.54796 0.419677 2.98173 0.481851 2.3526C0.481851 1.97511 0.544026 1.59763 0.73055 1.28306C0.917073 0.905575 1.35229 0.591005 1.78752 0.528091C1.97404 0.465177 2.16056 0.465178 2.40926 0.465178C2.59578 0.465178 2.72013 0.465177 2.90666 0.528091C3.031 0.591005 3.15535 0.716832 3.21753 0.84266C2.47143 0.84266 1.78752 1.34597 1.47664 1.9122Z" transform="translate(20.7314 22.1838)" fill="black"/>
<path d="M0.148741 1.38411L0.583962 1.25828C0.459613 0.880795 0.459613 0.440398 0.459613 4.79995e-07H0.0243913C-0.0377831 0.440398 0.0243918 0.943709 0.148741 1.38411Z" transform="translate(31.0747 27.4933)" fill="black"/>
<path d="M3.77443 0.377484L3.58791 -4.79995e-07C3.27703 0.188741 2.96616 0.377484 2.71746 0.566226L1.34963 1.25828C1.03876 1.44702 0.603534 1.63576 0.354836 1.95033C-0.0803854 2.51656 -0.0182109 3.27152 0.0439635 3.96358C0.106138 4.21523 0.106137 4.46689 0.230486 4.71854C0.479184 5.34768 1.1631 5.72517 1.84702 5.72517C2.09572 5.72517 2.28224 5.66225 2.53094 5.59934C2.65529 5.53642 2.77964 5.47351 2.84181 5.34768C2.90399 5.22185 2.96616 4.9702 2.65529 4.59271C2.59312 4.5298 2.46877 4.40397 2.40659 4.34106C2.09572 4.02649 1.84702 3.77483 1.72267 3.39735C1.53615 2.89404 1.72267 2.20199 2.1579 1.63576C2.59312 1.06954 3.21486 0.692054 3.77443 0.377484ZM2.09572 4.59271C2.15789 4.65563 2.28224 4.78146 2.34442 4.84437C2.46877 4.9702 2.46877 5.03311 2.46877 5.09603C2.46877 5.09603 2.46877 5.15894 2.34442 5.15894C1.6605 5.4106 0.852232 5.09603 0.603534 4.5298C0.54136 4.34106 0.479185 4.15232 0.479185 3.90066C0.417011 3.33444 0.354836 2.7053 0.665708 2.2649C0.852231 2.01325 1.22528 1.8245 1.47398 1.69868L1.59832 1.63576C1.22528 2.13907 1.03875 2.89404 1.28745 3.58609C1.47398 3.90066 1.78485 4.27814 2.09572 4.59271Z" transform="translate(22.5374 30.0729)" fill="black"/>
<path d="M4.74353e-07 3.01987L0.310873 3.33444C1.24349 2.39073 2.11393 1.32119 2.86002 0.251657L2.48698 0C1.74089 1.06954 0.870443 2.07616 4.74353e-07 3.01987Z" transform="translate(24.6951 30.5133)" fill="black"/>
</svg>
