<svg width="69" height="67" viewBox="0 0 69 67" fill="none" xmlns="http://www.w3.org/2000/svg">
<path d="M15.6904 4.85181C15.6323 4.85181 15.5743 4.90957 15.5162 4.90957C18.0722 4.90957 20.6864 4.90957 23.2425 4.90957C23.1844 4.90957 23.1263 4.85181 23.0682 4.85181C25.2176 6.06476 27.3671 7.33548 29.4584 8.54843C29.4003 8.49067 29.3422 8.43291 29.2841 8.43291C30.0393 9.41482 30.7945 10.3967 31.5497 11.3787C30.7945 9.99242 29.865 8.72171 28.7613 7.68203C27.5413 6.46908 26.3795 5.89148 25.1595 4.96733C26.1471 5.71821 27.1347 6.46908 28.1223 7.21996C27.8318 6.93116 27.5994 6.70012 27.309 6.35356C28.0642 7.33548 28.8194 8.31739 29.5746 9.2993C28.4708 7.79755 27.4251 6.23804 26.2052 4.90957C23.4748 1.79055 19.1179 -1.10168e-07 14.9933 -1.10168e-07C12.263 -1.10168e-07 9.7069 0.693116 7.38319 2.02159C6.16325 2.65694 5.17567 3.40782 4.30429 4.44749C2.91006 5.77596 1.8644 7.27772 1.28347 9.06826C0.353988 11.2631 -0.0526605 12.1873 0.00543208 14.9597C0.0635247 18.9452 1.63203 22.4107 4.36238 25.2987C6.86036 27.9557 10.9849 29.5152 14.6448 29.5152C16.6199 29.5729 18.537 29.1686 20.2217 28.2445C22.0225 27.6669 23.591 26.685 24.8691 25.241C27.4251 22.4685 29.2841 18.8874 29.1098 15.0175C28.9356 11.1476 27.5994 7.68203 24.8691 4.79405C24.811 4.73629 24.811 4.73629 24.7529 4.67853C26.1471 8.08635 27.5994 11.4942 28.9936 14.902C28.9936 14.8442 28.9936 14.7865 28.9936 14.7287C28.8194 15.9994 28.6451 17.2701 28.4708 18.5408C28.4708 18.4831 28.5289 18.4253 28.5289 18.3676C27.309 20.5047 26.0309 22.6418 24.811 24.7211C24.8691 24.6634 24.8691 24.6056 24.9272 24.5479C23.9396 25.2987 22.952 26.0496 21.9644 26.8005C22.0225 26.8005 22.0806 26.7427 22.1387 26.7427C19.6988 27.3781 17.2589 28.0712 14.819 28.7065C14.8771 28.7065 14.9933 28.7065 15.0514 28.7065C12.6115 28.0712 10.1716 27.3781 7.73175 26.7427C7.90603 26.8005 8.02221 26.8582 8.1384 26.9738C7.15082 26.2229 6.16325 25.472 5.17567 24.7211C5.29186 24.8366 5.46614 25.0099 5.58232 25.1254C4.82712 24.1435 4.07191 23.1616 3.31671 22.1797C4.47856 23.6815 5.52423 25.241 6.80227 26.685C7.96412 28.129 9.64881 29.1109 11.1011 30.1505C10.1135 29.3997 9.12597 28.6488 8.1384 27.8979C8.19649 27.9557 8.25458 28.0134 8.31268 28.0712C7.55747 27.0893 6.80227 26.1074 6.04706 25.1254C6.45371 25.8763 6.86036 26.3384 7.49938 27.147C8.83551 28.8798 9.47453 29.804 11.7401 31.0169C12.7277 31.5368 14.3543 32.1721 15.4 32.5187C17.317 33.0963 19.2341 33.2118 21.2092 32.7497C21.9644 32.7497 22.6615 32.692 23.3006 32.4032C26.9023 31.1902 30.0393 29.0531 31.9564 25.7608C33.002 24.0858 33.583 22.2952 33.6991 20.3892C34.1058 18.4831 34.0477 16.577 33.4668 14.6132C32.3049 11.1476 30.1555 7.73979 26.7861 6.007C23.5329 4.50525 19.3503 3.5811 15.6904 4.85181Z" transform="translate(4.92261 19.0955) rotate(-18.1585)" fill="#399888"/>
<path d="M6.93084 0.575789C6.81466 0.518029 6.69847 0.518029 6.58229 0.460269C3.38719 -1.09924 -0.969754 1.49994 0.192099 5.31208C0.831118 7.27591 0.192099 9.58629 0.773025 11.7234C1.35395 13.8027 2.63199 15.3045 3.61956 17.1528C3.44529 16.4019 3.21292 15.7088 3.03864 14.9579C3.03864 15.189 3.09673 15.4778 3.09673 15.7088C3.27101 14.9579 3.50338 14.2648 3.67766 13.514C3.56147 13.6872 3.44529 13.9183 3.27101 14.0915C0.714933 17.9614 5.59471 21.8313 9.25455 20.0408C12.9725 18.1925 15.819 14.6691 16.5742 10.5682C17.4456 5.7164 15.0057 1.49994 9.89357 1.03787C11.2878 2.88617 12.682 4.67672 14.0762 6.52503C14.0762 6.40951 14.1343 6.29399 14.1343 6.17847C13.1468 7.16039 12.1011 8.20006 11.1135 9.18198C13.0306 8.48886 16.1095 9.06646 18.1427 9.06646C16.7485 8.02678 15.3543 6.92935 13.96 5.88968C14.4248 8.1423 16.1095 9.81733 18.317 10.5104C18.956 10.6837 19.5369 10.7992 20.176 10.857C21.1635 11.1458 21.2216 10.9148 20.2341 10.2217C18.8979 8.20006 20.176 11.3191 20.4664 11.8389C22.9644 15.8243 28.367 15.9976 31.5621 12.8208C29.1222 12.1855 26.6823 11.5501 24.3005 10.9148C24.9396 13.5717 26.7985 14.3803 28.5994 16.0554C30.4584 17.7882 31.7945 19.521 34.0601 20.7339C38.0685 22.9288 41.8445 18.5968 40.0436 14.7847C39.9855 14.6691 39.9274 14.4959 39.8694 14.3803C40.0436 15.4778 40.1598 16.633 40.3341 17.7304C40.1017 18.1347 39.8694 18.539 39.637 18.9434C37.3714 17.2106 35.0477 15.42 32.7821 13.6872C31.2716 17.1528 31.3878 20.2718 34.002 23.102C35.6867 24.9504 38.417 24.4883 40.1598 23.102C40.4503 22.871 40.7407 22.64 41.0312 22.4089C38.5332 21.3693 36.0933 20.3873 33.5954 19.3477C33.4792 21.7158 33.0725 23.9107 32.3173 26.1633C32.0269 27.0297 31.4459 28.0116 31.2136 28.878C30.4584 29.6289 30.5164 29.9754 31.3297 29.8022C30.8069 29.6866 30.2841 29.6289 29.7031 29.5134C27.3794 29.1091 25.1138 28.647 22.7901 28.1849C21.7445 27.9539 20.6988 27.7228 19.595 27.4918C18.8979 27.3185 18.2008 27.1452 17.5037 27.0297C16.5742 26.6831 16.5161 26.7987 17.3294 27.3763C17.039 25.0659 14.0181 23.7952 11.9849 24.3728C9.48692 25.0659 8.61553 27.3763 8.96408 29.6866C9.54501 33.9031 13.7277 35.1161 17.3294 35.9247C21.6283 36.9066 26.1014 38.004 30.5164 38.4661C39.637 39.3325 41.9026 26.1633 42.2512 19.4054C42.4835 15.3045 37.4876 14.2071 34.8153 16.3442C34.5248 16.5752 34.2344 16.8062 33.9439 17.0373C35.9771 17.0373 38.0685 17.0373 40.1017 17.0373C40.1598 17.3838 40.1598 17.7304 40.2179 18.077C42.1931 13.5717 37.3714 9.58629 33.363 12.8208C31.3297 14.4959 31.3878 17.0373 32.4335 19.1744C34.4086 17.2106 36.3838 15.2467 38.417 13.2252C37.0228 12.4743 36.1514 11.5501 35.1058 10.3949C34.5248 9.75957 34.0601 9.29749 33.363 8.77766C33.1887 8.66214 33.0144 8.48886 32.8401 8.37334C32.143 7.8535 32.0849 7.91126 32.6659 8.54662C31.9107 5.36984 27.6118 4.38793 25.4043 6.64055C27.4956 7.8535 28.3089 7.91126 27.8442 6.87159C27.6699 6.40951 27.4956 5.94744 27.3214 5.54312C26.8566 4.73448 26.0433 3.92585 25.2881 3.46377C24.5329 3.00169 23.6615 2.7129 22.8482 2.53962C22.4416 2.48186 22.093 2.4241 21.6864 2.36634C20.3502 2.07754 20.5826 2.48186 22.3835 3.63705C21.9768 1.78874 20.0017 0.460269 18.2008 0.460269C14.2505 0.460269 7.04703 -0.810443 5.7109 4.27241C4.95569 7.16039 7.10512 9.52853 9.89357 9.75957C10.1259 9.75957 10.3583 9.81733 10.5907 9.81733C9.83547 9.64405 9.13836 9.41301 8.38316 9.23973C7.62795 8.89318 8.67362 8.37334 8.0346 9.12422C7.74414 9.52853 7.62795 10.2794 7.33749 10.7415C6.69847 11.6656 5.88518 12.1855 4.8976 12.6476C6.87275 14.6114 8.8479 16.5752 10.8811 18.5968C12.7982 15.6511 11.404 13.4562 9.89357 10.9148C8.44125 8.54662 9.42883 5.7164 8.61553 3.11721C6.4661 4.73448 4.37477 6.35175 2.22534 8.02678C4.66523 9.18198 6.58229 9.41301 9.25455 9.0087C11.5783 8.66214 12.8563 5.7164 12.2754 3.69481C11.5783 1.09563 9.25455 0.229231 6.93084 0.575789Z" transform="translate(0.552002 17.5524) rotate(-18.1585)" fill="#399888"/>
<path d="M0.539525 10.2235C0.539525 11.8985 -0.448049 12.9382 0.249062 14.7865C0.946173 16.7503 2.57277 18.021 4.48982 18.6564C8.20775 19.9271 12.8552 20.3892 16.8055 20.4469C20.3491 20.5047 25.926 20.2159 27.8431 16.7503C29.7601 13.2847 28.1335 8.02859 27.6688 4.33197C27.3783 2.02159 25.8679 -8.81342e-07 23.3118 -8.81342e-07C21.1624 -8.81342e-07 18.6644 2.02159 18.9549 4.33197C19.3615 7.50875 20.2329 11.0321 19.8263 14.2666C20.0006 13.5158 20.2329 12.8226 20.4072 12.0718C21.3948 11.2631 21.2786 11.0899 20.1167 11.6097C19.5358 11.7252 18.8968 11.783 18.2578 11.8407C16.9216 11.8985 15.5274 11.8407 14.1913 11.7252C12.8552 11.6097 11.5771 11.3787 10.241 11.1476C9.54388 11.0321 8.90486 10.9166 8.20775 10.7433C7.0459 10.2812 7.0459 10.6855 8.32394 11.9562C8.32394 12.7071 8.32394 13.5158 8.32394 14.2666C8.78868 12.8804 9.13723 11.7252 9.13723 10.2235C9.31151 4.62077 0.597618 4.62077 0.539525 10.2235Z" transform="translate(20.0789 32.9078) rotate(-18.1585)" fill="#399888"/>
<path d="M1.0308 6.93262C2.13456 7.22142 3.23832 7.51022 4.34207 7.91453C5.67821 8.37661 6.43341 6.8171 5.96867 5.77743C5.27156 4.21792 4.63254 2.60065 4.05161 0.983376C3.41259 -0.749414 0.62415 0.00146358 1.26317 1.73425C1.90219 3.58256 2.65739 5.43087 3.47069 7.22142C3.99352 6.5283 4.57445 5.83519 5.09728 5.08431C3.99352 4.67999 2.88976 4.3912 1.786 4.1024C-0.0148678 3.75584 -0.770074 6.5283 1.0308 6.93262Z" transform="translate(46.8298 37.3839) rotate(-18.1585)" fill="#399888"/>
<path d="M0.674561 2.72891C4.85723 5.38585 9.62082 7.98504 12.874 11.7972C15.5463 14.8584 17.87 18.1507 20.9489 20.8654C24.3183 23.8689 28.6752 26.1793 31.1151 30.0492C32.2189 31.8398 32.9741 32.3019 34.6587 33.457C36.2272 34.5545 36.2853 36.5761 37.7957 37.5002C38.3186 37.8468 39.1319 37.7313 39.5385 37.2692C39.5966 37.2114 39.5966 37.2114 39.6547 37.1537C40.9327 35.8252 38.8995 33.7458 37.6215 35.1321C37.5634 35.1898 37.5634 35.1898 37.5053 35.2476C38.0862 35.1898 38.6671 35.0743 39.2481 35.0166C38.8995 34.7855 38.3186 32.8794 37.9119 32.4174C37.5634 32.0131 37.2148 31.6665 36.8082 31.3777C35.7044 30.6268 34.6587 30.1647 33.8454 29.0095C33.3226 28.2587 33.0322 27.45 32.4512 26.7569C29.6047 23.1758 25.1896 20.8654 21.8784 17.7464C18.8575 14.8584 16.65 11.2196 13.5711 8.3316C10.2018 5.15482 6.01908 2.72891 2.12688 0.245246C0.558376 -0.794428 -0.893939 1.747 0.674561 2.72891Z" transform="translate(4.49854 19.9492) rotate(-18.1585)" fill="#236A57"/>
<path d="M1.43779 2.88798C3.29676 2.88798 3.29676 2.20336e-07 1.43779 2.20336e-07C-0.479264 2.20336e-07 -0.479264 2.88798 1.43779 2.88798Z" transform="translate(18.7258 16.939) rotate(-18.1585)" fill="#236A57"/>
<path d="M0.178682 2.18871C1.80528 5.42325 3.83852 8.42675 5.40702 11.6613C6.97552 15.0114 8.19546 18.4769 9.18304 22.058C9.64778 23.8486 12.4362 23.0977 11.9715 21.3072C11.042 17.8416 9.82206 14.4338 8.36974 11.1415C6.74315 7.56036 4.47754 4.26806 2.67666 0.744719C1.86337 -0.930311 -0.692707 0.51368 0.178682 2.18871Z" transform="translate(17.5435 15.6313) rotate(-18.1585)" fill="#236A57"/>
<path d="M0.739076 2.68632C5.61885 5.40103 10.5567 8.11573 15.4365 10.7727C19.7935 13.1986 23.918 15.3934 28.914 16.1443C30.7149 16.3754 31.5282 13.6029 29.6692 13.3719C24.557 12.6787 20.4325 10.2528 15.9593 7.82693C11.37 5.28551 6.72261 2.74408 2.1333 0.202659C0.564798 -0.721496 -0.94561 1.76217 0.739076 2.68632Z" transform="translate(16.7759 35.9662) rotate(-18.1585)" fill="#236A57"/>
<path d="M0.275344 2.0782C7.13027 11.2042 10.7901 21.9475 15.0309 32.402C15.728 34.077 18.5164 33.3839 17.8193 31.6511C13.4624 20.9656 9.80253 9.93352 2.77333 0.634213C1.66957 -0.867538 -0.828416 0.576453 0.275344 2.0782Z" transform="translate(25.7852 15.719) rotate(-18.1585)" fill="#236A57"/>
<path d="M0.749012 2.64341C2.84035 3.68308 4.98977 4.66499 7.31348 5.18483C9.86955 5.76243 12.3094 5.58915 14.7493 6.68658C16.434 7.43746 17.9444 4.95379 16.2016 4.20292C14.3427 3.33652 12.4837 2.93221 10.4505 2.70117C7.42966 2.41237 4.93168 1.48821 2.20133 0.159742C0.516641 -0.648893 -0.935674 1.83477 0.749012 2.64341Z" transform="translate(8.54883 28.4365) rotate(-18.1585)" fill="#236A57"/>
<path d="M0.849686 1.39354C0.733501 2.89529 0.675408 4.39704 0.559223 5.84103C0.50113 7.22726 0.559221 8.84453 0.0944803 10.1152C-0.544538 11.848 2.24391 12.5989 2.88293 10.8661C3.40576 9.47989 3.34767 7.92038 3.40576 6.47639C3.52195 4.7436 3.63813 3.01081 3.69623 1.33578C3.8705 -0.454772 0.965871 -0.454771 0.849686 1.39354Z" transform="translate(40.4109 23.0098) rotate(-18.1585)" fill="#236A57"/>
<path d="M0.985462 2.82509C2.55396 3.40268 4.18056 3.807 5.86524 4.03804C7.20137 4.21132 8.5375 4.50012 9.75745 3.98028C11.4421 3.22941 9.98982 0.745742 8.30513 1.49662C8.76987 1.32334 7.54993 1.3811 7.37565 1.3811C6.67854 1.32334 5.98143 1.20782 5.28432 1.0923C4.12246 0.861261 2.96061 0.514703 1.79876 0.110385C-0.00211301 -0.58273 -0.757317 2.18973 0.985462 2.82509Z" transform="translate(6.31494 23.6896) rotate(-18.1585)" fill="#236A57"/>
<path d="M0.881342 0.199098C-0.745251 1.06549 0.300416 3.02932 0.707064 4.35779C1.40418 6.72594 1.92701 9.15184 2.33366 11.6355C2.62412 13.4838 5.47066 12.6752 5.1221 10.8846C4.83164 9.26736 4.54118 7.70785 4.13453 6.14834C3.84407 4.87763 2.85649 2.9138 2.85649 1.58533C2.62412 1.98965 2.39175 2.39396 2.15938 2.85604C2.21747 2.79828 2.27557 2.79828 2.33366 2.74052C4.01834 1.81637 2.50794 -0.725057 0.881342 0.199098Z" transform="translate(10.8035 16.3494) rotate(-18.1585)" fill="#236A57"/>
<path d="M54.361 50.3664L45.1243 42.5111C44.0786 41.6447 43.0329 40.7206 41.7549 40.2007C39.7797 39.4498 37.5722 39.7386 35.4228 40.0852L34.8419 40.143C28.2774 41.0671 22.8748 40.605 18.2855 38.8722C15.9618 37.9481 14.5094 36.7929 13.8704 35.2911C13.7542 35.0601 13.6961 34.8291 13.6381 34.598C13.5219 34.2515 13.4057 33.9627 13.2314 33.6739C12.8248 33.0385 12.1857 32.6342 11.4305 32.1721C10.443 31.5368 9.3973 30.9014 9.16493 29.6885C9.10683 29.3997 9.10683 29.1686 9.10683 28.9376C9.10683 28.5333 9.04874 28.2445 8.93256 27.9557C8.75828 27.7246 8.52591 27.6091 8.23544 27.4358C7.88689 27.2626 7.48024 27.0893 7.18978 26.685C6.78313 26.1074 6.78313 25.4142 6.78313 24.8366C6.78313 24.2013 6.78313 23.7392 6.49267 23.5082C6.37648 23.3927 6.2022 23.3349 5.96983 23.2771C5.67937 23.1616 5.38891 23.1039 5.15654 22.8728C4.51752 22.2952 4.6337 21.4866 4.74989 20.7357C4.80798 20.2736 4.92416 19.8116 4.80798 19.465C4.69179 19.0607 4.28515 18.7719 3.8785 18.4831C3.41376 18.1365 2.89092 17.7322 2.65855 17.0969C2.48428 16.577 2.54237 16.0572 2.60046 15.5951C2.65855 15.3063 2.65855 15.0175 2.65855 14.7287C2.60046 14.0934 2.13572 13.5735 1.67098 12.9959C1.4967 12.7649 1.32242 12.5338 1.14815 12.3028C0.683404 11.6097 0.451034 10.6855 0.625312 9.99242C0.683404 9.81914 0.741497 9.70362 0.799589 9.53034C0.741497 9.5881 0.625312 9.47258 0.509126 9.35706C0.0443855 8.83723 -0.129892 7.97083 0.102478 7.27772C0.218663 6.8734 0.451034 6.52684 0.625312 6.18028C0.857682 5.7182 1.09005 5.31389 1.14815 4.85181C1.26433 4.21645 0.973867 3.5811 0.741497 2.88798C0.334849 1.96383 -0.0137071 0.981914 0.392941 -2.75419e-08L1.20624 0.346558C0.915775 0.981914 1.20624 1.73279 1.4967 2.54142C1.78716 3.2923 2.13572 4.04318 2.01953 4.90957C1.96144 5.54493 1.67098 6.06476 1.38052 6.5846C1.20624 6.93116 1.03196 7.21996 0.915775 7.56651C0.799589 7.97083 0.857682 8.54843 1.14815 8.83723C1.32242 9.0105 1.43861 9.0105 1.55479 9.0105L3.8785 8.66395L1.84526 9.81914C1.67098 9.93466 1.55479 10.1079 1.4967 10.339C1.38052 10.8011 1.55479 11.4942 1.90335 11.9562C2.07763 12.1873 2.2519 12.3606 2.36809 12.5916C2.89092 13.227 3.41376 13.9201 3.52994 14.7865C3.58803 15.133 3.52994 15.4796 3.52994 15.8261C3.47185 16.2305 3.41376 16.577 3.52994 16.9236C3.64613 17.3279 4.05278 17.5589 4.45942 17.9055C4.92416 18.252 5.447 18.6564 5.67937 19.2917C5.85365 19.8116 5.73746 20.4469 5.67937 20.9668C5.56318 21.6599 5.50509 22.0642 5.79555 22.2952C5.91174 22.4107 6.14411 22.4685 6.31839 22.5263C6.55076 22.584 6.84122 22.6995 7.13168 22.9306C7.7707 23.4504 7.7707 24.2591 7.71261 24.9522C7.71261 25.472 7.71261 25.9341 7.94498 26.2806C8.11926 26.4539 8.35163 26.6272 8.64209 26.7427C8.99065 26.916 9.3973 27.147 9.68776 27.4936C9.97822 27.9557 10.0363 28.4755 10.0363 28.9376C10.0363 29.1686 10.0363 29.3997 10.0944 29.5729C10.2687 30.4393 11.082 30.9592 11.9534 31.479C12.7086 31.9988 13.5219 32.4609 14.0447 33.2696C14.2771 33.6161 14.3933 34.0204 14.5094 34.367C14.5675 34.598 14.6256 34.7713 14.7418 35.0023C15.3227 36.2731 16.6008 37.255 18.6921 38.1214C23.1072 39.8542 28.3936 40.2585 34.7838 39.3921L35.3647 39.3343C37.6303 38.9878 39.954 38.699 42.1034 39.5076C43.4977 40.0274 44.7176 41.0671 45.7633 41.9335L55 49.7311L54.361 50.3664Z" transform="translate(0.775635 18.6929) rotate(-18.1585)" fill="black"/>
<path d="M43.7437 43.2205C42.2914 42.2964 41.7686 40.5058 41.4781 38.7153C40.3744 32.4195 39.9677 26.0082 40.3744 19.6546C40.4325 18.7304 40.4325 17.9218 39.9677 17.402C39.8515 17.2865 39.7353 17.1709 39.5611 17.0554C39.3287 16.8821 39.1544 16.7666 38.9801 16.5356C38.5154 16.0157 38.4573 15.2649 38.3411 14.6295C38.2249 13.8209 38.1668 13.3588 37.7021 13.1278C37.4697 13.0122 37.1793 13.0122 36.7726 13.07C36.4241 13.07 36.0174 13.1278 35.6108 13.0122C34.7394 12.7234 34.3327 11.857 34.0423 11.1062C33.7518 10.4708 33.5194 9.83546 32.9966 9.66218C32.8804 9.60442 32.7642 9.60442 32.59 9.60442C32.4738 9.60442 32.2995 9.54666 32.1833 9.54666C31.1957 9.31562 30.5567 8.44923 30.0339 7.64059C29.511 6.88972 29.0463 6.1966 28.2911 6.1966C28.0587 6.1966 27.8264 6.25436 27.5359 6.31212C27.1873 6.42764 26.8388 6.4854 26.4321 6.4854C25.3284 6.42764 24.7475 5.50348 24.2246 4.69485C23.818 4.05949 23.4113 3.42414 22.8304 3.25086C22.5399 3.13534 22.1914 3.1931 21.7847 3.1931C21.2619 3.25086 20.7391 3.25086 20.1581 3.01982C19.6353 2.73102 19.2867 2.26894 18.9382 1.80687C18.4735 1.17151 18.183 0.882712 17.8344 0.998232C17.7182 0.998232 17.6021 1.11375 17.4859 1.17151C17.544 1.17151 17.3697 1.28703 17.1954 1.34479C16.6726 1.51807 16.1497 1.40255 15.7431 1.28703H15.685C12.9547 0.593914 10.2243 0.940472 7.31967 1.34479C4.87978 1.69135 2.43989 1.98015 -5.54014e-08 1.69135L0.116185 0.824953C2.43989 1.11375 4.87978 0.767193 7.20348 0.478395C10.05 0.0740774 13.0127 -0.33024 15.9174 0.420635H15.9755C16.324 0.536155 16.6726 0.593914 16.963 0.478395C17.0792 0.420635 17.1373 0.362876 17.2535 0.305116C17.4278 0.189597 17.6021 0.131837 17.8344 0.0740774C18.7639 -0.156961 19.3448 0.593914 19.8096 1.22927C20.1 1.63359 20.3905 1.98015 20.7391 2.15342C21.0295 2.38446 21.4362 2.3267 21.8428 2.3267C22.3076 2.3267 22.7142 2.26894 23.179 2.44222C24.0503 2.73102 24.5732 3.53966 25.0379 4.23277C25.5027 4.98365 25.9093 5.56124 26.5483 5.619C26.7807 5.619 27.0712 5.56124 27.3616 5.50348C27.7102 5.44572 28.0006 5.3302 28.4073 5.3302C29.5691 5.38796 30.2082 6.31212 30.7891 7.17851C31.2538 7.87163 31.7186 8.56474 32.4157 8.68026C32.5319 8.68026 32.6481 8.73802 32.7061 8.73802C32.8804 8.73802 33.0547 8.79578 33.229 8.85354C34.1004 9.14234 34.507 10.0087 34.7975 10.7596C35.0879 11.395 35.3203 12.0303 35.8431 12.2036C36.0755 12.2614 36.366 12.2614 36.6564 12.2614C37.0631 12.2036 37.5278 12.2036 37.9926 12.4346C38.864 12.839 38.9801 13.7631 39.0963 14.5717C39.1544 15.1493 39.2706 15.6692 39.503 16.0157C39.6192 16.1313 39.7934 16.2468 39.9677 16.4201C40.142 16.5356 40.3163 16.7089 40.4906 16.8821C41.2458 17.6908 41.1877 18.9615 41.1296 19.8279C40.7229 26.1237 41.0715 32.4772 42.1752 38.6575C42.4657 40.217 42.8723 41.7765 44.0342 42.5852L43.7437 43.2205Z" transform="translate(1.46802 16.7466) rotate(-18.1585)" fill="black"/>
<path d="M40.0258 37.4283C39.7934 37.4283 39.503 37.3705 39.2125 37.1972C35.8431 35.3489 33.4033 32.4032 31.0795 29.5152C29.3368 27.3781 27.5359 25.1832 25.3865 23.5082C24.5151 22.8151 23.5275 22.1797 22.598 21.5443C21.3781 20.7357 20.1 19.8693 18.9382 18.8296C17.6021 17.6167 16.4983 16.2305 15.4526 14.902C15.046 14.3822 14.6393 13.9201 14.2908 13.4002C10.2243 8.43291 5.05406 4.50525 0 0.693116L0.522834 0C5.57689 3.8699 10.8633 7.79755 14.9879 12.8226C15.3945 13.3425 15.8012 13.8046 16.2078 14.3244C17.2535 15.6529 18.2992 17.0391 19.5772 18.1365C20.681 19.1184 21.9009 19.9271 23.1209 20.7357C24.0503 21.3711 25.0379 22.0064 25.9674 22.7573C28.1749 24.5479 29.9758 26.7427 31.7767 28.8798C34.2165 31.8256 36.4822 34.598 39.6773 36.3886C39.9096 36.5041 40.0258 36.5041 40.0839 36.5041L40.781 37.0239C40.5486 37.3127 40.3163 37.4283 40.0258 37.4283Z" transform="translate(5.25195 20.0817) rotate(-18.1585)" fill="black"/>
<path d="M3.77602 9.99242C2.3818 6.81564 1.16185 3.5811 -2.21606e-07 0.288798L0.813296 5.50839e-08C1.91706 3.23454 3.19509 6.46908 4.53122 9.64586L3.77602 9.99242Z" transform="translate(11.8987 17.233) rotate(-18.1585)" fill="black"/>
<path d="M8.42343 3.52334C5.46071 3.23454 2.55607 2.31039 -5.54014e-08 0.750875L0.464741 0C2.90463 1.50175 5.69308 2.36815 8.48152 2.65694L8.42343 3.52334Z" transform="translate(6.84302 23.8149) rotate(-18.1585)" fill="black"/>
<path d="M15.685 6.64236C15.5688 6.64236 15.4526 6.5846 15.3364 6.52684L15.1622 6.35356C9.75956 5.66045 4.53122 3.75438 2.21606e-07 0.693116L0.464741 0C4.93787 3.0035 10.1662 4.90957 15.5688 5.54493C16.0336 5.60268 16.1497 5.89148 16.2078 6.007C16.2659 6.23804 16.1497 6.41132 15.9755 6.52684C15.8593 6.64236 15.7431 6.64236 15.685 6.64236ZM15.3364 6.06476L15.6269 6.18028L15.9174 5.89148C15.8012 5.83372 15.685 5.77596 15.5107 5.83372C15.4526 5.89148 15.3945 5.94924 15.3364 6.06476Z" transform="translate(9.93311 28.5762) rotate(-18.1585)" fill="black"/>
<path d="M28.0587 15.7106C26.4902 15.7106 24.9217 15.4218 23.4694 14.902C22.2495 14.4399 21.0295 13.7468 19.9258 13.1692L10.1081 7.62427C6.56446 5.60269 2.90463 3.5811 4.43211e-07 0.577596L0.639018 0C3.42746 2.88798 7.02921 4.96733 10.5148 6.93116L20.3324 12.4761C21.4362 13.1114 22.5399 13.7468 23.7599 14.2089C25.4446 14.8442 27.3616 15.133 29.1625 14.9597L29.2206 15.8261C28.872 15.6529 28.4654 15.7106 28.0587 15.7106Z" transform="translate(17.6504 36.075) rotate(-18.1585)" fill="black"/>
<path d="M-2.21606e-07 2.31039V1.44399C3.137 1.38623 6.274 0.924155 9.29482 8.81342e-07L9.52719 0.808635C6.44828 1.73279 3.25319 2.25263 -2.21606e-07 2.31039Z" transform="translate(25.9568 43.3196) rotate(-18.1585)" fill="black"/>
<path d="M10.05 22.5263C8.77199 16.2882 6.21591 10.2235 2.67226 4.90957L2.26561 4.27421C1.39422 3.0035 0.522833 1.73279 -2.21606e-07 0.288798L0.813296 1.10168e-07C1.27804 1.38623 2.14943 2.59918 2.96272 3.81214C3.137 4.04317 3.25319 4.21645 3.42746 4.44749C7.02921 9.81914 9.64337 15.9994 10.9795 22.353L10.05 22.5263Z" transform="translate(18.4985 15.9194) rotate(-18.1585)" fill="black"/>
<path d="M15.9174 33.2696L12.4318 25.3565C11.9671 24.2591 11.4442 23.1616 11.0957 22.0064C10.9214 21.3711 10.7471 20.7357 10.6309 20.1581C10.5148 19.5805 10.3405 19.0029 10.2243 18.4831C9.75956 16.8658 8.94626 15.2485 8.24915 13.7468C5.98354 9.12602 3.65984 4.33197 4.43211e-07 0.577597L0.639018 2.20336e-07C4.35695 3.8699 6.73874 8.72171 9.06245 13.4002C9.81765 14.9597 10.6309 16.577 11.0957 18.3098C11.27 18.8874 11.3862 19.465 11.5604 20.0426C11.6766 20.6202 11.8509 21.2556 12.0252 21.8331C12.3737 22.9306 12.8385 24.028 13.3032 25.1254L16.7888 33.0385L15.9174 33.2696Z" transform="translate(27.3462 16.2394) rotate(-18.1585)" fill="black"/>
<path d="M1.06973 12.1873L0.19834 12.014C0.43071 10.8011 0.546896 9.53034 0.430711 8.31739C0.430711 8.14411 0.430712 7.97083 0.372619 7.79755C0.314527 7.21996 0.256435 6.64236 0.314528 6.007C0.314528 5.77597 0.372619 5.60268 0.372619 5.37165C0.430712 4.79405 0.546897 4.27421 0.372619 3.8699C0.314527 3.81214 0.314524 3.69662 0.256431 3.63886C0.140246 3.46558 0.0821571 3.2923 0.0240645 3.06126C-0.0340281 2.7147 0.0240636 2.36815 0.0821562 2.13711L0.488803 -4.40671e-07L1.36019 0.173278L0.953545 2.31039C0.895453 2.54142 0.895454 2.7147 0.895454 2.88798C0.895454 3.0035 1.01164 3.11902 1.06973 3.23454C1.12782 3.35006 1.18592 3.46558 1.24401 3.5811C1.53447 4.21645 1.41829 4.96733 1.3021 5.54493C1.24401 5.71821 1.24401 5.94924 1.24401 6.12252C1.18592 6.64236 1.24401 7.1622 1.3021 7.73979C1.3021 7.91307 1.36019 8.08635 1.36019 8.31739C1.36019 9.53034 1.3021 10.8588 1.06973 12.1873Z" transform="translate(41.5984 23.236) rotate(-18.1585)" fill="black"/>
<path d="M0.871389 4.27421L0 4.04318C0.348556 2.77246 0.348556 1.44399 0 0.173278L0.871389 0C1.21994 1.44399 1.21994 2.88798 0.871389 4.27421Z" transform="translate(31.6216 16.5997) rotate(-18.1585)" fill="black"/>
</svg>
