<svg width="78" height="51" viewBox="0 0 78 51" fill="none" xmlns="http://www.w3.org/2000/svg">
<path d="M8.85345 5.17695C8.85345 5.0238 8.7775 4.79409 8.7775 4.64094C8.62561 3.56892 7.63833 2.26718 6.34727 2.80319C4.98027 3.3392 3.84109 3.49235 2.39814 3.03291C0.651415 2.4969 -0.86748 4.94723 0.57547 6.24897C1.41086 7.01469 2.3222 7.78042 3.38542 8.01014C4.06893 8.16329 6.5751 8.08671 6.87888 7.32099C6.65105 6.86155 6.42321 6.40211 6.19538 5.94268C5.96755 6.17239 5.73971 6.40211 5.58782 6.7084C5.35999 7.01469 5.2081 7.39756 5.05621 7.78042C4.90432 8.46958 4.82838 9.92446 5.13215 10.537C5.96755 12.6045 8.54967 11.9919 9.61289 10.537C10.3723 9.54159 11.0558 7.78042 11.2837 6.63183C11.5115 5.40667 10.904 4.79409 10.7521 3.64549C10.7521 4.02836 10.6761 4.56437 10.6002 5.0238C11.2837 3.49235 11.4356 2.42033 10.7521 0.888876C10.2205 1.88432 9.68884 2.80319 9.08128 3.79864C10.2205 3.64549 10.9799 3.95179 11.5875 5.0238C12.8026 7.16784 16.0682 5.25352 14.8531 3.10948C13.638 0.965448 11.5115 -0.259716 9.00534 0.0465753C7.48644 0.199721 6.72699 1.50146 7.33455 2.95634C7.33455 2.87977 6.87888 4.1815 6.87888 4.1815C6.87888 4.56437 7.03077 5.0238 7.10672 5.33009C7.18266 5.78953 7.25861 5.78953 7.25861 6.24897C7.25861 6.78498 5.8916 8.23986 6.95483 8.08671C7.4105 8.23986 7.86616 8.46958 8.32183 8.62272C8.24589 8.54615 8.16994 8.46958 8.094 8.393C8.24589 9.00558 8.39778 9.61817 8.54967 10.2307C8.7775 9.15873 8.7775 8.77587 9.30912 7.85699C9.84073 6.93812 9.99262 5.8661 9.461 4.94723C8.92939 4.02836 8.01805 3.56892 7.03077 3.49235C5.51188 3.3392 4.37271 4.71751 3.08165 3.49235C2.47409 4.56437 1.86653 5.63638 1.25897 6.7084C3.23354 7.32098 5.28404 7.32098 7.18266 6.47868C6.34727 5.8661 5.58782 5.25352 4.75243 4.64094C4.75243 4.79409 4.82838 5.0238 4.82838 5.17695C5.28404 7.5507 9.08128 7.5507 8.85345 5.17695Z" transform="translate(11.2766 2.71265)" fill="#C6D2DC"/>
<path d="M3.14962 10.1808C1.85856 10.1808 1.55478 10.334 2.31422 10.6403C2.618 10.7934 2.84584 10.87 3.14962 10.9465C3.75717 11.0997 4.28879 11.0997 4.89634 11.0997C5.95957 11.0231 7.0228 10.6403 7.7063 9.72138C9.14925 7.73049 8.84547 4.82072 7.17469 3.13612C7.32658 3.59556 7.55441 4.05499 7.7063 4.51443C7.63036 4.20814 7.7063 3.90185 7.7063 3.59556C7.7063 3.44241 7.7063 3.28927 7.7063 3.13612C7.78225 2.67669 7.63036 2.82983 7.32658 3.44241C6.87091 3.51899 6.3393 3.59556 5.88363 3.67213C6.18741 3.7487 6.26335 3.67213 6.11146 3.28927C6.11146 2.75326 6.03552 2.75326 5.95957 3.36584C5.73174 3.7487 5.65579 4.20814 5.42796 4.591C4.21284 6.73504 7.47847 8.64936 8.69358 6.50532C9.68086 4.74415 10.5163 2.44697 8.76953 0.915512C7.32658 -0.386225 4.74446 -0.462797 4.06095 1.75781C3.83312 2.60011 3.75717 3.67213 3.83312 4.51443C3.90906 5.50988 4.66851 5.96931 4.74446 6.88819C4.74446 7.50077 4.74446 7.50077 4.28879 7.42419C3.83312 7.34762 3.52934 7.1179 3.07367 6.96476C2.08639 6.65847 1.09911 6.81161 0.415607 7.65391C-1.02734 9.33851 1.63072 12.0186 3.14962 10.1808Z" transform="translate(21.3853 0.00585938)" fill="#C6D2DC"/>
<path d="M3.42823 2.07092C3.35229 1.99434 3.35229 1.91777 3.27634 1.8412C3.42823 2.30063 3.65607 2.76007 3.80796 3.21951C3.80796 2.6835 3.73201 3.44923 3.58012 3.60237C3.50418 3.67894 3.42823 3.75552 3.35229 3.75552C3.2004 3.75552 3.12445 3.75552 3.27634 3.75552C3.65607 3.83209 4.11174 3.83209 4.5674 3.83209C3.95985 3.21951 3.27634 2.53035 2.66878 1.91777C2.66878 2.07092 2.66878 2.14749 2.66878 2.30063C2.66878 2.45378 2.59284 2.53035 2.66878 2.37721C2.66878 2.53035 2.59284 2.60693 2.59284 2.76007C2.66878 2.53035 2.59284 2.76007 2.51689 2.91322C2.51689 2.91322 2.28906 3.21951 2.44095 3.06636C2.5169 2.91322 2.28906 3.21951 2.28906 3.21951C2.06123 3.44923 2.51689 3.14293 2.21311 3.29608C2.06123 3.37265 1.98528 3.44923 1.83339 3.5258C0.922054 3.98523 0.694222 5.28697 1.14989 6.12927C1.6815 7.04814 2.82067 7.27786 3.73201 6.81843C5.47874 5.97613 6.61791 3.98523 6.46602 1.99434C6.39008 0.845752 5.63063 0.233171 4.5674 0.0800251C3.42823 -0.0731204 2.21312 -0.0731205 1.22583 0.692607C0.694221 1.07547 0.314497 1.68805 0.0866626 2.30063C-0.141172 3.29608 0.086662 4.06181 0.69422 4.82753C1.37772 5.59326 2.66878 5.51669 3.35229 4.82753C4.26362 3.98523 4.11174 2.91322 3.42823 2.07092Z" transform="translate(29.3848 2.60254)" fill="#C6D2DC"/>
<path d="M2.87781 9.80421C2.34619 9.88078 2.27025 9.88078 2.64997 9.95735C2.80186 9.95735 2.95375 10.0339 3.18159 10.0339C3.63725 10.0339 4.09292 9.95735 4.54859 9.72763C5.30804 9.34477 5.83965 8.50247 5.83965 7.66017C5.9156 5.43956 3.63725 5.0567 2.04241 5.74585C1.28297 6.05214 0.979186 7.20073 1.20702 7.88989C1.43485 8.73219 2.1943 9.19163 3.0297 9.2682C4.92831 9.49792 7.20666 8.04303 7.35855 6.05214C7.58638 4.06125 5.7637 2.37665 3.86509 2.60637C4.24481 3.75496 4.70048 4.82698 5.15615 5.97557C5.00426 6.12872 5.30804 6.05214 5.45993 6.05214C5.76371 6.12872 5.99154 6.20529 6.29532 6.20529C6.97882 6.35843 7.66232 6.43501 8.34583 6.28186C9.78878 5.97557 10.7001 4.82698 10.6242 3.3721C10.4723 2.14693 9.71283 0.845197 8.57366 0.309188C7.35854 -0.303394 5.91559 0.00289683 5.15615 1.15149C4.54859 2.14693 5.15615 3.67839 6.29532 3.98468H6.37126C7.35854 4.2144 8.42177 3.67839 8.72555 2.68294C8.72555 2.68294 8.72555 2.68294 8.72555 2.60637C9.40905 0.232615 5.76371 -0.76283 5.0802 1.61092C5.0802 1.61092 5.0802 1.61092 5.0802 1.6875C5.83965 1.22806 6.67504 0.768624 7.43449 0.385761H7.35855C7.73827 1.30463 8.11799 2.22351 8.49772 3.21895C8.49772 3.14238 8.57366 3.14238 8.57366 3.06581C8.19394 3.3721 7.81421 3.67839 7.43449 3.90811C6.82693 3.44867 6.5991 3.44867 6.82693 3.98468C7.66232 3.06581 7.73827 2.5298 7.05477 2.5298C6.67504 2.30008 5.83965 2.22351 5.38398 2.22351C4.24481 2.14693 3.33347 2.5298 2.42214 3.29552C1.28297 4.29097 2.11836 6.7413 3.78914 6.58815C4.47265 6.51158 4.16887 5.59271 3.63725 5.43956C3.56131 5.43956 3.02969 5.59271 2.95375 5.59271C3.25753 6.81787 3.56131 7.96646 3.94103 9.19163C3.56131 9.19163 3.25753 9.19163 2.87781 9.19163C2.57403 8.80876 2.27025 8.4259 2.04241 8.04303C2.04241 8.11961 2.04241 8.19618 2.11836 8.27275C2.1943 7.81332 2.27025 7.27731 2.34619 6.81787C3.48536 6.43501 3.63725 6.20529 2.80186 6.20529C2.64997 6.20529 2.49808 6.12872 2.34619 6.20529C1.81458 6.20529 1.43486 6.35843 0.979187 6.58815C-1.22321 7.66017 0.675408 10.9528 2.87781 9.80421Z" transform="translate(33.5806 1.14819)" fill="#C6D2DC"/>
<path d="M9.29243 3.92609C9.52026 3.6198 10.0519 3.69637 10.4316 3.77295C9.89999 2.7775 9.36837 1.85863 8.76081 0.863184C8.30515 1.62891 7.46975 2.01177 6.78625 2.54778C5.95086 3.23694 5.41924 4.07924 5.03952 5.07468C4.28007 7.14215 3.90035 9.36276 5.03952 11.3536C5.87491 12.8851 8.00137 12.3491 8.53298 10.8942C9.06459 9.43933 9.59621 7.90788 10.2038 6.45299C8.98865 6.45299 7.77353 6.45299 6.55841 6.45299C6.7103 7.37187 6.63436 8.59703 5.79897 9.28618C6.40653 9.13304 7.01408 8.97989 7.62164 8.82675C7.92542 9.05647 8.00137 9.05647 7.77353 8.75018C7.69759 8.52046 7.5457 8.29074 7.39381 8.06102C7.09003 7.67816 6.78625 7.21872 6.40653 6.83586C5.72302 6.22328 4.81169 5.76384 3.90035 5.68727C2.07767 5.53412 0.330947 6.68271 0.0271677 8.52046C-0.352556 10.8942 3.36874 11.9662 3.67251 9.5159C3.67251 9.5159 4.50791 10.7411 4.58385 10.8942C4.81169 11.2771 5.03952 11.6599 5.3433 11.9662C6.17869 12.6554 7.31786 12.8085 8.2292 12.1959C10.2797 10.8176 10.5075 7.75473 10.1278 5.53412C9.74809 3.46666 7.09003 3.92609 6.48247 5.53412C5.95086 6.989 5.41924 8.52046 4.81169 9.97534C5.95086 9.82219 7.09003 9.66905 8.30515 9.5159C7.69759 8.44388 8.45704 6.29985 9.29243 5.53412C10.2797 4.61525 11.3429 4.15581 12.0264 2.93065C12.7859 1.55234 11.7986 0.174029 10.3557 0.0208834C8.53298 -0.132262 7.01408 0.556893 5.95086 2.08835C4.6598 4.00267 7.92542 5.99356 9.29243 3.92609Z" transform="translate(37.1904 1.20691)" fill="#C6D2DC"/>
<path d="M24.4665 1.82706C24.2387 1.82706 24.0108 1.82706 23.8589 1.82706C28.3397 3.6648 32.8204 5.57912 37.3012 7.41687C37.1493 7.26372 36.9974 7.11058 36.8455 7.034C38.6682 11.5518 40.5668 16.0696 42.3895 20.5874C42.3895 20.3577 42.3135 20.1279 42.3135 19.9748C41.4781 23.1909 40.5668 26.4069 39.7314 29.623C39.8833 29.4698 39.9592 29.2401 40.1111 29.087C44.2121 22.6548 43.073 13.6193 38.5922 7.79973C34.4153 2.28649 25.6057 -1.92501 18.6187 0.908185C17.0239 1.59734 15.4291 1.9802 13.7583 2.28649C9.50538 2.97565 4.34114 7.34029 2.44252 11.0924C0.392009 14.921 -0.367439 18.9794 0.164174 23.2674C0.695788 27.2492 2.36657 31.4607 5.40436 34.2939C8.82187 37.4334 13.9861 40.5729 18.8466 39.8837C21.3528 39.5774 24.0108 40.19 26.5929 40.1134C29.6307 40.0369 32.6685 39.7306 35.6304 39.5774C45.5032 38.9648 55.0722 31.231 54.6166 20.4342C54.1609 10.6329 46.2626 0.601894 35.6304 1.29105C32.5926 1.44419 29.6307 1.75049 26.5929 1.82706C24.0108 1.90363 21.4287 1.29105 18.8466 1.59734C20.5174 14.1553 22.1882 26.6366 23.8589 39.1946C25.5297 38.8883 27.1246 38.4288 28.7194 37.8162C21.5046 28.4744 14.3658 19.1325 7.22704 9.71405C-1.27877 23.0377 9.50538 39.9603 24.4665 40.1134C34.4153 40.19 43.9083 31.231 43.4527 20.9702C42.997 10.5564 35.0988 1.90363 24.4665 1.82706Z" transform="translate(12.6753 6.59851)" fill="#C6D2DC"/>
<path d="M5.03106 3.49265C4.80323 2.26749 4.19568 1.27205 3.20839 0.506318C1.6895 -0.718846 -0.209122 0.429745 0.0187117 2.34406C0.322491 4.33495 -0.285066 7.32129 1.46166 8.77617C2.60083 9.77162 4.11973 9.31218 4.65134 7.93387C4.80323 7.47444 5.10701 7.09157 5.33484 6.55556C5.71457 6.32585 5.79051 6.1727 5.56268 6.09613C5.2589 5.94298 5.48673 5.94298 6.09429 6.09613C7.30941 6.09613 8.52452 6.24927 9.73964 6.32585C12.1699 6.47899 12.1699 2.65035 9.73964 2.49721C8.06886 2.42064 5.48674 1.73148 3.96784 2.65035C2.52489 3.56923 1.61355 5.3304 1.006 6.86185C2.06922 6.55556 3.13245 6.32585 4.19567 6.01955C3.89189 5.86641 4.04379 4.33495 4.04379 4.02866C3.96784 3.10979 3.89189 2.26749 3.74001 1.34862C2.67678 1.9612 1.61355 2.57378 0.550328 3.18636C1.08194 3.56923 1.23383 3.87552 1.38572 4.4881C1.84139 6.93843 5.48673 5.94298 5.03106 3.49265Z" transform="translate(52.4639 0.874512)" fill="#C6D2DC"/>
<path d="M6.64646 2.48924C5.20351 0.957783 2.54545 -1.18625 0.570884 0.804638C-1.17584 2.56581 1.48222 5.24586 3.22895 3.48468C2.77328 3.86755 2.39356 3.94412 2.08978 3.7144C2.24167 3.79097 2.31761 3.86755 2.4695 3.94412C2.62139 4.09727 2.84922 4.17384 3.00111 4.32698C3.153 4.48013 3.68462 4.93957 3.91245 5.16928C4.59596 5.93501 5.88702 5.85844 6.57052 5.16928C7.40591 4.40356 7.40591 3.17839 6.64646 2.48924Z" transform="translate(46.8994 5.55347)" fill="#C6D2DC"/>
<path d="M3.19954 4.05065C3.27549 3.97408 3.35144 3.89751 3.42738 3.82093C3.27549 3.97408 3.27549 3.89751 3.42738 3.82093C3.50333 3.82093 3.50332 3.74436 3.57927 3.74436C3.35143 3.82093 3.42738 3.82093 3.57927 3.74436C3.42738 3.82093 3.35143 3.82093 3.19954 3.74436C3.04765 3.74436 3.04765 3.74436 3.19954 3.74436C3.04765 3.66779 2.89577 3.59121 2.81982 3.51464C2.66793 3.28492 2.66793 3.28492 2.74388 3.43807C2.66793 3.13178 2.59199 2.82549 2.51605 2.44262C2.51605 2.36605 2.51605 2.21291 2.59199 2.13633C3.04766 1.6769 3.50332 1.21746 3.88305 0.834597H3.8071C2.81982 1.06431 2.21227 2.28948 2.51605 3.20835C2.81983 4.28037 3.80711 4.73981 4.87033 4.51009C6.08545 4.28037 6.61706 2.82549 6.16139 1.75347C5.85761 0.987742 5.17411 0.375161 4.41466 0.145442C2.97171 -0.313994 1.52876 0.37516 0.541478 1.37061C-0.142024 2.05976 -0.217969 3.3615 0.541478 4.05065C1.22498 4.73981 2.4401 4.81638 3.19954 4.05065Z" transform="translate(55.4346 7.20813)" fill="#C6D2DC"/>
<path d="M1.81329 5.53165C3.48408 5.30193 3.40813 6.45052 4.24352 7.59911C4.92702 8.59456 7.28131 9.59 6.14214 11.1215C4.85108 12.8826 7.73698 15.1032 9.10399 13.4186C10.5469 11.734 11.9139 9.81972 11.4583 7.44597C10.9267 5.07221 8.57238 4.07677 6.67376 2.92818C6.90159 3.77048 7.12942 4.68935 7.35725 5.53165C8.04076 4.0002 12.0658 3.6939 13.4328 3.77048C12.9012 3.46418 12.3696 3.15789 11.7621 2.8516C12.3696 4.15334 12.1418 4.91907 13.5088 5.91451C14.2682 6.5271 14.0404 6.2208 12.6734 5.99109C11.2304 5.76137 10.2432 5.45508 9.10399 4.61278C7.12942 3.15789 5.2308 6.45052 7.20537 7.9054C9.78749 9.81972 14.648 10.9683 17.306 8.44141C18.3692 7.44597 18.673 5.99109 17.9895 4.68935C17.5339 3.84705 16.6985 3.61733 16.1669 3.00475C15.6352 2.39217 15.4833 1.70301 15.1796 0.937285C14.8758 0.324703 14.1923 0.0184119 13.5088 0.0184119C10.5469 -0.134734 5.53458 0.630995 4.16758 3.6939C3.78785 4.61278 3.8638 5.76137 4.85108 6.29738C6.7497 7.44597 8.42048 8.51799 6.52186 10.7386C7.50915 11.5043 8.49643 12.27 9.48371 13.0358C11.4583 10.3557 10.1672 8.05855 8.1167 6.06766C5.9143 3.84705 5.61053 1.32015 1.88924 1.70301C-0.616942 2.0093 -0.61694 5.83794 1.81329 5.53165Z" transform="translate(56.9727 8.94324)" fill="#C6D2DC"/>
<path d="M7.12507 5.32798C7.73263 5.09826 8.34019 4.86854 8.8718 4.71539C10.8464 4.02624 10.5426 1.11647 8.34018 0.963328C7.27696 0.886756 6.28968 0.810184 5.22645 0.810184C4.467 0.733611 3.55567 0.810184 2.79622 0.42732C2.64433 1.57591 2.49244 2.7245 2.34055 3.94967C2.72028 3.87309 3.1 3.79652 3.55567 3.79652C3.70756 3.79652 3.85945 3.79652 4.01134 3.79652C4.69484 3.94967 4.6189 3.71995 3.85945 3.10737C4.54295 5.48112 8.1883 4.48567 7.50479 2.11192C6.74535 -0.491554 3.40378 -0.10869 1.35327 0.274174C-0.24157 0.580465 -0.469403 3.03079 0.897603 3.79652C3.1 4.94511 5.90995 4.71539 8.34018 4.86854C8.18829 3.64337 8.03641 2.34164 7.80857 1.11647C7.20101 1.34619 6.59345 1.57591 6.06184 1.72906C3.85944 2.41821 4.84673 6.17028 7.12507 5.32798Z" transform="translate(62.0654 11.7502)" fill="#C6D2DC"/>
<path d="M3.65439 4.33638V4.25981C5.0214 4.18323 6.16057 2.65178 5.32518 1.35004C5.24923 1.27347 5.24923 1.1969 5.17329 1.1969C5.17329 1.80948 5.17329 2.49863 5.17329 3.11121C5.24923 3.03464 5.24923 2.95807 5.32518 2.8815C4.79357 3.18779 4.26195 3.49408 3.65439 3.80037C4.186 3.80037 5.55301 4.71924 6.08463 4.94896C6.61624 5.17868 7.45163 5.4084 7.83135 5.79126C7.45163 5.4084 8.13513 6.78671 8.05919 6.71013C8.36297 7.24614 8.74269 7.78215 9.12242 8.24159C9.27431 8.47131 10.6413 9.84962 9.80591 8.7776C9.35025 8.24159 8.66675 7.70558 8.13513 7.24614C6.84407 6.02098 5.55301 4.87239 4.3379 3.64722C3.73034 4.71924 3.12278 5.79126 2.51522 6.86328C3.12278 7.01643 6.00868 7.78215 5.85679 8.70102C6.00868 8.24159 6.23651 7.78215 6.3884 7.32272C7.0719 7.24614 7.14785 7.16957 6.54029 7.01642C6.23651 6.86328 5.93273 6.78671 5.62895 6.71013C3.27467 6.17412 2.28739 9.77304 4.64168 10.3856C5.62896 10.6919 6.3884 11.1514 7.0719 11.9171C8.74269 13.6783 11.4767 10.9982 9.72997 9.23703C8.5908 8.01187 7.22379 7.24614 5.55301 6.78671C5.24923 8.01187 4.86951 9.23703 4.56573 10.4622C5.7049 10.7685 6.69218 11.3811 7.9073 10.9216C9.12241 10.4622 9.80592 9.31361 9.65403 8.08844C9.35025 5.4084 5.78085 3.7238 3.5025 3.18779C1.75578 2.80492 0.160934 5.02553 1.67983 6.40384C3.12278 7.78215 4.56573 9.16046 6.08463 10.5388C7.07191 11.4576 8.05919 12.6828 9.42619 12.9891C12.0843 13.6783 14.5145 11.2279 13.9069 8.54788C13.6032 7.093 12.388 6.48041 11.6286 5.25525C10.9451 4.18323 10.7932 3.11122 9.57808 2.42206C8.13513 1.57976 6.23652 0.584315 4.64168 0.124878C3.5025 -0.181412 2.51522 0.0483052 1.90767 1.12032C1.60389 1.65633 1.52794 2.49863 1.90767 3.03464C1.98361 3.11121 1.98361 3.18779 2.05955 3.18779C2.59117 2.19234 3.12278 1.27347 3.73033 0.278023C1.90766 0.354596 0.540659 1.35004 0.0849907 3.18779C-0.598512 5.71469 3.04683 6.71013 3.65439 4.33638Z" transform="translate(63.2576 20.4757)" fill="#C6D2DC"/>
<path d="M0.123516 3.90715C0.731074 5.51518 1.33863 7.19978 1.87024 8.80781C2.17402 9.65011 2.78158 10.1861 3.69292 10.1861C8.93311 10.3393 11.895 6.81691 13.7936 2.29912C14.7049 0.00194029 11.0596 -0.993508 10.1482 1.30367C8.9331 4.29001 7.18638 6.51062 3.69292 6.35748C4.30048 6.81691 4.90803 7.27635 5.51559 7.73579C4.90803 6.12776 4.30048 4.44316 3.76886 2.83513C2.93347 0.537947 -0.711876 1.53339 0.123516 3.90715Z" transform="translate(44.6887 39.5887)" fill="#C6D2DC"/>
<path d="M0.611656 8.40386C1.90272 9.55245 3.34567 11.3136 5.16834 10.3182C5.32023 10.2416 6.38346 9.55245 5.47212 9.78217C5.69995 9.7056 6.15562 9.93531 6.4594 9.93531C7.29479 9.93531 8.05424 9.62902 8.73774 9.09301C11.4718 7.10212 12.2312 2.50776 9.3453 0.287148C8.88963 -0.0957159 7.90235 -0.0957159 7.44668 0.287148C6.38346 0.976302 6.15562 2.12489 5.47212 3.12034C4.86456 3.96264 4.10511 4.49865 3.11783 4.80494C0.763542 5.57067 1.75083 9.24616 4.10511 8.48043C5.39617 8.09757 6.4594 7.48499 7.44668 6.56611C7.90235 6.18325 8.20613 5.72381 8.58585 5.26438C8.81369 4.95808 9.04152 4.57522 9.19341 4.19236C9.26935 4.03921 9.80097 3.27348 9.3453 3.57977C8.73774 3.57977 8.05424 3.57977 7.44668 3.57977C6.91507 3.19691 7.2948 3.80949 7.37074 4.11578C7.37074 4.42208 7.37074 4.80494 7.21885 5.11123C6.99101 5.72381 6.68723 5.95353 6.15562 6.0301C5.39617 6.10668 4.78862 5.95353 4.10511 6.41297C2.73811 7.25527 4.56078 6.79583 4.56078 6.8724C4.56078 6.79583 3.34567 5.80038 3.26972 5.72381C1.44705 4.11578 -1.21102 6.79583 0.611656 8.40386Z" transform="translate(55.896 35.1686)" fill="#C6D2DC"/>
<path d="M5.25005 3.82582C5.02222 3.28981 5.40194 4.36183 5.25005 4.36183C5.326 4.36183 5.62978 3.90239 5.70573 3.82582C6.0095 3.36638 6.31328 2.98352 6.46517 2.44751C6.76895 1.45206 6.08545 0.380044 5.17411 0.0737535C4.11088 -0.232537 3.19955 0.456615 2.81982 1.37549C2.36415 2.60065 1.52876 3.67267 0.541481 4.59154C-0.217967 5.2807 -0.142022 6.58243 0.541481 7.27159C1.30093 8.03732 2.4401 7.96074 3.19955 7.27159C4.6425 5.89328 5.70573 4.28525 6.46517 2.37094C5.25006 2.06464 4.03494 1.68178 2.81982 1.37549C2.89577 1.22234 2.81982 1.45206 2.74388 1.52863C2.81982 1.37549 2.59199 1.68178 2.59199 1.68178C2.28821 2.06464 2.06037 2.37093 1.83254 2.83037C1.37687 3.82582 1.52876 4.82126 1.98443 5.74013C2.4401 6.65901 3.73116 6.88873 4.56655 6.42929C5.47789 5.89328 5.70572 4.74469 5.25005 3.82582Z" transform="translate(60.5989 31.094)" fill="#C6D2DC"/>
<path d="M0.183781 2.92664C1.01917 4.84095 2.91779 6.29584 4.9683 6.75527C7.47448 7.29128 9.29715 6.37241 10.9679 4.53466C9.98065 3.76893 8.99337 3.00321 8.00609 2.23748C6.63908 4.22837 4.81641 2.31405 3.4494 1.24203C2.68996 2.23748 1.93051 3.23292 1.17106 4.22837C2.61401 5.22381 4.13291 6.6787 5.87964 7.13814C7.55042 7.59757 9.06931 6.6787 9.52498 4.9941C10.2085 2.62034 6.56314 1.6249 5.87964 3.99865C6.10747 3.76893 6.41125 3.53922 6.63908 3.3095C6.48719 3.23293 6.33531 3.15635 6.18342 3.00321C5.95558 2.69692 5.42397 2.4672 5.04425 2.23748C4.36074 1.77804 3.75318 1.31861 3.06968 0.859171C1.32295 -0.365993 -0.879446 2.4672 0.791338 3.84551C2.31023 5.14724 4.05696 6.83184 6.18342 6.90842C8.30987 6.98499 10.0566 5.75983 11.2717 4.07523C12.4868 2.31405 9.67687 0.0934437 8.30987 1.77804C7.47448 2.69692 6.86692 3.3095 5.57586 2.92664C4.51263 2.62034 3.90507 1.93119 3.4494 0.935742C2.46212 -1.20829 -0.803501 0.706026 0.183781 2.92664Z" transform="translate(33.6165 42.407)" fill="#C6D2DC"/>
<path d="M0.0142391 1.99089C-0.0617057 2.90976 0.16613 3.90521 0.697743 4.67094C1.38125 5.74295 2.44447 5.97267 3.65959 5.74295C5.25443 5.43666 8.67194 4.97723 7.83655 2.5269C7.53277 1.53145 6.54549 0.918872 5.48226 1.22516C4.57092 1.45488 3.81148 2.60347 4.1912 3.59892V3.67549C4.34309 3.06291 4.49498 2.45033 4.64687 1.83775C4.72282 1.76117 4.8747 1.6846 4.95065 1.60803C4.79876 1.60803 4.64687 1.6846 4.49498 1.6846C4.26715 1.76117 4.03931 1.83775 3.73553 1.83775C3.35581 1.91432 2.82419 2.06746 2.52042 2.06746C2.82419 2.14404 3.12798 2.22061 3.5077 2.29718C3.81148 2.45033 3.65959 2.68004 3.73553 2.37375C3.73553 2.5269 3.73553 1.53145 3.73553 1.91432C3.81148 0.918873 2.8242 0 1.83691 0C0.849632 0.0765727 0.0901838 0.918872 0.0142391 1.99089Z" transform="translate(26.4192 42.7301)" fill="#C6D2DC"/>
<path d="M11.2817 2.56519C12.0412 -1.34002 7.86423 0.114859 6.04156 1.1103C2.92782 2.7949 -0.413744 4.63265 0.041924 8.69101C0.193813 10.1459 0.725427 10.9882 1.94054 11.6773C2.77593 12.1368 3.76322 12.3665 4.59861 12.8259C5.20617 13.1322 5.73778 13.5917 6.42128 13.8214C11.2817 15.2763 10.6742 8.92072 12.8766 6.54697C14.0158 5.3218 13.1804 3.33091 11.5096 3.25434C7.33262 3.10119 4.7505 6.16411 3.91511 10.0693C3.53538 12.0602 6.42128 13.6682 7.40856 11.5242C8.3199 9.60988 8.92746 7.69556 9.30718 5.55152C9.53502 4.02007 8.01612 2.41204 6.49723 3.40749C4.52266 4.70922 3.2316 6.39382 2.5481 8.69101C1.8646 11.1413 5.35806 11.9071 6.19345 9.68645C7.02884 7.61899 10.2185 9.15044 11.3577 9.68645C11.1299 8.84415 10.902 7.92528 10.6742 7.08298C9.53502 9.22701 9.0034 11.2945 8.92746 13.7448C8.92746 14.3574 9.30718 15.1231 9.83879 15.4294C10.1426 15.6591 10.5223 15.8888 10.8261 16.1186C11.4336 15.0465 12.0412 13.9745 12.6488 12.9025C12.269 12.8259 11.8134 12.7494 11.4336 12.7494C9.53502 12.4431 7.78829 15.2763 9.99068 16.2717C13.1804 17.65 16.2182 18.2626 19.4078 16.5014C20.547 15.8888 20.7748 13.7448 19.4078 13.2088C17.6611 12.4431 13.712 11.5242 12.4969 9.91617C11.0539 7.92528 7.78829 9.8396 9.23124 11.8305C11.1299 14.434 14.6233 15.2763 17.5092 16.5014C17.5092 15.4294 17.5092 14.2808 17.5092 13.2088C15.6106 14.2808 13.7879 13.8214 11.9652 12.9791C11.5096 14.1277 10.978 15.2763 10.5223 16.5014C10.902 16.578 11.3577 16.6546 11.7374 16.6546C13.5601 16.8843 15.003 14.97 13.5601 13.4385C12.8766 12.7494 12.7247 12.5196 11.8134 12.1368C12.1171 12.6728 12.4209 13.2088 12.7247 13.8214C12.8006 12.0602 13.1804 10.6819 13.9398 9.07387C14.3955 8.23157 14.2436 6.85326 13.2563 6.4704C9.30718 4.70922 4.44672 3.9435 2.5481 8.76758C3.76322 9.07387 4.97833 9.45673 6.19345 9.76302C6.57317 8.38471 7.18073 7.54241 8.39584 6.70011C7.48451 6.01096 6.57317 5.24523 5.58589 4.55608C5.28211 6.31725 4.82644 7.92528 4.067 9.60988C5.20617 10.0693 6.34534 10.6053 7.56045 11.0648C8.01612 8.92072 9.0034 7.0064 11.4336 7.08298C10.978 6.01096 10.5223 4.93894 10.0666 3.79035C9.0034 4.93894 8.16801 6.08753 7.6364 7.54242C7.56045 7.77213 7.10478 9.91617 7.02884 9.99274L5.73778 9.07387C4.44672 8.38472 2.77593 8.61443 3.91511 7.00641C4.97833 5.6281 8.01612 3.9435 9.68691 3.56063C9.07935 3.40749 8.47179 3.25434 7.86423 3.10119C7.94018 3.17777 8.01612 3.17777 8.01612 3.25434C7.86423 2.64176 7.71234 2.02918 7.56045 1.4166C7.56045 1.49317 7.56045 1.56974 7.48451 1.64631C7.18073 3.9435 10.8261 4.93894 11.2817 2.56519Z" transform="translate(4.06396 28.2197)" fill="#C6D2DC"/>
<path d="M12.3605 0.482236C9.93026 0.0993725 7.57597 -0.206918 5.14574 0.175946C3.47495 0.405664 0.513107 0.788527 0.0574382 2.85599C-0.39823 4.77031 1.95606 6.53148 3.62684 6.7612C5.82924 7.06749 8.4873 5.68918 10.5378 5.00003C12.8921 4.31087 11.9048 0.558809 9.55053 1.32454C8.41136 1.7074 4.2344 3.69829 3.5509 2.39655C3.5509 3.00914 3.5509 3.69829 3.5509 4.31087C3.39901 4.61716 4.76601 4.15773 4.84196 4.08116C5.6014 3.92801 6.28491 3.85144 7.04435 3.85144C8.48731 3.77486 9.93025 3.92801 11.3732 4.2343C13.7275 4.54059 14.7148 0.8651 12.3605 0.482236Z" transform="translate(5.64307 13.1503)" fill="#C6D2DC"/>
<path d="M8.57582 0.0855987C6.60126 0.698181 4.47481 1.23419 2.50024 1.99992C0.905404 2.6125 -0.309712 3.83766 0.0700114 5.67541C0.37379 7.28343 1.66485 8.5086 3.33564 8.66175C5.3102 8.81489 7.13287 7.6663 8.65177 6.51771C9.48716 5.90513 9.86688 4.90968 9.33527 3.91424C8.8796 3.07194 7.58854 2.6125 6.75315 3.22508C6.14559 3.68452 5.46209 4.2971 4.70264 4.60339C4.47481 4.67996 4.24697 4.75653 4.01914 4.83311C3.7913 4.83311 3.71536 4.90968 3.86725 5.06283C3.7913 5.29254 3.63941 5.52226 3.56347 5.75198C3.71536 5.67541 3.86725 5.67541 4.01914 5.59883C4.85453 5.52226 5.84181 4.98625 6.6772 4.75653C7.66448 4.45024 8.65177 4.14395 9.63905 3.83766C11.9174 3.07193 10.9301 -0.603556 8.57582 0.0855987Z" transform="translate(6.54199 17.1459)" fill="#C6D2DC"/>
<path d="M5.88561 0.264205C3.91104 1.33622 1.02514 2.48481 0.265696 4.782C-0.265918 6.61974 -0.114028 8.91692 1.78459 9.75922C4.06293 10.8312 5.65777 8.61063 7.63234 7.99805C10.1385 7.15575 12.7206 7.23233 15.2268 6.16031C17.4292 5.16486 15.5306 1.87223 13.3282 2.86768C10.822 3.9397 8.01206 3.63341 5.58183 4.70542C5.05021 4.93514 4.5186 5.16486 4.06293 5.54772C3.8351 5.70087 3.60726 5.93059 3.30349 6.08373C3.45537 6.23688 3.68321 6.31345 3.8351 6.4666C3.91104 5.93059 4.21482 5.54772 4.67049 5.31801C4.97427 5.08829 5.35399 4.85857 5.73372 4.70542C6.41722 4.32256 7.10072 3.9397 7.86017 3.55683C9.91068 2.40824 8.01206 -0.960959 5.88561 0.264205Z" transform="translate(0.118896 20.0302)" fill="#C6D2DC"/>
<path d="M7.66278 2.3029C7.73872 0.618296 5.992 -0.0708585 4.54905 0.00571427C3.40987 0.082287 2.2707 0.541724 1.35937 1.38402C0.523974 2.14975 -0.235474 3.45149 0.0683053 4.67665C0.523974 6.5144 2.80232 6.28468 4.24527 6.05496C5.23255 5.82524 5.84011 4.67665 5.53633 3.68121C5.23255 2.60919 4.24527 2.14975 3.18204 2.37947C3.03015 2.37947 2.87826 2.45604 2.80232 2.45604C2.72637 2.45604 2.2707 2.37947 2.49854 2.45604C2.80232 2.60919 3.03015 2.76233 3.33393 2.91548L3.25798 2.83891C3.40987 3.1452 3.56176 3.37492 3.71365 3.68121V3.60463C3.71365 3.91092 3.71365 4.29379 3.71365 4.60008C3.7896 4.44693 3.86554 4.21722 4.24527 4.06407C4.54905 3.91092 4.01743 4.14064 4.32121 3.9875C4.32121 3.9875 4.70093 3.91092 4.54905 3.91092C4.39716 3.91092 4.77688 3.91092 4.77688 3.91092C4.92877 3.91092 4.92877 3.91092 4.85282 3.91092C4.62499 3.91092 4.4731 3.75778 4.39716 3.60463C4.24527 3.1452 4.01743 2.68576 3.86554 2.22632V2.3029C3.7896 4.8298 7.58684 4.8298 7.66278 2.3029Z" transform="translate(2.06299 12.0188)" fill="#C6D2DC"/>
<path d="M1.82268 3.82864C4.25291 3.82864 4.25291 2.92102e-07 1.82268 2.92102e-07C-0.607556 2.92102e-07 -0.607556 3.82864 1.82268 3.82864Z" transform="translate(53.4697 9.11475)" fill="#F3C860"/>
<path d="M0.608981 0.545957C0.533036 0.545957 0.533036 0.62253 0.608981 0.545957C-0.150467 1.31168 -0.22641 2.61342 0.533037 3.30258C1.29248 3.99173 2.43166 4.0683 3.1911 3.30258L3.26705 3.226C3.95055 2.53685 4.02649 1.23511 3.26705 0.545957C2.5076 -0.143198 1.36843 -0.21977 0.608981 0.545957Z" transform="translate(49.823 28.0948)" fill="#F3C860"/>
<path d="M0 1.91847C0 2.99049 0.835392 3.90936 1.89862 3.90936C2.96184 3.83279 3.79724 3.06706 3.79724 1.99504V1.91847C3.79724 0.923025 2.96184 -0.072421 1.89862 0.00415172C0.911337 0.00415172 0 0.846452 0 1.91847Z" transform="translate(36.4583 29.5554)" fill="#F3C860"/>
<path d="M1.97456 -2.92102e-07C0.911336 -2.92102e-07 0 0.8423 0 1.91432C0.0759447 2.98634 0.835392 3.82864 1.89862 3.82864H1.97456C2.96184 3.82864 3.94913 2.98634 3.87318 1.91432C3.87318 0.8423 3.03779 -2.92102e-07 1.97456 -2.92102e-07Z" transform="translate(24.6868 18.1503)" fill="#F3C860"/>
<path d="M3.73619 0H0V0.53389H3.73619V0Z" transform="matrix(0.716134 -0.697953 0.692036 0.721853 38.1455 18.2301)" fill="black"/>
<path d="M5.79412e-07 3.06291L0.455668 3.3692C1.13917 2.37376 1.74673 1.37831 2.2024 0.229718L1.67079 -5.84204e-07C1.21512 1.14859 0.683503 2.14404 5.79412e-07 3.06291Z" transform="translate(39.2681 16.9252)" fill="black"/>
<path d="M5.79412e-07 0.00995942V0.545969C0.15189 0.545969 0.303778 0.699115 0.455668 0.928833L2.58212 3.53231L3.03779 3.14944L0.911338 0.545969C0.759449 0.316251 0.455669 -0.0666133 5.79412e-07 0.00995942Z" transform="translate(44.5845 14.7711)" fill="black"/>
<path d="M1.15882e-06 0.0765727C0.151891 1.30174 0.379723 2.5269 0.683502 3.75206L1.21512 3.59892C0.911337 2.45033 0.683502 1.22516 0.531612 -2.92102e-07L1.15882e-06 0.0765727Z" transform="translate(44.3564 16.236)" fill="black"/>
<path d="M0.377122 0C-0.00260145 0.8423 -0.0785474 1.83775 0.0733421 2.68005L0.604959 2.60347C0.453069 1.83775 0.529011 0.995445 0.83279 0.229718L0.377122 0Z" transform="translate(54.3079 13.2496)" fill="black"/>
<path d="M0.561404 0.0765721L0.0297935 5.84204e-07C-0.0461513 0.612583 0.0297912 1.22516 0.181681 1.76117L0.713297 1.60803C0.561408 1.14859 0.48546 0.612581 0.561404 0.0765721Z" transform="translate(55.7944 14.5514)" fill="black"/>
<path d="M2.8859 1.83775C2.05051 1.14859 1.21512 0.536009 0.30378 -1.46051e-07L0 0.459436C0.911337 0.995445 1.74673 1.60803 2.50618 2.22061L2.8859 1.83775Z" transform="translate(58.4822 11.8715)" fill="black"/>
<path d="M0.911339 1.53145L1.36701 1.30174C1.13917 0.765728 0.759447 0.382863 0.303779 -2.92102e-07L-1.15882e-06 0.459436C0.379723 0.689155 0.683505 1.07202 0.911339 1.53145Z" transform="translate(61.2161 11.6416)" fill="black"/>
<path d="M2.31765e-06 0.536009C0.151892 0.536009 0.303781 0.612582 0.379726 0.689154L0.75945 0.306291C0.531615 0.0765724 0.227837 0 2.31765e-06 0V0.536009Z" transform="translate(52.2546 9.03821)" fill="black"/>
<path d="M-1.15882e-06 0.612582L0.531615 0.8423C0.683505 0.536009 0.531613 0.229719 0.303779 2.92102e-07L-1.15882e-06 0.459436C-1.15882e-06 0.459436 -1.15882e-06 0.536009 -1.15882e-06 0.612582Z" transform="translate(54.761 6.43469)" fill="black"/>
<path d="M1.13917 -1.46051e-07C0.759447 -1.46051e-07 0.303779 0.153145 0 0.382864L0.30378 0.8423C0.531614 0.689155 0.835392 0.612582 1.13917 0.536009V-1.46051e-07Z" transform="translate(57.343 8.42554)" fill="black"/>
<path d="M4.93641 0.53601V0C3.26563 0 1.59484 0.0765724 1.15882e-06 0.306291L0.0759447 0.8423C1.67078 0.612582 3.34157 0.459437 4.93641 0.53601Z" transform="translate(65.6211 12.1011)" fill="black"/>
<path d="M-2.31765e-06 0.133568L0.0759471 0.669578C1.06323 0.516432 2.12646 0.516432 3.11374 0.822722L3.26562 0.286714C2.2024 -0.0195768 1.06322 -0.0961502 -2.31765e-06 0.133568Z" transform="translate(67.7476 14.1881)" fill="black"/>
<path d="M-2.31765e-06 0.133111L0.151891 0.669119C1.21512 0.439401 2.27834 0.66912 3.18968 1.20513L3.49346 0.745692C2.35429 0.0565375 1.13917 -0.17318 -2.31765e-06 0.133111Z" transform="translate(68.1272 15.873)" fill="black"/>
<path d="M77.5443 28.1048C77.2405 27.339 76.633 26.7264 76.0254 26.1904C75.5698 25.8076 75.19 25.4247 74.8863 24.9653C74.7344 24.659 74.5825 24.4293 74.4306 24.123C74.2787 23.7401 74.0509 23.3572 73.823 23.0509C73.1395 22.1321 72.0004 21.6726 70.9371 21.2898C69.798 20.9069 68.6588 20.524 67.4437 20.2178C67.5956 20.0646 67.6715 19.9115 67.8234 19.6817C68.0512 19.2223 68.0512 18.7629 67.9753 18.3034C68.8107 18.5332 69.6461 18.6097 70.4815 18.6097C71.7725 18.6097 73.1395 18.38 74.3547 17.844C74.8863 17.6143 75.4938 17.308 75.8735 16.772C76.633 15.6234 76.0254 14.0154 75.0382 12.9433C74.6584 12.5605 74.2028 12.1776 73.7471 11.8713C73.1395 11.4119 72.6079 11.029 72.1523 10.493C72.0763 10.4164 72.0004 10.2633 71.9244 10.1867C71.6966 9.88044 71.4688 9.57415 71.089 9.34443C70.4055 8.80842 69.4942 8.88499 68.6588 9.03814C66.3805 9.03814 64.254 9.80387 62.2794 10.9525L62.4313 11.1822C62.2035 11.029 61.9757 10.9525 61.8238 10.7993C61.7478 10.7227 61.5959 10.7227 61.444 10.6462C61.7478 9.49757 61.3681 8.19584 60.3808 7.50668C60.0011 7.20039 59.4695 7.04725 59.0138 7.04725C59.6214 6.8941 60.2289 6.8941 60.8365 6.97067C60.9884 6.97067 61.1403 7.04725 61.2922 7.04725C61.9757 7.20039 62.5832 7.35354 63.2667 7.04725C63.8743 6.81753 64.254 6.20495 64.3299 5.59237C64.4059 4.97978 64.1021 4.3672 63.5705 3.98434C63.0389 3.75462 62.5073 3.67805 62.0516 3.60147L60.0011 3.37176C59.1657 3.29518 58.1025 3.14204 57.1911 3.5249C57.1911 3.37176 57.1911 3.21861 57.2671 3.06546C57.2671 2.60603 57.1911 2.22316 57.0392 1.91687C56.6595 1.07457 55.5963 0.538565 54.3052 0.461992C54.0015 0.461992 53.6217 0.461992 53.242 0.615137C52.7863 0.844855 52.4826 1.30429 52.3307 1.91687C52.2547 2.37631 52.2547 2.91232 52.3307 3.37176L52.8623 3.29518C52.7863 2.83575 52.7863 2.37631 52.8623 1.99345C52.9382 1.53401 53.1661 1.22772 53.4698 1.07457C53.6977 0.921428 54.0015 0.921428 54.3052 0.921428C54.7609 0.921428 56.1279 1.07457 56.5836 2.07002C56.6595 2.29974 56.7355 2.60603 56.7355 2.98889C56.7355 3.75462 56.5076 4.52035 56.052 5.2095L56.5076 5.51579C56.8114 5.05636 57.0392 4.52035 57.1152 3.98434L57.1911 4.06091C58.0265 3.60147 59.0898 3.75462 60.0011 3.83119L62.0516 4.06091C62.4313 4.13748 62.887 4.13748 63.2667 4.3672C63.5705 4.75006 63.7983 5.2095 63.7224 5.59237C63.6464 6.0518 63.4186 6.43467 63.0389 6.58781C62.5832 6.81753 61.9757 6.66438 61.444 6.58781C61.2922 6.58781 61.1403 6.51124 60.9124 6.51124C59.6973 6.28152 58.4063 6.51124 57.343 7.12382L57.4949 7.43011C57.2671 7.50668 57.1152 7.65983 56.8874 7.81297L57.2671 8.19584C58.0265 7.50668 59.2416 7.43011 60.0011 7.96612C60.7605 8.50213 61.1403 9.49757 60.8365 10.4164C59.6973 10.0336 58.4062 9.88044 56.7355 9.88044C56.6595 9.80387 56.5836 9.72729 56.5076 9.65072C56.8114 8.88499 56.8874 7.96612 56.5836 6.97067C56.3557 5.97523 55.8241 5.13293 55.3685 4.3672C54.685 3.29518 54.0015 2.83575 53.242 3.06546C52.4826 3.37176 52.1788 4.44377 52.4066 5.36265C52.4826 5.66894 52.6345 5.97523 52.7863 6.28152C52.9382 6.66438 53.0901 6.97067 53.1661 7.35354C52.7863 6.8941 52.3307 6.43467 51.951 5.97523C51.2674 5.59237 50.4321 5.28607 49.5967 5.2095C48.7613 5.13293 48.0778 5.28607 47.6221 5.66894C47.1664 6.0518 47.0145 6.74096 47.0905 7.43011C47.1664 7.96612 47.3943 8.50213 47.8499 9.03814C48.3056 9.57415 48.8372 10.0336 49.3688 10.4164C48.6094 10.1867 47.9259 10.1867 47.3183 10.3399L47.4702 10.8759C48.0018 10.7227 48.6853 10.7993 49.4448 11.029C50.2802 11.2587 50.9637 11.7182 51.4193 12.2542C51.9509 12.8668 52.2547 13.6325 52.2547 14.3217H52.4066C52.1028 16.0063 52.0269 17.7674 52.4066 19.452C51.951 19.5286 51.4953 19.6052 51.0396 19.5286L50.8877 19.988C51.1156 20.0646 51.3434 20.0646 51.5712 20.0646C51.875 20.0646 52.1788 19.988 52.4826 19.988C52.4826 20.0646 52.5585 20.2178 52.5585 20.2943C52.7104 20.7538 52.8623 21.2898 53.1661 21.8258C53.4698 22.2852 53.8496 22.6681 54.3052 22.9744L53.7736 22.8978C53.4698 24.8887 52.6345 26.7264 51.2674 28.1813C51.2674 28.0282 51.1915 27.875 51.1156 27.7219L51.1915 27.6453C51.1156 27.6453 51.1156 27.5687 51.0396 27.5687C50.8118 27.339 50.5839 27.339 50.3561 27.4156L50.4321 27.5687C50.0523 27.6453 49.7486 27.875 49.5967 28.2579C49.5207 28.411 49.5207 28.5642 49.5967 28.7173C49.5967 28.7939 49.6726 28.8705 49.7486 28.8705C48.2297 29.7128 46.331 29.6362 44.8881 28.7173L44.5843 29.1768C45.4197 29.7128 46.4829 30.0191 47.4702 30.0191C47.6221 30.0191 47.698 30.0191 47.8499 30.0191C46.8627 31.5505 45.8754 33.1586 45.04 34.8432C44.8881 35.1494 44.7362 35.4557 44.5843 35.8386C43.9008 34.3071 42.4579 33.1586 40.939 32.1631L40.6352 32.6225C42.306 33.7711 43.9008 34.9963 44.3565 36.7575C44.2805 37.2169 44.2805 37.7529 44.4324 38.2123C44.3565 38.8249 44.2805 39.4375 44.1286 40.0501C43.9767 40.8924 43.7489 41.7347 43.7489 42.577C43.7489 43.2662 43.9008 43.8787 43.9768 44.4913C44.0527 44.8742 44.1286 45.257 44.1286 45.5633C44.2805 46.7119 44.1286 47.6308 43.597 48.2434L43.7489 48.32C43.1414 48.4731 42.6097 48.856 42.0781 49.2388C41.4706 49.6217 40.863 50.0811 40.1795 50.2343C39.1163 50.464 37.9771 49.7748 36.9898 49.0857C36.2304 48.6262 35.5469 48.0902 34.9393 47.4777C33.7242 46.1759 33.1167 44.2616 33.0407 41.6581C33.0407 40.8924 33.0407 40.0501 33.2685 39.2844C33.8002 37.7529 35.319 36.834 36.9139 35.9917L36.6861 35.5323C35.0153 36.4512 33.4204 37.4466 32.8129 39.1312C32.5091 39.9735 32.5091 40.8924 32.5091 41.7347C32.585 43.9553 33.0407 45.7165 33.952 47.0948H33.8002C33.7242 48.0137 32.3572 48.32 31.9775 48.3965C31.218 48.5497 30.3826 48.5497 29.6232 48.5497C29.1675 48.5497 28.484 48.4731 27.9524 48.1668C27.4208 47.9371 27.0411 47.4776 26.9651 47.0182C26.8892 46.7885 26.9651 46.4822 26.9651 46.2525C26.9651 45.8696 27.0411 45.4102 26.8132 45.0273C26.6614 44.721 26.4335 44.4147 26.2057 44.185C26.0538 44.0319 25.9019 43.8787 25.75 43.7256C25.4462 43.2662 25.4462 42.7301 25.4462 42.041V38.8249H25.2184C25.2943 38.6718 25.3703 38.4421 25.4462 38.2889C25.826 37.0638 25.9019 36.0683 25.6741 35.1494C26.2057 35.3792 26.8132 35.5323 27.4967 35.5323C27.7246 35.5323 27.8765 35.5323 28.1043 35.4557C29.3954 35.226 30.5345 34.4603 31.218 33.3117L31.294 33.4648C33.0407 32.6991 34.8634 32.01 36.6861 31.3974C36.6861 31.474 36.6861 31.6271 36.6861 31.7037C36.762 32.1631 37.1417 32.546 37.6733 32.8523C37.9771 33.0054 38.3568 33.082 38.7366 33.082C39.1922 33.082 39.6479 32.9288 40.0276 32.6991C40.2555 32.546 40.4073 32.3928 40.4833 32.2397C42.7616 31.5505 44.4324 29.4831 45.4956 28.0282C45.9513 27.4156 46.407 26.6499 46.407 25.8076C46.6348 25.8841 46.9386 25.8841 47.1664 25.8841C47.3943 25.8841 47.6221 25.8841 47.8499 25.8076C49.141 25.5779 50.2802 24.7355 50.8877 23.5104C51.6472 21.9789 51.4193 19.9115 50.2802 17.9971C49.5967 16.9251 48.7613 15.9297 47.9259 15.0108C47.5462 14.6279 47.1664 14.1685 46.7867 13.7091C46.6348 13.5559 46.5589 13.4028 46.407 13.2496C46.2551 13.0965 46.1032 12.9433 45.9513 12.7136C46.407 12.4073 47.0145 11.9479 47.3183 11.2587C47.698 10.2633 47.4702 9.26786 47.2424 8.27241C47.0145 7.43011 46.8627 6.58781 47.0905 5.82208L46.8627 5.74551C47.0905 5.66894 47.3183 5.59237 47.5462 5.43922C48.2297 5.05636 48.8372 4.3672 49.3688 3.44833C49.7486 2.75917 49.9004 1.76373 49.2929 1.38086C48.9891 1.15115 48.6094 1.15115 48.2297 1.22772C48.0778 1.22772 47.9259 1.22772 47.774 1.22772C47.6221 1.22772 47.3943 1.15115 47.2424 1.07457C47.1664 0.998001 47.0145 0.998001 46.9386 0.921428C45.7994 0.461992 44.3565 0.998001 43.673 2.07002L44.1286 2.37631C44.6603 1.53401 45.7994 1.15115 46.7108 1.45744C46.7867 1.45744 46.8627 1.53401 47.0145 1.53401C47.2424 1.61058 47.4702 1.68716 47.698 1.76373C47.9259 1.76373 48.0778 1.76373 48.3056 1.76373C48.6094 1.76373 48.8372 1.76373 48.9891 1.8403C49.3688 2.07002 49.141 2.75917 48.9132 3.21861C48.4575 4.06091 47.8499 4.67349 47.2424 4.97978C46.4829 5.43922 45.6475 5.43922 45.04 5.13293C44.964 5.13293 44.8881 5.05636 44.8121 5.05636C44.5084 4.90321 44.2046 4.75006 43.8249 4.75006C44.1286 4.29063 44.2805 3.67805 44.2046 3.06546C44.2046 2.91232 44.1286 2.75917 44.0527 2.6826C43.9008 2.45288 43.7489 2.37631 43.597 2.29974C43.3692 2.14659 43.1414 1.99345 42.9135 1.8403C42.5338 1.61058 42.1541 1.38086 41.7744 1.22772C40.939 0.844855 40.1795 0.768283 39.572 1.07457C38.9644 1.38086 38.5847 2.07002 38.5847 2.75917H39.1163C39.1163 2.29974 39.3441 1.76373 39.7998 1.61058C40.4833 1.30429 41.2427 1.61058 41.5465 1.76373C41.9262 1.91687 42.23 2.14659 42.5338 2.37631C42.7616 2.52946 42.9895 2.6826 43.2932 2.83575C43.3692 2.91232 43.5211 2.98889 43.597 3.06546C43.597 3.14204 43.673 3.21861 43.673 3.29518C43.7489 3.98434 43.5211 4.67349 43.0654 5.05636C42.6857 5.36265 42.1541 5.43922 41.7744 5.36265C41.0909 4.29063 40.1036 3.5249 38.9644 3.29518C37.6733 3.06546 36.3063 3.60147 35.6988 4.59692C35.6988 4.21406 35.6988 3.83119 35.5469 3.5249C35.4709 3.37176 35.4709 3.29518 35.319 3.14204C35.1672 2.91232 34.9393 2.91232 34.8634 2.91232C33.7242 2.75917 32.585 2.60603 31.4459 2.60603C31.3699 2.60603 31.294 2.60603 31.1421 2.6826C31.1421 2.37631 31.1421 2.14659 31.1421 1.8403C31.1421 1.61058 31.0661 1.30429 30.9143 1.07457C30.6864 0.768283 30.3826 0.69171 30.1548 0.538565C29.2435 0.155701 28.4081 -0.15059 27.4967 0.0791281C26.2816 0.461992 25.826 1.68716 25.5981 2.52946C24.9906 2.14659 24.1552 2.07002 23.4717 2.29974L23.6995 2.83575C24.3071 2.60603 24.9906 2.6826 25.5222 3.14204C25.3703 3.44833 25.2184 3.90776 25.2943 4.29063C25.1425 4.06091 24.9146 3.83119 24.6868 3.60147C24.0792 3.06546 23.3198 2.83575 22.7122 2.60603C21.5731 2.22316 20.206 1.91687 18.9909 2.45288C18.839 2.52946 18.6872 2.60603 18.6112 2.75917C18.4593 2.98889 18.5353 3.21861 18.5353 3.37176C18.6112 3.67805 18.6872 4.13748 18.839 4.59692C18.915 4.82664 18.915 5.05636 18.9909 5.2095C18.6872 5.36265 18.3074 5.43922 17.8518 5.36265L15.0418 5.28607C14.3583 5.28607 13.5229 5.2095 12.8394 5.51579C12.1559 5.74551 11.3965 6.43467 11.3965 7.35354C11.3965 8.42556 12.3078 9.19128 12.7635 9.57415C13.2191 9.95701 13.6748 10.3399 14.2824 10.5696C14.5102 10.6462 14.814 10.7227 15.0418 10.7227C15.4975 10.7227 15.8772 10.5696 16.181 10.3399C16.3329 10.1867 16.4088 10.1102 16.5607 9.95701C16.7126 9.80387 16.7885 9.65072 16.8645 9.57415C16.5607 10.2633 16.4848 10.9525 16.4088 11.565C16.4088 11.8713 16.4088 12.2542 16.4848 12.5605C14.4342 12.3308 12.3837 12.4073 10.3332 12.7902L10.4092 12.4073L9.87756 12.3308C8.89028 12.1776 7.82705 11.9479 6.76383 12.0245C5.77655 12.0245 4.3336 12.2542 3.19443 13.2496C2.1312 14.1685 1.67553 15.6234 2.05525 16.8486C2.35903 17.6909 3.04254 18.38 3.95387 18.6097C4.18171 18.6863 4.40954 18.6863 4.63738 18.6863C5.0171 18.6863 5.39682 18.6097 5.77655 18.4566C5.85249 18.6097 5.92844 18.7629 6.00438 18.916C6.30816 19.2989 6.68788 19.6817 7.06761 19.9115C7.06761 19.988 6.99166 19.988 6.99166 20.0646C5.24493 19.7583 3.57415 20.9069 2.28309 21.9789C1.52364 22.2852 1.06797 22.6681 0.764194 23.2041C0.156636 24.123 0.0806913 25.1184 0.00474655 26.1904C0.00474655 27.1859 -0.0711982 28.1813 0.38447 29.1768C0.764194 30.0956 1.67553 31.0145 2.8147 31.0145C3.72604 31.0145 4.40954 30.4785 5.09304 29.9425C5.16899 29.8659 5.32088 29.7894 5.39682 29.7128C6.46005 28.9471 7.67517 28.411 8.89028 28.1813C9.34595 28.1047 9.80162 28.0282 10.2573 27.9516C11.0167 27.875 11.7762 27.7219 12.5356 27.4922C12.5356 27.7219 12.6116 27.875 12.6875 28.1048C9.95351 28.6408 7.44733 30.0956 5.62466 32.2397C4.63738 33.5414 4.02982 34.7666 3.80198 35.9152C3.57415 37.37 4.02982 38.9015 4.94115 39.7438C5.39682 40.2032 6.00438 40.5095 6.536 40.7393L8.81434 41.8878C9.49784 42.1941 10.2573 42.577 11.0927 42.6536C11.1686 42.6536 11.1686 42.6536 11.2446 42.6536C11.7002 42.6536 12.2319 42.5004 12.6875 42.2707C12.9154 43.4959 13.447 44.7976 14.5861 45.5633C15.4975 46.1759 16.6366 46.2525 17.6239 46.2525C17.8518 46.2525 18.1555 46.2525 18.3834 46.2525L21.5731 46.1759C21.9528 46.1759 22.4084 46.1759 22.7882 45.9462C23.4717 45.6399 23.9273 44.8742 24.0792 43.9553C24.1552 43.5724 24.1552 43.113 24.1552 42.7301C24.1552 42.4239 24.1552 42.041 24.1552 41.7347C24.2311 41.0455 24.459 40.3564 24.6868 39.6672V42.041C24.6868 42.6536 24.6868 43.4193 25.1425 44.0319C25.2943 44.2616 25.4462 44.4147 25.6741 44.5679C25.9019 44.7976 26.0538 44.9508 26.2057 45.1805C26.3576 45.4868 26.2816 45.7931 26.2816 46.1759C26.2816 46.4822 26.2057 46.7885 26.2816 47.0948C26.4335 47.7074 26.8892 48.32 27.5727 48.7028C28.1802 49.0091 28.9397 49.0857 29.4713 49.1623C29.6991 49.1623 29.851 49.1623 30.0789 49.1623C30.6864 49.1623 31.3699 49.0857 31.9775 49.0091C33.1167 48.7794 33.952 48.32 34.1799 47.5542C34.3318 47.7074 34.4077 47.8605 34.5596 48.0137C35.1672 48.7028 36.0026 49.2388 36.762 49.6983C37.7493 50.3108 38.7366 51 39.8757 51C40.0276 51 40.1795 51 40.4073 50.9234C41.1668 50.7703 41.8503 50.3108 42.5338 49.8514C43.2932 49.3154 44.0527 48.7794 44.8881 48.9325L44.964 48.3965C44.8121 48.3965 44.5843 48.3965 44.4324 48.3965C44.8121 47.7074 45.04 46.7119 44.8881 45.5633C44.8881 45.3336 44.8121 45.0273 44.7362 44.7976C45.6475 45.6399 46.407 46.6354 46.7867 47.8605C46.8627 48.0137 46.8627 48.0902 46.9386 48.2434C47.0905 48.7028 47.2424 49.1623 47.5462 49.6217C48.1537 50.3874 49.065 50.6937 49.9004 50.6937C50.0523 50.6937 50.2802 50.6937 50.4321 50.6937C51.4953 50.5406 52.4066 50.0046 53.242 49.6217C54.3052 49.0857 55.5204 48.3965 56.2798 47.3245C56.8114 46.6354 57.1152 45.7165 57.0392 44.8742C57.4949 45.0273 57.9506 45.3336 58.2544 45.6399C58.9379 46.1759 59.6973 46.7119 60.5327 46.7119C60.7605 46.7119 60.9884 46.7119 61.1403 46.5588C61.444 46.4056 61.7478 46.1759 61.9757 46.0228C62.2794 45.7931 62.5073 45.5633 62.811 45.4868C62.9629 45.4868 63.1908 45.4868 63.3427 45.4868C63.4946 45.4868 63.5705 45.4868 63.7224 45.4868C65.2413 45.4868 66.3045 44.0319 66.7602 42.8833C67.4437 40.8924 67.2158 38.8249 66.3045 37.0638C66.7602 36.4512 67.064 35.6089 67.1399 34.69C67.2158 33.618 67.064 32.546 66.8361 31.7037C66.6083 30.6316 66.1526 29.3299 65.3172 28.3345C65.4691 28.411 65.621 28.4876 65.7729 28.5642C66.7602 29.1768 67.5196 30.1722 68.355 31.0911C69.4942 32.4694 70.7093 33.9243 72.532 34.3071C72.8358 34.3837 73.0636 34.3837 73.3674 34.3837C74.2787 34.3837 75.19 34.0774 75.9495 33.5414C77.0887 32.7757 77.8481 31.5505 78 30.2488C77.8481 29.3299 77.7722 28.6408 77.5443 28.1048ZM27.4208 19.9115C27.2689 20.2943 26.8892 20.524 26.5854 20.524C26.4335 20.524 26.2057 20.4475 26.1297 20.2943C26.0538 20.1412 25.9778 20.0646 25.9778 19.9115C25.9778 19.7583 26.0538 19.6052 26.2057 19.5286C26.2816 19.5286 26.3576 19.452 26.4335 19.452C26.5095 19.452 26.5095 19.452 26.5854 19.5286L26.7373 19.2989C26.9651 19.3755 27.117 19.452 27.3449 19.5286C27.4208 19.5286 27.4967 19.6052 27.4967 19.6052C27.4967 19.6817 27.4967 19.8349 27.4208 19.9115ZM27.8765 20.2178C27.8765 20.1412 27.9524 20.1412 27.9524 20.0646C28.0284 20.1412 28.1802 20.2178 28.2562 20.2178C28.9397 20.4475 29.6232 20.6006 30.3826 20.6006C31.4459 20.6006 32.5091 20.2943 33.4204 19.8349C33.1926 20.7538 33.1926 21.8258 33.7242 22.6681C33.6483 23.2041 33.3445 23.6635 32.8129 23.9698C32.2813 24.3527 31.7496 24.4293 31.218 24.3527L31.1421 24.8121C30.5345 23.1275 29.0916 21.9024 27.5727 20.6772C27.6486 20.524 27.8005 20.3709 27.8765 20.2178ZM28.3321 19.3755L29.4713 18.0737L29.1675 17.844C29.3194 17.6909 29.4713 17.5377 29.6991 17.3846H29.7751C29.7751 17.308 29.7751 17.308 29.7751 17.2314C30.6864 16.5423 31.7496 16.0828 32.4332 15.9297C32.9648 15.7765 33.6483 15.6234 34.3318 15.7C34.9393 15.7765 35.5469 16.1594 35.7747 16.6188C35.1672 17.0783 34.6355 17.5377 34.1799 18.1503C33.8002 18.6097 33.5723 19.1457 33.4204 19.7583L33.1926 19.3755C31.7496 20.2178 30.0029 20.3709 28.4081 19.7583C28.2562 19.6817 28.1802 19.6052 28.1802 19.6052C28.2562 19.5286 28.3321 19.3755 28.3321 19.3755ZM33.6483 7.88955C33.6483 7.81297 33.6483 7.81297 33.6483 7.7364C33.6483 7.50668 33.8002 7.35354 34.028 7.12382L34.3318 7.35354C34.7115 6.97067 35.2431 6.97067 35.9266 7.04725C36.5342 7.12382 37.0658 7.12382 37.5974 6.8941C37.5215 7.43011 37.5974 7.96612 37.7493 8.5787C37.8252 8.88499 37.9771 9.11471 38.129 9.421L37.6733 9.26786C37.4455 10.1102 36.3823 10.493 35.5469 10.3399C34.7874 10.1867 34.028 9.49757 33.5723 8.50213L33.3445 8.5787L33.2685 8.50213C33.3445 8.50213 33.4204 8.42556 33.4964 8.34898C33.6483 8.34898 33.6483 8.04269 33.6483 7.88955ZM38.205 6.51124C38.2809 6.43467 38.3568 6.35809 38.4328 6.28152C38.5847 6.12837 38.6606 6.0518 38.7366 5.97523C39.1922 5.59237 39.8757 5.51579 40.4073 5.74551C40.863 5.97523 41.1668 6.43467 41.3946 6.81753L42.306 8.11927C42.306 8.19584 42.3819 8.19584 42.3819 8.27241C42.3819 8.42556 42.3819 8.50213 42.3819 8.65527H42.6097C42.9135 9.03814 43.1414 9.49757 43.2173 9.95701C43.2933 10.5696 43.1414 11.1822 42.6857 11.6416C42.23 12.101 41.6225 12.2542 41.0909 12.101C40.3314 11.9479 39.7238 11.1822 39.1922 10.4164C38.8125 9.80387 38.3568 9.19128 38.129 8.5787C37.9771 7.7364 37.9771 7.04725 38.205 6.51124ZM35.395 10.9525C35.5469 11.029 35.7747 11.029 35.9266 11.029C36.8379 11.029 37.8252 10.493 38.129 9.57415C38.3568 9.95701 38.5847 10.3399 38.8125 10.6462C39.4201 11.4885 40.0276 12.3308 41.0149 12.5605C41.1668 12.6371 41.3187 12.6371 41.4706 12.6371C42.0022 12.6371 42.4579 12.4839 42.9135 12.1776C42.9135 12.3308 42.9895 12.4839 43.0654 12.6371C43.0654 12.6371 43.0654 12.6371 43.0654 12.7136L42.9135 12.7902C43.3692 13.7091 42.9135 14.7811 42.5338 15.8531C42.3819 16.1594 42.306 16.5423 42.1541 16.8486C41.9262 17.5377 41.8503 18.3034 41.6984 19.0692C41.6225 19.5286 41.5465 20.0646 41.4706 20.524C41.2427 21.5195 40.7871 22.8212 39.7238 23.4338C39.2682 23.7401 38.7366 23.8932 37.9771 23.9698C37.2177 24.0464 35.319 24.123 34.3318 22.8212C33.3445 21.5961 33.7242 19.6817 34.6355 18.5332C35.5469 17.308 36.9139 16.5423 38.205 15.8531C38.3568 15.7765 38.4328 15.7765 38.5847 15.7L41.4706 14.1685L41.2427 13.7091L38.3568 15.2405C38.2809 15.3171 38.205 15.3171 38.129 15.3937C37.6733 15.5468 37.2177 15.4702 36.8379 15.164C36.3823 14.8577 36.1544 14.2451 36.2304 13.7091L35.8507 13.6325C36.0785 13.4794 36.3063 13.3262 36.4582 13.2496C36.8379 12.9433 37.2177 12.6371 37.4455 12.2542C37.7493 11.7182 37.7493 11.1056 37.5215 10.6462L37.0658 10.9525C37.2177 11.2587 37.1417 11.6416 36.9898 11.9479C36.762 12.3308 36.4582 12.5605 36.0785 12.7902C35.2431 13.4028 34.6355 13.6325 34.1799 13.4794C34.3318 13.1731 34.3318 12.7902 34.3318 12.4073C34.3318 11.7182 34.2558 11.029 34.1039 10.4164C34.5596 10.6462 34.9393 10.8759 35.395 10.9525ZM39.3441 27.4922C39.3441 27.7219 39.3441 27.9516 39.2682 28.1813C39.2682 28.5642 39.1922 29.0236 39.1163 29.3299C38.8885 29.3299 38.6606 29.3299 38.4328 29.4065L38.5847 29.8659C38.5087 29.8659 38.3568 29.7894 38.2809 29.8659C38.205 29.8659 38.205 29.8659 38.129 29.8659C38.6606 28.0282 38.4328 26.1139 37.6733 24.4293L37.2177 24.659C38.0531 26.3436 38.129 28.2579 37.5974 30.0191C37.3696 30.0956 37.2177 30.1722 37.0658 30.3254C36.9139 30.4785 36.762 30.6317 36.6861 30.7848C34.4837 30.4785 32.5091 28.947 31.6737 26.8796H31.5978C31.5218 26.3436 31.5218 25.8076 31.3699 25.2716C31.294 25.1184 31.294 24.9653 31.218 24.8121C31.3699 24.8121 31.5218 24.8887 31.6737 24.8887C32.2053 24.8887 32.7369 24.7355 33.1926 24.3527C33.6483 24.0464 33.952 23.587 34.1799 23.1275C34.9393 23.8932 36.0785 24.3527 37.4455 24.3527C37.6733 24.3527 37.9012 24.3527 38.205 24.3527C39.0403 24.2761 39.7238 24.0464 40.1795 23.7401C41.1668 23.1275 41.8503 22.0555 42.1541 20.4475C42.23 20.2178 42.23 20.0646 42.23 19.8349C42.23 19.9115 42.23 19.988 42.306 20.1412C42.4579 21.0601 42.6097 22.0555 42.9895 22.8978C41.0149 23.6635 39.572 25.5013 39.3441 27.4922ZM33.952 13.7856C34.1799 13.8622 34.3318 13.9388 34.5596 13.9388C34.9393 13.9388 35.395 13.7856 35.6988 13.6325C35.6228 14.3217 35.9266 15.0874 36.5342 15.5468C36.6861 15.7 36.9139 15.7765 37.1417 15.8531C36.9139 16.0063 36.6101 16.1594 36.3823 16.3125C36.0026 15.7 35.395 15.3171 34.5596 15.164C33.8002 15.0874 32.9648 15.2405 32.4332 15.3937C31.5978 15.6234 30.7624 16.0063 30.1548 16.4657C30.3067 15.5468 30.3067 14.6279 30.0789 13.7091C30.4586 13.8622 30.7624 14.0154 31.1421 14.1685C31.5978 14.3217 32.0534 14.4748 32.585 14.4748H32.661C33.1926 14.3982 33.6483 14.1685 33.952 13.7856ZM31.3699 32.3928C31.5978 31.5505 31.6737 30.7082 31.5978 29.9425C31.5978 29.3299 31.5218 28.6408 31.5218 28.0282C32.4332 29.5596 33.8761 30.6317 35.5469 31.1677C34.1799 31.6271 32.661 32.1631 31.294 32.7757C31.294 32.6225 31.3699 32.546 31.3699 32.3928ZM39.496 32.2397C38.9644 32.546 38.2809 32.6225 37.6733 32.3162C37.2936 32.1631 37.0658 31.8568 36.9898 31.5505C36.9898 31.474 36.9898 31.3974 36.9898 31.3208V31.2442C37.0658 31.0145 37.1417 30.8614 37.2936 30.7082C37.5214 30.4785 37.9012 30.4019 38.2809 30.3254C38.3568 30.3254 38.3568 30.3254 38.4328 30.4019C38.4328 30.4019 38.3568 30.2488 38.4328 30.1722L38.8125 30.5551C38.8885 30.4019 38.9644 30.2488 38.8885 30.0956C38.8125 30.0191 38.7366 29.9425 38.6606 29.8659C38.8885 29.7894 39.1163 29.7893 39.3441 29.9425C39.6479 30.0956 39.8757 30.3254 39.9517 30.5551C40.2555 31.1677 40.0276 31.8568 39.496 32.2397ZM45.6475 25.731C45.6475 26.4201 45.1919 27.1093 44.8121 27.7219C43.9008 29.0236 42.4579 30.7848 40.5592 31.5505C40.6352 31.1677 40.6352 30.8614 40.4833 30.4785C40.3314 30.0956 40.0276 29.7128 39.6479 29.5596C39.7998 29.1002 39.7998 28.7173 39.7998 28.2579C39.7998 28.0282 39.7998 27.875 39.8757 27.6453C40.1036 25.8076 41.3946 24.1995 43.0654 23.587H43.1414C43.3692 24.0464 43.673 24.4293 43.9768 24.8121C44.5084 25.3481 45.1159 25.6544 45.7994 25.8076L45.6475 25.731ZM46.1791 14.0919C46.5589 14.5514 46.9386 14.9342 47.3183 15.3937C48.1537 16.3125 48.9891 17.2314 49.5967 18.3034C50.6599 20.0646 50.8877 21.9024 50.2042 23.2807C49.6726 24.3527 48.6853 25.0418 47.6221 25.2716C46.4829 25.5013 45.2678 25.1184 44.5084 24.2761C44.1286 23.8932 43.9008 23.5104 43.673 23.0509C43.673 22.9744 43.597 22.8978 43.597 22.8212C43.2173 21.9789 43.0654 20.9835 42.9135 20.1412C42.8376 19.6052 42.7616 19.0692 42.8376 18.6097H42.5338C42.6097 18.0737 42.6857 17.4611 42.8376 16.9251C42.9135 16.6188 43.0654 16.3125 43.1414 16.0063C43.5211 15.0108 43.8249 14.0154 43.673 13.0965C43.7489 13.1731 43.8249 13.1731 43.9768 13.2496C44.1286 13.3262 44.2805 13.3262 44.4324 13.3262C44.7362 13.3262 45.04 13.2496 45.2678 13.1731C45.4197 13.4028 45.6475 13.5559 45.7994 13.7856C45.8754 13.7856 46.0273 13.9388 46.1791 14.0919ZM45.8754 5.97523C46.0273 5.97523 46.2551 5.97523 46.407 5.89866C46.2551 6.74096 46.407 7.58326 46.5589 8.42556C46.7867 9.34443 46.9386 10.2633 46.6348 11.029C46.407 11.4885 46.0273 11.9479 45.4956 12.2542H45.4197L45.3438 12.3308C44.964 12.4839 44.5084 12.7136 44.0527 12.5605C43.8249 12.4839 43.673 12.3308 43.5211 12.1776C43.4451 12.101 43.3692 11.8713 43.4451 11.6416H43.3692C43.7489 11.1056 43.9008 10.4164 43.8249 9.80387C43.7489 9.11471 43.3692 8.5787 42.9895 8.11927C43.1414 7.12382 43.8249 6.20495 44.7362 5.82208C45.1159 5.89866 45.4956 5.97523 45.8754 5.97523ZM43.3692 5.36265C43.5211 5.28607 43.597 5.13293 43.673 4.97978L43.8249 5.36265C43.9768 5.28607 44.0527 5.36265 44.2046 5.43922C43.4451 5.89866 42.9135 6.66438 42.6097 7.50668L41.8503 6.51124C41.6225 6.20495 41.3946 5.89866 41.0149 5.59237C41.0909 5.66894 41.1668 5.66894 41.2427 5.74551C41.4706 5.82208 41.6984 5.89866 42.0022 5.89866C42.5338 5.82208 42.9895 5.66894 43.3692 5.36265ZM36.0785 4.82664C36.6101 3.98434 37.7493 3.5249 38.8125 3.75462C39.7238 3.90776 40.4833 4.52035 41.0909 5.36265L41.0149 5.51579C40.939 5.43922 40.7871 5.36265 40.7111 5.28607C39.9517 4.90321 39.0403 4.97978 38.4328 5.59237C38.3568 5.66894 38.205 5.82208 38.129 5.89866C37.9771 6.0518 37.8252 6.28152 37.5974 6.35809C37.2936 6.51124 36.8379 6.35809 36.6101 6.12837C36.3063 5.82208 36.1544 5.43922 36.0026 5.05636L35.4709 5.2095C35.5469 5.05636 35.5469 4.82664 35.5469 4.67349L36.0785 4.82664ZM35.5469 5.2095C35.6988 5.66894 35.9266 6.12837 36.3063 6.51124C36.3823 6.58781 36.4582 6.58781 36.5342 6.66438C36.3823 6.66438 36.1544 6.66438 36.0026 6.66438C35.5469 6.66438 35.1672 6.58781 34.7115 6.66438C35.0912 6.20495 35.395 5.74551 35.5469 5.2095ZM31.294 2.83575H31.3699C31.4459 2.91232 31.4459 2.98889 31.4459 3.06546L31.1421 2.98889V2.91232C31.1421 2.91232 31.218 2.83575 31.294 2.83575ZM31.0661 3.37176C31.218 3.44833 31.4459 3.44833 31.5218 3.29518L31.3699 3.21861C31.3699 3.21861 31.3699 3.21861 31.4459 3.21861C32.585 3.21861 33.6483 3.29518 34.7874 3.5249C34.8634 3.5249 34.9393 3.5249 34.9393 3.60147C34.9393 3.60147 34.9393 3.67805 35.0153 3.75462C35.319 4.67349 35.0153 5.74551 34.3318 6.35809C34.2558 6.43467 34.1039 6.51124 34.028 6.58781C33.6483 6.8941 33.1167 7.27697 33.1167 7.88955C33.1167 7.96612 33.1167 7.96612 33.1167 8.04269C33.1167 8.11927 33.1167 8.27241 33.1167 8.27241C33.1167 8.27241 33.0407 8.27241 32.8129 8.19584C32.1294 7.88955 31.5218 7.50668 30.9902 6.97067C30.7624 6.74096 30.1548 5.97523 30.4586 5.28607L30.3067 5.2095C30.6864 4.59692 30.9143 3.98434 31.0661 3.37176ZM27.5727 0.615137C28.2562 0.385419 29.0916 0.69171 29.851 1.07457C30.0789 1.15115 30.3067 1.22772 30.3826 1.38086C30.4586 1.53401 30.5345 1.68716 30.5345 1.91687C30.6864 3.37176 30.0789 5.2095 28.56 5.89866C27.7246 6.28152 26.6614 6.12837 26.1297 5.59237C25.5222 4.97978 25.4462 3.90776 25.9778 3.29518L25.6741 2.91232L25.826 2.75917L26.0538 2.83575C26.1297 2.29974 26.5854 0.921428 27.5727 0.615137ZM18.915 3.06546C18.915 3.06546 18.9909 2.98889 19.0669 2.98889C20.1301 2.52946 21.3452 2.83575 22.4084 3.14204C23.016 3.29518 23.6995 3.60147 24.2311 3.98434C24.9146 4.59692 25.2943 5.51579 25.5981 6.35809C25.5981 6.43467 25.6741 6.58781 25.6741 6.58781C25.6741 6.58781 25.5981 6.66438 25.3703 6.66438C24.6868 6.66438 24.0033 6.58781 23.3198 6.43467C22.7122 6.28152 22.0287 6.20495 21.3452 6.20495C21.3452 6.20495 21.3452 6.20495 21.2693 6.20495C21.1933 6.20495 21.0414 6.20495 20.9655 6.20495C20.5098 6.20495 19.9782 6.20495 19.5985 6.0518L19.5225 5.59237C19.4466 5.28607 19.3707 4.82664 19.2188 4.3672C19.1428 4.06091 18.9909 3.60147 18.9909 3.29518C18.915 3.21861 18.915 3.06546 18.915 3.06546ZM18.7631 8.27241L18.915 8.50213C19.2188 8.27241 19.5985 8.34898 19.8263 8.42556C20.282 8.5787 20.6617 8.88499 20.8896 9.26786C21.1933 9.88044 21.1933 10.7993 20.8896 11.7948C20.6617 12.5605 20.282 13.0965 19.9023 13.3262C19.2947 13.6325 18.6112 13.4794 17.8518 13.2496C17.6239 13.1731 17.3201 13.0965 17.0923 12.9433C16.7126 12.5605 16.7126 12.0245 16.7126 11.565C16.7885 10.9525 16.8645 10.2633 17.1683 9.65072C17.472 9.03814 18.0037 8.65527 18.5353 8.5787C18.6112 8.5787 18.6872 8.5787 18.7631 8.5787V8.27241ZM3.87793 17.9971C3.19443 17.844 2.58687 17.2314 2.35903 16.6188C1.97931 15.6234 2.43498 14.3982 3.27037 13.6325C4.25765 12.7902 5.54871 12.5605 6.46005 12.5605C7.44733 12.5605 8.51056 12.7136 9.49784 12.8668H9.72567C9.34595 12.9433 8.89028 13.0199 8.51056 13.0965C7.75111 13.2496 6.99166 13.5559 6.3841 14.0154C5.32088 14.9342 4.94115 16.5423 5.32088 17.844C4.86521 18.0737 4.3336 18.1503 3.87793 17.9971ZM15.6494 16.6954C15.4975 16.772 15.4215 16.9251 15.2696 17.0017C14.814 17.3846 14.2064 17.6143 13.6748 17.9206C13.371 18.0737 13.0672 18.1503 12.7635 18.3034C12.4597 18.4566 12.1559 18.6863 11.8521 18.8394C11.3205 19.1457 10.7889 19.452 10.2573 19.6817C8.81434 20.1412 7.14355 19.6052 6.30816 18.4566C6.15627 18.38 6.08033 18.2269 6.00438 18.0737C6.08033 17.9971 6.15627 17.9971 6.23222 17.9206L5.85249 17.5377C5.85249 17.5377 5.85249 17.5377 5.77655 17.5377C5.47277 16.4657 5.77655 15.164 6.68788 14.4748C7.2195 14.0154 7.903 13.8622 8.5865 13.6325C11.0927 13.0199 13.6748 12.7902 16.2569 13.0965V12.7902C16.3329 12.9433 16.4088 13.0965 16.5607 13.1731C16.8645 13.4794 17.2442 13.5559 17.548 13.6325C18.0037 13.7856 18.5353 13.8622 18.9909 13.8622H19.0669L18.9909 13.9388C19.4466 14.7811 20.206 15.5468 21.1174 16.0063C21.3452 16.1594 21.649 16.236 22.0287 16.3125C22.8641 17.0783 23.6236 18.0737 24.0792 19.2223C24.0792 19.2989 24.1552 19.3755 24.1552 19.452C21.0414 19.1457 18.2315 20.2178 16.2569 21.2898C15.2696 21.8258 14.0545 22.5915 13.2191 23.8167C13.1432 23.9698 13.0672 24.0464 12.9913 24.1995L10.713 24.9653C10.4092 25.0418 10.0295 25.195 9.64973 25.2716C8.43461 25.4247 7.2195 24.659 6.68788 23.5104C6.23222 22.4384 6.46005 20.9835 7.2195 19.988L7.14355 19.9115C7.67517 20.1412 8.28272 20.2943 8.96623 20.2943C9.4219 20.2943 9.80162 20.2178 10.2573 20.0646C10.8648 19.8349 11.4724 19.5286 12.004 19.1457C12.3078 18.9926 12.6116 18.7629 12.9154 18.6097C13.2191 18.4566 13.447 18.3034 13.7507 18.2269C14.3583 17.9971 14.9659 17.6909 15.4975 17.2314C15.6494 17.1548 15.7253 17.0017 15.8772 16.9251C16.4088 16.4657 16.9404 16.0063 17.472 16.1594L17.6239 15.6234C16.9404 15.6234 16.2569 16.1594 15.6494 16.6954ZM10.2573 27.4922C9.80162 27.5687 9.34595 27.5687 8.89028 27.7219C7.52328 27.9516 6.23222 28.5642 5.16899 29.3299C5.0171 29.4065 4.94115 29.4831 4.78927 29.5596C4.10576 30.0191 3.4982 30.4785 2.73876 30.4785C1.82742 30.4785 1.14392 29.7128 0.840139 28.9471C0.460415 28.1047 0.53636 27.1093 0.53636 26.1904C0.612305 25.2716 0.688249 24.2761 1.14392 23.5104C1.4477 23.0509 1.82742 22.6681 2.35903 22.2852C3.4982 21.3663 4.94115 20.2943 6.3841 20.4475C5.85249 21.5195 5.77655 22.7447 6.23222 23.8167C6.83977 25.0418 8.13083 25.8841 9.4219 25.8841C9.57378 25.8841 9.64973 25.8841 9.80162 25.8841C10.1813 25.8076 10.5611 25.731 10.9408 25.5778L12.7635 24.9653C12.5356 25.6544 12.4597 26.3436 12.4597 27.0327C11.7762 27.2624 11.0167 27.4156 10.2573 27.4922ZM13.0672 26.9562C12.9913 26.0373 13.2191 25.0418 13.7507 24.2761C14.5102 23.2041 15.6494 22.4384 16.5607 21.9024C18.4593 20.8303 21.2693 19.7583 24.3071 20.1412L24.383 20.2943C24.459 20.2943 24.5349 20.2178 24.6108 20.1412C24.6868 20.1412 24.7627 20.1412 24.8387 20.1412L24.9146 19.6052C24.8387 19.6052 24.8387 19.6052 24.7627 19.6052C24.7627 19.3755 24.6868 19.1457 24.6868 19.0692C24.3071 18.1503 23.6995 17.2314 23.016 16.4657C23.1679 16.4657 23.3957 16.4657 23.5476 16.3891C24.0033 16.3125 24.383 16.0063 24.6868 15.7C24.8387 16.1594 24.9906 16.6188 25.2184 17.0783C25.6741 17.9971 26.3576 18.6097 27.193 18.8394L27.3449 18.3034C26.7373 18.1503 26.1297 17.6143 25.75 16.8486C25.4462 16.3125 25.2943 15.6234 25.1425 15.0108C25.1425 14.9342 25.2184 14.8577 25.2184 14.7811H25.1425C25.1425 14.7045 25.1425 14.6279 25.0665 14.5514L24.3071 11.7948L23.7755 11.9479L24.383 14.7045C24.383 14.7811 24.459 14.9342 24.459 15.0108C24.3071 15.4702 23.9273 15.8531 23.3957 15.9297C22.7122 16.0828 22.0287 15.8531 21.4971 15.6234C20.7377 15.2405 20.1301 14.6279 19.6744 13.9388C19.8263 13.9388 19.9782 13.8622 20.1301 13.7856C20.7377 13.4794 21.1174 12.8668 21.4212 11.9479C21.8009 10.7993 21.8009 9.80387 21.3452 9.03814C21.0414 8.50213 20.5858 8.11927 19.9782 7.88955C19.5225 7.7364 18.9909 7.81297 18.6112 8.04269C18.5353 8.04269 18.5353 8.04269 18.4593 8.04269C17.7758 8.11927 17.1683 8.5787 16.7885 9.19128L16.7126 8.88499C16.2569 8.96157 16.0291 9.26786 15.8013 9.49757C15.7253 9.65072 15.6494 9.72729 15.4975 9.80387C15.1937 10.1102 14.6621 10.1102 14.1305 9.95701C13.6748 9.80387 13.2191 9.421 12.8394 9.11471C12.2319 8.65527 11.6243 8.04269 11.6243 7.35354C11.6243 6.74096 12.2318 6.20495 12.7635 6.0518C13.371 5.82208 14.1305 5.82208 14.738 5.89866L17.6999 5.97523C18.0796 5.97523 18.3834 5.97523 18.7631 5.89866C18.7631 5.97523 18.839 6.12837 18.915 6.20495C19.0669 6.43467 19.3707 6.58781 19.5985 6.66438L19.8263 6.97067L19.7504 6.74096C20.1301 6.81753 20.5858 6.81753 20.9655 6.81753C21.0414 6.81753 21.1933 6.81753 21.2693 6.81753C21.8768 6.81753 22.5603 6.97067 23.1679 7.04725C23.7755 7.20039 24.459 7.27697 25.1425 7.27697C25.2184 7.27697 25.2943 7.27697 25.2943 7.27697C25.6741 7.27697 25.9019 7.12382 26.0538 6.8941C26.2057 6.66438 26.0538 6.35809 26.0538 6.20495C26.0538 6.12837 25.9778 6.12837 25.9778 6.0518C26.4335 6.35809 26.9651 6.58781 27.5727 6.58781C27.9524 6.58781 28.4081 6.51124 28.7878 6.35809C29.1675 6.20495 29.4713 5.97523 29.7751 5.66894C29.851 6.35809 30.3067 6.8941 30.5345 7.20039C29.6232 6.8941 28.7119 6.81753 27.8765 7.27697L28.1802 7.7364C29.2435 7.12382 30.6864 7.7364 31.9015 8.42556C32.2053 8.5787 32.585 8.80842 32.8129 9.03814C33.6483 9.80387 33.8002 11.1056 33.8002 12.3308C33.8002 12.7136 33.8002 13.0965 33.6483 13.3262C33.4204 13.7091 32.9648 13.8622 32.585 13.8622C32.1294 13.8622 31.6737 13.7091 31.218 13.5559C30.0789 13.0965 28.9397 12.5605 27.8765 11.9479L27.7246 11.8713C27.0411 11.4885 26.3576 11.029 25.5981 11.029C25.2184 11.029 24.8387 11.1056 24.459 11.1822C23.8514 11.3353 23.3198 11.4119 22.9401 11.1822C22.4844 10.8759 22.5603 10.1102 22.8641 9.65072C23.2438 9.11471 23.9273 8.80842 24.5349 8.65527C25.6741 8.27241 26.8132 8.04269 28.0284 7.96612V7.43011C26.8132 7.50668 25.5981 7.7364 24.459 8.11927C23.7754 8.34898 23.016 8.65527 22.5603 9.34443C22.1047 10.0336 22.0287 11.1056 22.7122 11.6416C23.3198 12.101 24.0033 11.9479 24.6868 11.7948C24.9906 11.7182 25.3703 11.6416 25.6741 11.6416C26.3576 11.6416 26.9651 12.0245 27.4967 12.4073L27.6486 12.4839C28.2562 12.8668 28.9397 13.2496 29.5473 13.5559H29.4713C29.7751 14.7045 29.7751 15.8531 29.4713 17.0017C28.8637 17.5377 28.3321 18.1503 28.0284 18.8394L28.1802 18.916L27.9524 18.9926C27.8765 19.0692 27.8765 19.1457 27.8005 19.2223C27.7246 19.1457 27.6486 19.0692 27.5727 19.0692C27.193 18.916 26.8132 18.7629 26.4335 18.6097L26.2057 18.9926C26.1297 18.9926 26.0538 19.0692 25.9019 19.0692C25.5981 19.2223 25.3703 19.5286 25.3703 19.9115C25.3703 20.2178 25.4462 20.4475 25.6741 20.6772C25.9019 20.9069 26.2057 21.0601 26.5095 21.0601C26.5095 21.0601 26.5095 21.0601 26.5854 21.0601C26.7373 21.0601 26.8892 20.9835 27.0411 20.9835C28.7119 22.2852 30.3067 23.587 30.7624 25.4247C30.9143 25.9607 30.9902 26.5733 30.9902 27.1093C31.0661 28.0282 31.0661 29.0236 31.0661 29.9425C31.0661 30.7082 31.0661 31.5505 30.8383 32.2397C30.3826 33.618 29.1675 34.69 27.7246 34.8432C26.2816 35.0729 24.8387 34.3837 24.0033 33.2351C23.6236 32.6991 23.3957 32.01 23.1679 31.1677C22.6363 28.5642 23.2438 25.731 24.8387 23.587L24.6108 23.4338C25.2184 22.4384 25.5222 21.2898 25.2943 20.2178L24.7627 20.2943C24.9146 21.2898 24.6108 22.4384 23.9273 23.4338C23.3198 24.2761 22.4844 24.9653 21.3452 25.6544C21.1933 25.731 20.9655 25.8841 20.8136 25.9607C20.0542 26.3436 19.3707 26.803 18.7631 27.4156C18.3834 27.7985 18.1555 28.2579 17.9277 28.7173C17.7758 28.9471 17.6999 29.1768 17.548 29.4065C17.2442 29.9425 16.7126 30.5551 15.9531 30.7082C15.1178 30.8614 14.3583 30.1722 14.0545 29.8659C13.447 29.1768 13.0672 28.3345 12.9154 27.4156C12.9913 27.4156 12.9913 27.4156 13.0672 27.339V26.9562ZM11.2446 42.1176C10.4851 42.041 9.80162 41.7347 9.19406 41.4284L6.91572 40.2798C6.38411 40.0501 5.85249 39.7438 5.39682 39.3609C4.56143 38.5952 4.18171 37.2935 4.40954 35.9917C4.56143 34.9197 5.16899 33.7711 6.08033 32.6991C7.82706 30.6317 10.3332 29.2533 12.9154 28.7173C13.1432 29.2533 13.447 29.7893 13.8267 30.1722C14.4342 30.8614 15.1937 31.2442 15.8772 31.2442C15.9531 31.2442 16.0291 31.2442 16.181 31.2442C16.7885 31.1677 17.3961 30.7082 17.9277 30.0191C17.7758 31.474 17.0923 32.9288 16.0291 33.9243C15.8013 34.154 15.5734 34.3071 15.3456 34.4603C15.0418 34.69 14.6621 34.9963 14.3583 35.3026C12.8394 36.834 12.6116 39.2078 12.6875 40.8924C12.6875 41.1221 12.6875 41.3518 12.7635 41.5816C12.3078 41.9644 11.7002 42.1176 11.2446 42.1176ZM24.383 38.9781C24.0792 39.8204 23.7755 40.6627 23.6236 41.5816C23.6236 41.9644 23.6236 42.2707 23.6236 42.6536C23.6236 43.0364 23.6236 43.4193 23.5476 43.8022C23.4717 44.5679 23.0919 45.1805 22.5603 45.4102C22.2566 45.5633 21.8768 45.5633 21.5731 45.5633L18.3834 45.6399C17.0164 45.6399 15.8772 45.6399 14.8899 45.0273C13.8267 44.3382 13.371 42.9599 13.2191 41.7347C13.2951 41.6581 13.371 41.5816 13.371 41.4284L13.1432 41.3518C13.1432 41.1987 13.1432 40.969 13.1432 40.8158C13.0672 39.2844 13.2951 37.0638 14.6621 35.6855C14.9659 35.3792 15.2696 35.1494 15.5734 34.9197C15.8013 34.7666 16.0291 34.5369 16.2569 34.3071C17.548 33.082 18.3834 31.3208 18.3834 29.5596H18.0796C18.2315 29.3299 18.3074 29.1768 18.3834 28.9471C18.6112 28.4876 18.839 28.1048 19.1428 27.7219C19.6744 27.1859 20.3579 26.803 21.0414 26.4202C21.1933 26.3436 21.4212 26.1904 21.5731 26.1139C22.3325 25.6544 22.9401 25.195 23.4717 24.7355C22.4844 26.7264 22.1047 29.1002 22.5603 31.3208C22.7122 32.2397 23.016 33.0054 23.4717 33.5414C23.7755 34.0009 24.1552 34.3071 24.5349 34.6134C24.9906 35.4557 24.9906 36.6043 24.5349 37.9826C24.6108 38.3655 24.459 38.6718 24.383 38.9781ZM68.6588 9.26786C69.3423 9.19128 70.1017 9.11471 70.7093 9.49757C70.9371 9.65072 71.165 9.95701 71.3928 10.2633C71.4688 10.3399 71.5447 10.493 71.6206 10.5696C72.0763 11.1822 72.6839 11.6416 73.2914 12.101C73.7471 12.4073 74.1268 12.7902 74.5065 13.0965C75.3419 13.9388 75.8735 15.2405 75.266 16.1594C74.9622 16.6188 74.4306 16.8486 73.9749 17.0783C72.0004 17.9206 69.798 18.0737 67.7475 17.4611C67.7475 17.3846 67.7475 17.308 67.6715 17.308C67.5196 16.6188 67.2918 15.8531 66.9121 15.164C66.2286 13.9388 65.0894 13.0965 64.0262 12.3308C63.5705 12.0245 63.1148 11.6416 62.6592 11.3353C64.5578 10.2633 66.5323 9.57415 68.6588 9.26786ZM63.7224 12.7902C64.7097 13.5559 65.8488 14.3217 66.4564 15.4702C66.8361 16.0828 66.988 16.772 67.1399 17.3846C67.064 17.3846 67.0639 17.3846 66.988 17.308L66.8361 17.7674C66.988 17.844 67.1399 17.844 67.2918 17.9206C67.3677 18.38 67.3677 18.8394 67.2158 19.2989C66.7602 20.2943 65.3932 20.6006 64.3299 20.6006C63.4186 20.6006 62.4313 20.6006 61.5959 20.0646C61.0643 19.7583 60.6846 19.2989 60.3049 18.7629C60.3049 18.6863 60.3049 18.5332 60.2289 18.4566L60.077 18.5332C60.0011 18.4566 60.0011 18.38 59.9251 18.3034C58.6341 16.3125 57.4949 14.1685 56.5836 12.0245C56.6595 11.9479 56.7355 11.8713 56.8114 11.7948C57.1152 11.4119 57.1911 10.8759 57.0392 10.4164C58.8619 10.4164 60.2289 10.7227 61.444 11.2587C62.2794 11.7182 63.0389 12.2542 63.7224 12.7902ZM56.4317 11.4885C56.2039 11.7948 55.976 11.9479 55.6722 11.9479C55.4444 11.9479 55.2166 11.8713 54.9128 11.7948C54.7609 11.7182 54.5331 11.6416 54.4571 11.4119C54.3052 11.1822 54.3812 10.7993 54.609 10.5696C54.8368 10.3399 55.1406 10.1102 55.5204 9.95701C55.5963 9.88044 55.6722 9.88044 55.7482 9.88044H55.8241C55.8241 9.88044 55.8241 9.88044 55.8241 9.80387H55.976C56.2798 9.95701 56.5076 10.1867 56.5836 10.493C56.6595 10.8759 56.5836 11.2587 56.4317 11.4885ZM51.875 11.7948C51.6472 11.565 51.4193 11.4119 51.1915 11.1822C51.7991 11.3353 52.4066 11.4885 53.0142 11.4885C53.0901 11.4885 53.242 11.4885 53.318 11.4885C53.0901 12.0245 52.8623 12.6371 52.7104 13.2496C52.4826 12.7136 52.2547 12.1776 51.875 11.7948ZM53.6977 21.5195C53.4698 21.1366 53.318 20.6772 53.0901 20.0646C52.3307 17.308 52.5585 14.1685 53.7736 11.565L53.4698 11.4119C53.6217 11.4119 53.6977 11.4119 53.8496 11.4119L53.7736 10.8759C51.7231 11.1822 49.5967 10.3399 48.3056 8.65527C47.9259 8.19584 47.698 7.7364 47.6221 7.35354C47.5462 6.8941 47.698 6.35809 48.0018 6.12837C48.3056 5.82208 48.8372 5.74551 49.5207 5.82208C50.2802 5.89866 50.9637 6.12837 51.6472 6.51124C52.5585 7.50668 53.4698 8.5787 54.3812 9.65072L54.8368 9.26786C54.3052 8.65527 53.8496 8.04269 53.318 7.43011L53.7736 7.35354C53.6977 6.8941 53.5458 6.43467 53.318 6.0518C53.1661 5.74551 53.0142 5.43922 52.9382 5.2095C52.7863 4.59692 52.9382 3.83119 53.4698 3.67805C54.0774 3.5249 54.685 4.29063 54.9887 4.75006C55.4444 5.43922 55.9001 6.28152 56.1279 7.20039C56.3557 8.04269 56.3557 8.80842 56.052 9.421C55.5963 9.26786 55.1406 9.26786 54.7609 9.421L54.9128 9.72729C54.609 9.88044 54.3812 10.0336 54.1534 10.3399C53.7736 10.7993 53.6977 11.3353 54.0015 11.7948C54.1533 12.101 54.4571 12.2542 54.685 12.3308C55.0647 12.4839 55.2925 12.5605 55.5963 12.5605C55.5963 12.5605 55.5963 12.5605 55.6722 12.5605C55.8241 12.5605 56.052 12.4839 56.2039 12.4073C57.1911 14.5514 58.2544 16.6954 59.5454 18.6863C59.6214 18.8394 59.6973 18.9926 59.8492 19.1457C60.153 20.6006 59.3176 22.2852 57.9506 22.8978C56.5076 23.5104 54.5331 22.8978 53.6977 21.5195ZM53.0142 29.7893L52.9382 30.3254H53.0142C52.9382 30.4785 52.7863 30.5551 52.6345 30.6317C52.1788 30.8614 51.5712 30.7848 51.1915 30.7082C50.8118 30.5551 50.2802 30.3254 50.2802 29.9425C50.2802 29.7128 50.4321 29.4065 50.6599 29.2533C50.7358 29.1768 50.8118 29.1768 50.9637 29.1002L51.0396 29.2533C51.4953 28.7939 52.3307 28.7939 52.7863 29.1768C52.9382 29.3299 53.0901 29.4831 53.0901 29.6362C53.0901 29.7128 53.0901 29.7894 53.0901 29.8659C53.1661 29.7894 53.0901 29.7893 53.0142 29.7893ZM50.7358 28.1048C50.7358 28.1813 50.7358 28.2579 50.7358 28.2579C50.6599 28.4876 50.2802 28.5642 50.0523 28.4876C50.2042 28.2579 50.508 28.1048 50.7358 28.1048ZM55.5963 46.7885C54.8368 47.7839 53.6977 48.3965 52.7104 48.9325C51.875 49.392 51.0396 49.8514 50.0523 50.0046C49.0651 50.1577 48.1537 49.8514 47.698 49.1623C47.4702 48.856 47.3183 48.3965 47.1664 48.0137C47.0905 47.8605 47.0905 47.7839 47.0145 47.6308C46.5589 46.3291 45.7994 45.1805 44.7362 44.2616L44.4324 44.6445C44.4324 44.5679 44.4324 44.4913 44.4324 44.4913C44.2805 43.8787 44.2046 43.2662 44.2046 42.6536C44.2046 41.8878 44.3565 41.0455 44.5843 40.2798C44.7362 39.6672 44.8881 38.9781 44.8881 38.2889C44.8881 37.8295 44.8881 37.3701 44.8121 36.9106C44.964 36.3746 45.1919 35.762 45.4197 35.3026C46.2551 33.618 47.2424 31.9334 48.3056 30.3254L48.0778 30.1722C48.6853 30.0956 49.2929 29.9425 49.9004 29.6362C49.8245 29.7894 49.8245 29.9425 49.8245 30.1722C49.9004 30.8614 50.508 31.3208 51.1156 31.4739C51.2674 31.5505 51.4953 31.5505 51.6472 31.5505L51.5712 31.6271C51.951 31.9334 51.7991 32.546 51.7231 33.1586C51.6472 33.4648 51.6472 33.7711 51.5712 34.0774C51.5712 35.3026 52.3307 36.2215 53.0901 37.1403C53.7736 37.9826 54.4571 38.7484 54.5331 39.7438C54.5331 40.0501 54.5331 40.3564 54.4571 40.6627C54.3812 41.1987 54.3052 41.7347 54.5331 42.2707C54.685 42.7301 55.0647 43.0364 55.3685 43.3427C55.5963 43.5724 55.7482 43.7256 55.9001 43.9553C55.976 44.0319 56.052 44.185 56.052 44.3382C55.8241 44.3382 55.5963 44.4147 55.4444 44.4913L55.6722 45.0273C55.8241 44.9508 56.052 44.9508 56.2039 44.9508C56.3557 45.3336 56.052 46.1759 55.5963 46.7885ZM66.0767 42.5004C65.6969 43.5724 64.7097 44.721 63.5705 44.721C63.4945 44.721 63.3427 44.721 63.2667 44.721C63.0389 44.721 62.8111 44.721 62.5832 44.721C62.1275 44.7976 61.8238 45.1039 61.52 45.3336C61.2922 45.5633 61.0643 45.7165 60.8365 45.7931C60.077 46.0993 59.2416 45.5633 58.4822 44.9508C58.0265 44.5679 57.419 44.185 56.8114 44.0319C56.7355 43.8022 56.6595 43.5724 56.5076 43.3427C56.3557 43.113 56.1279 42.8833 55.9001 42.6536C55.5963 42.3473 55.3685 42.1176 55.2166 41.7347C55.0647 41.3518 55.1406 40.8924 55.2166 40.433C55.2925 40.1267 55.2925 39.7438 55.2925 39.4375C55.2166 38.2889 54.4571 37.3701 53.7736 36.5278C53.0142 35.6855 52.3307 34.8432 52.4066 33.8477C52.4066 33.618 52.4826 33.3117 52.4826 33.082C52.5585 32.546 52.7104 31.8568 52.4066 31.3974C52.6345 31.3974 52.8623 31.3208 53.0901 31.2442C53.3939 31.0911 53.6217 30.8614 53.7736 30.5551C56.8874 30.9379 60.2289 31.7037 62.887 33.6946C63.9502 34.5369 64.9375 35.6089 65.621 36.9106C65.621 36.9872 65.5451 36.9872 65.5451 37.0638L65.8488 37.3701C66.4564 38.8249 66.6842 40.7393 66.0767 42.5004ZM64.4059 27.7985C64.4818 27.7985 64.5578 27.875 64.6337 27.9516C64.6337 28.0282 64.6337 28.1048 64.5578 28.1048L64.1781 27.9516C64.254 27.875 64.3299 27.7985 64.4059 27.7985ZM77.1646 29.9425C77.0127 31.0911 76.3292 32.1631 75.3419 32.8523C74.4306 33.5414 73.3674 33.7711 72.3801 33.5414C70.7852 33.1586 69.6461 31.8568 68.5069 30.5551C67.6715 29.6362 66.8361 28.6408 65.8488 27.9516C65.4691 27.7219 65.0894 27.5687 64.7856 27.339C64.254 27.0327 63.7224 26.803 63.2667 26.4202C61.8997 25.2716 61.6719 22.9744 62.7351 21.5195L62.2794 21.1366C60.9884 22.8212 61.2922 25.4247 62.887 26.803C63.2667 27.1859 63.7983 27.4156 64.254 27.6453C64.1021 27.7219 64.1021 27.875 64.1021 28.0282C64.1021 28.1813 64.254 28.3345 64.4059 28.3345C64.4818 28.3345 64.5578 28.3345 64.5578 28.3345C65.4691 29.2533 65.9248 30.5551 66.1526 31.6271C66.3045 32.3928 66.5323 33.3883 66.4564 34.3837C66.3804 35.0729 66.1526 35.6855 65.8488 36.2215C65.1653 34.9197 64.1781 33.8477 63.0389 33.0054C60.3049 31.0145 56.8874 30.2488 53.7736 29.7893C53.7736 29.6362 53.7736 29.4831 53.7736 29.4065C53.6977 29.1002 53.5458 28.8705 53.242 28.6408C52.8623 28.3345 52.4066 28.2579 51.951 28.2579C53.242 26.803 54.0774 24.8887 54.3812 22.8978C55.0647 23.3572 55.8241 23.587 56.6595 23.587C57.1911 23.587 57.7227 23.5104 58.2544 23.2041C59.5454 22.5915 60.4568 21.2132 60.5327 19.7583C60.7605 20.0646 61.0643 20.2943 61.444 20.524C62.2035 20.9835 63.1148 21.1366 64.0262 21.1366C64.1781 21.1366 64.3299 21.1366 64.4818 21.1366C65.5451 21.0601 66.4564 20.8303 66.988 20.4475C68.2791 20.7538 69.4942 21.2132 70.7852 21.6726C71.6966 21.9789 72.7598 22.4384 73.3674 23.2807C73.5952 23.587 73.7471 23.8932 73.9749 24.2761C74.1268 24.5824 74.2787 24.8887 74.5065 25.195C74.8863 25.731 75.3419 26.1139 75.7216 26.4967C76.3292 27.0327 76.8608 27.4922 77.0887 28.1813C77.2405 28.7939 77.3165 29.3299 77.1646 29.9425Z" fill="black"/>
<path d="M0.534294 0H-2.32933e-06V4.11433H0.534294V0Z" transform="matrix(0.622562 -0.782606 0.777577 0.628833 65.1057 23.1361)" fill="black"/>
<path d="M1.15882e-06 0.536009C1.29106 0.8423 2.50618 1.45488 3.49346 2.45033L3.87318 2.06746C2.8859 0.995446 1.51889 0.306291 0.151888 -2.92102e-07L1.15882e-06 0.536009Z" transform="translate(67.8994 21.9789)" fill="black"/>
<path d="M2.31765e-06 0.459438C1.44295 1.22516 2.80995 2.06746 4.10101 3.06291L4.40479 2.60347C3.11373 1.60803 1.67078 0.765727 0.227833 -5.84204e-07L2.31765e-06 0.459438Z" transform="translate(65.1653 24.9653)" fill="black"/>
<path d="M2.58212 0.459437L2.27834 2.92102e-07C1.29106 0.765728 0.455668 1.76117 0 2.90977L0.531613 3.13948C0.987282 2.14404 1.67078 1.14859 2.58212 0.459437Z" transform="translate(2.2832 22.8978)" fill="black"/>
<path d="M0 2.75662L0.379724 3.13948C1.29106 2.14404 2.35429 1.22516 3.34157 0.382863L3.03779 -1.16841e-06C1.97456 0.842299 0.911337 1.76117 0 2.75662Z" transform="translate(3.04248 25.5779)" fill="black"/>
<path d="M0.535647 0H0V2.5079H0.535647V0Z" transform="matrix(0.285534 -0.958348 0.957042 0.28988 19.3784 18.0416)" fill="black"/>
<path d="M0.227834 0.938016C1.06323 0.631725 1.97456 0.478579 2.8859 0.555152V0.0191438C1.89862 -0.057429 0.911338 0.0957153 5.79412e-07 0.478579L0.227834 0.938016Z" transform="translate(12.3079 14.5322)" fill="black"/>
<path d="M1.89862 0.229718L1.367 -5.84204e-07C0.987281 0.765727 0.531613 1.53146 2.89706e-07 2.14404L0.379724 2.5269C0.987282 1.83775 1.5189 1.07202 1.89862 0.229718Z" transform="translate(21.7249 21.5195)" fill="black"/>
<path d="M1.22666 2.5269C0.770996 1.76117 0.54316 0.918873 0.54316 -2.92102e-07H0.0115495C-0.0643952 0.995445 0.239384 1.99089 0.770997 2.83319L1.22666 2.5269Z" transform="translate(26.4978 23.5104)" fill="black"/>
<path d="M1.97456 0.536009L1.74673 5.84204e-07C1.13917 0.229719 0.531614 0.612582 5.79412e-07 0.995445L0.303778 1.45488C0.835391 1.07202 1.44295 0.765727 1.97456 0.536009Z" transform="translate(30.1548 17.2314)" fill="black"/>
<path d="M0.759446 2.37376C0.607557 2.14404 0.683503 1.76117 0.683503 1.45488C0.759447 0.995445 0.835391 0.382864 0.379723 2.92102e-07L-1.15882e-06 0.382864C0.227833 0.536009 0.15189 0.842299 0.0759453 1.30174C5.77149e-07 1.6846 -0.0759436 2.22061 0.227835 2.60347L0.759446 2.37376Z" transform="translate(27.041 14.0919)" fill="black"/>
<path d="M0.151888 0.765727C0.835391 0.612582 1.51889 0.536009 2.2024 0.536009V0C1.44295 0 0.683504 0.0765729 1.15882e-06 0.229718L0.151888 0.765727Z" transform="translate(24.9907 9.80383)" fill="black"/>
<path d="M3.34157 0.459437L3.11373 -1.16841e-06C1.59484 0.765726 0.455669 2.22061 2.89706e-07 3.82864L0.531613 3.98178C0.987282 2.45033 2.05051 1.14859 3.34157 0.459437Z" transform="translate(8.05493 32.0865)" fill="black"/>
<path d="M0 4.28807L0.531613 4.44122C0.911337 2.83319 1.36701 1.22516 2.65807 0.459435L2.35429 0C0.911337 0.8423 0.379724 2.60347 0 4.28807Z" transform="translate(9.87744 33.1586)" fill="black"/>
<path d="M2.05051 5.84204e-07C1.13917 1.6846 0.455668 3.44577 -5.79412e-07 5.28352L0.531613 5.43666C0.987282 3.67549 1.67078 1.91432 2.50618 0.30629L2.05051 5.84204e-07Z" transform="translate(17.7 32.5459)" fill="black"/>
<path d="M-2.89706e-07 4.51779L0.379723 4.90066C1.74673 3.67549 2.65807 1.91432 2.80996 0H2.27834C2.05051 1.76117 1.29106 3.3692 -2.89706e-07 4.51779Z" transform="translate(19.2947 35.4557)" fill="black"/>
<path d="M4.32885 0.459436L4.10102 5.84204e-07C3.18968 0.53601 2.2024 1.14859 1.44295 1.99089C0.531613 2.90976 -1.15882e-06 3.98178 -1.15882e-06 5.0538V5.36009L0.303779 5.28352C0.455668 5.28352 0.607558 5.13037 0.683503 5.0538C0.759447 4.90065 0.759447 4.74751 0.683503 4.59437L0.607559 4.67094C0.759449 3.90521 1.21511 3.06291 1.89862 2.37375C2.50618 1.53145 3.49346 0.995445 4.32885 0.459436ZM0.151889 4.82408C0.151889 4.74751 0.151889 4.74751 0.151889 4.82408C0.151889 4.74751 0.151889 4.74751 0.151889 4.82408Z" transform="translate(30.0789 34.0774)" fill="black"/>
<path d="M-5.79412e-07 0.153145C0.227834 1.14859 0.911335 2.06746 1.82267 2.5269L2.05051 2.06746C1.29106 1.6846 0.759448 0.918872 0.531613 -5.84204e-07L-5.79412e-07 0.153145Z" transform="translate(47.698 25.7311)" fill="black"/>
<path d="M0.30378 -5.84204e-07L0 0.459438C1.13917 1.14859 1.97456 2.14404 2.43023 3.3692L3.03779 3.21605C2.50618 1.83775 1.59484 0.765727 0.30378 -5.84204e-07Z" transform="translate(55.4443 32.6227)" fill="black"/>
<path d="M0.632177 0.0765739L0.100561 -5.84204e-07C-0.127273 1.83775 0.0246195 3.67549 0.632177 5.43667L1.16379 5.28352C0.632175 3.59892 0.404343 1.83775 0.632177 0.0765739Z" transform="translate(48.2051 33.3883)" fill="black"/>
<path d="M0.379723 2.06746C1.44295 1.07202 2.96185 0.536008 4.4048 0.536008V1.16841e-06C2.80996 1.16841e-06 1.21511 0.612581 -1.15882e-06 1.6846L0.379723 2.06746Z" transform="translate(54.3811 26.1904)" fill="black"/>
</svg>
