<svg width="56" height="53" viewBox="0 0 56 53" fill="none" xmlns="http://www.w3.org/2000/svg">
<path d="M3.69572 0.16753C2.15983 1.07474 0.911931 2.41167 0.14399 3.98735C-0.143988 4.56032 -4.00513e-07 5.27654 0.575956 5.61077C1.10392 5.89726 1.91985 5.75402 2.20783 5.18104C2.83178 3.9396 3.69572 2.9369 4.89563 2.22068C6.23952 1.45672 4.99162 -0.596434 3.69572 0.16753Z" transform="translate(15.4067 12.2469)" fill="#F5CED2"/>
<path d="M36.749 14.4623C37.229 15.7037 36.701 17.5659 36.413 18.7596C35.9811 20.6217 36.749 18.2343 36.941 17.8524C30.0295 17.8524 23.1181 17.8524 16.2066 17.8524C16.2546 17.9478 16.3026 18.0433 16.3986 18.1388C19.8543 12.1704 23.31 6.15415 26.7658 0.185686C23.934 0.0901903 21.1982 0.663163 18.4144 1.04515C20.5262 1.04515 22.6861 1.04515 24.7979 1.04515C24.6059 0.997397 24.366 0.94965 24.174 0.854154C18.1744 -0.817017 10.927 3.0028 9.4391 9.21001C9.15112 10.2127 9.19911 10.2127 9.58309 9.25776C9.82307 8.54154 10.255 7.92082 10.879 7.3956C10.495 7.53884 10.063 8.3028 9.77507 8.58929C8.91114 9.59199 7.99921 10.6902 7.37526 11.8361C6.99128 12.7911 6.55932 13.746 6.17535 14.701C5.5034 16.6587 6.22334 15.5605 8.28718 11.4542C10.063 10.4515 11.8389 9.401 13.5668 8.3983C9.00713 10.0695 4.87945 11.6451 2.09566 15.9902C-1.31208 21.4812 -0.544139 28.8821 4.25549 33.3226C6.27134 35.1848 8.71915 36.5695 11.4069 37.1902C12.8468 37.5244 14.2867 37.5244 15.7266 37.7632C13.8548 37.4767 13.4228 37.3812 14.3347 37.5722C14.6707 37.6199 15.0067 37.7154 15.3426 37.8587C14.7187 37.9542 12.7988 36.5695 14.6707 37.6677C16.5426 38.7181 14.4787 37.8587 14.1907 37.2379C14.4307 37.4767 14.7187 37.7154 14.9107 37.9542C15.5346 38.6226 15.2467 38.2884 14.1427 36.9037C15.2946 38.7181 13.7108 34.3253 13.9987 36.6172C13.9987 34.5163 13.9987 32.3677 13.9987 30.2668C14.2867 29.5983 14.5267 28.9298 14.8147 28.2614C16.2546 26.8289 17.6945 25.3965 19.1344 23.9641C18.9904 24.0118 18.8464 24.1073 18.7024 24.1551C23.55 30.41 28.3976 36.665 33.2453 42.9199C34.3012 41.8217 35.2131 40.5803 36.1251 39.3866C36.749 38.5271 38.1889 37.2857 35.9811 39.4343C34.1572 41.2965 31.8534 41.4397 29.0696 39.8163C25.9978 40.7235 23.838 40.1028 22.5901 37.8587C22.7341 38.3839 23.406 39.2433 23.694 39.6731C23.838 39.8641 23.934 40.0551 24.078 40.246C22.8301 34.9938 22.5901 34.6596 23.358 39.2433C23.934 41.4875 24.9419 43.3974 26.5738 45.0686C27.8217 46.31 29.1656 47.1695 30.7975 47.7902C31.3734 48.1244 31.9974 48.3632 32.6693 48.5064C37.421 49.2704 36.941 49.0316 31.2774 47.7902C29.8375 46.3578 28.3976 44.9253 26.9578 43.4929C27.0537 43.6839 27.1497 43.8271 27.1977 44.0181C26.6698 42.0127 26.0938 40.0073 25.5659 38.0019C25.2779 44.6388 29.8855 48.5542 35.5011 50.7028C40.3007 52.565 46.6842 49.4614 49.0361 45.2118C52.2038 39.5298 52.7798 33.0361 49.996 27.0677C49.756 26.5902 49.516 26.065 49.2281 25.5875C49.852 27.2109 49.996 27.4019 49.66 26.1605C49.756 26.6857 49.804 27.2109 49.9 27.7361C49.948 26.3992 49.852 26.6857 49.66 28.5001C49.9 28.2136 50.284 26.6379 50.428 26.2082C51.0519 24.537 51.4359 22.9136 51.4359 21.0992C51.5319 13.2208 45.6283 7.34785 38.0449 6.2974C30.6535 5.2947 23.934 10.2127 22.3981 17.5181C21.2462 23.7253 24.318 30.8397 30.8935 32.3199C36.893 33.7046 44.3324 30.5055 45.6763 23.9641C45.7243 23.5821 45.8203 23.2479 45.9163 22.9136C41.6446 29.5983 37.085 31.6515 32.2374 29.0253C30.7015 25.7307 29.1656 22.4839 27.6777 19.1893C27.4857 19.7145 27.2457 20.192 27.0538 20.7172C26.1898 23.1046 25.9018 25.7307 26.0458 28.2136C26.1898 31.0307 26.9098 35.328 28.6376 37.7154C30.3655 40.0551 27.3417 34.3253 28.3017 32.7497C28.2057 33.2271 28.1097 33.6569 28.0137 34.1343C27.6297 35.328 27.7737 35.0415 28.4456 33.2271C32.9573 31.4127 37.469 29.5506 41.9806 27.7361C42.5566 27.9271 43.1325 28.1181 43.7085 28.3091C45.6763 31.7469 47.6922 35.1848 49.66 38.6226C49.852 34.5163 47.9322 30.601 44.7164 28.1181C43.0845 26.8767 42.4126 26.3037 40.1567 25.6352C40.0128 25.5875 39.8208 25.5875 39.6768 25.5397C35.7411 25.0145 35.4051 24.9668 38.7169 25.3965C40.4927 26.3992 42.2686 27.4497 43.9965 28.4524C43.9005 28.3569 43.7565 28.2614 43.6605 28.1659C44.6684 29.9325 45.7243 31.6992 46.7322 33.4181C47.2122 36.474 47.1642 36.0442 46.6363 32.2244C46.3483 30.983 45.9163 29.837 45.2444 28.7388C44.7644 27.9271 44.2844 27.1632 43.7565 26.3515C41.4526 22.6749 38.4769 19.619 34.1572 18.3298C29.9815 17.0884 25.5659 17.8524 21.9181 20.192C19.6143 21.7199 18.3664 23.2001 16.7345 25.4442C16.4466 25.8262 16.1586 26.256 15.8706 26.6857C17.0225 25.301 17.2145 25.11 16.3026 26.0172C12.1269 30.3145 11.6949 36.9992 15.3426 41.6785C19.1344 46.5487 25.4219 47.456 30.8455 44.7343C38.7169 40.7713 39.0048 30.6488 34.4932 24.2028C31.2774 19.619 26.6218 16.0379 21.0542 14.6055C19.5663 14.2235 18.0304 14.128 16.4946 13.937C15.1507 13.7938 15.4866 13.8415 17.4065 14.0803C13.8068 29.0731 14.6707 34.8028 20.0463 31.2217C17.1185 32.5109 18.5584 31.8424 19.5183 31.6037C21.9181 30.9352 23.934 29.7893 25.6619 27.9749C27.1017 26.4947 28.4936 24.2028 28.9736 22.1974C29.5496 20.2875 28.8776 21.2902 26.9578 25.2533C27.2457 24.919 27.5817 24.6325 27.8697 24.2983C30.0775 21.7199 31.8054 18.9028 32.5733 15.5605C27.6297 18.3298 22.7341 21.0992 17.7905 23.9163C20.6702 24.728 22.5901 24.1551 25.4699 24.0118C21.9661 24.2028 26.0938 24.0596 26.7658 24.1073C35.8371 24.3938 41.7406 13.746 37.133 6.15415C37.085 6.05866 37.037 5.96316 36.941 5.86767C32.5253 -1.43774 20.4303 -2.44044 16.2546 5.81992C13.9508 10.4037 11.5989 15.656 13.6148 20.8127C14.8147 23.8208 16.2546 26.256 19.1344 27.9749C21.7262 29.4551 25.5179 30.1235 28.3976 29.1686C34.0132 27.3542 39.2448 20.7172 36.749 14.4623Z" transform="translate(1.50391 1.15125)" fill="#F5BEC8"/>
<path d="M11.4231 5.62405C11.4231 5.57631 11.4231 5.57631 11.4231 5.52856C11.1831 6.34027 10.9912 7.15198 10.7512 7.91595C10.7512 7.8682 10.7992 7.8682 10.7992 7.82045C10.5592 8.15468 10.3192 8.44117 10.0312 8.7754L10.0792 8.72766C10.3192 8.39342 10.5592 8.10694 10.8472 7.7727C11.1831 7.24748 11.3751 6.62676 11.4231 6.00604C11.5191 5.57631 11.5191 5.14658 11.4231 4.71685C11.3751 4.09613 11.1831 3.4754 10.8472 2.95018C9.98324 1.61324 8.68734 0.515045 7.05546 0.18081C5.99954 -0.0101807 5.08761 -0.105676 4.03169 0.18081C2.87978 0.467297 2.35182 0.944774 1.43989 1.66099C0.959926 2.09072 0.623952 2.61595 0.431967 3.18892C0.143989 3.76189 -7.32366e-07 4.38261 -7.32366e-07 5.05108C-7.32366e-07 6.24477 0.52796 7.62946 1.39189 8.44117C2.30382 9.25288 3.50373 9.8736 4.79963 9.82586C5.2316 9.77811 5.66357 9.73036 6.09553 9.63486C6.91147 9.39613 7.63142 9.01414 8.20737 8.39342C8.25537 8.39342 8.25537 8.34568 8.30337 8.34568C7.96739 8.58441 7.67941 8.82315 7.34344 9.10964C7.43943 9.06189 7.48743 9.01414 7.58342 8.9664C7.19945 9.10964 6.81548 9.30063 6.43151 9.44387C6.5275 9.39613 6.62349 9.39613 6.71949 9.39613C6.28752 9.44387 5.85555 9.49162 5.42359 9.58712C5.56757 9.58712 5.66357 9.58712 5.80756 9.58712C5.37559 9.53937 4.94362 9.49162 4.51165 9.39613C4.65564 9.39613 4.75164 9.44387 4.84763 9.49162C4.46366 9.34838 4.07969 9.15739 3.69572 9.01414C3.79171 9.06189 3.83971 9.10964 3.9357 9.15739C3.59972 8.91865 3.31175 8.67991 2.97577 8.39342C3.07176 8.48892 3.16776 8.53667 3.21575 8.63216C2.97577 8.29793 2.73579 8.01144 2.44781 7.67721C2.44781 7.72495 2.49581 7.72495 2.49581 7.7727C2.73579 5.86279 2.97577 3.90513 3.26375 1.99522C2.97577 2.32946 2.6398 2.75919 2.39982 3.09342C2.25583 3.4754 2.06384 3.85739 1.91985 4.23937C1.87186 4.6691 1.77586 5.14658 1.72787 5.57631C1.67987 6.24477 1.82386 6.86549 2.15983 7.43847C2.35182 8.01144 2.68779 8.53667 3.16776 8.9664C3.9837 9.77811 5.37559 10.3988 6.5755 10.3511C7.8234 10.3033 9.1193 9.8736 9.98324 8.9664C10.2232 8.63216 10.4632 8.34568 10.7512 8.01144C11.1831 7.29523 11.3751 6.48351 11.4231 5.62405Z" transform="translate(24.0461 0.58313)" fill="#F5BEC8"/>
<path d="M3.98054 4.42562C4.07654 4.33012 4.17253 4.18688 4.26852 4.09139C3.69256 4.33012 3.11661 4.56886 2.58865 4.8076C1.8687 4.8076 1.43674 3.75715 2.10869 4.9031C2.39666 5.38057 2.82863 5.8103 3.2606 6.19229C4.07654 6.9085 4.89247 7.33823 5.9004 7.67247C8.63619 8.67517 9.7881 4.75985 7.77225 3.32742C6.81233 2.65895 6.86032 1.75175 5.51642 1.27427C3.93255 0.749043 1.8687 2.51571 2.54065 4.23463C4.17253 8.19769 9.50012 13.1635 14.0118 10.3941C15.0677 9.72562 15.5957 8.24544 14.8757 7.14724C14.5397 6.66976 14.2038 6.14454 13.8678 5.66706C12.9559 6.81301 12.0439 8.0067 11.18 9.15265C12.9559 9.43913 14.5877 9.39139 15.8836 8.05445C14.5397 7.48147 13.1478 6.9085 11.8039 6.38328C11.564 8.77066 13.1478 10.2031 13.8678 12.304C14.2998 13.5932 14.6357 17.795 12.7639 18.2725C9.7881 18.9887 11.036 23.6202 14.0598 22.8563C17.0835 22.14 18.4754 18.9887 18.8594 16.1716C19.0994 14.5959 19.0034 12.9247 18.5714 11.3968C18.1395 9.82111 16.4116 7.95895 16.5556 6.38328C16.7476 4.28238 13.8198 3.27967 12.4759 4.71211C13.0039 4.61661 13.0039 4.56886 12.4279 4.56886C10.556 4.28238 8.4442 6.19229 9.7401 8.05445C10.0761 8.53193 10.4121 9.05715 10.748 9.53463C11.036 8.43643 11.324 7.33823 11.612 6.28778C10.3161 7.09949 7.62826 4.04364 7.1963 2.99319C6.14038 3.94814 5.18045 4.9031 4.17253 5.9058C4.26852 5.95355 4.36451 6.0013 4.5085 6.0013C4.02854 5.61931 3.54858 5.28508 3.06861 4.9031C3.69256 6.00129 4.26852 6.71751 5.27644 7.43373C5.90039 6.0013 6.52435 4.52111 7.1483 3.08868C5.75641 2.56346 5.37244 0.796791 3.98054 0.223818C2.73264 -0.25366 1.43674 0.0328264 0.572805 1.08328C-1.34705 3.42292 2.01269 6.81301 3.98054 4.42562Z" transform="translate(36.5764 6.03113)" fill="#F5BEC8"/>
<path d="M2.22083 3.59356C2.46082 4.02329 3.80471 5.31248 3.80471 5.64671C3.80471 5.74221 2.6528 7.36563 2.41282 7.69986C1.3089 9.46653 0.82894 11.3287 0.108995 13.2386C-0.322972 14.4323 0.588958 15.8647 1.78887 16.199C2.17284 16.2467 2.55681 16.39 2.94078 16.5809C4.18868 17.1062 5.53258 16.008 5.91655 14.9098C7.30844 10.708 12.1081 1.15842 4.42866 0.251218C1.3569 -0.130764 1.4049 4.64401 4.42866 5.02599C3.70872 4.9305 1.59688 12.7134 1.26091 13.6683C2.26883 13.0954 3.22876 12.5701 4.23668 11.9972C3.85271 11.8062 3.46874 11.7107 3.08477 11.6152C3.66072 12.6179 4.18868 13.5728 4.76464 14.5755C5.2926 13.1909 5.58058 11.8062 6.34852 10.517C7.02047 9.37104 7.78841 8.32059 8.17238 7.0314C8.46036 6.07644 8.60435 4.9305 8.31637 3.97554C7.9324 2.78185 6.92447 2.30437 6.34852 1.25392C4.90863 -1.5632 0.780944 0.871938 2.22083 3.59356Z" transform="translate(46.6875 29.1614)" fill="#F5BEC8"/>
<path d="M6.00838 0.00141498C2.16868 0.144658 -2.24698 4.39421 1.30474 7.92754C2.84063 9.45547 4.80848 10.0762 6.72833 10.8879C8.74417 11.7951 8.69618 14.087 10.568 15.1375C13.0158 16.4744 15.2717 13.4185 13.4958 11.3654C12.9679 10.7447 12.1999 10.4582 11.432 10.5059C11.8159 11.9861 12.2479 13.4663 12.6319 14.9465C11.432 15.4717 14.6477 16.4266 15.2717 16.5699C16.9515 16.9519 18.6314 17.1906 20.3593 16.9041C22.8551 16.4266 26.6468 14.0393 26.5508 11.1744C26.5028 10.0284 25.8309 9.26448 24.7749 8.8825C23.719 8.45277 22.9511 8.83475 21.9432 9.07349C20.4553 9.40772 19.0154 9.21673 17.6235 8.64376C14.8877 7.54556 12.8719 5.30141 10.904 3.15277C9.60811 1.76808 7.97623 0.00141286 5.91239 1.33835C5.00046 1.91132 4.5205 2.96177 4.5205 3.96448C4.5205 4.82394 5.52842 5.92214 5.48042 6.44736C5.19245 9.50322 9.99208 9.50322 10.2801 6.44736C10.3281 5.73114 10.2801 5.30141 9.99208 4.63295C9.89609 4.44195 9.80009 4.25096 9.7041 4.05997C9.27213 3.24826 9.08015 3.43925 9.22414 4.5852C8.74417 4.96718 8.26421 5.30141 7.78425 5.68339C6.29636 5.01493 6.00838 5.11042 6.96831 5.92213C7.35228 6.30411 7.68826 6.73384 8.07223 7.11583C8.64818 7.73655 9.22414 8.30952 9.80009 8.8825C11.192 10.2194 12.7279 11.5086 14.4557 12.3681C15.9916 13.1798 17.5755 13.705 19.3034 13.896C20.1673 13.9915 20.9832 13.9915 21.8472 13.896C22.3271 13.8483 22.7591 13.7528 23.1911 13.6573C24.055 13.4185 24.151 13.3708 23.479 13.4663C22.9031 12.7023 22.3271 11.9383 21.7032 11.1744C21.6552 10.3627 21.0312 11.4131 20.6953 11.6041C20.1193 11.9861 19.6393 12.1771 18.9194 12.2726C17.7675 12.4158 16.2796 12.0816 15.3197 11.5086C13.4478 10.4104 12.3439 9.83745 10.1361 10.8402C7.97623 11.8429 9.03215 15.4239 11.336 15.2807C11.432 15.2807 11.48 15.2807 11.576 15.2807C11 15.042 10.424 14.8032 9.89609 14.5645C9.94408 14.6122 9.99208 14.66 10.0401 14.7555C11 13.514 11.9599 12.2726 12.9679 10.9834C13.4478 11.2221 12.8719 10.5537 12.7279 10.2672C12.5359 9.8852 12.3439 9.55096 12.0559 9.16898C11.432 8.30952 10.664 7.54556 9.7521 7.02033C8.88816 6.49511 7.88024 6.25637 6.96831 5.87439C6.48835 5.68339 6.00838 5.39691 5.57642 5.15817C4.76048 4.63294 5.00046 4.77619 6.00838 4.72844C9.08015 4.68069 9.08015 -0.0940805 6.00838 0.00141498Z" transform="translate(6.42261 35.9526)" fill="#F5BEC8"/>
<path d="M0.347973 2.28009C0.347973 2.56658 0.155988 3.04406 0.107992 3.42604C-0.0359973 4.09451 -0.0359973 4.66748 0.107992 5.33595C0.39597 6.48189 1.3079 7.53234 2.12384 8.34406C2.98777 9.25126 3.9477 10.063 5.2436 10.2062C6.39551 10.3017 7.45143 10.6359 8.60334 10.3495C11.5791 9.53775 10.3312 4.90622 7.30744 5.76568C7.64342 5.81343 7.69141 5.81343 7.40343 5.76568C7.21145 5.71793 7.06746 5.67018 6.87547 5.62244C6.5395 5.57469 6.20353 5.47919 5.86755 5.47919C5.43558 5.43144 5.38759 5.43144 5.81955 5.57469C6.20353 5.76568 6.20353 5.71793 5.81955 5.43144C5.62757 5.19271 5.33959 4.95397 5.14761 4.76298C5.00362 4.61973 4.85963 4.38099 4.71564 4.23775C4.66764 4.14226 4.61965 4.04676 4.57165 3.95127C4.57165 4.61973 4.61965 4.76298 4.71564 4.42874C5.05161 3.95127 5.09961 2.85307 5.09961 2.37559C5.09961 -0.775763 0.299977 -0.775764 0.347973 2.28009Z" transform="translate(2.62793 26.7506)" fill="#F5BEC8"/>
<path d="M1.2985 -3.64286e-07C1.25051 -3.64286e-07 1.25051 -3.64286e-07 1.20251 -3.64286e-07C0.578559 -3.64286e-07 -0.0453933 0.525225 0.00260306 1.19369C0.0505994 1.86216 0.530563 2.38739 1.20251 2.38739C1.25051 2.38739 1.25051 2.38739 1.2985 2.38739C1.92246 2.38739 2.54641 1.86216 2.49841 1.19369C2.45042 0.572973 1.97045 -3.64286e-07 1.2985 -3.64286e-07Z" transform="translate(27.6914 24.0172)" fill="#F0B1A3"/>
<path d="M0.669772 0.133073C0.0938164 0.41956 -0.0981686 1.04028 0.0458204 1.661C0.189809 2.28172 0.909754 2.6637 1.53371 2.47271C2.20565 2.28172 2.49363 1.661 2.34964 0.992533V0.944786C2.34964 1.13578 2.34964 1.37451 2.34964 1.56551C2.30165 1.61325 2.30165 1.70875 2.25365 1.7565C2.10966 1.89974 1.96567 2.04298 1.82169 2.18623H1.86968C2.44564 1.89974 2.63762 1.08803 2.30165 0.562804C1.91768 0.0375787 1.24573 -0.153413 0.669772 0.133073Z" transform="translate(26.832 26.0326)" fill="#F0B1A3"/>
<path d="M1.2985 3.64286e-07C1.25051 3.64286e-07 1.25051 3.64286e-07 1.20251 3.64286e-07C0.578559 3.64286e-07 -0.0453933 0.525226 0.00260306 1.19369C0.0505994 1.86216 0.530563 2.38739 1.20251 2.38739C1.25051 2.38739 1.25051 2.38739 1.2985 2.38739C1.92246 2.38739 2.54641 1.86216 2.49841 1.19369C2.45042 0.525226 1.97045 3.64286e-07 1.2985 3.64286e-07Z" transform="translate(28.6511 26.3567)" fill="#F0B1A3"/>
<path d="M2.40568 3.16153C2.26169 2.54081 3.55759 2.34982 3.94156 2.39756C4.66151 2.54081 5.09347 3.11378 5.23746 3.78225C5.57344 5.26243 7.92525 4.64171 7.54128 3.16153C7.10932 1.25162 5.33345 -0.133066 3.36561 0.0101768C1.39776 0.15342 -0.330113 1.7291 0.0538578 3.78225C0.437828 5.31018 2.74165 4.68946 2.40568 3.16153Z" transform="translate(25.4321 22.0016)" fill="#F0B1A3"/>
<path d="M2.98404 0.523892C0.104258 1.38335 -0.56769 4.48695 0.440233 7.01759C1.44816 9.59596 4.23194 10.6464 6.67976 9.35723C9.03158 8.16353 10.7114 5.53741 9.36755 3.05452C8.11964 0.714883 5.57584 -0.335568 3.03204 0.094162C1.49615 0.332901 2.1681 2.67254 3.65599 2.38606C4.7599 2.19506 5.91181 2.62479 6.67976 3.4365C7.83167 4.6302 7.3517 5.87164 6.19979 6.8266C5.09588 7.7338 3.512 7.87705 2.74406 6.49236C2.07211 5.34642 2.02411 3.29326 3.55999 2.81578C5.14387 2.38605 4.47192 0.046415 2.98404 0.523892Z" transform="translate(24.5178 20.4851)" fill="#F0B1A3"/>
<path d="M0.16532 1.82542C0.213316 1.92092 0.261314 2.01641 0.30931 2.11191C0.357307 2.25515 0.357307 2.25515 0.30931 2.11191C0.30931 2.15966 0.357306 2.2074 0.357306 2.25515C0.405302 2.35065 0.405303 2.44614 0.453299 2.58939C0.453299 2.63713 0.549291 3.01911 0.501295 2.73263C0.549291 3.06686 0.597288 3.35335 0.837269 3.59209C1.02925 3.78308 1.36523 3.97407 1.7012 3.92632C2.27716 3.87857 2.99711 3.4011 2.90111 2.73263C2.80512 1.96866 2.61313 1.3002 2.22916 0.58398C1.94119 0.0587546 1.12525 -0.179983 0.597288 0.154251C0.0213317 0.536233 -0.170654 1.25245 0.16532 1.82542Z" transform="translate(29.4004 24.6268)" fill="#F0B1A3"/>
<path d="M55.0518 25.7838C55.7717 24.2559 55.8677 22.6324 55.9637 20.7703C56.0117 19.8631 56.0597 18.7649 55.7717 17.7144C55.4358 16.5207 54.7158 15.4703 53.9959 14.4198C52.9399 12.8919 51.98 11.4595 52.316 9.78829L52.412 9.35856L52.028 9.5973C50.2042 10.7432 47.8043 10.791 45.9325 9.78829C45.1165 9.35856 44.3486 8.69009 43.6767 8.06937C43.1007 7.54414 42.4767 7.01892 41.7568 6.54144C39.8849 5.34775 38.0131 5.53874 37.0052 6.3982C36.8132 3.77207 34.4614 1.71892 32.1095 1.05045C29.5177 0.286487 26.734 0.716216 24.1422 1.28919C23.4702 1.43243 22.5583 1.43243 22.0783 1.0982C21.8863 0.954955 21.8383 0.811712 21.7903 0.572973V0L21.4544 0.42973C20.7344 1.33694 19.5825 1.76667 18.4306 2.1964C18.0946 2.29189 17.8066 2.43514 17.4707 2.53063C14.1589 3.86757 11.5671 6.87568 10.7512 10.3613L10.7032 10.5523C10.6072 10.982 10.5112 11.4117 10.2712 11.7937C9.88724 12.3667 9.1673 12.6054 8.49535 12.8441C8.39936 12.8919 8.25537 12.9396 8.15938 12.9874C5.2316 14.0856 2.92778 16.6162 2.06384 19.5766C1.96785 19.8631 1.91985 20.1973 1.82386 20.4838C1.53588 21.7252 1.19991 22.9667 0.191985 23.6351L0 23.7784L0.191985 23.9216C1.63188 25.2586 1.87186 27.264 2.11184 29.3649C2.30382 31.036 2.49581 32.7072 3.31175 34.1396C4.31967 35.9063 6.38351 37.0045 8.39936 37.0045C7.29544 37.7685 6.5275 38.9622 6.33552 40.2514C6.09553 41.7793 6.67149 43.4027 7.77541 44.5009C8.68734 45.3604 9.83925 45.7901 10.9432 46.2198C11.7111 46.5063 12.527 46.8405 13.247 47.2703C14.7829 48.2252 15.8388 49.8964 16.1268 51.6631L16.1748 51.9973L16.4147 51.8063C17.7586 50.8036 19.5825 51.4721 21.3104 52.0928C21.5504 52.1883 21.7423 52.236 21.9823 52.3315C23.2302 52.7613 24.4781 53 25.678 53C26.9259 53 28.0779 52.7613 29.0858 52.2838C31.1496 51.3288 32.4455 49.2757 32.4455 47.2703C33.3095 48.7505 34.3174 50.2784 35.8053 51.3766C37.1012 52.2838 38.685 52.809 40.2689 52.809C43.3407 52.809 46.3165 51.0423 49.4842 47.4135C50.7321 45.9811 51.74 45.5036 52.556 45.9333L52.94 46.1243L52.844 45.6946C52.316 43.5459 53.3239 41.3973 54.2838 39.3441L54.5238 38.8667C55.9637 35.7631 56.1077 33.4234 55.0518 31.7045C54.5718 30.8928 53.8039 30.3198 53.0839 29.7468C52.652 29.4126 52.22 29.0306 51.788 28.6486C53.1319 28.3144 54.3318 27.264 55.0518 25.7838ZM51.5481 28.2667C51.5001 28.2189 51.5001 28.2189 51.4521 28.1712L51.2601 28.3144C51.1641 28.3144 51.0681 28.3144 50.9241 28.3144V28.6964C51.0681 28.6964 51.2121 28.6964 51.3081 28.6486C51.74 29.1261 52.268 29.5559 52.796 29.9856C53.5159 30.5586 54.1879 31.1315 54.6678 31.8477C55.6757 33.4234 55.4838 35.6676 54.1399 38.6279L53.8999 39.1054C52.94 41.1108 51.98 43.2117 52.364 45.3604C51.4521 45.1216 50.3481 45.6946 49.1482 47.0793C46.0765 50.6126 43.1487 52.3793 40.2209 52.3793C38.733 52.3793 37.2452 51.9018 35.9972 50.9946C34.3174 49.8009 33.2615 47.891 32.3015 46.2198L31.6776 45.1216L31.9656 46.3631C32.4455 48.464 31.1016 50.8513 28.8938 51.9018C27.0219 52.809 24.6221 52.809 22.1263 51.9496C21.9343 51.8541 21.6943 51.8063 21.4544 51.7108C19.7745 51.0901 17.9506 50.4216 16.4627 51.2811C16.0788 49.5144 14.9749 47.891 13.439 46.936C12.719 46.4586 11.9031 46.1721 11.0872 45.8378C9.93524 45.4081 8.87932 44.9784 8.06338 44.1667C7.00746 43.164 6.5275 41.6838 6.71949 40.2991C6.95947 38.8667 7.8714 37.6252 9.1673 37.0045V36.9568C9.21529 36.9568 9.26329 36.9568 9.31129 36.9568L9.26329 36.5748C7.10346 36.909 4.75164 35.8108 3.69572 33.9486C2.92778 32.6117 2.73579 30.9405 2.54381 29.3171C2.30382 27.3117 2.06384 25.2108 0.671949 23.7784C1.63188 23.0144 1.96785 21.7252 2.25583 20.5315C2.35182 20.245 2.39982 19.9108 2.49581 19.6721C3.31175 16.8072 5.56757 14.3721 8.35136 13.3216C8.44735 13.2739 8.59134 13.2261 8.68734 13.1784C9.40728 12.8919 10.1752 12.6532 10.6552 11.9847C10.9432 11.555 11.0392 11.0775 11.1831 10.6L11.2311 10.409C11.9991 7.06667 14.4949 4.15405 17.7106 2.86486C17.9986 2.72162 18.3346 2.62613 18.6706 2.53063C19.7265 2.14865 20.8304 1.76667 21.5983 0.954955C21.6463 1.0982 21.7903 1.24144 21.9343 1.33694C22.5103 1.81441 23.6142 1.76667 24.3341 1.62342C26.782 1.0982 29.4697 0.668468 31.9656 1.43243C34.3174 2.14865 36.6212 4.2018 36.5732 6.87568V7.44865L36.9572 7.01892C37.9651 5.77748 40.0769 5.96847 41.5168 6.92342C42.1888 7.35315 42.7647 7.87838 43.3887 8.4036C44.1086 9.02432 44.8766 9.69279 45.7405 10.1703C47.6124 11.173 50.0122 11.173 51.884 10.1703C51.74 11.7937 52.748 13.2739 53.7079 14.6586C54.3798 15.6613 55.0998 16.7117 55.4358 17.8577C55.6757 18.7649 55.6757 19.6721 55.6277 20.818C55.5318 22.6324 55.4358 24.2559 54.7638 25.6883C54.1399 26.8342 52.9879 28.0279 51.5481 28.2667Z" fill="black"/>
<path d="M14.9269 0.424798C16.1748 0.520294 17.4707 0.759034 18.8626 1.18876C17.6626 1.14102 16.2228 1.33201 15.2148 2.38246L15.5028 2.66894C16.8947 1.28426 19.1025 1.523 20.3024 1.80948C20.5904 1.85723 20.8784 1.95273 21.1184 2.00047C21.3104 2.09597 21.5504 2.14372 21.7423 2.23921L21.8863 1.85723C21.8383 1.80948 21.7423 1.80948 21.6943 1.76173V1.71399C21.5504 1.66624 21.3584 1.61849 21.2144 1.57074C18.9585 0.663538 16.8947 0.138312 14.9269 0.0428168C12.815 -0.100426 10.6552 0.138312 8.59134 0.424798C5.75956 0.759033 2.83178 1.14101 0.0959926 0.424798L4.57729e-08 0.80678C2.83178 1.523 5.80756 1.18876 8.68734 0.80678C10.7032 0.568041 12.815 0.281555 14.9269 0.424798Z" transform="translate(1.87183 22.6373)" fill="black"/>
<path d="M2.58853 6.82793C2.73252 7.4964 2.78052 8.16486 2.78052 8.83333C2.78052 8.97658 2.78052 9.11982 2.78052 9.21531C2.92451 12.9874 3.93243 16.7117 5.6603 20.0541L5.99627 19.8631C4.3164 16.5685 3.30848 12.8919 3.16449 9.16757C3.16449 9.02432 3.16449 8.92883 3.16449 8.78559C3.11649 8.11712 3.11649 7.4009 2.92451 6.68469C2.68453 5.72973 2.15656 4.82252 1.6766 3.96306C0.956657 2.67387 0.236713 1.43243 0.428698 0.0477477L0.0447277 2.27679e-08C-0.195254 1.52793 0.572688 2.86486 1.34063 4.15405C1.86859 5.01351 2.34855 5.92072 2.58853 6.82793Z" transform="translate(21.6497 1.52789)" fill="black"/>
<path d="M1.91985 8.54685C2.30382 7.4964 2.6398 6.44595 3.21575 5.49099C3.55173 4.91802 3.98369 4.39279 4.36767 3.86757C5.2796 2.72162 6.19152 1.52793 6.33551 0.0477476L5.95155 -3.64286e-07C5.85555 1.33694 4.99162 2.43513 4.07969 3.58108C3.64772 4.10631 3.26375 4.63153 2.87978 5.2045C2.30382 6.15946 1.91985 7.25766 1.53588 8.30811L0 12.7009L0.38397 12.8441L1.91985 8.54685Z" transform="translate(29.2778 7.7829)" fill="black"/>
<path d="M18.2866 0.286486C18.5746 0.668468 17.9986 1.24144 17.8546 1.38468C16.5587 2.67387 15.2148 4.01081 13.583 4.87027C11.9511 5.77748 10.0312 6.20721 8.20737 6.58919C7.63142 6.73243 7.05546 6.82793 6.4795 6.97117C4.46366 7.4964 1.58388 8.4036 -1.46473e-06 10.6955L0.335975 10.9342C1.48789 9.26306 3.50373 8.11712 6.5755 7.35315C7.15145 7.20991 7.72741 7.06667 8.30336 6.97117C10.1752 6.54144 12.0951 6.11171 13.7749 5.2045C15.4548 4.2973 16.7987 2.96036 18.1426 1.62342C18.7666 1.0027 18.9585 0.42973 18.6226 3.64286e-07L18.2866 0.286486Z" transform="translate(32.2534 11.3162)" fill="black"/>
<path d="M6.14353 3.24685C6.5755 3.62883 7.05546 3.96306 7.53542 4.2973C8.49535 4.87027 9.64726 5.15676 10.7992 5.15676C11.3271 5.15676 11.9031 5.10901 12.4311 4.96576L12.3351 4.58378C10.8472 5.01351 9.1193 4.77478 7.7754 3.96306C7.29544 3.67658 6.86348 3.2946 6.43151 2.96036C6.23952 2.76937 5.99954 2.62613 5.80756 2.48288C4.12768 1.19369 2.15983 0.334235 0.0479963 3.64286e-07L7.32366e-07 0.381982C2.01585 0.716216 3.9357 1.57568 5.56757 2.81712C5.75956 2.91261 5.95154 3.1036 6.14353 3.24685Z" transform="translate(35.2292 24.4469)" fill="black"/>
<path d="M7.8234 10.2658C7.19945 9.40631 6.67149 8.4036 6.14353 7.49639C5.51958 6.3982 4.89563 5.25225 4.12769 4.24955L4.46366 4.58378C4.75164 4.87027 5.08761 5.25225 5.56758 5.3955L5.66357 5.01351C5.2796 4.91802 4.99162 4.58378 4.75164 4.34504L0.911929 0.286486C0.76794 0.143242 0.527961 0 0.287979 0C0.14399 0 0.0479949 0.0954962 -1.46473e-06 0.190992L0.335975 0.381982C0.383971 0.381982 0.52796 0.429729 0.623952 0.525224L2.01585 2.00541C1.58388 1.67117 1.05592 1.33694 0.527961 1.0982L0.335975 1.43243C2.87978 2.62613 4.36766 5.2045 5.75956 7.68739C6.28752 8.64234 6.86348 9.5973 7.48743 10.5045C10.0792 14.3243 14.2069 17.0937 18.7666 18.0486L18.8626 17.6667C14.3989 16.7117 10.3672 13.9901 7.8234 10.2658Z" transform="translate(32.4934 27.2163)" fill="black"/>
<path d="M10.4632 0.334234L10.2712 -7.28573e-07C9.02331 0.716215 8.01539 2.05315 7.39144 3.86757C7.10346 4.67928 6.91147 5.53874 6.71949 6.3982C6.5755 7.11441 6.38351 7.83063 6.14353 8.54685C5.61557 10.2658 4.75164 11.8892 3.8877 13.4649L0 20.7225L0.335975 20.9135L4.22368 13.6559C5.08761 12.0802 5.95154 10.4568 6.4795 8.69009C6.71949 7.97388 6.86348 7.25766 7.05546 6.54144C7.24745 5.72973 7.43943 4.87027 7.72741 4.05856C8.20737 2.81712 9.02331 1.14595 10.4632 0.334234Z" transform="translate(16.0786 28.4576)" fill="black"/>
<path d="M10.0792 1.71892C11.0872 1.0982 12.0951 0.62072 13.055 0.381981L12.959 -3.64286e-07C11.9511 0.238738 10.8952 0.716217 9.88724 1.38469C8.35136 2.33964 7.05546 3.62883 5.75956 4.87027C4.03169 6.54144 2.20783 8.26036 1.83091e-07 9.16757L0.143989 9.54955C2.44781 8.5946 4.27167 6.87568 6.04754 5.15676C7.24745 3.91531 8.59134 2.67387 10.0792 1.71892Z" transform="translate(12.0471 25.6882)" fill="black"/>
<path d="M5.59204 2.27637C5.35205 1.32142 4.63211 0.509707 3.67218 0.175473C2.76025 -0.158762 1.65634 -0.0155176 0.840399 0.605203C0.552421 0.843942 0.168452 1.17818 0.0244629 1.7034C-0.0715297 2.22863 0.120456 2.75385 0.504426 3.04034L0.69641 2.7061C0.408432 2.56286 0.312439 2.18088 0.360436 1.7989C0.456428 1.46466 0.648414 1.17818 1.03239 0.891689C1.70433 0.366464 2.66426 0.270968 3.4802 0.557454C4.29613 0.843941 4.92009 1.56016 5.16007 2.37187L5.59204 2.27637Z" transform="translate(26.3254 23.3641)" fill="black"/>
<path d="M2.30382 1.12676C2.35182 1.03126 2.39982 0.888017 2.39982 0.744773C2.39982 0.506035 2.20783 0.267296 1.96785 0.124053C1.72787 -0.0191902 1.39189 -0.0191906 1.10392 0.0285572C0.911931 -0.0191906 0.671948 -0.0191902 0.431967 0.124053C0.143989 0.267296 7.32366e-07 0.553783 7.32366e-07 0.840269C7.32366e-07 1.36549 0.479962 1.84297 1.05592 1.89072C1.05592 1.89072 1.05592 1.89072 1.10392 1.89072C1.53588 1.89072 2.01585 1.55648 2.30382 1.12676ZM1.96785 0.935763C1.77586 1.27 1.43989 1.50874 1.05592 1.50874C0.719944 1.50874 0.383971 1.1745 0.383971 0.888016C0.383971 0.744773 0.479963 0.60153 0.575955 0.506035L0.767941 0.649278C1.00792 0.362791 1.43989 0.315043 1.77586 0.458286C1.87186 0.506034 2.01585 0.60153 2.01585 0.744773C2.01585 0.792521 1.96785 0.840268 1.96785 0.935763Z" transform="translate(27.7898 24.4183)" fill="black"/>
<path d="M1.67987 0.4947C1.63187 0.255961 1.43989 0.0649701 1.15191 0.0172224C0.911931 -0.0305254 0.671949 0.0172213 0.52796 0.208212L0.671949 0.351455C0.623953 0.303707 0.52796 0.303708 0.431967 0.303708C0.239982 0.351456 0.14399 0.446951 0.0479971 0.590194L-3.66183e-07 0.637943V0.68569C0.0959923 1.11542 0.479964 1.44965 0.911931 1.44965C0.911931 1.44965 0.91193 1.44965 0.959926 1.44965C1.19991 1.44965 1.43989 1.30641 1.58388 1.11542C1.67987 0.924429 1.72787 0.685691 1.67987 0.4947ZM1.24791 0.876682C1.15191 0.972177 1.05592 1.06767 0.959926 1.06767C0.767941 1.06767 0.527959 0.924429 0.479963 0.68569C0.479963 0.68569 0.479964 0.68569 0.52796 0.68569C0.575957 0.68569 0.575955 0.68569 0.623952 0.68569L0.911931 0.446951C1.00792 0.351456 1.10392 0.399204 1.15191 0.399204C1.24791 0.399204 1.3439 0.494698 1.39189 0.590194C1.3439 0.685689 1.2959 0.781186 1.24791 0.876682Z" transform="translate(27.262 26.4351)" fill="black"/>
<path d="M0.673894 1.62342C0.72189 1.62342 0.769886 1.62342 0.817882 1.62342C1.05786 1.62342 1.24985 1.52793 1.39384 1.38468C1.58582 1.19369 1.63382 0.907208 1.53783 0.620721C1.44183 0.334235 1.24985 0.143244 1.00987 0.0477481L0.913875 0.42973C1.05786 0.477477 1.15386 0.572972 1.20185 0.716215C1.24985 0.859459 1.20185 1.0027 1.15386 1.0982C1.05786 1.19369 0.913876 1.24144 0.769887 1.19369C0.625898 1.19369 0.481908 1.0982 0.433912 0.954954C0.385916 0.811711 0.385915 0.668468 0.481908 0.572973C0.5779 0.429729 0.673893 0.381983 0.817882 0.381983V-7.28573e-07C0.577901 -7.28573e-07 0.289922 0.143244 0.145933 0.381983C0.00194399 0.620721 -0.0460509 0.907207 0.0499418 1.14595C0.145934 1.38468 0.385916 1.57568 0.673894 1.62342Z" transform="translate(29.4197 26.309)" fill="black"/>
<path d="M4.13585 9.97928C3.75188 8.69009 3.07993 7.4964 2.45598 6.3027C2.21599 5.87297 2.02401 5.44324 1.78403 5.06126C1.11208 3.67658 0.296141 1.86216 0.392134 1.82143e-07H0.00816343C-0.0878292 1.95766 0.680111 3.86757 1.40006 5.3C1.59204 5.72973 1.83202 6.15946 2.07201 6.58919C2.69596 7.73514 3.31991 8.92883 3.70388 10.1703L4.13585 9.97928Z" transform="translate(23.126 12.7009)" fill="black"/>
<path d="M4.60765 6.25496C3.07176 4.24955 1.67987 2.14865 0.335975 -1.82143e-07L0 0.190991C1.2959 2.33964 2.73579 4.44054 4.27167 6.49369L4.60765 6.25496Z" transform="translate(20.8784 14.5153)" fill="black"/>
<path d="M0.959927 0.811712C2.39982 1.28919 3.50373 2.43513 3.9357 3.81982L4.31967 3.72432C3.83971 2.24414 2.6398 1.0027 1.15191 0.477477H1.10392C0.767942 0.381982 0.479964 0.286486 0.383971 -3.64286e-07L7.32366e-07 0.0954955C0.14399 0.525225 0.623953 0.716216 0.959927 0.811712Z" transform="translate(20.5903 18.0487)" fill="black"/>
<path d="M3.31175 2.24414C3.45574 2.38739 3.55173 2.48288 3.69572 2.62613C2.54381 2.1964 1.2479 2.1964 0.0959923 2.57838L0.239981 2.96036C1.53588 2.53063 2.97577 2.62613 4.17568 3.24685L4.22368 3.15135C4.89563 3.81982 5.56757 4.48829 6.4795 4.87027L6.62349 4.48829C5.61557 4.05856 4.84763 3.24685 4.12768 2.43513C3.9837 2.24414 3.79171 2.1009 3.64772 1.90991C2.83178 1.0982 1.58388 0 -7.32366e-07 0V0.381982C1.00792 0.429729 2.06384 1.0027 3.31175 2.24414Z" transform="translate(19.0066 18.3828)" fill="black"/>
<path d="M7.32366e-07 0.179799L0.0959919 0.561781C1.39189 0.275294 2.78379 0.37079 4.03169 0.896015L4.17568 0.514034C2.87978 -0.0111916 1.39189 -0.154435 7.32366e-07 0.179799Z" transform="translate(20.5903 22.3572)" fill="black"/>
<path d="M6.71949 -7.28573e-07C5.08761 -7.28573e-07 3.50373 0.286486 1.96785 0.811711C1.2959 1.05045 0.335974 1.48018 -7.32366e-07 2.38739L0.383971 2.53063C0.671949 1.81442 1.48789 1.43243 2.11184 1.19369C3.59972 0.668468 5.13561 0.381983 6.71949 0.381983V-7.28573e-07Z" transform="translate(17.5667 24.8766)" fill="black"/>
<path d="M0.239981 2.53063C1.72787 1.38468 3.55173 0.620721 5.42359 0.381982L5.37559 3.64286e-07C3.40774 0.238739 1.53588 1.0027 -7.32366e-07 2.24415L0.239981 2.53063Z" transform="translate(17.8066 25.8793)" fill="black"/>
<path d="M4.65564 0C2.87978 1.0027 1.2959 2.38739 -7.32366e-07 3.96306L0.287978 4.2018C1.53588 2.62613 3.07176 1.28919 4.79963 0.334235L4.65564 0Z" transform="translate(20.4463 26.5)" fill="black"/>
<path d="M4.27167 0.334234L4.03169 -3.64286e-07C2.30382 1.28919 0.91193 3.00811 -3.66183e-07 4.91802L0.335974 5.06126C1.2479 3.24685 2.6398 1.57568 4.27167 0.334234Z" transform="translate(21.7424 26.6433)" fill="black"/>
<path d="M1.67268 0.190991L1.33671 7.28573e-07C0.184793 1.76667 -0.247174 3.96306 0.136797 6.01622L0.520767 5.96847C0.184793 3.96306 0.616759 1.86216 1.67268 0.190991Z" transform="translate(25.4932 28.601)" fill="black"/>
<path d="M0.635887 0.0954948L0.251915 7.28573e-07C-0.132056 1.43243 -0.0840588 2.96036 0.443901 4.34505L0.827871 4.2018C0.299911 2.91261 0.251916 1.43243 0.635887 0.0954948Z" transform="translate(26.9141 29.5558)" fill="black"/>
<path d="M3.66183e-07 0.0954962C0.479964 1.67117 0.479963 3.34234 0.047996 4.96577L0.431966 5.06126C0.91193 3.39009 0.863934 1.67117 0.383971 3.64286e-07L3.66183e-07 0.0954962Z" transform="translate(28.1738 29.6991)" fill="black"/>
<path d="M0.52796 0.716217C0.479964 0.477478 0.431966 0.238739 0.38397 3.64286e-07L-3.66183e-07 0.0954962C0.719945 3.39009 1.2959 6.78018 1.63188 10.1703L2.01585 10.1225C1.67987 7.06667 1.19991 4.01081 0.575956 1.05045L2.5918 5.3L2.92778 5.15676L0.815938 0.572974L0.52796 0.716217Z" transform="translate(28.9419 29.6991)" fill="black"/>
<path d="M3.66183e-07 0.19099C0.767942 1.57568 1.67987 2.96036 2.6878 4.2018L2.97577 3.96306C1.96785 2.72162 1.10392 1.38469 0.335975 3.64286e-07L3.66183e-07 0.19099Z" transform="translate(30.3337 29.9377)" fill="black"/>
<path d="M0 0.238739C0.815938 1.0982 1.53588 2.00541 2.11184 3.00811L2.44781 2.81712C1.82386 1.81442 1.10392 0.859459 0.239982 0L0 0.238739Z" transform="translate(31.1975 29.6036)" fill="black"/>
<path d="M2.06384 1.38468C3.50373 2.1964 4.84763 3.1991 5.99954 4.39279L6.28752 4.10631C5.08761 2.91261 3.74371 1.86216 2.25583 1.05045C1.63188 0.668469 0.91193 0.334235 0.143988 3.64286e-07L1.46473e-06 0.381982C0.719946 0.668468 1.43989 1.05045 2.06384 1.38468Z" transform="translate(33.0215 26.8342)" fill="black"/>
<path d="M-7.32366e-07 0.334234C1.96785 0.811711 3.83971 1.67117 5.47158 2.91261L5.56757 3.00811C6.04754 3.39009 6.5755 3.77207 7.19945 3.81982L7.24744 3.43784C6.71948 3.39009 6.23952 3.05586 5.80755 2.72162L5.71156 2.62613C4.07969 1.38468 2.11184 0.477477 0.14399 -7.28573e-07L-7.32366e-07 0.334234Z" transform="translate(33.1655 25.8315)" fill="black"/>
<path d="M0 0.381982C1.67987 0.763964 3.26375 1.33694 4.79963 2.1964L4.99162 1.86216C3.45574 1.0027 1.82386 0.381982 0.0959912 3.64286e-07L0 0.381982Z" transform="translate(33.3574 24.9243)" fill="black"/>
<path d="M-1.46473e-06 1.14595C1.3439 1.05045 2.68779 0.763964 3.9837 0.381982L3.8877 7.28573e-07C2.6398 0.381983 1.2959 0.620721 -1.46473e-06 0.763964V1.14595Z" transform="translate(33.6934 22.1549)" fill="black"/>
<path d="M3.26375 7.28573e-07C2.11184 0.143244 1.00792 0.477477 0 1.0027L0.191986 1.33694C1.15191 0.811712 2.20783 0.477478 3.31175 0.381982L3.26375 7.28573e-07Z" transform="translate(34.7974 23.1099)" fill="black"/>
<path d="M7.32366e-07 2.1964L0.191987 2.53063C2.20783 1.28919 4.51165 0.572973 6.86347 0.381982L6.81548 7.28573e-07C4.46366 0.190992 2.06384 0.954955 7.32366e-07 2.1964Z" transform="translate(33.7896 19.7676)" fill="black"/>
<path d="M4.22368 0.334233L3.98369 7.28573e-07C2.39982 1.14595 1.00792 2.62613 1.46473e-06 4.24955L0.335974 4.44054C1.3439 2.86487 2.68779 1.43243 4.22368 0.334233Z" transform="translate(31.1016 17.3801)" fill="black"/>
<path d="M3.11976 0C1.77586 1.43243 0.719945 3.1036 0 4.96577L0.38397 5.10901C1.10392 3.34234 2.15983 1.71892 3.45573 0.286486L3.11976 0Z" transform="translate(30.2378 15.9955)" fill="black"/>
<path d="M0.191985 0.497255L0.239981 0.40176C0.239981 0.40176 0.239981 0.40176 0.239981 0.449507C0.623952 3.45762 0.719945 6.46572 0.52796 9.52158H0.91193C1.10392 6.46572 1.00792 3.40987 0.623953 0.40176C0.623953 0.354012 0.575957 0.115273 0.383971 0.0197779C0.287979 -0.0279698 0.191985 0.0197781 0.0959923 0.0675259C-3.64753e-07 0.115274 -7.32366e-07 0.258516 -7.32366e-07 0.354012C0.0479956 0.449507 0.143989 0.497255 0.191985 0.497255ZM0.335974 0.115273C0.38397 0.115273 0.431967 0.163021 0.431967 0.210769C0.431967 0.258517 0.431968 0.306265 0.383971 0.306265C0.335975 0.354012 0.287977 0.354012 0.239981 0.306265L0.335974 0.115273Z" transform="translate(28.126 10.7712)" fill="black"/>
<path d="M1.58388 8.26036C1.3439 5.49099 0.91193 2.72162 0.383971 -3.64286e-07L3.66183e-07 0.0954955C0.52796 2.81712 0.911931 5.58649 1.19991 8.30811L1.58388 8.26036Z" transform="translate(26.2539 11.364)" fill="black"/>
<path d="M2.49581 0.143243L2.11184 -3.64286e-07C1.48788 1.76667 0.767941 3.53333 -3.66183e-07 5.25225L0.335974 5.39549C1.15191 3.67658 1.87186 1.90991 2.49581 0.143243Z" transform="translate(29.4219 11.6027)" fill="black"/>
</svg>
