<svg width="69" height="54" viewBox="0 0 69 54" fill="none" xmlns="http://www.w3.org/2000/svg">
<path d="M2.9984 1.901C2.49382 1.80095 2.03969 1.75092 1.5351 1.65087C1.83785 2.15113 2.14061 2.70142 2.3929 3.20168C2.49382 2.55134 6.22776 2.50131 6.53052 2.50131C8.09474 2.50131 9.65896 2.80147 11.1223 3.25171C12.7369 3.70194 18.4388 5.55292 18.1865 7.8041C18.136 8.40441 17.5305 8.7546 17.4801 9.40494C17.4296 9.75512 17.6314 10.1053 17.6819 10.4555C17.8333 11.506 17.6819 12.1064 17.581 13.0068C17.3791 14.6577 17.3791 15.9584 18.8929 16.9589C18.8929 16.2585 18.8929 15.5081 18.8929 14.8078C18.792 14.8578 16.4709 12.4065 16.0168 12.1564C14.6544 11.3059 13.0397 11.0558 11.6773 10.2554C8.90207 8.55449 7.33786 5.35281 5.92501 2.55134C5.5718 3.20168 5.21859 3.802 4.81492 4.45234C7.69107 4.05213 10.5672 4.45234 13.0397 5.85307C14.3012 6.55344 15.5626 7.55397 16.2691 8.85465C16.4709 9.25486 17.0259 10.4555 16.8241 10.9057C17.1773 10.1553 16.3195 10.1553 15.7645 9.80515C14.503 9.15481 13.292 8.45444 12.0305 7.8041C11.0213 7.25381 9.40666 5.95313 8.29657 5.80305C7.74153 5.40284 7.74153 5.55292 8.29657 6.15323C8.44795 6.55344 8.70024 6.80357 9.10391 6.90362C9.65896 7.30383 10.4158 7.50394 10.9709 7.8041C12.3837 8.50447 13.6452 9.35491 14.8057 10.4055C15.9663 11.506 17.7828 9.75512 16.5718 8.65454C13.948 6.1032 10.9709 4.25223 7.59015 2.8515C7.38831 3.65192 7.13602 4.45234 6.93419 5.25276C10.3654 6.35334 13.5443 7.90415 16.5213 9.95523C17.8837 10.8557 19.1452 8.70457 17.7828 7.8041C14.6039 5.65297 11.2232 4.0021 7.59015 2.8515C6.02593 2.35123 5.47088 4.65244 6.93419 5.25276C9.91125 6.45339 12.5351 8.20431 14.8057 10.4055C15.4113 9.80515 16.0168 9.20483 16.5718 8.65454C14.6544 6.8536 12.3837 5.65297 9.96171 4.60242C8.59933 4.0021 6.68189 3.15165 5.5718 4.7525C4.46171 6.40336 6.12684 7.50394 7.38831 8.20431C10.1131 9.7051 12.9892 11.6061 15.9158 12.7567C20.3057 14.5076 19.3975 8.80462 17.7828 6.70352C14.9571 2.8515 9.55804 1.40074 4.91584 1.80095C3.95712 1.901 3.35162 2.80147 3.80574 3.70194C5.5718 7.10373 7.59015 10.8057 11.1223 12.6566C11.9296 13.0569 12.7874 13.307 13.6452 13.6572C15.058 14.2575 15.714 15.158 16.7232 16.2085C17.7828 17.2591 18.8929 17.7593 20.2048 16.9089C21.0122 16.3586 21.0122 15.258 20.2048 14.7577C19.5489 14.3575 20.4571 12.5566 20.5076 12.0563C20.6085 11.3059 20.4067 10.9057 20.4067 10.1553C20.4067 9.40494 20.8608 9.05475 21.0122 8.30436C21.4663 5.65297 18.0351 3.50184 16.0672 2.50131C13.1406 1.05055 9.86079 0.0500263 6.58097 5.9636e-09C4.66354 5.9636e-09 0.37455 0.100052 0.0213388 2.55134C-0.0795786 3.15165 0.172717 3.95207 0.87914 4.10215C1.38373 4.20221 1.83785 4.25223 2.34244 4.35228C3.90666 4.55239 4.61308 2.15113 2.9984 1.901Z" transform="translate(35.8137 0.121704)" fill="#399888"/>
<path d="M7.38134 10.4454C6.67491 11.596 6.06941 12.7466 5.51436 13.9473C6.3217 14.1474 7.07858 14.3475 7.88592 14.5976C7.63363 9.29483 5.61528 4.49231 2.08317 0.490207C1.57858 1.14055 1.07399 1.79089 0.569406 2.44123C5.86757 6.34328 8.8951 12.4465 8.94555 18.8999C8.94555 20.5007 11.4685 20.5007 11.4685 18.8999C11.418 11.446 7.83546 4.69241 1.83087 0.240075C0.619865 -0.660398 -0.591145 1.19057 0.317112 2.1911C3.44555 5.64291 5.16115 9.89515 5.41344 14.4976C5.4639 15.5981 7.22996 16.3485 7.78501 15.1479C8.34005 13.9473 8.94556 12.7967 9.65198 11.6461C10.4089 10.2954 8.23913 9.0447 7.38134 10.4454Z" transform="translate(50.3528 4.43396)" fill="#399888"/>
<path d="M0.0183708 6.50492C0.472499 9.20634 1.12846 11.8577 1.9358 14.5091C2.44039 16.11 2.69268 18.011 4.40828 18.6113C5.06424 18.8614 5.72021 18.3611 5.9725 17.7608C7.48626 13.5586 5.9725 8.40592 5.41745 4.10366C4.61011 4.20371 3.75232 4.30376 2.94498 4.45384C4.55966 8.65605 7.33489 12.6081 7.4358 17.2105C8.14223 16.9104 8.84865 16.6102 9.60553 16.3101C6.52755 12.5081 6.98168 8.65605 7.28443 4.10366C7.53672 0.351687 5.77067 0.251635 2.49085 0.00150358C2.49085 0.85195 2.49085 1.65237 2.49085 2.50282C3.60094 2.45279 4.76149 2.75295 5.61929 3.45332C7.23397 4.754 6.93122 6.00466 6.88076 7.65552C6.77984 9.65657 6.72938 11.6576 6.62846 13.6587C6.578 15.2595 9.10095 15.2595 9.1514 13.6587C9.25232 11.6576 9.30278 9.65657 9.4037 7.65552C9.45416 6.25479 9.75691 4.60392 9.10094 3.30324C7.99085 1.15211 4.81195 -0.0485227 2.49085 0.00150358C0.87617 0.0515298 0.87617 2.40276 2.49085 2.50282C2.84406 2.55284 4.55966 2.40276 4.86241 2.70292C5.1147 3.00308 4.71103 5.10418 4.71103 5.45437C4.55966 7.20529 4.35782 8.90618 4.55966 10.7071C4.91287 13.5086 6.12388 15.9099 7.88994 18.061C8.59636 18.9114 10.0597 18.2111 10.0597 17.1605C9.95874 12.2079 7.23397 8.20581 5.51837 3.70345C5.06424 2.50282 2.84406 2.50282 3.04589 4.05363C3.55048 8.0057 5.06425 13.1584 3.70186 17.0104C4.20645 16.7103 4.76149 16.4101 5.26608 16.16C4.71103 15.9599 4.00461 11.9078 3.80278 11.1574C3.34865 9.40644 2.94498 7.60549 2.64222 5.80455C2.18809 4.25374 -0.233923 4.9541 0.0183708 6.50492Z" transform="translate(56.7065 10.3256)" fill="#399888"/>
<path d="M0.706422 0C0.655963 0 0.605504 0 0.605504 0C-0.201836 0 -0.201836 1.25066 0.605504 1.25066C0.655963 1.25066 0.706422 1.25066 0.706422 1.25066C1.51376 1.25066 1.51376 0 0.706422 0Z" transform="translate(29.1746 19.9822)" fill="#399888"/>
<path d="M39.3095 9.63237C36.3829 8.33168 34.3645 7.53126 31.337 7.13105C29.8232 6.93095 28.3599 6.83089 26.8462 6.68082C28.4104 6.88092 29.9746 7.08103 31.5388 7.33116C31.1352 7.28113 30.7315 7.13105 30.3783 6.98097C31.7911 7.58129 33.204 8.1816 34.6168 8.73189C34.4655 8.63184 34.3141 8.48176 34.1627 8.38171C36.282 10.4828 38.4012 12.5839 40.5205 14.685C40.4196 14.5349 40.2682 14.3849 40.1673 14.2348C40.7728 15.6355 41.3783 17.0363 41.9333 18.437C41.8829 18.1869 41.8324 17.9367 41.7315 17.6866C41.9333 19.2374 42.1352 20.7882 42.3875 22.339C42.4379 22.0889 42.4379 21.8388 42.4884 21.5886C42.2866 23.1395 42.0847 24.6903 41.8324 26.2411C41.9333 25.991 42.0343 25.7408 42.1352 25.4907C41.5297 26.8914 40.9242 28.2922 40.3691 29.6929C40.47 29.4428 40.6214 29.2427 40.7223 28.9925C43.3462 23.7898 43.8508 18.6371 41.5801 13.2843C39.6627 8.83195 35.3737 3.87934 30.126 3.17898C29.9242 3.12895 29.7223 3.12895 29.5205 3.07892C30.9333 3.67924 32.3462 4.27956 33.759 4.82984C33.5572 4.72979 33.4058 4.62974 33.204 4.52969C35.3232 6.63079 37.4425 8.73189 39.5618 10.833C39.4609 10.6829 39.3095 10.5328 39.2086 10.3828C40.0159 13.3343 40.8233 16.2859 41.6306 19.2374C41.6306 19.0373 41.6306 18.8372 41.6306 18.6371C40.8233 21.5886 40.0159 24.5402 39.2086 27.4917C39.3095 27.3417 39.4609 27.1916 39.5618 26.9915C36.0297 29.6929 32.548 32.3443 29.0159 35.0457C29.2177 34.9957 29.3691 34.9957 29.571 34.9457C25.0297 24.2901 20.4884 13.6345 15.9471 2.92885C15.7957 2.97887 15.6948 3.0289 15.5434 3.07892C20.0847 2.47861 24.626 1.87829 29.1673 1.32801C29.0159 1.32801 28.8645 1.27798 28.7132 1.27798C31.2866 2.77877 33.9104 4.27956 36.4838 5.78034C36.3829 5.68029 36.282 5.58024 36.1306 5.53021C37.6444 8.08155 39.1581 10.6829 40.6719 13.2343C40.6214 13.0842 40.571 12.9841 40.5205 12.834C38.704 6.93095 34.3645 2.2785 28.259 0.627638C21.6489 -1.17331 16.1489 1.07787 11.0526 5.13C4.4425 10.4328 0.153513 17.7866 0.00213668 26.3912C-0.0987808 32.2943 3.38287 38.7477 8.7315 41.4991C14.3829 44.4506 19.782 44.8509 26.0388 45.5512C24.4746 45.3511 22.9104 45.151 21.3462 44.9009C22.7086 45.101 23.9196 45.4011 25.181 45.9014C23.7682 45.3011 22.3554 44.7008 20.9425 44.1505C25.6352 46.3016 29.7728 48.0525 35.071 47.9525C32.0939 47.1521 29.1168 46.3516 26.1398 45.5512C26.2407 45.6012 26.3416 45.7013 26.493 45.7513C23.5664 40.7987 20.6902 35.7461 17.7636 30.6934C18.3187 36.7466 20.0343 41.4991 24.9792 45.2511C29.571 48.7529 35.5755 50.0036 41.1765 48.3027C47.3829 46.4517 51.8233 41.7993 53.7911 35.7461C55.5067 30.5433 53.993 25.2406 51.6214 20.5881C47.4838 12.4338 35.1719 9.43226 27.5021 14.3348C19.0251 19.7377 16.704 29.5428 21.1443 38.2974C21.2453 38.4975 21.3462 38.6476 21.3966 38.8477C20.7911 37.447 20.1856 36.0462 19.6306 34.6455C19.681 34.8456 19.7315 35.0457 19.782 35.1958C19.5801 33.645 19.3783 32.0942 19.126 30.5433C19.126 30.7434 19.0755 30.9436 19.0755 31.0936C20.7911 26.9915 22.5067 22.8393 24.2728 18.7371C24.1719 18.8372 24.071 18.9372 23.97 19.0873C26.5434 17.5865 29.1673 16.0858 31.7407 14.585C31.5893 14.635 31.4379 14.685 31.337 14.735C34.4655 14.735 37.5939 14.735 40.7223 14.735C40.571 14.735 40.47 14.685 40.3187 14.685C43.8508 17.3864 47.3324 20.0378 50.8645 22.7392C50.8141 22.6392 50.7132 22.5391 50.6627 22.4391C51.47 25.3906 52.2774 28.3422 53.0847 31.2937C52.8324 28.5923 52.5297 26.4412 51.5205 24.0399C50.0572 20.6381 47.6352 17.5365 44.3049 15.6855C41.0251 13.8846 37.5434 13.0842 33.759 13.0842C35.3233 13.2843 36.8875 13.4844 38.4517 13.7345C37.5939 13.5844 36.8875 13.3343 36.0801 13.0342C37.493 13.6345 38.9058 14.2348 40.3187 14.7851C37.4425 13.4844 34.6168 11.9836 31.4884 11.4333C28.3599 10.833 25.181 10.6329 22.0526 10.3327C23.6168 10.5328 25.181 10.7329 26.7453 10.9831C25.4333 10.783 24.2223 10.5328 23.0113 10.0326C24.4242 10.6329 25.837 11.2332 27.2499 11.7835C26.9976 11.6834 26.7957 11.5334 26.5434 11.4333C29.47 16.486 32.3966 21.4886 35.2728 26.5412C35.2728 26.2911 35.2728 25.991 35.2728 25.7408C35.071 27.2916 34.8691 28.8424 34.6168 30.3933C34.7177 29.5428 34.9196 28.8925 35.2223 28.0921C34.6168 29.4928 34.0113 30.8935 33.4563 32.2943C33.8095 31.5439 34.2132 30.9436 34.7177 30.2432C33.8095 31.4438 32.9012 32.5944 31.9425 33.7951C33.1535 32.3443 34.5664 31.1937 36.0297 29.9931C26.1902 27.4417 16.3508 24.8403 6.51131 22.289C8.32783 27.8419 11.759 31.9941 17.2086 34.2953C19.7315 35.3459 21.3462 35.9962 24.4242 35.8962C27.9058 35.7461 30.4792 34.7455 33.7086 33.3448C37.3416 31.794 40.9746 26.5913 41.8324 22.8893C42.7407 18.9873 42.5388 15.1853 40.9242 11.4833C39.5113 8.13158 37.0388 4.87987 33.7086 3.12895C29.2682 0.777717 25.0297 0.577611 20.0847 1.37803C11.8095 2.47861 6.1581 11.3333 6.25902 19.2374C6.35994 27.0415 12.4654 35.7961 20.7407 36.9467C17.2086 28.3922 13.7269 19.7877 10.1948 11.2332C6.25902 18.8372 5.90581 27.0915 11.3554 34.0952C15.8462 39.8983 22.0021 41.349 29.0159 41.8493C27.4517 41.6492 25.8875 41.4491 24.3232 41.1989C24.5755 41.249 24.8278 41.299 25.0801 41.349C23.6673 40.7487 22.2544 40.1484 20.8416 39.5981C21.0434 39.6982 21.2957 39.7982 21.4976 39.8983C25.9379 41.8993 30.1765 42.9999 35.1214 41.6492C39.2086 40.5486 43.6489 37.3969 45.6673 33.5949C47.837 29.5428 48.8967 24.5902 47.4333 20.0879C46.1214 16.0357 43.4471 11.4833 39.3095 9.63237Z" transform="translate(6.46606 0.694702)" fill="#399888"/>
<path d="M5.499 10.8857C5.39809 11.0858 4.8935 11.486 5.65038 10.9857C5.90267 10.8357 6.15497 10.6856 6.30634 10.4355C6.65955 9.98522 7.11368 9.13477 7.31552 8.58448C7.92102 6.88359 6.6091 6.23325 5.7513 5.03262C5.34763 4.53236 4.94396 3.83199 4.84304 3.23167C4.74212 2.53131 4.74212 2.13109 4.23753 1.53078C3.27882 0.430202 1.96689 -0.570323 0.554046 0.380176C-0.757881 1.28065 0.503587 3.4818 1.81551 2.53131C2.16873 2.28117 2.37056 3.93204 2.42102 4.13215C2.67332 4.98259 3.22836 5.93309 3.83386 6.63346C3.98524 6.78354 4.79258 7.4839 4.84304 7.68401C4.79258 7.4839 4.69166 8.03419 4.54029 8.2343C4.33845 8.58448 4.38891 8.58448 4.13662 8.83461C3.83387 9.13477 3.48065 9.13477 3.27882 9.58501C2.67331 11.0858 4.84304 12.3365 5.499 10.8857Z" transform="translate(39.8728 16.4503)" fill="#399888"/>
<path d="M17.3578 0.719126C15.6422 2.42002 14.078 3.92081 11.6055 2.82023C9.99083 2.06984 8.42661 1.56957 6.71101 2.31997C3.7844 3.5206 1.96789 6.97241 1.96789 9.97398C1.96789 12.2252 2.01835 14.0261 1.31193 16.2773C0.756881 18.0782 -4.81212e-08 19.8792 -4.81212e-08 21.8302C-4.81212e-08 25.8323 2.92661 28.2836 6.05505 30.2346C8.0734 31.4853 10.0917 29.4342 9.73853 27.4332C9.23395 24.3815 9.03211 21.3299 9.23395 18.2283C9.38532 15.9271 9.33487 11.5248 11.1514 9.87393C13.5229 7.67278 9.94037 4.12091 7.56881 6.32207C4.99541 8.72333 4.74312 12.9756 4.38991 16.3273C3.93578 20.4795 4.23853 24.6317 4.94496 28.7338C6.15597 27.7833 7.41743 26.8328 8.62844 25.9324C7.46789 25.182 6.00459 24.4316 5.39908 23.1309C4.6422 21.6301 5.44954 19.8792 5.95413 18.4284C6.45872 16.9276 6.86239 15.4769 7.01376 13.876C7.16514 12.3752 6.76147 10.7244 7.01376 9.27362C7.11468 8.6733 7.51835 8.12301 7.92202 7.7228C8.57798 6.97241 8.57798 7.12249 9.43578 7.32259C10.9495 7.7228 12.0092 8.4732 13.6743 8.37314C16.6514 8.22307 18.9725 6.22202 20.9908 4.27099C23.2615 2.01981 19.6789 -1.53206 17.3578 0.719126Z" transform="translate(1.52319 3.75488)" fill="#399888"/>
<path d="M5.21226 0.798157C2.68932 3.5496 -2.60885 10.2531 1.52877 13.5048C6.37281 17.3068 11.2168 13.1546 16.2123 12.1541C18.9875 11.6038 18.382 7.10147 15.5563 7.25155C14.2948 7.30157 13.3361 7.00141 12.226 6.30105C11.7214 6.00089 11.2673 5.65071 10.8132 5.2505C10.0058 4.3 9.804 4.65018 10.2077 6.35107C8.64345 5.95086 7.07923 5.50063 5.51501 5.10041C5.46455 6.70126 5.06088 7.90189 4.15262 9.2526C2.89115 11.1536 4.95996 13.3547 6.97831 12.9045C7.23061 12.8545 7.43244 12.8045 7.68473 12.7544C10.8636 12.0541 9.50125 7.20152 6.32235 7.95191C6.07005 8.00194 5.86822 8.05196 5.61593 8.10199C6.57464 9.30262 7.53336 10.5533 8.44161 11.7539C9.804 9.70283 10.4095 7.50168 10.46 5.10041C10.5104 2.5991 7.02877 1.69863 5.7673 3.84976C2.99207 8.55223 11.9233 12.4543 15.5058 12.3042C15.304 10.6533 15.0517 9.05249 14.8499 7.40162C12.882 7.80183 11.1159 8.5022 9.29941 9.2526C8.13886 9.75286 5.56547 11.1036 4.65721 9.55275C4.75813 10.2031 4.80859 10.8534 4.9095 11.5038C5.26271 8.85239 6.97831 6.35107 8.79482 4.40005C10.9646 1.94876 7.38198 -1.6031 5.21226 0.798157Z" transform="translate(0.397949 31.1403)" fill="#399888"/>
<path d="M7.77699 0.191013C4.54763 1.4917 0.20818 4.14309 0.00634471 8.04514C-0.0945728 9.89611 1.01552 11.7471 2.83203 12.3474C3.63937 12.5975 4.59809 12.5475 5.35497 12.2473C5.70818 12.0973 6.16231 11.9472 6.46506 11.647C6.61644 11.4969 6.81827 11.3969 6.96965 11.2468C6.46506 11.0967 6.46506 11.1468 6.91919 11.3469C8.88708 12.0472 10.3504 13.1478 12.5706 12.6476C14.8917 12.1473 16.5568 10.6965 19.1302 11.1468C22.9146 11.7971 27.2541 12.3474 28.7678 7.84503C29.3229 6.19417 27.8596 4.79343 26.3458 4.69338C20.0889 4.19311 13.7816 3.94298 7.47424 3.89296C4.24488 3.84293 4.24488 8.84556 7.47424 8.89558C13.7816 8.94561 20.0385 9.19574 26.3458 9.696C25.5385 8.64545 24.7311 7.5949 23.9238 6.54435C23.6715 7.29474 18.1715 5.99406 17.3137 6.04409C16.1027 6.09411 14.9421 6.34425 13.832 6.79448C12.7219 7.24472 11.9146 7.94508 10.7036 7.64493C8.68525 7.14466 7.52469 5.4938 5.25405 6.49433C5.10268 6.54435 3.94213 7.09464 3.94213 7.34477C4.44671 7.49485 4.90084 7.64493 5.40543 7.79501C5.55681 7.5949 5.75864 7.44482 5.91002 7.24472C7.07057 6.59438 7.87791 5.59385 9.18983 5.04356C12.1164 3.79291 10.8045 -1.00962 7.77699 0.191013Z" transform="translate(13.425 40.402)" fill="#399888"/>
<path d="M15.9956 4.91316C17.0552 4.81311 18.2662 4.56298 19.0231 5.46345C19.6286 6.21385 19.78 7.56456 20.0323 8.46503C20.6378 10.5161 21.9497 13.2175 21.2937 15.3687C20.2846 18.8205 15.8442 21.2217 16.2479 25.1738C16.5002 27.525 18.4176 27.1749 19.8304 28.3755C22.8075 30.9268 17.5598 31.1269 16.1974 31.327C13.8763 31.6272 12.2112 32.9279 10.2433 34.0285C7.82125 35.3792 5.1974 35.8294 2.42217 35.6293C2.42217 37.2802 2.42217 38.9811 2.42217 40.6319C5.65152 40.732 9.03226 40.4318 12.0093 39.2312C14.7341 38.0806 16.702 35.9295 18.7708 33.9784C20.4359 32.3776 23.4635 30.3265 21.9497 27.6251C20.6882 25.3239 17.257 26.0743 17.0552 22.8226C16.8534 19.6209 11.8075 19.6209 12.0093 22.8226C12.1102 24.7236 12.6653 26.4245 13.8763 27.9252C14.4818 28.6256 15.1882 29.276 15.9451 29.7762C16.3488 30.0264 16.7524 30.2265 17.2066 30.3765C18.0644 30.8268 18.1148 30.6767 17.4084 29.9763C17.5093 29.326 17.5598 28.6756 17.6607 28.0253C16.9038 29.1259 15.5414 30.0764 14.5827 31.0269C13.624 31.9774 12.6653 33.0279 11.5552 33.8283C9.03226 35.6293 5.44969 35.7794 2.42217 35.6293C-0.857652 35.4792 -0.756735 40.3818 2.42217 40.6319C5.90382 40.882 9.33501 40.2317 12.413 38.5808C14.0781 37.6804 15.3901 36.5298 17.358 36.2796C18.8717 36.0295 20.2846 36.1296 21.7479 35.5292C24.1699 34.5287 26.1882 31.9774 25.9864 29.276C25.835 27.7752 24.9772 26.5245 23.968 25.474C23.413 24.8736 22.8075 24.2733 22.0506 23.8731C21.4451 23.5229 20.6882 23.4729 20.1332 23.1227C20.5369 23.623 20.8901 24.1232 21.2937 24.6235C21.5965 25.8241 21.4451 24.7236 21.7479 24.0732C22.0506 23.4729 22.4543 22.9226 22.8075 22.4224C23.5644 21.3218 24.4726 20.3213 25.1286 19.1707C26.5414 16.7194 26.7937 14.2181 26.1378 11.4666C25.4313 8.71516 24.7754 5.26335 23.2112 2.81206C21.5965 0.260722 18.7708 -0.189515 15.9956 0.0606164C12.8167 0.210695 12.7662 5.21332 15.9956 4.91316Z" transform="translate(42.0413 9.71619)" fill="#399888"/>
<path d="M9.37995 6.62969C10.2377 4.62864 9.73316 1.62707 7.71481 0.426438C5.44417 -0.924271 2.61848 1.27688 0.650585 2.27741C-0.812719 3.0278 0.44875 5.07888 1.91205 4.42854C2.71939 4.07835 3.87994 3.67815 4.73774 3.82822C5.646 3.9783 6.35242 5.12891 6.85701 5.82927C7.81572 7.07993 10.0359 5.8793 9.02674 4.57862C8.06802 3.32796 7.1093 1.72712 5.44416 1.42696C3.82948 1.12681 2.11389 1.62707 0.650585 2.27741C1.05425 2.97778 1.50838 3.72817 1.91205 4.42854C3.02215 3.82822 4.13224 3.12786 5.34325 2.67762C6.10013 2.37746 6.45334 2.47751 6.90747 3.17788C7.26068 3.72817 7.46252 4.7287 7.21022 5.32901C6.60472 6.8298 8.77444 8.13048 9.37995 6.62969Z" transform="translate(26.7073 5.69836)" fill="#226957"/>
<path d="M0.606795 2.28872C2.37285 3.3893 2.82698 5.44037 1.76734 7.19129C2.52422 7.29135 3.2811 7.3914 4.08844 7.49145C3.83615 6.4409 3.02881 5.89061 1.96918 5.84059C2.37285 6.39087 2.77652 6.89114 3.18019 7.44143C3.23065 7.29135 3.23065 7.14127 3.28111 7.04122C2.72606 7.19129 2.12055 7.34137 1.56551 7.49145C2.47376 7.99171 3.68478 8.99224 4.74441 8.3419C5.09762 8.14179 5.34991 7.69156 5.50129 7.29135C5.60221 6.89114 5.34992 6.14074 5.40037 5.99066C5.80404 4.43985 3.38202 3.78951 2.97835 5.34032C2.9279 5.54043 3.02881 6.64101 3.02881 6.64101C3.28111 6.4409 3.5334 6.2408 3.78569 6.09072C4.34074 5.99066 3.02881 5.4904 2.82698 5.39035C2.27193 5.09019 1.41413 5.19024 1.11138 5.84059C0.960006 6.19077 0.808627 6.4409 0.758169 6.84111C0.606792 7.64153 1.11138 8.39192 1.96918 8.44195C1.86826 8.39192 1.76734 8.3419 1.66643 8.29187C1.91872 9.39245 3.43248 9.4925 3.98753 8.59203C5.75358 5.64048 4.84533 2.08862 1.91872 0.237644C0.505876 -0.712856 -0.80605 1.43827 0.606795 2.28872Z" transform="translate(34.3201 5.73718)" fill="#226957"/>
<path d="M1.1987 2.5127C4.62989 2.91291 4.27668 6.26467 4.32714 8.91606C4.3776 10.5169 6.90054 10.5169 6.85008 8.91606C6.79962 6.91501 6.951 4.6138 5.94182 2.76283C4.93265 0.961884 3.11613 0.261516 1.14824 0.0113851C-0.415979 -0.18872 -0.365521 2.31259 1.1987 2.5127Z" transform="translate(34.3335 3.56213)" fill="#226957"/>
<path d="M4.47545 0.175348C3.86995 0.525532 3.61765 0.925742 3.51673 1.62611C3.46627 2.02632 3.51673 2.3765 3.21398 2.67666C2.96169 2.92679 2.20481 3.02684 1.90206 3.27698C0.489211 4.22747 0.388293 6.77881 0.0350816 8.2796C-0.31813 9.83042 2.10389 10.5308 2.4571 8.92994C2.65894 8.0795 2.86077 7.22905 3.06261 6.42863C3.16352 5.97839 3.16352 5.67824 3.56719 5.37808C3.81949 5.12795 4.1727 5.07792 4.47545 4.92784C4.92958 4.67771 5.28279 4.2775 5.53508 3.82726C5.636 3.62716 6.24151 2.12637 5.73692 2.3765C7.14976 1.52606 5.88829 -0.625073 4.47545 0.175348Z" transform="translate(21.4697 5.84937)" fill="#226957"/>
<path d="M9.62101 2.5078C11.8412 2.70791 9.72192 6.10969 9.16688 7.06019C8.51091 8.16077 7.95587 9.31137 7.50174 10.562C6.39165 13.4135 5.07972 17.5657 1.24486 17.2656C1.54761 17.9659 1.85037 18.6663 2.15312 19.4167C5.07972 15.7147 7.19899 11.6626 8.51092 7.11022C8.96505 5.5594 6.54303 4.90906 6.0889 6.45988C4.87789 10.562 3.01091 14.314 0.336602 17.6658C-0.36982 18.5162 0.0843079 19.7168 1.24486 19.8169C7.24945 20.2171 8.56137 13.8137 10.6302 9.66156C11.6394 7.61048 13.4054 5.75951 13.1531 3.30822C12.9513 1.3572 11.5384 0.156568 9.67147 0.00648929C8.00633 -0.143589 8.00633 2.35772 9.62101 2.5078Z" transform="translate(31.7646 5.66809)" fill="#226957"/>
<path d="M2.12582 4.72862C2.57995 4.17833 2.98362 3.62804 3.48821 3.12778C3.79096 2.77759 4.19463 2.37738 4.64876 2.52746C6.21298 2.9777 6.86894 0.52641 5.30472 0.1262C3.03408 -0.524142 1.57078 1.47691 0.359769 2.9777C-0.09436 3.47796 -0.144819 4.22835 0.359769 4.72862C0.813897 5.17885 1.72215 5.2789 2.12582 4.72862Z" transform="translate(43.6497 6.29883)" fill="#226957"/>
<path d="M2.54118 3.84988C2.74301 3.34962 3.04577 2.99944 3.4999 2.69928C3.60081 2.64925 4.81182 2.29907 4.60999 2.19902C4.7109 2.49917 4.76136 2.79933 4.76136 3.14952C4.60999 3.44967 4.45861 3.64978 4.15586 3.79986C3.65127 4.25009 3.04577 4.6503 2.49072 5.10054C1.12833 6.15109 -0.637722 8.10211 1.532 9.45282C2.94485 10.3033 4.20632 8.10212 2.79347 7.3017C2.94485 7.85198 3.14668 7.90201 3.39898 7.55183C3.55035 7.45177 3.65127 7.35172 3.80265 7.25167C4.20632 6.95151 4.60999 6.60133 5.06412 6.30117C5.66962 5.80091 6.4265 5.35067 6.83017 4.6503C7.43568 3.59975 7.33476 1.69875 6.52742 0.748255C5.61916 -0.25227 3.90356 -0.102192 2.79347 0.348044C1.43109 0.898333 0.522828 1.89886 0.0686998 3.24957C-0.435888 4.70033 1.98613 5.35067 2.54118 3.84988Z" transform="translate(51.1057 8.82849)" fill="#226957"/>
<path d="M5.76191 0.10951C3.28943 -0.340726 0.211449 0.559746 0.00961391 3.5113C-0.0913036 4.76195 0.615119 5.71245 1.52338 6.51287C2.28026 7.16321 2.73439 7.66348 2.88576 8.664C2.98668 9.51445 3.18851 10.3649 3.39035 11.1653C3.84448 12.7161 6.2665 12.0658 5.81237 10.515C5.4087 9.06421 5.50962 7.31329 4.60136 6.01261C4.24815 5.51235 3.6931 5.21219 3.28943 4.71193C1.77567 3.11109 3.54173 2.21061 5.10595 2.51077C6.67017 2.81093 7.32613 0.409668 5.76191 0.10951Z" transform="translate(13.22 11.8684)" fill="#226957"/>
<path d="M3.3487 4.96143C2.99549 4.5112 2.28907 3.81083 2.79366 3.26054C3.3487 2.71025 3.95421 2.46012 4.10558 1.55965C4.4588 0.0088322 2.03678 -0.691535 1.68357 0.909305C1.83494 0.859279 1.78448 0.909306 1.58265 1.00936C1.53219 1.05938 1.48173 1.10941 1.38081 1.15944C1.17898 1.30952 0.977144 1.45959 0.775309 1.6597C0.321181 2.10994 0.068887 2.71025 0.0184282 3.31057C-0.132948 4.66127 0.674392 5.76185 1.48173 6.76238C2.59182 8.01303 4.35788 6.21209 3.3487 4.96143Z" transform="translate(14.8259 12.3192)" fill="#226957"/>
<path d="M3.44152 0.0899394C1.72592 -0.360297 0.111246 0.940386 0.0103284 2.64128C-0.090589 3.29162 0.565373 3.89194 1.22134 3.89194C1.92776 3.84191 2.43235 3.34165 2.48281 2.64128C2.48281 2.94144 2.43235 2.74133 2.48281 2.64128C2.53326 2.4912 2.38189 2.84138 2.48281 2.64128C2.58372 2.44117 2.43235 2.74133 2.48281 2.64128C2.53326 2.54123 2.7351 2.4912 2.48281 2.64128C2.53326 2.59125 2.58372 2.59125 2.63418 2.54123C2.43235 2.69131 2.53327 2.54123 2.63418 2.54123C2.78556 2.54123 2.38189 2.54123 2.63418 2.54123C2.88648 2.54123 2.38189 2.4912 2.68464 2.54123C3.3406 2.69131 4.09748 2.34112 4.24886 1.69078C4.4507 0.990413 4.09749 0.240018 3.44152 0.0899394Z" transform="translate(24.7742 6.58521)" fill="#226957"/>
<path d="M64.0919 33.4392C65.0507 32.6888 65.7571 31.6883 66.3626 30.7378C67.8764 28.4866 69.4406 25.8352 68.8855 23.1838C68.7342 22.3834 68.3305 21.633 68.0277 20.8826C67.6241 20.0322 67.2204 19.2317 67.1195 18.3313C67.069 17.781 67.069 17.2307 67.1195 16.6804C67.1195 16.4303 67.1699 16.1801 67.1699 15.93C67.2204 14.8294 67.069 13.7289 66.7663 12.6783C66.4635 11.6778 66.0598 10.9274 65.5048 10.4271C64.6974 9.6267 63.4864 9.32655 62.6791 9.17647C60.8626 8.82628 59.0461 8.77626 57.28 9.12644L57.3305 9.37657C57.2296 9.32655 57.1286 9.22649 57.0277 9.17647H57.1286C57.2296 7.37552 56.4222 5.52455 55.0598 4.32392C53.8488 3.22334 52.2341 2.67305 50.8718 2.17279C48.3993 1.27232 45.8259 0.371845 43.1011 0.121714C40.0736 -0.278496 37.2984 0.321819 35.28 1.72255L35.5323 2.07274C37.4497 0.722029 40.1241 0.17174 43.0507 0.471898C45.6745 0.722029 48.2479 1.6225 50.7204 2.52297C52.0828 3.02324 53.647 3.57353 54.8075 4.57405C56.069 5.67463 56.725 7.3255 56.725 8.97636C56.4727 8.87631 56.2708 8.77626 56.069 8.77626C55.3121 8.62618 54.4039 8.82628 53.5965 9.32655C52.9406 9.72676 52.436 10.227 51.8809 10.8273C51.1241 10.0269 50.2158 9.32655 49.2571 8.82628C49.4085 8.57615 49.4589 8.32602 49.4589 8.02586C49.4589 7.42555 49.1562 6.87526 48.702 6.5751C47.7938 6.02481 46.6332 6.375 45.9268 7.02534C45.5231 7.37552 45.2708 7.82576 45.0186 8.276C45.0186 8.22597 45.0185 8.12592 44.9176 8.02586C43.9085 6.67515 42.3442 5.77468 40.6791 5.6246C40.5782 5.6246 40.5277 5.6246 40.4268 5.6246C40.0736 5.57458 39.7708 5.57458 39.4681 5.4245V5.47452C39.0644 5.02429 38.6607 4.57405 38.1057 4.22387C37.5002 3.82366 36.8442 3.67358 36.1883 3.72361C35.7846 1.97269 34.2204 0.822082 32.7066 0.421871C30.9406 -0.0283649 29.0736 0.271793 27.6103 0.621977C23.4222 1.6225 19.3855 3.47347 15.9543 6.02481L15.8534 5.97479C15.147 6.52508 14.3901 7.07536 13.5828 7.07536C12.9268 7.07536 12.3717 6.77521 11.7662 6.42502C11.2112 6.12487 10.6057 5.77468 9.94973 5.72466C8.48643 5.57458 7.27542 6.62513 6.21578 7.82576C5.25707 8.87631 4.14698 10.127 3.59193 11.5777C3.08734 13.0285 3.1378 14.5793 3.23872 16.1301C3.28918 17.4808 3.39009 18.8816 3.03688 20.1322C2.83505 20.8326 2.5323 21.4829 2.22954 22.1333C1.87633 22.8336 1.52312 23.584 1.32129 24.3845C0.564405 27.4361 2.33046 30.4376 4.44973 32.1385C3.08734 34.1896 1.87633 36.3407 0.816699 38.5919C0.211194 39.8926 -0.343852 41.3434 0.261653 42.6941C0.513947 43.2944 0.968075 43.7446 1.37175 44.1448C2.17908 44.9452 3.18826 45.7957 4.39927 46.296C5.15615 46.5961 5.96349 46.6962 6.77083 46.6962C8.08276 46.6962 9.4956 46.396 11.0094 45.9958C12.0185 45.7457 13.0277 45.4955 13.9864 44.9953C14.5919 44.6951 15.147 44.2949 15.702 43.8947C16.0048 43.6946 16.3075 43.4445 16.6103 43.2944C16.2571 43.5445 15.9543 43.7946 15.6516 44.0948C14.1883 45.4955 13.4818 47.3965 13.6837 49.0974C13.936 51.0485 15.5002 52.6993 17.3672 52.8494C17.9727 52.8994 18.5782 52.7994 19.1332 52.6993C19.5369 52.6493 19.991 52.5492 20.3947 52.5492C21.5048 52.4992 22.6149 52.8994 23.6745 53.2496C24.7341 53.5998 25.7938 54 26.8534 54C27.1562 54 27.4085 53.95 27.7112 53.8999C28.5185 53.7499 29.225 53.3497 29.9818 52.9494C30.8901 52.4492 31.7479 51.999 32.7066 51.999C33.2617 51.999 33.7663 52.1991 34.3213 52.3992C34.725 52.5492 35.1791 52.6993 35.6332 52.7493C37.4497 53.0495 39.4681 52.049 40.78 50.198C41.0828 49.7478 41.3351 49.2475 41.5874 48.7472C42.0919 48.9974 42.5461 49.2975 42.9497 49.5977C43.6057 50.0979 44.3121 50.5482 45.1699 50.7983C45.5736 50.8984 46.0277 50.9484 46.4314 50.9484C46.936 50.9484 47.4406 50.8984 47.8947 50.8483C51.5277 50.4481 54.7066 49.9479 57.0277 47.7967C57.1286 47.7467 57.1791 47.6467 57.28 47.5466C57.5828 47.2465 57.8855 46.9963 58.2387 46.7962C58.6929 46.5961 59.147 46.5961 59.702 46.5461C59.803 46.5461 59.9543 46.5461 60.0553 46.5461C61.3672 46.446 62.5782 46.0959 63.7892 45.7457C64.4452 45.5456 65.1516 45.3455 65.8075 44.9953C67.9773 43.8447 69.2387 41.1933 68.7846 38.6419C68.3305 36.3908 66.514 34.3397 64.0919 33.4392ZM62.5782 9.52665C63.3351 9.67673 64.4452 9.97689 65.202 10.6773C65.7066 11.1275 66.0598 11.8279 66.3626 12.7784C66.6654 13.7789 66.8167 14.8294 66.7663 15.88C66.7663 16.1301 66.7158 16.3802 66.7158 16.6304C66.6653 17.1807 66.6149 17.781 66.7158 18.3813C66.8167 19.3318 67.2709 20.2323 67.6745 21.0827C68.0277 21.7831 68.3809 22.5335 68.5323 23.2839C69.0874 25.7852 67.5736 28.3365 66.1103 30.5377C65.4543 31.5382 64.6975 32.6388 63.6378 33.3391C62.9819 33.7894 62.1745 34.0395 61.5186 34.2396C59.3488 34.89 57.1286 35.2402 54.858 35.2402C55.4635 34.2396 55.8672 33.089 55.9176 31.9384H55.5644C56.4727 31.088 57.2296 30.0874 57.7846 28.9368C58.6929 27.1359 58.9452 24.9347 58.6424 22.6836C58.491 21.7831 58.2892 20.8826 58.0874 20.0322C57.5323 17.831 57.0277 15.7799 57.8351 13.7789L57.6332 13.6788C58.1378 13.1786 58.6424 12.6783 58.7938 11.9779C58.9956 10.9774 58.3901 10.0769 57.5828 9.47663C59.1975 9.17647 60.913 9.17647 62.5782 9.52665ZM54.202 35.1901C53.6975 35.9905 53.0919 36.6409 52.3351 37.1412C52.0828 37.3413 51.78 37.4913 51.4773 37.6414C51.0231 37.8915 50.6195 38.1417 50.2158 38.4919C49.7112 38.8921 49.3075 39.4424 48.9039 39.9426C48.702 40.1928 48.4497 40.4929 48.1974 40.743C45.9773 43.1443 42.5965 44.0448 39.3167 44.8952C38.8121 45.0453 38.2571 45.1454 37.7525 45.2954C37.3488 45.3955 36.8947 45.5456 36.491 45.6456C33.8167 46.396 31.0919 47.1964 28.4176 46.6461C25.7433 46.0959 23.5736 44.2449 21.9589 42.7441C21.5552 42.3439 21.1011 41.9437 20.4956 41.7436L20.3947 41.3934C20.1929 41.4934 19.9406 41.5435 19.7387 41.6435C19.6378 41.6435 19.4864 41.6435 19.3855 41.6435H19.1837C16.8121 41.6935 14.491 40.4929 13.5323 38.5919C15.0965 38.0416 16.8626 37.3913 18.1745 36.1406C18.7295 35.5903 19.1837 34.94 19.6378 34.2896C20.0415 33.6893 20.4451 33.089 20.8993 32.5888C22.2112 31.188 24.0782 30.5877 25.3901 30.3376C27.1057 29.9874 28.8718 30.0374 30.5369 30.0374L38.913 30.0874C39.014 30.2876 39.2158 30.4877 39.4176 30.6878C40.225 31.3381 41.2341 31.4382 42.1929 31.5382C42.8488 31.6383 43.5552 31.6883 44.1608 31.9384C45.069 32.3386 45.8259 33.089 46.4314 33.7394L48.1974 35.5903C48.3488 35.7404 48.5507 35.9405 48.803 35.9905C48.8534 35.9905 48.9039 35.9905 48.9543 35.9905C49.2571 35.9905 49.5094 35.8405 49.6608 35.7404C51.4773 34.6899 53.5965 33.4892 55.3121 31.8884C55.2617 33.139 54.858 34.2396 54.202 35.1901ZM11.5644 26.4856C11.4635 25.435 11.413 24.4345 11.8167 23.534C12.0185 23.0838 12.3717 22.6836 12.725 22.2833C12.9268 22.0332 13.1791 21.7331 13.3809 21.4329C14.1883 20.2323 14.3901 18.7815 14.5919 17.4808L14.6424 17.5309C14.9451 17.9811 15.2984 18.4313 15.5002 18.9316C15.9039 19.732 16.0048 20.6825 16.1562 21.583V21.7831C16.1562 21.9332 16.3075 22.0332 16.4084 22.0332C16.5598 22.0332 16.6607 21.9332 16.6607 21.7831C16.6607 21.683 16.6103 21.633 16.6103 21.583C16.4589 20.6325 16.358 19.682 15.9039 18.7815C15.6516 18.2312 15.2984 17.781 14.9956 17.3307C14.7938 17.0806 14.5919 16.7805 14.4406 16.5303C13.8855 15.6299 13.6837 14.8294 13.8351 14.1791C14.0873 13.0285 15.3488 12.3781 16.358 12.2781C17.4681 12.178 18.6286 12.5282 19.6883 12.8784C19.5369 12.9785 19.436 13.1285 19.2846 13.2286C18.124 14.2791 17.5185 15.3297 17.3672 16.3802C16.9635 15.88 16.6607 15.3797 16.7112 14.8294C16.7617 14.4793 16.913 14.1791 17.0644 13.8289C17.3167 13.3286 17.569 12.8784 17.4176 12.2781L17.014 12.3781C17.1149 12.7784 16.913 13.1786 16.6607 13.6288C16.4589 13.979 16.2571 14.3792 16.2571 14.7794C16.1562 15.5798 16.7112 16.2302 17.2158 16.8805C17.3672 17.0806 17.4681 17.2307 17.6195 17.3808C18.4773 18.5814 18.6791 20.1822 18.8305 21.683L18.8809 22.1333C19.0828 23.8342 19.4864 25.7352 20.8488 26.8858C21.5048 27.4361 22.3626 27.7862 23.1699 28.0864C24.0277 28.3866 24.7846 28.7367 25.4406 29.287C25.491 29.3371 25.5919 29.3871 25.6424 29.4871C25.7938 29.5872 25.8947 29.7373 26.0461 29.8373C25.7938 29.8873 25.491 29.9374 25.2387 29.9874C23.2708 30.3876 21.6562 31.188 20.5461 32.3386C20.0415 32.8889 19.6378 33.4892 19.2341 34.0895C18.8305 34.6899 18.3763 35.3402 17.8718 35.8905C17.3672 36.3908 16.8121 36.7409 16.2066 37.0911L16.3075 36.891C14.7938 36.0906 13.3809 35.0901 12.1195 33.9395C11.514 33.3892 10.9589 32.7889 10.858 32.0385C10.7571 31.3881 10.9589 30.7378 11.2112 30.0374C11.3121 29.6872 11.4635 29.287 11.5644 28.9368C11.7158 28.0864 11.6149 27.286 11.5644 26.4856ZM16.3075 21.583H16.358C16.4589 21.583 16.5094 21.683 16.5094 21.7831H16.3075V21.583ZM22.6653 10.277C22.6653 10.3271 22.6149 10.3771 22.5644 10.4271C22.5644 10.4271 22.514 10.4271 22.4635 10.4271C22.514 10.3771 22.514 10.277 22.5644 10.227C22.5644 10.227 22.5644 10.177 22.6149 10.177C22.6653 10.227 22.6653 10.227 22.6653 10.277ZM22.3626 10.6272C22.6149 11.9279 22.7158 13.4287 21.8075 14.4793L22.1607 14.7794C23.2204 13.5288 23.0185 11.7278 22.7662 10.3271C22.7662 10.277 22.7158 10.227 22.6653 10.177C22.7662 9.97689 22.8672 9.82681 23.0185 9.67673C23.2204 9.47663 23.4727 9.27652 23.725 9.12644C23.9268 8.97636 24.1791 8.82628 24.3809 8.62618C24.6332 8.37605 24.8351 8.07589 24.9864 7.82576C25.1378 7.62565 25.2387 7.42555 25.3901 7.22544C25.8442 6.72518 26.5507 6.375 27.3075 6.375C27.9635 6.375 28.569 6.5751 29.0231 6.92529C28.6195 7.07536 28.2662 7.22544 27.8626 7.37552C27.5094 7.5256 27.0552 7.72571 26.9039 8.12592C26.8029 8.37605 26.8029 8.62618 26.8534 8.87631C26.8534 9.07642 26.8534 9.27652 26.8029 9.4266L27.2066 9.57668C27.3075 9.32655 27.3075 9.07642 27.3075 8.82628C27.3075 8.62618 27.3075 8.42607 27.358 8.276C27.4589 8.02586 27.8121 7.87578 28.0644 7.72571C29.6791 7.07536 31.3947 6.52508 33.1103 6.12487C33.5644 6.02481 34.0185 5.92476 34.3213 6.17489C34.4727 6.27494 34.5736 6.42502 34.6241 6.5751C35.6837 8.276 35.9864 10.3771 35.4314 12.2781C35.4314 12.3781 35.3809 12.4282 35.3809 12.4782C35.1286 12.3781 34.8763 12.2281 34.6745 12.078C34.2708 11.7778 33.9176 11.3276 33.5644 10.8774C33.1103 10.227 32.6057 9.57668 31.8488 9.32655C31.0919 9.07642 30.3351 9.22649 29.5782 9.37657C29.4268 9.4266 29.225 9.4266 29.0736 9.47663C28.7708 9.52665 28.5185 9.57668 28.2158 9.57668C27.358 9.67673 26.4497 9.77678 25.6929 10.3271C24.9864 10.7773 24.5323 11.5277 24.1791 12.2781C23.6745 13.2786 23.1195 14.4793 23.1195 15.7299C23.069 17.831 24.4818 19.632 25.6424 20.7826C26.1974 21.3328 26.8029 21.8331 27.4085 22.3334C28.2158 23.0337 29.0736 23.7341 29.78 24.5846L29.8305 24.6846C30.2846 25.2349 30.8396 25.8352 31.5965 25.9353C31.647 26.4355 31.0415 26.8858 30.4864 27.0859C30.3855 27.1359 30.2846 27.1359 30.1332 27.1859C29.5277 27.386 28.8213 27.5861 28.5185 28.1864C28.4176 28.3365 28.3672 28.5366 28.3167 28.6867C28.2663 28.8368 28.2158 28.9368 28.1653 29.0369C28.014 29.287 27.7617 29.5372 27.4589 29.6372C27.1562 29.7373 26.8029 29.6872 26.5507 29.5372C26.3488 29.4371 26.1974 29.287 26.0461 29.1369C25.9956 29.0869 25.8947 28.9869 25.8442 28.9368C25.1378 28.3365 24.28 27.9863 23.4222 27.6362C22.6149 27.336 21.858 27.0358 21.2525 26.5356C19.991 25.485 19.6378 23.6841 19.436 22.0832L19.3855 21.633C19.1837 20.0822 19.0323 18.4313 18.0736 17.1306C18.0231 17.0306 17.9222 16.9305 17.8213 16.8305H17.8718C17.8213 15.7799 18.4268 14.6293 19.6378 13.4787C19.8901 13.2286 20.1424 13.0285 20.3947 12.8284C21.1011 12.128 21.858 11.4777 22.3626 10.6272ZM36.6929 13.0285C36.3901 12.8784 36.0874 12.7283 35.7341 12.5783C35.7341 12.5783 35.7341 12.5783 35.6837 12.5783C35.7341 12.4782 35.7341 12.4282 35.7846 12.3281C36.3901 10.3271 36.0369 8.02586 34.9268 6.27494C34.8763 6.17489 34.8259 6.07484 34.725 6.02481C35.4314 6.02481 36.2387 6.32497 36.8947 6.82523C37.6516 7.47557 38.2066 8.32602 38.5598 8.97636C38.8626 9.52665 39.1653 10.177 39.2158 10.8774C39.2663 11.6778 38.9635 12.4782 38.6607 13.1285C38.4589 13.5288 38.2571 13.979 38.0048 14.3792C37.7525 13.8289 37.2984 13.3787 36.6929 13.0285ZM15.9543 37.1412C15.0965 37.5914 14.1883 37.8915 13.3305 38.1917C13.1286 37.6914 13.1286 37.1412 13.2295 36.6909C13.3305 36.3908 13.5323 36.1406 13.7846 36.0406L13.6332 35.6904C14.3901 36.2407 15.147 36.6909 15.9543 37.1412ZM53.7479 9.67673C54.4543 9.22649 55.2112 9.07642 55.8672 9.17647C56.1195 9.22649 56.4222 9.32655 56.725 9.47663C57.5828 9.92686 58.4406 10.8774 58.2387 11.8779C58.0874 12.5282 57.6332 12.9785 57.0782 13.4787C56.9268 13.6288 56.725 13.8289 56.5736 13.979C55.5644 15.0295 55.0598 16.4303 55.1103 17.881L55.1608 18.5814L55.6653 17.831L55.5644 17.781C55.5644 16.5303 56.0186 15.2296 56.9268 14.3292C57.0277 14.2291 57.1286 14.1291 57.1791 14.079C56.5736 16.0301 57.0782 18.1312 57.5828 20.1822C57.7846 21.0327 57.9864 21.9332 58.1378 22.7836C58.4406 24.9848 58.1883 27.0358 57.3305 28.7868C55.7663 32.0385 52.2846 33.9895 49.5094 35.5403C49.3075 35.6404 49.1057 35.7404 48.9543 35.7404C48.803 35.6904 48.702 35.5903 48.5507 35.4403L46.7846 33.5893C46.1286 32.8889 45.3213 32.0885 44.3626 31.6383C43.7066 31.3381 42.9497 31.2881 42.2433 31.188C41.2846 31.088 40.3763 30.9379 39.6699 30.3876C39.569 30.2875 39.4681 30.2375 39.4176 30.1375H39.5185V29.6872H39.1653C39.1149 29.5872 39.1149 29.4371 39.1149 29.3371C39.1653 28.6867 39.8718 28.3365 40.6791 27.9863C44.1103 26.5856 47.1883 24.3845 49.6103 21.633C50.8213 20.2823 51.6791 18.9816 52.2341 17.6809L52.436 17.881C52.9406 17.3808 53.3947 16.8305 53.6975 16.1801C53.8488 15.83 53.9497 15.4798 54.0507 15.1796C54.1516 14.8294 54.2525 14.4793 54.4039 14.1291C54.5048 13.8789 54.7066 13.6288 54.858 13.4287C55.2112 12.8784 55.6149 12.3781 55.5644 11.6778C55.5644 11.6278 55.5644 11.5777 55.5644 11.5277C55.5644 11.2776 55.514 11.0775 55.6149 11.0274L55.413 10.6773C55.0598 10.8774 55.1103 11.2776 55.1608 11.5777C55.1608 11.6278 55.1608 11.6778 55.1608 11.7278C55.2112 12.2281 54.858 12.7283 54.5552 13.1786C54.4039 13.4287 54.202 13.6788 54.1011 13.929C53.8993 14.2791 53.7984 14.6794 53.6975 15.0796C53.5965 15.4298 53.5461 15.7299 53.3947 16.0301C53.1929 16.5303 52.8397 16.9305 52.436 17.3808C52.4864 17.2307 52.5369 17.0806 52.5874 16.8805C53.1929 14.9295 53.0415 12.8784 52.1332 11.3276L52.2846 11.2275C52.2341 11.1775 52.2341 11.1775 52.1837 11.1275C52.6378 10.5272 53.1424 10.0269 53.7479 9.67673ZM46.1286 7.27547C46.6837 6.77521 47.6424 6.42502 48.3993 6.87526C48.7525 7.07537 48.9543 7.5256 48.9543 7.92581C48.9543 8.276 48.8534 8.52613 48.6011 8.72623C47.3901 8.52613 46.3305 9.6267 45.7754 10.7273C45.4222 11.4276 45.1195 12.128 44.8672 12.8784L45.2708 12.9785C45.4727 12.2781 45.7754 11.5277 46.1286 10.8774C46.6332 9.87683 47.5919 8.92634 48.6011 9.12644H48.702L48.803 9.07642C48.8534 9.07642 48.8534 9.02639 48.9039 9.02639C50.014 9.57668 51.0231 10.3771 51.8305 11.3276L51.6791 11.4276C52.5369 12.8784 52.6883 14.7794 52.1332 16.6304C51.6791 18.1312 50.7204 19.682 49.3075 21.2828C46.8855 23.9842 43.858 26.1354 40.5277 27.5361C39.6195 27.8863 38.7617 28.3866 38.7112 29.237C38.7112 29.3871 38.7112 29.4871 38.7617 29.6372L30.5874 29.5872C29.8305 29.5872 29.0736 29.5872 28.2662 29.5872C28.3672 29.4871 28.4681 29.3371 28.569 29.187C28.6195 29.0369 28.6699 28.8868 28.7204 28.7367C28.7708 28.5867 28.8213 28.4366 28.8718 28.2865C29.124 27.8363 29.6791 27.6862 30.2341 27.4861C30.3351 27.4361 30.4864 27.4361 30.5874 27.386C31.3947 27.1359 32.1011 26.4856 31.9497 25.7352C35.1286 25.3349 38.1057 23.8342 40.3259 21.583C41.1332 20.7325 41.6883 19.9821 41.991 19.1817C42.3442 18.3313 42.4452 17.4308 42.5461 16.5303C42.5965 16.2302 42.5965 15.93 42.647 15.6799C42.9497 13.4287 43.858 11.0274 45.3213 8.42607C45.5231 8.02586 45.7754 7.62565 46.1286 7.27547ZM44.7663 8.02586C44.8672 8.07589 44.8672 8.12592 44.8672 8.22597L44.6653 8.17594L44.6149 8.02586C44.6653 8.02586 44.7158 8.02586 44.7663 8.02586ZM37.803 4.474C38.4589 4.87421 38.9635 5.52455 39.4176 6.12487C39.9222 6.77521 40.3763 7.47557 40.6286 8.276C40.9314 9.12644 40.9314 9.92686 40.6286 10.5772L41.0323 10.7273C41.3855 9.97689 41.3855 9.02639 41.0323 8.07589C40.7296 7.22544 40.225 6.47505 39.7204 5.82471C39.9222 5.87473 40.0736 5.87473 40.2754 5.87473C40.3763 5.87473 40.4268 5.87473 40.5277 5.87473C42.0415 6.02481 43.4543 6.82523 44.3626 8.02586V8.07589C44.3626 8.17594 44.413 8.276 44.514 8.32602C44.5644 8.32602 44.5644 8.32602 44.6149 8.32602C44.6653 8.32602 44.7158 8.32602 44.7158 8.276C43.2525 10.8774 42.3947 13.2286 42.0415 15.5298C41.991 15.83 41.991 16.1301 41.9406 16.4303C41.8396 17.2807 41.7387 18.1812 41.436 18.9816C41.1332 19.732 40.6286 20.4324 39.8718 21.2328C37.702 23.434 34.8259 24.8847 31.6974 25.2849L31.7479 25.5851V25.7352V25.485H31.6974C31.0415 25.485 30.5369 24.8847 30.0828 24.3344L30.0323 24.2344C29.2754 23.3839 28.4176 22.6836 27.6103 21.9332C27.0048 21.4329 26.3993 20.9326 25.8442 20.3823C24.7341 19.2818 23.4222 17.5809 23.4727 15.6299C23.4727 14.4292 23.9773 13.2786 24.4818 12.3281C24.8351 11.6778 25.2387 10.9774 25.8442 10.5272C26.5002 10.0769 27.3075 9.97689 28.2158 9.87683C28.5185 9.82681 28.8213 9.82681 29.0736 9.72676C29.225 9.67673 29.4268 9.67673 29.5782 9.6267C30.2846 9.47663 30.991 9.32655 31.647 9.57668C32.3029 9.82681 32.7066 10.3771 33.1607 10.9774C33.514 11.4276 33.8672 11.9279 34.3213 12.2781C34.5736 12.4782 34.8259 12.5783 35.1286 12.7283L35.2296 13.0285C35.3305 12.9785 35.3809 12.9284 35.4818 12.8784C35.5323 12.8784 35.5828 12.9284 35.5828 12.9284C35.8855 13.0785 36.1883 13.1786 36.491 13.3286C37.147 13.6788 37.6516 14.2791 37.9543 14.9795C36.3901 18.4814 34.4222 21.7831 32.1011 24.8347L32.4543 25.0848C34.8259 21.8831 36.8442 18.4814 38.4589 14.8294L38.3075 14.7794C38.6103 14.2791 38.8626 13.7789 39.1149 13.2286C39.4176 12.5282 39.7708 11.6778 39.7204 10.7773C39.6699 9.97689 39.3167 9.27652 39.014 8.6762C38.6608 8.02586 38.1057 7.12539 37.2479 6.42502C36.4406 5.77468 35.5323 5.47452 34.6241 5.52455V5.4245C34.5736 5.4245 34.5231 5.37447 34.4727 5.32445C34.4222 5.22439 34.3718 5.07431 34.4222 4.97426C34.5231 4.72413 34.7754 4.57405 34.9773 4.42397C35.1791 4.32392 35.3809 4.17384 35.6332 4.07379C36.2892 3.92371 37.0965 4.07379 37.803 4.474ZM1.72496 24.4845C1.92679 23.7341 2.28 23.0337 2.58275 22.3334C2.88551 21.683 3.23872 20.9827 3.44055 20.2323C3.79376 18.8816 3.74331 17.4808 3.69285 16.0801C3.59193 14.5293 3.54147 13.0785 4.04606 11.7278C4.55065 10.3271 5.61028 9.17647 6.56899 8.12592C7.57817 7.02534 8.68826 6.02481 9.94973 6.17489C10.5048 6.22492 11.0598 6.52508 11.5644 6.82523C12.1699 7.17542 12.8259 7.5256 13.5828 7.5256C14.5415 7.5256 15.3993 6.92529 16.1057 6.375L16.1562 6.32497C19.5369 3.77363 23.5231 1.97269 27.6103 0.97216C29.0231 0.621977 30.8396 0.321819 32.5048 0.772055C33.8672 1.12224 35.3305 2.17279 35.6837 3.72361C35.6332 3.72361 35.5828 3.77363 35.5323 3.77363C35.2296 3.87368 34.9773 4.02376 34.7754 4.17384C34.4727 4.37395 34.1699 4.57405 34.0185 4.97426C33.9176 5.17437 33.9681 5.4245 34.069 5.6246C33.7158 5.57458 33.3121 5.6246 32.9589 5.72466C31.7984 6.02481 30.6378 6.375 29.4773 6.77521C28.9222 6.22492 28.1149 5.97479 27.3075 5.97479C26.3993 5.97479 25.5919 6.375 25.0369 6.97531C24.8855 7.17542 24.7341 7.37552 24.5828 7.62565C24.4314 7.87579 24.2296 8.12592 24.0277 8.37605C23.8763 8.52613 23.6745 8.67621 23.4222 8.82628C23.1699 9.02639 22.8672 9.17647 22.6653 9.4266C22.4635 9.6267 22.3626 9.87683 22.2112 10.127C22.1607 10.227 22.1103 10.277 22.0598 10.3771C21.5552 11.2275 20.7984 11.9279 20.0415 12.5783C19.991 12.6283 19.991 12.6283 19.9406 12.6783L19.991 12.5282C18.8809 12.178 17.6195 11.7278 16.3075 11.8779C15.147 11.9779 13.6837 12.7283 13.3809 14.079C13.1791 14.8795 13.4314 15.7799 14.0369 16.7805C14.1883 16.9806 14.2892 17.1807 14.4406 17.3808L14.1378 17.3307C13.936 18.6314 13.7341 20.0822 12.9773 21.2328C12.7754 21.4829 12.5736 21.7331 12.3213 21.9832C11.9681 22.3834 11.6149 22.8336 11.3626 23.3339C10.9084 24.3344 11.0094 25.435 11.0598 26.4856C11.1103 27.2359 11.2112 28.0364 11.0598 28.7868C11.0094 29.1369 10.858 29.4871 10.7571 29.8373C10.5048 30.5377 10.2525 31.2881 10.4039 32.0385C10.5552 32.8889 11.2112 33.5893 11.8167 34.1396C11.9681 34.2897 12.1699 34.4397 12.3213 34.5898C8.99101 34.0895 6.56899 33.2391 4.70202 31.8384C2.73413 30.2876 0.968075 27.4361 1.72496 24.4845ZM15.4497 43.5445C14.9451 43.8947 14.3901 44.2949 13.8351 44.5951C12.9268 45.0453 11.9176 45.2954 10.9589 45.5456C8.58734 46.1459 6.51854 46.5461 4.6011 45.8457C3.44055 45.3955 2.48184 44.545 1.72496 43.7946C1.22037 43.3944 0.816699 42.9942 0.614864 42.494C0.110277 41.3434 0.614864 39.9426 1.16991 38.792C2.22954 36.5909 3.39009 34.4898 4.75248 32.4387C7.32588 34.2897 10.5048 34.89 12.725 35.1901V35.04C13.0277 35.2902 13.28 35.4903 13.5828 35.6904C13.2295 35.8905 12.9773 36.1906 12.8259 36.5909C12.624 37.2412 12.725 38.0916 13.0782 38.792C14.0369 40.593 16.0048 41.7936 18.225 42.0437C17.2158 42.2939 16.3075 42.9442 15.4497 43.5445ZM65.5553 44.6951C64.9497 44.9953 64.2938 45.1954 63.6378 45.3955C62.4773 45.7457 61.2158 46.0959 59.9543 46.1959C59.8534 46.1959 59.702 46.1959 59.6011 46.1959C59.0461 46.1959 58.491 46.2459 57.9864 46.4961C57.5828 46.6962 57.2296 46.9963 56.9268 47.2965C56.8259 47.3465 56.7754 47.4466 56.6745 47.4966C54.4543 49.5477 51.3259 50.0479 47.7433 50.3981C46.8855 50.4982 46.0277 50.5982 45.2204 50.3481C44.4635 50.148 43.858 49.6977 43.1516 49.1975C42.6974 48.8473 42.1929 48.5471 41.6883 48.297C42.1929 47.0964 42.4452 45.8457 42.7479 44.6451H42.3442C41.9406 46.396 41.4864 48.3971 40.4268 49.9479C39.4681 51.3486 37.6516 52.6493 35.7341 52.3491C35.3305 52.2991 34.8763 52.149 34.4727 51.999C33.9176 51.7988 33.3121 51.5987 32.7066 51.5987C31.647 51.5487 30.6883 52.099 29.7296 52.5993C29.0736 52.9494 28.3672 53.3497 27.6103 53.4997C26.3488 53.7499 25.0874 53.2996 23.7754 52.8494C22.6653 52.4492 21.5048 52.049 20.2938 52.099C19.8396 52.099 19.3855 52.1991 18.9818 52.2491C18.4268 52.3491 17.8718 52.4492 17.3167 52.3992C15.702 52.2491 14.2892 50.7983 14.0369 48.9974C13.8351 47.3965 14.5415 45.6956 15.9039 44.3449C16.8626 43.3944 18.0736 42.644 19.7892 42.0437C19.9406 42.0437 20.0919 42.0437 20.1929 42.0937C20.7479 42.1938 21.1516 42.644 21.6057 43.0442C23.2708 44.5951 25.491 46.4961 28.2662 47.0463C28.9222 47.1964 29.5782 47.2465 30.2341 47.2465C32.3534 47.2465 34.4727 46.6461 36.5415 46.0458C36.9452 45.9458 37.3993 45.7957 37.803 45.6956C38.3075 45.5456 38.8121 45.4455 39.3672 45.2954C42.6974 44.445 46.1791 43.5445 48.5002 41.0432C48.7525 40.7931 49.0048 40.4929 49.2066 40.1928C49.6103 39.6925 50.014 39.1922 50.4681 38.842C50.8213 38.5419 51.2754 38.2918 51.6791 38.0416C51.9819 37.8915 52.2846 37.6914 52.5369 37.4913C53.2433 36.9911 53.8993 36.3407 54.4039 35.6404C54.5048 35.6404 54.6057 35.6404 54.7066 35.6404C57.0277 35.6404 59.2984 35.2902 61.5186 34.6398C62.225 34.4397 63.0323 34.1396 63.7387 33.6893C63.7892 33.6393 63.8901 33.5893 63.9406 33.5393L63.8397 33.8394C66.1103 34.6899 67.8764 36.6409 68.28 38.842C68.7342 41.1933 67.5736 43.6446 65.5553 44.6951Z" fill="black"/>
<path d="M0.529817 2.60137C0.4289 1.75092 0.4289 0.900473 0.529817 0.0500261L0.0756877 9.54175e-08C-0.0252298 0.900473 -0.0252298 1.75092 0.0756877 2.65139L0.529817 2.60137Z" transform="translate(16.1814 6.62512)" fill="black"/>
<path d="M0.252294 -7.6334e-07L3.8497e-07 0.350185C0.857799 1.05055 1.26147 2.30121 1.00918 3.40179L1.41284 3.50184C1.7156 2.25118 1.26147 0.850446 0.252294 -7.6334e-07Z" transform="translate(29.3259 47.2965)" fill="black"/>
<path d="M1.51376 0.150079L1.11009 -9.54175e-08C0.908256 0.500263 0.504588 0.950499 7.69939e-07 1.1506L0.151375 1.55081C0.75688 1.30068 1.26147 0.80042 1.51376 0.150079Z" transform="translate(32.2021 7.82568)" fill="black"/>
</svg>
