<svg width="115" height="129" viewBox="0 0 115 129" fill="none" xmlns="http://www.w3.org/2000/svg">
<path d="M0.410003 3.98981C0.31629 3.23915 0.738001 2.4885 1.34714 2.06625C1.95628 1.5971 2.70597 1.40943 3.40883 1.22177C7.90709 0.0488709 12.6396 -0.279541 17.2316 0.236534C17.6065 0.28345 17.9345 0.330366 18.2625 0.51803C19.1059 0.987189 19.1996 2.11317 19.2465 3.05149C19.2933 4.88121 19.2933 6.80476 18.3562 8.35299C17.2785 10.1827 15.1231 11.0741 13.0614 11.6371C10.0625 12.4347 6.87625 12.81 3.92427 11.8717C2.61228 11.4494 1.30027 10.7457 0.597414 9.52589C-0.292867 8.02458 -0.0117142 6.10102 0.316284 4.36513" transform="translate(84.2365 10.8726)" fill="#C7E4DD"/>
<path d="M2.57713 13.0426C3.0457 11.9166 4.12341 11.166 5.24798 10.7437C6.37254 10.3684 7.63767 10.2746 8.80909 10.1808C11.3862 10.04 14.0102 9.89926 16.5405 10.2746C17.2433 10.3684 17.9462 10.5561 18.5085 10.9783C19.5862 11.7759 19.8205 13.2303 20.0079 14.5439C20.2422 16.7021 20.3359 19.1417 18.7896 20.643C18.0399 21.3937 17.009 21.769 15.9782 22.0505C13.3542 22.7073 10.5897 22.8011 7.96567 22.2381C6.74739 22.0036 5.48224 21.5813 4.49825 20.7837C3.7954 20.2677 3.27999 19.5639 2.53028 19.0479C1.82743 18.5787 0.796573 18.3441 0.0937195 18.8133C0.0468626 18.8602 0 18.8602 0 18.954C0 19.0009 0 19.0479 0 19.0948C0.515426 20.5023 1.03084 21.9566 2.1554 22.9419C2.71769 23.458 3.37368 23.7864 4.02968 24.1148C8.48108 26.1322 13.4948 26.4137 18.321 27.0236C23.1473 27.6335 28.2547 28.7125 31.8627 31.9497C32.753 28.8064 32.8935 25.5223 32.3781 22.2851C32.2375 21.5344 32.0969 20.7837 31.6752 20.1738C31.3004 19.517 30.6912 19.0009 30.129 18.5318C28.817 17.4527 27.4581 16.4675 26.0056 15.5761C25.6776 15.3415 25.2559 15.0131 25.4433 14.6378C25.4901 14.497 25.6307 14.4501 25.7244 14.3563C26.8959 13.5587 28.3016 13.0426 29.145 11.8697C29.6136 11.2129 29.8947 10.4153 30.129 9.66468C31.0661 6.56823 31.441 3.28411 31.3473 0C29.4261 1.59514 26.849 2.11122 24.3656 2.48654C20.4296 3.04953 16.4468 3.37795 12.4639 3.47178C10.6834 3.51869 8.90281 3.51869 7.26282 4.17552C5.90397 4.69159 4.73254 5.62991 3.65483 6.66206C1.82741 8.44486 0.140576 10.7907 0.562288 13.3241C0.609145 13.5118 0.655985 13.6994 0.749699 13.8402C0.983983 14.1217 1.4057 14.1686 1.78056 13.9809C2.10855 13.8402 2.34284 13.5118 2.57713 13.2303" transform="translate(81.507 0.552979)" fill="#DB786F"/>
<path d="M0.0937252 60.6548C-0.0468454 52.9137 3.13942 45.4541 3.74856 37.7129C4.0297 33.772 3.65483 29.6903 4.73254 25.8432C5.10739 24.5765 5.62281 23.3098 5.57596 21.9492C5.57596 20.6355 5.01369 19.3688 4.82626 18.1021C4.40455 14.9118 6.37252 11.8623 8.62165 9.56339C15.9313 1.96301 27.2707 -1.55568 37.5792 0.649365C38.8912 0.93086 40.4375 1.68152 40.2969 2.99516C35.4707 4.49647 29.9415 3.04208 25.4433 5.29404C23.1942 6.42002 21.4136 8.43741 20.5702 10.7832C19.9142 12.7068 19.8205 14.7711 19.7736 16.7884C19.6799 20.1664 19.5393 23.5443 19.4456 26.9223C19.305 31.0978 19.2113 35.4141 20.5233 39.4019C20.9919 40.8563 21.6947 42.2169 21.8353 43.7651C21.9759 45.1257 21.6479 46.58 22.0227 47.8937C22.4444 49.395 23.7096 50.521 24.1313 52.0223C24.5999 53.5705 24.1782 55.2126 23.7564 56.7139C22.6787 60.5141 21.4604 64.2673 20.1953 67.9737C19.7267 69.3812 19.2113 70.7887 18.3679 72.0085C17.7588 72.9468 16.9153 73.7444 16.2593 74.5888C15.2754 75.8087 14.5256 77.1692 13.8228 78.5767C12.4171 81.3917 11.1519 84.4412 8.71537 86.4586C7.21595 76.747 4.26398 67.223 5.71983e-06 58.4029" transform="translate(50.2067 14.3535)" fill="#2E555B"/>
<path d="M5.71983e-06 45.8838C0.702859 43.538 1.45256 41.1922 2.15541 38.7995C2.71769 37.0636 3.23313 35.2808 4.21712 33.7325C4.87312 32.7004 5.66967 31.809 6.27881 30.7768C7.07538 29.5101 7.63768 28.0557 8.19996 26.6482C8.90281 24.8185 9.60567 22.9888 10.3085 21.1591C10.7302 20.08 11.1519 18.954 11.3862 17.7811C11.6674 16.3267 11.6205 14.8723 11.6205 13.418C11.6205 10.04 11.9954 6.66206 12.6514 3.37794C12.9325 2.01738 13.4479 0.469158 14.7599 -1.43176e-06C15.8376 1.26673 16.9153 2.53346 17.993 3.80019C18.977 4.97309 19.961 6.14598 20.4765 7.60038C20.9919 9.00785 20.9919 10.5092 21.4136 11.9636C21.9759 13.9809 23.2879 15.7638 23.897 17.7811C24.4124 19.517 24.4124 21.4406 25.0216 23.1295C25.537 24.6309 26.4741 25.8976 27.1301 27.3051C28.3015 29.8385 28.6296 32.6535 28.9575 35.4684C30.129 34.5301 30.8787 33.2165 31.5347 31.9028C34.0181 26.9767 35.8455 21.7221 38.1415 16.749C39.8283 13.0895 41.7963 9.47702 42.6866 5.583C42.9678 4.26935 43.2021 2.86187 44.1392 1.92355C45.0295 0.985236 46.482 0.750657 47.7471 1.12598C49.0123 1.50131 50.0431 2.39271 50.7928 3.42486C52.0111 5.11383 52.5266 7.27197 52.2454 9.33627C51.9643 11.2598 51.0271 13.0895 50.6523 15.0131C49.9963 18.5787 51.3551 22.1912 52.4797 25.6161C54.354 31.1991 55.6191 37.4389 53.4168 42.9281C52.6203 44.8985 51.402 46.7283 50.6054 48.6987C50.0432 50.2469 49.7151 51.9359 49.0123 53.4372C48.0752 55.4077 46.482 57.0028 44.8889 58.4572C44.3735 58.9264 43.8112 59.4425 43.1083 59.5363C42.3118 59.677 41.5621 59.2548 40.8592 58.9264C38.0478 57.6127 34.9552 57.1436 31.9564 56.4398C28.3016 55.5484 24.7873 54.2348 21.2262 52.9212C17.0559 51.3729 12.9325 49.8247 8.76225 48.2765C5.99769 47.2443 3.1394 46.2122 0.187416 46.3529C0.28113 45.5554 0.374861 44.7109 0.468574 43.9133" transform="translate(30.7609 66.7981)" fill="#F8D24F"/>
<path d="M23.2212 59.9702C25.6577 57.4367 28.3754 54.9033 30.0154 51.7599C31.7491 48.4758 32.7331 44.5349 33.2486 40.8754C33.9983 35.7616 33.2486 30.4601 31.6086 25.5808C30.2497 21.593 27.0635 17.7928 29.172 13.5704C30.2497 11.4122 32.124 9.34792 31.7491 6.76754C31.3274 3.76493 27.7195 0.480818 24.8143 0.0585745C20.4098 -0.598248 19.8007 4.42175 19.0509 7.47128C17.7389 12.632 15.5367 17.5582 13.147 22.2967C10.4761 27.6451 7.47728 32.8059 5.04072 38.295C3.2133 42.3298 1.99504 46.4584 0.776759 50.6808C1.24533 50.8216 1.66702 50.9154 2.13559 51.0562C2.18245 50.9154 2.22931 50.7278 2.22931 50.587C2.18245 49.9302 1.24532 49.6018 0.917324 50.2117C0.448755 51.1031 0.261316 52.2291 0.0270315 53.1674C-0.207253 54.0588 1.15161 54.4341 1.38589 53.5427C1.57332 52.839 1.94816 51.3377 2.13559 50.9154C1.71388 50.7747 1.24532 50.6808 0.823604 50.5401C0.823604 50.2586 0.823616 50.5401 0.776759 50.6339C0.589331 51.5253 1.85445 51.9007 2.13559 51.0093C3.02587 47.9597 3.82246 44.9571 4.99388 42.0014C6.72758 37.5913 8.92984 33.4158 11.1321 29.2403C13.2407 25.2055 15.3961 21.2177 17.1767 17.0421C18.9104 13.1012 19.9881 9.11334 21.0658 4.93783C21.3938 3.57727 21.9092 1.8883 23.5492 1.46605C25.1423 1.04381 26.876 2.31054 27.9537 3.34269C29.3126 4.5625 30.6714 6.11072 30.3903 8.08119C30.0154 10.427 28.0006 12.3036 27.2977 14.6025C26.4075 17.5582 27.7663 19.7633 28.8909 22.3905C30.9526 27.0352 32.2177 32.1021 32.1709 37.216C32.124 41.5792 31.0463 46.5053 29.1252 50.4463C27.532 53.7304 24.7206 56.3577 22.2372 58.938C21.6281 59.6418 22.612 60.627 23.2212 59.9702Z" transform="translate(52.5695 66.458)" fill="black"/>
<path d="M1.4234 46.9021C2.59482 42.8204 4.1411 38.8326 5.96852 35.0324C7.60851 31.5606 10.0919 28.3234 11.4508 24.7578C14.4496 16.9698 9.99819 8.24342 15.7616 1.25295C15.3867 1.20603 15.0119 1.15912 14.637 1.1122C17.4953 5.80379 19.9787 10.683 22.2278 15.7031C24.1021 19.8317 25.7421 24.101 26.8667 28.5111C27.8038 32.1705 28.5067 36.2991 27.2415 39.9586C26.9604 40.8031 28.3192 41.1784 28.6004 40.3339C31.1775 32.7335 27.1009 23.3034 24.1021 16.4068C21.7124 10.9176 18.9947 5.47538 15.8553 0.361542C15.621 -0.013785 15.0587 -0.154527 14.7307 0.2208C12.2942 3.1765 11.1228 6.46062 11.0291 10.3077C10.8885 14.5302 11.7319 18.7526 10.5605 22.9281C9.38907 27.0567 6.39023 30.7631 4.56281 34.6571C2.78225 38.5042 1.23597 42.4451 0.0176914 46.5268C-0.169736 47.4182 1.18911 47.7935 1.4234 46.9021Z" transform="translate(30.0405 65.123)" fill="black"/>
<path d="M1.41048 18.8336C2.06648 15.6902 2.67563 12.5468 3.33163 9.40347C3.89391 6.58851 4.26875 3.21057 6.79902 1.38085C6.47102 1.05243 6.14304 0.724027 5.81504 0.395616C4.5499 2.97599 4.97161 5.60328 6.04932 8.18365C6.75218 9.91954 7.78302 11.6085 8.29845 13.4382C9.0013 15.8779 8.9076 18.2706 8.34532 20.7102C8.15789 21.6016 9.51673 21.9769 9.70415 21.0855C10.407 17.9891 10.407 14.8926 9.23558 11.89C7.92359 8.46515 5.20589 4.85263 7.0333 1.09935C7.31445 0.536364 6.70532 -0.308126 6.04932 0.114118C3.84705 1.66234 3.00362 4.05506 2.44134 6.58851C1.55106 10.4825 0.848196 14.4704 0.00477245 18.4113C-0.0889413 19.3496 1.22305 19.725 1.41048 18.8336Z" transform="translate(37.7379 95.5374)" fill="black"/>
<path d="M1.20034 37.4214C5.74546 33.0113 4.05861 26.2085 5.18318 20.5786C6.58888 13.8696 9.68142 7.5829 9.82199 0.639341C9.35342 0.639341 8.88485 0.639341 8.41628 0.639341C8.97857 6.69149 8.18201 12.7906 8.97857 18.8427C9.822 25.364 8.79116 32.2607 8.46316 38.8289C8.4163 39.7203 9.82201 39.7203 9.86886 38.8289C10.1969 32.4014 11.1808 25.6455 10.4311 19.218C9.72827 13.0251 10.4311 6.87916 9.82199 0.686259C9.72828 -0.205143 8.41628 -0.252059 8.41628 0.686259C8.27571 7.25449 5.46432 13.1659 4.01175 19.4995C2.79348 24.9418 4.52716 32.2607 0.21633 36.4831C-0.439666 37.0461 0.544346 38.0782 1.20034 37.4214Z" transform="translate(61.9856 86.3328)" fill="black"/>
<path d="M0.667705 5.96011C8.02423 5.91319 14.6779 2.15992 21.9407 1.50309C29.2504 0.846272 36.3726 2.91058 43.1669 5.44404C50.1017 8.02441 56.8491 11.1678 63.9714 13.1852C70.8593 15.1556 77.9816 16.2347 85.1038 16.4693C93.3975 16.7039 101.644 15.6717 109.657 13.5136C110.547 13.279 110.172 11.9184 109.282 12.153C94.6157 16.1878 78.9656 16.047 64.3462 11.8715C51.0857 8.07132 38.5281 -0.138961 24.3773 0.00178683C16.1773 0.0956187 8.8208 4.50571 0.667705 4.55263C-0.222576 4.55263 -0.222576 5.96011 0.667705 5.96011Z" transform="translate(0.151733 111.742)" fill="black"/>
<path d="M1.76092 60.8228C0.636352 55.0521 2.65121 49.4691 4.15063 43.933C5.46263 39.0538 6.11861 34.1276 6.4466 29.0607C6.82146 23.7592 6.07174 17.0971 8.69573 12.3586C10.9917 8.23003 15.6305 5.1805 19.9414 3.49153C24.2054 1.80255 28.8911 1.14573 33.4362 1.61489C35.2167 1.80255 38.4498 2.08405 39.8555 3.21003C41.9641 4.899 38.4967 4.899 37.2784 4.899C35.9196 4.899 34.5607 4.75826 33.155 4.71134C29.1253 4.61751 25.6579 5.64966 23.2214 9.0276C20.6442 12.4994 19.6602 17.0502 19.1917 21.2727C18.5825 27.0902 19.3322 32.9078 20.3631 38.6315C21.3471 44.1207 22.2842 49.8914 24.5802 54.9583C24.9551 55.8028 26.1733 55.0521 25.7985 54.2545C23.3151 48.8123 22.378 42.3848 21.394 36.5203C20.3631 30.4682 19.8477 24.1814 21.066 18.0824C22.2374 12.3117 24.9082 6.44723 31.515 6.11882C33.4362 6.02499 42.5733 7.76087 42.4796 4.14835C42.3858 1.00498 35.4979 0.395075 33.3893 0.160495C28.9379 -0.308664 24.3459 0.254327 20.1757 1.80255C15.9117 3.39769 11.7883 5.97807 8.88317 9.54368C5.74376 13.3908 5.6032 18.0824 5.32206 22.8209C4.9472 29.8114 4.57235 36.708 2.74493 43.4639C1.15179 49.2815 -0.816211 55.0052 0.355211 61.1043C0.589495 62.0895 1.94834 61.7142 1.76092 60.8228Z" transform="translate(49.4298 13.2004)" fill="black"/>
<path d="M1.68799 4.60381C4.12455 2.77409 6.93597 1.64811 9.98167 1.46045C11.4811 1.36662 12.9805 1.50736 14.4331 1.83578C16.8228 2.44568 17.5725 3.99391 17.6662 6.3397C17.713 8.21634 17.713 10.5152 16.0262 11.6881C14.761 12.5795 12.1371 12.5795 10.6845 12.5326C8.76339 12.4857 1.59429 12.0634 1.40686 9.29541C1.36001 8.404 -0.0456997 8.404 0.00115716 9.29541C0.235442 13.2363 6.93598 13.7524 9.8411 13.9401C12.1839 14.0808 14.9485 13.8462 17.1039 12.7672C18.7439 11.9227 18.8845 10.7967 18.9782 9.06083C19.0719 7.09036 19.353 4.69765 18.369 2.86793C17.4319 1.13204 15.5576 0.569046 13.7302 0.240634C9.23196 -0.556936 4.59313 0.662878 0.938295 3.384C0.282298 3.90008 0.98514 5.16681 1.68799 4.60381Z" transform="translate(82.8649 9.64844)" fill="black"/>
<path d="M3.09705 13.314C3.84676 6.32355 11.7187 4.54075 17.4821 4.25925C22.8238 4.02467 28.2123 4.21234 32.9917 1.39738C32.6637 1.11589 32.2889 0.881306 31.9609 0.599811C31.1174 3.13327 31.6797 5.61981 31.4455 8.2471C31.1643 11.4843 29.2432 14.1116 26.1506 15.2376C25.4478 15.5191 25.4946 16.5981 26.338 16.5981C34.4911 16.6451 33.7883 26.9666 32.7106 32.3619C33.0854 32.2681 33.5071 32.1742 33.882 32.0335C29.9929 27.858 24.2295 27.3419 18.8409 27.295C12.5621 27.248 2.44103 26.9666 1.41018 18.7563C1.31647 17.8649 -0.0892368 17.8649 0.00447692 18.7563C0.754187 24.5738 6.1896 27.6703 11.5313 28.4209C18.6535 29.4062 27.3689 27.1073 32.8512 33.0656C33.1792 33.4409 33.9289 33.2533 34.0226 32.7372C34.8192 28.6555 35.6157 24.1516 33.7414 20.2576C32.3357 17.3488 29.618 15.2376 26.2912 15.1907C26.3381 15.6598 26.4318 16.129 26.4786 16.5512C28.962 15.6598 30.9769 13.9708 32.0546 11.4843C33.554 8.05944 32.1014 4.35308 33.2729 0.881306C33.4603 0.2714 32.7574 -0.19776 32.242 0.0837359C25.8695 3.79009 18.3255 1.81962 11.4376 3.5086C6.61131 4.6815 2.20675 8.01252 1.64447 13.2202C1.59761 14.2054 3.00333 14.2054 3.09705 13.314Z" transform="translate(80.0031)" fill="black"/>
</svg>
