<svg width="131" height="271" viewBox="0 0 131 271" fill="none" xmlns="http://www.w3.org/2000/svg">
<path d="M0.279475 21.1755C1.25764 18.0108 3.95922 16.1957 6.84713 15.1253C9.73504 14.0549 12.3435 13.6361 15.278 13.4034C17.7001 13.2637 19.9825 13.543 22.358 13.4499C25.013 13.3568 27.5749 12.9845 30.1833 12.5657C35.0741 11.7745 39.8718 10.8902 44.716 9.86636C46.5792 9.49405 48.3958 9.0752 50.1192 8.09787C51.8426 7.16708 53.4263 5.49166 54.7771 4.04894C56.1279 2.65275 57.2458 1.39619 58.55 2.84054e-06C59.435 4.88665 60.2269 9.7733 60.7393 14.7065C60.879 15.9165 61.0188 17.1265 60.5995 18.3831C60.2269 19.6397 59.2953 20.7566 58.4103 21.7339C56.9664 23.2697 55.569 24.9452 53.799 26.1087C51.3303 27.7841 48.5821 28.7614 45.7408 29.5526C41.0828 30.8557 36.5181 32.2519 31.7204 32.438C26.5501 32.6707 21.5662 31.7399 16.8617 29.6456C11.1324 27.1325 6.24162 23.3628 1.13719e-05 22.1063" transform="translate(68.4097 111.968)" fill="#2E555B"/>
<path d="M0.698688 5.77603C7.73215 5.54333 14.1135 2.28557 21.1004 1.58748C28.3667 0.842846 35.5399 2.70444 42.2939 5.12449C48.9547 7.54455 55.3827 10.4765 62.1367 12.4777C69.1701 14.572 76.4831 15.782 83.796 16.0613C92.32 16.387 100.797 15.4097 109.042 13.2689C109.927 13.0362 109.554 11.6866 108.669 11.9192C93.6708 15.8286 77.8338 15.5959 62.9285 11.2677C49.9795 7.49799 37.7291 -0.227545 23.8951 0.00515223C15.8835 0.144771 8.66373 4.10061 0.698688 4.37985C-0.232896 4.42639 -0.232896 5.82257 0.698688 5.77603Z" transform="translate(3.71127 254.048)" fill="black"/>
<path d="M1.29556 23.97C1.99425 20.4796 4.789 18.9438 8.04954 18.3387C11.2635 17.7337 14.5706 17.4545 17.7846 17.0822C24.2125 16.291 30.6404 15.5929 37.0684 14.7552C42.2387 14.0571 47.6419 13.3125 52.2066 10.6597C56.0261 8.42583 58.7277 4.98191 60.3114 0.886435C59.8456 0.839895 59.3798 0.746819 58.9606 0.700279C58.1222 7.82082 62.0814 14.8017 60.5443 21.8292C58.914 29.229 49.4119 32.161 42.9839 33.7899C35.7176 35.6514 28.1252 35.6049 20.9054 33.6502C17.0859 32.6264 13.4061 31.1371 9.95928 29.2755C7.25769 27.8328 4.92875 26.0178 1.71478 25.8781C0.829779 25.8316 0.829779 27.2278 1.71478 27.2743C4.09032 27.4139 5.81374 28.5309 7.81665 29.6944C9.54008 30.7182 11.3567 31.6025 13.2198 32.3937C16.853 33.976 20.6259 35.186 24.5386 35.8841C31.9447 37.1407 39.4905 36.5357 46.6171 34.1622C52.4861 32.254 59.8922 29.4617 61.7554 22.9461C63.8514 15.5464 59.5661 8.14659 60.4046 0.653737C60.4977 -0.183973 59.2867 -0.183971 59.0538 0.467582C54.2095 12.8936 39.5371 13.0798 28.2183 14.4294C21.9767 15.1741 15.7351 15.8721 9.49349 16.7099C5.16162 17.2683 0.969499 18.8507 0.0379153 23.5512C-0.24156 24.4354 1.10924 24.8077 1.29556 23.97Z" transform="translate(68.558 108.429)" fill="black"/>
<path d="M1.04701 8.7431C5.51861 6.55574 10.7355 7.71922 15.4866 7.95192C20.424 8.23116 25.3613 8.2777 30.2987 8.09155C34.6306 7.90539 39.242 7.76576 43.5272 6.83497C46.648 6.13688 48.6509 3.90299 49.3962 0.877926C49.6291 -0.00632382 48.2783 -0.378648 48.0454 0.505602C46.7878 5.67148 41.9435 5.76457 37.5185 6.22997C33.0469 6.64882 28.5753 6.83497 24.0571 6.83497C19.539 6.83497 15.0208 6.60228 10.5026 6.27651C6.96256 5.99727 3.60887 5.99727 0.348322 7.57961C-0.443524 7.95192 0.255164 9.16195 1.04701 8.7431Z" transform="translate(72.4397 123.656)" fill="black"/>
<path d="M0.166463 1.19221C0.958309 2.07646 1.84333 2.86762 2.77492 3.61225C3.10097 3.84495 3.56675 3.65879 3.75307 3.37955C3.98596 3.00724 3.79965 2.63492 3.52017 2.40222C2.68175 1.75067 1.8899 1.00604 1.19121 0.214873C0.585681 -0.436679 -0.392487 0.540653 0.166463 1.19221Z" transform="translate(87.9926 134.558)" fill="black"/>
<path d="M0.318606 1.3147C1.38993 1.96625 2.55442 2.52472 3.76548 2.94358C4.6039 3.26936 4.97653 1.91971 4.13811 1.59394C3.06678 1.17508 2.04204 0.709682 1.01729 0.104669C0.272027 -0.360726 -0.426661 0.849303 0.318606 1.3147Z" transform="translate(99.1594 134.994)" fill="black"/>
<path d="M0.23426 1.14409C1.53848 2.2145 2.98242 2.8195 4.70585 2.86604C5.59086 2.91258 5.59086 1.5164 4.70585 1.46986C3.40163 1.42332 2.23715 1.00447 1.21241 0.166757C0.560303 -0.391717 -0.464428 0.585615 0.23426 1.14409Z" transform="translate(112.239 133.675)" fill="black"/>
<path d="M1.21853 2.28827C1.63774 1.91595 2.15012 1.59017 2.70907 1.35748C3.03512 1.21786 3.3146 0.892072 3.17486 0.519756C3.0817 0.19398 2.6625 -0.131796 2.33644 0.0543616C1.54459 0.380138 0.845907 0.799002 0.240377 1.35748C-0.458311 1.86941 0.519841 2.84674 1.21853 2.28827Z" transform="translate(89.8285 126.481)" fill="black"/>
<path d="M0.811958 2.81613C1.97644 2.30419 3.18749 1.79226 4.35197 1.28033C5.19039 0.908014 4.44512 -0.302016 3.65328 0.0703C2.58196 0.535695 1.55723 1.04763 0.43933 1.46648C-0.352516 1.8388 0.0201119 3.18844 0.811958 2.81613Z" transform="translate(100.25 125.627)" fill="black"/>
<path d="M1.41515 3.64167C1.88094 2.52472 3.23174 1.91971 4.2099 1.3147C4.95517 0.8493 4.25648 -0.360715 3.51122 0.10468C2.16042 0.98893 0.716481 1.73356 0.0643723 3.26936C-0.308261 4.10707 1.04252 4.47938 1.41515 3.64167Z" transform="translate(111.105 123.778)" fill="black"/>
<path d="M1.40582 0.232703C2.61688 6.32938 3.82793 12.3795 5.03899 18.4762C5.64452 21.5478 6.34322 24.5729 7.64744 27.4583C8.39271 29.1337 9.37087 30.623 9.7435 32.438C11.9793 30.6695 13.563 28.5752 14.4014 25.8759C15.007 23.8747 15.007 21.827 15.5659 19.8724C16.0317 18.1504 16.7304 16.6146 17.4756 15.0323C18.873 12.1003 20.317 9.26136 22.3199 6.70169C22.8788 5.95706 23.6707 5.25896 24.6488 5.5382C25.627 5.81744 25.8599 6.93438 26.0462 7.86517C27.071 12.7518 28.6081 17.4523 30.3315 22.1063C31.0768 24.154 31.8686 26.2017 32.6139 28.2495C33.7318 31.228 34.8497 34.2065 36.2005 37.0454C37.2718 39.3259 38.5294 41.5132 39.5542 43.7936C40.4392 45.7948 40.9981 47.9357 41.9763 49.8903C44.445 54.777 47.9384 58.919 49.3358 64.3176C45.2368 64.5037 41.1844 64.6899 37.0855 64.7364C33.266 64.783 29.5862 64.783 25.7667 64.271C21.9472 63.7591 18.1277 62.7352 14.3548 61.7113C9.41743 60.3617 4.66635 58.8725 0.287905 56.1732C0.194747 56.1266 0.0550205 56.0335 0.00844134 55.8939C-0.0847171 55.2889 0.613965 55.2424 1.07976 54.9631C2.01134 54.4977 2.29081 53.4273 2.38397 52.4034C2.80318 48.2149 3.12925 44.1194 3.26898 39.8843C3.36214 37.697 3.36213 35.6027 3.08266 33.3688C2.80318 31.1349 2.10451 28.901 1.73188 26.6671C1.21951 23.9213 1.03319 21.1289 0.893457 18.29C0.660561 12.1933 0.660544 6.09668 0.846861 5.68109e-06" transform="translate(52.3781 204.396)" fill="#2E555B"/>
<path d="M1.95633 26.4192C0.978169 25.9073 0.605535 24.9765 0.32606 23.9526C0.0465849 22.9288 0 21.5791 0 20.5553C0.186317 14.1793 0.885005 8.08268 2.32896 1.93947C2.42212 1.47407 2.51527 0.962139 2.84132 0.729441C3.67975 0.0313492 4.56476 -0.15481 5.5895 0.124427C7.54583 0.636361 9.22268 0.543284 10.6201 2.31178C12.2503 4.40606 12.5764 6.87265 12.5764 9.80464C12.5764 14.0397 11.738 18.5541 10.4338 22.7426C9.82822 24.6042 8.94319 27.1173 7.26634 28.2343C5.17028 29.677 3.81949 28.0016 2.32896 26.745" transform="translate(63.0996 49.0154)" fill="#C7E4DD"/>
<path d="M0.0931584 142.225C0.419213 130.543 2.88792 119.374 4.70451 107.785C5.63609 101.828 6.00872 95.1267 6.84714 89.03C7.12662 86.9823 7.08005 84.8415 6.80057 82.8403C6.56768 80.8391 5.5895 80.0014 5.21687 78.0002C4.28529 73.0204 4.00581 70.0419 4.51818 64.3176C6.24161 45.6087 8.43085 21.8736 12.8559 3.63008C13.4148 1.34964 13.9738 0.651551 15.8369 -1.42027e-06C15.5574 12.1933 14.3464 24.6194 13.4148 36.6731C12.949 42.6302 13.1819 49.0526 13.9272 54.4512C14.5327 58.8259 16.0232 61.1063 16.9548 64.9226C18.4919 71.252 19.7962 77.4417 20.1222 83.9107C20.4948 91.9155 20.0291 100.2 21.0072 107.972C21.3799 110.764 21.8457 113.091 21.9388 115.604C22.032 118.117 21.7059 120.491 22.0785 122.725C22.4978 125.238 23.7554 127.285 24.2212 129.519C24.687 131.753 24.4075 134.825 24.128 136.547C23.5225 140.828 24.687 140.735 23.5691 145.715C23.1499 147.577 19.9825 157.024 18.7714 159.584C17.8398 161.492 17.1877 162.097 16.489 163.354C15.4643 165.122 14.6724 166.797 14.1135 168.473C12.949 171.777 12.1572 174.476 10.0145 177.129C7.45267 168.985 3.49343 159.91 1.39737 152.044C0.0465735 146.832 1.02474 143.993 -5.68594e-06 139.107" transform="translate(53.2246 66.8713)" fill="#2E555B"/>
<path d="M1.23737 195.37C5.47608 191.228 6.22135 184.945 5.98846 179.268C5.75556 173.124 4.03213 167.26 3.33344 161.21C1.70317 147.481 2.68131 133.845 5.38291 120.349C7.01318 112.251 9.15582 104.386 9.57503 96.055C9.80793 91.4942 9.66822 86.9333 9.249 82.3724C8.82979 78.1839 7.89819 74.0884 7.4324 69.9464C6.68713 63.0585 7.80504 55.8449 8.45715 48.9571C9.20242 41.2315 10.1806 33.506 11.4848 25.827C12.6493 18.846 14.0932 11.8651 16.2825 5.16343C16.5153 4.4188 16.7482 3.62763 17.0743 2.883C17.3538 2.18491 17.2606 1.81259 18.0059 2.09182C18.7977 2.32452 18.4717 2.6503 18.4251 3.39493C18.2388 5.53575 18.0991 7.7231 17.8662 9.86392C17.4469 14.1921 17.0277 18.5203 16.6085 22.8484C15.8632 30.9463 15.3043 39.0442 15.6769 47.1886C16.003 54.9607 17.773 62.2208 19.1238 69.8068C22.0583 86.5144 22.3843 103.501 23.5954 120.395C24.0612 126.911 24.527 133.473 25.5517 139.942C26.1573 143.851 27.2751 147.481 28.4862 151.251C31.607 160.885 34.9141 170.472 38.6405 179.873C40.4571 184.48 42.4134 189.087 44.6492 193.509C46.1863 196.534 47.8166 199.792 50.1921 202.212C50.8908 202.956 51.6826 203.561 52.6608 203.887C53.4992 204.166 53.8719 202.817 53.0335 202.537C50.5182 201.746 48.7947 198.116 47.5837 196.022C45.1616 191.74 43.1587 187.179 41.2955 182.618C37.3363 172.985 33.8894 163.118 30.6288 153.252C29.5575 149.948 28.2999 146.597 27.5546 143.2C26.1107 136.358 25.6449 129.331 25.1325 122.35C23.968 106.247 23.642 89.9584 21.2198 73.9953C20.0088 65.8044 17.7264 57.7996 17.214 49.5156C16.7017 41.3246 17.0743 33.1337 17.8196 24.9893C18.1922 20.6611 18.658 16.2864 19.0772 11.9582C19.2635 9.91046 19.4498 7.86272 19.6362 5.81498C19.7293 4.46534 20.3814 2.37106 19.7759 1.06796C18.7977 -1.02632 16.7017 0.369863 16.0496 1.76605C14.7453 4.51188 14.0466 7.7231 13.2548 10.6551C9.52847 24.9427 7.80502 39.8353 6.54739 54.4953C6.26791 57.9392 5.89529 61.4296 5.80213 64.8736C5.70897 68.6433 6.31451 72.3199 6.92004 75.9965C8.50374 85.351 8.73661 94.8915 7.33924 104.293C6.17476 112.111 3.89238 119.697 2.68132 127.516C1.61 134.45 0.77157 141.571 1.05105 148.598C1.28394 154.369 1.56341 160.186 2.58815 165.864C3.79921 172.333 5.19661 178.895 4.26502 185.504C3.79923 188.808 2.63476 192.019 0.166058 194.393C-0.392893 194.998 0.585265 195.975 1.23737 195.37Z" transform="translate(50.7764 65.3379)" fill="black"/>
<path d="M2.26169 24.4103C1.23695 18.8255 -0.952283 -3.18763 10.4596 2.21095C13.627 3.74675 12.6954 8.07493 12.2762 10.8208C11.9502 12.9616 11.4844 15.0558 10.972 17.1501C10.4131 19.2444 9.76094 21.3387 9.15541 23.433C8.59646 25.2945 8.27042 27.4353 6.31409 28.2731C5.47566 28.6454 6.22093 29.8554 7.01278 29.4831C8.92252 28.6454 9.62121 26.8303 10.1802 24.9222C11.1117 21.7575 12.0899 18.6394 12.8352 15.4282C13.5339 12.4031 13.9997 9.37803 14.0928 6.25989C14.1394 3.79329 14.1394 2.02479 11.6241 1.094C9.57462 0.34937 6.96619 -0.48834 4.82355 0.34937C2.49459 1.23362 1.70274 3.65367 1.09721 5.84103C-0.533059 12.0773 -0.160431 18.4532 1.00405 24.7361C1.09721 25.6668 2.44801 25.2945 2.26169 24.4103Z" transform="translate(62.2353 51.1174)" fill="black"/>
<path d="M39.5524 5.15716C36.6645 3.80751 33.2176 4.13329 30.2366 5.34331C27.2555 6.55334 24.6937 8.508 22.1784 10.4627C18.9178 12.9758 15.6573 15.4889 12.3967 18.0486C10.9528 19.1655 9.41569 20.3756 8.62385 22.051C7.55252 24.3314 8.06489 27.0307 7.5991 29.4973C7.08673 32.057 5.50304 34.2443 4.19882 36.5248C-1.48384 46.5308 -1.39068 59.6083 4.43172 69.5678C5.82909 71.9879 7.5991 74.2217 8.76358 76.7814C9.50884 78.4103 10.0678 80.1788 11.1391 81.575C14.3065 85.7635 20.6879 85.6239 25.1595 88.3232C29.6776 91.069 32.1929 96.6072 37.1303 98.5154C40.1114 99.6788 43.5582 99.2134 46.5393 97.9569C49.5204 96.7003 52.0822 94.6991 54.5975 92.6979C58.6033 89.4867 62.5625 86.1359 65.2641 81.8077C66.4752 82.8781 66.7081 84.6931 67.4534 86.1359C69.27 89.7194 74.0676 90.7898 77.9337 89.7659C81.7998 88.7421 85.0603 86.2289 88.5072 84.1812C90.8361 82.785 93.2582 81.575 95.2146 79.7134C97.2175 77.8053 98.5217 75.3387 99.8259 72.9186C101.782 69.2886 103.739 65.6119 105.695 61.9819C107.651 58.3518 109.608 54.7217 111.098 50.8589C114.918 40.8995 115.244 29.9627 115.523 19.3052C115.616 15.9543 115.709 12.5104 114.871 9.29917C114.033 6.08794 112.123 2.92326 109.095 1.38746C103.692 -1.35837 97.3572 1.80631 92.0472 4.69176C90.2772 5.66909 88.2277 6.64642 86.3179 5.99487C84.2219 5.29677 83.1971 2.9698 81.5203 1.57362C78.5392 -0.892977 74.1142 -0.0552663 70.5276 1.34092C66.941 2.7371 63.3078 4.7383 59.4883 4.17983C57.1594 3.85405 55.1099 2.64402 52.8275 1.99247C47.1914 0.410129 41.2759 2.55094 35.5466 3.80751" transform="translate(2.1673 2.46948)" fill="#F2B1AA"/>
<path d="M27.1615 1.08481C21.3391 -0.0786732 14.7249 -1.10254 9.97384 2.481C7.50514 4.29604 5.96802 7.08841 4.52407 9.74116C2.24169 13.9297 -0.133858 18.3975 0.00587955 23.1445C0.099038 25.6577 1.40325 28.5896 3.87195 28.7758C4.66379 28.8689 5.50224 28.6362 6.2475 28.962C7.50514 29.567 7.50514 31.2424 7.78461 32.592C8.34356 35.3379 10.7657 37.4321 13.3741 38.3164C16.0291 39.2472 18.917 39.1541 21.6652 38.9214C26.7423 38.5491 32.5182 37.1995 34.8937 32.6851C36.0116 30.4978 36.2445 27.7054 38.1077 26.1231C38.8995 25.425 39.9708 25.0526 40.6695 24.308C41.4614 23.4703 41.834 22.3068 42.0669 21.1433C42.7656 17.9786 42.9519 14.5813 41.9737 11.5097C40.9956 8.43805 38.5735 5.64568 35.4061 4.80797C33.0771 4.20296 30.0495 4.29604 29.0713 2.10868" transform="translate(44.6946 32.9763)" fill="#DB786F"/>
<path d="M0.059227 83.2067C-0.406565 87.1161 1.92241 90.7927 5.36927 92.6077C9.14218 94.6089 13.7069 93.9574 17.4333 92.1423C21.7186 90.048 24.8394 86.3249 27.5876 82.5552C31.081 77.8082 34.4347 72.9215 37.8815 68.0814C41.1421 63.5205 44.5424 58.9597 46.5919 53.7007C48.5948 48.5814 49.2934 42.9966 49.5263 37.505C49.8058 31.5014 49.7592 25.4978 49.6195 19.4942C49.5263 14.8868 50.225 8.60395 47.5234 4.55502C45.1479 0.971478 40.3968 -0.471246 36.2978 0.133767C31.2207 0.878399 27.1217 4.4154 23.9078 8.23164C23.3488 8.92973 24.327 9.90706 24.8859 9.20897C27.6341 5.9512 30.9412 2.92614 35.1334 1.80919C39.1392 0.73878 44.1697 1.85573 46.4521 5.53235C47.6632 7.487 47.8029 9.86052 47.8961 12.0944C48.0358 14.7006 48.129 17.3534 48.1755 19.9596C48.2687 24.9858 48.3153 29.9656 48.1755 34.9918C48.0358 39.6923 47.7097 44.3928 46.5453 48.9537C45.3808 53.5611 43.2381 57.7031 40.5831 61.6124C37.9281 65.5683 35.0868 69.4311 32.3386 73.2938C29.5439 77.2497 26.8889 81.3452 23.7681 85.0218C20.5075 88.7915 16.2222 92.1889 11.0053 92.4216C5.83505 92.6543 0.711342 88.6984 1.31687 83.2067C1.59635 82.3225 0.198965 82.3225 0.059227 83.2067Z" transform="translate(69.2354)" fill="black"/>
<path d="M47.1546 51.8516C51.8591 49.9435 56.3307 47.4304 60.8954 45.243C63.0847 44.2192 65.5533 43.5211 67.5097 42.0783C69.9784 40.3098 70.5373 37.6105 70.8168 34.7716C71.6552 27.0461 71.3757 18.7621 69.3263 11.2227C67.696 5.21907 60.7557 2.33362 55.2128 0.751281C52.2317 -0.132969 48.9246 -0.412206 45.9901 0.890899C44.5927 1.54245 43.568 2.61286 42.2172 3.35749C39.9348 4.56752 37.5592 3.63673 35.37 2.75248C29.0352 0.239346 22.7005 0.983978 17.111 5.03291C11.4283 9.17493 7.84172 15.6439 4.90723 21.8802C2.43854 27.0926 -1.66043 34.5855 0.715106 40.496C1.87959 43.428 4.62776 44.7311 7.56225 45.3361C10.4036 45.8946 13.2449 46.3134 16.0862 46.8719C22.2347 48.0819 28.3831 49.5247 34.6248 50.502C35.5098 50.6416 35.8824 49.292 34.9974 49.1523C30.3395 48.4542 25.7281 47.3838 21.1168 46.4531C16.6452 45.5223 12.0804 44.8707 7.60882 43.8934C-0.495959 42.1249 1.27404 34.3528 3.55643 28.4888C6.11828 21.9267 9.28567 14.9924 14.0367 9.68686C18.4152 4.84675 25.076 1.21668 31.7368 2.93864C34.4384 3.63673 36.9537 5.35869 39.795 5.35869C42.7761 5.35869 44.3598 2.93864 46.9682 1.96131C50.089 0.79782 53.5825 1.58899 56.6101 2.70594C59.6378 3.82289 63.5504 5.40523 65.8328 7.7322C68.022 9.91956 68.4412 13.5031 68.907 16.4351C69.5591 20.3444 69.8386 24.3468 69.792 28.3492C69.7455 32.0258 70.1647 38.0294 67.137 40.6356C65.367 42.1714 62.712 42.8695 60.6159 43.8468C55.958 46.0342 51.4864 48.5939 46.7353 50.502C45.9901 50.8278 46.3161 52.1774 47.1546 51.8516Z" transform="translate(25.913 2.31445)" fill="black"/>
<path d="M43.7664 2.21516C37.8974 -2.57841 30.5379 1.33091 25.4142 5.24022C23.7373 6.54333 22.107 7.89297 20.337 9.00992C18.567 10.1734 16.6107 10.9646 14.8407 12.1281C12.1391 13.8966 10.6486 16.5959 9.67039 19.6209C8.36617 23.7164 7.29485 27.6257 5.24537 31.4885C3.33562 35.072 1.28614 38.609 0.494298 42.658C-1.08939 50.5697 1.42588 59.1795 3.89457 66.6723C5.75774 72.3967 8.50592 78.7261 13.816 82.0304C16.8436 83.8919 19.9178 83.5196 23.2249 84.4039C27.0444 85.4277 28.6281 90.3144 31.6558 92.6879C37.1521 96.9695 44.6514 97.6211 51.0327 95.0149C54.433 93.6187 57.5072 91.3848 59.9759 88.639C62.8173 85.4743 64.6338 81.565 67.6615 78.5399C73.1578 73.0482 82.3339 70.7213 85.6876 63.1819C88.4358 57.0387 86.9453 48.8477 82.7066 43.7749C82.1476 43.0768 81.1229 44.1007 81.7284 44.7522C85.6876 49.4527 87.0385 57.411 84.2437 62.9957C81.3092 68.8597 74.3689 71.4659 69.3849 75.1891C63.6557 79.5172 61.187 86.6378 55.3646 90.9194C49.4956 95.2476 41.5771 96.5972 34.9629 93.1068C31.6092 91.3383 29.9323 88.639 27.6965 85.8001C25.9265 83.5196 23.7373 82.9146 20.9426 82.6354C14.1886 82.0304 10.1362 77.7022 7.38801 71.7451C4.45352 65.4623 2.40405 58.016 1.65878 51.1282C1.19299 47.0327 1.47246 42.9372 3.00957 39.0744C4.40695 35.5374 6.50301 32.3727 8.0867 28.9288C9.57724 25.7176 10.1828 22.2737 11.3472 18.9694C12.1391 16.782 13.3036 14.8274 15.2599 13.4777C16.7504 12.4073 18.4739 11.7557 20.0576 10.825C26.2526 7.19488 35.0095 -3.18342 42.7882 3.14595C43.4869 3.7975 44.4651 2.82017 43.7664 2.21516Z" transform="translate(0.468445 5.03906)" fill="black"/>
<path d="M5.69172 0.325775C3.92171 -0.0930804 1.9188 0.977328 1.2667 2.65275C0.754324 3.86278 0.89405 5.21242 0.614575 6.46899C0.381679 7.49286 -0.177248 8.51672 0.0556476 9.58713C0.288544 10.7041 1.40643 11.4952 2.57091 11.5883C3.73539 11.6349 4.8533 11.0764 5.64515 10.2852C6.25068 9.68021 6.90279 8.88904 7.74122 9.0752C8.11385 9.16828 8.3933 9.44751 8.76593 9.63367C9.65094 10.0525 10.8154 9.54059 11.3744 8.74942C11.9333 7.91171 11.9799 6.8413 11.8867 5.86397C11.7004 4.46779 11.1415 3.02507 9.93041 2.32697C9.41804 2.0012 8.76595 1.86158 8.25357 1.5358C7.7412 1.21003 7.32199 0.558474 7.55489 0" transform="translate(60.4355 48.6279)" fill="#C7E4DD"/>
<path d="M0.698688 1.39618C1.58369 1.39618 1.58369 -1.42027e-06 0.698688 -1.42027e-06C-0.232896 -1.42027e-06 -0.232896 1.39618 0.698688 1.39618Z" transform="translate(54.4822 49.6519)" fill="black"/>
<path d="M0.663759 1.39618C1.54876 1.39618 1.54876 7.10136e-07 0.663759 7.10136e-07C-0.221245 7.10136e-07 -0.221245 1.39618 0.663759 1.39618Z" transform="translate(52.7471 54.8643)" fill="black"/>
<path d="M0.663759 1.39618C1.54876 1.39618 1.54876 -1.42027e-06 0.663759 -1.42027e-06C-0.221245 -1.42027e-06 -0.221245 1.39618 0.663759 1.39618Z" transform="translate(56.2408 53.375)" fill="black"/>
<path d="M0.698677 1.39619C1.58368 1.39619 1.58368 1.42027e-06 0.698677 1.42027e-06C-0.232907 1.42027e-06 -0.232907 1.39619 0.698677 1.39619Z" transform="translate(55.2279 60.635)" fill="black"/>
<path d="M0.663742 1.39619C1.54875 1.39619 1.54875 1.42027e-06 0.663742 1.42027e-06C-0.221263 1.42027e-06 -0.221263 1.39619 0.663742 1.39619Z" transform="translate(58.9888 60.8677)" fill="black"/>
<path d="M1.04722 2.05219C1.55959 1.67987 2.07197 1.44718 2.67749 1.40064C3.5625 1.30756 3.5625 -0.0886267 2.67749 0.00445227C1.83907 0.0975312 1.00064 0.33023 0.348535 0.842164C0.0224805 1.07486 -0.117257 1.44717 0.115639 1.81949C0.301956 2.09873 0.767748 2.28488 1.04722 2.05219Z" transform="translate(60.7013 65.6104)" fill="black"/>
<path d="M0.663753 1.39618C1.54876 1.39618 1.54876 -1.42027e-06 0.663753 -1.42027e-06C-0.221251 -1.42027e-06 -0.221251 1.39618 0.663753 1.39618Z" transform="translate(65.2306 63.6135)" fill="black"/>
<path d="M1.18776 1.41946C1.28092 1.32638 1.37407 1.2333 1.42065 1.18676C1.70013 0.907523 1.70013 0.488665 1.42065 0.209428C1.14118 -0.0698092 0.721978 -0.0698092 0.442502 0.209428C0.349344 0.302507 0.256186 0.395586 0.209606 0.442125C-0.0698688 0.721362 -0.0698688 1.14022 0.209606 1.41946C0.442502 1.69869 0.908283 1.69869 1.18776 1.41946Z" transform="translate(68.4794 65.6382)" fill="black"/>
<path d="M0.663753 1.39618C1.54876 1.39618 1.54876 -2.84054e-06 0.663753 -2.84054e-06C-0.221251 -2.84054e-06 -0.221251 1.39618 0.663753 1.39618Z" transform="translate(71.7514 61.6123)" fill="black"/>
<path d="M0.663742 1.39619C1.54875 1.39619 1.54875 2.84054e-06 0.663742 2.84054e-06C-0.221263 2.84054e-06 -0.221263 1.39619 0.663742 1.39619Z" transform="translate(75.9902 62.6362)" fill="black"/>
<path d="M0.663748 1.39619C1.54875 1.39619 1.54875 1.42027e-06 0.663748 1.42027e-06C-0.221257 1.42027e-06 -0.221257 1.39619 0.663748 1.39619Z" transform="translate(77.4808 57.3774)" fill="black"/>
<path d="M0.663748 1.39618C1.54875 1.39618 1.54875 -1.42027e-06 0.663748 -1.42027e-06C-0.221257 -1.42027e-06 -0.221257 1.39618 0.663748 1.39618Z" transform="translate(73.9871 56.8655)" fill="black"/>
<path d="M0.663759 1.39618C1.54876 1.39618 1.54876 -7.10136e-07 0.663759 -7.10136e-07C-0.221245 -7.10136e-07 -0.221245 1.39618 0.663759 1.39618Z" transform="translate(76.7357 52.863)" fill="black"/>
<path d="M0.698699 1.39618C1.5837 1.39618 1.5837 -7.10136e-07 0.698699 -7.10136e-07C-0.232885 -7.10136e-07 -0.232885 1.39618 0.698699 1.39618Z" transform="translate(74.2317 49.1399)" fill="black"/>
<path d="M0.663748 1.39618C1.54875 1.39618 1.54875 0 0.663748 0C-0.221257 0 -0.221257 1.39618 0.663748 1.39618Z" transform="translate(73.7543 44.9048)" fill="black"/>
<path d="M0.663753 1.39618C1.54876 1.39618 1.54876 0 0.663753 0C-0.221251 0 -0.221251 1.39618 0.663753 1.39618Z" transform="translate(68.491 45.3701)" fill="black"/>
<path d="M0.663748 1.39618C1.54875 1.39618 1.54875 -7.10136e-07 0.663748 -7.10136e-07C-0.221257 -7.10136e-07 -0.221257 1.39618 0.663748 1.39618Z" transform="translate(67.0005 42.1589)" fill="black"/>
<path d="M0.663748 1.39618C1.54875 1.39618 1.54875 7.10136e-07 0.663748 7.10136e-07C-0.221257 7.10136e-07 -0.221257 1.39618 0.663748 1.39618Z" transform="translate(60.4794 44.6255)" fill="black"/>
<path d="M0.698688 1.39618C1.58369 1.39618 1.58369 7.10136e-07 0.698688 7.10136e-07C-0.232896 7.10136e-07 -0.232896 1.39618 0.698688 1.39618Z" transform="translate(57.976 47.8833)" fill="black"/>
<path d="M0.698694 1.39618C1.5837 1.39618 1.5837 0 0.698694 0C-0.23289 0 -0.23289 1.39618 0.698694 1.39618Z" transform="translate(59.2335 41.8796)" fill="black"/>
<path d="M0.698694 1.39618C1.5837 1.39618 1.5837 0 0.698694 0C-0.23289 0 -0.23289 1.39618 0.698694 1.39618Z" transform="translate(65.9873 38.1565)" fill="black"/>
<path d="M0.698677 1.39618C1.58368 1.39618 1.58368 0 0.698677 0C-0.232907 0 -0.232907 1.39618 0.698677 1.39618Z" transform="translate(72.2291 41.647)" fill="black"/>
<path d="M31.2 3.3081C23.5144 3.72695 17.3194 9.77709 10.3325 12.3368C7.39802 13.4072 3.1593 12.8952 0.970078 15.5014C-1.17256 18.1077 0.550865 21.6912 3.06614 23.3201C6.79248 25.6936 12.2423 26.0194 16.5275 26.0194C21.1855 26.0194 25.8899 25.1817 30.315 23.5528C32.411 22.8081 34.3674 21.7843 36.3237 20.8069C38.7924 19.5504 41.3543 18.8523 44.0093 18.0611C46.804 17.2234 51.1825 15.5014 51.788 12.1506C52.2072 9.87016 49.6919 7.17088 48.3877 5.58854C46.7575 3.63388 44.6614 0.981127 42.1461 0.0503378C41.3077 -0.275438 40.935 1.07421 41.7735 1.39998C43.5435 2.05154 45.1272 4.00619 46.3382 5.35584C47.689 6.8451 49.9248 9.03245 50.2975 11.1267C50.9496 14.6172 44.8477 16.3857 42.4256 17.0372C38.9321 18.0146 35.9976 19.5038 32.7371 21.0396C25.2844 24.5301 16.6207 25.5074 8.56251 23.832C6.5596 23.4132 4.23063 22.8547 2.69351 21.3189C0.457713 19.0384 1.38931 15.9668 4.37038 15.0826C6.93224 14.338 9.44751 14.2449 11.9628 13.1745C18.2044 10.5217 24.1665 5.0766 31.1534 4.70428C32.085 4.65774 32.085 3.26156 31.2 3.3081Z" transform="translate(30.502 56.4426)" fill="black"/>
<path d="M6.98595 0.244333C5.21594 0.0116356 3.44591 0.430492 2.18827 1.82668C0.651155 3.5021 0.977215 5.96869 0.418265 8.01642C-0.0475274 9.78492 -0.466723 11.5534 1.16355 12.8565C2.51435 13.9735 4.3775 13.8804 5.86804 13.0892C6.93936 12.5308 7.82435 10.995 9.17515 11.1346C10.0602 11.2277 10.4794 11.8792 11.5041 11.6465C13.181 11.2742 14.0194 9.64531 14.1591 8.06296C14.2989 6.341 13.7865 4.29327 12.5289 3.0367C12.1562 2.66439 7.77777 0.849347 7.77777 0.663189C7.73119 -0.221061 6.33382 -0.221061 6.3804 0.663189C6.42698 1.91975 7.9641 2.15245 8.89568 2.57131C10.4328 3.22286 11.9233 3.92095 12.4823 5.64291C12.7152 6.43408 12.9481 7.69065 12.7152 8.48182C11.1781 13.0892 10.4794 9.59877 9.22174 9.55223C8.38332 9.55223 8.10383 9.55223 7.40514 10.0176C6.98593 10.2969 6.70647 10.7157 6.28726 11.0415C5.40226 11.9257 4.33093 12.2981 3.02672 12.1584C2.51435 11.3207 2.00196 10.483 1.44301 9.64531C1.34985 8.62144 2.09513 7.17872 2.23486 6.06177C2.6075 3.54864 3.49249 1.08204 6.61329 1.54744C7.45172 1.73359 7.87095 0.383951 6.98595 0.244333Z" transform="translate(59.3274 47.6389)" fill="black"/>
<path d="M2.02829 0.13962C1.42276 1.41472e-06 0.67751 0.372315 0.444614 0.977328C0.258297 1.39618 0.304876 1.90812 0.211718 2.32697C0.118559 2.69929 -0.0677688 3.07161 0.0253896 3.44392C0.118548 3.86278 0.491193 4.14201 0.910406 4.14201C1.32962 4.18855 1.70225 3.95586 1.98172 3.67662C2.21462 3.44392 2.4475 3.16468 2.72698 3.25776C2.86672 3.3043 2.95987 3.39738 3.09961 3.44392C3.42566 3.58354 3.84487 3.39738 4.03119 3.11814C4.21751 2.83891 4.2641 2.46659 4.21752 2.09428C4.17094 1.58234 3.93804 1.07041 3.51883 0.837712C3.33251 0.744633 3.09962 0.698091 2.91331 0.558472C2.72699 0.418854 2.58725 0.232697 2.68041 0" transform="translate(64.2386 52.3511)" fill="black"/>
<path d="M2.85768 0.104715C2.15899 0.0116363 1.50688 0.104715 0.994508 0.616649C0.342399 1.22166 0.388973 1.96629 0.202656 2.804C0.0629185 3.54863 -0.216551 4.20019 0.29582 4.85174C0.715033 5.41021 1.46028 5.59637 2.11239 5.41021C2.43845 5.31713 2.71794 5.17752 2.95084 4.99136C2.90426 5.0379 3.37003 4.61904 3.27687 4.61904C3.18371 4.61904 3.46319 4.71212 3.60293 4.75866C4.25504 4.99136 4.95373 4.66558 5.32637 4.10711C5.74558 3.45556 5.65243 2.57131 5.41953 1.91975C5.32637 1.64052 5.14006 1.40782 4.95374 1.17512C4.90716 1.12858 4.06872 0.616648 4.06872 0.663188C4.1153 -0.221063 2.71793 -0.221063 2.67135 0.663188C2.62477 1.45436 3.18371 1.68706 3.74266 2.05937C4.02214 2.24553 4.30161 2.66438 4.20846 3.0367C4.06872 3.59517 3.60294 3.17632 3.2303 3.22286C2.90425 3.2694 2.67135 3.40902 2.43845 3.59518C2.15898 3.82787 1.46028 4.47942 1.4137 3.73479C1.36712 3.40902 1.64662 2.80401 1.6932 2.43169C1.73978 1.96629 1.92609 1.40782 2.53162 1.5009C3.37004 1.59398 3.74268 0.244334 2.85768 0.104715Z" transform="translate(63.5955 51.688)" fill="black"/>
<path d="M0.663765 1.39618C1.54877 1.39618 1.54877 7.10136e-07 0.663765 7.10136e-07C-0.22124 7.10136e-07 -0.22124 1.39618 0.663765 1.39618Z" transform="translate(54.9367 41.3677)" fill="#DB786F"/>
<path d="M0.663753 1.39618C1.54876 1.39618 1.54876 0 0.663753 0C-0.221251 0 -0.221251 1.39618 0.663753 1.39618Z" transform="translate(54.75 43.9739)" fill="black"/>
<path d="M0.698688 1.39618C1.58369 1.39618 1.58369 7.10136e-07 0.698688 7.10136e-07C-0.232896 7.10136e-07 -0.232896 1.39618 0.698688 1.39618Z" transform="translate(59.373 36.9465)" fill="black"/>
<path d="M0.698694 1.39618C1.5837 1.39618 1.5837 0 0.698694 0C-0.23289 0 -0.23289 1.39618 0.698694 1.39618Z" transform="translate(69.7137 37.6912)" fill="black"/>
<path d="M0.663742 1.39619C1.54875 1.39619 1.54875 1.42027e-06 0.663742 1.42027e-06C-0.221263 1.42027e-06 -0.221263 1.39619 0.663742 1.39619Z" transform="translate(80.4155 43.4155)" fill="black"/>
<path d="M0.663759 1.39618C1.54876 1.39618 1.54876 0 0.663759 0C-0.221245 0 -0.221245 1.39618 0.663759 1.39618Z" transform="translate(77.667 44.9048)" fill="black"/>
<path d="M0.663759 1.39618C1.54876 1.39618 1.54876 0 0.663759 0C-0.221245 0 -0.221245 1.39618 0.663759 1.39618Z" transform="translate(49.9525 45.8354)" fill="black"/>
<path d="M0.698688 1.39618C1.58369 1.39618 1.58369 -1.42027e-06 0.698688 -1.42027e-06C-0.232896 -1.42027e-06 -0.232896 1.39618 0.698688 1.39618Z" transform="translate(48.6599 54.3057)" fill="black"/>
<path d="M0.663759 1.39619C1.54876 1.39619 1.54876 2.84054e-06 0.663759 2.84054e-06C-0.221245 2.84054e-06 -0.221245 1.39619 0.663759 1.39619Z" transform="translate(57.1724 65.196)" fill="black"/>
<path d="M0.681338 1.39618C1.56634 1.39618 1.56634 -1.42027e-06 0.681338 -1.42027e-06C-0.203666 -1.42027e-06 -0.250246 1.39618 0.681338 1.39618Z" transform="translate(52.7297 58.7271)" fill="black"/>
<path d="M0.663753 1.39618C1.54876 1.39618 1.54876 0 0.663753 0C-0.221251 0 -0.221251 1.39618 0.663753 1.39618Z" transform="translate(55.6819 57.2378)" fill="black"/>
<path d="M0.698699 1.39618C1.5837 1.39618 1.5837 7.10136e-07 0.698699 7.10136e-07C-0.232885 7.10136e-07 -0.232885 1.39618 0.698699 1.39618Z" transform="translate(63.9844 46.0217)" fill="black"/>
<path d="M0.681344 1.39618C1.56635 1.39618 1.56635 0 0.681344 0C-0.203661 0 -0.25024 1.39618 0.681344 1.39618Z" transform="translate(63.0703 42.1123)" fill="black"/>
<path d="M0.663765 1.39618C1.54877 1.39618 1.54877 0 0.663765 0C-0.22124 0 -0.22124 1.39618 0.663765 1.39618Z" transform="translate(77.2947 40.4834)" fill="black"/>
<path d="M0.663759 1.39618C1.54876 1.39618 1.54876 0 0.663759 0C-0.221245 0 -0.221245 1.39618 0.663759 1.39618Z" transform="translate(80.2289 52.8164)" fill="black"/>
<path d="M0.698699 1.39618C1.5837 1.39618 1.5837 -7.10136e-07 0.698699 -7.10136e-07C-0.232885 -7.10136e-07 -0.232885 1.39618 0.698699 1.39618Z" transform="translate(80.0543 57.0515)" fill="black"/>
<path d="M0.663748 1.39618C1.54875 1.39618 1.54875 0 0.663748 0C-0.221257 0 -0.221257 1.39618 0.663748 1.39618Z" transform="translate(73.0561 66.313)" fill="black"/>
<path d="M0.698682 1.39619C1.58369 1.39619 1.58369 1.42027e-06 0.698682 1.42027e-06C-0.232902 1.42027e-06 -0.232902 1.39619 0.698682 1.39619Z" transform="translate(68.5958 62.0312)" fill="black"/>
<path d="M0.663759 1.39619C1.54876 1.39619 1.54876 2.84054e-06 0.663759 2.84054e-06C-0.221245 2.84054e-06 -0.221245 1.39619 0.663759 1.39619Z" transform="translate(62.5289 62.4036)" fill="black"/>
<path d="M0.663765 1.39618C1.54877 1.39618 1.54877 -2.84054e-06 0.663765 -2.84054e-06C-0.22124 -2.84054e-06 -0.22124 1.39618 0.663765 1.39618Z" transform="translate(65.6498 68.1279)" fill="black"/>
<path d="M0.663759 1.39618C1.54876 1.39618 1.54876 0 0.663759 0C-0.221245 0 -0.221245 1.39618 0.663759 1.39618Z" transform="translate(70.4473 67.9419)" fill="black"/>
<path d="M0.698677 1.39619C1.58368 1.39619 1.58368 -7.10136e-07 0.698677 -7.10136e-07C-0.232907 -7.10136e-07 -0.232907 1.39619 0.698677 1.39619Z" transform="translate(48.4738 58.9131)" fill="black"/>
<path d="M0.698699 1.39618C1.5837 1.39618 1.5837 0 0.698699 0C-0.232885 0 -0.232885 1.39618 0.698699 1.39618Z" transform="translate(54.2029 40.4834)" fill="black"/>
<path d="M0.663748 1.39618C1.54875 1.39618 1.54875 -1.42027e-06 0.663748 -1.42027e-06C-0.221257 -1.42027e-06 -0.221257 1.39618 0.663748 1.39618Z" transform="translate(62.3428 38.2495)" fill="black"/>
<path d="M56.6232 21.4082C55.7382 18.2435 53.1764 16.3354 50.4748 15.265C47.7732 14.1945 45.3511 13.7291 42.6029 13.543C40.3205 13.4034 38.1779 13.6826 35.9887 13.5895C33.52 13.4965 31.0978 13.1241 28.6757 12.7053C24.111 11.8676 19.6394 11.0299 15.0746 9.95946C13.3512 9.5406 11.6277 9.12174 10.044 8.19095C8.41378 7.21362 6.92323 5.5382 5.71217 4.09548C4.50111 2.65275 3.38321 1.39618 2.17215 -5.68109e-06C1.33373 4.97972 0.635041 9.86637 0.12267 14.8926C-0.017068 16.1492 -0.110218 17.3592 0.262416 18.6158C0.635049 19.8724 1.47347 20.9893 2.3119 22.0132C3.66269 23.5955 4.9669 25.2709 6.59718 26.481C8.87956 28.1564 11.488 29.1337 14.143 29.9714C18.4749 31.2745 22.7602 32.6707 27.2784 32.9034C32.1226 33.1361 36.7805 32.2053 41.2055 30.0645C46.5621 27.5048 51.1269 23.6886 56.9493 22.432" transform="translate(3.07599 137.193)" fill="#2E555B"/>
<path d="M58.3934 23.8955C57.6015 19.5673 54.1081 17.6592 50.0557 17.0542C44.2333 16.17 38.3643 15.5184 32.5419 14.7272C26.673 13.9826 20.4313 13.6103 14.7953 11.7022C9.20575 9.79405 5.15336 6.02435 3.15045 0.486155C2.91756 -0.211937 1.7065 -0.165401 1.79966 0.67231C2.59151 8.02555 -1.13483 15.1461 0.355702 22.4528C1.65992 28.9683 7.85494 31.9468 13.491 34.1342C20.1984 36.7404 27.4182 37.6247 34.5448 36.4612C38.1314 35.8562 41.6249 34.7392 44.9786 33.2499C46.8417 32.4122 48.7049 31.4814 50.4749 30.411C52.5244 29.201 54.2944 27.7583 56.7631 27.5721C57.6481 27.5256 57.6481 26.1294 56.7631 26.176C53.6889 26.3621 51.5462 28.1772 48.9844 29.6664C45.6773 31.5745 42.1838 33.1103 38.5506 34.1342C31.5172 36.1354 24.1111 36.0423 17.1242 33.9015C10.4168 31.8538 2.40519 28.596 1.56676 20.7308C0.821497 13.9826 3.98887 7.46707 3.2436 0.67231C2.77781 0.71885 2.31202 0.811926 1.89281 0.858465C3.29019 4.76778 5.66573 8.16517 9.15917 10.5387C13.6308 13.5172 19.0805 14.3084 24.2974 15.0065C30.0732 15.8442 35.849 16.5423 41.6714 17.2869C46.9349 17.985 55.9247 17.5196 57.1823 24.2678C57.2289 25.1521 58.5797 24.7798 58.3934 23.8955Z" transform="translate(1.53882 133.542)" fill="black"/>
<path d="M45.9913 7.67269C42.917 6.09035 39.8428 6.09035 36.4891 6.32305C32.4367 6.64883 28.4309 6.88152 24.3785 6.92806C20.3727 6.9746 16.3669 6.78844 12.3611 6.41612C7.65658 5.95072 2.67261 5.99727 1.3684 0.505613C1.18208 -0.378637 -0.168729 -0.00632665 0.0175875 0.877924C0.669696 3.71683 2.29997 6.0438 5.23446 6.83497C9.28685 7.95192 13.9448 7.99847 18.1369 8.18463C22.6085 8.37079 27.0801 8.32424 31.5051 8.045C36.0699 7.76576 41.0539 6.64882 45.2926 8.83618C46.0844 9.30157 46.7831 8.09155 45.9913 7.67269Z" transform="translate(9.88831 148.973)" fill="black"/>
<path d="M2.52149 0.227212C1.82281 1.06492 1.07754 1.85609 0.192535 2.55419C-0.0869406 2.78688 -0.0403614 3.29882 0.192535 3.53152C0.47201 3.81075 0.891211 3.76421 1.17069 3.53152C2.00911 2.83343 2.80096 2.04225 3.49965 1.20454C3.73254 0.925307 3.77912 0.506449 3.49965 0.227212C3.26675 -0.0520251 2.75439 -0.0985646 2.52149 0.227212Z" transform="translate(37.9872 160.049)" fill="black"/>
<path d="M3.36052 0.104675C2.42894 0.709688 1.49735 1.22162 0.472608 1.64047C-0.365818 1.96625 0.00680991 3.3159 0.845235 2.99013C1.96314 2.52473 3.03447 2.0128 4.05921 1.3147C4.80448 0.849309 4.10579 -0.36072 3.36052 0.104675Z" transform="translate(26.8539 160.451)" fill="black"/>
<path d="M3.87772 0.190368C2.94614 1.02808 1.92139 1.49348 0.663748 1.54002C-0.221257 1.58656 -0.221257 2.98275 0.663748 2.93621C2.29402 2.88967 3.64482 2.28465 4.85588 1.1677C5.50798 0.562686 4.52983 -0.414646 3.87772 0.190368Z" transform="translate(13.9004 159.108)" fill="black"/>
<path d="M2.88972 1.33078C2.33077 0.818845 1.72523 0.399984 1.07312 0.0742078C0.747068 -0.0654107 0.327867 -0.0188712 0.0949711 0.306905C-0.0913457 0.586142 0.0018127 1.09808 0.327867 1.28424C0.886817 1.56347 1.39918 1.88926 1.86497 2.30811C2.56366 2.91312 3.54183 1.93579 2.88972 1.33078Z" transform="translate(36.8735 151.825)" fill="black"/>
<path d="M4.16782 1.5761C3.0965 1.11071 2.07175 0.598779 1.047 0.0868451C0.255158 -0.33201 -0.443515 0.878019 0.348331 1.29687C1.37307 1.80881 2.44439 2.32073 3.46913 2.78613C4.26098 3.15845 4.95966 1.94842 4.16782 1.5761Z" transform="translate(25.7672 150.974)" fill="black"/>
<path d="M4.23127 3.33491C3.62574 1.79911 2.27495 1.00794 1.01731 0.123692C0.272041 -0.388242 -0.426647 0.821787 0.31862 1.33372C1.2502 1.98527 2.46127 2.59028 2.92706 3.70722C3.20653 4.54493 4.55732 4.17262 4.23127 3.33491Z" transform="translate(15.7823 149.076)" fill="black"/>
<path d="M0.958455 0.698092C1.28451 3.90932 3.61346 6.28283 3.66004 9.63367C3.70662 13.3103 2.16953 16.7542 1.23795 20.2912C0.352943 23.549 0.399522 26.5275 0.772155 29.8318C1.14479 33.7411 0.958455 37.5108 0.0268713 41.3271C-0.206025 42.2113 1.14478 42.5836 1.37768 41.6994C2.2161 38.3485 2.54216 34.9046 2.30926 31.4607C2.02979 27.3652 1.65714 23.9213 2.82162 19.8724C3.75321 16.6611 4.96426 13.4499 5.05742 10.0525C5.104 8.47019 4.87112 6.93438 4.2656 5.49166C3.61349 3.86278 2.49557 2.46659 2.35583 0.698092C2.26267 -0.232698 0.865297 -0.232698 0.958455 0.698092Z" transform="translate(64.6096 7.16113)" fill="black"/>
<path d="M0.663759 1.62742C1.78166 1.7205 3.03929 1.16202 4.06404 1.34818C5.55457 1.53434 6.29984 2.97707 7.13826 4.04747C8.30274 5.4902 9.83985 6.46753 11.6564 6.93292C16.4075 8.14295 22.1368 6.42099 26.8878 5.72289C32.6171 4.88518 38.6258 3.44246 44.4482 3.58208C47.0566 3.62862 49.6185 4.37325 52.2269 4.41979C54.8354 4.46633 57.3972 3.72169 59.9125 3.0236C60.7975 2.79091 60.4249 1.44126 59.5398 1.67396C56.7451 2.46513 53.9503 3.20976 51.0159 2.93053C48.5006 2.69783 46.0785 2.13935 43.5632 2.18589C38.16 2.27897 32.7102 3.489 27.4002 4.23363C24.7452 4.60594 22.0902 5.0248 19.3886 5.39712C16.3609 5.81597 12.9141 6.42099 10.1193 4.83864C8.30274 3.81477 7.69721 1.81358 6.11352 0.65009C4.39009 -0.606476 2.57351 0.370852 0.663759 0.231234C-0.221245 0.184694 -0.221245 1.58088 0.663759 1.62742Z" transform="translate(0.578552 53.5625)" fill="black"/>
<path d="M1.60629 20.616C1.65287 19.3594 1.28023 18.1959 1.28023 16.9859C1.28023 14.6589 2.53787 13.9143 4.40104 13.1231C6.26421 12.332 7.98763 11.3546 9.19869 9.67922C11.4345 6.70069 10.829 2.60522 8.08081 0.185164C7.38212 -0.419849 6.40394 0.604019 7.10263 1.16249C9.01238 2.83791 9.75765 5.44413 8.68633 7.81764C7.52185 10.3308 5.09973 11.1685 2.77077 12.2389C-1.18846 14.0539 0.302083 17.0325 0.162345 20.5695C0.162345 21.5468 1.55971 21.5468 1.60629 20.616Z" transform="translate(58.6984 58.635)" fill="black"/>
</svg>
