<svg width="168" height="74" viewBox="0 0 168 74" fill="none" xmlns="http://www.w3.org/2000/svg">
<path d="M218.055 13.0228C199.965 4.93196 180.237 0.49187 160.41 0.0314168C150.939 -0.19881 140.747 0.722097 133.308 6.64221C130.358 8.97737 127.966 12.0361 124.82 14.1081C120.789 16.7722 115.841 17.6931 111.056 18.0878C90.1804 19.8638 67.7319 13.6148 48.9866 23.0212C44.3658 25.3235 40.04 28.6124 34.8949 29.2044C31.3555 29.632 27.849 28.744 24.3424 28.152C16.3462 26.7706 8.12054 26.7706 0.124286 28.1849C-0.760545 33.3485 3.20481 38.3477 8.02222 40.4527C12.8396 42.5576 18.2469 42.4589 23.4576 42.4589C63.7338 42.3603 104.043 48.8066 142.287 61.5349C159.099 67.1261 175.976 74 193.706 74C214.876 74 235.194 63.8371 250.63 49.3C254.661 45.5177 258.692 39.8607 256.267 34.8943C254.988 32.2632 252.268 30.7502 249.679 29.4018C238.668 23.6132 227.591 17.8904 216.482 12.2992" fill="#F3B3AB"/>
</svg>
