<svg width="161" height="67" viewBox="0 0 161 67" fill="none" xmlns="http://www.w3.org/2000/svg">
<path d="M215.51 11.7909C197.631 4.46542 178.133 0.445342 158.537 0.0284449C149.177 -0.180004 139.104 0.653791 131.752 6.0139C128.837 8.12816 126.472 10.8975 123.363 12.7736C119.379 15.1856 114.488 16.0194 109.76 16.3768C89.1277 17.9848 66.9413 12.3269 48.4148 20.8435C43.848 22.928 39.5726 25.9058 34.4875 26.4419C30.9895 26.829 27.5239 26.025 24.0583 25.489C16.1554 24.2383 8.02575 24.2383 0.122835 25.5187C-0.751667 30.1939 3.1674 34.7202 7.92858 36.6261C12.6898 38.5319 18.0339 38.4425 23.1838 38.4425C62.9898 38.3532 102.828 44.1898 140.626 55.714C157.242 60.7763 173.922 67 191.445 67C212.368 67 232.449 57.7985 247.704 44.6364C251.688 41.2119 255.672 36.09 253.275 31.5935C252.012 29.2112 249.324 27.8414 246.765 26.6205C235.882 21.3795 224.935 16.1981 213.955 11.1358" transform="translate(161) scale(-1 1)" fill="#F3B3AB"/>
</svg>
