<svg width="157" height="71" viewBox="0 0 157 71" fill="none" xmlns="http://www.w3.org/2000/svg">
<path d="M205.142 12.359C191.837 6.43533 177.735 2.54792 163.265 0.912745C156.52 0.141435 149.622 -0.321352 142.847 0.264844C136.715 0.789336 130.492 2.3011 125.464 6.0651C122.705 8.13221 120.559 10.8781 117.769 12.9143C114.918 15.0123 111.515 16.0613 108.051 16.6166C101.245 17.6965 94.1935 17.3879 87.3569 17.1103C74.2355 16.5549 60.4091 15.4134 48.0541 20.8743C44.5899 22.4169 41.4628 24.6074 37.9679 26.1192C33.7985 27.9395 29.813 27.6309 25.429 26.8288C17.1822 25.2862 8.90468 25.101 0.627195 26.5203C0.381936 26.5511 0.136677 26.8288 0.10602 27.0447C-0.47647 31.0247 1.39363 34.7579 4.42871 37.2878C8.01562 40.2804 12.6755 41.1443 17.1822 41.3603C22.5779 41.6071 28.0349 41.422 33.4306 41.5762C38.9796 41.7305 44.4979 42.0082 50.0162 42.4401C72.2122 44.137 94.2854 47.9627 115.746 53.8864C126.384 56.8173 136.746 60.4579 147.2 63.9442C157.348 67.338 167.741 70.3924 178.501 70.9169C197.631 71.9042 216.148 64.006 230.803 51.9735C236.198 47.5308 246.928 38.1516 239.417 30.8704C237.915 29.4204 236.014 28.4331 234.175 27.4458C231.6 26.0883 229.025 24.7308 226.449 23.3733C221.36 20.72 216.271 18.0975 211.182 15.5059C208.668 14.241 206.185 12.9452 203.671 11.6802C202.782 11.2483 202.015 12.575 202.905 13.0069C212.5 17.8507 222.035 22.7871 231.569 27.7852C235.432 29.8215 241.073 32.0737 240.368 37.4729C239.755 42.1624 235.616 45.803 232.274 48.734C218.632 60.7664 201.096 69.22 182.732 69.4668C172.339 69.5902 162.161 67.0912 152.32 63.9751C142.509 60.859 132.852 57.2493 122.95 54.3183C103.023 48.4255 82.605 44.3221 61.9726 42.0082C51.6411 40.8666 41.2482 40.1879 30.8554 39.9719C25.7662 39.7868 20.6158 40.0953 15.5573 39.6634C10.8361 39.2623 6.02289 37.7505 3.20241 33.678C1.94546 31.8577 1.271 29.6672 1.57757 27.4458C1.39363 27.6309 1.20969 27.8161 1.0564 27.9703C8.62877 26.6745 16.3544 26.6745 23.8961 28.0629C27.3604 28.6799 30.8247 29.4512 34.3503 28.8342C37.4774 28.2788 40.3285 26.7362 43.057 25.1936C49.0658 21.7998 55.1973 19.5476 62.0646 18.7146C68.7785 17.8816 75.5538 18.1284 82.2984 18.4061C89.043 18.6837 95.7877 19.0848 102.532 18.6837C108.878 18.3135 115.194 17.2337 120.16 12.9452C122.735 10.7238 124.943 8.10136 127.855 6.25021C130.553 4.55333 133.558 3.41179 136.654 2.70219C143.123 1.22127 149.898 1.40638 156.489 1.83832C172.983 2.8873 189.262 6.95982 204.376 13.6856C205.265 14.0867 206.032 12.7601 205.142 12.359Z" transform="translate(157) scale(-1 1)" fill="black"/>
</svg>
