<svg width="168" height="75" viewBox="0 0 168 75" fill="none" xmlns="http://www.w3.org/2000/svg">
<path d="M217.858 13.0553C203.728 6.79788 188.751 2.69147 173.384 0.964168C166.222 0.149403 158.896 -0.339456 151.701 0.279765C145.189 0.833805 138.58 2.43074 133.241 6.4068C130.31 8.59037 128.031 11.4909 125.069 13.6419C122.041 15.8581 118.427 16.9661 114.748 17.5528C107.52 18.6934 100.032 18.3675 92.7716 18.0742C78.8369 17.4876 64.1534 16.2817 51.0327 22.0503C47.3537 23.6798 44.0328 25.9937 40.3212 27.5907C35.8934 29.5135 31.6609 29.1876 27.0052 28.3403C18.2472 26.7107 9.45663 26.5152 0.666071 28.0144C0.40561 28.0469 0.145149 28.3403 0.112591 28.5684C-0.506003 32.7726 1.48001 36.716 4.70321 39.3885C8.51246 42.5498 13.4612 43.4623 18.2472 43.6904C23.9773 43.9512 29.7726 43.7556 35.5027 43.9186C41.3956 44.0815 47.256 44.3748 53.1164 44.8311C76.6881 46.6236 100.13 50.6648 122.92 56.9222C134.217 60.0183 145.222 63.864 156.324 67.5467C167.101 71.1317 178.138 74.3582 189.565 74.9122C209.881 75.9551 229.546 67.6119 245.109 54.9016C250.839 50.2085 262.234 40.301 254.257 32.6096C252.662 31.0779 250.643 30.035 248.69 28.9921C245.955 27.5581 243.22 26.1241 240.485 24.6901C235.081 21.8873 229.676 19.1171 224.272 16.3795C221.602 15.0433 218.965 13.6745 216.295 12.3383C215.351 11.882 214.537 13.2834 215.481 13.7397C225.672 18.8564 235.797 24.0709 245.923 29.3506C250.025 31.5015 256.015 33.8807 255.267 39.584C254.615 44.5378 250.22 48.3835 246.671 51.4796C232.183 64.1899 213.56 73.1197 194.058 73.3805C183.021 73.5108 172.212 70.871 161.761 67.5793C151.343 64.2877 141.087 60.4746 130.571 57.3785C109.409 51.1537 87.7251 46.8191 65.8139 44.3748C54.8419 43.169 43.8049 42.452 32.7679 42.2239C27.3633 42.0283 21.8936 42.3542 16.5216 41.8979C11.5078 41.4743 6.39621 39.8773 3.40091 35.5754C2.06605 33.6525 1.34978 31.3386 1.67536 28.9921C1.48001 29.1876 1.28467 29.3832 1.12188 29.5461C9.16361 28.1773 17.3681 28.1773 25.3773 29.6439C29.0563 30.2957 32.7353 31.1105 36.4794 30.4586C39.8003 29.872 42.8282 28.2425 45.7258 26.613C52.1071 23.028 58.6186 20.6489 65.9115 19.7689C73.0416 18.889 80.2369 19.1497 87.3996 19.443C94.5622 19.7363 101.725 20.16 108.888 19.7363C115.627 19.3453 122.334 18.2046 127.608 13.6745C130.343 11.328 132.687 8.55777 135.78 6.60234C138.645 4.80986 141.836 3.60401 145.124 2.85442C151.994 1.29007 159.189 1.48562 166.189 1.94189C183.705 3.04997 200.993 7.35192 217.044 14.4567C217.988 14.8803 218.802 13.479 217.858 13.0553Z" fill="black"/>
</svg>
