<svg width="31" height="34" viewBox="0 0 31 34" fill="none" xmlns="http://www.w3.org/2000/svg">
<path d="M9.1876 0C5.45961 1.54 2.81894 4.97934 1.42095 8.72667C0.02295 12.474 -0.132383 16.5293 0.0747277 20.5333C0.230061 23.1 0.592505 25.872 2.30117 27.874C3.28494 29.0034 4.63116 29.7734 6.02916 30.3894C11.1034 32.5454 17.1096 32.5454 22.2356 30.338C26.0153 28.6954 29.5362 25.5127 29.9504 21.406C30.4164 17.094 27.4651 13.244 26.5849 9.03467C26.2742 7.64867 26.1707 6.21134 25.5493 4.97934C24.2031 2.41267 20.9929 1.54 18.0934 0.872667C14.0029 -0.0513333 9.23937 -0.821334 6.02916 1.89933" transform="translate(1)" fill="#C7E5DD"/>
<path d="M1.4602 10.1614C3.43324 6.98991 5.65924 4.0662 8.13819 1.29115C7.68287 1.09293 7.27814 0.944269 6.82283 0.746052C6.56987 5.8006 6.36751 10.8056 6.11455 15.8601C6.06396 16.8017 7.58169 16.8017 7.63228 15.8601C7.88523 10.8056 8.0876 5.8006 8.34055 0.746052C8.39114 0.101844 7.48051 -0.245036 7.02519 0.200954C4.44506 3.07511 2.16847 6.09793 0.0942514 9.36852C-0.361066 10.2605 0.954295 11.0038 1.4602 10.1614Z" transform="translate(7.4613 8.33337)" fill="black"/>
<path d="M0.720918 1.48784C2.89632 1.63651 5.07173 1.83472 7.24713 1.98339C8.20835 2.0825 8.20835 0.595864 7.24713 0.496755C5.07173 0.348092 2.89632 0.149874 0.720918 0.00121092C-0.240307 -0.0483435 -0.240307 1.43829 0.720918 1.48784Z" transform="translate(9.31348 24.0932)" fill="black"/>
<path d="M12.9687 0.0605316C5.53189 0.110086 1.43403 6.94859 0.523399 13.3907C-0.387235 19.9814 -0.943733 28.8516 6.29075 32.1222C11.8557 34.6 19.3432 34.6991 24.3517 30.8338C29.866 26.5721 31.4344 17.1072 29.5119 10.8138C27.4377 3.97533 20.2032 -0.583676 13.0699 0.0605316C12.1087 0.15964 12.1087 1.64627 13.0699 1.54716C20.9115 0.803848 28.0954 6.65127 28.6013 14.3818C29.1072 22.0131 26.2235 30.5365 17.6737 32.0727C14.0311 32.7169 10.0345 32.2213 6.69547 30.6852C2.39526 28.6534 1.73758 24.7386 1.68699 20.5265C1.6364 13.1924 3.05294 1.59672 12.9687 1.54716C13.93 1.54716 13.93 0.0605316 12.9687 0.0605316Z" fill="black"/>
</svg>
