<?xml version="1.0" encoding="utf-8"?>
<!-- Generator: Adobe Illustrator 21.1.0, SVG Export Plug-In . SVG Version: 6.00 Build 0)  -->
<svg version="1.1" id="Calque_1" xmlns="http://www.w3.org/2000/svg" xmlns:xlink="http://www.w3.org/1999/xlink" x="0px" y="0px"
	 viewBox="0 0 375 184" style="enable-background:new 0 0 375 184;" xml:space="preserve">
<path d="M-31.9,120C-35.6,95.6-37.7,71-38,46.4c-0.2-24,1.3-47.9,3.8-71.7c1.5-14.1,3.4-28.1,5.5-42.1c0-0.2,0.3-0.5,0.5-0.5
	C25.4-77.7,80-82,134.4-80.5c27.5,0.8,54.9,3.3,82.3,6.1c27.5,2.8,55,5.3,82.7,5.3c31.2-0.1,62.4-1.9,93.6-3c0.3,0,0.6,0.2,0.7,0.5
	c13.3,47.9,13.7,98.1,14.4,147.5c0.4,24.7,0.8,49.5,3.1,74.1c0.6,6.3,1.3,12.6,2.1,18.8c0.5,3.8,2,9.5-1.8,12.1
	c-1.6,1.1-3.6,1.1-5.5,1.1c-3.3-0.1-6.7-0.3-10-0.6c-6.4-0.4-12.7-1-19.1-1.4c-52-3.8-104.2-1.7-156.3-0.4
	c-25.9,0.7-51.9,1.1-77.9,0.4c-13.1-0.3-26.1-0.9-39.1-1.8c-13-0.9-26-2.7-39-3.3c-6.4-0.3-12.9-0.4-19.3,0.2
	c-6.4,0.6-12.7,1.8-19,3c-10.6,1.9-21.5,3.4-32.2,0.8c-9.2-2.2-17.4-7.5-21.9-16c-4.4-8.5-5-18.4-4.8-27.8
	c0.1-5.1,0.4-10.2,0.5-15.2c0-0.9,1.5-0.9,1.4,0c-0.5,18.9-3.6,43.8,16.2,54.4c9.4,5,20.4,5.3,30.6,4c12.3-1.5,24.1-4.6,36.5-4.9
	c12.6-0.3,25.1,1.3,37.6,2.4c12.5,1.2,25.1,2,37.7,2.4c25.2,1,50.4,0.9,75.6,0.4c50.4-1,100.9-3.4,151.3-1.2
	c12.5,0.6,25,1.5,37.5,2.4c3,0.2,6,0.4,9.1,0.6c2.9,0.1,8.3,1.3,10.2-1.6c1.4-2.2,0.8-5.3,0.6-7.6c-0.4-2.7-0.7-5.3-1-8.1
	c-2.9-24.1-3.7-48.4-4.2-72.7c-0.9-48.4-0.1-97.3-10.4-144.8c-1.2-5.7-2.6-11.4-4.2-17c0.2,0.2,0.5,0.3,0.7,0.5
	c-20.4,0.8-40.7,1.5-61,2.3c-20.1,0.8-40.1,1.2-60.3,0.1c-40.2-2.1-80.2-8.1-120.4-10c-39.8-1.9-79.7-0.8-119.3,3.3
	c-10.1,1.1-20.1,2.3-30.1,3.8c-5.1,0.8-10.2,1.5-15.3,2.4c-2.2,0.4-4.5,0.8-6.7,1.1c-1.2,0.2-2.4,0.4-3.6,0.7
	c-1.1,0.2-3,0.1-3.7,1.2c-0.5,0.8-0.4,2.8-0.5,3.7c-0.2,1.2-0.4,2.4-0.5,3.7c-0.4,2.6-0.7,5.1-1.1,7.7c-0.7,5.1-1.4,10.2-2,15.3
	c-1.1,9.3-2.1,18.7-2.9,28c-3.1,37.3-2.8,74.8,1.8,111.9c0.7,5.1,1.4,10.2,2.1,15.3C-30.4,120.5-31.8,120.9-31.9,120z"/>
</svg>
