<svg width="23" height="34" viewBox="0 0 23 34" fill="none" xmlns="http://www.w3.org/2000/svg">
<path d="M4.48126e-07 -4.52399e-07H3.28926L2.02642 3.20203L0.616736 2.75731L4.48126e-07 -4.52399e-07Z" transform="translate(10.1162 27.6256)" fill="#46666D"/>
<path d="M1.94118 0.363186C0.79581 2.26069 -0.0558739 4.30643 0.00286293 6.55971C0.0322313 7.50846 1.50065 7.50846 1.47128 6.55971C1.44191 4.54362 2.20549 2.79436 3.23339 1.1044C3.70328 0.27424 2.44044 -0.466971 1.94118 0.363186Z" transform="translate(11.4058 26.7287)" fill="black"/>
<path d="M4.30733 6.16629C3.63186 4.06125 2.6627 2.1341 1.39986 0.325547C0.871228 -0.445313 -0.420981 0.295899 0.137019 1.06676C1.34112 2.75672 2.28091 4.56528 2.89765 6.55172C3.19133 7.47082 4.60102 7.08539 4.30733 6.16629Z" transform="translate(8.54053 26.9146)" fill="black"/>
<path d="M2.17326 -5.65499e-08L0.293684 0.415078L1.40039e-08 2.60906L2.17326 3.46887L20.7635 3.32063L21.8795 1.27488L20.4404 -5.65499e-08H2.17326Z" transform="translate(0.513184 4.3812)" fill="#46666D"/>
<path d="M0.939788 1.131e-07L-5.60158e-08 0.681914L0.939788 18.6192L4.02347 19.8348L16.2114 18.975L17.6798 18.2041V0.0889452L0.939788 1.131e-07Z" transform="translate(2.56885 7.76112)" fill="#46666D"/>
<path d="M-1.12032e-07 2.8166L0.73421 0H6.02052L6.69599 3.32063L-1.12032e-07 2.8166Z" transform="translate(8.06055 1.06057)" fill="#46666D"/>
<path d="M1.06636 3.84753C1.2132 2.98772 1.09573 2.00932 1.82994 1.5053C2.50541 1.06057 3.50393 1.17917 4.29688 1.17917C4.76677 1.17917 5.88277 1.00128 6.3233 1.23846C6.99877 1.62389 6.82256 3.13596 6.85193 3.81788C6.8813 4.52944 7.9973 4.52944 7.96793 3.81788C7.90919 2.98772 8.14414 1.41635 7.58614 0.675143C6.9694 -0.155013 5.41288 0.0821744 4.5612 0.052526C3.50393 0.052526 1.94741 -0.184662 1.00762 0.34901C0.0384627 0.912331 0.155936 2.57264 0.00909447 3.52139C-0.108379 4.26261 0.948883 4.55909 1.06636 3.84753Z" transform="translate(7.49365)" fill="black"/>
<path d="M0.528631 1.12664C6.7841 1.12664 13.0396 1.12664 19.295 1.12664C19.9999 1.12664 19.9999 1.131e-07 19.295 1.131e-07C13.0396 1.131e-07 6.7841 1.131e-07 0.528631 1.131e-07C-0.17621 0.0296486 -0.17621 1.12664 0.528631 1.12664Z" transform="translate(1.54102 3.61034)" fill="black"/>
<path d="M0.528631 1.12664C6.7841 1.12664 13.0396 1.12664 19.295 1.12664C19.9999 1.12664 19.9999 -1.131e-07 19.295 -1.131e-07C13.0396 -1.131e-07 6.7841 -1.131e-07 0.528631 -1.131e-07C-0.17621 -1.131e-07 -0.17621 1.12664 0.528631 1.12664Z" transform="translate(1.54102 7.10886)" fill="black"/>
<path d="M2.09878 -5.65499e-08C0.894674 -5.65499e-08 0.131096 1.00805 0.0136222 2.16434C-0.103851 3.46887 0.542253 4.32867 1.80509 4.53621C2.50994 4.65481 2.80362 3.58746 2.09878 3.46887C1.42331 3.35027 1.07088 3.11309 1.10025 2.37188C1.12962 1.77891 1.39394 1.09699 2.09878 1.12664C2.80362 1.12664 2.80362 -5.65499e-08 2.09878 -5.65499e-08Z" transform="translate(0 3.63999)" fill="black"/>
<path d="M0.411158 1.05179C0.969157 1.14074 1.70337 1.22968 1.55653 2.00054C1.46842 2.38597 0.998526 3.45331 0.528632 3.42367C-0.17621 3.36437 -0.17621 4.46136 0.528632 4.55031C1.64463 4.6689 2.52568 3.06788 2.67252 2.11913C2.84873 0.814603 1.85021 0.191985 0.734209 0.0140943C-4.20118e-07 -0.134148 -0.293684 0.933196 0.411158 1.05179Z" transform="translate(20.3076 3.71484)" fill="black"/>
<path d="M2.80079e-08 0.533672C2.80079e-08 6.07793 2.80079e-08 11.5925 2.80079e-08 17.1368C2.80079e-08 17.8484 1.116 17.8484 1.116 17.1368C1.116 11.5925 1.116 6.07793 1.116 0.533672C1.08663 -0.177891 2.80079e-08 -0.177891 2.80079e-08 0.533672Z" transform="translate(2.18701 7.58323)" fill="black"/>
<path d="M8.96252e-07 0.533672C8.96252e-07 6.07793 8.96252e-07 11.6222 8.96252e-07 17.1665C8.96252e-07 17.878 1.116 17.878 1.116 17.1665C1.116 11.6222 1.116 6.07793 1.116 0.533672C1.08663 -0.177891 8.96252e-07 -0.177891 8.96252e-07 0.533672Z" transform="translate(19.9253 7.49429)" fill="black"/>
<path d="M0.00495194 0.741212C0.474846 5.27742 6.81842 3.67641 9.78463 3.88395C12.5159 4.06184 19.0063 4.8327 18.8301 0.533671C18.8007 -0.177892 17.7141 -0.177892 17.7141 0.533671C17.8022 2.72766 15.5408 2.72766 13.9549 2.8166C12.5453 2.90555 11.1649 2.90555 9.78463 2.78696C7.61137 2.63871 1.444 4.00254 1.09158 0.741212C1.03285 0.0296488 -0.0831532 0.0296488 0.00495194 0.741212Z" transform="translate(2.18164 24.1567)" fill="black"/>
<path d="M1.05853 2.58232C1.88084 1.45567 3.23179 0.892353 4.58273 1.21849C5.14073 1.36673 5.81621 1.66321 6.22736 2.07829C6.63852 2.49337 6.72663 3.02704 7.04968 3.47177C7.43147 4.06474 8.40062 3.50142 7.98947 2.90845C7.46083 2.10794 7.37273 1.48532 6.55042 0.922002C5.87494 0.447627 5.11136 0.121494 4.28905 0.0325485C2.58568 -0.174991 1.05853 0.625518 0.0893689 1.98935C-0.29242 2.61196 0.647368 3.17528 1.05853 2.58232Z" transform="translate(7.9126 12.9171)" fill="black"/>
<path d="M0.285232 2.10891C0.725758 2.31645 1.13692 2.70188 1.5187 2.99837C1.81239 3.23555 2.22355 2.96872 2.34102 2.67223C2.5466 2.04962 2.72281 1.39735 3.04586 0.834029C3.39828 0.211412 2.42912 -0.351908 2.10607 0.27071C1.75365 0.922975 1.54807 1.66419 1.31313 2.37575C1.57744 2.25716 1.84176 2.16821 2.13544 2.04962C1.72428 1.75313 1.34249 1.3677 0.901969 1.16016C0.197127 0.83403 -0.360873 1.81243 0.285232 2.10891Z" transform="translate(14.0015 15.0804)" fill="black"/>
<path d="M0.056146 0.853079C0.849093 2.51339 2.28814 3.75863 4.13835 3.96617C5.78298 4.14406 7.54509 3.46214 8.22056 1.89078C8.48487 1.23851 7.54509 0.675188 7.28077 1.32745C6.6934 2.72093 5.07814 3.13601 3.7272 2.75058C2.40562 2.42445 1.55393 1.4757 0.995935 0.289758C0.702251 -0.362507 -0.237538 0.200814 0.056146 0.853079Z" transform="translate(7.53467 17.5222)" fill="black"/>
<path d="M0.938282 1.8975C1.2907 1.57137 1.58439 1.21559 1.81933 0.800509C1.49628 0.800509 1.17323 0.800509 0.879546 0.800509C1.2026 1.33418 1.67249 1.68996 2.25986 1.86785C2.93533 2.07539 3.22902 0.978399 2.55354 0.800509C2.23049 0.711563 1.99554 0.533672 1.81933 0.266836C1.58439 -0.0889458 1.08512 -0.0889458 0.879546 0.266836C0.673967 0.592969 0.439019 0.859805 0.174704 1.12664C-0.353927 1.63066 0.439019 2.40152 0.938282 1.8975Z" transform="translate(6.53516 16.2406)" fill="black"/>
<path d="M0.0317176 0.711563C0.0317176 1.12664 0.0317176 1.54172 0.0317176 1.98645C0.0317176 2.31258 -0.0563874 2.8166 0.0610861 3.14274C0.237297 3.52817 0.707191 3.88395 1.14772 3.58746C1.47077 3.35028 1.61761 2.9352 1.41203 2.57941C0.942138 1.74926 -0.350071 2.52012 0.149192 3.32063C0.237297 2.99449 0.325402 2.63871 0.413507 2.31258C0.765928 2.46082 1.11835 2.60906 1.50014 2.75731C1.50014 2.72766 1.52951 2.49047 1.52951 2.40152C1.52951 2.19399 1.52951 2.01609 1.52951 1.80856C1.52951 1.45277 1.52951 1.06734 1.52951 0.711563C1.50014 -0.237188 0.0317176 -0.237188 0.0317176 0.711563Z" transform="translate(6.2373 9.54003)" fill="black"/>
<path d="M-4.48126e-07 0.741211C-4.48126e-07 1.18594 -4.48126e-07 1.63067 -4.48126e-07 2.04574C-4.48126e-07 2.46082 0.323052 2.78695 0.734209 2.78695C1.14537 2.78695 1.46842 2.46082 1.46842 2.04574C1.46842 1.60102 1.46842 1.15629 1.46842 0.741211C1.46842 0.326133 1.14537 0 0.734209 0C0.35242 0 -4.48126e-07 0.355781 -4.48126e-07 0.741211Z" transform="translate(10.7627 9.36214)" fill="black"/>
<path d="M0.140516 0.553995C0.0230423 1.17661 -0.0356938 1.82888 0.0230429 2.48114C0.0524113 2.92587 0.463569 3.34095 0.962832 3.19271H0.9922C1.22715 3.13341 1.46209 2.92587 1.49146 2.68868V2.65904C1.5502 2.27361 1.37399 1.85853 0.9922 1.73993C0.639779 1.65099 0.169885 1.85853 0.08178 2.24396V2.27361C0.25799 2.09572 0.4342 1.91782 0.581042 1.76958H0.551674C0.874726 2.00677 1.16841 2.24396 1.49146 2.48114C1.43273 1.97712 1.46209 1.4731 1.5502 0.939426C1.6383 0.553996 1.43273 0.138917 1.05094 0.0203233C0.669148 -0.0686221 0.228621 0.138917 0.140516 0.553995Z" transform="translate(15.4678 9.28252)" fill="black"/>
<path d="M2.24063e-07 0.711563C2.24063e-07 1.60102 2.24063e-07 2.49047 2.24063e-07 3.40957C2.24063e-07 4.35832 1.46842 4.35832 1.46842 3.40957C1.46842 2.52012 1.46842 1.63067 1.46842 0.711563C1.46842 -0.237187 2.24063e-07 -0.237187 2.24063e-07 0.711563Z" transform="translate(6.23975 20.7768)" fill="black"/>
<path d="M0.0576555 0.688899C0.0576555 0.896438 0.0870235 1.10398 0.0870235 1.31152C0.0870235 1.40046 0.0870235 1.48941 0.0870235 1.57835C0.0870235 1.63765 0.0576546 1.93413 0.116391 1.75624C0.175128 1.63765 0.233866 1.5487 0.292602 1.43011C0.292602 1.43011 0.292602 1.45976 0.263233 1.45976C0.498181 1.40046 0.733128 1.34116 0.968075 1.28187C0.968075 1.28187 0.968076 1.28187 0.938707 1.28187C0.556918 1.13363 0.14576 1.43011 0.0282864 1.78589C-0.0891871 2.20097 0.175129 2.55675 0.527549 2.70499C0.527549 2.70499 0.527549 2.70499 0.556917 2.70499C0.791865 2.79394 1.11492 2.70499 1.26176 2.5271C1.52607 2.23062 1.49671 1.93413 1.49671 1.57835C1.49671 1.31152 1.46734 1.01503 1.46734 0.748194C1.43797 0.362765 1.14429 0.00698327 0.733128 0.00698327C0.410076 -0.0523136 0.0576555 0.27382 0.0576555 0.688899Z" transform="translate(10.793 22.104)" fill="black"/>
<path d="M2.24063e-07 0.711563C2.24063e-07 1.54172 2.24063e-07 2.34223 2.24063e-07 3.17238C2.24063e-07 4.12113 1.46842 4.12113 1.46842 3.17238C1.46842 3.14273 1.46842 3.11309 1.46842 3.08344C1.46842 2.13469 2.24063e-07 2.13469 2.24063e-07 3.08344C2.24063e-07 3.11309 2.24063e-07 3.14273 2.24063e-07 3.17238C0.499263 3.17238 0.969157 3.17238 1.46842 3.17238C1.46842 2.34223 1.46842 1.54172 1.46842 0.711563C1.46842 -0.237187 2.24063e-07 -0.237187 2.24063e-07 0.711563Z" transform="translate(15.3438 20.6285)" fill="black"/>
</svg>
