<svg width="28" height="49" viewBox="0 0 28 49" fill="none" xmlns="http://www.w3.org/2000/svg">
<path d="M13.2407 46.213C12.634 43.0887 10.467 36.198 8.21342 33.9297C7.86671 33.6301 1.58258 25.4555 0.802479 22.3739C0.152397 19.9344 0.065719 17.4092 0.0223801 14.9269C-0.0209587 12.7441 -0.0642976 10.5186 0.542446 8.42144C1.58258 4.78352 4.65964 1.83038 8.38678 0.632004C12.1139 -0.56637 16.2744 -0.00998246 19.6115 1.87318C22.7319 3.62794 25.2023 6.66668 25.5923 10.0906C25.7223 11.3746 25.5923 12.6585 25.4623 13.8997C25.2456 15.5261 23.9454 20.02 23.4687 21.6036C21.9518 26.825 19.1782 28.2802 16.7945 33.2021C14.8443 37.3536 13.0674 41.6763 13.2407 46.213Z" transform="translate(1.68506 2.78697)" fill="#DB786F"/>
<path d="M15.5323 47.6304C14.9255 44.5489 13.9287 41.5102 12.6286 38.6426C11.7618 36.7167 10.5916 35.2187 9.3348 33.5923C7.73126 31.4524 6.2144 29.2696 4.82756 27.0013C2.87731 23.7913 2.44392 20.667 2.35725 16.9007C2.22723 12.364 2.44392 7.99847 6.12773 4.78854C9.72485 1.70701 14.8822 1.32182 19.1294 3.24778C23.3766 5.13094 26.1069 8.94005 25.7602 13.6052C25.5869 16.6439 24.5901 19.7682 23.68 22.6786C22.3798 27.0441 19.1294 30.2112 17.1358 34.2343C15.0122 38.557 13.3653 43.0937 13.4087 47.93C13.4087 49.2996 15.5756 49.2996 15.5756 47.93C15.5323 42.5801 17.6992 36.9735 20.5596 32.4796C22.7698 29.0128 24.9368 26.1453 26.0636 22.1222C27.0604 18.6126 28.3172 14.8891 27.9272 11.2084C27.5805 7.52768 25.1101 4.27495 21.9897 2.3062C14.8388 -2.23051 4.43751 0.0378441 1.14376 8.12687C-0.503119 12.1928 -0.0697304 17.5427 0.580352 21.7798C1.05708 24.9469 2.57394 27.5149 4.30749 30.1684C5.73768 32.3512 7.34121 34.4483 8.94475 36.5027C11.4151 39.7554 12.6286 44.2921 13.452 48.2296C13.712 49.5564 15.8356 49 15.5323 47.6304Z" fill="black"/>
<path d="M3.64568 0.0318889C2.56221 -0.182107 1.47873 0.716674 0.871991 1.65825C0.655296 2.00065 0.52528 2.34304 0.395263 2.72823C0.091891 3.66981 -0.168142 4.69699 0.13523 5.68137C0.438602 6.70855 1.26204 7.47893 2.12882 8.03532C2.90892 8.54891 3.77569 8.9341 4.68581 8.9769C5.8993 9.0197 7.11279 8.46331 7.89289 7.52173C8.67299 6.58015 8.97636 5.33898 8.84634 4.1406C8.67299 2.94223 8.0229 1.78665 7.06945 1.05907C6.15933 0.288683 4.85917 -0.0537093 3.64568 0.0318889Z" transform="translate(9.11279 9.84975)" fill="#F2B1AA"/>
<path d="M4.69834 0.00569401C1.5346 -0.0799042 -0.372306 3.60082 0.0610822 6.38276C0.494471 9.1647 3.83156 11.3903 6.60525 11.0051C9.50895 10.6199 11.4159 7.83793 11.0258 5.01319C10.5924 1.93165 7.7754 -0.122703 4.69834 0.00569401C3.3115 0.0484931 3.3115 2.18845 4.69834 2.14565C6.30188 2.06005 7.81874 2.74484 8.5555 4.2C9.29226 5.74077 8.85887 7.75233 7.25533 8.56551C5.73847 9.33589 3.74488 8.47991 2.74809 7.23874C1.57794 5.78357 2.35804 2.06005 4.69834 2.10285C6.08518 2.18845 6.08518 0.0484931 4.69834 0.00569401Z" transform="translate(8.06006 7.39359)" fill="black"/>
</svg>
