<svg width="52" height="53" viewBox="0 0 52 53" fill="none" xmlns="http://www.w3.org/2000/svg">
<path d="M18.5653 1.82598C17.2211 1.40959 15.8252 1.25344 14.3776 1.2014C16.9626 5.78168 19.5993 10.362 22.1843 14.8902C22.2877 14.7341 22.3394 14.5779 22.4428 14.4218C21.3571 15.5148 20.2714 16.6078 19.1857 17.7008C19.3408 17.5967 19.4959 17.4926 19.651 17.3885C18.1517 17.8049 16.6007 18.2213 15.1014 18.6377C15.2565 18.6377 15.4633 18.5856 15.6184 18.5856C20.168 18.0652 23.8387 15.5148 24.5108 10.6743C25.0795 6.25012 22.3911 1.87803 18.0483 0.68091C15.5667 0.00427689 13.1885 0.160423 10.8103 1.14935C9.72456 1.61779 9.10415 1.98213 8.17355 2.71081C7.75995 3.0231 7.34635 3.33539 6.98445 3.69973C6.10555 4.48046 6.67425 4.16817 8.79395 2.71081C10.3967 2.71081 11.9994 2.71081 13.6021 2.71081C13.3953 2.65876 13.1885 2.60671 12.9817 2.50261C8.74226 1.30549 5.22665 3.43949 2.74504 6.66651C2.33144 7.23904 1.86614 7.81158 1.45254 8.38411C-2.26987 13.2246 1.76274 20.3033 6.77765 21.7606C9.20756 22.4893 11.896 22.9057 14.4293 22.8536C15.7735 22.8016 17.2728 22.5934 18.617 22.3852C19.1857 22.2811 19.8061 22.177 20.3748 22.0209C21.5122 21.7086 21.5122 21.7086 20.3748 21.9688C18.8755 21.5524 17.3245 21.136 15.8252 20.7196C19.4959 22.8016 23.5285 22.6975 27.4577 21.6045C25.855 21.6045 24.2523 21.6045 22.6496 21.6045C23.9421 21.7606 25.2346 21.9688 26.5788 22.125C25.7516 16.1394 24.9761 10.2058 24.1489 4.22022C23.8904 4.27227 23.6319 4.32432 23.4251 4.37637C25.0278 4.37637 26.6305 4.37637 28.2332 4.37637C31.0767 7.23904 31.9039 7.86363 30.8182 6.14602C26.6822 10.3099 22.5462 14.4738 18.4619 18.5856C20.168 19.7307 21.9775 20.0951 24.0455 20.1471C27.8713 20.1992 31.9039 17.2844 32.7828 13.4849C33.7651 9.26894 32.0073 5.67758 28.6468 3.17925C27.406 2.24237 25.9067 1.87803 24.4074 1.61779C23.3217 1.46164 22.236 1.30549 21.1503 1.2014C21.5639 1.14935 21.9258 1.2014 22.2877 1.35754C22.9081 1.56574 22.8564 1.51369 22.1326 1.25344C20.7367 0.420666 19.1857 0.00427685 17.583 0.00427685C15.5667 -0.0477718 13.5504 0.368617 11.896 1.61779C7.96675 4.32432 5.69195 9.58123 8.53545 14.0054C10.9654 17.8049 16.8075 20.3033 20.8918 17.2844C21.0469 17.1803 21.202 17.0242 21.3571 16.9201C19.8578 17.3365 18.3068 17.7529 16.8075 18.1693C17.0143 18.1693 17.2211 18.1693 17.4279 18.1693C15.9286 17.7529 14.3776 17.3365 12.8783 16.9201C14.3776 17.5967 15.7735 18.4295 17.3762 18.8459C18.4102 19.1061 19.5476 19.2102 20.6333 19.3143C21.6673 19.4184 19.651 19.0541 19.3925 18.8459C20.8918 13.1726 22.4428 7.55133 23.9421 1.87803C23.7353 1.87803 23.5802 1.87803 23.3734 1.87803C24.8727 2.29442 26.4237 2.71081 27.923 3.1272C27.7679 3.0231 27.6128 2.919 27.4577 2.81491C19.9095 -2.38996 10.7586 7.70748 15.2048 15.2545C18.3068 20.4594 23.0115 22.9577 29.0087 21.7086C33.4032 20.8237 36.0399 15.8791 35.4712 11.7152C34.8508 7.03085 31.1284 4.27227 26.5788 3.85588C28.2849 4.11612 27.7679 4.06407 25.0795 3.69973C24.0972 3.69973 23.1666 3.85588 22.2877 4.11612C21.6156 4.27227 21.7707 4.27227 22.7013 4.16817C22.1843 4.22022 21.6156 4.22022 21.0986 4.11612C22.5979 4.53251 24.1489 4.9489 25.6482 5.36529C22.4428 3.49154 18.617 3.1272 15.1531 4.53251C14.481 4.68866 14.5844 4.68866 15.3599 4.58456C14.7912 4.63661 14.1708 4.63661 13.6021 4.63661C12.5164 4.53251 12.413 4.58456 13.3436 4.63661C12.7749 4.53251 12.1545 4.37637 11.5858 4.22022C13.3953 8.6964 15.2048 13.1205 17.0143 17.5967C17.4279 17.0242 17.8932 16.4517 18.3068 15.8791C14.8946 17.2844 11.4824 18.6897 8.07015 20.043C10.5001 20.7196 12.93 20.5635 15.2565 19.5746C16.3422 19.1061 16.9626 18.7418 17.8932 18.0131C18.3068 17.7008 18.7204 17.3885 19.0823 17.0242C20.0129 16.2435 19.3925 16.5558 17.2728 18.0131C15.6701 18.0131 14.0674 18.0131 12.4647 18.0131C12.6715 18.0652 12.8783 18.1172 13.1368 18.1693C13.964 12.1837 14.7395 6.25012 15.5667 0.26452C11.7409 0.732958 8.38035 1.93008 6.51915 5.62553C3.41714 11.8714 7.19125 19.1061 14.3259 19.3143C14.1191 19.3143 13.9123 19.3143 13.7055 19.3143C18.2034 20.7196 23.787 17.6488 24.821 12.9644C25.9584 8.07182 23.3734 3.33539 18.5653 1.82598Z" transform="translate(6.5957 0.478638)" fill="#E84726"/>
<path d="M12.9416 2.66874C14.5443 2.72079 12.6314 2.46055 12.0627 2.25235C8.8056 0.899087 4.51449 2.98104 2.54989 5.53142C0.481884 8.23795 -0.138518 12.61 1.87779 15.6289C3.11859 17.5026 4.46279 19.012 6.3757 20.053C5.7553 15.2645 5.13489 10.5281 4.56619 5.73961C3.22199 7.24903 2.23969 8.70639 1.67099 10.6842C1.56759 11.0486 1.46419 11.4129 1.41249 11.8293C3.53219 8.60229 3.58389 8.34205 1.61929 11.0486C0.275083 13.2867 -0.0868174 15.733 0.0165828 18.3354C0.223383 22.0829 1.77439 25.6743 5.13489 27.6001C5.5485 27.8083 5.9621 28.0164 6.4274 28.2246C9.1158 29.7341 8.392 27.6001 4.35939 21.8227C3.84239 23.228 3.79069 24.9456 3.68729 26.455C5.9104 23.5403 8.1335 20.6255 10.3049 17.6588C10.2015 17.7108 10.0981 17.7108 9.99471 17.7629C12.3212 18.0751 14.6477 18.3874 16.9742 18.6997C16.8708 18.6477 16.7674 18.5956 16.664 18.5436C15.9402 24.1128 15.2164 29.63 14.4926 35.1992C15.5783 34.9389 15.113 35.3033 14.4409 35.1992C12.8382 34.9389 12.6314 34.3664 11.494 32.9611C9.3743 30.3586 10.0981 31.3476 10.7702 32.857C11.2872 34.0541 11.9593 35.043 12.8382 35.9799C16.664 40.0917 14.1307 35.8237 12.8899 35.6676C13.3552 35.7197 14.3892 37.6975 14.6994 38.0618C15.9919 39.5713 17.9048 40.8204 19.8694 41.2889C23.4884 42.1737 26.3836 40.8725 29.7442 39.8315C32.536 38.9467 35.3795 38.3221 38.223 37.8536C40.9114 37.4373 43.0828 34.9389 44.0651 32.5967C45.2542 29.682 44.7889 27.2878 43.5998 24.4771C41.4801 31.6078 41.6869 33.2734 44.1168 29.4738C44.4787 28.9533 44.7889 28.3808 44.944 27.7562C45.3576 26.8193 45.5127 25.9345 45.7712 24.9976C44.9957 26.3509 44.2202 27.6521 43.4447 29.0054C43.5481 28.9013 43.7032 28.7451 43.8066 28.641C38.7917 27.2878 33.7251 25.9866 28.7101 24.6333C28.8135 25.0497 28.9169 25.4661 29.0203 25.8304C31.2435 34.2623 44.4787 34.7307 46.4433 25.8304C46.9603 23.3841 47.5807 20.7296 47.5807 18.2313C47.5807 15.2645 46.1848 12.7141 44.7889 10.2158C42.359 5.73961 39.4638 1.31548 34.1904 0.222455C29.589 -0.76647 24.2122 1.57572 23.0748 6.57239C22.0408 11.1527 24.419 16.7219 29.3822 17.7629C29.3305 17.7629 27.0557 16.1494 27.3142 16.0973C27.4176 16.0453 28.2448 17.6588 28.2965 17.7629C29.1237 19.2202 29.9509 20.6255 30.6748 22.1349C30.2612 20.6255 29.8475 19.0641 29.4339 17.5547C29.4856 17.8149 29.3822 19.6366 29.5373 18.1792C29.4339 19.1161 29.2271 20.001 29.0203 20.9378C34.8108 20.9378 40.6529 20.9378 46.4433 20.9378C46.3399 20.5214 46.2365 20.1051 46.1331 19.7407C44.427 13.1826 35.7414 10.7883 31.0367 15.733C29.8476 16.9821 28.2965 18.8559 28.1931 20.6255C27.8829 22.0308 28.2965 21.5104 29.3822 18.96C28.7101 19.7407 28.0897 20.5735 27.521 21.4063C25.2462 25.5181 26.2285 29.5779 27.9346 33.6377C29.7442 29.1615 31.5537 24.7374 33.3632 20.2612C30.3128 20.7296 27.3142 21.4583 24.419 22.3952C23.7986 22.6034 23.1782 22.8116 22.5578 23.0198C22.0925 23.1759 21.6272 23.3321 21.2136 23.5403C23.6435 24.5292 26.0734 25.5181 28.5033 26.455C28.3482 25.7263 27.1591 24.5812 26.6938 24.0607C26.2802 23.5923 25.8666 23.228 25.3496 22.8636C24.1088 21.9268 24.1088 21.9268 25.453 22.8636C26.2285 24.2169 27.004 25.5181 27.7795 26.8714C26.5387 23.228 24.936 20.2091 21.3687 18.5436C17.6463 16.7739 13.7171 16.6178 9.7362 17.6067C6.2723 18.4395 3.73899 21.7186 3.27369 25.1538C2.80839 28.4849 4.35939 32.7008 7.6165 34.2102C9.99471 35.3033 12.6314 36.084 15.1647 35.1471C19.0939 33.6898 21.5755 30.6189 21.7823 26.3509C21.6272 29.5779 22.2476 22.6034 22.2476 23.4362C22.2993 21.3542 21.8857 19.2723 20.8517 17.4506C19.8694 15.6809 18.4735 14.2235 16.7674 13.1305C16.1987 12.7662 14.079 11.1006 15.63 12.7662C16.4055 14.1195 17.181 15.4207 17.9565 16.7739C18.215 17.6588 18.3701 18.96 18.1116 17.1903C18.1116 15.9932 17.8014 16.6698 17.1293 19.2723C15.63 22.2911 15.7851 22.4993 17.5429 19.8448C18.0082 19.012 18.4218 18.0752 18.732 17.1903C19.4041 15.1084 19.0939 16.6698 17.3878 18.5956C21.1102 14.3797 20.9551 7.24903 15.5783 4.28225C16.2504 4.95889 16.8708 5.68757 17.5429 6.3642C14.079 10.8924 10.6668 15.3686 7.2546 19.7928C9.0641 20.5214 11.0287 20.7817 12.9416 20.8858C17.698 21.094 22.1959 16.5137 21.9891 11.7773C21.7823 6.62444 18.0082 2.87694 12.9416 2.66874Z" transform="translate(2.86133 10.6702)" fill="#E84726"/>
<path d="M9.53295 0.243303C5.70714 -0.849719 1.88133 1.85681 2.19153 6.02071C2.29493 7.26987 3.01873 8.20675 3.07043 9.35182C3.12213 10.8612 2.13983 12.3186 1.15753 13.3596C3.38063 14.2964 5.55204 15.1813 7.77514 16.1181C7.77514 16.014 7.77514 15.91 7.72344 15.8059C7.36154 16.7427 6.94794 17.6276 6.58604 18.5644C6.63774 18.4603 6.74114 18.4083 6.79284 18.3042C5.86224 18.6685 4.98334 19.0849 4.05274 19.4493C4.15614 19.4493 4.25954 19.4493 4.36294 19.4493C3.07043 18.148 1.77793 16.8468 0.485427 15.5456C0.382027 17.4714 1.10583 19.137 2.34663 20.5943C3.43233 21.8955 4.10444 22.2599 4.51804 23.9254C5.70714 28.818 13.2037 26.7361 12.0146 21.8435C11.6527 20.4902 11.1874 19.0849 10.3084 17.8878C9.94655 17.3673 9.53295 16.8989 9.06765 16.4304C8.91255 16.2743 8.70575 16.1181 8.55064 15.91C7.98194 15.3374 7.87854 15.2333 8.24045 15.5456C8.34385 13.5157 6.37924 11.4858 4.36294 11.642C2.03643 11.7981 -0.238375 13.5157 0.0201258 16.1181C0.382027 19.3452 4.10444 21.4792 6.63774 18.8767C8.60235 16.8989 10.1016 14.4005 10.5669 11.5899C10.8254 10.2887 10.8772 8.93543 10.7221 7.63421C10.567 6.48914 9.94655 5.55227 9.73975 4.45925C9.73975 5.13588 9.73975 5.86456 9.73975 6.54119C9.53295 6.80144 9.32615 7.00963 9.11935 7.26987C8.44725 7.42602 7.82684 7.63421 7.15474 7.79036C7.25814 7.79036 7.36154 7.73831 7.51664 7.73831C12.3248 9.09158 14.3411 1.59657 9.53295 0.243303Z" transform="translate(0.272949 14.3969)" fill="#E84726"/>
<path d="M5.28114 11.1416C6.21174 10.9334 7.19405 10.7772 8.12465 10.4649C10.0893 9.73626 11.6403 8.01866 11.5886 5.83261C11.5369 4.68754 11.0716 3.59452 10.2961 2.76174C9.62396 2.03306 8.58995 1.72077 7.71105 1.35643C6.78045 0.940038 5.79815 0.575697 4.86754 0.159308C3.98864 -0.205033 2.64444 0.107259 1.86894 0.575697C1.04173 1.04414 0.317931 1.98101 0.11113 2.91789C-0.0956701 3.90681 -0.0439684 5.05188 0.524733 5.93671C1.09343 6.82154 1.86894 7.34203 2.85124 7.70637C3.47164 7.96661 4.04034 8.22685 4.66074 8.43505C4.91924 8.53915 5.17774 8.64324 5.43624 8.74734C5.59134 8.79939 5.79814 8.90349 5.95325 8.95554C5.43624 8.69529 5.33284 8.64324 5.64305 8.90349C5.17774 8.43505 4.71244 7.96661 4.24714 7.49817C3.67844 5.10393 4.14374 3.64657 5.64305 3.12608C6.00495 3.02199 6.00495 2.96994 5.69474 3.07403C5.43624 3.12608 5.17774 3.17813 4.91924 3.23018C4.35054 3.33428 3.83354 3.49042 3.26484 3.59452C1.30023 4.06296 -0.0956693 6.4572 0.576432 8.383C1.19683 10.517 3.16144 11.61 5.28114 11.1416Z" transform="translate(40.353 18.3325)" fill="#E84726"/>
<path d="M5.44887 1.40531C5.39717 1.40531 5.34548 1.35327 5.29378 1.35327C5.60398 1.50941 5.91418 1.61351 6.22438 1.76965C6.12098 1.71761 5.96588 1.66556 5.86248 1.56146C6.12098 1.76965 6.37948 1.97785 6.63798 2.18604C6.58628 2.134 6.53458 2.134 6.53458 2.08195C6.27608 4.11185 6.01758 6.19379 5.75908 8.22369C6.43118 7.9114 7.10328 7.18272 7.46518 6.55813C7.93048 5.7774 8.03388 5.10077 8.13728 4.16389C8.08558 4.52823 8.03388 4.84053 7.98218 5.20487C7.98218 5.15282 7.98218 5.15282 7.98218 5.10077C7.67198 5.6733 7.31008 6.24584 6.99988 6.81838L7.05158 6.76633C6.79308 6.97452 6.53458 7.18272 6.27608 7.39091C6.27608 7.39091 6.27608 7.39091 6.32778 7.39091C6.01758 7.54706 5.70738 7.65115 5.39718 7.8073C5.39718 7.8073 5.39717 7.8073 5.44887 7.8073C5.08697 7.85935 4.77677 7.9114 4.41487 7.96345C4.41487 7.96345 4.41488 7.96345 4.46658 7.96345C4.10467 7.9114 3.79447 7.85935 3.43257 7.8073C3.48427 7.8073 3.48427 7.8073 3.53597 7.85935C3.22577 7.7032 2.91557 7.59911 2.60537 7.44296C3.07067 7.65115 3.43257 7.9114 3.94957 8.01549C4.67338 8.22369 5.39718 8.22369 6.12098 8.01549C7.15498 7.7032 7.93048 7.07862 8.49918 6.14174C8.75768 5.6733 8.91278 5.20487 8.96448 4.68438C9.06788 4.16389 9.06789 3.64341 8.91278 3.12292C8.80938 2.60243 8.55088 2.18604 8.24068 1.76965C7.98218 1.35327 7.62028 0.988925 7.15498 0.78073C6.27608 0.312292 5.19037 0.0520487 4.15637 0.364341C3.17407 0.676633 2.39857 1.24917 1.82987 2.134C1.82987 2.134 1.82987 2.134 1.82987 2.18604C2.03667 1.9258 2.24347 1.66556 2.45027 1.40531C2.70877 1.19712 2.96727 0.988925 3.22577 0.78073C3.22577 0.78073 3.22577 0.78073 3.17407 0.78073C3.48427 0.624584 3.79447 0.520487 4.10467 0.364341C4.10467 0.364341 4.10467 0.364341 4.05297 0.364341C4.41487 0.312292 4.72507 0.260243 5.08698 0.208195C5.08698 0.208195 5.08698 0.208195 5.03528 0.208195C5.39718 0.260243 5.70738 0.312292 6.06928 0.364341C6.01758 0.364341 6.01758 0.364341 5.96588 0.312292C6.27608 0.468438 6.58628 0.572535 6.89648 0.728681C6.79308 0.676633 6.68968 0.624584 6.58628 0.572535C5.86248 0.208195 5.29378 1.9855e-07 4.46658 1.9855e-07C3.38087 1.9855e-07 2.34687 0.416389 1.62307 1.19712C1.10607 1.71761 0.795867 2.29014 0.589066 2.96677C0.433966 3.38316 0.485665 3.79955 0.433964 4.21594C0.485665 3.8516 0.537366 3.53931 0.589066 3.17497C0.589066 3.22702 0.589063 3.27907 0.537363 3.33111C0.692463 3.01882 0.795865 2.70653 0.950966 2.39424C0.899266 2.44629 0.899267 2.49834 0.847567 2.60243C1.05437 2.34219 1.26117 2.08195 1.46797 1.8217C1.41627 1.87375 1.41627 1.87375 1.36457 1.9258C1.62307 1.71761 1.88157 1.50941 2.14007 1.30122C2.08837 1.35327 2.03667 1.35327 1.93327 1.40531C1.36457 1.76965 0.899264 2.23809 0.537363 2.81063C0.278862 3.27907 0.123765 3.7475 0.0720652 4.26799C-0.0313351 4.78848 -0.0313359 5.30896 0.123765 5.82945C0.330565 6.50608 0.640767 7.07862 1.10607 7.54706C1.82987 8.22369 2.50197 8.64008 3.43257 8.90032C3.94957 9.05647 4.46658 9.10852 4.98358 8.95237C5.50058 8.95237 5.96588 8.79622 6.43118 8.48393C6.89648 8.22369 7.25838 7.9114 7.51688 7.49501C7.87878 7.13067 8.08558 6.66223 8.18898 6.14174C8.39578 5.15282 8.34408 4.00775 7.77538 3.12292C7.20668 2.34219 6.48288 1.71761 5.44887 1.40531Z" transform="translate(35.0671 7.61353)" fill="#E84726"/>
<path d="M10.857 3.95976C11.0638 3.59542 11.3223 3.23108 11.5291 2.91879C12.0461 2.13806 11.374 0.888889 10.3917 0.940938C9.51282 1.04504 9.20262 1.04503 8.53052 1.56552C9.04752 2.24215 9.56452 2.91879 10.0815 3.59542C10.6502 2.97084 10.8053 2.81469 11.1672 2.08601C11.7876 0.888888 10.5468 -0.256182 9.40942 0.316353C8.94412 0.524548 8.53052 0.732742 8.11692 1.04503C8.63392 1.72167 9.15092 2.3983 9.66792 3.07493C10.1332 2.65854 10.2883 2.2942 10.5468 1.72167C11.0121 0.576597 9.56452 -0.204134 8.63392 0.264304C7.28972 0.940936 6.15232 1.04503 4.70471 1.14913C3.77411 1.20118 3.05031 1.30528 2.27481 1.87781C1.034 2.76264 -3.94441e-07 4.74049 -3.94441e-07 6.30195C-3.94441e-07 7.65522 0.827203 8.43595 2.11971 8.59209C4.75641 8.95643 7.39312 8.3839 9.97812 8.85233C12.6665 9.26872 18.612 8.12365 18.7154 4.48025C18.7671 2.81469 17.4746 2.13806 16.0787 1.72167C14.0624 1.20118 12.5114 -0.308231 10.34 0.0561101C9.25432 0.212256 9.04752 1.98191 10.0298 2.45035C11.2189 3.02288 13.2869 3.75157 14.1141 4.84459C14.1141 4.4282 14.1141 3.95976 14.1141 3.54337C14.1658 3.49132 13.442 3.90771 13.2352 4.01181C11.9427 4.68844 12.8216 6.92654 14.2175 6.40605C14.5794 6.2499 14.993 6.1458 15.3549 5.98966C15.0447 5.20893 14.6828 4.4282 14.3726 3.59542C12.2012 4.5323 9.97812 5.52122 7.54822 5.31302C5.79041 5.15688 4.18771 4.5323 2.37821 4.58434C2.68841 5.31303 2.99861 6.04171 3.30881 6.82244C6.15231 3.95976 10.5468 7.03063 13.7005 5.00073C14.476 4.48025 14.5794 3.23108 13.7005 2.76264C12.3046 2.03396 10.8053 3.12698 9.51282 3.69952C10.1332 4.16795 10.7536 4.68844 11.4257 5.15688C11.4774 5.15688 11.5291 5.15688 11.5808 5.15688C11.2189 4.48025 10.857 3.85566 10.4434 3.17903C10.0815 3.75157 9.61622 4.22 9.09922 4.58434C7.80672 5.62532 9.61622 7.44702 10.9087 6.40605C11.6325 5.83351 12.1495 5.26098 12.6665 4.48025C13.2869 3.59542 12.408 2.6065 11.5291 2.5024C10.1849 2.34625 9.20262 3.12698 8.84072 4.4282C8.47882 5.62532 9.77132 6.354 10.7536 5.88556C10.6502 5.93761 12.6665 5.10483 12.3046 4.94868C12.3046 4.22 12.3046 3.43927 12.3046 2.71059C10.6502 3.75156 7.65162 2.71059 5.73871 3.02288C4.08431 3.28313 2.58501 3.75156 1.3959 4.94868C0.620402 5.72941 1.1891 7.18678 2.3265 7.18678C4.65301 7.13473 6.82442 8.12365 9.20262 7.86341C11.4774 7.60317 13.5454 6.71834 15.6134 5.78146C16.9576 5.20893 15.9753 2.86674 14.6311 3.38722C14.2692 3.54337 13.8556 3.64747 13.4937 3.80361C13.8039 4.58434 14.1658 5.36507 14.476 6.19785C15.1998 5.83351 15.9236 5.52122 16.2855 4.79254C16.4923 4.37615 16.544 3.85566 16.2855 3.49132C15.1481 1.87781 13.0284 0.940938 11.2706 0.160208C11.1672 0.940938 11.0638 1.72167 10.9604 2.55445C11.7359 2.45035 12.8216 3.38722 13.4937 3.64747C14.476 4.06386 16.3372 3.90771 15.1998 5.10483C13.0284 7.29088 9.77132 5.67737 7.23802 5.88556C6.25571 5.93761 5.27341 6.09376 4.29111 6.04171C3.41221 5.98966 1.7061 6.2499 3.05031 4.79254C4.18771 3.59542 5.68701 4.01181 7.03122 3.69952C8.06522 3.49132 8.99582 2.86674 9.92642 2.3983C9.30602 1.92986 8.68562 1.40938 8.01352 0.940938C7.96182 0.992987 7.85842 1.09708 7.80672 1.14913C6.72102 2.13806 8.11692 4.01181 9.35772 3.17903C9.77132 2.86674 10.1849 2.65854 10.6502 2.45035C10.0815 1.87781 9.46112 1.25323 8.89242 0.680694C8.68562 0.992987 8.42712 1.35733 8.22032 1.66962C7.28972 2.71059 8.53052 4.63639 9.77132 3.69952C9.97812 3.59542 10.1332 3.49132 10.34 3.38722C9.97812 2.71059 9.61622 2.08601 9.20262 1.40937C8.99582 1.77372 8.73732 2.13806 8.53052 2.45035C7.70332 4.06386 9.92642 5.36507 10.857 3.95976Z" transform="translate(18.0779 21.4025)" fill="#005744"/>
<path d="M0.00646291 9.06298C0.00646291 9.11502 0.00646291 9.16707 0.00646291 9.16707C-0.0452372 10.4162 0.213263 11.6134 0.781965 12.6543C1.14387 13.7994 1.76427 14.7363 2.64317 15.5691C3.47037 16.4539 4.45267 17.0785 5.53838 17.4428C6.62408 18.0153 7.76148 18.2756 9.00228 18.2235C9.82948 18.1194 10.605 18.0153 11.4322 17.9112C12.9832 17.4949 14.2757 16.7141 15.4131 15.5691C15.8784 14.9445 16.3437 14.3199 16.809 13.7474C17.6362 12.342 18.0498 10.7806 18.0498 9.16707C18.0498 9.11502 18.0498 9.06298 18.0498 9.06298C18.1015 7.81381 17.843 6.61669 17.2743 5.57571C16.9124 4.43064 16.292 3.49377 15.4131 2.66099C14.5859 1.77616 13.6036 1.15158 12.5179 0.787236C11.4322 0.214701 10.2948 -0.0455426 9.05398 0.00650608C8.22678 0.110603 7.45128 0.2147 6.62408 0.318797C5.07307 0.735187 3.78057 1.51592 2.64317 2.66099C2.17787 3.28557 1.71257 3.91016 1.24726 4.48269C0.420063 5.888 0.00646291 7.44947 0.00646291 9.06298Z" transform="translate(17.2441 30.1962)" fill="#E84726"/>
<path d="M9.00228 18.1715H9.05398C10.2948 18.2235 11.4839 17.9633 12.5179 17.3908C13.6553 17.0264 14.5859 16.4018 15.4131 15.517C16.292 14.6842 16.9124 13.6953 17.2743 12.6023C17.843 11.5093 18.1015 10.3642 18.0498 9.11502C17.9464 8.28224 17.843 7.50152 17.7396 6.66874C17.326 5.10728 16.5505 3.80606 15.4131 2.66099C14.7927 2.19255 14.1723 1.72411 13.6036 1.25567C12.2077 0.422896 10.6567 0.00650608 9.05398 0.00650608H9.00228C7.76148 -0.0455426 6.57238 0.214701 5.53838 0.787236C4.40097 1.15158 3.47037 1.77616 2.64317 2.66099C1.76427 3.49377 1.14386 4.48269 0.781964 5.57571C0.213263 6.66873 -0.045238 7.81381 0.00646212 9.06298C0.109862 9.89575 0.213264 10.6765 0.316664 11.5093C0.730265 13.0707 1.50577 14.3719 2.64317 15.517C3.26357 15.9854 3.88397 16.4539 4.45267 16.9223C5.84858 17.7551 7.34788 18.1715 9.00228 18.1715Z" transform="translate(18.3298 30.7166)" fill="#E84726"/>
<path d="M13.6036 17.124C13.6553 17.072 13.707 17.0199 13.8104 16.9679C14.8444 16.3953 15.7233 15.6146 16.3437 14.6257C17.1192 13.7409 17.6879 12.6999 17.9464 11.5028C18.3083 10.3056 18.36 9.05647 18.1015 7.85935C18.0498 6.66223 17.6879 5.51716 17.0158 4.47619C16.5505 3.8516 16.0852 3.22702 15.6199 2.65448C14.4825 1.50941 13.1383 0.728682 11.639 0.312293C10.8118 0.208195 10.0363 0.104097 9.20908 -3.971e-07C7.55468 -3.971e-07 6.05538 0.41639 4.65947 1.24917C4.60777 1.30122 4.55607 1.35327 4.45267 1.40531C3.41867 1.97785 2.53977 2.75858 1.91937 3.7475C1.14387 4.63233 0.575165 5.67331 0.316664 6.87043C-0.0452368 8.06754 -0.0969385 9.31671 0.161562 10.5138C0.213262 11.711 0.575164 12.856 1.24727 13.897C1.71257 14.5216 2.17787 15.1462 2.64317 15.7187C3.78057 16.8638 5.12477 17.6445 6.62408 18.0609C7.45128 18.165 8.22678 18.2691 9.05398 18.3732C10.7084 18.3732 12.2077 17.9568 13.6036 17.124Z" transform="translate(20.3979 30.3588)" fill="#E84726"/>
<path d="M9.00228 18.1715H9.05398C10.2948 18.2235 11.4839 17.9633 12.5179 17.3908C13.6553 17.0264 14.5859 16.4018 15.4131 15.517C16.292 14.6842 16.9124 13.6953 17.2743 12.6023C17.843 11.5093 18.1015 10.3642 18.0498 9.11502C17.9464 8.28224 17.843 7.50151 17.7396 6.66874C17.326 5.10728 16.5505 3.80606 15.4131 2.66099C14.7927 2.19255 14.1723 1.72411 13.6036 1.25567C12.2077 0.422895 10.6567 0.00650648 9.05398 0.00650648H9.00228C7.76148 -0.0455422 6.57238 0.214701 5.53838 0.787237C4.40097 1.15158 3.47037 1.77616 2.64317 2.66099C1.76427 3.49377 1.14386 4.48269 0.781964 5.57571C0.213263 6.66874 -0.045238 7.81381 0.00646212 9.06297C0.109862 9.89575 0.213264 10.6765 0.316664 11.5093C0.730265 13.0707 1.50577 14.3719 2.64317 15.517C3.26357 15.9854 3.88397 16.4539 4.45267 16.9223C5.84858 17.7551 7.34788 18.1715 9.00228 18.1715Z" transform="translate(22.2075 30.3003)" fill="#E84726"/>
<path d="M9.05439 18.217C13.8108 18.217 18.3087 14.0531 18.1019 9.10852C17.8951 4.16389 14.121 3.971e-07 9.05439 3.971e-07C4.29798 3.971e-07 -0.199935 4.16389 0.00686595 9.10852C0.213666 14.0531 3.93608 18.217 9.05439 18.217Z" transform="translate(23.1895 30.3069)" fill="#E84726"/>
<path d="M9.05439 18.217C13.8108 18.217 18.3087 14.0531 18.1019 9.10852C17.8951 4.16389 14.121 3.971e-07 9.05439 3.971e-07C4.29798 3.971e-07 -0.199934 4.16389 0.00686634 9.10852C0.213667 14.0531 3.98778 18.217 9.05439 18.217Z" transform="translate(23.8098 30.3069)" fill="#E84726"/>
<path d="M51.8381 22.0831C51.7864 21.8228 51.7347 21.5106 51.5796 21.2503C51.2694 20.7298 50.649 20.5216 50.132 20.3655C47.0817 19.4286 44.6001 17.2426 43.411 14.5881C43.2559 14.2758 43.1525 13.9114 43.2042 13.5992C43.2559 13.2869 43.4627 13.0266 43.6178 12.7664C43.7212 12.6102 43.8763 12.402 43.9797 12.2459C44.4967 11.257 44.3416 9.95575 43.6178 9.12297C42.9974 8.39429 41.9117 8.082 40.9811 8.29019C40.6709 7.40536 40.2056 6.62463 39.3267 6.31234C38.9648 6.20824 38.6029 6.1562 38.241 6.1562C38.0342 6.1562 37.8791 6.1562 37.6723 6.10415C37.2587 6.0521 36.8451 5.8439 36.7934 5.47956C36.7934 5.37547 36.7934 5.27137 36.7934 5.11522C36.7934 4.95908 36.7934 4.85498 36.7934 4.75088C36.7934 3.70991 35.7594 3.03328 34.7771 2.77303C33.7948 2.51279 32.7091 2.46074 31.6751 2.35664C30.1758 2.25255 28.7799 2.2005 27.5908 1.52386C27.3323 1.36772 27.1255 1.26362 26.867 1.05543C26.5567 0.847231 26.1948 0.586988 25.8329 0.430842C24.4887 -0.193742 22.9377 0.0144522 21.6969 0.11855C20.0425 0.326744 18.1813 0.534939 16.6303 1.52386C16.2167 1.78411 15.8031 2.0964 15.4412 2.40869C15.131 2.66893 14.8208 2.92918 14.4589 3.13737C13.9419 3.44966 13.4249 3.70991 12.8562 4.0222C12.3392 4.28244 11.7705 4.54269 11.2535 4.90703C9.44401 6.10415 8.25491 7.9779 7.16921 9.69551C7.01411 9.95575 6.8073 10.3201 6.7556 10.6844C6.7039 11.1008 6.80731 11.4652 6.91071 11.7775C7.11751 12.4541 7.37601 13.1828 7.63451 13.9114C6.6005 14.2237 5.5148 14.6401 4.5325 15.3168C3.3951 16.0975 2.6713 17.1905 2.4645 18.3356C2.30939 19.2725 2.4645 20.2093 2.6713 21.0942C2.7747 21.6147 2.8781 22.1872 2.9298 22.7077C2.9815 23.8527 2.6713 24.9978 1.99919 25.9347C1.84409 26.1949 1.63729 26.4031 1.43049 26.6113C1.17199 26.9236 0.913492 27.288 0.654991 27.6523C-0.740912 29.9945 0.29309 32.9613 1.89579 34.783C2.15429 35.0432 2.36109 35.3035 2.6196 35.5637C3.2917 36.2403 3.8604 36.8129 4.2223 37.6456C4.3257 37.9579 4.4291 38.2702 4.5325 38.6346C4.6876 39.2591 4.8427 39.8317 5.2563 40.4042C5.825 41.1329 6.6522 41.4452 7.58281 41.4452C8.25491 41.4452 8.92701 41.289 9.54741 41.0288C9.23721 42.1739 9.08211 43.371 9.18551 44.6202C9.18551 44.8804 9.23721 45.1406 9.39231 45.4009C9.59911 45.7132 9.96101 45.8693 10.2712 45.9734C11.4603 46.3378 12.7011 46.546 13.8902 46.6501H14.2004C14.9759 46.7021 15.7514 46.7021 16.3201 47.0665C16.7854 47.3787 17.0956 47.8472 17.4575 48.3677L17.5609 48.5759C18.6466 50.1894 20.5078 52.2713 23.0411 52.8439C23.5064 52.9479 24.0234 53 24.5404 53C26.2465 53 27.9527 52.4275 29.4003 51.959L38.1376 49.1484C39.0165 48.8361 39.9471 48.5759 40.8777 48.4197C41.1879 48.3677 41.4464 48.3677 41.7566 48.3156C42.3253 48.2636 42.894 48.2115 43.4627 48.0554C45.9443 47.3267 47.5987 44.412 47.1334 41.6013C47.0817 41.3931 47.03 41.1329 46.9783 40.9247L48.581 38.3743C49.0463 37.6456 49.5116 36.969 49.7701 36.1362C50.2354 34.7309 50.1837 33.2736 50.132 31.8162C50.0286 30.1506 49.9769 28.5371 50.7524 27.1839C50.8558 26.9757 50.9592 26.8195 51.0626 26.6634C51.2694 26.4031 51.4245 26.0908 51.5796 25.7785C52.2 24.4773 51.9932 23.1761 51.8381 22.0831ZM7.42771 10.7365C7.47941 10.4762 7.63451 10.268 7.73791 10.0078C8.77191 8.39429 9.90931 6.52054 11.6154 5.42751C12.0807 5.11522 12.5977 4.85498 13.1664 4.59474C13.7351 4.33449 14.3038 4.0222 14.8208 3.70991C15.1827 3.44966 15.4929 3.18942 15.8548 2.92918C16.2167 2.61689 16.5786 2.35664 16.9922 2.0964C18.4398 1.21157 20.1976 1.00338 21.8003 0.847231C22.9377 0.691085 24.3853 0.534939 25.5744 1.05543C25.8846 1.21157 26.1949 1.41977 26.5568 1.62796C26.8153 1.78411 27.0738 1.94025 27.3323 2.0964C28.6765 2.82508 30.2275 2.92918 31.7268 3.03328C32.6574 3.08532 33.6914 3.18942 34.622 3.44966C35.2941 3.65786 36.1213 4.07425 36.1213 4.75088C36.1213 4.85498 36.1213 4.90703 36.0696 5.01113C36.0696 5.16727 36.0179 5.37547 36.0696 5.58366C36.173 6.31234 36.8968 6.67668 37.5689 6.78078C37.7757 6.78078 37.9825 6.83283 38.1893 6.83283C38.4995 6.83283 38.8097 6.83283 39.0682 6.93693C40.0505 7.24922 40.3607 8.55044 40.5675 9.64346C40.7743 10.8406 41.0328 12.2979 40.5158 13.5471C40.0505 14.7963 38.8614 15.6291 37.7757 16.4618L37.5689 16.618C35.5009 18.1794 33.5363 19.9491 31.7268 21.8749C31.0547 21.6147 30.3309 21.4585 29.6588 21.3024C28.7799 21.1462 27.5908 20.886 26.6084 21.4065C26.3499 21.5626 26.0914 21.7187 25.8329 21.9269C25.471 22.1872 25.1608 22.4474 24.7472 22.4995C24.5404 22.4995 24.3336 22.4474 24.0751 22.3954C23.9717 22.3954 23.8683 22.3433 23.7649 22.3433C22.4724 22.0831 21.0765 22.6036 20.0425 23.6966C19.0085 23.2802 18.1296 22.4474 17.3024 21.6667C17.1473 21.5106 16.9922 21.4065 16.8371 21.2503C15.3378 19.897 13.6834 18.6999 11.9256 17.711L11.6154 17.5549C11.0467 17.2426 10.478 16.9303 10.0127 16.5139C8.61681 15.3168 7.99641 13.3389 7.47941 11.7254C7.47941 11.257 7.42771 10.9967 7.42771 10.7365ZM9.70251 40.144C8.46171 40.8206 6.6522 41.0288 5.825 39.9358C5.5148 39.5194 5.3597 38.9989 5.2563 38.4264C5.1529 38.062 5.1012 37.6977 4.9461 37.3333C4.5842 36.4485 3.8604 35.7719 3.1883 35.0953C2.9298 34.835 2.723 34.6268 2.4645 34.3666C1.06859 32.7531 0.0862898 30.0986 1.32709 28.0687C1.53389 27.7564 1.79239 27.4441 2.05089 27.1318C2.25769 26.8716 2.4645 26.6634 2.6196 26.4031C3.3434 25.3622 3.757 24.0089 3.6536 22.7077C3.6019 22.1351 3.4985 21.5106 3.3951 20.9901C3.24 20.0532 3.0332 19.2725 3.1883 18.4397C3.3434 17.5028 4.0155 16.5659 4.9461 15.8372C5.825 15.2127 6.91071 14.7963 7.89301 14.484C8.30661 15.3688 8.82361 16.1495 9.59911 16.8262C10.1161 17.2946 10.7365 17.6069 11.3052 17.9712L11.6154 18.1274C13.3215 19.1163 14.9242 20.2614 16.4235 21.6147C16.5786 21.7708 16.7337 21.8749 16.8888 22.031C17.716 22.8118 18.5949 23.5925 19.6289 24.0609C18.9051 25.0499 18.4398 26.3511 18.3364 27.9646C18.3364 28.1728 18.3364 28.3289 18.3364 28.5371C16.5786 29.474 15.0276 30.7752 13.8902 32.3887C13.2181 33.3256 12.6494 34.3666 12.0807 35.4075C11.3052 36.8649 10.3746 38.5305 9.80591 40.3001L9.70251 40.144ZM43.3593 47.2746C42.8423 47.4308 42.3253 47.4828 41.7566 47.5349C41.4464 47.5869 41.1362 47.5869 40.8777 47.639C39.8954 47.7951 38.9131 48.1074 38.0342 48.3677L29.2969 51.1783C27.4357 51.8029 25.3159 52.4795 23.2996 52.0111C20.9731 51.4906 19.267 49.5648 18.233 48.0554L18.1296 47.8992C17.7677 47.3267 17.4058 46.7542 16.7854 46.3898C16.0616 45.9214 15.1827 45.8693 14.3038 45.8173H13.9936C12.8045 45.7652 11.6671 45.557 10.5297 45.1927C10.3229 45.1407 10.1161 45.0366 10.0127 44.9325C9.96101 44.7763 9.90931 44.6202 9.90931 44.464C9.59911 41.289 11.3052 38.2182 12.6494 35.7198C13.1664 34.7309 13.7351 33.742 14.4072 32.8051C15.4929 31.3478 16.8888 30.1506 18.4915 29.2658C18.4915 29.3179 18.5432 29.3699 18.5432 29.422C19.0085 30.2547 20.1976 30.3588 20.5595 30.4109C21.5935 30.515 22.5758 30.4629 23.6098 30.3588C23.7649 30.3588 23.8683 30.3068 24.0234 30.3068C24.4887 30.2547 24.954 30.1506 25.4193 30.2027C25.988 30.2547 26.5568 30.4109 27.1772 30.567C27.7459 30.7232 28.3663 30.9314 28.9867 30.9834C29.0901 30.9834 29.1935 30.9834 29.2969 30.9834C30.1758 30.9834 31.0547 30.7232 31.9336 30.4109C33.071 30.0465 34.2601 29.5781 35.2424 28.7974C35.5009 28.5892 35.7077 28.381 35.8628 28.1728V28.2248C37.207 28.3289 38.5512 28.5892 39.8437 29.0056C40.9294 29.3699 43.411 30.4629 43.8246 32.649C43.8763 33.0133 43.8763 33.3777 43.928 33.794C43.928 34.0543 43.928 34.3145 43.9797 34.5748C44.0831 35.9801 44.7035 37.2293 45.3239 38.4264C45.6858 39.1551 46.0477 39.9358 46.3062 40.7165L45.996 41.1849L46.4613 41.4972C46.4613 41.5493 46.4613 41.6013 46.513 41.6013C46.9783 44.0476 45.5307 46.6501 43.3593 47.2746ZM51.0109 25.3622C50.9075 25.6224 50.7007 25.8826 50.5456 26.1429C50.4422 26.3511 50.2871 26.5072 50.1837 26.7154C49.3565 28.2248 49.4082 29.9945 49.5116 31.7121C49.5633 33.0654 49.6667 34.5227 49.2014 35.7719C48.9429 36.5006 48.5293 37.2292 48.064 37.8538L46.7198 39.9358C46.4613 39.3112 46.2028 38.6866 45.8926 38.062C45.3239 36.8649 44.7552 35.7198 44.6518 34.4186C44.6518 34.1584 44.6518 33.8981 44.6001 33.6899C44.6001 33.2736 44.6001 32.8572 44.4967 32.4408C44.1348 30.6711 42.5321 29.1097 40.0505 28.2769C38.8097 27.8605 37.5689 27.6002 36.2764 27.4962C36.69 26.8195 36.8451 26.0388 36.7417 25.3101C36.6383 24.5814 36.173 23.8527 35.5526 23.4364C34.9839 23.072 34.3635 22.9159 33.7948 23.072L33.9499 23.7486C34.3635 23.6445 34.7771 23.7486 35.139 24.0089C35.6043 24.3212 35.9662 24.8417 36.0179 25.4142C36.173 26.5593 35.4492 27.6002 34.7254 28.2248C33.8465 28.9535 32.7608 29.3179 31.6234 29.7342C30.6928 30.0465 29.8139 30.3068 28.8833 30.2547C28.3146 30.2027 27.7976 30.0465 27.2289 29.8904C26.6084 29.6822 25.988 29.526 25.3159 29.474C24.7989 29.474 24.2819 29.526 23.8166 29.5781C23.6615 29.5781 23.5581 29.6301 23.403 29.6301C22.4724 29.7342 21.4901 29.7863 20.5078 29.6822C19.7323 29.6301 19.2153 29.422 19.0085 29.0576C18.8534 28.7974 18.8534 28.381 18.9051 28.0166C19.0602 26.5072 19.4738 25.2581 20.1976 24.3212C20.2493 24.3212 20.301 24.3732 20.3527 24.3732L20.4561 24.0609C21.335 23.1241 22.5241 22.6556 23.6098 22.8638C23.7132 22.8638 23.8166 22.9159 23.8683 22.9159C24.1268 22.9679 24.437 23.02 24.7472 23.02C25.3159 22.9679 25.7812 22.6556 26.1948 22.3433C26.4016 22.1872 26.6084 22.031 26.867 21.9269C27.5908 21.5626 28.4697 21.7187 29.5037 21.9269C30.1241 22.031 30.7962 22.1872 31.4166 22.4474L31.7785 22.7597C31.8302 22.7077 31.8302 22.7077 31.8819 22.6556C32.037 22.7077 32.1404 22.8118 32.2438 22.9159C32.5023 23.1241 32.7608 23.3323 33.0193 23.5925C33.1227 23.6966 33.2778 23.8527 33.3812 23.9568L33.8465 23.4364C33.7431 23.3323 33.588 23.2282 33.4846 23.1241C33.2261 22.8638 32.9676 22.6036 32.6574 22.3954C32.554 22.3433 32.4506 22.2913 32.3472 22.1872C34.0533 20.3655 35.9662 18.6999 37.9825 17.1905L38.1893 17.0344C39.3784 16.1495 40.6192 15.2127 41.1362 13.8074C41.7049 12.402 41.4464 10.7885 41.1879 9.53936C41.1362 9.33116 41.1362 9.12297 41.0845 8.96682C41.8083 8.81068 42.5838 9.07092 43.0491 9.59141C43.6178 10.216 43.7212 11.2049 43.3076 11.9336C43.2042 12.0897 43.1008 12.2459 42.9974 12.402C42.7389 12.7664 42.5321 13.0787 42.4287 13.5471C42.377 14.0155 42.5321 14.536 42.6872 14.9004C43.928 17.7631 46.6164 20.0532 49.8735 21.0942C50.2871 21.2503 50.7524 21.3544 50.9075 21.6667C51.0109 21.8228 51.0109 22.031 51.0626 22.2913C51.2694 23.1761 51.4762 24.3732 51.0109 25.3622Z" fill="black"/>
<path d="M0.501807 0.602879C0.553507 0.55083 0.553508 0.550832 0.605208 0.498783C0.863709 0.23854 0.450108 -0.177851 0.191607 0.0823924C0.139907 0.134441 0.139907 0.134441 0.0882067 0.18649C-0.170294 0.446734 0.191607 0.863122 0.501807 0.602879Z" transform="translate(16.0251 22.8855)" fill="black"/>
<path d="M0.371807 0.0067693C0.113306 -0.0452794 -0.0417947 0.214964 0.00990544 0.37111C-0.0417947 0.579305 0.113306 0.7875 0.371807 0.735451C0.733707 0.683403 0.733707 0.110867 0.371807 0.0067693Z" transform="translate(16 24.887)" fill="black"/>
<path d="M0.271425 0.572535C0.323125 0.572535 0.323126 0.572535 0.374826 0.572535C0.736727 0.572535 0.736727 7.942e-07 0.374826 7.942e-07C0.323126 7.942e-07 0.323125 7.942e-07 0.271425 7.942e-07C-0.0904756 7.942e-07 -0.0904756 0.572535 0.271425 0.572535Z" transform="translate(16.7725 27.288)" fill="black"/>
<path d="M0.571762 0.377354C0.571762 0.325305 0.571762 0.325305 0.571762 0.273256C0.571762 -0.0910848 0.00306045 -0.0910848 0.00306045 0.273256C0.00306045 0.325305 0.00306045 0.325305 0.00306045 0.377354C-0.0486397 0.741694 0.571762 0.741694 0.571762 0.377354Z" transform="translate(15.283 28.9926)" fill="black"/>
<path d="M0.3102 0.572535C0.3619 0.572535 0.361901 0.572535 0.413601 0.572535C0.775502 0.572535 0.775502 3.971e-07 0.413601 3.971e-07C0.361901 3.971e-07 0.3619 3.971e-07 0.3102 3.971e-07C-0.103401 3.971e-07 -0.103401 0.572535 0.3102 0.572535Z" transform="translate(18.2847 24.5813)" fill="black"/>
<path d="M0.374825 -7.942e-07C0.323125 -7.942e-07 0.323127 -7.942e-07 0.271426 -7.942e-07C-0.0904744 -7.942e-07 -0.0904744 0.572536 0.271426 0.572536C0.323127 0.572536 0.323125 0.572536 0.374825 0.572536C0.736726 0.572536 0.736726 -7.942e-07 0.374825 -7.942e-07Z" transform="translate(20.1848 25.5703)" fill="black"/>
<path d="M0.495442 0.602879C0.547142 0.550831 0.547143 0.55083 0.598843 0.498782C0.857343 0.238538 0.443743 -0.177851 0.185242 0.0823928C0.133542 0.134441 0.133542 0.134442 0.0818414 0.186491C-0.176659 0.446734 0.236941 0.863123 0.495442 0.602879Z" transform="translate(20.9429 21.4282)" fill="black"/>
<path d="M0.140031 0.549372C0.191731 0.601421 0.24343 0.601421 0.34683 0.65347C0.39853 0.65347 0.45023 0.705518 0.50193 0.705518C0.50193 0.913712 0.708732 1.06986 0.915533 0.965761C0.967233 0.913712 1.01893 0.913712 1.12233 0.861663C1.43253 0.705517 1.17403 0.185031 0.812132 0.341177C0.812132 0.341177 0.812131 0.341177 0.760431 0.341177C0.760431 0.237079 0.708731 0.185032 0.605331 0.132983C0.553631 0.0809344 0.501932 0.080934 0.398531 0.0288853C0.0883307 -0.127261 -0.17017 0.393226 0.140031 0.549372Z" transform="translate(19.7991 20.2845)" fill="black"/>
<path d="M0.271425 0.572535C0.323125 0.572535 0.374826 0.572535 0.478226 0.572535C0.840127 0.572535 0.840127 0 0.478226 0C0.426526 0 0.374825 0 0.271425 0C-0.090476 0 -0.090476 0.572535 0.271425 0.572535Z" transform="translate(18.4785 20.5737)" fill="black"/>
<path d="M0.495442 0.60288C0.547142 0.550832 0.547143 0.550831 0.598843 0.498783C0.857343 0.238539 0.443743 -0.17785 0.185242 0.0823936C0.133542 0.134442 0.0818414 0.186491 0.0818414 0.238539C-0.176659 0.498783 0.236941 0.915172 0.495442 0.60288Z" transform="translate(22.7527 20.075)" fill="black"/>
<path d="M0.568702 0.377352C0.568702 0.325303 0.568702 0.325305 0.568702 0.273256C0.568702 -0.0910844 -7.88881e-07 -0.0910844 -7.88881e-07 0.273256C-7.88881e-07 0.325305 -7.88881e-07 0.325303 -7.88881e-07 0.377352C-7.88881e-07 0.741693 0.568702 0.741693 0.568702 0.377352Z" transform="translate(25.2124 19.7279)" fill="black"/>
<path d="M0.271426 0.575616C0.323126 0.575616 0.323126 0.575616 0.374826 0.575616C0.736727 0.575616 0.736727 0.00308128 0.374826 0.00308128C0.323126 0.00308128 0.323126 0.00308128 0.271426 0.00308128C-0.0904752 -0.0489674 -0.0904752 0.575616 0.271426 0.575616Z" transform="translate(25.665 18.2284)" fill="black"/>
<path d="M0.268913 0.756339C0.527414 0.756339 0.734213 0.548146 0.734213 0.287903C0.785913 -0.0764381 0.268913 -0.0764385 0.165513 0.183805C-0.0929879 0.287902 -0.0412874 0.756339 0.268913 0.756339Z" transform="translate(27.9421 19.1929)" fill="black"/>
<path d="M0.495442 0.602881C0.547142 0.550832 0.547142 0.550832 0.598842 0.498783C0.857343 0.23854 0.443742 -0.177849 0.185242 0.082394C0.133542 0.134443 0.133541 0.134441 0.081841 0.18649C-0.17666 0.498782 0.236941 0.915173 0.495442 0.602881Z" transform="translate(28.5947 18.3573)" fill="black"/>
<path d="M0.271426 0.572536C0.323126 0.572536 0.323126 0.572536 0.374826 0.572536C0.736727 0.572536 0.736727 -3.971e-07 0.374826 -3.971e-07C0.323126 -3.971e-07 0.323126 -3.971e-07 0.271426 -3.971e-07C-0.0904752 -3.971e-07 -0.0904752 0.572536 0.271426 0.572536Z" transform="translate(31.3518 18.3876)" fill="black"/>
<path d="M0.271426 0.572536C0.323127 0.572536 0.323125 0.572536 0.374825 0.572536C0.736726 0.572536 0.736726 -7.942e-07 0.374825 -7.942e-07C0.323125 -7.942e-07 0.323127 -7.942e-07 0.271426 -7.942e-07C-0.0904744 -7.942e-07 -0.0904744 0.572536 0.271426 0.572536Z" transform="translate(32.3342 18.0233)" fill="black"/>
<path d="M0.271427 0.572535C0.323127 0.572535 0.323126 0.572535 0.374826 0.572535C0.736727 0.572535 0.736727 7.942e-07 0.374826 7.942e-07C0.323126 7.942e-07 0.323127 7.942e-07 0.271427 7.942e-07C-0.0904736 7.942e-07 -0.0904736 0.572535 0.271427 0.572535Z" transform="translate(33.8335 18.7)" fill="black"/>
<path d="M0.310201 -3.971e-07C0.155101 -3.971e-07 -7.88881e-07 0.104097 -7.88881e-07 0.260243C-7.88881e-07 0.36434 0.0517009 0.468438 0.155101 0.520486C0.258501 0.572535 0.4136 0.572535 0.517 0.520486C0.620401 0.468438 0.672102 0.36434 0.672102 0.260243C0.620402 0.104097 0.465301 -3.971e-07 0.310201 -3.971e-07Z" transform="translate(31.675 20.2094)" fill="black"/>
<path d="M0.271426 0.572535C0.323126 0.572535 0.323127 0.572535 0.374827 0.572535C0.736727 0.572535 0.736727 3.971e-07 0.374827 3.971e-07C0.323127 3.971e-07 0.323126 3.971e-07 0.271426 3.971e-07C-0.0904748 3.971e-07 -0.0904748 0.572535 0.271426 0.572535Z" transform="translate(30.4214 20.6779)" fill="black"/>
<path d="M0.271427 0.572535C0.323127 0.572535 0.323126 0.572535 0.374826 0.572535C0.736727 0.572535 0.736727 0 0.374826 0C0.323126 0 0.323127 0 0.271427 0C-0.0904736 0 -0.0904736 0.572535 0.271427 0.572535Z" transform="translate(38.7451 20.3135)" fill="black"/>
<path d="M1.57776e-06 0.273256C1.57776e-06 0.325305 1.57776e-06 0.377352 1.57776e-06 0.48145C1.57776e-06 0.84579 0.568702 0.84579 0.568702 0.48145C0.568702 0.429401 0.568702 0.377354 0.568702 0.273256C0.568702 -0.0910844 1.57776e-06 -0.0910844 1.57776e-06 0.273256Z" transform="translate(33.3293 21.5496)" fill="black"/>
<path d="M0.478228 3.971e-07C0.426528 3.971e-07 0.374827 3.971e-07 0.271426 3.971e-07C-0.0904744 3.971e-07 -0.0904744 0.572535 0.271426 0.572535C0.323127 0.572535 0.374827 0.572535 0.478228 0.572535C0.840128 0.572535 0.840128 3.971e-07 0.478228 3.971e-07Z" transform="translate(36.4702 23.5405)" fill="black"/>
<path d="M0.374827 7.942e-07C0.323127 7.942e-07 0.323124 7.942e-07 0.271424 7.942e-07C-0.0904768 7.942e-07 -0.0904768 0.572535 0.271424 0.572535C0.323124 0.572535 0.323127 0.572535 0.374827 0.572535C0.788428 0.572535 0.788428 7.942e-07 0.374827 7.942e-07Z" transform="translate(37.4009 23.6447)" fill="black"/>
<path d="M0.374827 -3.971e-07C0.323127 -3.971e-07 0.323124 -3.971e-07 0.271424 -3.971e-07C-0.0904768 -3.971e-07 -0.0904768 0.572536 0.271424 0.572536C0.323124 0.572536 0.323127 0.572536 0.374827 0.572536C0.736727 0.572536 0.736727 -3.971e-07 0.374827 -3.971e-07Z" transform="translate(38.9519 24.8937)" fill="black"/>
<path d="M0.478228 3.971e-07C0.426528 3.971e-07 0.374827 3.971e-07 0.271426 3.971e-07C-0.0904744 3.971e-07 -0.0904744 0.572535 0.271426 0.572535C0.323127 0.572535 0.374827 0.572535 0.478228 0.572535C0.840128 0.572535 0.840128 3.971e-07 0.478228 3.971e-07Z" transform="translate(38.5381 26.1428)" fill="black"/>
<path d="M0.374824 0C0.323124 0 0.323126 0 0.271426 0C-0.0904752 0 -0.0904752 0.572535 0.271426 0.572535C0.323126 0.572535 0.323124 0.572535 0.374824 0.572535C0.736725 0.572535 0.736725 0 0.374824 0Z" transform="translate(39.6238 27.34)" fill="black"/>
<path d="M0.374825 3.971e-07C0.323125 3.971e-07 0.323127 3.971e-07 0.271426 3.971e-07C-0.0904744 3.971e-07 -0.0904744 0.572535 0.271426 0.572535C0.323127 0.572535 0.323125 0.572535 0.374825 0.572535C0.736726 0.572535 0.736726 3.971e-07 0.374825 3.971e-07Z" transform="translate(38.2798 27.1838)" fill="black"/>
<path d="M0.1551 0.642903C0.2585 0.694951 0.361901 0.694952 0.465301 0.590855C0.517002 0.538806 0.517002 0.538806 0.568702 0.486757C0.775503 0.278562 0.517002 -0.0857791 0.310202 0.0183183C0.155101 0.0183183 -3.94441e-07 0.122416 -3.94441e-07 0.278562C-3.94441e-07 0.33061 -3.94441e-07 0.330611 -3.94441e-07 0.382659C-3.94441e-07 0.538805 0.0516993 0.590854 0.1551 0.642903Z" transform="translate(21.4385 25.6562)" fill="black"/>
<path d="M0.345203 0.0312867C0.293503 0.0833353 0.241802 0.0833357 0.138401 0.135384C-0.171799 0.29153 0.0867005 0.812017 0.448601 0.655871C0.500301 0.603823 0.552002 0.603822 0.655403 0.551773C0.965603 0.343579 0.707103 -0.124859 0.345203 0.0312867Z" transform="translate(19.8525 28.6099)" fill="black"/>
<path d="M0.374826 -3.971e-07C0.323126 -3.971e-07 0.323126 -3.971e-07 0.271426 -3.971e-07C-0.0904752 -3.971e-07 -0.0904752 0.572536 0.271426 0.572536C0.323126 0.572536 0.323126 0.572536 0.374826 0.572536C0.736727 0.572536 0.736727 -3.971e-07 0.374826 -3.971e-07Z" transform="translate(21.7874 28.7974)" fill="black"/>
<path d="M0.271426 -3.971e-07C-0.0904744 -3.971e-07 -0.0904744 0.572536 0.271426 0.572536C0.633327 0.572536 0.633327 -3.971e-07 0.271426 -3.971e-07Z" transform="translate(23.0283 23.8527)" fill="black"/>
<path d="M0.185241 0.0823928C0.133541 0.134441 0.133542 0.134442 0.0818422 0.186491C-0.176658 0.446734 0.236942 0.863123 0.495443 0.602879C0.547143 0.550831 0.547143 0.55083 0.598843 0.498782C0.857344 0.238538 0.443741 -0.177851 0.185241 0.0823928Z" transform="translate(24.5103 23.2498)" fill="black"/>
<path d="M0 0.273255C0 0.325304 0 0.325304 0 0.377353C0 0.741694 0.5687 0.741694 0.5687 0.377353C0.5687 0.325304 0.5687 0.325304 0.5687 0.273255C0.5687 -0.0910856 0 -0.0910856 0 0.273255Z" transform="translate(26.4534 23.8397)" fill="black"/>
<path d="M0 0.273255C0 0.325304 0 0.377353 0 0.481451C0 0.845791 0.5687 0.845791 0.5687 0.481451C0.5687 0.429402 0.5687 0.377352 0.5687 0.273255C0.5687 -0.0910856 0 -0.0910856 0 0.273255Z" transform="translate(28.7798 22.7987)" fill="black"/>
<path d="M0.185241 0.0823924C0.133541 0.134441 0.133541 0.134441 0.0818406 0.18649C-0.17666 0.446734 0.236943 0.863122 0.495443 0.602879C0.547143 0.55083 0.547142 0.550832 0.598842 0.498783C0.857342 0.23854 0.443742 -0.177851 0.185241 0.0823924Z" transform="translate(29.2668 22.1049)" fill="black"/>
<path d="M1.57776e-06 0.273255C1.57776e-06 0.325303 1.57776e-06 0.325304 1.57776e-06 0.377353C1.57776e-06 0.741693 0.568702 0.741693 0.568702 0.377353C0.568702 0.325304 0.568702 0.325303 0.568702 0.273255C0.568702 -0.091086 1.57776e-06 -0.091086 1.57776e-06 0.273255Z" transform="translate(36.1729 28.42)" fill="black"/>
<path d="M0.478225 0C0.426525 0 0.374824 0 0.271424 0C-0.0904768 0 -0.0904768 0.572535 0.271424 0.572535C0.323124 0.572535 0.374825 0.572535 0.478225 0.572535C0.840126 0.624583 0.840126 0 0.478225 0Z" transform="translate(37.4009 31.2437)" fill="black"/>
<path d="M0.374826 7.942e-07C0.323126 7.942e-07 0.323127 7.942e-07 0.271427 7.942e-07C-0.0904736 7.942e-07 -0.0904736 0.572535 0.271427 0.572535C0.323127 0.572535 0.323126 0.572535 0.374826 0.572535C0.736727 0.572535 0.736727 7.942e-07 0.374826 7.942e-07Z" transform="translate(34.8674 32.2327)" fill="black"/>
<path d="M0.374825 -7.942e-07C0.323125 -7.942e-07 0.323127 -7.942e-07 0.271426 -7.942e-07C-0.0904744 -7.942e-07 -0.0904744 0.572536 0.271426 0.572536C0.323127 0.572536 0.323125 0.572536 0.374825 0.572536C0.788426 0.572536 0.788426 -7.942e-07 0.374825 -7.942e-07Z" transform="translate(31.8171 30.7751)" fill="black"/>
<path d="M0.374827 7.942e-07C0.323127 7.942e-07 0.323124 7.942e-07 0.271424 7.942e-07C-0.0904768 7.942e-07 -0.0904768 0.572535 0.271424 0.572535C0.323124 0.572535 0.323127 0.572535 0.374827 0.572535C0.736727 0.572535 0.736727 7.942e-07 0.374827 7.942e-07Z" transform="translate(34.2991 29.6301)" fill="black"/>
<path d="M0.185242 0.0823928C0.133542 0.134441 0.133542 0.134442 0.0818418 0.186491C-0.176659 0.446734 0.236942 0.863123 0.495442 0.602879C0.547142 0.550831 0.547143 0.55083 0.598843 0.498782C0.857344 0.238538 0.443743 -0.177851 0.185242 0.0823928Z" transform="translate(29.0601 31.0573)" fill="black"/>
<path d="M0.374825 7.942e-07C0.323125 7.942e-07 0.323125 7.942e-07 0.271425 7.942e-07C-0.090476 7.942e-07 -0.090476 0.572535 0.271425 0.572535C0.323125 0.572535 0.323125 0.572535 0.374825 0.572535C0.736726 0.572535 0.736726 7.942e-07 0.374825 7.942e-07Z" transform="translate(28.8186 32.4928)" fill="black"/>
<path d="M0.345202 0.0288853C0.293502 0.080934 0.241801 0.0809324 0.138401 0.132981C-0.1718 0.289127 0.0867017 0.809614 0.448602 0.653468C0.500303 0.601419 0.552002 0.601421 0.655402 0.549372C0.965602 0.393226 0.707103 -0.127261 0.345202 0.0288853Z" transform="translate(29.7271 33.557)" fill="black"/>
<path d="M0.374825 7.942e-07C0.323125 7.942e-07 0.323127 7.942e-07 0.271426 7.942e-07C-0.0904744 7.942e-07 -0.0904744 0.572535 0.271426 0.572535C0.323127 0.572535 0.323125 0.572535 0.374825 0.572535C0.736726 0.572535 0.736726 7.942e-07 0.374825 7.942e-07Z" transform="translate(24.0623 33.2736)" fill="black"/>
<path d="M-7.88881e-07 0.273255C-7.88881e-07 0.325304 -7.88881e-07 0.325304 -7.88881e-07 0.377353C-7.88881e-07 0.741694 0.568702 0.741694 0.568702 0.377353C0.568702 0.325304 0.568702 0.325304 0.568702 0.273255C0.568702 -0.0910856 -7.88881e-07 -0.0910856 -7.88881e-07 0.273255Z" transform="translate(24.437 32.4277)" fill="black"/>
<path d="M7.88881e-07 0.273256C7.88881e-07 0.325305 7.88881e-07 0.325305 7.88881e-07 0.377354C7.88881e-07 0.741694 0.568701 0.741694 0.568701 0.377354C0.568701 0.325305 0.568701 0.325305 0.568701 0.273256C0.568701 -0.0910848 7.88881e-07 -0.0910848 7.88881e-07 0.273256Z" transform="translate(22.2656 31.8552)" fill="black"/>
<path d="M0.374827 7.942e-07C0.323127 7.942e-07 0.323126 7.942e-07 0.271426 7.942e-07C-0.0904748 7.942e-07 -0.0904748 0.572535 0.271426 0.572535C0.323126 0.572535 0.323127 0.572535 0.374827 0.572535C0.736727 0.572535 0.736727 7.942e-07 0.374827 7.942e-07Z" transform="translate(16.9795 31.1917)" fill="black"/>
<path d="M0 0.273256C0 0.325305 0 0.325303 0 0.377352C0 0.741693 0.5687 0.741693 0.5687 0.377352C0.5687 0.325303 0.5687 0.325305 0.5687 0.273256C0.620401 -0.0910844 0 -0.0910844 0 0.273256Z" transform="translate(20.2493 31.9594)" fill="black"/>
</svg>
