<svg width="61" height="51" viewBox="0 0 61 51" fill="none" xmlns="http://www.w3.org/2000/svg">
<path d="M17.7544 14.9991C18.0846 14.2982 18.5564 13.3637 18.7922 12.616C18.8866 11.775 19.0281 10.9806 19.1224 10.1396C19.1224 9.25176 18.9809 8.41069 18.745 7.56962C18.5564 6.91546 18.0846 5.7473 17.7072 5.18659C17.2827 4.4857 16.5751 3.73808 16.0562 3.08392C16.5279 3.69136 17.0468 4.34552 17.5186 4.95296C17.4714 4.90624 17.4714 4.85951 17.4242 4.76606C17.7544 7.14909 18.0375 9.57884 18.3677 11.9619C18.3677 11.9151 18.3677 11.8684 18.4148 11.775C17.6129 13.13 16.811 14.5318 16.009 15.8869C16.0562 15.8401 16.0562 15.8401 16.1034 15.7934C13.8863 16.7279 11.6692 17.6157 9.45206 18.5502C9.49923 18.5502 9.54641 18.5502 9.59358 18.5502C8.74447 18.4568 7.94254 18.3166 7.09343 18.2232C7.14061 18.2232 7.18778 18.2699 7.23495 18.2699C6.48019 17.9428 5.72543 17.6624 4.97067 17.3354C5.01784 17.3821 5.06502 17.3821 5.06502 17.4288C3.93288 16.3074 2.80074 15.186 1.6686 14.0645C1.76294 14.158 1.81012 14.2514 1.85729 14.3916C2.32901 14.9991 2.84791 15.6532 3.31964 16.2607C3.60267 16.6345 3.93288 16.9148 4.4046 17.1485C4.87633 17.4755 5.15936 17.8026 5.63109 18.0363C6.38585 18.4568 7.37647 18.7839 8.1784 19.111C7.42364 18.7839 6.66888 18.5035 5.91412 18.1764C5.96129 18.2232 6.05564 18.2232 6.10281 18.2699C5.48957 17.8026 4.82916 17.2886 4.21591 16.8214C4.26309 16.8681 4.31026 16.9148 4.35743 16.9148C3.8857 16.3074 3.36681 15.6532 2.89508 15.0458C2.98943 15.1392 3.0366 15.2327 3.08377 15.3261C2.75357 14.5785 2.47053 13.8309 2.14032 13.0833C2.1875 13.1767 2.18749 13.3169 2.23467 13.4104C2.14032 12.5693 1.99881 11.775 1.90446 10.9339C1.90446 11.1208 1.90446 11.3077 1.90446 11.4946C1.99881 10.6535 2.14032 9.8592 2.23467 9.01813C2.18749 9.25176 2.09315 9.48539 1.9988 9.76574C2.32901 9.01813 2.61205 8.27051 2.94225 7.52289C2.89508 7.61635 2.80074 7.75652 2.75357 7.84998C3.22529 7.24254 3.74419 6.58837 4.21591 5.98093C4.16874 6.02766 4.12157 6.07439 4.0744 6.12111C4.68764 5.65385 5.34805 5.13987 5.9613 4.67261C5.86695 4.76606 5.77261 4.81278 5.63109 4.85951C4.54612 5.46695 3.64984 6.26129 2.98943 7.28926C2.14032 8.17706 1.57425 9.25176 1.29122 10.4666C0.913837 11.7282 0.819492 12.9431 1.10253 14.2047C1.1497 15.4663 1.52708 16.5877 2.23467 17.6624C3.5555 19.6717 5.48957 21.4005 7.89537 21.9612C8.74447 22.0547 9.5464 22.1949 10.3955 22.2883C12.0937 22.2883 13.6976 21.8678 15.1599 21.0267C18.745 19.3446 20.5848 15.1392 20.7263 11.4012C20.7735 10.5134 20.5848 9.43866 20.3961 8.55087C20.2074 7.61635 19.7828 6.68183 19.3111 5.84076C18.8394 5.04641 18.2733 4.34552 17.6129 3.69136C16.1034 2.24285 15.0184 1.86904 13.0843 1.12143C13.8391 1.44851 14.5939 1.72886 15.3486 2.05595C15.2071 2.00922 15.1128 1.96249 14.9712 1.86904C15.5845 2.3363 16.2449 2.85029 16.8581 3.31755C16.811 3.27082 16.7638 3.2241 16.7638 3.17737C17.2355 3.78481 17.7544 4.43897 18.2261 5.04641C17.8016 4.34552 16.811 3.08392 16.5279 2.85029C15.9147 2.38303 15.2543 1.86904 14.641 1.40178C14.2637 1.12143 13.8863 0.934521 13.4146 0.841069C12.1881 0.327082 11.0088 0 9.64075 0C9.16903 0.0467261 8.6973 0.0934519 8.27275 0.186904C6.99909 0.23363 5.86695 0.607439 4.78198 1.30833C2.61205 2.71011 0.961011 4.62588 0.300595 7.14909C-0.312647 9.53211 0.0175605 12.1955 1.24405 14.3449C1.71577 15.1392 2.32901 15.8401 2.94225 16.541C2.47053 15.9336 1.95163 15.2794 1.47991 14.672C1.52708 14.7187 1.57425 14.7654 1.57425 14.8122C1.24405 14.0645 0.96101 13.3169 0.630802 12.5693C0.630802 12.616 0.677975 12.7095 0.677975 12.7562C1.00818 10.3732 1.29122 7.94343 1.62143 5.5604C1.62143 5.60713 1.57425 5.65385 1.57425 5.70058C0.866665 6.77528 0.489285 7.94343 0.442113 9.15831C0.159078 10.4199 0.20625 11.6348 0.630802 12.8964C1.24405 15.0458 2.94225 17.4288 4.97067 18.5035C7.14061 19.6717 9.82944 20.2324 12.2352 19.438C14.3108 18.597 16.7166 17.1952 17.7544 14.9991Z" transform="translate(10.1777 5.30188)" fill="#226957"/>
<path d="M16.299 0.420535C19.4124 0.84107 15.4499 0 14.4593 0C12.5724 0 10.9686 0.46726 9.31752 1.40178C8.60993 1.86904 7.90234 2.42976 7.24193 2.99047C6.06262 4.15862 5.26068 5.51367 4.83613 7.10236C5.4022 6.12111 6.01544 5.13987 6.58151 4.15862C7.94952 3.17737 8.18538 2.94374 7.33627 3.411C2.85489 5.28004 -0.541534 10.3732 0.0717083 15.1392C1.01516 22.1481 8.27972 24.9984 14.4593 22.7089C17.4784 21.5874 20.9691 21.2604 23.658 19.4848C27.762 16.7747 29.9319 11.1208 27.0544 6.68182C24.4127 2.61666 18.5633 0.420534 14.1291 3.31755C13.28 3.83154 13.563 3.73808 14.931 3.03719C14.5537 3.13065 14.2235 3.2241 13.8461 3.27082C13.1857 3.411 12.5724 3.55118 11.912 3.73808C11.2988 3.92499 10.6383 4.11189 10.0251 4.34552C9.64773 4.4857 9.22317 4.6726 8.84579 4.81278C7.10041 5.32677 8.13821 5.3735 11.8648 5.04641C14.0819 7.24254 16.2519 9.39194 18.469 11.5881C18.469 11.4946 18.4218 11.4479 18.4218 11.3544C18.4218 12.9898 18.4218 14.672 18.4218 16.3074C16.3462 19.2979 15.9217 20.1857 17.101 19.0175C15.8745 19.9053 15.6386 20.1389 16.4406 19.6717C16.8651 19.4848 17.2897 19.2511 17.6671 19.0175C20.4502 17.3354 21.8654 14.9056 22.9975 11.9619C21.5352 13.8309 20.12 15.7 18.6577 17.569C18.752 17.4755 18.8935 17.4288 18.9879 17.3354C17.384 17.7559 15.8273 18.1764 14.2235 18.597C12.3837 18.1764 12.0064 18.1764 13.1385 18.5502C14.1763 18.6904 15.2141 18.8306 16.2519 18.9708C18.469 19.2511 21.4409 17.7092 22.9032 16.2139C24.5542 14.5785 25.7807 11.9151 25.6864 9.62557C25.592 7.19581 24.7901 4.71933 22.9032 3.03719C21.0163 1.35506 18.9407 0.747617 16.299 0.420535Z" transform="translate(3.33057 19.3198)" fill="#226957"/>
<path d="M18.502 8.5581C18.2189 7.90394 17.8887 7.20305 17.6057 6.54888C17.9359 7.2965 18.2189 8.04412 18.5491 8.79173C18.502 8.69828 18.502 8.5581 18.4548 8.46465C18.1246 10.8477 17.8416 13.2774 17.5113 15.6605C17.5585 15.567 17.6057 15.4736 17.6529 15.3334C17.1811 15.9408 16.6622 16.595 16.1905 17.2024C16.2849 17.109 16.3792 17.0622 16.4264 16.9688C15.8131 17.4361 15.1527 17.95 14.5395 18.4173C14.6338 18.3706 14.7282 18.3239 14.8225 18.2771C14.0678 18.6042 13.313 18.8846 12.5582 19.2116C14.8225 18.2771 16.6151 17.623 18.4548 15.8941C17.8416 16.3614 17.1811 16.8753 16.5679 17.3426C16.6622 17.2959 16.7094 17.2491 16.8038 17.2024C15.1999 17.623 13.6432 18.0435 12.0393 18.464C12.1337 18.464 12.228 18.464 12.3224 18.464C11.4733 18.3706 10.6713 18.2304 9.82223 18.1369C10.0581 18.1837 10.2468 18.2304 10.4355 18.3238C9.68071 17.9968 8.92595 17.7164 8.17119 17.3893C8.26553 17.4361 8.35988 17.4828 8.45422 17.5762C7.84098 17.109 7.18057 16.595 6.56732 16.1277C6.75601 16.2679 6.89753 16.4081 6.99188 16.595C6.52015 15.9875 6.00125 15.3334 5.52953 14.7259C5.5767 14.8194 5.62387 14.9128 5.67105 15.0063C5.34084 14.2587 5.0578 13.5111 4.7276 12.7634C4.77477 12.9036 4.82194 13.0438 4.86911 13.184C4.77477 12.3429 4.63325 11.5486 4.5389 10.7075C4.58608 10.9879 4.58608 11.2682 4.5389 11.5486C4.63325 10.7075 4.77477 9.91316 4.86911 9.07209C4.82194 9.35245 4.7276 9.6328 4.63325 9.91316C4.96346 9.16554 5.24649 8.41793 5.5767 7.67031C5.38801 8.09084 5.19932 8.46465 4.96346 8.83846C5.43518 8.23102 5.95408 7.57686 6.4258 6.96942C6.14277 7.2965 5.90691 7.57686 5.5767 7.81049C6.18994 7.34323 6.85036 6.82924 7.4636 6.36198C6.80319 6.82924 6.04842 7.20305 5.29366 7.57686C3.26525 8.51138 1.51987 11.128 0.953795 13.184C0.340552 15.4268 0.623588 18.4173 1.89725 20.3798C3.21808 22.389 5.15215 24.1179 7.55795 24.6786C10.1524 25.286 12.4167 24.8655 14.8225 23.7441C19.8228 21.4545 23.4551 16.5483 23.4079 10.9879C23.3607 7.20305 21.1908 3.18461 17.7472 1.36229C13.4545 -0.880558 8.59574 -0.366571 4.96346 2.9977C5.5767 2.53044 6.23712 2.01646 6.85036 1.5492C6.66167 1.68938 6.47298 1.82955 6.28429 1.87628C7.03905 1.5492 7.79381 1.26884 8.54857 0.941758C7.41643 1.36229 6.23712 1.78283 5.19932 2.34354C3.07656 3.37151 1.61421 5.24056 0.717933 7.34323C-0.555725 10.3337 0.0103435 13.1373 1.284 15.9875C1.56704 16.6417 1.89724 17.3426 2.18028 17.9968C3.07656 20.006 5.76539 21.7349 7.84098 22.2956C10.1053 22.903 13.1243 22.6226 15.1055 21.361C17.134 20.0527 18.8793 18.1369 19.4454 15.7539C19.5398 14.9128 19.6813 14.1185 19.7756 13.2774C19.7756 11.5953 19.3511 10.0533 18.502 8.5581Z" transform="translate(35.6108 2.16406)" fill="#226957"/>
<path d="M1.27366 14.0406C1.79255 14.9284 2.45297 15.8162 3.2549 16.4704C3.49077 16.6573 3.72663 16.8442 3.91532 17.0778C3.44359 16.4704 2.92469 15.8162 2.45297 15.2088C2.50014 15.3023 2.59449 15.3957 2.64166 15.5359C2.31145 14.7883 2.02842 14.0406 1.69821 13.293C1.74538 13.3398 1.74538 13.4332 1.74538 13.5267C1.65104 12.6856 1.50952 11.8912 1.41518 11.0502C1.41518 11.1436 1.41518 11.1904 1.41518 11.2838C1.50952 10.4427 1.65104 9.6484 1.74538 8.80733C1.74538 8.85406 1.74538 8.90078 1.69821 8.90078C1.32083 10.1624 1.22648 11.3773 1.50952 12.6389C1.55669 13.9005 1.93407 15.0219 2.64166 16.0966C3.2549 17.1713 4.05683 18.0591 5.09463 18.7133C5.99091 19.5543 7.07588 20.115 8.30236 20.3954C9.15147 20.4888 9.9534 20.629 10.8025 20.7225C12.5007 20.7225 14.1046 20.3019 15.5669 19.4609C16.1802 18.9936 16.8406 18.4796 17.4538 18.0124C18.6331 16.8442 19.4351 15.4892 19.8596 13.9005C20.1427 13.0127 20.2842 12.0782 20.237 11.1904C20.237 10.7231 20.1427 10.3026 20.0483 9.8353C20.0011 9.36804 19.954 8.94751 19.8596 8.48025C19.7181 8.05971 19.5766 7.63918 19.3407 7.26537C19.152 6.84484 19.0105 6.47103 18.8218 6.05049C18.4444 5.3496 17.3123 4.088 17.218 3.94782C16.8878 3.57401 16.5104 3.34038 16.2273 2.96658C16.6991 3.57401 17.218 4.22818 17.6897 4.83562C17.6425 4.78889 17.5953 4.69544 17.5482 4.64871C16.9349 3.57401 16.133 2.68622 15.0952 2.03205C14.1989 1.19099 13.114 0.630272 11.8875 0.349915C10.6138 -0.023893 9.38733 -0.117344 8.11367 0.163012C6.84001 0.209738 5.70787 0.583546 4.6229 1.28444C4.00966 1.7517 3.34925 2.26568 2.736 2.73295C1.55669 3.9011 0.754759 5.25615 0.330207 6.84484C0.235862 7.6859 0.0943457 8.48025 7.19795e-07 9.32132C7.19795e-07 11.0035 0.424552 12.5921 1.27366 14.0406Z" transform="translate(28.2622 26.1189)" fill="#226957"/>
<path d="M12.3342 2.92528C10.8246 2.22439 8.56037 1.47677 7.42823 0.962787C7.9943 1.5235 8.56037 2.08421 9.12644 2.64493C9.03209 2.50475 8.98492 2.36457 8.89058 2.22439C6.9565 -1.13988 1.20146 -0.625898 0.305182 3.34582C-0.213716 5.63539 -0.119371 7.78479 0.965596 9.88746C1.24863 10.4482 1.34298 10.8687 1.53167 11.4294C1.72036 12.0369 1.90905 12.5976 2.19208 13.1583C2.47512 13.6255 2.52229 13.719 2.28643 13.3919C2.28643 12.5508 2.28643 11.7565 2.28643 10.9154C2.23925 11.0556 2.14491 11.1958 2.09774 11.336C4.97526 10.9622 7.85278 10.5884 10.7303 10.2145C10.5416 9.79401 10.3529 9.37348 10.2114 8.95294C7.52257 10.5416 4.78657 12.1303 2.09774 13.6723C3.84312 16.3824 5.77719 20.9148 9.26796 21.569C11.7681 22.0362 14.3626 20.8681 15.0702 18.2982C15.6834 16.0086 14.2682 13.0181 11.7681 12.5508C11.6266 12.5041 11.4379 12.5041 11.2964 12.4574C12.004 12.8779 12.6644 13.2517 13.372 13.6723C12.0983 12.4574 11.1549 10.4949 10.2114 8.95294C8.8434 6.80354 6.01305 5.96247 3.74877 7.2708C1.34298 8.67259 1.05994 11.336 2.05056 13.6723C2.23925 14.0928 2.42794 14.5133 2.56946 14.9339C3.27705 16.616 5.63567 17.4104 7.28671 17.1767C9.26796 16.8964 10.4944 15.6348 11.202 13.8125C11.9568 11.9434 11.0605 10.308 10.5888 8.95294C10.3058 8.06515 10.2586 7.50443 9.83403 6.61664C9.64534 6.24283 9.45665 5.86902 9.22078 5.54194C9.26796 6.0092 9.31513 6.10265 9.3623 5.86902C6.48478 6.24283 3.60726 6.61664 0.729734 6.99045C2.19208 9.51365 5.0696 9.88746 7.56975 11.0089C9.8812 12.0836 12.6644 11.6631 14.0324 9.32675C15.2117 7.31753 14.6928 3.99998 12.3342 2.92528Z" transform="translate(4.65381 0.834717)" fill="#226957"/>
<path d="M5.98085 9.37999H6.02802C5.60347 9.42672 5.17892 9.47344 4.75437 9.56689H4.80154C3.9996 9.33326 3.19767 9.14636 2.44291 8.91273H2.49008C2.15988 8.6791 1.87684 8.44547 1.54663 8.16511C1.59381 8.16511 1.59381 8.21184 1.64098 8.25856C1.40512 7.93148 1.16925 7.65113 0.88622 7.32404V7.37077C0.650357 6.57643 0.461667 5.78208 0.225804 5.03447V5.08119C0.272977 4.66066 0.32015 4.24012 0.414495 3.81959V3.86632C3.48071 4.28685 6.59409 4.70738 9.66031 5.12792C9.70748 4.66066 9.61313 4.05322 9.47162 3.63269C9.47162 3.58596 9.42444 3.53923 9.42444 3.49251C9.28292 3.1187 9.09424 2.65144 8.90555 2.27763C8.48099 1.57674 7.91492 1.01603 7.20733 0.595493C6.73561 0.26841 6.16954 0.0815058 5.50912 0.0815058C4.89588 -0.0586724 4.23547 -0.0119464 3.62222 0.174958C2.82029 0.408588 2.1127 0.782397 1.54663 1.38984C1.40512 1.57674 1.2636 1.71692 1.12208 1.90382C0.980565 2.09073 0.839047 2.2309 0.697529 2.41781C0.603184 2.60471 0.50884 2.83834 0.414495 3.02525C0.32015 3.21215 0.225805 3.44578 0.178632 3.63269C-0.104403 4.47375 -0.0100577 5.50173 0.178632 6.38952C0.32015 6.99696 0.603185 7.51095 1.02774 7.97821C1.35794 8.4922 1.7825 8.866 2.34857 9.19309C2.86746 9.52017 3.48071 9.70707 4.09395 9.7538C4.70719 9.89398 5.36761 9.84725 5.98085 9.66035C6.35823 9.52017 6.73561 9.33326 7.11299 9.19309C7.82058 8.77255 8.38665 8.21184 8.8112 7.51095C8.95272 7.13714 9.14141 6.76333 9.28292 6.38952C9.51879 5.54845 9.51879 4.75411 9.28292 3.91304V3.86632C9.3301 4.28685 9.37727 4.70738 9.47162 5.12792C9.47162 5.08119 9.47162 5.03447 9.47162 4.98774C9.42444 5.40828 9.37727 5.82881 9.28292 6.24935C9.28292 6.20262 9.28292 6.15589 9.3301 6.10917C9.18858 6.48298 8.99989 6.85678 8.85837 7.23059C8.85837 7.18387 8.90555 7.13714 8.90555 7.09041C8.66968 7.4175 8.43382 7.69785 8.15078 8.02493L8.19796 7.97821C5.74499 7.65113 3.24484 7.37077 0.791874 7.04369C0.791874 7.04369 0.791875 7.09041 0.839047 7.09041C0.69753 6.71661 0.50884 6.3428 0.367322 5.96899C0.414495 6.01571 0.414495 6.10917 0.414495 6.15589C0.367322 5.73536 0.320149 5.31482 0.225804 4.89429C0.225804 4.98774 0.225804 5.03447 0.225804 5.12792C0.178632 5.78208 0.32015 6.38952 0.650357 6.95024C0.839047 7.51095 1.16925 8.02493 1.64098 8.44547C1.97119 8.6791 2.25422 8.91273 2.58443 9.19309C3.10333 9.52017 3.71657 9.70707 4.32981 9.7538C4.75436 9.84725 5.17892 9.84725 5.60347 9.7538C6.21671 9.70707 6.82996 9.52017 7.34885 9.19309C7.67906 8.95946 7.9621 8.72583 8.2923 8.44547C8.85837 7.88476 9.28292 7.18387 9.51879 6.38952C9.70748 5.50173 9.75465 4.70739 9.51879 3.81959C9.28292 3.02525 8.85837 2.2309 8.24513 1.67019C7.63189 1.06275 6.87713 0.642218 6.0752 0.408588C5.13175 0.174958 4.37699 0.221684 3.48071 0.408588C2.86746 0.548766 2.34857 0.829123 1.87684 1.24966C1.35794 1.57674 0.980565 1.99727 0.650357 2.55799C0.32015 3.07197 0.131459 3.67941 0.084287 4.28685C-0.0572305 4.89429 -0.0100577 5.54845 0.178632 6.15589C0.32015 6.5297 0.50884 6.90351 0.650357 7.27732C1.07491 7.97821 1.64098 8.53892 2.34857 8.95946C2.72595 9.09963 3.10333 9.28654 3.48071 9.42672C4.32981 9.61362 5.17892 9.61362 5.98085 9.37999Z" transform="translate(11.9507 3.35132)" fill="#226957"/>
<path d="M3.43466 9.13399C3.95356 9.22744 4.47246 9.36762 4.99135 9.46107C5.13287 9.5078 5.51025 9.64798 5.65177 9.60125C5.41591 9.6947 4.33094 8.80691 4.70832 9.08727C5.03853 9.36762 5.36873 9.6947 5.74611 9.97506C6.21784 10.3021 5.46308 9.41435 5.74611 9.92833C6.54805 11.3768 5.36873 9.04054 5.74611 7.91911C4.99135 10.2554 6.59522 13.1057 9.04819 13.6664C11.5955 14.2271 14.0485 12.9188 14.8504 10.3956C15.7467 7.59203 14.0485 4.69502 11.9729 2.91943C11.0766 2.17181 10.1803 1.37747 9.09536 0.910206C8.10474 0.489672 7.11412 0.349494 6.07632 0.115864C3.52901 -0.398123 0.698655 0.816754 0.132585 3.38669C-0.433485 5.72299 0.840172 8.57328 3.43466 9.13399Z" transform="translate(15.8176 5.18616)" fill="#226957"/>
<path d="M7.10575 12.5084C8.09637 11.7608 9.08699 11.0599 10.0776 10.3123C7.90768 8.16288 5.78491 6.0602 3.61498 3.91081C3.47346 4.14444 3.33195 4.37807 3.19043 4.65842C5.92643 6.24711 8.61527 7.78907 11.3513 9.37775C11.4928 9.05067 11.6815 8.72359 11.823 8.44323C11.8702 8.34978 11.9645 8.2096 12.0117 8.11615C11.6343 8.77032 11.0682 9.0974 10.2663 9.19085C8.8983 9.56466 8.52092 9.75156 9.22851 9.70484C9.74741 9.70484 10.2191 9.65811 10.6909 9.47121C11.8702 9.05067 12.8608 8.39651 13.5212 7.32181C14.4647 5.73312 14.4647 3.9108 13.6156 2.32212C12.5306 0.312898 10.1248 -0.294539 8.0492 0.125996C5.6434 0.593256 3.99236 3.58372 4.74712 5.8733C5.59623 8.44323 7.95485 9.61138 10.5493 9.14412C10.5965 9.14412 10.6437 9.14412 10.6909 9.14412C9.18134 8.72359 7.62464 8.34978 6.11512 7.92924C6.1623 7.97597 6.20947 7.97597 6.20947 8.0227C5.78491 7.32181 5.40754 6.66764 4.98298 5.96675C4.98298 6.01348 4.98298 6.0602 5.03015 6.10693C5.17167 4.89205 5.36036 3.7239 5.50188 2.50902C5.45471 2.55575 5.40754 2.60248 5.36036 2.6492C6.30381 1.94831 7.24727 1.20069 8.19071 0.499804C9.08699 0.406352 9.27568 0.406351 8.80396 0.406351C8.28506 0.406351 7.81333 0.499803 7.34161 0.639981C6.39816 0.920338 5.59623 1.43432 4.88864 2.08849C4.13388 2.83611 3.66215 3.77063 3.19043 4.70515C2.05829 6.85455 2.53001 9.89174 4.88864 11.1066C7.15292 12.2748 10.0304 11.6673 11.3513 9.42448C11.4928 9.19085 11.6343 8.95722 11.7758 8.67686C12.8136 6.948 12.5778 4.42479 11.0211 3.02301C9.60589 1.71468 7.0114 1.01379 5.31319 2.27539C4.32257 3.02301 3.33195 3.7239 2.34132 4.47152C1.30353 5.21914 0.501595 6.01348 0.171387 7.27508C-0.15882 8.39651 -0.0173026 9.89174 0.643112 10.873C1.91677 12.742 4.98298 14.0504 7.10575 12.5084Z" transform="translate(25.4492 16.3435)" fill="#226957"/>
<path d="M7.0072 0.131569C5.35617 -0.102061 4.08251 -0.10206 2.62016 0.785734C1.34651 1.58008 0.497399 2.88841 0.214364 4.33691C-0.257361 6.71994 0.921954 9.47678 3.51644 10.0842C5.87507 10.5982 8.75259 9.38333 9.31866 6.8134C9.74321 4.80418 9.31866 3.30894 7.99783 1.76698C6.34679 -0.148787 3.04472 0.0848431 1.34651 1.76698C-0.587568 3.68275 -0.304533 6.43959 1.34651 8.35535C2.99754 10.2711 4.50706 12.0934 7.10155 12.8411C7.24307 12.8878 8.045 13.1681 8.13934 13.1214C7.14872 12.4672 6.86569 12.3271 7.29024 12.7009C7.43176 12.8411 7.62045 12.9812 7.76197 13.1681C8.84693 14.1961 9.83755 14.7568 11.2056 15.3175C13.517 16.2053 16.4889 14.3363 17.0078 12.0467C17.621 9.3366 16.1587 7.28066 13.7057 6.29941C14.2246 6.48631 15.168 7.28065 14.2718 6.39286C14.0831 6.20596 13.8472 6.01905 13.6585 5.83215C12.6679 4.99108 11.6773 4.43037 10.4508 4.05656C10.2149 3.96311 9.88473 3.86965 9.60169 3.86965C9.08279 3.72947 9.31866 3.86965 10.2621 4.29019C10.1206 4.15001 10.0262 4.05656 9.88473 3.91638C9.31866 3.16876 8.61107 2.46787 7.99783 1.76698C5.78072 3.9631 3.56361 6.15923 1.34651 8.35535C1.39368 8.44881 1.48802 8.49553 1.53519 8.58898C1.11064 7.09375 0.733262 5.55179 0.30871 4.05656C0.30871 4.15001 0.261538 4.24346 0.261538 4.33691C3.28058 5.17798 6.34679 5.97233 9.36583 6.8134C9.27148 6.90685 9.22431 7.04702 9.12997 7.14048C8.5639 7.70119 7.99783 8.2619 7.43176 8.82261C7.5261 8.72916 7.66762 8.68244 7.76197 8.58898C6.53548 8.72916 5.35617 8.91607 4.12968 9.05624C4.2712 9.05624 4.36555 9.10297 4.50706 9.10297C6.91286 9.47678 9.69604 8.49553 10.3093 5.83215C10.8282 3.63602 9.64886 0.552104 7.0072 0.131569Z" transform="translate(27.7649 31.851)" fill="#226957"/>
<path d="M5.61353 21.4272C6.84001 25.2588 10.1421 26.6138 13.9159 26.0064C15.5198 25.7727 16.7934 24.1841 17.218 22.7356C18.7275 17.549 17.5953 13.0165 15.5669 8.20375C13.7272 3.8115 10.1893 -0.627473 4.71725 0.0734178C2.16993 0.4005 -1.43959e-06 1.98919 -1.43959e-06 4.74602C-1.43959e-06 7.0356 2.16993 9.74571 4.71725 9.41863C6.41546 9.185 6.79284 11.4278 7.35891 12.7829C8.44388 15.3528 8.9156 17.549 8.11367 20.2591C9.19864 19.1844 10.3308 18.0629 11.4157 16.9882C11.2271 17.035 10.9912 17.035 10.8025 17.0817C11.6516 17.0817 12.4535 17.0817 13.3026 17.0817C13.4442 17.2219 13.5385 17.3621 13.68 17.4555C14.1046 18.1564 14.482 18.8106 14.9065 19.5115C14.8593 19.3245 14.765 19.0909 14.7178 18.904C12.9253 13.2034 3.7738 15.6332 5.61353 21.4272Z" transform="translate(32.1775 24.1058)" fill="#226957"/>
<path d="M0.640753 8.92979C0.357718 10.5652 0.216199 12.2006 0.263372 13.8828C0.263372 15.378 2.622 15.378 2.622 13.8828C2.622 13.0884 2.52765 12.3408 2.38613 11.5464C1.63137 11.7334 0.876613 11.967 0.121853 12.1539C0.687923 13.5089 1.0653 14.9107 1.39551 16.3592C1.67855 17.8545 3.89565 17.2003 3.65979 15.7518C3.14089 12.6679 3.99 8.97652 4.27303 5.8926C4.36738 4.58427 2.15027 4.25718 1.96158 5.56551C1.67855 7.48128 3.56545 9.44378 5.02779 7.3411C5.358 6.87384 5.26366 6.0795 5.54669 5.65897C5.45235 5.14498 5.54669 5.0048 5.82973 5.33188C6.01842 5.42534 6.20711 5.47206 6.44297 5.47206C6.96187 5.37861 9.83939 4.35064 9.27332 3.64975C9.17897 3.27594 9.08463 2.90213 8.99028 2.52832C8.99028 2.62177 8.94311 2.76195 8.94311 2.8554C8.75442 3.78992 9.46201 4.44409 10.4055 4.30391C11.9622 4.07028 13.2358 3.50957 14.5095 2.57505C14.0377 2.52832 13.566 2.43487 13.0943 2.38814C13.566 2.8554 14.0377 3.13576 14.6982 3.13576C15.5001 3.13576 16.1133 2.29469 16.7737 2.24796C16.4435 2.06106 16.1133 1.87416 15.736 1.68725C16.0662 2.24796 16.2077 2.80868 16.9624 3.04231C18.0474 3.36939 18.4248 2.38814 19.3682 2.34142C19.038 2.15451 18.7078 1.96761 18.3304 1.7807C18.2833 1.82743 18.2361 1.82743 18.1889 1.87416C17.1983 2.80868 18.472 4.30391 19.6041 3.69647C21.0664 3.41612 21.1136 3.04231 19.7456 2.52832C18.7078 3.08903 19.1795 4.72444 20.3589 4.72444C20.6891 4.91135 21.0193 5.05153 21.3967 5.23843C21.9156 5.84587 22.859 5.61224 23.2364 5.0048C23.5666 4.49081 23.5666 4.16373 23.4251 3.60302C23.2364 2.6685 21.6797 2.38814 21.2551 3.32266C20.7834 4.44409 20.1702 5.93932 21.2551 6.92057C22.0571 7.62146 23.142 7.52801 23.8968 6.78039C23.2836 6.68694 22.6703 6.64021 22.0571 6.54676C22.6231 7.52801 22.0571 8.64943 22.6231 9.58395C22.7647 9.81758 23.0477 9.95776 23.2364 10.1447C23.8496 10.7521 23.1892 9.21015 23.4251 10.2381C23.7553 11.6866 23.8968 12.2473 25.5007 12.8548C25.2176 12.3875 24.9346 11.8735 24.6987 11.4063C24.5572 12.2006 23.7081 12.5277 23.7553 13.5557C23.8025 14.4902 24.2742 15.0509 25.0761 15.5182C24.9818 14.9107 24.9346 14.3033 24.8402 13.6958C23.4251 15.0042 20.7362 17.4807 23.4722 19.0226C23.4722 18.3685 23.4722 17.6676 23.4722 17.0134C21.8684 17.761 20.6891 18.9292 21.2551 20.7515C21.4438 20.3309 21.6325 19.8637 21.774 19.4432C21.3967 19.7235 20.7362 19.6301 20.3117 20.0039C19.7928 20.4711 19.84 21.4991 19.3682 21.8729C19.0852 22.1065 18.1418 21.8729 17.7172 22.2467C17.1983 22.714 17.4342 23.4616 17.104 23.8821C16.8209 24.2559 17.4342 23.8354 16.3492 23.8354C16.019 23.8354 15.736 23.7887 15.4057 23.8354C14.8397 23.9756 14.2264 24.2092 13.8962 24.7699C13.283 25.8446 13.9906 27.0128 15.0755 27.3399C15.2642 26.5922 15.5001 25.8446 15.6888 25.097C13.4245 24.7699 11.3489 24.7699 9.1318 25.2839C7.66946 25.611 8.2827 27.8538 9.74504 27.5268C11.5376 27.1062 13.2358 27.1062 15.0284 27.3399C16.4907 27.5735 17.1511 25.5175 15.6416 25.097C15.6888 25.9848 16.1133 26.4053 16.8681 26.3586C16.9624 26.3586 17.0568 26.4053 17.1983 26.4053C17.67 26.4521 18.1417 26.2652 18.5191 26.0315C19.6513 25.3306 19.1324 24.583 19.5098 23.555C19.2267 23.8354 18.9437 24.1158 18.7078 24.3494C19.7456 23.9289 20.5475 24.3494 21.3023 23.3681C21.4438 23.1812 21.6797 22.2467 21.8212 22.1065C22.1514 21.7795 22.576 21.7795 22.9533 21.5458C23.3779 21.2187 23.6609 20.7515 23.4722 20.2375C23.2836 19.6301 24.227 19.303 24.6044 19.1161C25.4063 18.7423 25.312 17.5274 24.6044 17.1069C24.6987 17.1536 26.3969 15.4714 26.4441 15.4247C27.0102 14.9107 26.8215 13.9762 26.2082 13.6024C26.3498 13.6958 26.9158 12.2941 26.9158 12.1072C27.0102 11.453 26.7743 10.8923 26.1139 10.6587C25.595 10.4717 26.0196 10.0512 25.878 9.58395C25.7365 9.11669 25.312 8.88306 25.0761 8.55598C24.5572 7.80836 24.8874 8.60271 24.7459 7.29438C24.6987 6.59349 24.4157 6.03277 24.0383 5.42534C23.6609 4.77117 22.7175 4.63099 22.1986 5.19171C22.5288 4.95808 22.9062 4.77117 23.2364 4.53754C22.5288 4.44409 21.8212 4.35064 21.0664 4.25718C21.0664 4.11701 21.0664 4.02355 21.1136 3.88338C21.7269 3.78992 22.3401 3.7432 22.9533 3.64975C22.2458 2.76195 21.3967 2.43487 20.2645 2.43487C20.4532 3.18249 20.6419 3.88338 20.8778 4.63099C21.9627 4.02355 22.9062 2.71522 21.9627 1.54707C21.0193 0.332196 19.4154 1.17326 18.3304 1.73398C18.8022 2.34142 19.2739 2.94886 19.7456 3.55629C20.5947 2.76195 21.208 1.26672 20.0758 0.378922C19.6041 0.00511354 19.038 -0.0416125 18.472 0.0985656C18.1418 0.192018 17.67 0.378922 17.4342 0.659278C17.4813 0.612552 18.2361 1.54707 17.67 0.565826C17.4813 0.238744 17.0568 -0.0416125 16.6322 0.00511354C16.3492 0.00511354 14.4623 0.659278 14.6038 0.799456C14.2736 0.472374 13.566 0.332196 13.1886 0.612552C12.1037 1.4069 11.0187 1.87416 9.6507 2.10779C10.1224 2.57505 10.6413 3.08903 11.113 3.55629C11.3489 2.62177 11.0187 1.73398 9.93373 1.45362C8.2827 0.986361 7.52794 3.04231 6.06559 3.27594C6.44297 3.36939 6.82035 3.46284 7.19773 3.55629C6.3958 2.94886 5.54669 2.52832 4.55607 3.04231C4.08434 3.27594 3.75414 3.69647 3.4711 4.16373C3.23524 4.58427 3.32958 5.8926 2.85786 6.0795C3.23524 6.0795 3.65979 6.0795 4.03717 6.0795C4.08434 6.12623 4.13152 6.17295 4.13152 6.21968C3.37676 6.12623 2.57483 6.03277 1.82007 5.8926C1.53703 9.25687 0.735095 12.995 1.30117 16.3592C2.05593 16.1723 2.81069 15.9387 3.56545 15.7518C3.28241 14.3033 2.85786 12.9482 2.29179 11.5464C1.72572 10.1447 -0.255526 10.6587 0.0275092 12.1539C0.169027 12.7146 0.169028 13.2753 0.169028 13.8828C0.970961 13.8828 1.72572 13.8828 2.52765 13.8828C2.52765 12.4342 2.57483 10.9857 2.81069 9.53723C3.1409 8.08872 0.876616 7.43456 0.640753 8.92979Z" transform="translate(33.9426 0.297119)" fill="#226957"/>
<path d="M11.0908 0.00999536C10.2417 -0.0367307 9.34538 0.0567218 8.77931 0.804339C8.63779 0.944517 8.54344 1.64541 8.4491 1.73886C8.21324 1.92576 7.12827 1.87904 6.79806 2.01922C5.99613 2.39303 5.90178 2.86028 5.57158 3.51445C5.05268 4.44897 5.99613 3.6079 4.95833 4.26207C4.62813 4.44897 4.25075 4.4957 3.96771 4.77605C3.26012 5.38349 3.35447 6.36474 2.92992 7.06563C2.41102 7.95343 2.22233 9.1683 1.60909 9.96265C0.995843 10.8037 0.665636 10.8504 0.571291 11.9719C0.524118 12.9531 0.618463 12.4391 0.429773 13.1867C0.241083 13.8409 -0.0419518 13.9344 0.00522068 14.682C0.00522068 15.3361 0.476946 15.8501 1.13736 15.8501C1.27888 15.3829 1.23171 15.3829 1.04302 15.8501C0.995843 15.9436 0.948671 16.037 0.901498 16.1305C0.854326 16.4576 0.854326 16.9248 0.948671 17.2052C1.27888 18.0463 1.98647 18.2332 2.64688 18.6537C3.44881 19.1677 3.73185 20.0087 4.53378 20.5695C5.43006 21.2236 7.26979 20.8965 7.83586 21.8778C8.16606 22.4385 8.87365 22.5787 9.43972 22.2983C10.8077 21.6442 11.5625 22.345 12.789 22.6721C13.5909 22.859 14.0626 22.5787 14.7702 22.4852C15.3835 22.3918 16.0439 22.532 16.6099 22.3451C17.3647 22.1114 17.8836 21.8311 18.6855 21.6442C19.2044 21.504 19.5346 21.2703 20.0064 21.0834C21.1385 20.6629 22.1763 20.8965 23.3084 20.8031C23.9689 20.7564 24.6764 20.6162 25.2425 20.1957C25.5727 19.962 26.9407 18.5135 26.6105 18.0463C27.3181 19.0275 29.2993 18.4668 28.7804 17.1585C28.2615 15.8969 27.3653 15.0558 25.9029 14.9623C24.7708 14.8689 23.6386 15.3361 22.5537 15.523C21.1385 15.7567 19.7233 15.71 18.3082 15.6165C15.808 15.4763 13.4022 15.196 10.9021 15.4296C8.49627 15.6632 4.48661 16.3641 3.68468 13.2335C3.02426 13.6073 2.36385 13.9811 1.70343 14.3549C1.93929 14.5885 2.17516 14.8689 2.41102 15.1025C3.16578 15.8969 4.29792 15.2427 4.43944 14.2614C4.53378 13.8409 4.62813 13.4204 4.6753 12.9531C5.05268 11.5046 2.7884 10.8504 2.41102 12.3457C2.22233 13.0466 2.12798 13.5138 2.03364 14.2614C2.74123 13.9811 3.40164 13.7007 4.06206 13.4204C3.82619 13.1867 3.59033 12.9064 3.35447 12.6728C2.50536 11.8317 1.09019 12.7195 1.37322 13.7942C2.41102 17.7192 6.60937 18.1397 10.053 17.8126C12.6946 17.5323 15.1948 17.6724 17.8364 17.8594C19.1573 17.9528 20.4781 18.0463 21.7989 17.9061C22.648 17.8126 26.1388 16.8314 26.469 17.7192C27.1766 17.4388 27.8842 17.1117 28.6389 16.8314C27.6955 15.523 26.1388 15.3829 25.0066 16.5977C24.016 17.6257 23.733 18.4201 22.2235 18.3733C20.9498 18.3733 20.0064 18.5602 18.827 18.9808C17.2704 19.5415 15.6665 19.9153 14.0155 19.962C13.3079 19.962 13.355 20.1022 12.5531 19.9153C12.1286 19.8218 11.7512 19.6349 11.3266 19.5882C10.1945 19.448 9.25103 19.7284 8.26041 20.1957C8.77931 20.3358 9.34538 20.476 9.86427 20.6162C9.01517 19.1677 7.97737 19.4013 6.5622 18.8406C5.43006 18.3733 5.47723 17.1117 4.29792 16.6912C3.96771 16.4576 3.59033 16.4576 3.26012 16.5977C3.40164 16.4108 3.49599 16.1772 3.59033 15.9436C3.54316 15.6165 3.68468 15.2427 3.59033 14.8689C3.26012 13.7942 2.17516 13.4204 1.13736 13.4204C1.51474 13.7942 1.93929 14.2147 2.31667 14.5885C2.2695 14.1213 3.02426 13.1867 3.07143 12.5793C3.11861 12.0653 3.02426 12.0186 3.21295 11.5513C3.3073 11.3177 3.68468 11.1308 3.87337 10.8972C4.39226 10.1028 4.34509 9.1683 4.86399 8.37396C5.1942 7.9067 5.61875 6.6451 5.85461 6.41147C6.42068 5.89748 7.26979 6.03766 7.74151 5.29004C7.9302 4.96296 7.88303 4.54242 8.02455 4.26207C8.40193 3.6079 7.4113 4.44897 8.21324 3.88826C8.77931 3.46773 9.67558 3.74808 10.2417 3.14064C10.4775 2.86029 10.5247 2.48648 10.7134 2.25285C11.0908 1.83231 10.0058 2.15939 11.0436 2.20612C12.6003 2.48648 12.6003 0.150174 11.0908 0.00999536Z" transform="translate(0.378174 21.2255)" fill="#226957"/>
<path d="M0.375159 7.94299C0.799711 8.27008 0.563847 9.57841 0.941227 10.0924C1.31861 10.5597 1.93185 10.8867 2.12054 11.1204C2.73378 11.7745 2.78095 12.0082 3.58289 12.4287C3.96027 12.6156 4.29048 12.8025 4.66786 12.9427C4.66786 13.1763 4.71503 13.3632 4.80937 13.5501C4.99806 13.737 5.13958 13.9707 5.32827 14.2043C5.56413 14.4379 5.94151 14.3445 6.22455 14.4846C7.49821 15.2323 6.93214 15.1855 7.6869 16.0266C8.11145 16.5406 8.86621 16.9144 9.5738 16.7275C10.3286 16.4939 9.14924 15.9799 9.5738 16.4939C9.85683 16.7742 9.90401 17.1013 10.2342 17.3349C10.6116 17.5686 11.0361 17.4751 11.3663 17.5686C11.5079 17.5686 11.6494 17.5218 11.7909 17.4284C11.8852 17.8489 12.1211 18.176 12.5928 18.2695C13.0174 18.5498 13.6778 18.4096 14.008 18.0825C14.5741 17.5218 16.744 18.7834 17.6403 18.69C18.5366 18.5965 19.3385 18.1293 19.9989 17.4751C20.848 16.5873 21.5084 15.1855 21.7443 14.0174C21.8858 13.3632 21.7443 12.7558 21.8386 12.0549C21.933 11.4474 22.3104 10.9802 22.4047 10.3727C22.5934 9.29805 22.0273 8.55043 21.8858 7.56918C21.6971 6.35431 22.216 6.02723 21.5084 4.9058C21.3669 4.7189 20.9424 4.25163 21.2254 4.81235C21.0367 4.43854 21.0839 3.97128 20.848 3.64419C20.0933 2.38259 18.5366 1.30789 17.4516 0.326646C16.3666 -0.701327 14.6684 0.934084 15.8006 1.96206C16.6025 2.70967 17.9705 3.59747 18.5366 4.53199C18.8668 5.0927 18.914 5.70014 19.2442 6.26086C19.3385 6.44776 19.8574 6.54121 19.9046 6.68139C19.9517 6.86829 19.6215 6.63466 19.48 7.10192C19.197 8.22335 20.1876 9.11114 19.9989 10.3727C19.8574 11.2138 19.5744 11.9147 19.48 12.8025C19.3385 14.5314 18.4422 16.5873 16.4138 16.0266C14.7628 15.6061 13.8193 14.9986 12.357 16.4471C12.8287 16.4004 13.3004 16.307 13.7722 16.2602C13.2061 15.8864 12.64 15.3257 11.9796 15.1855C11.7909 15.1388 10.8946 15.2323 10.8946 15.2323C11.6494 15.6995 11.272 14.251 10.3286 14.0174C9.95118 13.9239 9.19641 14.3912 9.00772 14.2977C9.47945 14.5314 8.67752 12.9894 8.81904 13.1296C8.58317 12.8025 8.25297 12.6156 7.92276 12.4287C7.6869 12.2885 6.36607 12.1951 6.83779 12.4287C6.93214 12.8025 6.93213 12.7558 6.88496 12.382C6.83779 12.1016 6.74345 11.8213 6.60193 11.5409C6.41324 11.2138 6.1302 10.8867 5.8 10.6531C5.18675 10.1858 5.04524 10.4662 4.43199 10.1391C3.81875 9.81203 4.66785 10.4662 4.05461 9.71858C3.77158 9.3915 2.8753 8.73734 2.78096 8.55043C2.30923 7.75609 2.82813 7.00847 1.93185 6.26086C0.941229 5.32634 -0.756981 6.96175 0.375159 7.94299Z" transform="translate(28.123 31.8895)" fill="#226957"/>
<path d="M1.54322 4.20594C1.07149 3.08452 1.11866 1.96309 1.68473 0.888391C2.06211 0.234226 1.02432 -0.373212 0.646938 0.280953C-0.107822 1.58928 -0.202166 3.08452 0.363904 4.4863C0.694111 5.23391 1.82625 4.90683 1.54322 4.20594Z" transform="translate(31.8608 18.0109)" fill="#399888"/>
<path d="M1.1922 4.58838C1.14503 3.74732 1.14503 2.85952 1.56959 2.1119C2.13566 1.13066 3.31497 1.13066 4.30559 1.17738C5.06035 1.17738 5.06035 0.00923149 4.30559 0.00923149C2.98476 -0.0374946 1.61676 0.0559575 0.767651 1.17738C0.0128909 2.15863 -0.0342808 3.42023 0.0128917 4.58838C0.0600642 5.336 1.23938 5.336 1.1922 4.58838Z" transform="translate(28.7683 18.0488)" fill="#399888"/>
<path d="M0.284974 1.26725C1.41711 1.87468 2.73794 1.82796 3.82291 1.12707C4.43615 0.706534 3.87008 -0.32144 3.20967 0.0990948C2.50208 0.566355 1.65298 0.659807 0.851043 0.239273C0.2378 -0.0878098 -0.375441 0.893438 0.284974 1.26725Z" transform="translate(33.2134 22.4915)" fill="#399888"/>
<path d="M8.59109 0.118987C5.43053 2.36184 2.31715 4.65141 0.100042 7.92224C-0.324511 8.52968 0.713285 9.13712 1.13784 8.52968C3.21343 5.44576 6.23247 3.29636 9.20433 1.14696C9.81758 0.6797 9.20433 -0.348274 8.59109 0.118987Z" transform="translate(17.5957 26.3499)" fill="#399888"/>
<path d="M5.10452 0.00531704C3.40631 0.192221 1.80245 0.659482 0.292929 1.4071C-0.367486 1.73418 0.198583 2.76215 0.906171 2.43507C2.227 1.73418 3.64218 1.31365 5.1517 1.17347C5.85928 1.08002 5.85928 -0.0881351 5.10452 0.00531704Z" transform="translate(16.1763 28.426)" fill="#399888"/>
<path d="M0.566069 1.54728C1.8869 1.4071 3.16056 1.26692 4.48139 1.17347C5.23615 1.08002 5.23615 -0.0881347 4.48139 0.0053174C3.16056 0.145496 1.8869 0.285673 0.566069 0.379125C-0.188691 0.472578 -0.188691 1.64073 0.566069 1.54728Z" transform="translate(21.894 25.015)" fill="#399888"/>
<path d="M1.3377 0.402969C1.0075 1.61785 0.630117 2.73927 0.0640468 3.8607C-0.266161 4.51486 0.771635 5.1223 1.10184 4.46814C1.71508 3.25326 2.13964 2.03838 2.51702 0.730052C2.65853 -0.0175649 1.52639 -0.297922 1.3377 0.402969Z" transform="translate(24.3301 29.5236)" fill="#399888"/>
<path d="M1.03578 5.93222C2.734 4.39026 4.29069 2.75485 5.75304 1.02598C6.22476 0.46527 5.42283 -0.375799 4.90393 0.184914C3.44158 1.91378 1.88489 3.54919 0.18668 5.09115C-0.37939 5.60514 0.469715 6.4462 1.03578 5.93222Z" transform="translate(29.8682 18.8545)" fill="#399888"/>
<path d="M1.01103 12.169C5.11503 8.10382 10.0681 5.06662 14.1722 1.00146C14.6911 0.487471 13.8891 -0.353598 13.3231 0.160389C9.21904 4.22556 4.26593 7.21602 0.161922 11.3279C-0.356975 11.8886 0.492128 12.683 1.01103 12.169Z" transform="translate(39.6577 6.87036)" fill="#399888"/>
<path d="M4.48277 0.184913C1.79393 2.98848 0.237242 6.49293 0.00137944 10.3712C-0.0457931 11.1188 1.13352 11.1188 1.18069 10.3712C1.41655 6.82001 2.83173 3.59592 5.33187 1.02598C5.85077 0.46527 5.04884 -0.375799 4.48277 0.184913Z" transform="translate(43.073 5.2572)" fill="#399888"/>
<path d="M0.727044 4.11742C3.13284 3.69689 5.63298 3.88379 8.03878 3.46325C10.2559 3.04272 12.0013 1.40731 14.1712 1.12695C14.926 1.0335 14.5958 -0.0879255 13.841 0.00552658C11.5295 0.332609 9.78417 2.01475 7.42554 2.38856C5.11409 2.71564 2.75546 2.62219 0.444009 2.99599C-0.310751 3.13617 -0.0277165 4.2576 0.727044 4.11742Z" transform="translate(42.5361 13.9874)" fill="#399888"/>
<path d="M3.24112 0.31232C1.40139 4.33076 -0.768542 8.39593 0.269254 12.8816C0.457944 13.6292 1.59008 13.3022 1.40139 12.5545C0.457944 8.39593 2.58071 4.56439 4.23174 0.873033C4.56195 0.218868 3.57133 -0.388571 3.24112 0.31232Z" transform="translate(37.8992 5.55042)" fill="#399888"/>
<path d="M0.566069 2.20822C5.80222 2.76893 10.944 1.97459 16.0858 1.13352C16.8406 0.993345 16.5104 -0.128081 15.7556 0.0120974C10.7082 0.853166 5.6607 1.55406 0.566069 1.04007C-0.188691 0.946619 -0.188691 2.11477 0.566069 2.20822Z" transform="translate(40.5271 18.2797)" fill="#399888"/>
<path d="M0.100042 0.859048C2.17563 3.89624 4.29839 6.98016 6.37398 10.0174C8.4024 12.9611 10.0063 15.7647 11.5158 18.9888C11.846 19.6896 12.8366 19.0822 12.5536 18.3813C11.0441 15.1572 9.39302 12.4004 7.41178 9.40992C5.33619 6.37272 3.21343 3.2888 1.13784 0.25161C0.713283 -0.355829 -0.32451 0.251609 0.100042 0.859048Z" transform="translate(33.1152 27.5723)" fill="#399888"/>
<path d="M0.427248 1.18024C2.07829 1.55405 3.5878 2.30167 4.76712 3.51654C5.71057 4.45106 6.46533 5.52576 7.5503 6.32011C8.16354 6.78737 8.72961 5.75939 8.16354 5.29213C6.84271 4.31089 5.9936 2.86238 4.71994 1.83441C3.54063 0.899884 2.2198 0.339171 0.757454 0.0120884C0.00269366 -0.12809 -0.327512 0.993336 0.427248 1.18024Z" transform="translate(40.2886 37.0636)" fill="#399888"/>
<path d="M0.00976848 0.566696C-0.0845765 2.29556 0.528665 4.21133 0.8117 5.89346C1.09473 7.48215 1.6608 8.79048 2.74577 10.0054C3.26467 10.5661 4.11378 9.725 3.59488 9.16429C2.46274 7.94941 2.08536 6.54763 1.84949 4.91222C1.61363 3.51044 1.09474 1.96847 1.18908 0.519967C1.23625 -0.180924 0.056941 -0.180921 0.00976848 0.566696Z" transform="translate(37.8757 37.35)" fill="#399888"/>
<path d="M0.393509 1.19887C1.9502 1.75958 3.36538 2.60065 4.63903 3.67535C5.62966 4.51642 6.29007 5.77803 7.37504 6.47892C8.03545 6.89945 8.60152 5.87148 7.98828 5.45094C7.32787 5.03041 6.85614 4.14261 6.29007 3.5819C5.77117 3.06791 5.2051 2.60065 4.63903 2.13339C3.45972 1.2456 2.13889 0.544707 0.723715 0.0307201C0.016128 -0.20291 -0.314078 0.965241 0.393509 1.19887Z" transform="translate(38.0107 31.6714)" fill="#399888"/>
<path d="M0.560309 1.23002C1.78679 1.13657 3.01328 1.13657 4.28693 1.3702C5.08887 1.51038 6.97577 1.74401 7.44749 2.4449C7.87205 3.05234 8.90984 2.49163 8.48529 1.83746C7.82487 0.90294 6.45687 0.622584 5.3719 0.388954C3.81521 0.0151454 2.21135 -0.0783053 0.607481 0.0618729C-0.194452 0.108599 -0.194451 1.27675 0.560309 1.23002Z" transform="translate(35.6741 28.7899)" fill="#399888"/>
<path d="M0.798479 0.426142C-0.144971 4.25768 -0.380834 9.07046 0.798479 12.8553C1.03434 13.5562 2.16648 13.2758 1.93062 12.5282C0.845652 9.02374 1.08151 4.25768 1.93062 0.706498C2.11931 0.00560711 0.987169 -0.321475 0.798479 0.426142Z" transform="translate(33.1245 30.9956)" fill="#399888"/>
<path d="M1.06949 0.42614C0.126041 3.93059 -0.770237 8.46302 1.06949 11.7806C1.44687 12.4347 2.43749 11.874 2.10728 11.1731C0.456246 8.18266 1.35253 3.83714 2.20163 0.706499C2.43749 0.00560856 1.30535 -0.321477 1.06949 0.42614Z" transform="translate(30.7307 29.734)" fill="#399888"/>
<path d="M0.292928 1.0448C4.16107 2.77367 6.84991 6.46502 10.1992 9.03496C13.8314 11.7918 17.6524 14.2215 20.5771 17.7727C21.0488 18.3802 21.8979 17.5391 21.4262 16.9317C18.643 13.4739 14.9636 11.0909 11.4256 8.47424C7.84053 5.85758 5.01018 1.88587 0.90617 0.0635541C0.198583 -0.263528 -0.367487 0.764445 0.292928 1.0448Z" transform="translate(7.59082 4.16357)" fill="#399888"/>
<path d="M0.0503186 0.873033C1.60701 4.37749 2.36177 8.06884 2.3146 11.9471C2.3146 12.6947 3.49391 12.6947 3.49391 11.9471C3.54109 7.88194 2.69198 4.00368 1.04094 0.31232C0.757907 -0.388571 -0.232716 0.218868 0.0503186 0.873033Z" transform="translate(20.5229 6.11108)" fill="#399888"/>
<path d="M0.120391 0.838534C2.38467 3.92245 2.66771 8.50161 3.23378 12.193C3.32812 12.9406 4.50743 12.6135 4.36592 11.8659C3.75267 8.03435 3.51681 3.45519 1.11101 0.231096C0.686462 -0.329617 -0.351334 0.231096 0.120391 0.838534Z" transform="translate(15.4998 4.51013)" fill="#399888"/>
<path d="M0.409512 0.882808C1.30579 2.51822 1.06993 4.62089 1.02275 6.44321C0.975581 8.35898 0.692547 10.228 0.032132 12.0503C-0.203731 12.7512 0.92841 13.0783 1.16427 12.3774C1.91903 10.1813 2.15489 7.93844 2.20207 5.64886C2.24924 3.82655 2.34358 2.00423 1.44731 0.322095C1.06993 -0.378796 0.0321317 0.181917 0.409512 0.882808Z" transform="translate(25.2109 8.7179)" fill="#399888"/>
<path d="M0.315304 1.07773C3.80607 2.57296 7.29683 3.92802 11.165 3.27385C11.9197 3.13368 11.5895 2.01225 10.8348 2.15243C7.29683 2.71314 4.04193 1.40481 0.881375 0.0497566C0.22096 -0.2306 -0.392283 0.750648 0.315304 1.07773Z" transform="translate(7.23828 9.41077)" fill="#399888"/>
<path d="M0.56607 1.16952C2.68883 1.35642 4.81159 1.54332 6.93436 1.73023C7.68912 1.77696 7.68912 0.608804 6.93436 0.562078C4.81159 0.375174 2.68883 0.188269 0.56607 0.00136478C-0.18869 -0.0453613 -0.18869 1.12279 0.56607 1.16952Z" transform="translate(6.46875 7.35645)" fill="#399888"/>
<path d="M0.283638 1.09368C3.72723 2.91599 7.5482 3.2898 11.322 2.2151C12.0296 2.0282 11.7466 0.860046 10.9918 1.09368C7.59538 2.07492 4.10461 1.74784 0.89688 0.0657036C0.236465 -0.261379 -0.376777 0.719868 0.283638 1.09368Z" transform="translate(11.374 14.7684)" fill="#399888"/>
<path d="M0.427246 1.14235C2.17263 1.70307 3.96518 1.98342 5.80491 1.98342C7.8805 1.9367 9.81458 1.28253 11.8902 1.18908C12.6449 1.14235 12.6449 -0.0257974 11.8902 0.0209286C10.0976 0.0676547 8.3994 0.675093 6.65402 0.768545C4.6256 0.908723 2.69153 0.628367 0.757453 0.0209286C0.00269327 -0.165976 -0.327514 0.95545 0.427246 1.14235Z" transform="translate(14.0134 18.5979)" fill="#399888"/>
<path d="M7.07648 0.131903C4.57634 -0.382083 2.4064 0.692616 0.283637 1.86077C-0.376778 2.23458 0.236465 3.26255 0.89688 2.88874C2.68944 1.86077 4.62351 0.786069 6.79344 1.25333C7.50103 1.44023 7.83124 0.318807 7.07648 0.131903Z" transform="translate(7.17554 24.608)" fill="#399888"/>
<path d="M7.29536 0.0120891C5.88019 0.292445 4.41784 0.5728 3.23853 1.50732C2.15356 2.34839 1.63466 3.84363 0.313833 4.45106C-0.393754 4.77815 0.219488 5.75939 0.927076 5.47904C2.05922 4.96505 2.57811 3.93708 3.38005 3.04928C4.51219 1.78768 6.06888 1.4606 7.62557 1.18024C8.38033 0.993336 8.05012 -0.128089 7.29536 0.0120891Z" transform="translate(3.5603 33.2787)" fill="#399888"/>
<path d="M1.38718 4.26034H1.43435L1.48152 3.93326H1.43435C0.726762 3.79308 0.160692 2.99873 0.302209 2.25112C0.443727 1.55023 1.10414 0.896062 1.90607 0.755883C2.61366 0.615705 3.46277 0.849335 4.12318 1.36332L4.35904 1.55023V1.22314C4.35904 0.896062 4.59491 0.662431 4.7836 0.522253C5.1138 0.241897 5.6327 0.148445 6.05725 0.288623C6.85919 0.475527 7.47243 1.17642 7.94415 1.6904L8.22719 2.01749L8.18002 1.55023C8.18002 1.36332 8.22719 1.22314 8.41588 1.08297C8.65174 0.896062 8.98195 0.849335 9.26498 0.942788C9.73671 1.12969 10.0669 1.59695 10.3971 2.06421L10.7745 2.67165L10.6802 1.97076C10.633 1.78386 10.7745 1.59695 10.8688 1.55023C11.1047 1.36332 11.4349 1.3166 11.6708 1.41005C12.1425 1.59695 12.4255 2.06421 12.7086 2.5782L13.0388 3.13891V2.48475C13.0388 2.34457 13.086 2.25112 13.2275 2.15767C13.369 2.01749 13.6049 1.97076 13.7935 2.01749C14.1709 2.11094 14.454 2.43802 14.6427 2.71838C14.6427 2.95201 14.6898 3.09219 14.7842 3.23236C14.8785 3.46599 15.02 3.69963 15.1615 3.93326L15.3502 4.16689L15.4446 3.88653C15.5389 3.6529 15.6804 3.55945 15.822 3.46599C16.105 3.32582 16.4352 3.32582 16.7182 3.46599C17.2371 3.69962 17.6145 4.21361 17.8976 4.63415L17.9919 4.77432L18.1334 4.68087C18.6051 4.30706 19.3127 4.21361 19.8788 4.44724C20.4449 4.68087 20.8694 5.19486 20.9638 5.8023L21.0109 6.03593L21.1996 5.89575C21.577 5.61539 22.1431 5.66212 22.4733 5.9892C22.8035 6.31628 22.8978 6.83027 22.662 7.25081L22.4733 7.57789L22.8507 7.48444C23.3224 7.34426 23.8413 7.53116 24.1715 7.90497C24.4545 8.27878 24.5489 8.83949 24.313 9.26003L24.1715 9.49366H24.4545C24.9734 9.44693 25.4923 9.77401 25.681 10.2413C25.8697 10.7085 25.7282 11.316 25.3508 11.6431L25.0206 11.9234H25.4452C25.6338 11.9234 25.7754 12.0169 25.9169 12.157C26.1056 12.3907 26.1527 12.7178 26.1056 12.9981C25.9641 13.5121 25.5395 13.8392 25.0206 14.2597L23.8413 15.1475L25.1621 14.4933H25.2093C25.2565 14.5401 25.3036 14.5868 25.3036 14.6335C25.3036 14.7737 25.2093 14.8672 25.1149 15.0073L23.4167 17.0633L23.6526 17.2502L25.3508 15.1942C25.4452 15.0541 25.6338 14.8672 25.6338 14.6335C25.6338 14.4933 25.5867 14.3532 25.4452 14.2597C25.8225 13.9326 26.2471 13.5588 26.3886 13.0448C26.4829 12.671 26.3886 12.2505 26.1527 11.9234C26.0584 11.7832 25.9169 11.6898 25.7282 11.5963C26.0584 11.1758 26.1527 10.5684 25.9169 10.0544C25.681 9.54038 25.2093 9.16657 24.596 9.11985C24.7376 8.60586 24.6432 8.04515 24.313 7.62461C23.9828 7.2508 23.4639 7.01717 22.945 7.0639C23.0865 6.59664 22.945 6.03593 22.5676 5.70884C22.1903 5.38176 21.577 5.28831 21.1053 5.52194C20.9166 4.9145 20.492 4.35379 19.8788 4.12016C19.2656 3.88653 18.5108 3.93325 17.9919 4.30706C17.6617 3.8398 17.3315 3.37254 16.7654 3.13891C16.388 2.99873 15.9635 2.99873 15.6333 3.13891C15.4446 3.23236 15.3031 3.32582 15.2087 3.46599C15.1144 3.32582 15.0672 3.18564 14.9729 3.04546C14.8785 2.90528 14.8313 2.7651 14.737 2.5782C14.5483 2.25112 14.2181 1.83058 13.6992 1.6904C13.4162 1.64368 13.086 1.73713 12.8973 1.92403C12.8501 1.97076 12.7557 2.06421 12.7086 2.11094C12.4727 1.6904 12.1897 1.3166 11.718 1.12969C11.4349 1.08297 11.0104 1.17642 10.6802 1.41005C10.5858 1.5035 10.4915 1.59695 10.4443 1.6904C10.2084 1.3166 9.83105 0.942788 9.35933 0.755883C8.98195 0.615705 8.5574 0.709157 8.22719 0.942788C8.08567 1.03624 7.99133 1.17642 7.94415 1.3166C7.47243 0.802609 6.85919 0.241897 6.10443 0.0549925C5.58553 -0.0851856 4.97229 0.0549926 4.54773 0.335349C4.31187 0.522253 4.12318 0.755884 4.07601 0.989514C3.36842 0.522253 2.56649 0.335349 1.81173 0.475527C0.868279 0.662431 0.113519 1.36332 0.0191743 2.25112C-0.122343 3.13891 0.538072 4.12016 1.38718 4.26034Z" transform="translate(5.03418 1.41541)" fill="black"/>
<path d="M5.37767 0.981247C3.67946 1.77559 1.50952 1.40178 0.235862 0.0467262L0.18869 0L-1.79949e-07 0.23363L0.0471725 0.280356C0.94345 1.16815 2.21711 1.72886 3.53794 1.72886C4.24552 1.72886 4.95311 1.58869 5.56636 1.30833L5.61353 1.2616L5.47201 0.981247H5.37767Z" transform="translate(6.56299 6.93726)" fill="black"/>
<path d="M8.49105 2.00922C6.36829 2.56993 4.00966 2.24285 2.16993 1.12143C1.98124 1.02797 1.83973 0.887795 1.65104 0.794343C1.17931 0.46726 0.707588 0.186905 0.141518 3.56492e-07H0.0943448L3.59898e-07 0.280356H0.0471721C0.56607 0.420534 1.03779 0.747617 1.46235 1.02797H1.50952C1.65104 1.12143 1.83973 1.2616 2.02842 1.35506C3.30208 2.1494 4.90594 2.56993 6.46263 2.56993C7.21739 2.56993 7.92498 2.47648 8.5854 2.28958H8.63257L8.53822 2.00922H8.49105Z" transform="translate(8.11963 10.068)" fill="black"/>
<path d="M0.141518 0L3.59898e-07 0.280356L0.0471721 0.327083C2.59449 1.63541 5.47201 2.3363 8.34953 2.3363C9.34016 2.3363 10.3779 2.24285 11.3686 2.10267H11.4157L11.3686 1.77559H11.3214C7.5476 2.42975 3.58511 1.82232 0.18869 0.0467262L0.141518 0Z" transform="translate(10.2424 14.4136)" fill="black"/>
<path d="M27.2717 33.1288H27.2245C26.6112 33.2689 26.2339 33.8764 25.998 34.3904L25.9508 34.4838C25.715 34.9511 25.4791 35.4183 25.1017 35.652C24.8659 35.7922 24.5357 35.7454 24.2998 35.6053C24.2054 35.5585 24.0639 35.4183 24.0639 35.2314V35.1847H23.7337V35.2314C23.7337 35.7454 23.262 36.2127 22.7431 36.2127H22.6959C22.2242 36.2127 21.7525 35.7922 21.6581 35.3249L21.611 34.9044L21.3751 35.2782C21.0921 35.7454 20.7619 36.2594 20.3373 36.5398C19.9599 36.8201 19.3467 36.9603 18.875 36.68C18.8278 36.6332 18.7806 36.5865 18.7334 36.5398C18.5447 36.3996 18.3089 36.2127 18.0258 36.2594C17.6956 36.3061 17.5541 36.6332 17.4598 36.8669V36.9136C17.4598 36.9603 17.4126 37.007 17.4126 37.0538C17.1767 37.4743 16.705 37.7079 16.2333 37.6612C15.7616 37.6145 15.3842 37.2407 15.2898 36.7734L15.1955 36.3529L15.0068 36.7267C14.8181 37.1005 14.3464 37.7546 13.6388 37.9416C13.0727 38.0817 12.3651 37.8481 12.1293 37.2874C12.1293 37.2407 12.1293 37.2407 12.0821 37.1939C12.0349 37.0538 11.9878 36.9603 11.8934 36.8201C11.516 36.3996 10.9028 36.8201 10.5254 37.1005C10.0065 37.4743 9.25176 37.5677 8.54418 37.3341C7.83659 37.1005 7.31769 36.5398 7.129 35.9323L7.03466 35.5118L6.84596 35.8389C6.70445 36.1192 6.42141 36.2127 6.23272 36.2127C5.80817 36.2594 5.28927 36.0725 4.95906 35.6987C4.62886 35.4183 4.44017 34.9978 4.25148 34.5773C4.10996 34.2502 3.92127 33.9231 3.73258 33.6428L3.63823 33.5026L3.49672 33.596C2.88348 33.9698 1.9872 33.8297 1.51547 33.2689C1.04375 32.7082 1.09092 31.8204 1.60982 31.3065L2.08154 30.8392L1.42113 31.0728C1.18526 31.1663 0.949402 31.1195 0.760712 30.9326C0.430505 30.699 0.241815 30.2785 0.288987 29.9047C0.33616 29.2505 0.807885 28.6898 1.37396 28.0824L1.51547 27.9422L1.37396 27.8487C1.13809 27.7085 1.04375 27.4749 1.04375 27.3347C0.996575 27.0077 1.09092 26.6338 1.27961 26.4002C1.65699 25.933 2.3174 25.6993 2.88347 25.5124L3.49672 25.2788L2.8363 25.0919C2.60044 25.0452 2.41175 24.905 2.3174 24.6714C2.17589 24.2975 2.22306 23.8303 2.41175 23.5499C2.8363 22.9892 3.54389 22.7556 4.29865 22.5687L5.38362 22.2883H4.25148C3.96844 22.2883 3.77975 22.008 3.77975 21.7276C3.77975 21.4005 3.96844 21.0735 4.15713 20.8865C4.86472 20.1389 5.99686 19.8118 6.98748 20.1857H7.03466L7.129 19.9053H7.08183C6.65728 19.7184 6.37424 19.2511 6.42141 18.7839C6.46859 18.3166 6.84596 17.8961 7.31769 17.8026C7.60073 17.7092 7.93093 17.7559 8.26114 17.8026C8.73287 17.8493 9.20459 17.8961 9.62914 17.6624L9.81783 17.569L9.62914 17.4288C9.48763 17.2886 9.39328 17.1017 9.39328 16.8681C9.39328 16.6345 9.44045 16.4476 9.58197 16.3074C9.86501 16.027 10.2896 15.9803 10.7141 15.9336C10.8085 15.9336 10.8556 15.9336 10.9028 15.9336C11.1858 15.8869 12.0821 15.7467 12.2236 14.9991V14.9523L12.2708 14.9056L12.2236 14.8589C11.8934 14.6253 11.4689 14.5318 11.0443 14.4851C10.6198 14.3916 10.1952 14.2982 9.86501 14.0645C9.62914 13.8309 9.48763 13.5038 9.58197 13.13C9.62914 12.7562 9.86501 12.4291 10.148 12.3357L10.4311 12.1955L10.1952 12.0553C9.81783 11.8217 9.44045 11.775 9.0159 11.7282C8.82721 11.6815 8.68569 11.6815 8.497 11.6348C8.02528 11.5413 7.45921 11.2143 7.50638 10.747C7.50638 10.233 8.1668 9.90592 8.73287 9.8592L8.92156 9.81247L8.82721 9.62557C8.63852 9.15831 8.11962 9.11158 7.6479 9.06485C7.55355 9.06485 7.45921 9.06485 7.41203 9.01813C6.84596 8.92467 6.37424 8.59759 6.23272 8.13033C6.13838 7.8967 6.18555 7.56962 6.32707 7.33599C6.46859 7.14909 6.6101 7.00891 6.79879 6.96218L7.03466 6.91546L6.89314 6.72855C6.65728 6.40147 6.32707 6.16784 5.99686 5.98093C5.85534 5.88748 5.71382 5.79403 5.61948 5.70058C5.33644 5.46695 4.86472 5.04641 4.86472 4.4857C4.86472 4.25207 5.05341 4.01844 5.28927 3.87826C5.38362 3.83154 5.57231 3.78481 5.761 3.92499L5.99686 4.11189L6.04403 3.83154C6.09121 3.36428 5.71383 3.08392 5.33645 2.85029C5.05341 2.66339 4.81755 2.52321 4.7232 2.28958C4.62886 2.10267 4.67603 1.86904 4.7232 1.63541C4.77037 1.2616 4.86472 0.841069 5.10058 0.513987C5.2421 0.373809 5.43079 0.280356 5.66665 0.280356C5.761 0.280356 5.90251 0.327082 5.99686 0.420534L6.04403 0.467261L6.2799 0.280356L6.23272 0.23363C6.09121 0.0934521 5.90251 0 5.66665 0C5.38362 0 5.05341 0.140178 4.86472 0.373809C4.53451 0.747617 4.44017 1.21488 4.39299 1.63541C4.34582 1.86904 4.29865 2.1494 4.44017 2.42975C4.58168 2.75684 4.91189 2.94374 5.19493 3.13065C5.43079 3.27082 5.61948 3.411 5.71383 3.55118C5.57231 3.50445 5.38362 3.55118 5.2421 3.64463C4.91189 3.78481 4.62886 4.15862 4.62886 4.4857C4.58169 5.13987 5.10058 5.65385 5.47796 5.93421C5.61948 6.02766 5.71382 6.12111 5.85534 6.21456C6.0912 6.40147 6.32707 6.54165 6.51576 6.72855C6.32707 6.822 6.18555 6.96218 6.04403 7.14909C5.85534 7.47617 5.80817 7.84998 5.90251 8.17706C6.09121 8.73777 6.65728 9.15831 7.31769 9.29848C7.41203 9.29848 7.50638 9.34521 7.60073 9.34521C7.88376 9.39194 8.21397 9.39194 8.40266 9.57884C7.78942 9.71902 7.17617 10.0928 7.17617 10.747C7.17617 11.4012 7.83659 11.8217 8.40266 11.9619C8.59135 12.0086 8.78004 12.0086 8.92156 12.0553C9.20459 12.102 9.48763 12.1488 9.72349 12.2422C9.44045 12.4291 9.29894 12.7562 9.20459 13.13C9.11025 13.5973 9.25176 14.0645 9.58197 14.3449C9.95935 14.672 10.4311 14.7654 10.9028 14.8589C11.233 14.9056 11.5632 14.9991 11.8463 15.1392C11.7047 15.4663 11.233 15.6532 10.8085 15.7C10.7613 15.7 10.7141 15.7 10.6669 15.7H10.6198C10.148 15.7467 9.62914 15.7934 9.29894 16.1672C9.11025 16.3541 9.0159 16.6812 9.0159 16.9616C9.0159 17.1952 9.11025 17.3821 9.20459 17.569C8.92156 17.6624 8.59135 17.6157 8.21397 17.569C7.88376 17.5223 7.50638 17.4755 7.129 17.569C6.56293 17.7092 6.09121 18.2232 5.99686 18.8306C5.94969 19.1577 6.09121 19.5315 6.2799 19.8586C5.33645 19.7651 4.39299 20.1389 3.77975 20.7931C3.44954 21.1202 3.30803 21.494 3.30803 21.8211C3.44954 21.9612 3.59106 22.2416 3.77975 22.4285C3.16651 22.6154 2.55327 22.849 2.12871 23.4097C1.84568 23.7836 1.79851 24.391 1.9872 24.8583C2.08154 25.0452 2.17589 25.1853 2.36458 25.3255C1.89285 25.5124 1.37395 25.7461 0.996575 26.2133C0.71354 26.5404 0.619195 27.0077 0.71354 27.4282C0.760712 27.6618 0.855057 27.8955 1.04375 28.0356C0.52485 28.5963 0.0531248 29.1571 0.00595233 29.9047C-0.0412202 30.3719 0.194642 30.8859 0.619195 31.213C0.807885 31.3532 0.996575 31.4466 1.18526 31.4466C0.807885 32.1008 0.855057 32.9419 1.32678 33.5026C1.84568 34.1567 2.8363 34.3436 3.54389 33.9698C3.68541 34.2035 3.82692 34.4838 3.96844 34.7642C4.15713 35.1847 4.39299 35.652 4.7232 36.0258C5.10058 36.4463 5.71383 36.68 6.2799 36.6332C6.56293 36.5865 6.75162 36.493 6.94031 36.3529C7.17617 36.9603 7.74224 37.4743 8.44983 37.7079C9.25176 37.9883 10.1009 37.8948 10.7141 37.4276C11.0915 37.1472 11.4689 36.9136 11.6576 37.1005C11.7047 37.1472 11.7519 37.2407 11.7519 37.3341C11.7519 37.3808 11.7519 37.4276 11.7991 37.4276C12.0349 38.035 12.6954 38.3621 13.2614 38.3621C13.4029 38.3621 13.5445 38.3621 13.686 38.3154C14.3464 38.1285 14.8181 37.6612 15.1012 37.2407C15.2898 37.6612 15.7144 37.9883 16.1861 38.035C16.7994 38.1285 17.4126 37.8014 17.6485 37.2874C17.6956 37.2407 17.6956 37.1939 17.7428 37.1005C17.8372 36.9136 17.9315 36.7267 18.073 36.68C18.2145 36.6332 18.3561 36.7734 18.4976 36.8669C18.5447 36.9136 18.6391 36.9603 18.6863 37.007C19.2523 37.3808 20.0071 37.1939 20.4788 36.8669C20.9034 36.5865 21.1864 36.166 21.4223 35.7922C21.6581 36.2594 22.1299 36.5865 22.6488 36.5865C22.6959 36.5865 22.6959 36.5865 22.7431 36.5865C23.2148 36.5398 23.6865 36.2127 23.8752 35.7922C23.9224 35.8389 24.0168 35.8856 24.0639 35.9323C24.3941 36.1192 24.8659 36.166 25.1961 35.9791C25.715 35.6987 25.9508 35.1847 26.1867 34.6707L26.2339 34.5773C26.4697 34.1567 26.7528 33.596 27.2717 33.5026H27.3188L27.2717 33.1288Z" transform="translate(0 5.76917)" fill="black"/>
<path d="M3.01012 5.70181C2.91577 5.74854 2.77425 5.74854 2.67991 5.79526C2.16101 5.98217 2.01949 6.54288 1.87798 7.05687C1.78363 7.43067 1.68929 7.75776 1.45342 8.03811C1.35908 8.13157 1.21756 8.22502 1.12322 8.31847C0.981697 8.41192 0.887352 8.45865 0.793007 8.5521C0.509972 8.83245 0.321283 9.25299 0.368456 9.72025C0.415628 10.1408 0.557146 10.5146 0.840181 10.7482L0.368456 12.0566C0.179766 12.6173 -0.10327 13.2714 0.0382477 13.9723C0.132593 14.3929 0.368455 14.7667 0.698663 15.0003C0.981698 15.1872 1.26473 15.2339 1.54777 15.1872C1.92515 15.0937 2.20818 14.8601 2.44404 14.5798C2.53839 14.4863 2.63274 14.3929 2.72708 14.3461C2.96294 14.1592 3.24598 14.0658 3.48184 14.0658C3.62336 14.0658 3.67053 14.1125 3.76488 14.206C3.81205 14.2527 3.85922 14.3461 3.85922 14.4863C3.85922 14.533 3.90639 14.6265 3.95357 14.7199C4.04791 15.0003 4.28377 15.1872 4.56681 15.2807C4.70832 15.3274 4.84984 15.3274 5.03853 15.3274C5.36874 15.3274 5.69895 15.2339 5.98198 15.0937C6.31219 14.9068 6.54805 14.6265 6.83109 14.3929C7.01978 14.206 7.25564 14.019 7.44433 13.8321C7.68019 14.019 8.0104 14.1592 8.34061 14.1592C8.71799 14.1592 9.09537 14.019 9.3784 13.7387C9.51992 13.5518 9.66144 13.3649 9.80296 13.1313C10.0388 12.7574 10.2747 12.3836 10.6049 12.4304C10.6992 12.4304 10.7464 12.4771 10.8408 12.4771C10.9351 12.5238 11.0294 12.5238 11.1238 12.5238H11.171C11.5012 12.5238 11.8785 12.3369 12.2088 11.5426C12.2559 11.5426 12.2559 11.5426 12.3031 11.5426C12.5861 11.5426 12.822 11.3557 12.9635 11.2155C13.3409 10.8417 13.8126 10.5613 14.2843 10.281C15.0391 9.8137 15.841 9.34644 16.2656 8.5521C16.6901 7.75776 16.643 6.77651 16.2184 5.79526C15.841 4.95419 15.2278 4.20658 14.6146 3.50568L14.5674 3.45896L14.3315 3.64586L14.3787 3.69259C14.9448 4.34675 15.558 5.04765 15.9354 5.88871C16.3128 6.77651 16.3599 7.71103 15.9826 8.41192C15.6052 9.15954 14.8976 9.58007 14.1428 10.0006C13.6711 10.281 13.1522 10.5613 12.7748 10.9351C12.5861 11.122 12.3974 11.1688 12.3503 11.1688C12.3031 11.1688 12.3031 11.1688 12.2559 11.122L12.0672 10.9351L11.9729 11.2155C11.8314 11.636 11.5483 12.15 11.171 12.15C11.171 12.15 11.171 12.15 11.1238 12.15C11.0294 12.15 10.9823 12.1033 10.8879 12.1033C10.7936 12.0566 10.6992 12.0566 10.6049 12.0566C10.0388 12.0098 9.75578 12.4771 9.47275 12.8976C9.33123 13.0845 9.23689 13.2714 9.09537 13.4583C8.90668 13.6452 8.62364 13.7854 8.29344 13.7854C7.96323 13.7854 7.68019 13.692 7.4915 13.4583L7.39716 13.3649L7.30281 13.4116C7.01978 13.5985 6.73674 13.8321 6.50088 14.0658C6.26502 14.2994 5.98198 14.533 5.69895 14.7199C5.36874 14.9068 4.89702 15.0003 4.56681 14.8601C4.42529 14.8134 4.2366 14.7199 4.14226 14.4863C4.09508 14.4396 4.09508 14.3461 4.09508 14.2994C4.04791 14.206 4.04791 14.0658 3.95357 13.9256C3.85922 13.7854 3.67053 13.6452 3.48184 13.6452C3.15163 13.5985 2.77425 13.7387 2.49122 13.9723C2.39687 14.0658 2.30253 14.1592 2.20818 14.2527C1.97232 14.4863 1.73646 14.7199 1.45342 14.7667C1.21756 14.8134 0.981698 14.7199 0.840181 14.6265C0.557146 14.4396 0.368455 14.1592 0.321283 13.8321C0.226938 13.2247 0.415627 12.6173 0.65149 12.0566L1.21756 10.5146L1.12322 10.4679C0.84018 10.281 0.698662 9.95388 0.65149 9.6268C0.604317 9.25299 0.745835 8.92591 0.981698 8.69228C1.07604 8.59883 1.17039 8.5521 1.26473 8.45865C1.40625 8.3652 1.54777 8.27174 1.64211 8.13156C1.92515 7.85121 2.01949 7.43067 2.16101 7.05687C2.30253 6.58961 2.39687 6.16907 2.82143 6.02889C2.91577 5.98217 3.01012 5.98217 3.10446 5.93544C3.34032 5.88871 3.57619 5.84199 3.7177 5.60836C3.85922 5.42145 3.81205 5.18782 3.81205 4.95419C3.81205 4.81402 3.76488 4.67384 3.81205 4.58038C3.85922 4.34675 4.09508 4.2533 4.37812 4.15985C4.61398 4.0664 4.84984 3.97295 5.03853 3.78604C5.18005 3.59914 5.2744 3.41223 5.32157 3.1786C5.36874 3.03842 5.41591 2.85152 5.51026 2.75807C5.74612 2.43099 6.17067 2.38426 6.59523 2.29081C6.83109 2.24408 7.01978 2.19736 7.25564 2.15063C7.77454 1.96373 8.15192 1.63664 8.57647 1.30956C8.81233 1.12266 9.0482 0.935753 9.28406 0.748849C10.0388 0.234862 11.0766 0.141409 11.9257 0.468491C12.7748 0.795574 13.4824 1.49647 13.7654 2.38426V2.43099L14.0485 2.33753V2.29081C13.7654 1.35629 12.9635 0.515218 12.0201 0.188136C11.0766 -0.138947 9.94447 -0.0454943 9.09537 0.515218C8.81233 0.702123 8.57647 0.889025 8.38778 1.07593C8.0104 1.40301 7.63302 1.73009 7.20847 1.87027C7.01978 1.917 6.83109 1.96372 6.59523 2.01045C6.1235 2.1039 5.6046 2.19736 5.27439 2.61789C5.18005 2.75807 5.13288 2.94497 5.03853 3.13188C4.99136 3.31878 4.94419 3.50569 4.80267 3.59914C4.66115 3.73932 4.47246 3.83277 4.2366 3.87949C3.90639 4.01967 3.57619 4.15985 3.48184 4.48693C3.43467 4.67384 3.43467 4.81401 3.48184 5.00092C3.52901 5.18782 3.52901 5.328 3.43467 5.42145C3.34032 5.65508 3.15163 5.65508 3.01012 5.70181Z" transform="translate(14.3555 22.0286)" fill="black"/>
<path d="M9.9534 0.186905L9.76471 0H9.71753C9.24581 0.467261 8.72691 0.934522 8.20801 1.35506L8.0665 1.40178V1.44851C7.92498 1.54196 7.83063 1.63541 7.68912 1.72886C7.17022 2.1494 6.55698 2.52321 6.03808 2.89702C5.75504 3.08392 5.42484 3.31755 5.1418 3.50445C3.30207 4.76606 1.60386 6.21457 0.0471721 7.84998L3.59898e-07 7.8967L0.235863 8.13033L0.283035 8.08361C1.69821 6.58837 3.30208 5.28004 4.95311 4.06517C5.00029 4.11189 5.00028 4.20534 5.00028 4.2988C4.90594 4.90623 4.67008 5.51367 4.38704 6.07439V6.12111C4.2927 6.30802 4.19835 6.49492 4.10401 6.72855C3.91532 7.24254 3.72663 7.75652 3.58511 8.22378L3.2549 9.25176L3.53794 9.34521L3.86815 8.31724C4.00966 7.84998 4.19835 7.33599 4.38704 6.86873C4.48139 6.68182 4.57573 6.49492 4.67008 6.26129C4.95311 5.65385 5.23615 5.04641 5.33049 4.39225C5.37767 4.20535 5.33049 4.01844 5.23615 3.92499C5.28332 3.87826 5.33049 3.87826 5.37766 3.83154C5.6607 3.64463 5.99091 3.411 6.27394 3.2241C6.84001 2.85029 7.40608 2.47648 7.92498 2.05595C8.01932 2.00922 8.0665 1.91577 8.16084 1.86904C8.20801 2.52321 8.01932 3.17737 7.83063 3.78481C7.40608 5.04641 6.84001 6.21456 6.13243 7.28926L6.08525 7.33599L6.36829 7.52289L6.41546 7.47617C7.17022 6.35474 7.73629 5.13987 8.16084 3.87826C8.3967 3.2241 8.58539 2.42975 8.49105 1.63541C8.96278 1.16815 9.48167 0.700891 9.9534 0.186905Z" transform="translate(18.0259 25.8613)" fill="black"/>
<path d="M-7.19795e-07 1.27438L0.141518 1.55474L0.18869 1.50801C1.55669 0.666942 3.16056 0.293135 4.76442 0.339862H4.81159V0.0127788H4.76442C3.11339 -0.0806733 1.41517 0.33986 -7.19795e-07 1.22766V1.27438Z" transform="translate(17.9788 28.8859)" fill="black"/>
<path d="M2.83035 0.327082C3.30207 0.280356 3.72663 0.327083 4.19835 0.373809L6.03808 0.560712L6.08525 0.23363L4.24552 0.0934517C3.7738 0.0467257 3.30207 -7.12983e-07 2.83035 -7.12983e-07C1.79255 0.0467253 0.754759 0.513986 0.0471718 1.2616L0 1.30833L0.235862 1.54196L0.283034 1.49523C0.943449 0.794343 1.8869 0.373808 2.83035 0.327082Z" transform="translate(20.29 26.1417)" fill="black"/>
<path d="M0.0471721 0.874547H3.59898e-07L0.0943448 1.1549H0.141518C2.4058 0.407286 4.8116 0.126931 7.17022 0.407287H7.21739L7.26456 0.0802042H7.21739C4.85877 -0.153426 2.35862 0.126931 0.0471721 0.874547Z" transform="translate(8.11963 25.1737)" fill="black"/>
<path d="M0.0471727 3.78481L0 3.83153L0.18869 4.11189L0.235863 4.06517C2.54732 2.56993 5.00029 1.30833 7.5476 0.280356H7.59477L7.50043 0H7.45325C4.85877 1.02797 2.35863 2.28958 0.0471727 3.78481Z" transform="translate(5.90259 32.8704)" fill="black"/>
<path d="M3.59898e-07 5.32677L0.141518 5.60713L0.188689 5.5604C2.68883 4.2988 4.90594 2.66339 6.84001 0.607439C6.88718 0.560713 7.0287 0.420535 7.0287 0.233631C7.0287 0.140179 6.98153 0.0934521 6.93436 0.0467261L6.88719 7.12983e-07L6.6985 0.233631L6.74567 0.280356C6.74567 0.327082 6.6985 0.373808 6.65132 0.420534C4.76442 2.42975 2.59449 4.06517 0.0943457 5.32677H3.59898e-07Z" transform="translate(29.1113 19.5066)" fill="black"/>
<path d="M1.43959e-06 2.89701L0.235864 3.13064L0.283036 3.08392C0.660416 2.66338 0.613243 2.05595 0.518898 1.54196C0.424553 1.02797 0.330207 0.560713 0.613242 0.233631L0.660414 0.186904L0.424551 7.12983e-07H0.330207C-0.0471725 0.467261 0.0943436 1.12142 0.188689 1.58869C0.283034 2.00922 0.330209 2.56993 1.43959e-06 2.89701Z" transform="translate(32.2249 19.0394)" fill="black"/>
<path d="M0.141516 7.12983e-07H0.0943443L7.19795e-07 0.280356H0.0471725C0.660415 0.467261 1.27366 0.560712 1.93407 0.560712C2.45297 0.560712 2.92469 0.513987 3.44359 0.373809H3.49077L3.39642 0.0934514H3.34925C2.26428 0.373808 1.13214 0.373809 0.141516 7.12983e-07Z" transform="translate(32.9795 23.0111)" fill="black"/>
<path d="M5.56636 2.42975C6.50981 2.94374 7.35891 3.64463 8.01933 4.53243L8.0665 4.57915L8.30236 4.39225L8.25519 4.34552C7.5476 3.45773 6.69849 2.71011 5.70787 2.19612C5.09463 1.86904 4.38704 1.58869 3.7738 1.35506L0.188691 7.12983e-07H0.141519L0 0.186906L3.63228 1.58869C4.2927 1.82232 4.95311 2.10267 5.56636 2.42975Z" transform="translate(40.1025 37.2625)" fill="black"/>
<path d="M9.52885 5.46695L9.81188 5.28004L9.76471 5.23332C7.21739 2.47648 3.7738 0.607439 0.0943457 7.12983e-07H0.0471739L-1.43959e-06 0.327082H0.0471739C3.67946 0.93452 7.07588 2.75684 9.52885 5.46695Z" transform="translate(37.3665 32.3563)" fill="black"/>
<path d="M2.736 0.471047C3.16056 0.5645 3.58511 0.704678 3.96249 0.79813H4.00966C4.15118 0.844856 4.33987 0.891582 4.48139 0.938308C4.85877 1.03176 5.23615 1.17194 5.61353 1.26539C6.93436 1.59247 8.30236 1.96628 9.19864 2.94753L9.24581 2.99425L9.48167 2.80735L9.4345 2.76062C8.49105 1.73265 7.07588 1.35884 5.6607 0.985033C5.28332 0.891581 4.90594 0.798129 4.52856 0.657951C4.33987 0.611225 4.19835 0.5645 4.00966 0.471047C3.63228 0.330869 3.16056 0.190691 2.736 0.0972393C1.83973 -0.0896649 0.896278 0.00378616 0.0471725 0.284142H7.19795e-07L0.0943443 0.5645H0.141516C1.03779 0.377596 1.8869 0.330869 2.736 0.471047Z" transform="translate(35.574 28.9882)" fill="black"/>
<path d="M1.13568 0H0.899815H0.852644V0.0467253C0.475264 2.19612 0.0507097 4.39225 0.00353722 6.6351C-0.0436353 9.1583 0.380919 11.3544 1.2772 13.1767L1.32437 13.2235L1.6074 13.0833L1.56023 13.0366C0.711126 11.261 0.286574 9.11158 0.333747 6.6351C0.380919 4.43897 0.80547 2.24285 1.18285 0.0934507L1.13568 0Z" transform="translate(34.0137 30.3003)" fill="black"/>
<path d="M0.454677 0.0934507L0.171643 0V0.0467253C-0.06422 0.747616 -0.017046 1.54196 0.077299 2.19612C0.407507 4.95296 1.20944 7.56962 2.4831 9.99938L2.53027 10.0461L2.8133 9.90592L2.76613 9.8592C1.49247 7.42944 0.690541 4.85951 0.360333 2.1494C0.265988 1.54196 0.218814 0.794344 0.454677 0.14018V0.0934507Z" transform="translate(39.0347 37.5428)" fill="black"/>
<path d="M2.14728 0.140179L1.86424 7.12983e-07L1.81707 0.0467261C0.0245167 3.55118 -0.494379 7.7098 0.496244 11.4946V11.5413L0.82645 11.4946V11.4479C-0.164173 7.7098 0.307551 3.64463 2.10011 0.233631L2.14728 0.140179Z" transform="translate(31.7285 29.7864)" fill="black"/>
<path d="M53.4936 13.0584C53.588 12.6846 53.3521 12.3108 53.0691 12.1706C53.0691 12.1706 53.0219 12.1706 53.0219 12.1239L53.5408 11.7501L53.4464 11.6099C53.1162 11.1894 52.6917 10.8156 52.1728 10.6287C52.3615 10.1614 52.2671 9.64744 52.0313 9.13346C51.7482 8.6662 51.3237 8.33911 50.852 8.19894C50.9463 7.54477 51.0406 6.89061 50.852 6.23644C50.7104 5.67573 50.2387 5.06829 49.5783 4.88139C49.8613 4.46085 49.9085 3.90014 49.6726 3.4796C49.484 3.15252 49.1066 2.87217 48.7292 2.77871C48.7764 2.68526 48.8707 2.54508 48.8707 2.45163C48.9651 2.0311 48.8235 1.51711 48.4933 1.28348C48.0216 0.956397 47.4555 1.04985 46.9838 1.23675V1.19003C46.9838 0.862945 46.8423 0.535863 46.6064 0.348959C46.229 0.0218762 45.6158 -0.0248499 45.0497 0.255506C44.8139 0.348959 44.578 0.535863 44.295 0.769493C44.2478 0.489137 44.0591 0.255506 43.8233 0.115328C43.4459 -0.0715759 43.0213 -0.0248499 42.5024 0.20878C42.0779 0.395685 41.6533 0.676041 41.3231 1.00312C41.2759 0.816219 41.1344 0.676041 40.9457 0.582589C40.5684 0.395685 40.191 0.489137 39.9079 0.582589C39.0117 0.862945 38.1626 1.47038 37.5965 2.218C37.5965 2.218 37.5965 2.218 37.5965 2.17127C37.455 1.79747 37.1248 1.47038 36.7474 1.37693C36.1813 1.23675 35.5681 1.42366 34.9077 1.93764C34.3888 2.45163 33.8227 2.96562 33.5868 3.57306C33.5396 3.4796 33.4925 3.43288 33.3981 3.33943C33.1151 3.01234 32.6905 2.82544 32.266 2.82544C31.5584 2.82544 30.8508 3.33943 30.4734 4.08704C30.2847 4.50758 30.1432 4.97484 30.0961 5.53555C30.0017 5.39537 29.9545 5.30192 29.8602 5.20847C29.5772 4.92811 29.0583 4.88139 28.7281 5.16174C28.5394 5.30192 28.4922 5.53555 28.4922 5.76918C28.3035 6.75043 28.2563 7.73167 28.3507 8.6662C28.0676 8.38584 27.6903 8.19893 27.3129 8.10548H27.0298L27.2657 11.7968L26.2751 11.3296V11.6099C26.3694 13.1519 26.8883 14.6004 27.7374 15.9087L27.7846 15.9555L28.0676 15.7686L28.0205 15.7218C27.2657 14.5537 26.794 13.1986 26.6525 11.8436L27.6431 12.3108L27.4072 8.52602C27.7846 8.66619 28.1148 8.94655 28.3978 9.27363L28.7281 9.74089L28.6337 9.18018C28.4922 8.10548 28.5394 6.98406 28.7281 5.90936C28.7752 5.76918 28.7752 5.58228 28.9167 5.48882C29.1054 5.30192 29.4356 5.39537 29.6243 5.53555C29.8602 5.72245 29.9545 6.04954 30.0489 6.32989L30.3319 7.17096V6.28317C30.3319 5.629 30.4263 4.92811 30.7565 4.27395C31.0867 3.61978 31.6999 3.19925 32.3132 3.19925C32.6434 3.19925 33.0208 3.33943 33.2566 3.61978C33.4453 3.80669 33.5396 3.99359 33.5396 4.22722C33.5396 4.27395 33.5396 4.32067 33.5396 4.3674V4.41413H33.8227V4.3674C33.8227 4.32067 33.8227 4.27395 33.8227 4.22722C33.8699 3.43288 34.6246 2.77871 35.0492 2.45163C35.6624 1.98437 36.1813 1.84419 36.653 1.93764C36.8889 1.93764 37.1248 2.17127 37.2663 2.49836C37.3134 2.59181 37.3134 2.73199 37.2663 2.87217C37.2191 2.96562 37.1719 3.01234 37.1248 3.1058L36.5587 4.27395L37.4078 3.2927C37.455 3.19925 37.5493 3.1058 37.5493 3.01234C38.0682 2.12455 38.9645 1.42366 39.9551 1.09658C40.3325 1.00312 40.5683 0.956397 40.757 1.09658C40.8514 1.1433 40.9457 1.28348 40.9929 1.42366C40.9929 1.47038 40.9929 1.51711 40.9929 1.56384C40.9929 1.61056 40.9457 1.61056 40.9457 1.65729L40.8986 1.70401L41.1344 1.89092L41.1816 1.84419C41.2288 1.79747 41.2288 1.75074 41.2759 1.75074C41.6533 1.33021 42.125 0.956397 42.6439 0.722767C42.927 0.582589 43.3515 0.442411 43.7289 0.629315C43.8704 0.722767 44.0119 0.862945 44.0119 1.04985C44.0119 1.09658 44.0119 1.23675 43.9648 1.33021L43.8704 1.42366L44.0591 1.65729L44.1063 1.61056C44.1535 1.61056 44.1535 1.56384 44.2006 1.51711C44.5308 1.19003 44.861 0.909671 45.2384 0.722767C45.663 0.535863 46.1819 0.535863 46.4649 0.769493C46.6536 0.909671 46.7479 1.1433 46.7479 1.33021C46.7479 1.47038 46.7008 1.56384 46.6536 1.65729C46.6064 1.70401 46.5593 1.70401 46.5593 1.75074L46.5121 1.79747L46.7008 2.0311L46.7479 1.98437C46.7951 1.93764 46.8423 1.89092 46.8895 1.89092C47.314 1.56384 47.9273 1.37693 48.399 1.65729C48.682 1.84419 48.7292 2.218 48.6348 2.49836C48.5877 2.59181 48.5405 2.82544 48.3046 2.91889C48.2575 2.91889 48.2103 2.91889 48.1631 2.96562H48.116L48.1631 3.24597H48.2103C48.2575 3.24597 48.3046 3.24597 48.3046 3.19925C48.7292 3.15252 49.2009 3.33943 49.3896 3.71323C49.6255 4.13377 49.484 4.69448 49.1537 4.97484L48.8235 5.25519H49.2481C49.8613 5.25519 50.3802 5.81591 50.5218 6.42335C50.7104 7.07751 50.6161 7.7784 50.4746 8.38584L50.4274 8.52602H50.5689C50.9935 8.57274 51.418 8.8531 51.6539 9.32036C51.8898 9.74089 51.9369 10.2549 51.7482 10.6754L51.6539 10.8156L51.7954 10.8623C52.22 11.0492 52.6445 11.3296 52.9747 11.7034L52.4086 12.1239C52.3615 12.1706 52.3143 12.1706 52.2671 12.2174L52.22 12.2641L52.4086 12.4977L52.5502 12.4043C52.6445 12.3576 52.786 12.4043 52.8332 12.451C53.0219 12.5445 53.1634 12.7781 53.1162 13.0117C53.0219 13.4323 52.503 13.6659 52.0784 13.7593L51.7011 13.8528L52.0784 14.0397C52.4558 14.2266 53.0691 14.6004 52.9275 15.0677C52.8804 15.2078 52.786 15.3013 52.6917 15.4415C52.1256 16.0956 51.5124 16.6564 50.8048 17.1703L50.5218 17.3572L50.852 17.4507C51.0406 17.4974 51.1822 17.6376 51.2293 17.8712C51.3237 18.1983 51.2765 18.5254 51.0878 18.8057C50.7576 19.273 50.1915 19.4599 49.5311 19.6468L49.2009 19.7403L49.484 19.9272C49.6726 20.0674 49.767 20.2543 49.767 20.4412C49.8142 20.7682 49.7198 21.0953 49.484 21.329C49.1066 21.7495 48.4462 21.9364 47.8801 22.0766L47.6442 22.1233L47.8329 22.3102C48.0216 22.4971 48.0216 22.7307 48.0216 22.9176C47.9744 23.2447 47.7857 23.5718 47.5027 23.7587C46.9838 24.1325 46.229 24.1325 45.663 24.1325H45.3799L45.5215 24.3661C45.7102 24.6465 45.663 24.9736 45.6158 25.2072C45.5215 25.581 45.2384 25.9548 44.9082 26.1417C44.3893 26.4688 43.6346 26.5155 42.7383 26.3286L42.4081 26.2819L42.5496 26.5623C42.6439 26.7492 42.6439 26.9828 42.5024 27.1697C42.3137 27.4501 41.9364 27.6837 41.6061 27.6837C40.9929 27.6837 40.4268 27.2632 39.9079 26.8426L39.5777 26.5623L39.6249 26.9828C39.6721 27.1697 39.5777 27.3566 39.4834 27.4501C39.2947 27.637 39.0117 27.7772 38.7758 27.7304C38.2569 27.6837 37.8323 27.3566 37.455 27.0763L31.6999 22.6373L31.6527 22.5906L31.4641 22.8242L34.5303 25.1138C34.2472 25.067 33.9642 25.067 33.7283 25.1138L32.9736 25.1605C32.5019 25.2072 31.8886 25.2539 31.4169 25.581C31.3697 25.6278 31.3697 25.6278 31.3225 25.6745C31.2282 25.7679 31.1339 25.8614 30.9923 25.8614C30.898 25.8614 30.8508 25.8614 30.7565 25.8147C30.7093 25.8147 30.6621 25.7679 30.5678 25.7679C29.9074 25.6745 29.4828 26.1885 29.0583 26.6557C28.9639 26.7492 28.8696 26.8426 28.8224 26.9361C28.2092 27.5435 27.3129 27.9173 26.4638 27.8706C27.6431 27.5902 28.6337 26.7025 29.53 25.7679L29.6715 25.6278L29.3413 25.3941C29.7659 25.2539 30.1904 25.067 30.4734 24.6932C30.7093 24.4129 30.7565 24.0391 30.7093 23.712C30.6621 23.5251 30.5678 23.3849 30.4734 23.2915C30.9923 22.9644 31.5584 22.5438 31.7943 21.9831C31.983 21.6093 31.983 21.0953 31.7943 20.6748C31.7471 20.6281 31.7471 20.5813 31.6999 20.5346C35.2379 17.1236 38.7286 14.2733 42.3137 11.8903C42.4081 11.7968 42.5496 11.7501 42.6439 11.6567L42.7383 11.6099C44.3422 10.5352 45.946 9.46054 46.9366 7.82513L46.9838 7.7784L46.7008 7.63822L46.6536 7.68495C45.7102 9.27363 44.1063 10.3483 42.5496 11.3763C42.4552 11.4698 42.3137 11.5165 42.2194 11.6099L42.1722 11.6567C38.5399 14.0864 35.0963 16.89 31.5112 20.3477C31.4641 20.301 31.4169 20.2543 31.3225 20.2075C31.8886 19.5066 32.3132 18.6656 32.549 17.7778C32.6434 17.404 32.6434 16.9367 32.5019 16.5629L32.7377 16.5162V16.4694C32.549 15.0677 32.8321 13.5724 33.1623 12.2174C33.351 11.423 33.5868 10.4885 34.0114 9.64744C34.2001 9.27363 34.4359 8.94655 34.6246 8.57274C34.7661 8.33911 34.9076 8.15221 35.0492 7.91858C35.4737 7.17096 35.8039 6.37662 36.087 5.53555V5.48882L35.8039 5.39537V5.4421C35.5681 6.23644 35.2379 7.03078 34.8133 7.73167C34.6718 7.9653 34.5774 8.15221 34.3888 8.38584C34.1529 8.75965 33.917 9.08673 33.7283 9.46054C33.3038 10.3016 33.0679 11.2829 32.8792 12.0772C32.549 13.4323 32.3132 14.8808 32.4547 16.3293C32.3603 16.1891 32.266 16.0956 32.1245 16.0489C31.8414 15.9087 31.5112 16.0022 31.2754 16.0489C30.615 16.2358 30.0017 16.5162 29.4828 16.9367C29.1054 16.3293 28.3978 15.9555 27.7374 16.0022C27.077 16.0489 26.4166 16.4694 26.1336 17.0769C25.8034 16.7498 25.2373 16.6563 24.8127 16.7965C24.341 16.9367 24.0108 17.3572 23.9165 17.8245C23.5863 17.6376 23.1617 17.5909 22.7371 17.6843C22.2182 17.7778 21.8409 18.1049 21.605 18.4787L21.5578 18.5254C20.9918 19.0394 20.6616 19.7403 20.5672 20.4879V20.5346L18.9633 19.4599C20.5672 16.0489 20.4257 11.9837 18.6331 8.6662L18.586 8.61947L18.3029 8.75965L18.3501 8.80637C20.0955 11.9837 20.237 15.9555 18.7275 19.273L16.2745 17.3572V17.3105C16.133 13.993 15.2839 10.6287 13.8215 7.63822C13.5857 7.17096 13.3498 6.65698 12.9253 6.28317L12.8781 6.23644L12.6894 6.47007L12.7366 6.5168C13.114 6.84388 13.3498 7.31114 13.5385 7.7784C14.9537 10.6754 15.7556 13.8995 15.9443 17.1236L13.114 14.9275C12.9724 14.834 12.8309 14.6939 12.6894 14.6004H12.8309V14.5537V14.507C12.1233 10.909 10.2836 7.49804 7.64195 4.92811L7.59477 4.88139L7.35891 5.11502L7.40608 5.16174C10.0006 7.63822 11.7931 10.9558 12.5007 14.4602C11.8875 13.993 11.2271 13.4323 10.6138 12.9183C9.57602 11.9837 8.53822 11.0025 7.5476 10.0213C5.33049 7.82513 3.06621 5.58228 0.18869 4.22722L0.141518 4.18049L8.99744e-08 4.46085L0.094345 4.50758C2.9247 5.81591 5.18897 8.05876 7.35891 10.2549C8.34953 11.2361 9.38733 12.2641 10.4251 13.1519C11.2271 13.8528 12.1233 14.5537 12.9724 15.2078L17.6425 18.8525C15.3311 19.2263 12.9253 19.4132 10.6138 19.5534C8.86843 19.6935 7.17022 19.6935 5.89656 18.8057L5.84939 18.759L5.6607 18.9927L5.70787 19.0394C6.55698 19.6468 7.59477 19.9272 9.10429 19.9272C9.62319 19.9272 10.1893 19.8804 10.661 19.8804C13.0668 19.6935 15.5669 19.5534 17.9727 19.1328H18.0199L18.6331 19.6001C18.6331 19.6468 18.586 19.6935 18.586 19.7403H18.4916L18.7747 19.8804L18.8218 19.8337C18.8218 19.8337 18.8218 19.787 18.869 19.787L20.4257 21.0019C20.4257 21.4224 20.52 21.8429 20.6144 22.2168L21.0861 24.5063V24.5531L21.3691 24.5063L20.8974 22.17C20.8031 21.656 20.7087 21.1421 20.7087 20.6281C20.7559 19.9739 21.0861 19.3197 21.5578 18.8525L21.605 18.8057H21.6522L21.6994 18.759C21.888 18.4319 22.2182 18.1516 22.6428 18.0581C23.0674 17.9647 23.4919 18.0114 23.7749 18.245L24.0108 18.4319V18.1049C24.0108 17.6843 24.341 17.2638 24.7184 17.1236C25.1429 16.9834 25.6147 17.1703 25.8505 17.4974L26.0392 17.731L26.1336 17.4507C26.3223 16.8433 26.9355 16.4227 27.5959 16.376C28.2563 16.3293 28.8696 16.7031 29.1526 17.3105L29.247 17.4974L29.3885 17.3572C29.9074 16.9367 30.5678 16.6096 31.2282 16.4227C31.4169 16.376 31.6999 16.3293 31.8886 16.4227C32.3132 16.6096 32.3132 17.2171 32.1716 17.6843C31.9358 18.5721 31.5112 19.4132 30.898 20.1141L30.7565 20.3477L30.9923 20.3944C31.2754 20.4412 31.4169 20.6748 31.5112 20.815C31.6527 21.1421 31.6527 21.5159 31.5112 21.8429C31.2282 22.4504 30.615 22.8242 30.0961 23.1513L29.8602 23.2915L30.0961 23.4316C30.2847 23.5251 30.3319 23.6653 30.3791 23.8054C30.4263 24.0391 30.3791 24.3194 30.1904 24.5531C29.9074 24.9269 29.3413 25.067 28.9167 25.2072L28.6337 25.3007L29.1526 25.7212C28.162 26.7025 26.9827 27.7772 25.5675 27.7304C24.4825 27.6837 23.5863 27.0295 22.5956 26.2352L22.5485 26.1885L22.3598 26.4221L22.4069 26.4688C23.2089 27.123 24.2938 27.9641 25.5675 28.0108C25.6147 28.0108 25.6618 28.0108 25.6618 28.0108C25.7562 28.0108 25.8977 28.0108 25.9921 27.9641L25.9449 28.1977H25.9921C26.1807 28.2444 26.3223 28.2444 26.5109 28.2444L26.2751 28.3846L28.8696 31.889C29.5772 32.8236 30.2376 33.7581 30.8508 34.7861C31.2754 35.5337 31.6527 36.2813 32.0301 37.0289V37.0756C32.3132 37.6363 32.5962 38.2438 32.9264 38.8512C34.0585 40.9072 35.5209 42.7295 36.8889 44.5518C37.2663 45.0191 37.6437 45.5331 38.0682 46.047C38.1154 46.0938 38.1626 46.1872 38.1626 46.2339V46.2807V46.2339L37.9267 46.3274V46.3741C37.9739 46.4676 38.0682 46.561 38.1626 46.561C38.2569 46.561 38.3984 46.4676 38.4456 46.3274C38.4928 46.1405 38.3512 46.0003 38.3041 45.9069C37.9267 45.3929 37.5021 44.8322 37.1248 44.3649C35.7096 42.5893 34.2944 40.7203 33.1623 38.711C32.8321 38.1036 32.549 37.4962 32.266 36.9355C31.8886 36.1878 31.5112 35.3935 31.0867 34.6459C30.4734 33.6179 29.7659 32.6367 29.0583 31.7021L26.5109 28.2444V28.1977C27.4072 28.1977 28.3507 27.8239 28.9639 27.1697C29.0583 27.0763 29.1526 26.9828 29.247 26.8894C29.6243 26.4688 30.0017 26.0483 30.4734 26.1417C30.5206 26.1417 30.5678 26.1417 30.615 26.1885C30.7093 26.2352 30.8508 26.2352 30.9923 26.2352C31.181 26.1885 31.3225 26.095 31.4641 25.9548L31.4169 25.9081L31.4641 25.9548C31.5112 25.9081 31.5112 25.9081 31.5584 25.8614C31.8886 25.581 32.4075 25.5343 32.9264 25.4876L33.6812 25.4408C34.0114 25.4408 34.3888 25.3941 34.6718 25.5343C34.9077 25.6278 35.0492 25.7679 35.2379 25.9081C35.3322 26.0016 35.4737 26.095 35.6152 26.1885C35.7568 26.2819 35.8983 26.3286 35.9926 26.3754C36.1813 26.4688 36.37 26.5623 36.5115 26.7025C36.7002 26.8894 36.8417 27.2164 36.7002 27.4033L36.4643 27.6837L36.8417 27.637C37.2191 27.5902 37.6437 27.7772 37.9267 28.151C38.2097 28.5248 38.2569 28.992 38.1154 29.3658L38.021 29.5995H38.2569C38.6814 29.5995 39.106 29.8798 39.2947 30.3471C39.5306 30.8143 39.5306 31.2816 39.2475 31.6087L39.106 31.7956L39.3419 31.8423C39.8136 31.9358 40.2381 32.2629 40.4268 32.7768C40.6627 33.2908 40.6155 33.8048 40.3325 34.2253L40.2381 34.4123L40.4268 34.459C40.8514 34.5992 41.2288 34.9262 41.4175 35.3935C41.6061 35.8608 41.6533 36.328 41.4175 36.7486L41.3231 36.9355L41.5118 36.9822C41.9835 37.0756 42.4081 37.4962 42.5024 37.9634C42.5968 38.4307 42.3609 38.9914 41.9835 39.2718L41.7005 39.4587L41.9835 39.5521C42.5024 39.6923 42.8798 40.1596 42.927 40.7203C42.9742 41.2343 42.6911 41.795 42.2194 42.0286L41.8892 42.2155L42.2194 42.309C42.4553 42.4024 42.6439 42.5893 42.7383 42.8697C42.8326 43.15 42.7855 43.4304 42.6439 43.664C42.5968 43.7575 42.5024 43.8042 42.4553 43.8976C42.2666 44.0845 42.0779 44.2714 42.0779 44.5518C42.0779 44.7854 42.1722 44.9723 42.2666 45.1592C42.3137 45.206 42.3137 45.2527 42.3609 45.2994C42.5024 45.6265 42.4553 46.047 42.2194 46.4208C41.9835 46.7947 41.559 46.9816 41.2288 46.9348L40.9929 46.8881L41.0872 47.1217C41.4175 47.9161 41.1816 48.944 40.5212 49.5048C39.8608 50.0655 38.823 50.1589 38.0682 49.7384L37.9267 49.6449L37.8323 49.7851C37.5965 50.2991 36.8889 50.486 36.37 50.3926C35.7568 50.2524 35.2379 49.8786 34.7661 49.5048L34.5774 49.3646L34.3416 50.486C33.4925 50.2524 32.7377 49.6449 32.266 48.8973L31.983 48.3833V48.9441C31.983 49.0375 31.9358 49.131 31.8414 49.2244C31.6999 49.3179 31.5112 49.3646 31.3225 49.3179C30.9923 49.2244 30.7093 48.8973 30.5206 48.617C30.4734 48.5702 30.4734 48.5235 30.4263 48.4768C30.2376 48.1964 30.0489 47.9161 29.7187 47.6824L29.53 47.5423L29.4828 47.7759C29.4356 47.8694 29.3885 47.9628 29.3413 47.9628C29.1998 48.0095 29.0583 48.0563 28.9167 48.0095C28.6337 47.9161 28.445 47.6824 28.2563 47.4488C27.8318 46.8414 27.5487 46.1872 27.3601 45.4863H27.4544L27.2657 45.6265C26.794 46.0003 26.0392 45.7667 25.6618 45.3461C25.2373 44.8789 25.0958 44.178 24.9543 43.5706L24.8599 43.15L24.6712 43.5238C24.5769 43.7107 24.341 43.8509 24.058 43.8976C23.6806 43.9444 23.256 43.8042 22.973 43.4771C22.5485 42.9631 22.4541 42.2622 22.4069 41.5613C22.4069 41.5146 22.4069 41.4679 22.4069 41.4212V41.3744L22.1239 41.4212V41.5613C22.1239 41.6081 22.0767 41.6548 22.0296 41.6548C21.9352 41.7482 21.7937 41.7482 21.6994 41.7015C21.5107 41.6081 21.4163 41.4212 21.322 41.0941C21.2276 40.5801 21.1805 40.0194 21.322 39.5054L21.3691 39.225L21.0861 39.3185C20.8502 39.4119 20.52 39.4119 20.1898 39.3185C20.3785 38.3372 20.7559 37.356 21.0861 36.4215L22.3598 33.1039C22.6428 32.4498 22.8787 31.7489 23.3504 31.1882C23.6334 30.8611 24.0108 30.5807 24.3882 30.3004C25.0014 29.8331 25.6147 29.3658 25.8977 28.6182V28.5715L25.6147 28.478V28.5248C25.3788 29.1789 24.8127 29.5995 24.1995 30.0667C23.8221 30.3471 23.4447 30.6274 23.1617 31.0012C22.6428 31.6087 22.3598 32.3563 22.1239 33.0105L20.8502 36.328C20.4729 37.3093 20.0483 38.3372 19.9068 39.4119V39.5521L20.0483 39.5988C20.3785 39.6923 20.7087 39.739 21.0389 39.6923C20.9446 40.2063 20.9918 40.7203 21.0861 41.1875C21.1805 41.6081 21.3691 41.8884 21.6522 42.0286C21.8409 42.122 22.0296 42.0753 22.2183 41.9819C22.2654 42.5426 22.4069 43.2435 22.8315 43.7107C23.1617 44.0845 23.6806 44.2715 24.1995 44.2247C24.4354 44.178 24.6712 44.0845 24.8127 43.9444C24.9543 44.5051 25.1429 45.1125 25.5203 45.5331C25.9449 46.0003 26.7468 46.3274 27.3601 46.0003C27.5487 46.6545 27.8789 47.2619 28.2563 47.8226C28.445 48.103 28.6809 48.3833 29.0583 48.5235C29.2941 48.5702 29.53 48.5702 29.7187 48.4768C29.813 48.4301 29.8602 48.3833 29.9545 48.2899C30.1432 48.4768 30.2847 48.6637 30.4263 48.8973C30.4734 48.9441 30.5206 48.9908 30.5206 49.0375C30.7565 49.3646 31.0395 49.7384 31.5112 49.8318C31.7943 49.8786 32.0773 49.8318 32.3132 49.6449C32.3603 49.5982 32.4547 49.5515 32.4547 49.458C33.0207 50.2057 33.7755 50.7196 34.6718 50.9533L34.8133 51L35.0492 50.0187C35.5209 50.3458 35.9926 50.7196 36.6059 50.8131C37.2191 50.9533 37.9739 50.7664 38.3512 50.2057C39.2003 50.6262 40.2853 50.486 41.0401 49.8786C41.7477 49.2711 42.0307 48.2432 41.7477 47.3554C42.1722 47.3086 42.5496 47.075 42.7855 46.7012C43.1157 46.2339 43.1628 45.72 42.9741 45.2527C42.927 45.206 42.927 45.1125 42.8798 45.0658C42.7855 44.9256 42.7383 44.7854 42.7383 44.6453C42.7383 44.4584 42.8798 44.3182 43.0213 44.178C43.1157 44.0845 43.21 43.9911 43.2572 43.8976C43.4459 43.6173 43.5402 43.1968 43.3987 42.8229C43.3044 42.5426 43.1628 42.309 42.927 42.1688C43.3515 41.795 43.5874 41.2343 43.5402 40.7203C43.493 40.1596 43.1157 39.6456 42.5968 39.4119C42.9741 39.0381 43.1628 38.4774 43.0213 37.9634C42.927 37.4494 42.5024 36.9355 41.9835 36.7953C42.125 36.328 42.125 35.814 41.8892 35.3468C41.6533 34.8795 41.3231 34.5057 40.8514 34.3188C41.0872 33.8515 41.0872 33.2908 40.8514 32.7301C40.6155 32.2161 40.2381 31.7956 39.7192 31.6554C39.9551 31.2349 39.9079 30.7209 39.6721 30.2536C39.4362 29.7864 39.0117 29.4593 38.5399 29.3658C38.6343 28.9453 38.5399 28.478 38.2569 28.0575C37.9739 27.6837 37.5493 27.4501 37.1248 27.4033C37.1248 27.3099 37.1248 27.2164 37.1248 27.123L37.3606 27.2632C37.7852 27.5435 38.2569 27.9641 38.8701 27.9641H38.9173C39.2475 27.9641 39.6249 27.8239 39.8136 27.5902C39.9079 27.4968 40.0023 27.3566 40.0495 27.2164C40.5212 27.5902 41.0872 27.9641 41.7477 27.9641C42.1722 27.9641 42.6439 27.6837 42.8798 27.3099C43.0213 27.0763 43.0685 26.8894 43.0213 26.6557C43.9176 26.7959 44.6252 26.7025 45.1441 26.3754C45.5686 26.1417 45.8988 25.7212 45.9932 25.2539C46.0875 24.9736 46.0875 24.6932 45.9932 24.4129C46.5593 24.4129 47.2197 24.3194 47.7857 23.9923C48.1631 23.7587 48.399 23.3382 48.4462 22.9176C48.4933 22.684 48.4462 22.4504 48.3518 22.2635C48.8707 22.1233 49.484 21.9364 49.8613 21.4691C50.1444 21.1888 50.2859 20.7215 50.2387 20.3477C50.1915 20.1608 50.1444 19.9739 50.0029 19.8337C50.5689 19.6468 51.135 19.4132 51.4652 18.9459C51.7011 18.6188 51.7954 18.1516 51.6539 17.731C51.5595 17.5441 51.4652 17.3572 51.3237 17.2638C51.9841 16.7965 52.5502 16.2358 53.0691 15.6284C53.2106 15.4882 53.3049 15.348 53.3521 15.1144C53.4464 14.6939 53.2106 14.2733 52.6445 13.8995C53.0691 13.7126 53.3993 13.4323 53.4936 13.0584Z" transform="translate(7.45923)" fill="black"/>
<path d="M5.18897 0.23363L5.23615 0.186904L4.95311 1.78246e-07L4.90594 0.046726C2.87752 3.13065 0.566069 6.6351 -1.43959e-06 10.5601V10.6068L0.330208 10.6535V10.6068C0.896278 6.72855 3.20773 3.27082 5.18897 0.23363Z" transform="translate(44.2065 4.64771)" fill="black"/>
<path d="M0.0471725 3.38261H7.19795e-07V3.70969H0.0471725C2.83035 3.61624 5.56635 3.1957 8.58539 2.77517C11.0855 2.40136 13.3026 1.98082 15.0009 0.532317C15.1895 0.392139 15.2367 0.251961 15.1424 0.111783C15.0952 0.0183312 15.0009 -0.0283952 14.9065 0.0183309C14.8122 0.0183309 14.7178 0.111783 14.7178 0.251961C14.7178 0.298687 14.7178 0.345413 14.765 0.392139C13.1611 1.74719 10.9912 2.16773 8.53822 2.54154C5.51918 2.91535 2.78318 3.28915 0.0471725 3.38261Z" transform="translate(42.1782 14.6288)" fill="black"/>
<path d="M0.141516 0.70089H0.0943443L7.19795e-07 0.981247H0.0471725C2.31145 1.54196 4.71725 1.82232 7.12305 1.82232C10.378 1.82232 13.5385 1.30833 16.5104 0.280357H16.5575L16.4632 -7.12983e-07H16.416C11.2271 1.77559 5.47201 2.00922 0.141516 0.70089Z" transform="translate(39.8196 19.3665)" fill="black"/>
</svg>
