<svg width="75" height="60" viewBox="0 0 75 60" fill="none" xmlns="http://www.w3.org/2000/svg">
<path d="M1.68224 3.41686C3.92523 3.41686 3.92523 5.21371e-07 1.68224 5.21371e-07C-0.560747 5.21371e-07 -0.560747 3.41686 1.68224 3.41686Z" transform="translate(23.4812 18.7928)" fill="#6B99C3"/>
<path d="M19.4147 5.29395C16.8913 3.31218 14.2979 0.783702 11.0035 0.305342C9.81191 -0.0363436 8.69041 -0.10468 7.49882 0.168669C6.30724 0.237006 5.25584 0.578691 4.27453 1.19373C2.4521 2.21878 0.69976 4.2689 0.279199 6.31901C-0.211455 8.5058 -0.141362 10.9659 1.19041 12.8794C2.31191 14.6561 4.20443 16.5012 6.44742 16.7746C6.79789 16.8429 7.14836 16.9113 7.49882 17.0479C6.79789 16.7746 6.09696 16.5012 5.39602 16.1596C5.88668 16.4329 6.37733 16.7063 6.79789 17.0479C6.23714 16.5696 5.6063 16.1596 5.04555 15.6812C5.74649 16.2279 6.37733 16.7746 7.07827 17.3213C7.84929 18.1413 8.8306 18.7564 9.882 19.0981C10.9334 19.6448 12.0549 19.8498 13.2465 19.8498C15.4194 19.8498 17.9428 18.893 19.4147 17.3213C20.9568 15.6812 22.0783 13.5627 22.0082 11.3076C21.9381 9.18917 21.2371 6.6607 19.4147 5.29395Z" transform="translate(15.1414 11.7221)" fill="#5187BD"/>
<path d="M11.7056 0.907687C11.6355 0.907687 11.5654 0.83935 11.4953 0.83935C12.757 1.59106 14.0888 2.27443 15.3505 3.02614C15.2804 2.9578 15.2103 2.88946 15.2103 2.82113C16.0514 4.8029 16.8925 6.85302 17.8037 8.83479C17.8037 8.76646 17.8037 8.69812 17.8037 8.56145C17.5935 5.48628 16.2617 2.75279 13.4579 1.18104C10.8645 -0.254044 7.14953 -0.527393 4.62617 1.18104C1.89252 2.9578 0 5.62295 0 8.90313C0 11.8416 1.26168 13.6184 2.94393 15.7368C2.45327 15.1901 2.03271 14.5751 1.54206 14.0284C1.61215 14.0968 1.68224 14.2334 1.75234 14.3018C1.47196 13.6184 1.19159 12.935 0.841122 12.2516C0.911216 12.3883 0.911215 12.4567 0.981308 12.5933C0.911215 11.8416 0.771028 11.0899 0.700935 10.3382C0.700935 10.4065 0.700935 10.5432 0.700935 10.6116C0.771028 9.85985 0.911215 9.10814 0.981308 8.35643C0.630841 10.2699 0.420561 11.5683 0.981308 13.4817C1.40187 15.0535 1.96262 15.8052 2.87383 16.9669C4.76636 19.2904 7.71028 21.2038 10.9346 20.9305C10.1636 20.8621 9.39252 20.7255 8.6215 20.6571C8.69159 20.6571 8.76168 20.7255 8.83178 20.7255C7.57009 19.9737 6.23832 19.2904 4.97663 18.5387C5.04673 18.607 5.04673 18.607 5.11682 18.6753C4.62617 18.1286 4.20561 17.5136 3.71495 16.9669C4.55607 18.5387 5.67757 19.9054 7.28972 20.8621C9.18225 21.9555 11.0047 21.9555 13.0374 22.1605C12.2664 22.0922 11.4953 21.9555 10.7243 21.8872C10.9346 21.9555 11.215 22.0239 11.4252 22.0922C10.7243 21.8188 10.0234 21.5455 9.32243 21.2038C9.39252 21.2722 9.53271 21.3405 9.60281 21.4088C9.04206 20.9305 8.41122 20.5204 7.85047 20.0421C8.06075 20.1788 8.20094 20.3154 8.41122 20.5204C7.92056 19.9737 7.5 19.3587 7.00935 18.812C7.14953 19.017 7.28972 19.1537 7.35981 19.427C9.46262 23.3906 15.4907 24.894 19.3458 22.5022C23.4813 19.9054 24.743 15.0535 22.5 10.8166C20.4673 6.92135 16.1916 5.14459 11.9159 5.14459C13.3879 5.55461 14.8598 5.8963 16.3318 6.30632C16.2617 6.23798 16.1916 6.23798 16.1215 6.16965C17.1729 7.1947 18.2243 8.21976 19.2757 9.24482C18.5748 8.2881 18.5047 7.67306 17.3832 6.64801C15.6308 5.00791 13.1075 3.84618 10.6542 4.05119C12.1262 4.46122 13.5981 4.8029 15.0701 5.21293C14.9299 5.14459 14.8598 5.07625 14.7196 5.07625C15.2804 5.55461 15.9112 5.96463 16.472 6.44299C16.2617 6.30632 16.1215 6.16965 15.9112 5.96463C16.4019 6.51133 16.8224 7.12637 17.3131 7.67306C17.1729 7.53639 17.0327 7.33138 16.9626 7.12637C17.3832 8.56145 17.7336 9.99653 18.1542 11.4316C18.1542 11.2949 18.1542 11.2266 18.1542 11.0899C18.0841 11.8416 17.9439 12.5933 17.8738 13.345C18.1542 11.4999 18.5047 9.92819 17.8738 8.15142C17.3131 6.30632 16.3318 5.14459 15.1402 3.64117C15.6308 4.18787 16.0514 4.8029 16.5421 5.3496C16.472 5.28126 16.472 5.21293 16.4019 5.07625C16.8224 6.51133 17.1729 7.94641 17.5935 9.38149C17.5935 9.31315 17.5935 9.17648 17.5935 9.10814C17.5234 9.85985 17.3832 10.6116 17.3131 11.3633C17.3131 11.2949 17.3832 11.2266 17.3832 11.1583C16.0514 12.8667 14.7196 14.5751 13.3879 16.2835C13.4579 16.2152 13.528 16.2152 13.5981 16.1469C9.18225 13.6867 4.83645 11.2266 0.420561 8.76646C0.700935 12.8667 3.01402 16.4202 7.28972 17.5136C11.7056 18.607 17.0327 16.1469 18.0841 11.5683C18.8551 6.98969 16.472 2.06942 11.7056 0.907687Z" transform="translate(18.2244 11.9396)" fill="#5187BD"/>
<path d="M6.93671 1.1019C6.23577 1.44358 5.67503 1.85361 5.11428 2.33197C4.48344 2.81033 3.92269 3.22035 3.43204 3.76704C1.96007 5.47547 0.838579 7.1839 0.277831 9.37069C-0.282917 11.4891 -0.00254342 14.0176 1.18905 15.9311C2.24045 17.7078 4.34325 19.4162 6.44605 19.8263C8.68904 20.3046 11.2124 20.2363 13.175 18.9379C15.0675 17.7078 16.6096 15.9994 17.1704 13.8126C17.2404 13.5393 17.3105 13.3342 17.3806 13.1292C17.1003 13.8126 16.8199 14.496 16.4694 15.1793C16.6797 14.7693 16.89 14.4276 17.1704 14.086C16.6797 14.6326 16.2591 15.2477 15.7685 15.7944C15.9788 15.521 16.2591 15.2477 16.5395 15.0427C15.9788 15.521 15.3479 15.9311 14.7872 16.4094C15.0675 16.2044 15.418 15.9994 15.7685 15.8627C16.8199 15.316 17.5909 14.5643 18.2218 13.6759C18.9928 12.8559 19.5535 11.8992 19.7638 10.7374C20.1143 9.5757 20.1844 8.48231 19.904 7.32058C19.8339 6.15884 19.4834 5.13379 18.8526 4.17707C17.661 2.33197 15.8386 0.760212 13.5956 0.281852C12.8246 0.213515 12.0535 0.0768402 11.2825 0.00850307C9.74045 -0.0598341 8.26848 0.281851 6.93671 1.1019Z" transform="translate(37.7126 4.22845)" fill="#5187BD"/>
<path d="M8.49009 17.0843C19.7751 17.0843 19.7751 2.60685e-07 8.49009 2.60685e-07C-2.79496 2.60685e-07 -2.86505 17.0843 8.49009 17.0843Z" transform="translate(54.0332 20.0911)" fill="#5187BD"/>
<path d="M8.43752 17.0843C19.7226 17.0843 19.7226 -5.21371e-07 8.43752 -5.21371e-07C-2.77743 -5.21371e-07 -2.84753 17.0843 8.43752 17.0843Z" transform="translate(36.2122 38.337)" fill="#5187BD"/>
<path d="M14.9525 2.94278C14.6021 3.01112 14.3217 2.94278 13.9712 2.87444C14.7423 2.94278 15.5133 3.07946 16.2843 3.14779C15.4432 2.87445 15.6535 3.01112 16.9853 3.42114C16.8451 3.35281 16.7049 3.21613 16.5647 3.14779C16.074 2.73777 15.5834 2.46442 15.0927 2.0544C13.2703 0.687658 11.0974 -0.0640501 8.78432 0.00428706C3.73759 0.140961 0.443202 3.83117 0.0226408 8.54643C-0.327826 13.0567 3.45722 17.0202 6.75161 19.8221C10.046 22.6922 14.8124 23.3072 18.6675 21.0521C20.8404 19.7537 22.6628 17.7719 23.9946 15.6535C26.3077 11.8266 25.046 6.08629 20.8404 3.96784C16.6348 1.78105 11.3778 2.94278 8.85442 7.04301C8.0133 8.40975 10.3264 5.60793 9.13479 6.76966C8.0133 7.86305 10.9572 5.7446 9.41516 6.56465C10.8871 6.15463 12.3591 5.81294 13.8311 5.40292C13.6909 5.40292 13.4806 5.40292 13.3404 5.47126C14.8124 5.88128 16.2843 6.22296 17.7563 6.63299C18.8778 7.58971 19.2283 7.86305 18.6675 7.31636C18.4572 7.11135 18.2469 6.90634 18.0367 6.70132C17.6862 6.35964 17.3357 6.01795 17.0554 5.67627C16.7049 5.33458 16.4245 4.9929 16.074 4.65121C16.004 4.58287 15.8638 4.4462 15.7937 4.37786C16.4946 5.06123 16.9853 5.81294 17.2656 6.70132C17.3357 7.45303 17.4759 8.20474 17.546 8.95645C17.546 8.81978 17.546 8.6831 17.546 8.54643C14.6021 11.4849 11.6582 14.2867 8.71423 17.1569C8.85442 17.1569 8.9946 17.1569 9.13479 17.1569C8.36376 17.0886 7.59273 16.9519 6.82171 16.8836C4.15815 15.7902 6.26096 17.0202 6.8918 17.4303C7.31236 17.7036 7.73292 18.0453 8.15348 18.2503C10.1862 19.412 12.5694 20.0954 14.9525 20.0271C19.5086 19.8221 23.9245 16.2002 23.7142 11.4849C23.504 6.97467 19.8591 2.73777 14.9525 2.94278Z" transform="translate(7.40723 31.9092)" fill="#5187BD"/>
<path d="M9.18225 24.6351C9.04206 21.8333 10.0234 19.0998 9.81308 16.298C9.6028 13.5645 8.34112 11.7877 6.72897 9.66925C6.86916 10.5576 6.93925 11.446 7.07944 12.3344C7.14953 12.0611 7.28972 11.856 7.35981 11.5827C6.79907 12.2661 6.30841 12.9494 5.74767 13.6328C9.39253 11.446 18.3645 5.97905 13.2477 0.990438C10.0234 -2.08473 5.11682 2.69887 8.27103 5.84237C10.514 8.02916 13.0374 9.9426 15.8411 11.5144C19.2757 13.4278 22.9206 8.91754 20.1168 6.11572C19.2056 5.22734 18.2944 4.40729 17.3131 3.65559C14.3692 1.26379 9.6729 4.27062 11.7757 7.82415C12.2664 8.6442 12.9673 9.73759 13.8785 10.1476C14.0888 10.3526 14.3692 10.4893 14.5794 10.6943C14.8598 9.25923 14.6495 9.25923 14.0888 10.831C12.4065 13.4278 11.215 16.3663 9.6729 19.0314C7.71028 22.4483 12.2664 25.7968 15.2103 23.2C16.7523 21.8333 18.0841 20.2615 19.2757 18.5531C21.5888 15.3412 16.472 11.651 13.7383 14.3845C9.32243 18.9631 2.66355 19.4415 0.42056 26.0018C-0.981309 30.1704 5.81776 32.0155 7.14953 27.8469C7.99066 25.3185 10.6542 24.7718 12.8271 23.6784C15 22.5166 16.8925 21.0132 18.6449 19.2365C16.8224 17.8697 15 16.503 13.1075 15.0679C12.1963 16.298 11.215 17.323 10.0935 18.2797C11.9159 19.6465 13.7383 21.0132 15.6308 22.4483C17.5935 19.0314 20.5374 14.9995 21.3785 11.1727C21.6589 9.73759 21.4486 8.43918 20.6776 7.20912C19.9065 5.97905 18.4346 5.50069 17.7336 4.33896C15.9112 5.7057 14.0888 7.07244 12.1963 8.50752C13.1776 9.32757 14.0888 10.1476 15 10.9677C16.4019 9.19089 17.8037 7.41413 19.2757 5.56902C16.9626 4.27062 15 2.83554 13.1075 0.990438C11.4252 2.63053 9.81309 4.20228 8.13084 5.84237C8.27103 5.97905 8.41122 6.11572 8.5514 6.2524C8.20094 5.43235 7.85047 4.61231 7.5 3.8606C7.85047 3.10889 7.71028 3.24556 7.00935 4.33896C6.65888 4.74898 6.30841 5.09067 5.95794 5.43235C5.11682 6.11572 4.2757 6.66242 3.29439 7.14078C1.54206 8.0975 5.34771e-07 9.3959 5.34771e-07 11.5144C5.34771e-07 13.7011 2.38318 14.7945 2.66355 16.9813C2.94393 19.5098 1.82243 22.1749 1.96262 24.7718C2.38318 29.0087 9.39253 29.0087 9.18225 24.6351Z" transform="translate(37.2896 0.444641)" fill="#5187BD"/>
<path d="M8.05075 16.7791C9.38253 15.6174 10.6442 14.4557 11.976 13.3623C14.9199 10.8338 10.9947 5.70852 7.70028 7.96364C5.87785 9.26205 3.98534 10.4921 2.16291 11.7905C3.35449 13.7723 4.54608 15.7541 5.66758 17.6675C9.03207 15.2074 12.3966 12.7472 15.8311 10.2871C19.4059 7.75863 22.1395 6.87025 26.6255 7.07526C26.0648 4.95681 25.4339 2.83836 24.8732 0.719906C21.7891 2.63335 20.4573 5.43517 22.2797 8.78369C22.1395 7.8953 22.0694 7.00692 21.9293 6.11854C21.719 6.5969 21.4386 7.55362 21.2984 8.03198C21.2283 8.30533 21.2283 8.64701 21.1582 8.92036C21.0881 8.85202 20.948 8.78369 20.8779 8.64701C20.3872 9.12537 18.2844 10.3554 17.6536 10.4921C16.9526 10.6288 16.6723 10.4921 15.9012 10.2188C14.2891 9.74041 12.6769 9.80874 10.9947 10.1504C8.96197 10.6288 6.5087 12.5422 4.40589 12.1322C-0.0099942 11.3805 -1.90252 17.9409 2.51337 18.6926C4.19562 18.9659 5.73767 19.0343 7.41992 18.6242C9.10216 18.2142 10.6442 17.0525 12.3966 16.7791C14.0087 16.5058 14.7797 17.3258 16.3218 17.5308C17.6536 17.7358 18.9152 17.3258 20.1068 16.7791C22.5601 15.6857 26.0648 14.1823 27.4666 11.8589C28.0975 10.8338 28.3078 9.39872 28.5881 8.23699C28.7283 7.62196 28.8685 7.07526 28.7984 6.39189C28.7984 6.0502 28.7283 5.77685 28.5881 5.5035C28.3078 4.68346 28.2377 4.95681 28.518 6.39189C31.462 4.54678 30.2704 0.173208 26.7657 0.0365342C22.1395 -0.168477 18.0741 0.446556 14.1489 2.97503C10.0835 5.64018 6.15823 8.71535 2.233 11.5855C-1.34177 14.1823 2.02272 20.0593 5.73767 17.4625C7.5601 16.1641 9.45263 14.934 11.2751 13.6356C9.87319 11.8589 8.47131 10.0821 6.99935 8.23699C5.66757 9.39872 4.40589 10.5605 3.07412 11.6538C-0.290369 14.8657 4.68627 19.7176 8.05075 16.7791Z" transform="translate(43.2576 20.1229)" fill="#5187BD"/>
<path d="M4.2319 2.4952C3.81134 5.16035 3.95152 9.05556 2.75994 11.5157C1.77863 13.4291 -0.254081 13.9075 0.0262924 16.5726C0.236573 18.8961 2.97022 21.2196 5.2833 19.5111C7.24592 18.1444 8.99825 18.1444 10.9609 19.5111C12.1525 17.5294 13.3441 15.5476 14.4655 13.6341C11.8721 12.0624 9.13844 12.2674 6.26461 12.9508C6.89545 15.1376 7.52629 17.3244 8.15713 19.5111C12.0123 18.2127 16.2179 18.7594 20.2132 17.666C23.087 16.846 27.7132 15.2059 29.1852 12.4724C33.3207 5.02367 17.9702 3.58859 13.6945 3.93028C9.20853 4.3403 9.20853 11.174 13.6945 10.764C16.5683 10.4906 21.4048 10.4223 23.788 12.4724C23.5076 11.379 23.1571 10.2856 22.8768 9.1239C22.7366 10.149 16.8487 11.4474 15.3768 11.6524C12.2926 12.0624 9.27863 11.9257 6.26461 12.9508C1.98891 14.3175 3.74124 20.5362 8.15713 19.5111C9.13844 19.3061 10.0497 18.9644 10.9609 19.5111C14.8861 21.9029 18.0403 16.1626 14.4655 13.6341C10.6805 10.969 5.49358 10.969 1.70853 13.6341C3.46087 14.5909 5.21321 15.6159 6.96554 16.5726C5.84405 17.9394 5.70386 18.2127 6.68517 17.5294C7.24592 17.1877 7.66648 16.7777 8.01694 16.2993C8.71788 15.4109 9.13844 14.4542 9.48891 13.4291C10.33 10.559 10.5403 7.34714 10.9609 4.40864C11.6618 -0.0332729 4.93283 -1.87837 4.2319 2.4952Z" transform="translate(32.0063 35.91)" fill="#5187BD"/>
<path d="M10.3284 1.50342C8.8564 0.95672 7.24425 -5.21371e-07 5.6321 -5.21371e-07C3.73958 -5.21371e-07 2.4078 1.43508 1.84706 3.00683C1.21622 4.64692 1.00594 6.56036 1.07603 8.33713C1.14612 9.63553 1.84706 12.164 1.56668 12.9157C1.84706 12.4374 2.19752 11.8907 2.4779 11.4123C2.33771 11.549 2.19752 11.6856 2.05734 11.754C2.89846 11.4123 3.73958 11.0706 4.51061 10.7289C4.37042 10.7289 4.23023 10.7289 4.09005 10.7973C4.6508 10.9339 5.28164 11.139 5.84238 11.2756C5.7022 11.2073 5.6321 11.139 5.49192 11.139C5.91248 11.549 6.33304 11.959 6.7536 12.369C6.68351 12.2323 6.61341 12.164 6.54332 12.0273C5.56201 13.7358 4.51061 15.4442 3.5293 17.1526C4.01995 17.1526 4.51061 17.1526 5.00126 17.0843C9.48724 16.9476 9.48724 10.1139 5.00126 10.2506C4.51061 10.2506 4.01995 10.2506 3.5293 10.3189C0.935842 10.3872 -0.956682 13.1891 0.515281 15.4442C2.4779 18.656 7.31435 18.041 8.43584 14.4191C9.34706 11.549 6.96388 8.13212 8.43584 5.26196C8.01528 5.67198 7.59472 6.082 7.17416 6.49203C7.24425 6.42369 7.38444 6.35535 7.45453 6.28702C6.54332 6.42369 5.6321 6.49203 4.72089 6.6287C5.98257 6.83371 7.31435 7.51708 8.50593 7.99544C10.2583 8.67881 12.3611 7.24373 12.8517 5.60364C13.3424 3.75854 12.0807 2.18679 10.3284 1.50342Z" transform="translate(5.79321 29.7949)" fill="#5187BD"/>
<path d="M5.25701 0.781846C4.20561 0.235149 3.01402 -0.106537 1.82243 0.030137C0.280374 0.166811 -0.490654 1.8069 0.560748 2.96863C0.420561 2.83196 0.560748 2.76362 0.560748 3.03697C0.560748 2.76362 0.490655 3.31032 0.560748 3.10531C0.490655 3.51533 0.350468 3.72034 0.210281 4.06203C-0.21028 4.88207 2.50674e-07 5.90713 0.841122 6.38549C1.61215 6.79551 2.80374 6.5905 3.2243 5.77046C4.06542 4.06203 4.55607 2.14859 3.08411 0.576835C2.66355 1.53355 2.24299 2.49027 1.82243 3.51533C2.45327 3.44699 2.94392 3.51533 3.50467 3.78868C4.34579 4.1987 5.3972 3.99369 5.88785 3.17365C6.30841 2.3536 6.02804 1.19187 5.25701 0.781846Z" transform="translate(15 11.6555)" fill="#5187BD"/>
<path d="M0.47313 3.01571C0.403036 2.94738 0.332945 2.87904 0.332945 2.8107C0.403038 2.94738 0.403038 2.94737 0.332945 2.74236C0.262852 2.67403 0.26285 2.60569 0.26285 2.46902C0.26285 2.33234 0.26285 2.264 0.26285 2.40068C0.26285 2.60569 0.26285 2.264 0.26285 2.19567C0.332943 1.85398 0.403037 1.92232 0.26285 2.12733C-0.227804 2.87904 0.122664 4.04077 0.893692 4.45079C1.80491 4.92915 2.71612 4.6558 3.27687 3.83576C4.0479 2.8107 3.76752 1.44396 2.9264 0.487238C2.36565 -0.196133 1.03388 -0.127796 0.47313 0.487238C-0.157711 1.37562 -0.157711 2.33234 0.47313 3.01571Z" transform="translate(42.0034 26.2325)" fill="#5187BD"/>
<path d="M2.10526 4.10023C3.15666 3.96355 4.13797 3.62187 5.11928 3.14351C5.9604 2.73349 6.24077 1.50342 5.75012 0.820045C5.18937 -5.70249e-07 4.27815 -0.205012 3.36694 0.205011C3.15666 0.273348 3.15666 0.273349 3.29685 0.273349C3.15666 0.341686 3.08657 0.341686 2.94638 0.410023C2.80619 0.47836 2.59591 0.546697 2.45573 0.546697C2.03517 0.683371 1.6146 0.751708 1.26414 0.820045C0.352921 0.956719 -0.207825 2.11845 0.0725488 2.9385C0.282829 3.82688 1.12395 4.2369 2.10526 4.10023Z" transform="translate(68.6189 20.4329)" fill="#5187BD"/>
<path d="M4.3633 0.911396C3.38199 3.09818 3.2418 6.72005 0.858623 7.95012C-1.10399 8.97518 0.648343 11.9137 2.61096 10.8886C5.90535 9.11185 6.04554 5.62666 7.37732 2.61982C8.28853 0.638048 5.27451 -1.13872 4.3633 0.911396Z" transform="translate(65.4497 22.7333)" fill="#5187BD"/>
<path d="M9.06354 3.68016C9.4841 3.13346 9.62429 2.92845 9.69438 2.17674C9.97475 0.399976 7.52148 -0.966768 6.47008 0.878335C5.76915 2.1084 3.38597 0.946672 2.26447 0.673324C0.932699 0.399975 -0.679449 1.90339 0.301859 3.2018C1.91401 5.38859 2.75513 7.84872 4.50747 9.96717C6.2598 12.0856 10.6757 15.0241 10.7458 17.9626C11.5168 17.4159 12.2177 16.8692 12.9888 16.3225C12.6383 16.2542 12.3579 16.1175 12.0075 16.0492C9.97475 15.5025 9.13363 18.0993 10.6757 19.1927C11.3766 19.671 11.8673 20.2861 12.0776 21.0378C12.9187 22.8146 15.9327 21.5161 15.3019 19.7394C14.8112 18.441 17.1243 17.7576 17.9654 16.5959C19.2972 14.8191 16.2832 13.1107 14.9514 14.8874C13.9701 16.1175 12.428 15.8442 11.7271 17.3476C11.2364 18.3726 11.5168 19.6027 11.9374 20.6278C12.9888 20.2177 14.0402 19.7394 15.1617 19.3294C14.5308 17.9626 13.6897 17.1426 12.4981 16.2542C12.0776 17.2792 11.5869 18.3043 11.1663 19.3977C11.5168 19.466 11.7972 19.6027 12.1477 19.671C13.1991 19.9444 14.3906 19.1243 14.3906 18.031C14.3205 14.8874 12.1476 12.9057 9.97475 10.7872C8.71307 9.48881 7.45139 8.25874 6.39999 6.75533C5.27849 5.11524 4.57756 3.2018 3.38597 1.63004C2.75513 2.45009 2.05419 3.27013 1.42335 4.15852C4.71775 4.91022 7.66167 6.20863 9.62429 2.79177C8.57289 2.38175 7.52148 1.90339 6.39999 1.49337C6.32989 1.69838 6.18971 1.97173 6.11961 2.17674C4.64765 3.7485 7.66167 5.45692 9.06354 3.68016Z" transform="translate(35.0251 36.5704)" fill="#5187BD"/>
<path d="M1.69111 4.19736C2.46214 4.19736 3.30326 4.19736 4.07429 3.99235C4.77522 3.85568 5.40606 3.37732 6.107 3.44566C5.54625 2.69395 4.9855 2.01058 4.42475 1.25887C4.07429 2.55727 3.72382 3.85568 3.23317 5.08575C2.46214 7.13586 5.82662 8.02424 6.59765 5.97413C6.87802 5.15408 7.22849 4.33404 7.50886 3.51399C8.13971 1.73723 5.12569 0.438823 4.28457 2.21559C3.79391 3.17231 3.44345 4.12903 3.23317 5.15408C3.02288 5.97413 3.09298 6.99919 2.60232 7.75089C1.34064 9.596 4.35466 11.3044 5.61634 9.45932C6.73784 7.88757 6.45746 5.70078 7.29858 3.99235C6.24718 3.58233 5.19578 3.10397 4.07429 2.69395C3.79391 3.51399 3.44344 4.33404 3.16307 5.15408C4.28457 5.42743 5.40606 5.76912 6.52756 6.04247C7.01821 4.8124 7.36868 3.51399 7.71914 2.21559C7.99952 1.05386 7.1584 0.233811 6.0369 0.0287997C4.56494 -0.176212 3.16307 0.780507 1.62102 0.780507C-0.55188 0.71217 -0.551882 4.12903 1.69111 4.19736Z" transform="translate(27.0471 35.3698)" fill="#5187BD"/>
<path d="M9.99397 1.99675C9.01266 1.51839 8.24163 1.45005 7.12014 1.7234C4.94724 2.2701 5.85845 5.55028 8.03135 5.00358C8.94256 4.79857 9.71359 4.45689 10.4846 3.97853C12.1669 2.8168 11.1155 0.561672 9.15285 0.835021C8.38182 0.971695 7.61079 1.10837 6.76967 1.17671C7.05004 2.2701 7.40051 3.36349 7.68088 4.45689C8.45191 4.18354 9.22294 3.91019 9.99397 3.63684C12.0968 2.88513 11.2556 -0.190037 9.08275 0.35666C6.06873 1.04003 2.98462 2.13343 1.022 4.59356C-0.590145 6.64368 -0.449957 9.4455 2.56406 9.92386C3.33509 10.0605 4.03603 9.85552 4.73696 9.85552C5.78836 9.85552 6.62948 10.1289 7.61079 10.3339C9.01266 10.6756 10.2743 10.3339 11.4659 9.51384C13.5687 8.07876 15.4613 5.34527 14.6201 2.74846C13.9192 0.630009 11.3958 -0.736732 9.29303 0.424999C8.31173 0.971696 7.75098 1.92841 7.12014 2.74846C6.27901 3.84185 5.15752 3.50017 4.10612 4.32021C2.28369 5.75529 3.33509 8.48878 5.64817 8.42044C8.38182 8.3521 10.9753 6.16532 12.4472 4.1152C11.3257 3.84185 10.2743 3.56851 9.15285 3.22682C9.22294 4.38855 8.80238 5.07192 7.75098 5.55028C5.71827 6.43867 7.4706 9.37716 9.50331 8.48878C11.6061 7.53206 12.7977 5.48195 12.6575 3.22682C12.5173 1.51839 10.4145 0.971695 9.36313 2.33844C8.80238 3.09015 8.24163 3.63684 7.4706 4.1152C7.19023 4.25188 5.71827 4.86691 5.92855 5.00358C6.20892 5.34527 6.4893 5.68696 6.69958 6.02864C6.97995 6.71201 5.78836 6.78035 6.83976 6.84869C7.19023 6.84869 7.68088 6.64368 8.03135 6.507C8.66219 6.16532 9.15285 5.75529 9.57341 5.2086C9.99397 4.6619 10.4846 3.36349 10.9753 3.97853C11.8164 4.93525 9.43322 6.98536 8.45191 6.98536C7.61079 6.98536 3.33509 5.68696 3.33509 6.57534C3.33509 7.0537 4.3164 5.82363 4.59677 5.61862C5.01733 5.27693 5.43789 5.00358 5.92855 4.79857C7.19023 4.1152 8.5921 3.84186 9.92387 3.50017C9.6435 2.40678 9.29303 1.31338 9.01266 0.219985C8.24163 0.493334 7.4706 0.766683 6.69958 1.04003C4.52668 1.79174 5.43789 4.6619 7.61079 4.32021C8.38182 4.18354 9.15285 4.04686 9.99397 3.97853C9.57341 2.95347 9.08275 1.92841 8.66219 0.835021C8.24163 1.24504 7.68088 1.45005 7.05004 1.51839C7.33042 2.61179 7.68088 3.70518 7.96126 4.79857C8.03135 4.79857 8.10145 4.79857 8.10145 4.73024C10.2743 5.82363 12.0267 2.88513 9.99397 1.99675Z" transform="translate(30.9407 27.7301)" fill="#F2C94C"/>
<path d="M74.5794 20.1595C71.1449 20.4328 67.6402 20.3645 64.2056 19.8178L63.9953 19.7494C63.2944 19.6128 62.5234 19.4761 61.7523 19.5444C59.1589 19.6811 57.1963 21.7312 55.4439 23.4396L55.0234 23.8497C51.9393 26.9932 49.6963 29.0433 46.1916 30.8884C46.1215 30.3417 45.9112 29.7266 45.6308 29.3166C45.9112 26.9248 47.7336 25.6948 49.2056 25.0797C49.6262 24.8747 50.0467 24.8064 50.5374 24.6697C51.1682 24.4647 51.7991 24.328 52.4299 23.9863C54.0421 23.0979 55.0234 21.4579 55.8645 20.0228C56.8458 18.1777 57.757 16.3326 58.528 14.4191C59.4393 12.3007 60.2103 9.84055 59.0888 7.79043C58.4579 6.56036 57.2664 5.74032 56.285 5.05695L49.8364 0.47836C49.5561 0.273348 49.1355 2.0366e-09 48.6449 2.0366e-09C48.1542 2.0366e-09 47.6636 0.273349 47.3131 0.615034C46.2617 1.50342 45.4206 2.59681 44.5794 3.6902C43.3178 5.3303 42.1963 6.83371 40.4439 7.7221C40.2336 7.79043 40.0234 7.92711 39.8832 7.99544C39.3925 8.20045 38.9019 8.40547 38.4813 8.74715C37.1495 9.84055 37.0093 11.6856 37.3598 13.1207C37.5701 13.9408 37.8505 14.6925 38.2009 15.4442C38.4112 16.0592 38.6916 16.6059 38.9019 17.221C39.743 20.0911 38.972 23.4396 37.0093 25.6948L37.5 26.1048C39.6729 23.6446 40.4439 20.0911 39.5327 17.0159C39.3224 16.4009 39.1122 15.7859 38.8318 15.1708C38.5514 14.4191 38.2009 13.6674 38.0607 12.9157C37.7804 11.6856 37.8505 10.1139 38.972 9.22551C39.3224 8.95216 39.743 8.74715 40.2336 8.54214C40.4439 8.4738 40.6542 8.33713 40.8645 8.26879C42.757 7.31207 44.0187 5.67198 45.2804 4.10023C46.0514 3.07517 46.8925 1.98178 47.8738 1.09339C48.014 0.751708 48.2944 0.546697 48.6449 0.546697C48.9252 0.546697 49.1355 0.751708 49.486 0.95672L55.9346 5.53531C56.9159 6.21868 57.9673 6.97039 58.528 8.06378C59.5093 9.90888 58.8084 12.164 57.9673 14.1458C57.1963 15.9909 56.285 17.9043 55.3037 19.6811C54.5327 21.0478 53.6215 22.6196 52.1495 23.3713C51.5888 23.6446 51.028 23.8497 50.3972 23.9863C49.9065 24.123 49.486 24.2597 48.9953 24.4647C46.8925 25.3531 45.5607 26.7882 45.0701 28.6333C44.7897 28.3599 44.4393 28.1549 44.0888 27.9499C43.6682 27.7449 43.1776 27.6765 42.757 27.6765C45.3505 24.6014 47.4533 20.6378 48.5047 16.9476L47.8738 16.7426C46.8224 20.5011 44.5093 24.6697 41.8458 27.6765C41.4252 27.6765 41.0047 27.6765 40.6542 27.7449C43.1075 24.3964 44.4393 20.1595 44.1589 16.6743L43.4579 16.7426C43.7383 20.2278 42.2664 24.6014 39.6729 27.8815C38.0607 28.1549 36.4486 28.7016 35.0467 29.5216C34.9065 29.385 34.8364 29.2483 34.6963 29.18C33.9252 26.9932 32.9439 24.6014 30.9813 22.9613C30.5607 22.6196 30.0701 22.2779 29.6495 22.0046C28.9486 21.5262 28.3178 21.1162 27.8271 20.5695L27.3364 21.0478C27.8972 21.6629 28.5981 22.1412 29.2991 22.6196C29.7196 22.8929 30.2103 23.2346 30.5607 23.508C32.0327 24.738 33.014 26.5148 33.6449 28.2916C33.5748 28.2232 33.5047 28.1549 33.4346 28.0866C32.8738 27.6765 32.3832 27.2665 31.9626 26.7882C31.1215 25.8998 30.5607 24.8064 30.4206 23.6446L29.7196 23.713C29.9299 25.0114 30.5607 26.2415 31.472 27.2665C31.9626 27.7449 32.5234 28.2232 33.0841 28.6333C33.5047 28.9066 33.8551 29.2483 34.2056 29.59C34.2757 29.7267 34.3458 29.9317 34.3458 30.0683C33.785 30.4784 33.2243 30.8884 32.6636 31.2984C31.7523 32.1185 31.1916 32.8702 30.8411 33.6902C30.771 33.8269 30.7009 33.9636 30.7009 34.1002C30.3505 33.8269 29.9299 33.6219 29.5093 33.5535C29.1589 33.4852 28.8785 33.4852 28.528 33.4852C28.1075 33.4852 27.6869 33.4169 27.3364 33.3485C26.8458 33.2118 26.3551 32.8018 25.9346 32.4601L18.8551 26.7882C17.7336 25.8998 16.472 24.8747 15.8411 23.5763C14.6495 21.2528 15.4907 18.3827 16.2617 16.4009C16.472 15.8542 16.8224 14.8975 16.2617 14.1458C16.1916 14.0774 16.1215 14.0091 16.0514 13.8724C15.9813 13.8041 15.9112 13.8041 15.9112 13.7358C15.7009 13.5308 15.771 13.2574 15.8411 13.0524C15.9813 12.6424 16.4019 12.2323 16.8224 12.164C17.5234 12.0273 18.2243 12.164 18.9252 12.369C19.1355 12.4374 19.2757 12.4374 19.486 12.5057C21.2383 12.9157 22.9907 12.779 24.743 12.7107C25.2336 12.7107 25.7944 12.6424 26.285 12.6424C28.0374 12.574 30.6308 12.7107 32.4533 14.0774C33.715 15.0342 34.486 16.4692 35.1869 17.7677L37.7103 22.4829C37.6402 22.5513 37.6402 22.5513 37.6402 22.6196C37.5701 22.8246 37.6402 23.0296 37.8505 23.1663C37.9907 23.303 38.2009 23.303 38.4112 23.1663C38.4813 23.0979 38.7617 22.8246 38.4813 22.3462L35.7477 17.426C35.0467 16.0592 34.2056 14.5558 32.8738 13.5308C30.8411 11.959 28.1075 11.8907 26.215 11.959C25.6542 11.959 25.1635 12.0273 24.6028 12.0273C22.9206 12.0957 21.1682 12.2323 19.5561 11.8223C19.3458 11.754 19.2056 11.754 18.9953 11.6856C18.2243 11.4806 17.3832 11.2756 16.5421 11.4806C15.8411 11.6173 15.2804 12.164 15.0701 12.8474C14.9299 13.3257 15 13.8041 15.2804 14.1458C15.3505 14.2141 15.4206 14.2825 15.4907 14.3508C15.5607 14.4191 15.6308 14.4875 15.6308 14.4875C15.9112 14.8292 15.771 15.4442 15.4907 16.0592C14.7196 18.1093 13.8084 21.1845 15.1402 23.7813C15.8411 25.2164 17.1729 26.2415 18.3645 27.1982L25.4439 32.8702C25.9346 33.2118 26.4252 33.6902 27.0561 33.8952C27.4766 34.0319 27.9673 34.0319 28.3878 34.1002C28.6682 34.1002 28.9486 34.1002 29.229 34.1686C29.7196 34.2369 30.2804 34.5786 30.3505 34.9886C30.3505 35.1936 30.3505 35.467 30.4206 35.672C27.1963 35.5353 25.3037 34.9203 22.0794 33.5535C20.4673 32.9385 18.9953 32.1868 17.5935 31.4351L17.5234 31.3667C16.2617 30.6834 14.9299 30.0683 13.528 29.7267C11.8458 29.385 10.2336 29.6583 9.04206 30.4784C7.78037 31.3667 7.00935 33.0752 6.86916 35.3303C6.79907 35.877 6.79907 36.492 6.79907 37.0387C6.79907 38.2005 6.72897 39.3622 6.4486 40.3872C6.02804 41.8907 4.90654 43.4624 3.2243 43.5991L0 43.8724L3.36449 44.2825C5.18692 44.4875 7.07944 45.5809 9.04206 47.631C9.53271 48.1093 9.95327 48.5877 10.3738 49.0661C11.4953 50.2961 12.6168 51.5262 13.9486 52.4829C15.9112 53.8497 18.2944 54.6014 20.7477 54.6014C22.5701 54.6014 24.3925 54.1913 26.0748 53.3713C28.528 52.1412 30.7009 49.8861 32.243 46.9476C33.3645 44.9658 34.1355 42.2323 34.7664 39.8405C34.9766 39.2255 35.1168 38.6105 35.257 38.0638L37.4299 38.4738C38.0607 38.6105 38.6916 38.6788 39.3925 38.6788C39.6028 38.6788 39.8131 38.6788 39.9533 38.6788C41.3551 38.5421 42.6869 37.6538 43.8785 36.287C48.5047 35.3303 53.8318 32.9385 59.7196 29.1116L59.3692 28.5649C53.972 31.9818 48.9953 34.2369 44.6495 35.3303C45 34.8519 45.2103 34.4419 45.4206 33.9636C46.6122 33.6219 48.0841 33.0752 49.0654 32.4601L48.715 31.8451C47.9439 32.3235 46.7523 32.8018 45.771 33.0752C45.9813 32.5968 46.0514 32.0501 46.1215 31.5718C49.9766 29.6583 52.2196 27.4715 55.4439 24.2597L55.8645 23.8497C57.6168 22.0729 59.3692 20.2961 61.6822 20.1595C62.3832 20.0911 63.0841 20.2278 63.785 20.3645L63.9953 20.4328C67.2897 20.9795 70.6542 21.1162 73.9486 20.8428C73.1776 22.6879 72.5467 24.6697 72.1963 26.6515C72.1262 26.9248 72.1262 27.1982 72.0561 27.4715C71.8458 28.7699 71.5654 30.0683 70.9346 31.1617C70.0234 32.8018 68.4112 33.9636 67.0093 34.9886C64.9766 36.492 62.7336 37.9271 60.4206 37.5854C60 37.5171 59.5093 37.3804 59.0888 37.2437C58.3879 37.0387 57.6869 36.8337 56.9159 36.8337C56.0047 36.8337 55.1636 37.2437 54.3925 37.5854C54.1121 37.7221 53.8318 37.7904 53.6215 37.9271C50.8879 38.9522 47.5935 38.6105 45.1402 37.0387L44.7897 37.5854L44.5093 37.7904C45.4907 39.2255 47.1729 39.9089 48.3645 40.1822C49.2757 40.3872 50.1869 40.5239 51.0981 40.5923C51.6589 40.6606 52.2196 40.7289 52.7804 40.7973C54.743 41.139 56.6355 41.754 58.3178 42.7107C59.5794 43.3941 61.1215 44.5558 61.2617 46.1276C61.4019 47.631 60.2103 49.1344 57.757 50.5695C55.3738 52.0046 52.7804 53.303 50.1869 54.328C49.7664 54.533 49.2056 54.738 48.8551 55.2164C48.3645 55.8998 48.6449 56.7198 48.785 57.4715C48.9252 57.8815 48.9953 58.2916 48.9953 58.6333C47.9439 57.2665 46.6822 55.8998 45.0701 55.2164C43.2477 54.4647 41.215 54.6014 39.2523 54.738C37.5 54.8747 35.7477 55.0114 34.1355 54.4647C33.715 54.328 32.7336 53.918 32.5234 53.0979C32.4533 52.6879 32.5935 52.2096 32.7336 51.7995C33.0841 50.9795 33.5748 50.0911 34.0654 49.3394C34.5561 48.5194 35.0467 47.631 35.4673 46.6743C36.3785 44.4875 36.3785 41.959 35.6075 39.7039L34.9766 39.9089C35.7477 41.959 35.6776 44.3508 34.8364 46.4009C34.486 47.2893 33.9953 48.1093 33.5047 48.9294C33.014 49.7494 32.5234 50.5695 32.1729 51.4579C31.9626 51.9362 31.7523 52.5513 31.8925 53.1663C32.1729 54.2597 33.2944 54.8064 33.9252 55.0114C35.6776 55.5581 37.5 55.4214 39.2523 55.3531C41.215 55.2164 43.0374 55.0797 44.7196 55.8314C46.472 56.5831 47.7336 58.1549 48.785 59.5216L49.0654 60L49.3458 59.6583C49.8364 58.9749 49.6262 58.1549 49.4159 57.4032C49.2056 56.7882 49.0654 56.1731 49.3458 55.6948C49.5561 55.3531 49.9766 55.2164 50.3271 55.0797C52.9206 53.9863 55.514 52.6879 57.9673 51.2528C60.7009 49.6128 61.9626 47.9727 61.8224 46.1959C61.6822 44.6925 60.5607 43.3257 58.528 42.2323C56.7056 41.2756 54.8131 40.5923 52.7103 40.2506C52.1495 40.1822 51.5888 40.1139 51.028 40.0456C50.1168 39.9772 49.2056 39.8405 48.3645 39.6355C47.4533 39.4305 46.3318 39.0205 45.4907 38.2005C46.8925 38.9522 48.5047 39.3622 50.1168 39.3622C51.3084 39.3622 52.5701 39.1572 53.6916 38.6788C53.972 38.5421 54.2523 38.4738 54.5327 38.3371C55.3037 37.9954 56.0748 37.6538 56.8458 37.6538C57.4766 37.6538 58.1075 37.8588 58.8084 38.0638C59.2991 38.2005 59.7897 38.3371 60.2804 38.4055C62.8738 38.8155 65.1869 37.2437 67.3598 35.672C68.8318 34.5786 70.514 33.3485 71.4953 31.6401C72.1963 30.41 72.4065 29.0433 72.6869 27.7449C72.757 27.4715 72.757 27.1982 72.8271 26.9248C73.2477 24.8064 73.8785 22.7563 74.7897 20.7745L75 20.2278L74.5794 20.1595ZM37.9907 22.4829C38.0607 22.4829 38.1308 22.4829 38.2009 22.5513C38.3411 22.6196 38.271 22.8246 38.271 22.8246C38.2009 22.9613 38.0607 23.0296 37.9907 23.0296V22.4829ZM34.2056 39.5672C33.5047 41.959 32.8037 44.6241 31.7523 46.5376C30.2103 49.3394 28.1776 51.4579 25.8645 52.6879C22.2897 54.4647 17.7336 54.1913 14.5093 51.8679C13.1776 50.9112 12.1262 49.7494 11.0047 48.5194C10.5841 48.041 10.0935 47.4943 9.6028 47.0159C7.99065 45.3759 6.3785 44.2825 4.83645 43.8041C6.09813 43.1207 6.93925 41.8223 7.28972 40.5239C7.57009 39.3622 7.64019 38.1321 7.64019 36.9704C7.64019 36.4237 7.64019 35.877 7.71028 35.3303C7.85047 33.8952 8.27103 31.9818 9.6028 31.0251C10.5841 30.3417 11.986 30.0683 13.528 30.41C14.8598 30.6834 16.1215 31.3667 17.3832 31.9818L17.4533 32.0501C18.8551 32.8018 20.3972 33.5535 22.0093 34.1686C25.3738 35.5353 27.3364 36.1503 30.8411 36.287C30.9112 36.3554 30.9112 36.492 30.9813 36.5604C31.472 37.3121 32.1028 37.3804 32.7336 37.4487C32.8738 37.4487 33.0841 37.5171 33.2944 37.5171L34.7664 37.7904C34.486 38.4055 34.3458 38.9522 34.2056 39.5672ZM44.0888 34.9203C43.2477 36.1503 41.8458 37.6538 40.0234 37.8588C39.2523 37.9271 38.4813 37.7904 37.7103 37.6538L33.3645 36.9021C33.1542 36.8337 32.9439 36.8337 32.7336 36.8337C32.243 36.7654 31.8224 36.7654 31.5421 36.287C31.3318 36.0137 31.2617 35.6036 31.1916 35.262C31.1916 35.1936 31.1916 35.0569 31.1916 34.9886C31.1916 34.6469 31.2617 34.2369 31.4019 33.8952C31.6822 33.2118 32.1729 32.5285 33.014 31.7768C33.5047 31.2984 34.0654 30.9567 34.6262 30.5467H34.6963H34.7664C34.9766 30.5467 35.1168 30.41 35.1168 30.2733C37.2196 29.0433 39.6729 28.3599 42.1963 28.4282C42.6869 28.4282 43.2477 28.4966 43.7383 28.7016C44.7897 29.1116 45.4206 30.3417 45.4206 31.6401C45.4206 32.5285 45 33.6219 44.0888 34.9203Z" fill="black"/>
<path d="M3.23963 0.017776C2.74898 -0.0505611 2.25832 0.0861141 1.90785 0.291126C1.69757 0.291126 1.48729 0.359462 1.27701 0.496136C0.996639 0.632811 0.646172 0.769484 0.365798 1.04283C0.0854242 1.31618 -0.124855 1.86288 0.0854259 2.2729C0.295706 2.68292 0.716266 2.88794 1.34711 2.88794C1.4172 2.88794 1.48729 2.88794 1.62748 2.88794C2.39851 2.88794 3.23963 2.68292 3.87047 2.20456C4.08075 2.06789 4.29103 1.93122 4.43122 1.65787C4.5714 1.38452 4.5714 0.974496 4.43122 0.701147C4.15084 0.359462 3.66019 0.0861131 3.23963 0.017776ZM3.73028 1.45286C3.66019 1.58953 3.52 1.65787 3.44991 1.7262C2.81907 2.13623 2.11814 2.34124 1.34711 2.2729C1.20692 2.2729 0.786359 2.20457 0.716265 1.99955C0.646172 1.86288 0.716266 1.65787 0.856453 1.52119C0.99664 1.31618 1.27701 1.24785 1.55739 1.11117H1.62748L1.69757 1.24784C1.83776 1.17951 1.90786 1.11117 2.04804 1.04283L2.25832 0.906158C2.5387 0.769484 2.88916 0.701147 3.16954 0.701147C3.37982 0.701147 3.66019 0.90616 3.73028 1.11117C3.80038 1.17951 3.80038 1.31618 3.73028 1.45286Z" transform="translate(36.6436 31.4857)" fill="black"/>
</svg>
