<?xml version="1.0" encoding="utf-8"?>
<!-- Generator: Adobe Illustrator 21.1.0, SVG Export Plug-In . SVG Version: 6.00 Build 0)  -->
<svg version="1.1" id="Calque_1" xmlns="http://www.w3.org/2000/svg" xmlns:xlink="http://www.w3.org/1999/xlink" x="0px" y="0px"
	 viewBox="0 0 375 166" style="enable-background:new 0 0 375 166;" xml:space="preserve">
<style type="text/css">
	.st0{fill:#DB786F;}
</style>
<path class="st0" d="M-31.2,131.9c-1.1-24.1-2.1-48.1-3.2-72.1C-36.6,10.2-38.7-40.3-25-87.9c18,6,37.1-2.8,55.4-7.6
	c24.6-6.5,50.5-5.7,75.9-4.9c28.8,1,57.7,2,86.3,5.9c18.9,2.5,37.8,6.3,56.8,7c21.8,0.8,43.7-2.2,65.5-3.5
	c23.6-1.4,47.3-0.5,70.9,0.3c2.2,0.1,4.4,0.2,6.3,1.3c3.5,2.1,4.2,6.6,4.7,10.6c3.7,34,7.3,68.1,11,102.2
	c1.5,13.4,2.9,26.8,3.7,40.3c1.8,31.2,0,62.6-1.8,93.8c-0.1,2.4-0.4,5.2-2.2,6.9c-2.5,2.4-6.5,1.6-9.9,0.8
	c-29.4-6.8-59.1-5.6-89.3-5.2c-21.7,0.3-44.3,2.8-65.8,0.8c-78.2,4.4-144.7-3.8-217.1-0.8C14,160.5,2,161-8.9,156.9
	c-10.9-4.1-20.5-13.8-20.7-25.4"/>
</svg>
