<svg width="59" height="35" viewBox="0 0 59 35" fill="none" xmlns="http://www.w3.org/2000/svg">
<path d="M13.275 1.33594C13.5008 2.67293 12.1959 3.68198 11.167 4.53968C9.48572 5.97758 8.23099 7.86955 7.07665 9.78675C4.24097 14.4788 1.85699 19.4484 7.65823e-07 24.6198C2.93606 24.7207 5.57098 26.4109 8.2059 27.7479C12.8735 30.0939 18.0178 31.4814 23.2124 31.7336C23.5135 31.7589 23.8147 31.7589 24.1158 31.6327C24.4922 31.4814 24.7181 31.103 24.969 30.8003C25.496 30.1696 26.1485 29.6651 26.6754 29.0344C27.5537 28.0254 28.0305 26.7388 28.3317 25.4271C29.3104 21.3404 28.683 17.0015 27.077 13.1166C25.4709 9.23177 22.9113 5.85145 20.0254 2.79906C18.9463 1.66388 17.7418 0.528697 16.2361 0.125076C14.7305 -0.278545 12.8484 0.30166 12.2712 1.76479" transform="translate(16.769 1.23067)" fill="#F8D24F"/>
<path d="M12.4112 34.0238C13.6157 32.7625 14.9206 31.5264 15.824 30.0128C16.7274 28.5245 17.154 26.7586 17.5555 25.0685C18.6848 20.0989 17.2293 14.978 14.6948 10.6895C13.3898 8.49481 11.8089 6.45148 10.1527 4.50905C8.84774 2.99547 7.14131 0.296258 4.95809 0.0187685C2.79997 -0.233494 2.27298 2.11255 2.02204 3.72704C1.59543 6.3758 1.54524 9.07501 1.59543 11.7742C1.69581 17.6267 2.07223 23.3279 0.415991 29.0038C0.666936 29.0795 0.892787 29.1299 1.14373 29.2056C1.16883 29.1299 1.19392 29.029 1.19392 28.9533C1.16883 28.6002 0.666937 28.4236 0.491275 28.7515C0.24033 29.2308 0.139952 29.8363 0.0144796 30.3408C-0.110993 30.8201 0.616748 31.0219 0.74222 30.5426C0.842598 30.1642 1.04335 29.357 1.14373 29.1299C0.917881 29.0542 0.666937 29.0038 0.441087 28.9281C0.441087 28.7768 0.441085 28.9281 0.415991 28.9786C0.315613 29.4579 0.993165 29.6597 1.14373 29.1804C2.24789 25.3964 2.57412 21.562 2.49883 17.6267C2.42355 12.7328 1.77109 7.46053 2.97563 2.6423C3.15129 1.98642 3.32695 1.50712 3.87903 1.1035C4.63187 0.523295 5.3847 0.82601 6.11244 1.30531C7.16641 2.03687 8.04471 3.19728 8.87283 4.15588C10.4789 5.97218 12.0096 7.83892 13.3397 9.88225C15.9495 13.8932 17.7563 18.7367 17.0536 23.6054C16.7776 25.4973 16.2757 27.5911 15.3472 29.2813C14.4689 30.8705 13.1138 32.1319 11.8591 33.4436C11.5329 33.8472 12.0849 34.377 12.4112 34.0238Z" transform="translate(28.1226)" fill="black"/>
<path d="M14.7951 0.13054C11.4325 4.04062 8.64698 8.40477 5.88659 12.7437C3.37714 16.6285 1.2943 20.6647 0.0144799 25.1298C-0.110992 25.6091 0.616748 25.8109 0.74222 25.3316C2.02204 20.917 4.07979 16.9565 6.53905 13.0969C9.27435 8.80839 12.0096 4.51992 15.3472 0.635066C15.6233 0.281898 15.0963 -0.247854 14.7951 0.13054Z" transform="translate(16.0522 0.947723)" fill="black"/>
<path d="M0.357596 3.2047C4.29743 3.17947 7.86085 1.16137 11.7505 0.808202C15.6652 0.455033 19.4796 1.56499 23.1183 2.92721C26.8323 4.31466 30.4459 6.00482 34.2602 7.08955C37.9491 8.14906 41.7635 8.72926 45.5779 8.85539C50.0196 8.98153 54.4362 8.42655 58.7274 7.26614C59.2042 7.14001 59.0034 6.40844 58.5266 6.53457C50.672 8.70403 42.2905 8.62836 34.461 6.38322C27.3593 4.33989 20.6339 -0.0747181 13.0554 0.000960762C8.66387 0.0514134 4.72404 2.42269 0.357596 2.44791C-0.119199 2.44791 -0.119199 3.2047 0.357596 3.2047Z" transform="translate(0 26.127)" fill="black"/>
<path d="M0.758286 10.1014C1.10961 8.41127 1.43584 6.7211 1.78716 5.03094C2.08829 3.51736 2.28905 1.70107 3.64415 0.717245C3.46849 0.540661 3.29283 0.364077 3.11717 0.187493C2.43962 1.60017 2.66547 3.01284 3.24264 4.40028C3.61906 5.33366 4.17114 6.2418 4.44718 7.22563C4.82359 8.5374 4.7734 9.82394 4.47227 11.1357C4.37189 11.615 5.09963 11.8168 5.20001 11.3375C5.57643 9.67258 5.57643 8.00765 4.94906 6.39316C4.24642 4.55164 2.79094 2.60922 3.76962 0.591114C3.92019 0.288398 3.59396 -0.165675 3.24264 0.0613617C2.0632 0.89383 1.6115 2.18037 1.31036 3.54259C0.833569 5.63637 0.457152 7.78061 0.00545154 9.89962C-0.0698319 10.3789 0.657908 10.5807 0.758286 10.1014Z" transform="translate(20.1514 17.4392)" fill="black"/>
<path d="M0.642844 20.5753C2.75078 18.5319 2.47474 15.303 2.47474 12.5785C2.47474 8.51709 2.49983 4.45566 2.49983 0.394221C2.24889 0.394221 1.99795 0.394221 1.747 0.394221C2.17361 3.69887 3.95532 6.57467 4.65796 9.80363C5.05947 11.6956 4.934 13.6128 4.83362 15.5048C4.73324 17.4472 4.63287 19.3644 4.53249 21.3068C4.5074 21.7861 5.26023 21.7861 5.28532 21.3068C5.48608 17.7751 6.08835 13.966 5.56137 10.4343C5.03438 6.92783 2.97663 3.90068 2.52493 0.368995C2.47474 -0.110304 1.7721 -0.135531 1.7721 0.368995C1.7721 3.9259 1.747 7.50804 1.747 11.0649C1.747 13.8903 2.34927 17.8508 0.115859 20.0203C-0.235464 20.3735 0.291521 20.9284 0.642844 20.5753Z" transform="translate(33.1152 12.0107)" fill="black"/>
</svg>
