<svg width="72" height="96" viewBox="0 0 72 96" fill="none" xmlns="http://www.w3.org/2000/svg">
<path d="M10.3228 4.56986C6.7876 5.7927 3.34666 7.20368 -1.43848e-06 8.89685C1.6969 10.8252 4.47792 11.3896 6.69332 12.7065C10.2285 14.7759 12.4439 18.6796 16.0734 20.6079C16.969 21.0783 17.9588 21.4545 18.8544 22.0189C19.7971 22.6303 20.6927 23.5239 21.824 23.7121C22.6253 23.8532 23.4266 23.571 24.1808 23.2888C26.0191 22.5833 27.8574 21.8308 29.6486 20.9842C31.0155 20.3728 32.3353 19.6673 33.7966 19.3381C35.0692 19.0559 36.389 19.0088 37.6146 18.6326C40.2071 17.833 42.0925 15.6695 44.4493 14.3996C46.8061 13.1298 49.6343 12.6594 51.5197 10.7781C49.9171 9.46124 48.3616 8.19136 46.759 6.87445C45.5806 5.93381 44.4022 4.94612 43.1295 4.14657C41.1027 2.82966 38.8873 1.88901 36.6719 0.948363C35.3992 0.383973 33.9851 -0.180413 32.6182 0.0547488C31.0155 0.289911 29.79 1.51276 28.2816 2.07715C27.3861 2.40637 26.3491 2.50044 25.4063 2.31231C25.1235 2.26528 24.8407 2.17121 24.5579 2.26527C24.2751 2.31231 24.0394 2.5945 24.0865 2.8767C24.1337 3.01779 24.1808 3.11186 24.2751 3.20592C25.7834 4.99316 27.9517 6.216 30.2142 6.68632C31.6283 6.96852 33.0895 6.96852 34.4093 7.43884C35.7763 7.90917 36.9547 8.84982 38.0388 9.79047C38.2745 9.97859 38.5102 10.1667 38.5573 10.4489C38.6516 10.7781 38.5102 11.1544 38.3688 11.4836C36.4833 15.1051 32.0525 17.1746 28.046 16.2809C27.2918 16.0928 26.5847 15.8577 25.7834 15.7636C24.7936 15.6225 23.7094 15.8106 22.7667 15.4814C22.1068 15.2462 21.5883 14.7759 20.9284 14.5407C20.1742 14.2586 19.3258 14.3056 18.5245 14.3526C16.4505 14.3996 14.3765 14.0704 12.4439 13.3649C11.3127 12.9887 10.1343 12.3772 9.61576 11.2955C9.09726 10.1667 9.42721 8.89685 9.75716 7.72104C9.99284 6.82742 10.2757 5.9338 10.5113 5.04018" transform="translate(4.67334 65.3839)" fill="#C7E4DD"/>
<path d="M6.75137 0.37626C5.57297 1.12878 5.52583 3.19821 4.20602 3.4804C2.93335 3.71557 1.70781 2.0224 0.57654 2.63382C-0.0362287 2.96305 -0.130498 3.80963 0.152318 4.42105C0.435135 5.03248 1.0479 5.45576 1.66067 5.78499C3.59325 6.81971 5.99719 7.47816 7.03419 9.40649C7.50555 10.206 7.64695 11.1937 8.07118 11.9933C8.73108 13.2631 10.0038 14.1097 11.2293 14.9093C12.4548 15.7088 13.7746 16.5554 15.2359 16.7906C17.5455 17.2139 19.8552 16.1321 22.1649 15.8499C26.3128 15.3796 30.3194 17.5431 34.5145 17.8723C36.5885 18.0134 38.7096 17.7312 40.7836 17.402C41.4435 17.3079 42.1034 17.1668 42.6691 16.8376C43.5175 16.3673 43.9889 15.4266 44.6488 14.7212C46.11 13.075 48.2782 12.2284 49.7866 10.5823C51.672 8.51287 52.0491 5.54983 52.3791 2.77492C52.4733 2.06943 52.5205 1.22284 52.002 0.705485C51.5306 0.235161 50.7765 0.188133 50.1637 0.423295C49.5509 0.658457 49.0324 1.08175 48.5139 1.45801C44.036 4.75028 38.0497 5.17357 33.1947 7.94849C30.7908 9.31243 28.4811 11.3348 25.7472 11.1467C24.0974 11.0526 22.6362 10.159 21.3635 9.1243C20.0909 8.08958 18.9596 6.86674 17.6398 5.92609C15.7072 4.60918 13.3976 3.85666 11.5592 2.35162C10.7579 1.69317 10.0038 0.846587 8.96676 0.658457C8.21258 0.51736 7.26987 0.658453 6.89278 -1.43532e-06" transform="translate(1.59863 78.0904)" fill="#DB786F"/>
<path d="M15.1938 1.87197C16.1365 2.38933 16.5136 3.6592 16.3251 4.74094C16.1365 5.82269 15.5709 6.76334 15.0995 7.75103C14.581 8.73871 14.1568 9.77342 14.2511 10.8552C14.3454 11.8899 14.9581 12.8305 15.5238 13.6771C15.6652 13.9123 15.8537 14.1474 16.0423 14.3356C16.3251 14.5707 16.655 14.7118 16.985 14.9C18.4462 15.5584 19.9074 16.2639 21.3686 16.9224C22.6885 17.5338 24.0554 18.1452 25.4695 18.3804C26.8364 18.5685 28.4862 18.5215 29.2875 19.6502C29.806 20.3557 29.7589 21.3904 29.3818 22.19C29.0047 22.9895 28.3448 23.648 27.732 24.2594C26.9778 24.9649 26.1765 25.7174 25.1867 26.1407C22.877 27.1284 20.2374 26.2348 17.7392 26.1407C16.5136 26.0937 15.2881 26.2348 14.0626 25.9526C12.7899 25.6704 11.6115 24.9179 10.3388 24.7297C9.1604 24.5416 7.982 24.8238 6.85073 24.5416C5.29524 24.2124 4.02257 22.9895 2.41995 22.9425C1.90145 22.9425 1.33582 23.0366 0.911594 22.7544C0.534505 22.5192 0.393095 22.0489 0.298823 21.6256C-0.0311292 20.1206 -0.0782695 18.5215 0.110275 16.9694C0.157411 16.4991 0.29882 15.9817 0.487365 15.5584C0.723045 15.0881 1.053 14.7118 1.38295 14.2885C2.2314 13.1127 2.79703 11.7488 3.55121 10.4789C4.5882 8.59761 5.90802 6.95148 7.27496 5.30534C8.17055 4.22359 9.01899 3.14184 9.91458 2.0601C10.6216 1.16648 11.4229 0.272865 12.5071 0.0377026C13.6855 -0.19746 15.0053 0.696157 15.241 1.919" transform="translate(14.0845 55.5712)" fill="#DB786F"/>
<path d="M25.3632 7.17658e-07C24.0434 0.235163 23.1007 1.36394 22.2051 2.35162C20.2254 4.56215 17.9157 6.49048 15.4175 8.08958C14.899 8.41881 14.2862 8.74804 13.6735 8.65397C12.6836 8.51288 12.118 7.29003 11.1281 7.1019C10.5153 6.9608 9.90258 7.243 9.38408 7.57223C6.83873 9.17133 5.2361 11.8522 3.68061 14.439C2.69076 16.1321 1.7009 17.8253 0.711048 19.4714C0.333959 20.0829 -0.0431292 20.7883 0.00400683 21.4938C0.0511429 22.1993 0.805316 22.9518 1.46522 22.7167C1.84231 22.5756 2.07799 22.2463 2.31367 21.9171C3.68062 19.8947 5.00043 17.8253 6.36737 15.8029C6.98014 14.8623 7.64004 13.9216 8.53563 13.2161C9.85544 12.2284 11.6938 11.8992 13.2021 12.5577C14.7105 13.2161 15.7475 14.9093 15.5589 16.5554C15.3704 17.9194 14.4748 19.0952 14.2391 20.4591C14.3334 20.6943 14.7105 20.5532 14.899 20.3651C15.9831 19.4244 17.0201 18.4838 18.1042 17.5901C19.047 16.7906 20.0368 15.7088 19.8483 14.533C19.6597 13.4983 18.6699 12.8399 18.3399 11.8522C17.9628 10.6764 18.6699 9.40649 19.7069 8.701C20.7439 7.99552 21.9694 7.80739 23.1949 7.61926" transform="translate(15.4634 43.1453)" fill="#F8D24F"/>
<path d="M5.75391e-06 7.05487C0.235686 7.1019 0.377094 6.86674 0.471366 6.67861C1.50836 4.56215 2.21539 2.30459 2.49821 -7.17658e-07" transform="translate(38.3755 43.7097)" fill="#F8D24F"/>
<path d="M10.4241 0.564391C10.4712 0.282196 10.8012 0.0470339 11.1311 0.0940664C10.3298 0.893618 9.52848 1.69317 8.72717 2.49272C8.44435 2.77492 8.11441 3.10414 7.73732 3.29227C7.21883 3.52743 6.60605 3.4804 6.04042 3.66853C4.15498 4.27995 3.87216 6.72564 2.92944 8.46584C2.2224 9.82978 0.996861 10.8645 0.336956 12.2755C-0.322949 13.6864 -0.0401313 15.7559 1.42109 16.1792C4.20211 13.9216 6.7946 11.4759 9.1514 8.79507C10.1413 11.9462 6.936 15.0504 7.36023 18.2956C6.79459 17.8723 6.18182 17.449 5.47478 17.355C4.76774 17.2609 3.96644 17.5431 3.68362 18.1545C3.30653 18.9541 3.9193 19.8947 4.5792 20.5062C7.12455 22.6696 11.4611 22.1993 13.5351 19.5655C13.9593 19.0481 14.2892 18.4367 14.7606 17.9194C15.2791 17.355 15.939 16.9317 16.4575 16.3673C16.976 15.8029 17.3531 15.0034 17.0703 14.2979C16.8346 13.6394 16.0804 13.2161 15.8919 12.5577C15.7504 12.1344 15.8919 11.664 15.9861 11.2408C16.5046 9.21836 17.0703 7.243 17.5888 5.2206C17.8244 4.37402 18.013 3.43337 17.4945 2.77491C17.2117 2.39866 16.7403 2.21053 16.3161 2.0224C14.6663 1.31691 13.0166 0.658454 11.3668 -7.17658e-07" transform="translate(31.1099 33.3625)" fill="#F2B1AA"/>
<path d="M4.01882 33.0212C2.4162 33.1152 0.860705 32.1275 0.2008 30.6695C0.0593918 30.3873 -0.0348775 30.0581 0.0122586 29.7289C0.0593947 29.3997 0.247936 29.0704 0.43648 28.7882C1.42634 27.2362 2.46334 25.6841 3.4532 24.1791C4.58447 22.4859 5.66858 20.7927 6.79985 19.0525C7.74257 17.5945 8.68529 16.1365 9.62801 14.6785C11.6549 11.4333 13.4932 8.04693 14.1531 4.28433C14.2945 3.34368 14.3888 2.30897 15.0015 1.55645C15.8971 0.333608 17.6412 0.145479 19.1966 0.0514136C22.9675 -0.136716 27.3983 0.0514135 29.6137 3.06149C31.2635 5.31905 31.0749 8.51725 29.9437 11.057C28.7653 13.5968 26.8327 15.6662 24.9472 17.7826C20.0451 23.4265 15.7557 29.6348 12.3148 36.2194C12.032 36.7367 11.7491 37.3011 11.2778 37.6303C10.0522 38.4769 8.35534 37.6303 7.31835 36.5486C6.32849 35.4669 5.48004 34.0559 4.06596 33.5385" transform="translate(40.5791 0.482498)" fill="#2E555B"/>
<path d="M9.94401 0.513995C9.56693 2.34826 8.95416 4.08846 7.91717 5.68756C6.88018 7.28667 5.46609 8.27435 4.28769 9.73236C3.72205 10.4378 3.29783 11.1433 3.15642 12.084C2.96788 13.4479 3.53352 13.7771 2.35512 15.1411C1.97803 15.5644 1.41239 15.8466 1.0353 16.2699C0.0925795 17.3046 -0.614461 19.2329 0.79962 20.2206C1.83661 20.9261 3.43924 20.4558 4.57051 20.6909C6.2674 20.9731 7.9643 21.7727 9.23697 22.9485C10.3682 23.9832 11.4524 26.8992 13.385 25.6293C14.4219 24.9709 14.8462 23.5129 15.3647 22.5252C16.166 20.9731 16.9673 19.421 17.8629 17.869C21.3981 11.8488 25.7817 6.39305 30.8253 1.50168C31.4852 0.890256 30.4953 -0.144459 29.8354 0.513995C25.876 4.32362 22.3408 8.50951 19.277 13.0246C17.6272 15.4703 16.1188 18.0571 14.7048 20.6909C14.1391 21.8197 13.4792 24.4065 11.7823 23.6069C11.1224 23.3247 10.274 21.8667 9.66121 21.3964C8.05858 20.1265 6.126 19.327 4.09914 19.1388C3.01502 19.0448 2.82648 19.421 2.35512 18.1512C1.93089 16.9283 2.16657 17.1635 2.92074 16.458C3.53351 15.9406 4.05201 15.4233 4.38196 14.6708C4.99473 13.0246 4.38196 11.6137 5.74891 10.1556C6.59736 9.26203 7.54008 8.46248 8.34139 7.42777C9.84974 5.49944 10.7453 3.24188 11.2638 0.843223C11.4995 -0.0033615 10.1326 -0.379622 9.94401 0.513995Z" transform="translate(39.3203 13.8004)" fill="black"/>
<path d="M12.0831 1.52775C12.1303 1.52775 12.1303 1.48072 12.1774 1.48072C12.5074 1.29259 12.6016 0.822263 12.4131 0.493036C12.3659 0.446003 12.3659 0.39897 12.3188 0.351937C12.1303 0.02271 11.6589 -0.118387 11.329 0.116775C10.999 0.304905 10.999 0.587099 10.7633 0.822262C9.3021 2.37433 9.67919 2.28027 8.21798 3.03279C7.84089 3.22092 7.4638 3.40905 7.08671 3.69124C5.57836 4.86705 5.05985 6.79538 4.06999 8.30042C2.3731 10.9342 -2.43478 13.8973 1.52465 17.0955C2.23169 17.6599 3.22155 16.6722 2.51451 16.1078C-0.172247 13.9443 2.84446 11.9219 4.21141 10.4169C5.107 9.4292 5.67263 8.25339 6.28539 7.07758C6.61535 6.41913 6.9453 5.71364 7.4638 5.19628C8.21797 4.39673 9.25497 4.25563 10.1506 3.69124C10.5748 3.40905 10.9519 3.12685 11.2818 2.70356C11.4232 2.56246 11.8475 1.43368 11.9889 1.33962C11.6589 1.24555 11.329 1.15149 10.999 1.10446C11.0461 1.15149 11.0461 1.19852 11.0933 1.24555C11.1876 0.916327 11.2818 0.587101 11.329 0.257874C11.2818 0.257874 11.2818 0.304905 11.2347 0.304905C10.5748 0.728198 11.2818 1.95104 12.0831 1.52775Z" transform="translate(30.1108 32.3051)" fill="black"/>
<path d="M26.0505 0.0102285C24.3536 0.245391 23.4581 1.5623 22.3739 2.78514C20.7713 4.66644 18.8387 6.924 16.6705 8.14684C15.822 8.61717 15.115 8.94639 14.3137 8.42904C13.748 8.05278 13.8894 7.77058 13.4652 7.39432C13.1353 7.0651 12.8996 6.73587 12.3811 6.59477C10.9199 6.21851 9.55293 7.67652 8.65734 8.57013C5.64063 11.5802 2.90674 14.9195 1.20984 18.8232C0.691346 20.0461 -0.487059 22.2566 0.219982 23.6205C0.691343 24.5612 1.58693 24.6552 2.43538 24.2319C3.23669 23.8557 2.52965 22.6328 1.72834 23.0091C1.35125 23.1972 2.05829 20.4693 2.15256 20.2812C2.52965 19.2935 2.95388 18.3059 3.47238 17.3652C4.27369 15.8602 5.26354 14.4492 6.34767 13.1323C7.38466 11.8154 8.6102 10.2163 9.93001 9.22859C10.26 8.71123 10.7785 8.47607 11.4384 8.47607C12.0983 7.95871 12.4754 8.05278 12.6168 8.71123C12.9467 8.94639 13.041 9.46375 13.4181 9.74595C15.0207 10.8277 17.0476 9.60485 18.3202 8.61717C19.7343 7.53542 21.0541 6.26554 22.2797 4.99567C23.4581 3.77282 24.5893 1.60933 26.4276 1.32714C27.3232 1.23307 26.9461 -0.130869 26.0505 0.0102285Z" transform="translate(14.5874 42.1474)" fill="black"/>
<path d="M1.20175 15.0549C2.66297 13.6439 4.31272 13.1266 5.96248 12.0448C6.90521 11.4334 7.61225 10.6809 7.70652 9.55209C7.84793 8.18815 7.09375 7.01233 6.38671 5.97762C4.50126 3.24974 7.2823 1.69767 9.82765 1.41547C10.7232 1.32141 10.7232 -0.0895655 9.82765 0.00449943C7.8008 0.239662 3.93563 1.6036 3.84136 4.09632C3.79423 4.80181 4.31273 5.5073 4.68982 6.07169C4.97264 6.49498 5.39686 6.87124 5.5854 7.34156C5.91535 8.09408 5.58539 10.4927 4.97262 11.0101C4.31272 11.5745 3.2286 11.8096 2.52156 12.2329C1.67311 12.7503 0.918928 13.3617 0.211887 14.0672C-0.448018 14.6786 0.588979 15.6663 1.20175 15.0549Z" transform="translate(28.5005 49.5372)" fill="black"/>
<path d="M3.01263 3.01008C2.91836 5.45576 2.63553 7.71332 1.64568 9.97088C1.03291 11.3819 0.278733 12.7458 0.0430532 14.2979C-0.239763 16.1792 0.8915 17.449 2.82408 16.4614C4.04962 15.8499 4.47385 14.6741 5.13376 13.5924C6.17075 11.8992 7.49056 11.664 8.8575 10.4412C9.84736 9.50056 10.2716 8.08958 10.6487 6.81971C10.8843 6.06719 11.0729 1.45801 11.6857 1.41098C11.45 1.22285 11.2143 1.08175 11.0258 0.893615C11.0258 0.940648 11.0258 0.987682 11.0729 1.03471C11.1672 0.752519 11.3086 0.517358 11.4028 0.235164C11.3557 0.235164 11.3557 0.282195 11.3086 0.282195C10.5544 0.75252 11.2614 1.97536 12.0156 1.50504C12.0627 1.50504 12.0628 1.45801 12.1099 1.45801C12.3927 1.26988 12.5341 0.98768 12.4398 0.658453C12.4398 0.611421 12.4398 0.56439 12.3927 0.517358C12.3456 0.235163 12.0156 1.43532e-06 11.7328 1.43532e-06C10.2245 0.0940664 9.80022 1.7402 9.70595 3.01008C9.61167 4.65621 9.61168 6.44345 8.81036 7.94848C7.86764 9.68869 6.59497 9.87682 5.27516 11.0526C4.47385 11.7581 4.2853 12.6988 3.67254 13.4983C3.57826 13.6864 3.43685 13.8746 3.34258 14.1097C1.78709 14.5801 1.2686 14.2979 1.83423 13.2632C1.88137 12.5577 2.49414 11.6641 2.77695 11.0526C3.95535 8.41881 4.37957 5.92609 4.52098 3.05711C4.47384 2.11646 3.05977 2.11646 3.01263 3.01008Z" transform="translate(37.7197 36.5137)" fill="black"/>
<path d="M3.98197 1.42098C3.79342 1.60911 4.02911 2.12647 4.07624 2.3146C4.12338 2.64383 4.17051 2.97305 4.17051 3.30228C4.17051 3.58448 4.21765 4.10183 3.74629 4.14887C3.51061 4.14887 3.13351 3.72557 2.99211 3.58448C2.19079 2.87899 1.38949 2.40867 0.352498 2.92602C-0.448815 3.34932 0.258226 4.52513 1.05954 4.14887C1.48376 3.91371 2.28507 4.90139 2.61502 5.13655C3.03925 5.41874 3.51061 5.65391 3.98197 5.55984C4.92469 5.46578 5.39605 4.61919 5.49033 3.77261C5.5846 2.83196 5.53746 1.42099 4.97183 0.621433C4.50047 -0.0840533 3.55775 -0.225151 2.94498 0.386271C2.33221 1.04473 3.32206 2.07944 3.98197 1.42098Z" transform="translate(43.6792 45.1107)" fill="black"/>
<path d="M5.27283 0.242039C4.8486 0.806428 4.37725 1.37082 3.95302 1.93521C3.67021 2.31147 3.10457 3.29915 2.63321 3.39321C2.82175 3.44024 3.0103 3.44024 3.19884 3.48728C3.05744 3.39321 2.8689 2.59366 2.82176 2.3585C2.72749 2.02927 2.58607 1.74708 2.39753 1.46488C2.02044 0.947525 1.54909 0.571266 0.88918 0.477201C-0.00640488 0.336104 -0.383502 1.70004 0.512083 1.84114C1.9733 2.0763 1.36054 4.80419 2.96316 4.80419C3.71734 4.80419 4.09442 4.0987 4.51865 3.58134C5.13142 2.82882 5.7442 2.0763 6.35697 1.27675C6.87546 0.524232 5.8856 -0.463448 5.27283 0.242039Z" transform="translate(41.6816 49.2056)" fill="black"/>
<path d="M9.80857 0.358243C8.63017 1.43999 7.26323 2.85096 5.56633 2.94503C3.68089 3.03909 2.31393 1.43999 1.18267 0.217147C0.569896 -0.441307 -0.419949 0.546374 0.192819 1.20483C1.6069 2.80393 3.3038 4.45007 5.56633 4.356C7.68745 4.26194 9.38434 2.70987 10.8456 1.34593C11.4583 0.734505 10.4685 -0.300212 9.80857 0.358243Z" transform="translate(33.9409 52.0995)" fill="black"/>
<path d="M16.2295 9.34773C16.0409 7.79565 18.1149 6.85501 18.5392 5.49107C18.9162 4.40932 18.5863 3.28054 17.8792 2.38692C16.5123 0.599687 12.8357 -0.90535 10.9502 0.646721C9.63043 1.72847 8.78199 3.56273 7.79213 4.97371C6.42518 6.9961 5.0111 9.0185 3.64415 11.0409C2.7957 12.3108 1.75872 13.5336 1.38163 15.0387C1.09881 16.1204 1.09881 17.0611 0.627449 18.0958C0.344632 18.7072 0.10895 19.2716 0.0146783 19.93C-0.173866 22.1406 1.4759 24.3981 3.69129 24.7744C4.82256 24.9625 5.90668 24.7744 6.94368 25.2917C7.69785 25.668 8.07495 26.0442 8.97053 26.2794C9.63043 26.4205 10.2903 26.3735 10.9031 26.4205C12.3643 26.5146 13.2599 27.173 14.5797 27.6433C16.2766 28.2077 18.2563 27.9255 20.0475 27.9255C21.8387 27.8785 24.1955 28.3018 25.8924 27.6433C27.2122 27.173 28.202 25.715 29.0976 24.7744C30.0403 23.7867 31.5958 22.6109 31.6901 21.1058C31.9729 16.967 25.6567 18.5191 23.677 17.2962C22.8757 16.7789 22.3572 16.2615 21.4616 15.8382C20.4717 15.4149 19.4347 15.3208 18.3977 14.9916C15.5696 14.098 14.2969 10.7587 16.4652 8.45411C17.0779 7.79566 16.0881 6.80797 15.4753 7.46643C13.967 9.06553 13.5427 11.3701 14.4383 13.3925C15.8995 16.7318 19.7647 16.1674 22.3572 18.0017C23.2999 18.6601 24.1012 19.0834 25.2796 19.2245C26.3166 19.3656 27.7307 18.9423 28.7205 19.4127C31.7373 20.7766 28.7205 23.1282 27.8721 24.0219C27.3536 24.5392 26.8822 25.3388 26.2223 25.762C24.9496 26.6557 23.2528 26.4205 21.8387 26.4205C19.5761 26.4675 16.8894 26.8438 14.7683 26.0442C13.1185 25.4328 12.0344 25.0566 10.2432 24.9155C8.49917 24.7744 7.46217 23.4575 5.76528 23.3164C4.25692 23.1753 3.07852 23.5515 2.04153 22.0465C1.05167 20.5885 1.75871 19.6008 2.23007 18.1428C2.70143 16.6848 2.74857 15.1327 3.50275 13.7688C4.49261 11.9815 5.81242 10.3354 6.99082 8.64224C7.69786 7.60752 8.35776 6.61984 9.0648 5.58513C9.67757 4.69151 10.3375 3.28054 11.1388 2.52802C12.6 1.21111 14.0141 1.25814 15.4753 2.10473C16.6537 2.62208 17.1722 3.6568 17.0779 5.2559C16.7951 5.67919 16.418 6.10248 16.0409 6.47874C15.2868 7.37236 14.674 8.07785 14.8154 9.25366C14.9097 10.2413 16.3238 10.2413 16.2295 9.34773Z" transform="translate(13.3789 54.774)" fill="black"/>
<path d="M0.652265 0.187122C-0.526137 1.22184 -0.00764439 3.1972 1.40644 3.71456C2.25489 3.99675 2.63198 2.63281 1.78353 2.35062C1.31217 2.16249 1.31217 1.457 1.64212 1.17481C2.34916 0.610417 1.35931 -0.4243 0.652265 0.187122Z" transform="translate(22.5923 61.3008)" fill="black"/>
<path d="M0.583739 0.242036C-0.0290298 0.994555 -0.217577 2.02927 0.30092 2.92288C0.819416 3.76947 1.85641 4.0987 2.79913 3.91057C3.69472 3.72244 3.31763 2.3585 2.42204 2.54663C1.66787 2.73476 1.10223 1.88817 1.57359 1.27675C2.18636 0.524229 1.19651 -0.463451 0.583739 0.242036Z" transform="translate(21.5771 69.1474)" fill="black"/>
<path d="M0.470738 0.21088C-0.0948949 0.775269 -0.142028 1.66889 0.282197 2.32734C0.800693 3.03283 1.69628 3.22096 2.49759 3.07986C2.87468 3.03283 3.06322 2.5625 2.96895 2.23328C2.87468 1.80998 2.49759 1.66889 2.1205 1.76295C1.88482 1.80998 1.602 1.76295 1.41346 1.57482C1.31919 1.43372 1.31919 1.33966 1.41346 1.24559C2.16764 0.587138 1.13064 -0.447574 0.470738 0.21088Z" transform="translate(26.8276 73.5526)" fill="black"/>
<path d="M0 0.670215C0 1.98712 1.1784 3.16294 2.54534 3.02184C2.92243 2.97481 3.25239 2.73964 3.25239 2.31635C3.25239 1.98712 2.92243 1.56383 2.54534 1.61086C1.97971 1.6579 1.41408 1.28164 1.41408 0.670215C1.46122 -0.223401 0.0471361 -0.223401 0 0.670215Z" transform="translate(33.332 75.4919)" fill="black"/>
<path d="M0.106197 1.04216C0.483285 1.70061 1.14319 2.17094 1.85023 2.31203C2.22732 2.35907 2.60441 2.21797 2.69868 1.84171C2.79295 1.51248 2.60441 1.04216 2.22732 0.99513C1.8031 0.901065 1.52028 0.759966 1.2846 0.383707C0.860374 -0.462878 -0.365164 0.242606 0.106197 1.04216Z" transform="translate(29.7847 70.9341)" fill="black"/>
<path d="M0.244153 0.510962C0.00847283 1.40458 -0.180076 2.39226 0.291285 3.23885C0.668373 3.8973 1.37541 4.41466 2.17673 4.32059C3.07231 4.22653 3.07231 2.81556 2.17673 2.90962C1.13973 3.00368 1.46969 1.45161 1.6111 0.887223C1.79964 -0.00639366 0.432697 -0.382655 0.244153 0.510962Z" transform="translate(18.6172 72.6411)" fill="black"/>
<path d="M12.7837 5.29215C8.68282 6.37389 4.58199 7.50267 0.528285 8.58442C0.009788 8.72551 -0.178755 9.38397 0.198334 9.76023C4.44058 13.6639 9.20132 15.9685 14.1506 18.7434C17.7801 20.7188 20.9382 25.8453 25.4633 25.8453C27.4901 25.8453 29.2341 24.8106 30.8368 23.7289C33.3821 22.0357 35.9275 21.048 38.8499 20.2014C44.412 18.6023 49.3612 15.4512 54.4048 12.7233C54.9233 12.4411 54.829 11.7826 54.4048 11.5004C49.6441 8.06706 44.7419 4.82182 39.6983 1.85877C38.19 0.965158 36.3517 -0.492851 34.4663 0.165604C33.5235 0.494831 32.8636 1.24735 32.0152 1.76471C30.2711 2.75239 28.2914 3.03458 26.3117 2.75239C25.4161 2.61129 25.039 3.97524 25.9346 4.11633C27.9143 4.44556 29.8469 4.30446 31.6852 3.50491C32.8165 2.98755 33.7121 2.28207 34.8905 1.90581C36.2574 1.48252 36.6816 1.85878 37.8129 2.4702C38.4257 2.79943 39.0385 3.17569 39.6512 3.55195C44.4591 6.37389 49.1256 9.47803 53.6506 12.7703C53.6506 12.347 53.6506 11.9708 53.6506 11.5475C48.9842 14.0872 44.3177 17.1443 39.227 18.6494C37.0587 19.3078 34.8433 19.7781 32.8165 20.8129C30.6954 21.8946 28.9042 23.7759 26.5474 24.2933C23.8135 24.9517 21.5981 22.9293 19.7598 21.2361C18.2043 19.8252 16.6488 18.5553 14.8105 17.5206C9.90836 14.8397 5.28903 12.5822 1.14105 8.77254C1.04678 9.1488 0.952512 9.57209 0.811104 9.94835C4.91194 8.86661 9.01278 7.73783 13.0665 6.65608C14.0092 6.37389 13.6321 5.05698 12.7837 5.29215Z" transform="translate(2.49512 64.1443)" fill="black"/>
<path d="M7.8365 0.372555C7.17659 1.68946 6.04532 2.67714 4.48983 2.77121C3.68852 2.81824 3.02862 2.39495 2.27444 2.44198C1.37886 2.48901 0.766083 2.95934 0.341859 3.71185C-0.977951 6.34567 1.80308 7.99181 3.9242 8.60323C5.38542 9.02653 6.75237 9.21465 7.74223 10.6256C8.30786 11.4252 8.4964 12.4129 8.82635 13.3065C9.25058 14.3882 9.72194 15.4229 10.6175 16.2225C13.1157 18.48 17.4051 18.9974 20.6104 18.8093C22.6372 18.6682 24.4284 18.1038 26.3138 17.4924C29.0477 16.6458 30.6504 18.1038 33.1957 18.6682C36.6838 19.4677 40.3132 18.5271 43.5656 17.2102C46.7709 15.8933 50.3061 14.2471 52.4272 11.4252C54.5012 8.65027 54.9254 5.12283 53.8884 1.87759C53.6056 1.03101 52.2387 1.40727 52.5215 2.25385C55.2082 10.5316 46.4881 15.2348 39.7476 17.022C37.7208 17.5394 35.5996 17.7746 33.5728 17.3042C32.0644 16.928 30.7446 15.9873 29.1891 15.6581C28.0107 15.4229 27.0209 15.7051 25.9367 16.0814C24.1456 16.6928 22.4958 17.2102 20.6104 17.3513C17.358 17.5394 12.3616 17.022 10.6175 13.8709C9.53339 11.8955 9.48626 9.54388 7.36514 8.274C6.23387 7.61555 4.91406 7.47445 3.68852 7.05116C2.41585 6.58084 0.294724 4.22921 2.60439 3.85295C2.93434 3.80592 3.49998 4.08812 3.9242 4.13515C6.18673 4.27625 8.16645 3.00637 9.10917 1.07804C9.48626 0.27849 8.26072 -0.474029 7.8365 0.372555Z" transform="translate(0.183594 76.9653)" fill="black"/>
</svg>
