<svg width="62" height="56" viewBox="0 0 62 56" fill="none" xmlns="http://www.w3.org/2000/svg">
<path d="M4.89691 0C4.14274 0.0940649 3.62423 0.799549 3.0586 1.36394C2.44583 1.97536 1.64453 2.39865 0.984627 3.01007C0.324722 3.6215 -0.146639 4.51511 0.0419055 5.3617C0.418994 7.05486 2.91721 7.19597 4.04847 8.51288C5.03833 9.68869 4.84978 11.57 5.83964 12.6988C6.9709 14.0157 8.99773 13.7805 10.7418 13.7805C15.314 13.6864 19.6505 15.6148 23.987 17.1198C25.5896 17.6842 27.1923 18.1545 28.8892 18.1545C31.0103 18.1545 33.0843 17.3079 35.2525 17.2139C36.6195 17.1198 38.0336 17.355 39.3534 17.1668C43.2185 16.6495 45.811 13.075 49.2991 11.3348C50.8074 10.5823 52.5043 10.159 53.9655 9.31243C54.2484 9.17133 54.484 8.9832 54.6726 8.701C54.8611 8.37178 54.9083 7.99552 54.9083 7.66629C55.0025 5.5028 55.0497 3.10414 53.6827 1.45801C53.5885 1.31691 53.4471 1.22284 53.3057 1.17581C53.1642 1.12878 53.0228 1.17581 52.8343 1.22285C49.5348 2.25756 46.3295 3.57447 43.1242 4.84434C40.7203 5.83203 38.3635 6.77267 35.9596 7.76035C33.1785 8.88913 30.3975 10.0179 27.7107 11.3348C26.8152 11.7581 25.8724 12.2284 24.8826 12.2284C22.5729 12.2284 21.0646 9.87682 18.9906 8.9832C18.2364 8.65397 17.4351 8.51288 16.7752 8.04255C16.2096 7.61926 15.8325 6.9608 15.2668 6.53751C14.5127 6.02015 13.5699 5.92609 12.7215 5.64389C9.65765 4.51512 8.05502 0.423295 4.80264 0.282198" transform="translate(3.79883 37.2909)" fill="#DB786F"/>
<path d="M7.34596 0.893619C5.0363 1.17581 2.86803 2.25756 0.79404 3.29227C0.369816 3.52743 -0.14867 3.95073 0.0398747 4.37402C0.134147 4.60918 0.416946 4.70324 0.699762 4.79731C3.00943 5.54983 5.17769 6.67861 7.15741 8.13661C11.164 11.0997 14.3221 15.4737 19.0357 17.1668C19.7899 17.449 20.5912 17.6372 21.3454 18.0134C22.618 18.6249 23.7022 19.7066 25.0691 20.1769C26.6717 20.6943 28.4158 20.318 29.9713 19.6125C31.4796 18.907 32.8466 17.9194 34.3549 17.1668C36.1932 16.2732 38.2201 15.8029 40.1055 15.0974C41.4253 14.5801 42.7451 13.9686 44.0178 13.3572C47.0345 11.8992 50.0512 10.4412 53.0679 8.9832C54.812 8.13662 56.6974 7.14893 57.593 5.40873C55.519 4.18589 53.445 2.96304 51.371 1.7402C50.3812 1.17581 49.3913 0.564388 48.4015 -1.43532e-06C47.9772 0.517356 48.2129 1.36394 48.59 1.92833C48.9671 2.49272 49.4856 3.01008 49.627 3.71557C49.7684 4.70325 48.9671 5.59686 48.2601 6.30235C46.9403 7.57223 45.5261 8.88914 43.735 9.35946C42.7451 9.59462 41.7553 9.54759 40.7654 9.82979C38.2672 10.4882 36.4761 12.8399 33.9778 13.5924C31.4325 14.3449 28.51 13.2631 26.1061 14.439C25.4462 14.7212 24.7863 15.1915 24.1264 14.9563C23.7022 14.8152 23.4665 14.3919 23.1837 14.0627C21.8167 12.4636 19.5071 12.0873 17.4331 11.7111C16.5846 11.57 15.6419 11.3348 15.0291 10.6764C14.7463 10.3942 14.5578 10.0179 14.3221 9.68869C13.6151 8.74804 12.4366 8.32474 11.3997 7.76035C9.84416 6.91377 8.57148 5.69093 7.29881 4.51512C7.06313 4.27995 6.82747 4.04479 6.63892 3.76259C6.26183 3.01008 6.68606 2.0224 7.34596 1.45801" transform="translate(2.62256 29.3894)" fill="#C7E4DD"/>
<path d="M13.5281 3.29266C12.2082 3.38672 10.9827 4.04517 10.1342 5.07988C9.89857 5.36208 9.71002 5.64428 9.42721 5.83241C9.00298 6.1146 8.48449 6.1146 8.01313 6.1146C6.78759 6.06757 5.56206 5.97351 4.33652 5.73834C3.06384 5.50318 1.60262 5.26802 0.707035 6.16163C0.0942664 6.82009 -5.75391e-06 7.80777 -5.75391e-06 8.70139C-5.75391e-06 8.98358 5.74549e-06 9.31281 0.18855 9.54797C0.329958 9.7361 0.565644 9.78314 0.754189 9.8772C2.7339 10.5357 4.57221 11.5704 6.17484 12.9813C6.55192 13.3106 6.88187 13.6398 7.25896 13.922C7.77746 14.2512 8.34309 14.4864 8.90872 14.7215C10.04 15.1919 11.2184 15.6622 12.3496 16.0855C12.8681 16.2736 13.3866 16.5088 13.858 16.791C14.2822 17.0732 14.6122 17.4024 14.9893 17.6846C15.9791 18.3901 17.1104 18.8604 18.1945 19.2837C19.1844 19.66 20.2685 20.0832 21.3526 20.0362C21.9654 19.9892 22.5782 19.801 23.1909 19.6129C24.0394 19.3307 24.8878 19.0956 25.7834 18.8134C27.0561 18.4371 28.3759 18.0138 29.5543 17.4024C31.9583 16.2266 33.938 14.3923 36.3419 13.3106C37.5675 12.7462 38.8401 12.4169 40.0185 11.8055C41.1969 11.1941 42.2811 10.3005 42.7053 9.03061C43.1295 7.8548 42.8467 6.53789 42.5639 5.31505C42.3753 4.46846 42.1396 3.52782 41.3854 3.05749C40.6784 2.58717 39.7357 2.72827 38.8872 2.44607C38.2273 2.25794 37.6146 1.78761 37.0018 1.45839C34.4565 0.000380583 31.3926 -0.0936843 28.4702 0.047413C23.7094 0.235543 18.9016 0.799932 14.5179 2.6342C13.9523 2.86936 13.4338 3.10452 12.9153 3.33968" transform="translate(8.50732 24.6388)" fill="#DB786F"/>
<path d="M7.0704 8.70323C7.58889 8.42104 8.20166 9.07949 8.72016 8.93839C9.23866 8.79729 9.28579 8.09181 9.19152 7.52742C9.14438 7.10413 8.95585 6.58677 8.57876 6.6338C8.39021 5.88128 9.56862 5.50502 9.85144 4.79954C9.94571 4.61141 9.9457 4.37624 9.99284 4.14108C9.99284 3.76482 9.99286 3.38856 9.80431 3.05934C9.61577 2.73011 9.23868 2.49495 8.86159 2.58901C8.34309 2.73011 8.06027 3.48263 7.49463 3.48263C7.11755 3.48263 6.7876 3.10637 6.74047 2.68307C6.69333 2.25978 6.74046 1.88352 6.64619 1.50726C6.50478 0.660679 5.65633 -0.0448059 4.76075 0.00222654C3.86516 0.049259 3.11098 0.801774 3.01671 1.69539C3.01671 1.93055 3.01671 2.16572 2.87531 2.35385C2.78103 2.44791 2.59248 2.49494 2.45107 2.54198C1.13126 2.91824 -0.0471246 4.23514 0.3771 5.55205C0.424236 5.78721 0.565627 5.97535 0.565627 6.21051C0.659899 6.916 -1.15078e-05 7.48038 -1.15078e-05 8.18587C0.0471246 8.84433 0.707041 9.36168 1.36695 9.40872C2.02685 9.45575 2.68674 9.17355 3.29951 8.89136C3.86515 9.64388 3.81803 10.8197 4.61935 11.337C5.18498 11.7133 6.03342 11.4781 6.31623 10.8667C6.64618 10.2083 6.36338 9.22058 6.97615 8.84432" transform="translate(21.1396 24.8721)" fill="#F8D24F"/>
<path d="M8.29596 7.63026C8.29596 8.24168 9.14439 8.47685 9.66289 8.19466C10.1814 7.91246 10.3699 7.254 10.4171 6.68961C10.4642 6.17226 10.3699 5.56083 9.89857 5.27864C10.6527 4.80831 11.3598 4.1969 11.5483 3.35031C11.7369 2.50373 10.9827 1.46901 10.1342 1.65714C9.71002 1.75121 9.19153 2.08043 8.95585 1.7512C8.86157 1.61011 8.86157 1.37495 8.86157 1.18682C8.7673 0.434297 7.91886 0.0580376 7.16468 0.0110051C6.45764 -0.0360273 5.75059 0.0580376 5.18496 0.48133C4.61933 0.904622 4.33651 1.70418 4.61932 2.3156C3.77087 2.08044 2.78103 1.93934 1.97971 2.3156C1.1784 2.69186 0.612757 3.72657 1.08412 4.52612C1.17839 4.66722 1.3198 4.80832 1.3198 4.99645C1.41407 5.51381 0.707029 5.796 0.377077 6.17226C0.0942606 6.50149 0.0471303 6.92478 -5.75391e-06 7.34807C-5.75391e-06 8.00653 0.0471246 8.66498 0.377077 9.22937C0.707029 9.79376 1.31981 10.217 1.97971 10.2641C3.06384 10.2641 3.81802 9.22937 4.33652 8.28872C4.85501 8.61795 4.61932 9.51156 5.09068 9.79376C5.27923 9.88782 5.51493 9.88783 5.70347 9.84079C6.83474 9.60563 7.77744 8.57091 7.91885 7.44213" transform="translate(11.5708 18.0906)" fill="#F8D24F"/>
<path d="M8.28417 7.42534C8.84981 7.84863 9.3683 8.27192 9.93394 8.69521C10.1225 8.83631 10.3581 9.02445 10.5938 9.02445C11.1123 9.07148 11.4423 8.46005 11.6308 7.98973C11.8194 7.5194 11.9608 6.86095 11.5837 6.53172C11.3952 6.39063 11.1595 6.34359 11.0181 6.2025C10.641 5.82624 11.0181 5.21482 11.1595 4.69746C11.3009 4.3212 11.3009 3.89791 11.3009 3.47462C11.3009 2.67506 11.2066 1.73441 10.4995 1.40519C9.93391 1.12299 9.22689 1.45222 8.75553 1.87551C8.28417 2.2988 7.95421 2.86319 7.38858 3.19242C7.1529 2.72209 7.29429 2.15771 7.20002 1.64035C6.96434 0.276408 5.12603 -0.382046 3.9005 0.229376C2.62782 0.840798 2.01506 2.34584 2.10933 3.75681C2.10933 3.94494 2.15648 4.13307 2.06221 4.3212C1.96794 4.55636 1.68511 4.69746 1.49657 4.83855C0.742393 5.35591 0.176772 6.2025 0.0353636 7.09611C-0.0117725 7.33128 -0.0117725 7.61347 0.0353636 7.84864C0.129636 8.17786 0.412446 8.41302 0.648127 8.60115C1.44944 9.30664 2.39214 10.0121 3.42914 9.824C3.52341 10.5765 3.85338 11.329 4.51329 11.7053C5.45601 12.2227 6.68154 11.6112 7.24717 10.6706C7.81281 9.72993 7.85994 8.64818 7.85994 7.56644" transform="translate(21.481 11.1466)" fill="#F8D24F"/>
<path d="M5.98851 0.897577C5.23433 0.333188 4.33876 -0.0430689 3.44318 0.00396353C2.54759 0.050996 1.60485 0.568349 1.2749 1.46197C1.08636 1.93229 1.22777 2.54371 1.69914 2.63778C0.944959 2.40261 0.0493561 2.96701 0.00222006 3.71952C-0.044916 4.47204 0.662125 5.22457 1.4163 5.17753C0.662125 5.69489 0.332178 6.77663 0.803539 7.57618C1.2749 8.37574 2.50045 8.56386 3.11322 7.90541C3.20749 8.79903 4.10307 9.55155 4.99866 9.41045C5.89425 9.26936 6.507 8.18761 6.12991 7.38806C6.83695 8.04651 7.92109 8.23464 8.76954 7.85838C9.66513 7.48212 10.2779 6.58851 10.325 5.64786C10.325 5.2716 10.2779 4.8483 9.99507 4.51907C9.52371 3.95469 8.67528 3.95469 7.9211 4.00172C7.87396 3.2492 8.95807 2.91997 9.19375 2.21449C9.3823 1.60307 8.81667 0.991639 8.20391 0.850542C7.59114 0.709445 6.93122 0.944613 6.36559 1.17977" transform="translate(31.2715 22.0484)" fill="#F8D24F"/>
<path d="M4.34764 7.66629C3.31064 8.32474 1.9437 7.71332 1.04811 6.86674C0.435345 6.25532 -0.0831577 5.5028 0.0111144 4.65622C0.152523 3.52744 1.66088 2.82195 2.6036 3.4804C1.66088 3.43337 1.09526 2.16349 1.47235 1.31691C1.84944 0.423292 2.88642 -1.43532e-06 3.87628 -1.43532e-06C4.44191 -1.43532e-06 5.00754 0.141099 5.43176 0.517358C5.85599 0.893618 6.13881 1.45801 5.9974 2.0224C6.79871 1.69317 7.17581 0.658454 7.97712 0.37626C8.82557 0.0940649 9.76829 0.752519 10.0982 1.5991C10.3811 2.44569 10.1925 3.38634 9.90969 4.23292C9.95682 4.09182 10.0982 4.04479 10.2396 3.99776C10.8053 3.85666 11.4652 4.18589 11.748 4.70324C12.078 5.2206 12.078 5.87905 11.9366 6.44344C11.7952 7.00783 11.4181 7.61926 10.8053 7.57223C11.2295 7.94849 11.5123 8.55991 11.3709 9.07726C11.2295 9.87681 10.3339 10.3942 9.48548 10.3942C8.63703 10.3942 7.88285 10.0179 7.12868 9.64165C6.51591 10.206 5.85599 10.8175 5.05468 11.0056C4.25337 11.1937 3.21638 10.7704 3.02783 9.97088C2.93356 9.35946 3.2635 8.79507 3.54632 8.27771" transform="translate(38.3325 15.5148)" fill="#F8D24F"/>
<path d="M1.2064 1.29416C1.25354 1.24713 1.25355 1.24713 1.30068 1.2001C1.065 1.24713 0.829321 1.3412 0.593641 1.38823C0.782185 1.43526 1.2064 2.09371 1.34781 2.28184C1.72489 2.75217 2.05485 3.2225 2.38481 3.73985C2.85617 4.5394 3.46895 5.76225 3.37468 6.74993C3.46895 6.5618 3.61034 6.32663 3.70461 6.1385C3.65747 6.18554 3.61036 6.18553 3.61036 6.23257C3.94031 6.32663 4.27025 6.4207 4.60021 6.46773C4.60021 6.4207 4.55308 6.4207 4.55308 6.37367C4.45881 6.70289 4.36454 7.03212 4.3174 7.36135C4.36454 7.36135 4.36451 7.31431 4.41165 7.31431C5.16583 6.79696 4.45879 5.57412 3.70461 6.09148C3.65747 6.09148 3.6575 6.1385 3.61036 6.1385C3.32754 6.37367 3.139 6.74993 3.37468 7.12619C3.37468 7.17322 3.4218 7.17322 3.4218 7.22025C3.61035 7.50245 4.0817 7.69058 4.41165 7.45541C5.02442 6.98509 4.88302 6.51476 4.74161 5.80928C4.50593 4.72753 4.17598 3.78688 3.56321 2.84623C3.04471 1.99965 1.48922 -0.869333 0.263682 0.259446C-0.490495 0.917901 0.546499 1.90558 1.2064 1.29416Z" transform="translate(27.0977 32.6574)" fill="black"/>
<path d="M2.1454 0.989868C2.28681 1.3191 2.94669 3.52962 1.86256 3.01227C0.919842 2.54194 1.48549 1.36613 2.38108 1.41316C3.27666 1.4602 3.27666 0.0492237 2.38108 0.00219121C0.118546 -0.0918737 -0.918459 2.87116 1.01412 4.14104C1.81543 4.70543 2.99385 4.61137 3.55948 3.71775C4.12511 2.7771 3.88941 1.55426 3.51233 0.613607C3.18237 -0.185944 1.81544 0.190317 2.1454 0.989868Z" transform="translate(24.085 32.1621)" fill="black"/>
<path d="M2.5429 0.0973824C1.3645 -0.32591 0.563182 0.708809 0.186093 1.69649C-0.238131 2.77824 0.0446911 3.81295 1.22309 4.14218C2.11868 4.42437 3.39136 4.37733 3.90985 3.48372C4.52262 2.449 3.8627 1.41429 3.15566 0.614742C2.91998 0.37958 2.40149 0.332547 2.16581 0.614742C2.07154 0.75584 1.97726 0.849906 1.83586 0.991003C1.27022 1.69649 2.26007 2.68417 2.8257 1.97868C2.91997 1.83758 3.01425 1.74352 3.15566 1.60242C2.82571 1.60242 2.49577 1.60242 2.16581 1.60242C2.40149 1.83758 2.82571 2.21384 2.77858 2.5901C2.6843 2.91933 2.11866 2.82526 1.88298 2.77823C1.45876 2.7312 1.36449 2.63714 1.5059 2.26088C1.60017 1.97868 1.78871 1.2732 2.21294 1.41429C3.01425 1.74352 3.39135 0.379577 2.5429 0.0973824Z" transform="translate(23.499 28.5865)" fill="black"/>
<path d="M1.4183 0.425502H1.37117C1.60685 0.613632 1.84254 0.754732 2.03109 0.942862C1.88968 1.31912 1.9368 1.46022 2.21962 1.31912C2.31389 1.31912 2.40818 1.31912 2.50245 1.31912C2.73813 1.31912 2.97381 1.41319 3.20949 1.55429C3.53944 1.74242 3.86937 2.25977 3.7751 2.68306C3.53942 3.71778 1.65399 2.4479 1.37117 2.07164C0.805539 1.36615 -0.419987 2.07164 0.145646 2.77712C0.899823 3.71777 1.98395 4.42326 3.20949 4.4703C4.48216 4.4703 5.3306 3.57668 5.14206 2.3068C5.00065 1.17802 4.10506 0.237378 3.02093 0.049248C2.17249 -0.138882 0.287043 0.190343 0.664131 1.41319C0.758403 1.69538 1.04123 1.97758 1.32405 1.93055H1.37117C2.31389 1.74242 2.31388 0.331437 1.4183 0.425502Z" transform="translate(26.3203 30.2338)" fill="black"/>
<path d="M1.55975 3.6251C1.55975 3.6251 1.51262 3.6251 1.51262 3.57806C1.6069 3.86026 1.74831 4.09543 1.84258 4.37762C1.6069 4.61278 1.65404 4.65981 1.93686 4.51871C2.1254 4.47168 2.2668 4.42465 2.45534 4.42465C2.73816 4.37762 2.97385 4.37762 3.25666 4.33059C3.77516 4.23652 4.29364 4.04839 4.71787 3.71916C5.51918 3.10774 5.80202 1.83787 5.47206 0.850188C5.09498 -0.231558 3.86943 -0.0904624 3.02098 0.238765C1.88972 0.662057 0.994132 1.55567 0.192819 2.40225C-0.419949 3.06071 0.569896 4.04839 1.18267 3.38994C1.70116 2.82555 2.26679 2.1671 2.97383 1.79084C3.20951 1.64974 3.96371 1.22645 4.29366 1.41458C4.05798 1.27348 4.19937 1.46161 4.15223 1.6027C4.10509 1.79083 4.15224 2.07303 4.10511 2.26116C3.58661 3.6251 0.85273 2.44929 0.522778 4.04839C0.475642 4.33058 0.569891 4.70685 0.852707 4.84795C0.852707 4.84795 0.89986 4.84794 0.89986 4.89498C1.65404 5.27123 2.36106 4.04839 1.55975 3.6251Z" transform="translate(25.9429 26.8461)" fill="black"/>
<path d="M3.5968 5.82189C4.35098 4.64608 5.01089 3.28214 4.6338 1.87116C4.35098 0.64832 3.31399 -0.292331 2.04132 0.0839291C-0.598304 0.883481 -0.645446 4.50498 1.71136 5.63376C2.51267 6.01002 3.26685 4.78717 2.4184 4.41091C1.80563 4.12872 1.28714 3.56433 1.33427 2.81181C1.38141 2.24742 1.80563 1.4949 2.4184 1.40084C3.36112 1.25974 3.40825 2.62368 3.26684 3.18807C3.12543 3.84653 2.74833 4.45795 2.37124 5.02234C1.89988 5.91595 3.12544 6.62144 3.5968 5.82189Z" transform="translate(23.2466 23.8968)" fill="black"/>
<path d="M4.25351 1.25069C3.54647 0.45114 2.60372 -0.301384 1.51959 0.121908C0.62401 0.451135 0.105536 1.39179 0.0112639 2.2854C-0.17728 4.54296 2.0381 5.76581 4.06495 5.34251C4.96054 5.15438 4.58346 3.79045 3.68787 3.97857C2.74515 4.1667 1.56675 3.74341 1.42535 2.66166C1.37821 2.28541 1.47248 1.76804 1.80243 1.53288C2.36806 1.10959 2.93369 1.86211 3.21651 2.23837C3.87642 2.89682 4.86628 1.90915 4.25351 1.25069Z" transform="translate(20.5625 26.7748)" fill="black"/>
<path d="M2.59538 0.275836C1.69979 -0.476683 0.898491 0.463969 0.427131 1.26352C-0.0442298 2.1101 -0.232774 3.19185 0.427131 3.9914C1.84121 5.82567 4.76364 4.17953 5.65922 2.67449C6.08345 1.92198 5.14074 1.35758 4.52797 1.82791C4.4337 1.92197 4.33941 1.96901 4.24514 2.06307C3.5381 2.62746 4.52797 3.61514 5.23501 3.05076C5.32929 2.95669 5.42355 2.90966 5.51782 2.81559C5.14073 2.5334 4.76366 2.2512 4.38657 1.96901C3.91521 2.76856 3.11389 3.37998 2.17117 3.33295C1.69981 3.33295 1.36984 3.14482 1.41698 2.62746C1.41698 2.34526 1.79406 1.40462 2.12402 1.35758C1.88834 1.31055 1.65266 1.21649 1.41698 1.16946C1.46411 1.21649 1.51127 1.21649 1.55841 1.26352C2.31258 1.87494 3.30242 0.887258 2.59538 0.275836Z" transform="translate(19.958 30.3835)" fill="black"/>
<path d="M1.39414 5.69514C1.62982 4.94262 1.86551 4.14307 2.05405 3.39056C2.2426 2.77913 2.384 1.79145 2.9025 1.36816C3.60954 0.803769 2.9025 -0.419078 2.19546 0.145312C1.53555 0.615636 1.25274 1.22706 1.01706 1.97958C0.687103 3.06133 0.357162 4.19011 0.0272098 5.27185C-0.208471 6.16547 1.15846 6.54173 1.39414 5.69514Z" transform="translate(31.8594 30.514)" fill="black"/>
<path d="M0.0851385 0.513994C-0.197678 2.1131 0.132292 5.12318 2.48909 4.27659C4.28027 3.66517 4.37452 1.40761 2.9133 0.372896C2.15913 -0.144461 1.45208 1.07839 2.20626 1.59574C2.72476 1.972 2.63049 2.81858 1.97058 2.95968C1.2164 3.10078 1.40496 1.31354 1.4521 0.84322C1.5935 -0.00336402 0.226547 -0.379622 0.0851385 0.513994Z" transform="translate(34.1108 27.9348)" fill="black"/>
<path d="M2.69189 2.6884C2.40907 2.73544 1.51348 2.87654 1.41921 2.50028C1.32494 2.21808 1.9377 1.70073 2.17338 1.55963C3.1161 0.995239 3.49319 2.40621 2.50333 2.35918C1.60775 2.31215 1.60775 3.72312 2.50333 3.77015C3.58746 3.81718 4.62445 2.92357 4.53018 1.79479C4.43591 0.618979 3.30465 -0.22761 2.12625 0.0545842C1.13639 0.289746 -0.0891429 1.46556 0.00512924 2.54731C0.0994014 3.91125 1.60775 4.19344 2.73902 4.09938C3.58746 4.00531 3.58748 2.59434 2.69189 2.6884Z" transform="translate(33.437 24.9608)" fill="black"/>
<path d="M1.76658 1.67346C2.61503 1.1561 3.98198 1.39126 4.35906 2.42597C5.11324 4.3543 1.67231 3.08443 1.05954 2.70817C0.258226 2.23784 -0.448815 3.46069 0.352498 3.93101C1.43663 4.58947 2.85071 5.10682 4.12338 4.82463C5.25465 4.58947 5.96169 3.64882 5.77315 2.47301C5.49033 0.309513 2.80356 -0.631137 1.01239 0.450609C0.258209 0.920933 0.965267 2.14378 1.76658 1.67346Z" transform="translate(36.1533 25.4114)" fill="black"/>
<path d="M1.60933 4.47874C2.2221 4.14951 2.83486 3.77325 3.4005 3.44402C3.87186 3.16183 4.34324 2.92667 4.62605 2.45635C5.14455 1.60976 4.67317 0.669107 3.87186 0.245815C1.98642 -0.694834 -0.134713 1.2335 0.00669528 3.16183C0.100967 4.05545 1.51505 4.05545 1.42078 3.16183C1.37364 2.31525 2.12784 1.0924 3.11769 1.46866C3.7776 1.70382 2.92915 2.12711 2.64633 2.26821C2.03356 2.59744 1.4208 2.9737 0.855167 3.30292C0.10099 3.72622 0.80802 4.94906 1.60933 4.47874Z" transform="translate(36.2163 22.1828)" fill="black"/>
<path d="M5.87849 2.29975C5.5014 1.31206 4.74721 0.747679 3.71022 0.37142C2.76749 0.0421926 1.49482 -0.287039 0.646372 0.418448C-0.202077 1.0769 -0.107782 2.29975 0.316443 3.19337C0.787803 4.18105 1.77764 4.88654 2.86177 5.07466C3.75736 5.26279 4.13444 3.89885 3.23886 3.71072C2.67322 3.61665 2.20188 3.3815 1.87193 2.9582C1.54197 2.53491 1.11776 1.59426 1.9662 1.45317C2.72038 1.31207 4.22872 1.97052 4.51153 2.72304C4.84149 3.52259 6.20844 3.14633 5.87849 2.29975Z" transform="translate(32.041 21.0695)" fill="black"/>
<path d="M2.92984 0.504587C2.31707 -0.0127698 1.51576 -0.2009 0.80872 0.269425C0.148815 0.692717 -0.181137 1.58633 0.101679 2.29181C0.384496 3.09137 1.1858 3.70279 1.89284 4.07905C2.69416 4.50234 3.54263 4.59641 4.39108 4.22015C5.05098 3.93795 4.72101 2.85621 4.01397 2.90324C3.73115 2.90324 3.54262 2.95027 3.35408 3.09137C2.5999 3.60873 3.30694 4.83157 4.06112 4.31421C4.06112 4.31421 4.0611 4.31421 4.01397 4.31421C3.87256 3.89092 3.77829 3.42059 3.63688 2.9973C3.02412 3.23246 2.26994 2.71511 1.84572 2.33885C1.65718 2.19775 1.37436 1.96259 1.37436 1.6804C1.37436 1.3982 1.7043 1.25711 1.89284 1.44524C2.59988 2.10369 3.63688 1.11601 2.92984 0.504587Z" transform="translate(30.3237 23.6642)" fill="black"/>
<path d="M2.49984 0.629551C2.35843 0.206258 1.98136 -0.0759378 1.51 0.0181271C1.03864 0.112192 0.802956 0.441418 0.567276 0.817677C0.0487789 1.66426 -0.281173 2.74601 0.331595 3.59259C1.41572 5.09763 4.29101 4.25104 4.38528 2.41678C4.43242 1.52316 3.01834 1.52316 2.9712 2.41678C2.92407 2.8871 2.07563 2.98117 1.74568 2.8871C1.46286 2.79304 1.36858 2.60491 1.41572 2.27569C1.46285 2.08756 1.50997 1.94646 1.60425 1.80536C1.65138 1.7113 1.69854 1.61723 1.74568 1.5702C1.93422 1.33504 1.83993 1.288 1.46284 1.33504C1.36857 1.19394 1.22716 1.05284 1.13289 0.911741C1.13289 0.958773 1.1329 0.958772 1.18004 1.0058C1.46285 1.85239 2.82979 1.52317 2.49984 0.629551Z" transform="translate(31.083 26.5964)" fill="black"/>
<path d="M6.72969 5.72518C6.82397 6.3366 6.58829 6.80693 6.02265 7.18319C4.98566 6.80693 4.8914 6.43067 5.73985 6.10144C6.21121 5.77221 6.16407 5.20783 5.73985 4.8786C5.07994 4.40828 4.3729 4.36124 3.61873 4.17311C2.81741 3.93795 1.07337 2.80917 1.63901 1.77446C2.25177 0.598644 3.4773 2.43291 3.94866 2.9973C4.32574 3.46763 4.6557 3.70279 5.22134 3.89092C6.06978 4.17311 6.44687 2.80917 5.59842 2.52698C4.93851 2.33885 4.51431 1.21006 3.99581 0.786771C3.52445 0.410512 3.00594 0.128321 2.39317 0.0342563C1.45045 -0.106841 0.413474 0.175355 0.0835217 1.116C-0.246431 2.19775 0.460605 3.51466 1.16765 4.26718C1.59187 4.7375 2.11037 5.06673 2.67601 5.30189C3.47732 5.63112 4.32577 5.53705 5.03281 6.10144C5.03281 5.67815 5.03281 5.30189 5.03281 4.8786C3.713 5.72518 2.53457 7.88868 4.6557 8.6412C6.54114 9.29965 8.23805 7.51241 8.14378 5.72518C8.14378 4.78453 6.72969 4.78453 6.72969 5.72518Z" transform="translate(37.4595 18.1144)" fill="black"/>
<path d="M3.22565 5.36323C2.61288 4.65774 2.0001 3.85819 1.62301 3.0116C1.43447 2.58831 1.19879 1.97689 1.62301 1.60063C1.85869 1.4125 2.42435 1.4125 2.70716 1.4125C2.94284 1.4125 3.46134 1.36547 3.64988 1.5536C3.88556 1.83579 3.697 2.63534 3.74413 2.96457C3.79127 3.76412 4.02695 4.51664 4.30977 5.26916C4.68686 6.11575 5.86528 5.36323 5.53533 4.56368C5.15824 3.71709 5.15821 2.91754 5.15821 2.02392C5.15821 1.50657 5.06394 0.989209 4.68685 0.612949C3.93268 -0.13957 2.42433 -0.0925383 1.48161 0.189656C-1.67651 1.08327 1.01026 5.034 2.2358 6.39794C2.84857 7.05639 3.83842 6.02168 3.22565 5.36323Z" transform="translate(40.0205 14.8549)" fill="black"/>
<path d="M1.37881 4.78225C1.33168 4.02973 1.47309 3.27721 1.85017 2.61876C2.18013 2.1014 2.9343 1.06669 3.64134 1.44295C4.44265 1.81921 4.01844 2.90095 3.59421 3.41831C3.07572 4.02973 2.36866 4.40599 1.7559 4.82928C1.00172 5.29961 1.70876 6.52245 2.46294 6.05213C3.5942 5.29961 4.91402 4.54709 5.38538 3.18315C5.76247 2.1014 5.43253 0.831524 4.39553 0.267135C3.26427 -0.39132 2.08585 0.267135 1.28454 1.16075C0.38895 2.19547 -0.0824165 3.51238 0.0118556 4.87632C0.0118556 5.7229 1.42595 5.7229 1.37881 4.78225Z" transform="translate(44.2241 15.2477)" fill="black"/>
<path d="M2.80358 1.43398C3.60489 1.05772 4.64189 1.95134 3.98198 2.75089C3.2278 3.59748 1.81372 2.89199 1.05954 2.4687C0.258226 2.0454 -0.448815 3.26825 0.352498 3.69154C1.38949 4.25593 2.52075 4.72626 3.69915 4.44406C4.64187 4.2089 5.39605 3.55044 5.58459 2.60979C6.00881 0.634431 3.74629 -0.494344 2.14366 0.211143C1.24808 0.587403 1.95513 1.81024 2.80358 1.43398Z" transform="translate(45.5806 19.0193)" fill="black"/>
<path d="M3.12878 1.49981C4.40145 0.747295 5.2499 4.03957 3.74154 3.75737C2.516 3.52221 1.66755 2.44046 1.38474 1.31168C1.19619 0.418063 -0.170735 0.794324 0.0178093 1.68794C0.300626 2.95782 1.10194 4.03957 2.23321 4.69802C3.1288 5.21538 4.58999 5.54461 5.3913 4.69802C6.23975 3.80441 5.95696 1.9231 5.29705 0.982454C4.63715 0.0418052 3.36447 -0.287422 2.37461 0.276967C1.66757 0.70026 2.3746 1.92311 3.12878 1.49981Z" transform="translate(44.2651 22.2928)" fill="black"/>
<path d="M1.79286 0.119155C0.897277 0.542447 -0.0454384 1.2009 0.0016977 2.28264C0.0488338 3.50549 1.22723 3.88175 2.26422 3.69362C3.30122 3.50549 4.24394 2.75297 4.24394 1.62419C4.24394 0.589478 3.1598 -0.257108 2.16994 0.0721196C1.3215 0.354314 1.69861 1.71825 2.54706 1.43606C2.78274 1.34199 2.87701 1.57716 2.78274 1.81232C2.64133 2.18858 2.12283 2.32968 1.74574 2.32968C1.41579 2.32968 1.27436 2.28264 1.4629 1.95342C1.65145 1.62419 2.12283 1.43606 2.45278 1.29497C3.34836 0.965739 2.59418 -0.257105 1.79286 0.119155Z" transform="translate(42.3018 19.8167)" fill="black"/>
<path d="M5.35077 1.4284C4.2195 -0.0296043 0.919992 -0.876189 0.118678 1.4284C-0.211274 2.32202 0.165797 3.35673 1.01425 3.78003C1.95697 4.29738 2.99397 3.87409 3.55961 3.02751C4.0781 2.27499 2.85255 1.5695 2.33405 2.32202C2.09837 2.65125 1.53275 2.65125 1.43848 2.18092C1.29707 1.7106 1.81557 1.47543 2.14552 1.4284C2.99397 1.24027 3.79527 1.75763 4.31377 2.41609C4.8794 3.12157 5.86927 2.13389 5.35077 1.4284Z" transform="translate(12.2065 19.4952)" fill="black"/>
<path d="M4.96215 0.883005C4.01943 -0.669066 1.89829 0.0834492 0.908434 1.1652C-0.222831 2.38804 -0.552766 4.41044 1.42695 4.92779C3.07671 5.35108 4.7736 4.31637 5.10356 2.67023C5.24496 2.01178 5.19782 1.0241 4.53792 0.694871C3.78374 0.318612 3.07669 0.835973 3.02956 1.58849C2.93528 2.48211 4.34937 2.48211 4.44364 1.58849C4.44364 1.54146 4.44364 1.49443 4.44364 1.44739C4.3965 1.63552 4.30225 1.77662 4.25511 1.96475C3.87802 1.77662 3.68948 1.82365 3.78375 2.10584C3.78375 2.24694 3.78373 2.38804 3.7366 2.52914C3.64233 2.81134 3.50092 3.09353 3.26524 3.28166C2.88815 3.61088 1.94545 3.89308 1.52123 3.46979C0.767049 2.7643 3.17097 0.694871 3.7366 1.63552C4.20796 2.34101 5.43351 1.63552 4.96215 0.883005Z" transform="translate(14.8105 20.699)" fill="black"/>
<path d="M3.24581 -2.87063e-06C1.97314 -2.87063e-06 1.07755 0.940652 0.559052 1.97537C0.0405551 3.01008 -0.383669 4.37402 0.559052 5.31467C1.26609 6.06719 2.49163 6.11422 3.38722 5.64389C4.56562 5.0795 5.03699 3.7626 5.46121 2.63382C5.79117 1.78723 4.42421 1.41097 4.09426 2.25756C3.81144 3.01008 2.96299 5.2206 1.73745 4.42105C0.70046 3.7626 2.35022 1.36394 3.29294 1.36394C4.14139 1.41098 4.1414 -2.87063e-06 3.24581 -2.87063e-06Z" transform="translate(11.0117 22.4286)" fill="black"/>
<path d="M0.0794577 1.70492C-0.391903 3.58622 1.30499 5.46752 3.2847 4.80907C4.22743 4.47984 4.79307 3.68029 4.88734 2.73964C5.02875 1.79899 4.98163 0.717245 4.13318 0.105823C3.94463 -0.0352743 3.61468 -0.0352743 3.42614 0.105823C3.19046 0.24692 3.04903 0.388021 2.90762 0.623183C2.43626 1.42273 3.66182 2.12822 4.13318 1.32867C3.8975 1.32867 3.66182 1.32867 3.42614 1.32867C3.61468 1.46977 3.5204 2.31635 3.47326 2.50448C3.42612 3.02184 3.19044 3.39809 2.67194 3.49216C1.82349 3.68029 1.21072 2.8337 1.39926 2.08118C1.63494 1.18757 0.268002 0.811307 0.0794577 1.70492Z" transform="translate(15.0264 23.7808)" fill="black"/>
<path d="M0.512168 3.42238C1.03067 4.316 2.11479 4.69226 3.10465 4.41007C4.09451 4.12787 4.70729 3.14019 4.56589 2.10547C4.47161 1.11779 3.76456 0.224177 2.72757 0.0360474C1.69058 -0.152082 0.559322 0.412308 0.0879612 1.35296C-0.336263 2.15251 0.889263 2.858 1.31349 2.05844C1.69058 1.25889 2.96326 1.11779 3.1518 2.15251C3.29321 2.99909 2.16195 3.46942 1.73772 2.7169C1.26636 1.91734 0.0408079 2.62283 0.512168 3.42238Z" transform="translate(18.2705 22.3455)" fill="black"/>
<path d="M2.79278 4.54251C4.34827 4.30735 6.42225 2.19089 4.9139 0.638815C3.26414 -1.10139 0.954465 1.10914 0.106016 2.56715C-0.365344 3.3667 0.860182 4.07219 1.33154 3.27263C1.70863 2.66121 2.83991 1.01508 3.7355 1.4854C4.20686 1.72056 3.82978 2.28495 3.5941 2.56715C3.26414 2.89638 2.83992 3.0845 2.41569 3.13154C1.52011 3.27263 1.89719 4.63657 2.79278 4.54251Z" transform="translate(18.3936 18.9678)" fill="black"/>
<path d="M5.13568 3.6615C5.46563 2.57975 5.55992 1.49801 4.61719 0.698454C3.95729 0.134064 2.87316 -0.101099 2.02471 0.0399985C-0.0492762 0.369226 -0.709193 3.00304 0.893434 4.31995C1.60047 4.88434 2.59032 3.89666 1.88328 3.33227C1.08197 2.67382 1.31765 1.45097 2.44892 1.40394C2.82601 1.40394 3.29738 1.49801 3.58019 1.68614C4.14583 2.0624 3.91014 2.72085 3.7216 3.28524C3.48592 4.17886 4.85286 4.50808 5.13568 3.6615Z" transform="translate(15.4854 17.0739)" fill="black"/>
<path d="M2.22433 0.270821C0.904524 0.129723 -0.273895 1.3996 0.0560578 2.71651C0.433146 4.12748 1.9415 4.50374 3.1199 3.93935C3.73267 3.65716 4.34545 3.32793 4.62826 2.66948C4.91108 2.10509 4.86394 1.3996 4.53398 0.835209C3.82694 -0.340602 2.27147 -0.199504 1.51729 0.788177C0.95166 1.5407 2.22432 2.19915 2.74282 1.49366C2.9785 1.16444 3.40274 1.49366 3.40274 1.77586C3.40274 2.24618 2.74282 2.48135 2.36574 2.62244C1.98865 2.76354 1.47016 2.71651 1.37589 2.24618C1.28162 1.77586 1.80009 1.54069 2.17718 1.58773C3.1199 1.72882 3.11992 0.317853 2.22433 0.270821Z" transform="translate(25.3257 15.5262)" fill="black"/>
<path d="M5.64197 4.94144C5.73624 3.5775 5.78336 1.6962 4.7935 0.661487C3.80364 -0.42026 2.1539 -0.0439994 1.16404 0.849617C-1.05135 2.82498 0.0798976 6.44648 3.00233 6.86977C3.89792 7.01087 4.275 5.64693 3.37942 5.50583C1.72965 5.27067 0.692672 3.4364 1.91821 2.07246C2.67239 1.22588 3.80364 1.22588 4.08646 2.40169C4.32214 3.20124 4.27502 4.14189 4.22789 4.94144C4.18075 5.88209 5.59483 5.88209 5.64197 4.94144Z" transform="translate(23.4165 10.8086)" fill="black"/>
<path d="M3.73787 0.0383774C1.47534 -0.29085 -0.362965 1.54342 0.0612593 3.80097C0.249804 4.69459 1.61676 4.31833 1.42822 3.42471C1.19254 2.29593 2.18238 1.21419 3.36078 1.40232C4.25637 1.49638 4.63345 0.179475 3.73787 0.0383774Z" transform="translate(20.9365 15.2413)" fill="black"/>
<path d="M1.07549 3.38263C1.3583 3.24153 1.82966 3.28856 2.15961 3.14746C2.48956 3.00637 2.8195 2.86527 3.14946 2.67714C3.76222 2.25385 4.23358 1.73649 4.56354 1.07804C4.94063 0.278487 3.7151 -0.474032 3.33801 0.372552C3.05519 0.936941 2.67811 1.36023 2.15961 1.68946C1.59398 1.97166 0.981202 1.92462 0.415569 2.20681C-0.480016 2.58307 0.227037 3.80592 1.07549 3.38263Z" transform="translate(22.7974 18.1053)" fill="black"/>
<path d="M2.3015 0.0539072C1.21737 -0.27532 0.416066 1.32378 0.13325 2.17037C-0.196702 3.15805 0.0861082 4.33386 0.981693 4.89825C1.97155 5.50967 3.05569 4.99232 3.66845 4.0987C4.3755 3.01695 4.42264 1.65301 3.99841 0.477204C3.66846 -0.369381 2.3015 0.00687332 2.63146 0.853457C2.82 1.37081 2.91428 1.88818 2.82001 2.45257C2.72574 2.87586 2.44291 3.76947 1.92441 3.72244C0.840285 3.67541 1.83015 1.55894 2.34865 1.32378C2.16011 1.37081 1.97156 1.37082 1.78301 1.41785C1.83015 1.41785 1.87728 1.46488 1.92441 1.46488C2.77286 1.65301 3.14995 0.289069 2.3015 0.0539072Z" transform="translate(24.9653 18.7532)" fill="black"/>
<path d="M1.20545 1.40475C1.25259 1.35771 1.29972 1.31069 1.34685 1.26365C1.15831 1.31069 1.01691 1.40475 0.828369 1.45178C0.875506 1.45178 0.96976 1.45178 1.0169 1.45178C0.828352 1.40475 0.686956 1.31069 0.498411 1.26365C0.969772 1.68695 1.15831 2.81572 1.34685 3.38011C1.5354 4.13263 1.6768 4.93219 1.72394 5.73174C1.77107 6.62535 3.18516 6.62535 3.13802 5.73174C3.09088 4.88515 2.00676 -1.69939 0.168453 0.417068C-0.39718 1.07552 0.592683 2.0632 1.20545 1.40475Z" transform="translate(28.1353 18.9074)" fill="black"/>
<path d="M0.84959 3.16426C1.36809 3.49349 1.60378 4.10491 2.07515 4.48117C2.49937 4.8104 3.01785 4.9515 3.53635 4.90447C4.71475 4.76337 5.75175 3.63459 5.75175 2.45878C5.75175 0.953737 4.14913 0.483415 2.92359 0.20122C1.93373 0.01309 0.0954189 -0.410201 0.00114679 1.09484C-0.0459893 1.98845 1.36809 1.98845 1.41523 1.09484C1.17955 1.33 1.2267 1.42406 1.46238 1.37703C1.69806 1.42406 1.98087 1.42407 2.21655 1.4711C2.5465 1.51813 2.82932 1.6122 3.15927 1.70626C3.44209 1.80033 4.05486 1.89439 4.19627 2.17658C4.43195 2.55284 4.19625 2.97614 3.91343 3.2113C2.87644 4.10491 2.26368 2.36471 1.50951 1.89439C0.755329 1.4711 0.0482771 2.69394 0.84959 3.16426Z" transform="translate(28.5386 15.9721)" fill="black"/>
<path d="M2.86646 5.36791C4.98759 5.03869 7.10872 2.35784 4.94046 0.617638C2.96075 -0.981466 0.698203 0.805767 0.0382985 2.78113C-0.244518 3.62771 1.12244 4.00397 1.40526 3.15739C1.73521 2.16971 2.72506 0.946864 3.90346 1.60532C5.41182 2.4519 3.47924 3.81584 2.48938 4.00397C1.59379 4.14507 1.97088 5.50901 2.86646 5.36791Z" transform="translate(27.6533 12.1223)" fill="black"/>
<path d="M1.27381 0.477201C0.566774 2.4996 0.142572 4.56902 0.00116405 6.73252C-0.045972 7.62613 1.36811 7.62613 1.41525 6.73252C1.55665 4.71012 1.93373 2.78179 2.64077 0.853459C2.92359 0.00687477 1.55663 -0.369383 1.27381 0.477201Z" transform="translate(30.4707 0.316467)" fill="black"/>
<path d="M0.353913 1.32863C2.09795 2.36334 2.1451 4.90309 3.70059 6.17297C4.40763 6.73736 5.39748 5.74968 4.69044 5.18529C2.99354 3.82135 2.99354 1.28159 1.01383 0.105783C0.259652 -0.364541 -0.4474 0.858302 0.353913 1.32863Z" transform="translate(14.4219 3.32172)" fill="black"/>
<path d="M1.2293 1.50157C1.37071 1.36047 3.30329 3.33584 3.58611 3.52397C4.43456 4.18242 5.37727 4.65275 6.4614 4.84088C7.35698 4.98197 7.73406 3.61803 6.83848 3.47693C5.09444 3.14771 3.9632 2.01893 2.73766 0.796085C1.98349 0.0435658 1.08789 -0.379725 0.192305 0.466859C-0.420464 1.12531 0.569399 2.11299 1.2293 1.50157Z" transform="translate(2.98828 10.627)" fill="black"/>
<path d="M4.90642 0.168519C3.25666 1.62652 1.70117 3.13157 0.192814 4.73067C-0.419955 5.38912 0.569891 6.3768 1.18266 5.71835C2.69101 4.11925 4.2465 2.56718 5.89627 1.1562C6.55617 0.591814 5.56632 -0.395871 4.90642 0.168519Z" transform="translate(42.8174 4.2937)" fill="black"/>
<path d="M5.94342 0.066886C4.81215 -0.215309 4.01085 0.443147 3.20953 1.14863C2.1254 2.04225 1.13553 2.9829 0.192814 3.97058C-0.419955 4.62904 0.569891 5.61672 1.18266 4.95827C1.79543 4.29981 2.45535 3.68839 3.11526 3.07696C3.63375 2.60664 4.76502 1.2427 5.56634 1.43083C6.46192 1.61896 6.839 0.255016 5.94342 0.066886Z" transform="translate(55.5444 14.037)" fill="black"/>
<path d="M40.8531 1.458C43.4455 1.64613 41.5601 3.1982 41.6544 4.51511C41.7486 5.73796 42.5971 5.26763 43.2099 5.97312C44.294 7.19596 41.7486 9.50055 40.9002 10.3001C39.5332 11.617 37.8364 11.7581 36.0923 12.0403C32.7457 12.5577 31.1902 15.944 27.7492 16.6495C26.1937 16.9787 24.6382 16.6965 23.0828 16.9787C22.4228 17.1198 21.9515 17.449 21.3387 17.5901C21.1502 17.7312 20.9616 17.8723 20.7731 18.0134C19.4533 18.0134 18.4634 17.4961 17.8978 16.5084C17.2379 15.944 16.8608 15.2855 16.0123 14.9093C14.7868 14.3449 13.467 14.439 12.1943 14.2508C10.0732 13.9686 9.74325 12.5577 8.32917 11.2408C7.29218 10.3001 5.87809 9.73572 4.69969 9.07727C3.94551 8.65397 3.09706 8.23068 2.48429 7.57222C1.25875 6.63157 1.35302 5.87906 2.71997 5.26763C3.14419 4.18589 3.66271 3.95073 4.27548 4.56215C5.45388 4.89137 5.59529 5.17357 6.86797 5.07951C7.52787 5.03247 7.90495 4.93841 8.65913 5.07951C9.13049 5.17357 9.17763 5.3617 9.60185 5.26763C9.88467 5.2206 10.1675 5.03247 10.4032 4.84435C11.4873 3.99776 11.723 3.19821 13.2313 2.77491C14.1269 2.53975 13.7498 1.17581 12.8542 1.41097C12.2415 1.5991 11.6758 1.78723 11.1102 2.11646C10.5917 2.44569 10.2146 3.15117 9.74325 3.38634C9.27189 3.6215 8.80054 3.3393 8.28205 3.3393C7.52787 3.29227 7.15077 3.6215 6.44373 3.66853C5.12392 3.80963 4.3226 2.63382 3.04993 2.53975C2.10721 2.49272 1.11736 2.96304 0.551723 3.71556C-0.862359 5.73796 0.693142 8.08958 2.39004 9.26539C3.70985 10.206 5.3596 10.7704 6.67941 11.7111C7.95208 12.6517 8.5177 14.3449 10.0261 15.0504C11.2516 15.6148 12.6185 15.5207 13.8912 15.7088C16.0595 16.0381 16.578 17.7783 18.1335 18.9541C18.8876 19.5185 19.7832 19.8007 20.726 19.4714C21.8101 19.0952 22.4229 18.3897 23.6013 18.2016C24.7325 18.0134 25.9109 18.2016 27.0422 18.0605C28.4091 17.9194 29.7761 17.449 31.0016 16.7906C32.887 15.7088 34.0655 13.8275 36.2337 13.3572C37.6007 13.075 38.9205 13.028 40.1931 12.3695C41.6544 11.57 42.5971 10.159 43.9169 9.21836C44.7182 8.65397 45.331 8.08958 45.2367 7.00783C45.1896 6.49048 44.9539 6.02015 44.6711 5.59686C44.3882 5.2206 43.3041 4.70325 43.2099 4.46808C42.927 3.71556 44.2468 2.82195 43.964 1.78724C43.5398 0.32923 41.9843 0.0940663 40.6645 1.43532e-06C39.9103 1.43532e-06 39.9575 1.41097 40.8531 1.458Z" transform="translate(7.81396 26.1442)" fill="black"/>
<path d="M0.0509766 0.853462C0.663745 2.3585 0.899437 3.86354 0.710893 5.46264C0.616621 6.35626 2.0307 6.35626 2.12497 5.46264C2.31352 3.76947 2.07784 2.0763 1.41793 0.477201C1.08798 -0.369383 -0.278976 0.00687763 0.0509766 0.853462Z" transform="translate(16.9409 27.8775)" fill="black"/>
<path d="M7.37946 1.09346C5.39974 2.5985 3.23147 3.44509 0.733254 3.63322C0.214757 3.68025 -0.303728 4.43277 0.214768 4.85606C2.24162 6.40813 4.50415 7.39581 6.81382 8.43053C7.99222 8.94788 9.12347 9.51227 10.1605 10.2648C11.5274 11.2525 12.4701 12.5694 13.6957 13.6982C15.9582 15.7206 18.7864 17.1315 21.3789 18.6836C22.793 19.5302 24.207 20.3768 25.574 21.2234C26.4695 21.7877 27.648 22.8225 28.8264 22.6343C29.5805 22.5403 30.0519 21.9759 30.5704 21.5056C31.8431 20.4238 33.3043 19.7183 34.8598 19.1069C37.6879 18.0251 40.5632 17.0845 43.3914 15.9087C49.3777 13.3689 55.1283 10.3589 60.5961 6.83143C61.0203 6.54923 61.0674 5.84374 60.5961 5.60858C57.1551 3.86838 53.8085 2.03412 50.4618 0.105785C49.6605 -0.36454 48.9534 0.8583 49.7548 1.32862C53.1014 3.25695 56.4952 5.04419 59.889 6.83143C59.889 6.40813 59.889 6.03187 59.889 5.60858C54.8926 8.80679 49.6605 11.6287 44.2399 14.0274C41.3646 15.2973 38.4421 16.379 35.5197 17.4137C33.3986 18.1662 31.7488 19.201 29.8162 20.2827C27.9308 21.3174 27.2237 20.5649 25.5268 19.5302C24.2542 18.7777 22.9815 17.9781 21.7088 17.2256C19.022 15.6265 16.0996 14.1685 13.8842 11.9109C12.1873 10.1707 10.6319 8.75975 8.41646 7.67801C5.96538 6.45516 3.32576 5.56155 1.11037 3.86838C0.921821 4.29167 0.780395 4.66793 0.591851 5.09122C3.32574 4.85606 5.7297 3.96245 7.94509 2.36334C8.84068 1.79895 8.13363 0.576105 7.37946 1.09346Z" transform="translate(0.608887 28.6252)" fill="black"/>
<path d="M6.20877 0.0873474C4.13478 1.07503 0.882382 2.86226 0.128205 5.21388C-0.484563 7.09518 1.21234 8.22396 2.81497 8.64725C4.51187 9.07054 5.69027 9.02351 5.87881 11.0459C5.97308 12.2217 5.78455 12.8802 6.77441 13.7738C9.03694 15.7962 12.2422 14.9966 14.9289 15.0907C16.8144 15.1848 18.747 16.1254 20.491 16.7368C22.3293 17.3953 24.1676 18.1008 26.053 18.6181C27.6557 19.0885 29.3054 19.3707 31.0023 19.1355C32.9349 18.8533 34.4904 18.1948 36.4701 18.5241C38.8741 18.9003 41.2309 19.1825 43.4934 18.0537C44.4832 17.5834 45.2374 16.972 45.8973 16.1254C47.4057 14.2441 48.5841 13.2094 50.8466 12.4098C52.8735 11.7044 56.5029 11.6573 57.3514 9.21164C58.1998 6.76595 56.8329 2.90929 55.3246 0.980961C54.7589 0.275474 53.769 1.26316 54.3347 1.96865C55.3717 3.28555 56.2201 5.77827 56.0316 7.47144C55.7488 10.2934 53.6748 10.0582 51.6008 10.6696C49.2911 11.3281 46.9815 12.2217 45.4731 14.1971C44.2947 15.7021 43.352 16.8309 41.4194 17.3012C39.7225 17.7245 38.0727 17.3483 36.3758 17.1131C35.1974 16.925 34.1133 16.972 32.9349 17.2542C30.7667 17.7715 28.9755 18.0067 26.7601 17.4423C23.272 16.5957 20.0668 14.9026 16.5787 14.0089C13.6563 13.2564 7.71711 15.4199 7.19861 11.14C6.96293 9.35274 6.96296 8.45912 4.98324 7.80067C3.56916 7.33034 0.363903 7.37738 2.29648 4.55543C3.2392 3.14446 5.36031 2.10974 6.82153 1.45129C7.71712 0.886896 7.01008 -0.335945 6.20877 0.0873474Z" transform="translate(2.39258 36.404)" fill="black"/>
</svg>
