<svg width="73" height="97" viewBox="0 0 73 97" fill="none" xmlns="http://www.w3.org/2000/svg">
<path d="M5.06416 2.87063e-06C3.74435 1.59911 2.42454 3.24524 1.05759 4.84434C0.491961 5.54983 -0.120813 6.34938 0.0205949 7.19596C0.114867 7.85442 0.586233 8.37178 1.05759 8.88913C1.43468 9.31243 1.8589 9.73572 2.3774 9.97088C3.08444 10.3001 3.88576 10.3001 4.63994 10.3001C7.89233 10.3001 11.1447 10.8175 14.2086 11.8051C15.9054 12.3695 17.5552 13.028 19.0636 13.9216C19.9592 14.439 20.8076 15.0034 21.7032 15.4737C24.3428 16.7436 27.5481 16.7906 30.1877 15.6148C30.8476 15.3326 31.5075 14.9563 32.1674 14.7212C34.1471 14.0627 36.3154 14.6271 38.3422 15.1445C40.3691 15.6618 42.6316 16.0381 44.4699 15.0504C46.1668 14.1568 47.1095 12.3225 48.665 11.1467C49.2778 10.6764 50.032 10.3471 50.6447 9.82978C52.2474 8.55991 52.9073 6.44345 53.4729 4.46809C53.85 3.19821 54.1328 1.55207 53.0487 0.752518C51.9645 -0.0470339 50.4562 0.611423 49.3249 1.26988C43.3386 4.70325 36.9281 7.29003 30.5176 9.82978C29.3864 10.3001 28.2551 10.7234 27.0296 10.9586C22.5516 11.8522 18.0737 9.59462 14.0671 7.3841C13.0302 6.81971 11.946 6.20829 11.0504 5.40873C10.2491 4.65622 9.58922 3.66853 8.50508 3.29227C7.93945 3.05711 7.18529 3.05711 6.8082 2.58679C6.47825 2.1635 6.47824 1.5991 6.24256 1.08174C5.91261 0.376257 5.01702 -0.0470324 4.26284 0.18813C4.49852 0.0470324 4.82848 0.0470324 5.1113 0.18813" transform="translate(4.14355 80.5137)" fill="#DB786F"/>
<path d="M6.45764 2.3989C4.28938 2.53999 2.16826 2.72812 5.75391e-06 2.86922C0.612775 4.18613 1.74403 5.12678 2.87529 6.0204C6.22195 8.74828 9.52149 11.5232 13.151 13.8748C15.225 15.2388 17.3932 16.4146 19.6086 17.5434C22.2482 18.9073 25.0764 20.2242 28.046 20.2242C30.9684 20.2242 33.7494 18.9543 36.4362 17.6844C38.3216 16.7908 40.2071 15.8972 41.9511 14.7214C42.8938 14.063 43.7894 13.3575 44.7321 12.7931C46.0991 12.0406 47.6074 11.6173 49.0686 11.0529C50.8127 10.3474 52.5096 9.45377 54.0179 8.32499C54.9606 7.6195 55.9505 6.53775 55.5263 5.45601C55.1963 4.51536 54.0651 4.23316 53.1223 3.95097C50.8127 3.29251 48.7387 2.02264 46.5233 1.22308C42.7053 -0.140856 38.5573 -0.187884 34.5507 0.235408C30.5442 0.6587 26.5847 1.55231 22.531 1.92857C19.5143 2.21077 16.4976 2.21077 13.4809 2.2578C11.0298 2.2578 8.57877 2.2578 6.12769 2.30483" transform="translate(2.93896 71.6714)" fill="#C7E4DD"/>
<path d="M13.1863 1.2775C12.2907 0.995306 11.3009 1.41859 10.5938 2.03002C9.83967 2.64144 9.27403 3.39396 8.47272 3.91131C7.24718 4.7579 5.69169 4.99306 4.23047 5.36932C2.76926 5.69855 1.21376 6.30997 0.41245 7.53282C-0.388863 8.80269 -0.011769 10.8721 1.44945 11.2484C2.01508 11.3895 2.62784 11.2484 3.19347 11.4365C4.7961 12.0009 4.51329 14.4936 5.6917 15.7165C6.72869 16.7982 8.42558 16.563 9.83966 17.0334C11.4894 17.5507 12.6678 18.9147 14.1762 19.6672C16.2502 20.7019 18.7012 20.5608 21.0109 20.4197C23.3677 20.2316 25.8188 20.0905 28.0813 19.338C31.4751 18.2092 34.3033 15.8576 37.4143 14.1174C38.4513 13.553 39.5354 12.9886 40.3838 12.189C41.2794 11.3895 41.9393 10.2607 41.8922 9.08488C41.8451 7.72094 40.6195 6.45107 39.2526 6.30997C38.4984 6.26294 37.6499 6.40404 37.1314 5.83965C36.8958 5.55745 36.8015 5.18119 36.7072 4.85196C36.283 3.77022 35.1517 3.06473 34.0205 2.68847C32.8892 2.31221 31.7108 2.17112 30.5795 1.74782C29.4954 1.32453 28.5527 0.666076 27.4685 0.289816C26.3844 -0.0864435 25.0646 -0.180508 24.169 0.524978C23.8391 0.807173 23.5563 1.1364 23.1792 1.37156C22.755 1.60673 22.2836 1.65376 21.7651 1.70079C19.0312 1.88892 16.2973 1.74782 13.6105 1.2775" transform="translate(9.92676 66.6315)" fill="#DB786F"/>
<path d="M4.5722 1.43532e-06C3.01671 0.752521 1.31981 1.5991 0.518494 3.15117C0.141405 3.85666 -5.75391e-06 4.70325 -5.75391e-06 5.5028C-5.75391e-06 5.54983 -5.75391e-06 5.64389 -5.75391e-06 5.69092C0.0471303 5.78499 0.094275 5.83203 0.141411 5.87906C0.707044 6.25532 1.50835 6.16125 2.12112 5.78499C2.73389 5.40873 3.11099 4.79731 3.48807 4.23292C4.24225 3.01008 4.85502 1.5991 4.61934 0.235164" transform="translate(17.5981 59.9135)" fill="#C7E4DD"/>
<path d="M3.29953 0C1.037 2.0224 0.235686 5.2206 5.75391e-06 8.23068C5.75391e-06 8.37178 -5.75602e-06 8.46584 0.0471303 8.55991C0.141402 8.701 0.329947 8.701 0.518491 8.65397C1.27267 8.51287 1.88544 7.94848 2.26253 7.24299C2.63962 6.58454 2.78102 5.78499 2.92243 5.03247C3.20525 3.6215 3.48807 2.21053 3.25239 0.752522" transform="translate(23.2075 62.124)" fill="#C7E4DD"/>
<path d="M1.46122 -2.87063e-06C0.80131 2.11646 0.0942664 4.23292 -5.75391e-06 6.44345C-5.75391e-06 6.91377 -5.75953e-06 7.47816 0.235675 7.90145C0.518491 8.32474 1.08413 8.55991 1.50835 8.32475C1.6969 8.23068 1.79117 8.04255 1.93258 7.85442C2.68675 6.53751 2.54534 4.93841 2.3568 3.4804C2.21539 2.35162 2.12112 1.22285 1.97971 0.0940678" transform="translate(28.6748 64.1935)" fill="#C7E4DD"/>
<path d="M18.0043 0.765922C16.8259 -0.40989 14.7048 -0.127695 13.385 0.907019C12.0651 1.94173 11.311 3.4938 10.5097 4.95181C9.47268 6.83311 8.29426 8.66737 7.02159 10.3605C6.07887 11.5834 5.08902 12.8062 4.57052 14.2642C4.05203 15.7222 4.19344 17.5095 5.27756 18.5912C6.64451 19.9081 9.14272 19.8611 9.94403 21.5543C10.5097 22.683 9.94403 24.1411 8.95417 24.8936C7.96431 25.6461 6.59738 25.8342 5.3247 25.7872C4.05203 25.7402 2.82649 25.505 1.55382 25.458C1.12959 25.458 0.705358 25.458 0.422542 25.7402C-0.00168257 26.0694 -0.0959461 26.7278 0.0925982 27.2452C0.281142 27.7626 0.70537 28.1858 1.08246 28.5151C2.9679 30.2082 5.18329 31.5251 7.54009 32.3247C7.87004 32.4188 8.2 32.5128 8.52995 32.3717C9.09558 32.0425 8.8599 31.243 8.76563 30.6315C8.43568 28.6091 10.3683 26.8219 12.3951 26.4456C14.422 26.0694 16.4488 26.6338 18.4285 27.0571C20.4554 27.4333 22.6708 27.6215 24.3677 26.4927C26.2531 25.2698 26.9602 22.8712 27.4787 20.6607C27.95 18.6853 28.28 16.3337 26.7245 14.9697C25.4518 13.8409 23.5192 14.1231 21.8694 13.7939C19.2298 13.2766 17.1558 11.2071 15.2704 9.23176C14.7519 8.71441 14.2334 8.15002 13.9506 7.49156C13.6678 6.83311 13.6678 5.98652 14.092 5.42214C14.3748 5.04588 14.8462 4.85775 15.1761 4.48149C15.6946 3.82303 15.6946 2.78832 16.3545 2.27096C16.873 1.8947 17.7686 1.7536 17.8158 1.14218" transform="translate(26.8384 27.7299)" fill="#F8D24F"/>
<path d="M13.151 0.0940649C11.784 1.64614 10.3228 3.29227 8.34309 3.85666C7.68318 4.04479 6.97613 4.09182 6.31623 4.32699C4.61933 4.89138 3.39379 6.44345 2.54534 8.04255C1.6969 9.64165 1.08413 11.3819 0 12.7928C1.03699 13.7335 2.92244 13.3572 3.5352 12.1344C3.67661 12.8869 3.5352 13.6864 3.44093 14.439C3.34665 15.1915 3.39379 16.0851 3.91229 16.6495C4.43078 17.2139 5.51492 17.3079 5.89201 16.6025C6.08055 17.2139 6.31623 17.8723 6.78759 18.3897C7.25895 18.907 7.966 19.1892 8.57877 18.907C9.33295 18.5778 9.89858 17.449 10.6999 17.7783C11.077 17.9664 11.2184 18.4367 11.5012 18.7659C11.9726 19.2833 12.821 19.3303 13.4809 19.0011C14.0937 18.6719 14.565 18.1075 15.0364 17.5901C16.5448 15.7088 18.1474 13.6864 18.3359 11.2878C18.4773 9.78275 18.0531 8.32475 17.9117 6.86674C17.8646 6.49048 17.8646 6.11422 18.006 5.78499C18.2888 5.2206 18.9487 4.93841 19.4672 4.60918C19.9857 4.27995 20.5042 3.6215 20.2214 3.05711C20.1271 2.82195 19.8914 2.68085 19.7029 2.53975C17.7232 1.22284 15.4135 0.329227 13.0567 -3.58829e-07" transform="translate(42.9102 19.4656)" fill="#F2B1AA"/>
<path d="M0.379926 19.7948C-0.374251 18.7601 0.0971123 17.3021 0.898425 16.2674C1.69974 15.2797 2.73673 14.4331 3.20809 13.2103C3.49091 12.5048 3.4909 11.7052 3.63231 10.9057C4.05654 8.46 5.51775 6.20244 7.63888 4.88553C8.5816 4.27411 9.66572 3.85082 10.6084 3.23939C12.2582 2.15765 13.5309 0.323383 15.4635 0.0411878C17.5846 -0.288039 19.5643 1.40513 20.2713 3.38049C21.0255 5.35585 20.7898 7.56638 20.6013 9.68284C20.507 10.7646 20.3656 11.8463 20.2713 12.881C20.1771 13.6806 20.1299 14.4802 19.8943 15.2327C19.5643 16.3144 18.9044 17.2551 18.2916 18.1957C16.8304 20.4062 15.3221 22.6638 13.8608 24.8743C13.3895 25.5328 12.9653 26.2383 12.3054 26.7556C11.6455 27.273 10.797 27.5552 9.99568 27.273C9.19437 26.9908 8.62874 26.0972 8.95869 25.3446C9.43006 24.1688 11.504 23.8396 11.3155 22.5697C11.2212 22.0053 10.6556 21.6291 10.1371 21.3939C8.34591 20.5473 6.41334 20.03 4.43363 19.8889C3.77373 19.8419 2.97241 19.8889 2.54819 20.4062C2.40678 20.6414 2.31251 20.9236 2.12397 21.1117C1.79401 21.441 1.22837 21.3469 0.851286 21.1117C0.474198 20.8295 0.238526 20.4533 0.049982 20.03" transform="translate(52.146)" fill="#2E555B"/>
<path d="M3.57282 0.487644C3.1486 1.85159 2.48869 2.98036 1.64024 4.15617C1.07461 4.90869 0.367564 5.66121 0.131884 6.64889C-0.245205 8.01284 0.179017 9.51787 1.49883 10.0823C2.30014 10.4585 3.05432 9.23568 2.20587 8.85942C0.131881 7.91877 2.39441 5.56715 3.14859 4.53243C3.9499 3.40366 4.51554 2.18081 4.93977 0.910936C5.17545 -0.0297132 3.80851 -0.35894 3.57282 0.487644Z" transform="translate(51.4512 11.6409)" fill="black"/>
<path d="M0.677697 1.45801C2.89309 1.55207 5.15563 1.5991 7.32388 2.16349C8.45515 2.49272 9.53929 2.91601 10.482 3.57447C11.0005 3.95073 11.519 4.37402 11.8961 4.84434C11.5661 7.29003 10.6705 8.13662 9.20933 7.33706C8.36088 7.05487 7.9838 8.41881 8.83224 8.701C10.4349 9.21836 12.4617 9.59462 13.6401 8.04255C14.63 6.77267 13.9701 5.2206 13.0745 4.09182C10.1521 0.376259 4.96708 0.188129 0.630559 -7.17658e-07C-0.217891 0.0470317 -0.217888 1.45801 0.677697 1.45801Z" transform="translate(51.6128 18.666)" fill="black"/>
<path d="M1.10528 11.0125C3.08499 10.1659 3.93344 8.56678 4.54621 6.63845C5.01757 5.18045 5.48891 4.28683 6.62017 3.25212C7.37435 2.54663 7.84572 1.84114 8.22281 0.853461C8.55276 0.00687657 7.18581 -0.369383 6.85585 0.477201C6.19595 2.2174 4.40479 3.11102 3.65061 4.85122C2.80216 6.87361 2.56648 8.80195 0.351084 9.78963C-0.450229 10.1659 0.256829 11.3417 1.10528 11.0125Z" transform="translate(63.9121 15.0377)" fill="black"/>
<path d="M12.5507 0.323031C11.7022 1.68697 10.9009 2.72169 9.15686 3.05091C8.26128 3.23904 7.41283 2.90982 6.51724 3.23904C5.24457 3.7564 4.44326 5.02628 3.83049 6.15506C3.21772 7.2368 2.74636 8.31855 1.89791 9.21216C1.42655 9.72952 0.76664 10.1528 0.389552 10.7642C-0.128945 11.6579 -0.176073 12.6455 0.530968 13.3981C2.74636 15.8437 5.57452 12.4104 6.9886 10.9524C9.39254 8.45964 13.9176 9.54139 15.1903 5.82583C14.7189 5.68473 14.2947 5.59067 13.8233 5.44957C13.7762 5.6377 13.7291 5.82583 13.6348 5.96693C13.352 6.81351 14.7189 7.18977 15.0017 6.34318C15.0489 6.15505 15.096 5.96693 15.1903 5.82583C15.4731 4.93221 14.1061 4.60298 13.8233 5.44957C12.8806 8.13042 8.92118 7.47196 6.94146 9.02403C6.09301 9.68249 5.52738 10.9053 4.6318 11.4697C4.25471 12.1282 3.68908 12.1282 3.02917 11.5168C1.80364 11.4227 1.56796 11.1405 2.41641 10.6231C2.55782 10.2939 3.21771 9.82359 3.40626 9.58842C4.06616 8.74184 4.53752 7.75416 5.05602 6.81351C5.38597 6.24912 5.76306 5.44957 6.28156 5.02628C7.5071 3.99156 8.68551 4.55595 9.95818 4.32079C11.7965 3.99156 12.8335 2.43949 13.7762 0.981486C14.2476 0.275999 13.022 -0.429489 12.5507 0.323031Z" transform="translate(41.7666 19.4718)" fill="black"/>
<path d="M0.0177978 3.69821C0.300614 5.25028 -0.642101 7.41377 1.0548 8.49552C2.61029 9.4832 3.88295 7.79004 4.7314 6.70829C5.7684 5.43841 7.79525 3.74524 7.55957 1.91098C7.37102 0.500003 5.90981 -0.252515 4.59 0.0767118C4.26005 0.170777 4.0715 0.452972 4.0715 0.735167C4.0715 0.876264 4.0715 1.01736 4.02436 1.20549C3.97723 2.09911 5.39131 2.09911 5.43844 1.20549C5.43844 1.06439 5.43845 0.923297 5.48558 0.735167C5.29704 0.970329 5.15563 1.20549 4.96708 1.39362C6.61685 1.01736 5.86267 3.03976 5.43844 3.55711C5.20276 3.83931 4.96709 4.1215 4.77854 4.4037C4.16577 5.15622 3.60014 5.95577 2.94024 6.66126C2.04465 7.64894 1.38476 6.99048 1.38476 5.81467C1.38476 4.92106 1.5733 4.16854 1.38476 3.27492C1.19621 2.42833 -0.170746 2.80459 0.0177978 3.69821Z" transform="translate(45.626 28.325)" fill="black"/>
<path d="M4.608 1.74167C5.59786 0.471793 6.25775 2.49419 6.06921 3.29374C5.88067 3.90516 5.50358 4.46955 5.17363 4.98691C4.79654 5.59833 4.37232 6.25678 3.90096 6.77414C3.61815 7.10337 3.33533 7.4326 2.95824 7.66776C2.20406 8.13808 1.7327 7.90292 1.49702 6.96227C1.77984 6.11569 0.412894 5.73943 0.130077 6.58601C-0.435555 8.18512 0.931379 9.50202 2.534 9.31389C4.41945 9.0317 5.64499 6.96227 6.54057 5.50427C7.38902 4.14032 8.09606 2.35309 7.01193 0.895083C6.16348 -0.233696 4.46659 -0.327759 3.61814 0.80102C3.05251 1.45947 4.04237 2.44716 4.608 1.74167Z" transform="translate(48.7666 29.3409)" fill="black"/>
<path d="M3.40437 1.5915C4.06428 0.886018 4.77132 1.92073 4.81845 2.57919C4.86559 3.28467 4.58278 4.03719 4.25283 4.69565C3.97001 5.30707 3.59292 5.96552 2.98015 6.24772C2.32025 6.52991 1.51893 6.34178 1.37753 5.58926C1.18898 4.69565 -0.130825 5.07191 0.0105837 5.96552C0.246264 7.2354 1.51893 7.89386 2.74447 7.79979C4.25282 7.65869 5.19554 6.29475 5.71404 5.02488C6.23253 3.70797 6.7039 1.92073 5.57263 0.744923C4.72418 -0.148694 3.3101 -0.289793 2.46165 0.603824C1.80175 1.26228 2.7916 2.24996 3.40437 1.5915Z" transform="translate(52.8926 31.4194)" fill="black"/>
<path d="M1.04588 14.7015C2.93132 13.4787 4.29825 11.6915 4.76961 9.48095C5.00529 8.5403 5.00529 7.55262 4.86389 6.56493C4.76961 5.90648 4.48681 5.29506 4.3454 4.68364C4.06258 2.84937 5.19384 2.09685 6.37225 1.1562C7.07929 0.591813 6.08944 -0.39587 5.3824 0.16852C3.54409 1.67356 2.31854 2.61421 2.97844 5.10693C3.87403 8.3992 3.40268 11.5504 0.291697 13.5257C-0.415344 13.9961 0.291699 15.2189 1.04588 14.7015Z" transform="translate(57.042 22.3542)" fill="black"/>
<path d="M18.4513 0.386844C12.9364 -1.72962 10.9095 5.37228 8.78839 8.75862C6.71441 12.0979 1.81225 17.6007 7.04435 20.7049C8.55271 21.5985 12.5121 23.0565 9.21262 25.22C7.56285 26.3017 5.34746 25.9255 3.55629 25.4081C2.04793 24.9378 0.44531 25.0789 0.0682214 26.9131C-0.403139 28.9826 1.67085 30.6287 3.13207 31.7105C5.25319 33.3096 7.46858 34.2032 10.1553 33.7799C10.6267 33.6858 10.7681 33.1214 10.5796 32.7452C9.77824 31.1461 10.1553 29.0766 11.6637 27.9949C12.8892 27.1483 14.539 27.2894 15.9059 27.5716C17.9328 27.9479 19.9125 28.7004 21.9865 28.7474C25.9459 28.7474 28.4441 25.5022 29.6225 22.0688C30.7538 18.6825 29.9053 14.5436 25.9459 13.7911C24.6732 13.5559 23.3063 13.7441 22.0336 13.3678C20.431 12.8504 19.2055 11.5335 18.0271 10.4048C17.2258 9.65224 16.0473 8.85269 15.4346 7.91204C14.7275 6.78326 16.2359 5.79558 17.0372 4.90196C17.65 4.2435 16.6601 3.20879 16.0473 3.91428C15.0575 4.99602 13.0778 6.35996 13.6905 7.95907C13.9734 8.66456 14.8218 9.22894 15.3403 9.69927C16.3773 10.6869 17.4143 11.7217 18.4984 12.7093C20.2896 14.3084 21.8922 14.7788 24.249 15.0139C26.6058 15.2491 28.5384 16.0487 28.7741 18.6825C28.9155 20.4227 28.2084 22.2569 27.36 23.762C23.6834 30.2054 18.357 25.0789 13.0306 25.9725C9.49543 26.5839 7.84566 30.2525 9.35402 33.4036C9.49543 33.0744 9.63684 32.6981 9.77825 32.3689C7.37431 32.7452 3.27346 31.052 2.04793 28.7004C1.24661 28.0419 1.57658 27.3364 2.89639 26.5839C3.13207 26.678 3.32061 26.725 3.55629 26.8191C4.02765 26.8661 4.49901 27.1013 5.01751 27.1483C5.86596 27.2894 6.66726 27.2894 7.51571 27.1483C10.0139 26.7721 13.502 24.9378 11.6166 21.9747C10.721 20.5638 9.11835 20.2816 7.84567 19.388C4.8761 17.3185 6.62013 14.2614 8.26989 11.9568C9.68398 9.93443 10.8152 8.05313 11.8994 5.84261C13.0778 3.44395 15.1046 0.433875 18.1685 1.60969C18.9226 2.03298 19.2997 0.669038 18.4513 0.386844Z" transform="translate(25.6846 27.1213)" fill="black"/>
<path d="M8.36603 1.07544C6.38632 -0.523661 5.11364 4.22662 4.78369 5.30837C4.45374 6.29605 4.12378 7.14263 3.32247 7.89515C2.85111 8.31845 1.20135 9.77645 1.5313 7.28373C1.57844 6.71934 2.23834 6.15495 2.56829 5.77869C4.12378 4.17959 5.91495 2.34532 7.9418 1.31061C8.74311 0.887313 8.03607 -0.33553 7.23475 0.0877621C4.97222 1.21654 2.66257 3.38004 1.05994 5.30837C0.0700852 6.48418 -0.636967 8.64767 0.871387 9.82348C2.3326 10.9523 4.02951 9.35315 4.92509 8.27141C5.53786 7.51889 5.86781 6.62527 6.15063 5.73166C6.48058 4.74398 6.76339 2.48642 7.9418 2.15719C7.70612 2.11016 7.47044 2.01609 7.23475 1.96906C7.28189 2.01609 7.32904 2.01609 7.37617 2.06312C8.08321 2.62751 9.07307 1.63983 8.36603 1.07544Z" transform="translate(16.7271 57.333)" fill="black"/>
<path d="M4.10965 -7.17658e-07C2.0828 0.0940642 1.89425 3.76259 1.47003 5.2206C0.998666 6.86674 0.291625 8.60694 0.0559446 10.3001C-0.0383275 10.9115 -0.0854635 11.57 0.527305 12.0403C2.0828 13.2161 3.40261 10.3942 3.87397 9.45352C5.05237 6.9608 5.42946 4.23292 5.14665 1.458C5.05238 0.564388 3.63829 0.564388 3.73257 1.458C3.92111 3.05711 3.87396 4.65621 3.54401 6.20829C3.30833 7.33706 2.78984 9.54759 1.75285 10.206C1.09294 10.6293 1.84712 9.21836 1.98853 8.8421C2.22421 8.04255 2.45989 7.243 2.69557 6.44345C2.83698 6.02016 3.87397 1.458 4.20393 1.458C5.00524 1.41097 5.00523 -7.17658e-07 4.10965 -7.17658e-07Z" transform="translate(22.7744 59.8194)" fill="black"/>
<path d="M2.61 1.28233C2.61 1.2353 2.65714 1.2353 2.65714 1.18827C2.89282 0.85904 2.70428 0.435745 2.42146 0.200583C2.37433 0.153551 2.32718 0.153552 2.28005 0.10652C1.95009 -0.128643 1.52587 0.0594873 1.29019 0.341682C0.771689 1.04717 1.10165 2.22298 0.913103 3.06957C0.677422 4.29241 0.253204 5.42118 0.0646593 6.64403C-0.123885 8.24313 0.0175174 10.6418 1.62014 11.5354C5.15535 13.5108 3.50558 2.59924 3.22277 1.18827C3.03422 0.294651 1.66728 0.670905 1.85582 1.56452C2.18578 3.21066 2.42146 4.8568 2.42146 6.54996C2.42146 7.20842 2.51573 8.14907 2.37432 8.76049C2.18578 9.56004 1.76155 10.2185 1.4316 8.76049C1.10165 7.20842 1.71441 5.65634 2.04437 4.15131C2.18577 3.58692 2.18578 1.42343 2.42146 1.04717C2.09151 1.14123 1.76155 1.2353 1.4316 1.28233C1.47874 1.32936 1.52587 1.32936 1.573 1.37639C1.47873 1.04717 1.38446 0.717937 1.33732 0.38871C1.33732 0.435743 1.29019 0.435748 1.29019 0.482781C0.865961 1.32936 2.09151 2.03485 2.61 1.28233Z" transform="translate(28.0923 61.6883)" fill="black"/>
<path d="M14.0955 1.73727C12.7286 1.36101 11.5502 1.64321 10.3718 2.44276C9.75898 2.86605 9.24048 3.43044 8.67485 3.90077C7.30791 5.12361 6.31805 5.49987 4.47974 5.73503C2.40576 6.01723 -0.705228 7.00491 0.143221 9.77982C0.473174 10.9556 1.51017 11.7082 2.54716 12.2255C3.30134 12.6488 4.19693 12.8369 4.90397 13.4013C5.79955 14.1538 5.94096 15.2356 6.60087 16.1292C8.39204 18.4808 12.2101 16.7406 13.2942 19.8448C14.4726 23.09 16.9708 22.1494 19.7047 21.3968C21.8729 20.8324 23.9941 21.4439 26.2095 21.4439C28.0949 21.3968 29.6033 20.7854 31.0645 19.7037C33.0442 18.2457 34.7882 17.258 37.0979 16.4114C38.7005 15.8 40.3503 15.1886 41.6701 14.0127C43.5555 12.3666 44.5454 9.40356 42.8956 7.19304C41.8115 5.73503 39.7375 5.5469 38.3706 4.46516C36.8622 3.24231 35.731 2.44276 33.7984 2.16056C32.29 1.9254 31.253 1.73727 29.9804 0.890687C29.4619 0.514427 29.0376 0.279266 28.4249 0.0911366C26.4451 -0.332155 24.5597 0.796625 23.0042 1.87837C22.25 2.39573 22.9571 3.61857 23.7113 3.10121C24.8425 2.34869 26.2095 1.36101 27.6236 1.40805C29.4147 1.50211 29.0376 2.2076 30.0746 2.67792C31.4416 3.28934 32.7142 3.28934 34.1283 3.61857C36.108 4.04186 37.0508 5.49987 38.7005 6.48755C40.4917 7.5693 42.8956 7.85149 42.2829 10.6734C41.4344 14.7182 35.4481 15.1415 32.4786 16.9758C30.8288 18.0105 29.509 19.5626 27.5764 19.9859C25.4553 20.4562 23.1928 19.6566 21.0716 19.8448C20.3646 19.8918 19.7047 20.0329 18.9976 20.221C17.5364 20.6443 16.9237 21.2557 15.6039 20.221C14.5197 19.4215 14.5197 18.1986 13.4827 17.3991C12.6814 16.7877 11.6916 16.5995 10.7488 16.4114C10.1832 16.3173 9.57044 16.2703 9.00481 16.0822C7.87354 15.6589 7.77926 14.8123 7.21363 13.9187C6.60086 12.978 5.9881 12.4136 4.99824 11.8492C4.38548 11.52 3.67843 11.2849 3.06566 10.9556C1.55731 10.2972 1.55731 9.1684 3.01852 7.47523C3.44275 7.33413 3.81984 7.2871 4.24406 7.24007C5.70528 7.00491 7.02509 7.0049 8.25063 6.15832C9.94753 5.02954 11.3145 2.44276 13.7656 3.14825C14.5669 3.33638 14.9439 1.97243 14.0955 1.73727Z" transform="translate(8.9707 66.0306)" fill="black"/>
<path d="M2.84597 0.0448597C1.62043 -0.190303 0.347759 0.515183 0.0178064 1.78506C-0.170738 2.67868 1.19621 3.05494 1.38475 2.16132C1.47902 1.691 1.95038 1.31473 2.46887 1.4088C3.36446 1.5499 3.74155 0.185957 2.84597 0.0448597Z" transform="translate(26.6777 67.0646)" fill="black"/>
<path d="M0.00450647 0.670212C0.0987786 2.26932 1.65427 3.44513 3.25689 3.06887C4.15248 2.83371 3.77539 1.46976 2.87981 1.70492C2.2199 1.84602 1.46572 1.3757 1.41859 0.670212C1.32432 -0.223404 -0.0897657 -0.223404 0.00450647 0.670212Z" transform="translate(18.8198 73.6823)" fill="black"/>
<path d="M0.168886 1.25128C1.06447 2.33302 2.71424 2.52115 3.84551 1.7216C4.59968 1.20424 3.89264 -0.0186034 3.13847 0.498754C2.47856 0.969078 1.67724 0.827985 1.15875 0.216563C0.593113 -0.441891 -0.396747 0.545789 0.168886 1.25128Z" transform="translate(21.2002 78.1807)" fill="black"/>
<path d="M0.192817 1.22422C1.04127 2.16487 2.50248 2.16487 3.4452 1.36532C4.15224 0.800928 3.11525 -0.233782 2.45534 0.37764C2.07825 0.706867 1.51263 0.565768 1.18268 0.236541C0.569908 -0.468946 -0.419952 0.565764 0.192817 1.22422Z" transform="translate(27.6812 80.1361)" fill="black"/>
<path d="M1.07532 1.64406C1.87663 1.2678 2.72508 1.36187 3.43212 1.83219C4.1863 2.30251 4.89334 1.12671 4.13916 0.609351C2.96076 -0.143169 1.54668 -0.190205 0.321138 0.421216C-0.433039 0.844509 0.274005 2.06736 1.07532 1.64406Z" transform="translate(32.2197 78.2582)" fill="black"/>
<path d="M3.49986 2.77941C4.39544 2.45018 4.44258 1.36844 3.6884 0.851085C2.83995 0.286696 1.66155 0.0985643 0.671695 0.00449943C-0.223891 -0.0895655 -0.223891 1.32141 0.671695 1.41547C1.09592 1.46251 1.52013 1.55657 1.89722 1.65064C2.08576 1.69767 2.27432 1.79173 2.51 1.83876C2.60427 1.88579 2.65141 1.8858 2.74568 1.93283C3.02849 2.12096 3.1699 1.93283 3.1699 1.41547C2.27431 1.69767 2.65141 3.06161 3.49986 2.77941Z" transform="translate(34.791 75.5238)" fill="black"/>
<path d="M2.67062 0.0271414C1.58649 0.309336 0.738047 0.920755 0.125278 1.8614C-0.393219 2.61392 0.832322 3.31941 1.35082 2.56689C1.77504 1.95547 2.34066 1.57921 3.04771 1.39108C3.94329 1.15592 3.56621 -0.208021 2.67062 0.0271414Z" transform="translate(27.9844 74.8427)" fill="black"/>
<path d="M0.125275 0.997706C1.11513 2.31461 3.18911 2.54978 4.27324 1.23287C4.83888 0.527382 3.84903 -0.460296 3.2834 0.245191C2.81204 0.809581 1.82218 0.950674 1.35082 0.292219C0.832319 -0.413267 -0.393222 0.292219 0.125275 0.997706Z" transform="translate(35.7148 71.1913)" fill="black"/>
<path d="M0.106013 1.0572C0.718782 2.09192 1.94432 2.60928 3.12272 2.37411C4.0183 2.18598 3.64122 0.822045 2.74564 1.01017C2.18 1.10424 1.61437 0.822041 1.33155 0.351716C0.860193 -0.447835 -0.365347 0.257651 0.106013 1.0572Z" transform="translate(42.9927 73.6245)" fill="black"/>
<path d="M1.46523 1.55389C1.46523 1.36576 1.51235 1.17763 1.51235 0.989498C1.22954 1.22466 0.899586 1.45983 0.61677 1.64796C1.41808 1.78905 2.17226 1.69499 2.92643 1.31873C3.25639 1.1306 3.35066 0.660273 3.16211 0.331046C2.97357 0.00181884 2.54936 -0.0922461 2.17227 0.0958837C1.79518 0.284014 1.37095 0.331043 0.946728 0.284011C0.475367 0.189946 0.0982818 0.472145 0.0511458 0.942469C0.0511458 1.1306 0.00400683 1.31873 0.00400683 1.50686C-0.0431292 1.88312 0.333959 2.21234 0.711048 2.21234C1.13527 2.25938 1.41809 1.93015 1.46523 1.55389Z" transform="translate(35.6475 81.7818)" fill="black"/>
<path d="M9.45344 0.676217C6.531 0.91138 3.6557 1.09951 0.733265 1.33468C0.214768 1.38171 -0.303731 2.13422 0.214765 2.55752C6.15391 7.1667 11.9516 12.2462 18.315 16.244C21.1903 18.0312 24.7255 20.0536 28.1665 20.3358C31.3717 20.618 35.0483 18.3134 37.9236 17.1376C44.4755 14.4567 51.1217 11.7759 56.8252 7.49592C58.0507 6.60231 60.219 5.33243 58.7106 3.78036C57.7679 2.79268 55.8353 2.13422 54.6098 1.61687C52.9129 0.91138 51.1217 0.394025 49.3305 0.0177658C48.435 -0.170364 48.0579 1.19357 48.9534 1.3817C50.3675 1.6639 51.7816 2.04016 53.1486 2.55752C53.7142 2.74565 57.3908 3.96849 57.5794 4.72101C57.9564 5.94385 52.0173 9.04799 50.9803 9.61238C45.6539 12.6225 39.9033 14.786 34.2941 17.1376C32.9743 17.702 31.6545 18.3604 30.2404 18.7367C28.2136 19.254 26.3281 18.6426 24.4898 17.9371C21.6617 16.8554 19.0692 15.2563 16.6181 13.5161C11.2917 9.80051 6.29532 5.61462 1.15749 1.61687C0.968943 2.04016 0.827531 2.41642 0.638987 2.83971C3.56142 2.60455 6.43672 2.41642 9.35916 2.18125C10.349 1.99312 10.349 0.582152 9.45344 0.676217Z" transform="translate(0.932617 72.5945)" fill="black"/>
<path d="M4.7722 0.640442C3.16957 2.66284 -0.507043 5.71994 0.0585897 8.68299C0.482814 10.9876 2.83961 12.3515 4.96074 12.6807C7.03472 12.9629 9.15586 12.5397 11.2298 12.7278C13.4452 12.9159 15.5192 13.7155 17.3575 14.9383C18.7716 15.879 19.8557 16.6785 21.5526 16.9137C23.4381 17.1488 25.4649 17.0077 27.3975 17.0077C34.1851 17.0077 42.6696 18.1365 48.703 14.2328C51.4369 12.4456 53.2281 9.7177 54.8307 6.98982C56.3862 4.26194 56.1505 2.56877 53.9822 0.217145C53.3695 -0.441309 52.3796 0.546375 52.9924 1.20483C54.4065 2.7569 54.6893 4.40304 53.6052 6.28434C52.9924 7.36608 52.3325 8.40079 51.6254 9.43551C49.8343 11.9282 47.4775 13.7155 44.5079 14.6091C39.0872 16.2552 32.9124 15.5968 27.3504 15.5968C25.842 15.5968 24.3337 15.6438 22.8253 15.5968C21.0341 15.5497 19.8086 14.9853 18.3474 13.9506C16.4619 12.6337 14.3408 11.7871 12.0311 11.4109C9.39153 11.0346 6.32768 11.9753 3.78234 10.9405C2.98102 10.6113 2.08544 10.094 1.66121 9.24737C1.00131 7.93047 1.66122 6.84872 2.41539 5.81401C3.45239 4.35601 4.63079 3.03909 5.71492 1.62812C6.32769 0.969664 5.33783 -0.0650452 4.7722 0.640442Z" transform="translate(3.25732 79.6381)" fill="black"/>
<path d="M3.54694 0.382162C2.60422 2.63972 1.42583 4.80321 0.106016 6.87264C-0.365344 7.62516 0.860196 8.33065 1.33156 7.57813C2.65137 5.5087 3.78263 3.34521 4.77248 1.08765C5.10244 0.241065 3.8769 -0.464422 3.54694 0.382162Z" transform="translate(33.1411 36.6265)" fill="black"/>
<path d="M0.0509882 0.853459C0.758029 2.68772 3.16196 4.52199 5.14168 3.20508C5.89585 2.68772 5.18881 1.46488 4.43464 1.98224C3.30337 2.73476 1.84216 1.51192 1.41793 0.477201C1.08798 -0.369383 -0.278964 0.00687477 0.0509882 0.853459Z" transform="translate(28.5771 55.2504)" fill="black"/>
<path d="M3.06811 0.705488C2.87957 3.24524 1.88971 5.59686 0.192811 7.52519C-0.419958 8.18365 0.569902 9.21836 1.18267 8.51288C3.11525 6.30235 4.24652 3.66853 4.4822 0.705488C4.57647 -0.235162 3.16239 -0.235162 3.06811 0.705488Z" transform="translate(47.8555 44.2047)" fill="black"/>
</svg>
