<svg width="474" height="158" viewBox="0 0 474 158" fill="none" xmlns="http://www.w3.org/2000/svg">
<path d="M28.5765 37.7806C28.7897 38.2055 29.003 38.7013 29.2163 39.1262C29.9982 40.6135 30.7091 42.1008 31.4199 43.6589C32.4862 46.1378 33.6947 48.5458 34.9031 51.0246C35.5429 52.3703 36.1827 53.7867 36.8224 55.1324C36.9646 55.4157 37.1068 55.6281 37.249 55.9114C37.5333 56.4072 37.7465 56.9738 38.102 57.4696C38.3152 57.8237 38.5996 58.107 38.8839 58.3903C38.7418 58.9569 38.3152 59.0985 37.8176 59.1693C36.8935 59.2402 35.9694 59.2402 35.0453 59.311C33.1971 59.5234 31.2777 59.5235 29.3584 59.5943C28.2921 59.6651 27.2969 59.7359 26.2307 59.8067C25.3776 59.8776 24.8089 59.5235 24.4535 58.7444C24.027 57.8945 23.4583 57.1154 23.0318 56.2656C22.8896 55.9823 22.7474 55.7698 22.6764 55.4865C22.2498 53.8576 21.4679 52.3703 20.757 50.883C20.3305 49.8914 19.8329 48.8999 19.3353 47.9792C19.1221 47.5542 19.051 47.1293 18.8377 46.7043C18.6245 46.0669 18.3401 45.3587 17.7715 44.8629C17.3449 44.8629 16.9184 44.7213 16.4208 44.9338C15.3545 45.4295 14.1461 45.642 13.3641 46.6335C13.1509 47.9792 13.293 49.3248 13.293 50.7413C13.293 52.2286 13.293 53.7867 13.222 55.274C13.1509 56.1947 13.0087 57.1154 12.8665 58.0362C12.7244 58.6736 13.0087 61.719 12.5822 61.5773C11.587 61.2232 10.5918 61.2232 9.66766 61.0107C8.03269 60.7275 6.39772 60.7275 4.76275 60.7275C3.98081 60.7275 3.26995 60.515 2.48801 60.5858C1.77715 60.6566 1.27954 60.2317 1.13737 59.5235C0.995199 58.6736 0.781941 57.7529 0.781941 56.903C0.781941 54.495 0.924115 52.1578 0.995201 49.7498C1.13737 46.6335 1.27954 43.4465 1.35063 40.3302C1.35063 39.3387 1.27955 38.418 1.20846 37.4264C1.20846 37.0015 1.13737 36.5057 1.13737 36.0808C1.13737 33.8144 1.13737 31.4772 1.20846 29.2109C1.20846 29.1401 1.20846 29.0692 1.20846 28.9276C1.56389 26.5196 1.06628 24.1116 0.924111 21.7036C0.853025 20.2163 0.710856 18.729 0.426513 17.2417C0.213255 16.0377 0.21326 14.7628 0.142174 13.488C0.071088 12.4256 0.142169 11.2925 0.0710836 10.2301C0.0710836 9.59269 4.33873e-06 8.95527 4.33873e-06 8.38868C4.33873e-06 7.96374 4.33873e-06 7.46797 4.33873e-06 7.04303C0.0710901 5.98067 0.142174 4.98914 0.142174 3.92679C0.142174 3.43102 0.355433 3.14772 0.710862 2.86443C0.710862 2.43949 0.710862 2.01454 0.710862 1.5896C0.710862 0.810539 1.20846 0.45642 1.84823 0.314772C3.05669 0.0314772 4.26515 -0.11017 5.47361 0.102301C5.68686 0.173125 5.97121 0.173125 6.18446 0.173125C7.46401 -0.11017 8.81464 0.102301 10.0942 0.0314772C10.805 0.0314772 11.5159 0.173125 12.0846 0.881363C12.3689 2.01454 12.1557 3.21855 12.0846 4.42255C11.9424 5.48491 11.9424 6.47644 12.0135 7.5388C12.0846 8.53033 12.1557 9.45104 12.2268 10.4426C12.2268 10.9383 12.2268 11.4341 12.2268 11.9299C12.2268 12.2132 12.1557 12.4965 12.2268 12.7798C12.5822 14.9045 12.3689 17.0292 12.44 19.1539C12.5111 20.8537 12.5111 22.4826 12.5111 24.1824C12.44 26.4487 12.2978 28.7151 12.2268 30.9815C12.2268 31.6189 12.1557 32.3271 12.1557 32.9645C12.1557 33.177 12.2267 33.3895 12.2978 33.602C12.5822 33.602 12.8665 33.602 13.0798 33.5311C14.6437 33.1062 16.2076 32.6104 17.6293 31.7605C18.9799 31.0523 20.2594 30.2732 21.6101 29.565C21.7522 29.4942 21.8944 29.3525 22.0366 29.2817C22.3209 28.0777 22.2498 26.8737 22.3209 25.6697C22.392 23.4741 22.392 21.3494 22.392 19.1539C22.392 19.0123 22.392 18.8706 22.392 18.7998C22.4631 18.304 22.6764 18.0207 23.174 17.9499C24.3113 17.7374 25.3776 17.5958 26.515 17.4541C27.368 17.3125 28.15 17.2417 29.003 17.3125C29.6428 17.3833 30.3536 17.3125 30.9934 17.3125C31.2777 17.3125 31.5621 17.3125 31.8464 17.3833C32.8416 17.5958 33.4814 18.2332 33.4103 19.2955C33.3392 20.4287 33.5525 21.6327 33.2681 22.7659C33.126 23.3325 33.4103 23.8991 33.4103 24.5365C33.4103 25.8113 33.5525 27.0153 33.7658 28.2902C33.979 29.6358 34.0501 31.0523 34.1212 32.3979C34.1212 32.6812 34.0501 32.8937 33.8368 33.0354C32.5573 33.8144 31.6332 34.9476 30.4958 35.9391C30.4247 36.01 30.2825 36.0808 30.2115 36.1516C29.856 36.5765 29.1452 37.0723 28.5765 37.7806Z" transform="translate(256.051) scale(2)" fill="#2E555B"/>
<path d="M24.0981 16.1012C24.3113 15.1097 24.5957 14.1181 24.3113 13.1266C24.0981 12.3475 23.6005 11.9226 22.8896 11.6393C22.7475 11.5685 22.5342 11.5685 22.392 11.4977C19.9751 10.4353 17.5582 10.7186 15.2123 11.8518C14.2171 12.3475 13.0798 12.7017 12.0846 13.1974C11.3737 13.5515 10.734 14.189 10.0942 14.6847C9.66767 15.0388 9.24115 15.393 8.88572 15.7471C8.60138 16.0304 8.24596 16.0304 7.96161 15.8887C7.39293 15.6054 6.89532 15.2513 6.32664 14.968C5.75795 14.6139 5.18926 14.2598 4.62057 13.9057C3.12777 13.0558 1.63498 12.3475 0.497605 11.0727C4.36415e-06 10.5769 -0.071088 10.0812 0.213255 9.51459C0.497598 8.948 0.853034 8.38141 1.20846 7.81482C1.56389 7.31905 1.84823 6.75246 2.34583 6.32752C3.55429 5.33599 4.54949 4.13198 5.90012 3.35292C6.9664 2.78633 7.96161 2.21974 9.0279 1.7948C9.88093 1.44068 10.6629 1.15739 11.587 1.22821C11.8002 1.22821 12.0846 1.08656 12.2978 1.01574C13.3641 0.661618 14.3593 0.236675 15.4967 0.307499C15.5678 0.307499 15.6389 0.307499 15.71 0.307499C18.3401 -0.329915 20.9703 0.165852 23.6005 0.519971C24.3113 0.590795 25.0222 0.803265 25.7331 0.944913C27.0126 1.08656 28.2211 1.44068 29.3584 2.00727C30.0693 2.36139 30.8512 2.64468 31.5621 2.92798C33.126 3.63622 34.5477 4.69858 35.6851 5.9734C37.249 7.81482 38.3152 9.86871 38.3863 12.2767C38.4574 13.8348 38.5285 15.4638 38.6707 17.0219C38.8128 18.9342 38.6707 20.7756 38.4574 22.617C38.3863 23.5377 38.1731 24.5292 38.0309 25.4499C37.8887 26.7248 37.7465 27.9996 37.6044 29.3453C37.6044 29.6994 37.6044 29.9827 37.6755 30.266C38.4574 31.045 39.3815 31.47 40.3056 31.7533C40.8743 31.9657 41.2298 32.3199 41.3719 32.8864C41.443 33.3114 41.5141 33.8072 41.5852 34.2321C41.5852 34.3029 41.5852 34.3029 41.5852 34.3737C41.7273 35.6486 41.6563 36.9234 41.5141 38.269C41.443 39.4731 41.443 40.6771 41.443 41.8811C41.443 42.4477 41.2298 42.8018 40.6611 43.0142C39.8791 43.3684 39.0261 43.4392 38.1731 43.4392C37.6755 43.4392 37.1779 43.3684 36.6803 43.3684C35.5429 43.4392 34.4055 43.1559 33.3392 42.8726C32.9127 42.7309 32.4862 42.5185 32.1308 42.2352C31.5621 41.7394 30.9934 41.102 30.4958 40.5354C30.0693 40.0396 29.6428 39.6147 29.003 39.3314C27.9367 39.9688 26.7993 40.6771 25.7331 41.3145C24.7379 41.9519 23.6716 42.306 22.6053 42.5893C20.6149 43.0851 18.6245 43.5808 16.563 43.6517C15.1413 43.7225 13.7196 43.6517 12.2978 43.2975C11.3026 43.0851 10.3074 43.0142 9.31224 42.7309C8.17486 42.4477 7.03749 42.0935 5.97121 41.7394C5.04709 41.4561 4.19406 41.0312 3.26995 40.6771C2.34583 40.2521 1.63497 39.6855 0.924113 38.9773C0.426513 38.4815 0.213255 37.9149 0.213255 37.2775C0.142169 35.082 -4.33873e-06 32.8156 -4.33873e-06 30.6201C-4.33873e-06 29.1328 2.16089e-06 27.6455 0.284345 26.1582C0.497603 25.2375 0.497605 24.2459 0.853034 23.3252C1.13738 22.5462 1.56388 21.8379 2.34583 21.413C3.12777 20.9172 3.83863 20.2798 4.69166 19.9965C5.18926 19.784 5.68686 19.5716 6.25555 19.4299C8.17486 18.9342 10.1653 18.4384 12.0846 17.9426C14.4304 17.4469 16.7052 16.6678 19.1221 16.597C19.1932 16.597 19.2643 16.597 19.4064 16.597C20.9703 16.2429 22.5342 16.172 24.0981 16.1012ZM11.9424 28.2829C11.7292 28.8495 11.587 29.4161 11.7291 29.9827C11.8713 30.6201 11.9424 31.3283 11.9424 31.9657C11.9424 32.9573 12.44 33.5947 13.3641 33.9488C14.5726 34.3737 15.7811 34.657 16.9184 35.082C18.198 35.5777 19.2642 35.2945 20.1884 34.2321C20.5438 33.878 20.9703 33.6655 21.4679 33.453C22.2499 33.0989 22.9607 32.674 23.6005 32.1782C24.2403 31.6824 24.5957 30.9742 24.5957 30.1243C24.5957 29.6285 24.6668 29.1328 24.6668 28.637C24.6668 27.7163 24.5246 26.7248 24.2403 25.8041C23.3872 25.7332 22.6764 25.8041 21.9655 26.1582C21.6812 26.2998 21.3968 26.4415 21.1125 26.4415C19.8329 26.7248 18.5534 26.9372 17.2739 27.2205C16.2076 27.433 15.2123 27.5038 14.1461 27.7163C13.4352 27.858 12.6533 28.0704 11.9424 28.2829Z" transform="translate(343.202 33.3017) scale(2)" fill="#2E555B"/>
<path d="M42.296 42.784C41.7984 43.2797 41.3008 43.4214 40.7322 43.4214C38.3152 43.3505 35.8983 42.9964 33.6236 42.0757C32.4151 41.5799 31.3488 40.8009 30.3536 40.0218C30.1404 39.8802 29.9982 39.7385 29.7849 39.5969C28.7897 39.951 27.9367 40.4468 27.1548 41.0134C25.662 42.0049 24.027 42.784 22.2498 43.2797C21.8233 43.4214 21.3257 43.4214 20.8992 43.4922C19.7618 43.6338 18.6245 43.8463 17.5582 43.8463C16.2786 43.8463 14.928 43.7755 13.6485 43.6338C11.9424 43.4214 10.3785 42.7131 8.74355 42.0757C6.53989 41.155 4.69166 39.7385 2.84343 38.3221C2.70126 38.1804 2.488 38.0388 2.34583 37.8971C1.42172 37.118 0.924115 36.1973 0.853029 34.9933C0.853029 34.1435 0.568686 33.3644 0.781944 32.5145C0.853029 32.302 0.710858 32.0896 0.639772 31.8771C0.639772 31.3105 0.4976 30.7439 0.639772 30.2481C0.924115 28.9025 0.853029 27.5568 0.924115 26.282C0.995201 25.1488 0.924115 23.9448 1.20846 22.8116C1.27954 22.5992 1.35063 22.3159 1.42172 22.1034C1.56389 21.5368 1.91932 21.1827 2.41692 20.8994C3.90972 20.1203 5.54469 19.6954 7.17966 19.3413C9.59658 18.8455 11.9424 18.4206 14.3593 17.9956C15.71 17.7123 17.0606 17.3582 18.4112 17.0749C18.7666 17.0041 19.1221 16.8624 19.4775 16.7916C20.757 16.4375 21.9655 16.1542 23.3161 16.2959C23.5294 16.2959 23.8137 16.225 24.1692 16.225C23.6005 15.446 23.6005 14.5961 23.4583 13.817C23.3872 13.038 23.2451 12.3297 23.1029 11.5507C22.9607 10.7008 22.5342 10.205 21.6812 10.0634C20.6149 9.85089 19.6197 9.85089 18.5534 10.0634C18.269 10.1342 17.9847 10.205 17.7004 10.205C15.8521 10.2758 14.1461 10.9132 12.5822 11.834C11.587 12.4005 10.5207 12.9671 9.80984 13.9587C9.09898 13.8878 8.45921 13.5337 7.96161 13.2504C7.10858 12.7547 6.25555 12.4005 5.33143 11.9756C4.76275 11.6923 4.33623 11.6923 3.76755 11.9048C3.4832 11.6923 3.19886 11.5507 2.91452 11.3382C2.488 11.0549 2.06149 10.7716 1.63497 10.5591C0.995201 10.2758 0.355429 9.92172 0 9.2843C0 8.93018 0.568686 8.85936 0.4976 8.43442C0.426515 8.0803 0.781944 7.93865 0.924115 7.72618C1.13737 7.44288 1.27954 7.15959 1.42172 6.87629C1.63497 6.593 1.77714 6.23888 2.06149 5.95558C2.9856 5.1057 3.90972 4.25581 4.90492 3.54757C5.90012 2.83934 6.89532 2.06028 8.17486 1.77698C8.38812 1.70616 8.60138 1.63533 8.74355 1.56451C10.1653 0.785448 11.7292 0.572976 13.3641 0.431329C14.6437 0.360505 15.8521 0.289681 17.1317 0.07721C18.0558 -0.0644376 18.9799 0.00638645 19.904 0.148034C21.0414 0.289682 22.1077 0.572976 23.2451 0.785448C24.6668 1.06874 26.0174 1.35204 27.4391 1.70616C29.856 2.34357 31.7043 3.76005 33.4103 5.45982C34.4055 6.52217 35.1164 7.72618 35.8272 9.00101C36.3959 9.92171 36.6803 10.9841 36.8224 12.1173C37.32 15.3043 37.8176 18.4914 38.2441 21.6785C38.3863 22.9533 38.4574 24.1573 38.5285 25.4321C38.5996 26.7778 38.7417 28.1234 38.8128 29.4691C38.8128 29.6816 38.955 29.9648 39.0261 30.1773C39.0972 30.5314 39.3815 30.7439 39.737 30.7439C40.0213 30.7439 40.2346 30.8147 40.5189 30.8147C40.8032 30.8856 41.0876 30.8856 41.3719 30.9564C42.0117 31.098 42.296 31.523 42.296 32.1604C42.296 32.6562 42.3671 33.1519 42.225 33.6477C41.8695 35.2058 42.0828 36.6931 42.0828 38.2512C42.0828 38.3221 42.0828 38.3221 42.0828 38.3929C42.0828 39.7385 42.296 41.2258 42.296 42.784ZM12.7244 32.0187C14.0039 32.302 15.1413 32.5853 16.3497 32.7978C16.4919 32.8686 16.7052 32.8686 16.8473 32.8686C18.1269 32.8686 19.3353 33.2227 20.6149 33.0103C21.6101 33.2936 22.392 32.6561 23.2451 32.4437C23.4583 32.3729 23.6716 32.1604 23.8137 32.0187C24.3113 31.523 24.7379 30.9564 24.9511 30.2481C25.3776 28.9025 25.662 27.5568 25.5198 26.2112C25.5198 25.9279 25.3776 25.6446 25.3065 25.3613C24.9511 25.3613 24.7379 25.2905 24.4535 25.2905C22.6053 25.2197 20.8281 25.7862 18.9799 25.9279C18.6956 25.9279 18.4823 25.9987 18.269 26.0695C16.2786 26.6361 14.2172 26.9194 12.0846 27.3444C12.1557 28.8317 12.5111 30.319 12.7244 32.0187Z" transform="translate(0 33.1957) scale(2)" fill="#2E555B"/>
<path d="M41.2674 26.8799C40.6987 27.0924 40.2011 27.3048 40.13 27.8714C38.9216 28.3672 37.642 28.1547 36.5047 28.0131C34.7986 27.7298 33.0926 27.8006 31.3865 27.659C30.7467 27.5881 30.0359 27.5173 29.3961 27.4465C29.2539 27.4465 29.0407 27.4465 28.8985 27.4465C27.6189 27.5173 26.2683 27.5173 24.9888 27.5881C23.9936 27.659 22.9984 27.7298 22.0032 27.8006C20.2971 27.9422 18.6621 28.0839 16.9561 28.1547C16.2452 28.2255 15.5344 28.1547 14.7524 28.1547C14.7524 28.2964 14.7524 28.5088 14.8235 28.5797C15.1789 29.2171 15.6055 29.7837 15.9609 30.3503C16.5296 31.271 17.3826 31.8376 18.3067 32.4041C19.5863 33.1832 20.9369 33.3957 22.4297 33.3249C24.1357 33.3249 25.8418 33.254 27.6189 33.0416C27.8322 33.0416 28.0455 33.0416 28.2587 32.9707C29.7515 32.4041 31.3154 32.05 32.7371 31.2001C33.5191 30.7752 33.9456 30.7752 34.6564 31.3418C34.9408 31.5543 35.083 31.8376 35.3673 32.05C36.2203 33.0416 37.0023 34.1747 38.0686 35.0246C38.4951 35.3787 38.7794 35.9453 39.0638 36.4411C39.3481 36.9369 39.5614 37.5035 40.13 37.7868C40.2722 37.8576 40.3433 37.9992 40.4855 38.1409C40.7698 38.5658 40.6987 38.9199 40.3433 39.2741C39.7746 39.7698 39.1348 40.1948 38.424 40.4072C35.5095 41.3279 32.5239 42.1778 29.5383 42.7444C28.5431 42.9569 27.4768 43.0277 26.4105 43.1694C25.1309 43.3818 23.9225 43.0985 22.6429 42.9569C21.5767 42.8152 20.5815 42.6028 19.5863 42.3195C18.7332 42.107 17.8091 41.7529 16.9561 41.3988C15.8187 40.9738 14.7524 40.4781 13.615 39.9823C11.056 38.8491 8.92338 37.0785 6.93298 35.1663C5.15584 33.4665 3.8763 31.4126 2.52567 29.3587C2.17024 28.7921 1.95698 28.0839 1.60155 27.4465C0.890691 25.9592 0.464178 24.2594 0.108749 22.6305C-0.104509 21.7098 0.0376617 20.7182 0.179833 19.7975C0.535262 17.2479 1.60155 14.9107 2.95218 12.7151C4.30281 10.3779 6.22212 8.4657 8.07035 6.48264C9.3499 5.06616 10.9849 4.14546 12.6909 3.36639C13.4018 3.01228 14.1126 2.65816 14.8235 2.30404C16.4585 1.38333 18.2356 0.816738 20.1549 0.462619C22.0032 0.179324 23.7803 -0.103971 25.6285 0.0376763C28.9696 0.320971 32.1684 0.887561 35.2251 2.37486C36.5758 3.01227 37.9264 3.72051 39.277 4.35793C40.4144 4.92452 40.912 5.7744 41.0542 6.97841C41.4807 9.88218 41.3385 12.7151 41.3385 15.6189C41.3385 16.1855 41.3385 16.6813 41.3385 17.2479C41.3385 17.6728 41.4096 18.0977 41.2674 18.5227C40.912 20.2933 41.1253 21.993 41.0542 23.7636C40.9831 24.826 41.1252 25.8175 41.2674 26.8799ZM28.1165 11.3695C27.5479 11.2987 27.1924 11.2278 26.7659 11.2278C25.7707 11.2278 24.8466 11.2278 23.8514 11.2278C22.2875 11.2278 20.9369 11.8652 19.7284 12.8568C18.9465 13.565 18.0224 14.2024 17.1693 14.9107C16.5296 15.4064 15.9609 15.973 15.3922 16.4688C15.0368 16.8229 14.6813 17.177 14.3259 17.5312C14.1837 17.6728 14.0416 17.8144 14.1837 18.0977C14.6103 18.0977 15.0368 18.0977 15.5344 18.1686C16.8139 18.1686 18.1645 18.2394 19.4441 18.2394C22.0743 18.381 24.7044 18.6643 27.3346 18.381C27.7611 18.3102 28.2587 18.4519 28.6852 18.0977C28.8985 17.4603 28.8274 16.7521 28.7563 16.1147C28.472 14.6274 28.1165 13.0693 28.1165 11.3695Z" transform="translate(156.171 33.2748) scale(2)" fill="#2E555B"/>
<path d="M12.7954 42.1716C12.44 42.3133 12.1557 42.4549 11.8002 42.4549C10.1653 42.5966 8.53029 42.6674 6.89532 42.7382C6.18446 42.7382 5.47361 42.6674 4.76275 42.5966C4.05189 42.5257 3.34103 42.3841 2.63017 42.4549C1.27955 42.5966 0.213258 41.5342 0.142173 40.0469C1.08045e-06 38.2055 0.0710879 36.3641 0.0710879 34.5227C0.0710879 32.6812 0.142173 30.8398 0.142173 28.9984C0.142173 28.5026 0.142173 28.0069 0.142173 27.5111C0.284344 24.6782 0.142173 21.916 0.142173 19.0831C0.142173 15.8252 0.213258 12.5673 0.142173 9.30939C0.142173 7.60962 -2.16937e-06 5.90985 -2.16937e-06 4.13926C-2.16937e-06 3.0769 0.0710879 2.08537 0.0710879 1.02301C0.995203 0.527243 1.91932 0.243948 2.91452 0.243948C4.19406 0.243948 5.54469 0.243949 6.82424 0.173125C7.32184 0.173125 7.81944 0.173125 8.31704 0.102301C9.24115 -0.11017 10.1653 0.031477 11.0894 0.314772C11.4448 0.385596 11.8002 0.598068 12.0846 0.810539C12.3689 0.952187 12.5111 1.23548 12.5111 1.51878C12.5822 2.08537 12.7954 2.65196 13.0798 3.21855C14.3593 2.22701 15.781 1.66042 17.1317 1.02301C18.3401 0.527243 19.7618 0.385597 21.1125 0.527244C22.392 0.668892 23.6716 0.881363 24.9511 1.09383C25.3065 1.16466 25.5909 1.23548 25.8752 1.37713C26.1596 1.51878 26.3017 1.73125 26.3728 2.08537C26.4439 2.65196 26.5861 3.14772 26.6572 3.71431C26.9415 5.7682 27.1548 7.75127 27.368 9.80516C27.368 9.87598 27.368 9.87598 27.368 9.94681C27.4391 11.1508 27.1548 11.4341 25.9463 11.3633C25.8041 11.3633 25.5909 11.2925 25.4487 11.3633C23.3872 11.6466 21.3257 11.5758 19.3353 12.2132C18.6245 12.4256 17.9136 12.4965 17.2738 12.6381C16.4208 12.7798 15.71 13.1339 14.928 13.5588C13.8617 14.1962 13.293 15.0461 12.9376 16.1793C12.2978 18.0915 12.1557 20.0038 11.8713 21.9869C11.8713 22.0577 11.8002 22.1285 11.8002 22.1993C12.0846 24.0407 11.8002 25.8822 11.8002 27.7236C11.8002 28.6443 11.7292 29.565 11.7292 30.4857C11.7292 33.5311 11.8002 36.5766 11.8713 39.622C11.8713 40.2594 11.8713 40.9676 12.44 41.4634C12.6533 41.6759 12.6533 41.9592 12.7954 42.1716Z" transform="translate(99.0936 33.2872) scale(2)" fill="#2E555B"/>
<path d="M10.2921 40.2279C8.94149 40.0863 7.73304 40.2279 6.52459 40.4404C6.24024 40.5112 5.95589 40.5112 5.67155 40.5112C5.10286 40.5112 4.60527 40.5112 4.03658 40.5112C3.68115 40.5112 3.25464 40.4404 2.89921 40.3696C1.61966 40.1571 1.33532 39.803 1.19315 38.599C1.19315 38.5281 1.19315 38.5281 1.19315 38.4573C1.33532 36.8992 1.12206 35.3411 1.05097 33.8538C0.979885 31.5874 1.05097 29.2502 0.624452 26.9839C0.553366 26.6297 0.553366 26.3464 0.624452 25.9923C0.766624 25.0008 0.695551 24.0801 0.482294 23.0886C0.269036 22.0262 0.340118 21.0347 0.411204 19.9723C0.482289 19.1224 0.482294 18.2725 0.482294 17.4935C0.482294 17.2102 0.411204 16.9977 0.411204 16.7144C0.624461 14.5897 0.340118 12.465 0.411204 10.3403C0.411204 9.70286 0.411199 9.06544 0.340113 8.42803C0.340113 7.71979 0.269023 7.01155 0.269023 6.30332C0.340109 5.09931 0.269032 3.89531 0.0557746 2.6913C-0.086397 1.91224 0.0557702 1.204 0.340113 0.495767C1.12206 0.212471 1.904 3.37714e-08 2.75703 3.37714e-08C4.74743 0.141648 6.80892 0.212471 8.79932 0.283295C8.94149 0.283295 9.15475 0.283295 9.29693 0.283295C11.003 0.0708237 12.638 0.424943 14.344 0.56659C14.4862 0.56659 14.6284 0.637414 14.6995 0.637414C15.0549 0.708238 15.197 0.920709 15.2681 1.27483C15.2681 1.34565 15.2681 1.41648 15.2681 1.55812C15.0549 2.90377 14.9838 4.32025 14.6284 5.6659C14.2018 7.29485 13.7042 8.85297 13.5621 10.5527C13.491 11.261 13.2067 11.9692 12.9934 12.7483C12.8512 13.244 12.7801 13.7398 12.7801 14.2356C12.7801 15.9353 12.4958 17.6351 12.3536 19.3349C12.2825 20.0431 12.2825 20.7514 12.2114 21.4596C12.1404 22.2387 12.1404 22.9469 12.0693 23.726C11.856 25.9923 11.5006 28.2587 11.3584 30.5959C11.2873 32.5789 10.8608 34.4912 10.7186 36.4742C10.7186 36.7575 10.6476 37.0408 10.5054 37.3241C10.2211 38.1032 10.221 38.8823 10.7897 39.5905C10.7186 39.5905 10.5054 39.8738 10.2921 40.2279Z" transform="translate(443.464 3.88745) scale(2)" fill="#2E555B"/>
<path d="M7.52719 12.1109C6.24764 12.1817 4.96811 11.9692 3.75965 11.4735C2.62228 11.0485 1.62707 10.4111 0.916217 9.49039C0.0631874 8.28638 -0.292237 6.94073 0.276449 5.45343C0.489706 4.88684 0.77405 4.32025 0.987307 3.75366C1.48491 2.33719 2.55119 1.41648 3.75965 0.566591C4.11508 0.283296 4.54158 0.141645 5.03918 0.0708216C5.75004 -2.16348e-06 6.4609 -1.08069e-06 7.17176 -1.08069e-06C7.4561 -1.08069e-06 7.66936 -2.16348e-06 7.88262 0.0708216C8.66456 0.424941 9.44652 0.354121 10.2285 0.495769C12.5743 0.849888 14.4225 2.05389 15.631 4.1786C15.7021 4.24943 15.7021 4.32025 15.7021 4.39108C15.7731 6.09085 16.0575 7.93226 14.6358 9.27791C14.3514 9.56121 14.0671 9.77368 13.8538 10.057C13.3562 10.5527 12.7875 10.836 12.1478 11.1193C10.726 11.8276 9.23324 11.9692 7.52719 12.1109Z" transform="translate(438.899 94.4002) scale(2)" fill="#2E555B"/>
<path d="M0 0.434241C0.142172 2.84225 0.213257 5.32108 0.142172 7.72909C0.142172 8.15403 0.639772 8.29568 0.924115 8.01238C1.27954 7.72909 2.70126 7.87074 3.19886 7.87074C3.90972 7.87074 4.54949 7.87073 5.26035 7.79991C5.82903 7.79991 5.82903 6.8792 5.26035 6.95003C4.12298 6.95003 2.9856 7.02085 1.91932 7.02085C1.27954 7.02085 0.853029 6.95003 0.355429 7.37497C0.639772 7.44579 0.853029 7.58744 1.13737 7.65826C1.13737 5.17943 1.13737 2.77142 0.995201 0.363413C0.853029 -0.132354 0 -0.132349 0 0.434241Z" transform="translate(0.710846 136.309) scale(2)" fill="#2E555B"/>
<path d="M0.767203 3.6089C2.04675 3.53807 5.67212 4.17549 5.17452 1.8383C4.81909 0.138531 2.68652 -0.498883 1.33589 0.421826C-0.156912 1.41336 -0.370169 4.03384 0.553946 5.45031C1.62023 7.00844 3.96606 6.3002 4.96127 5.09619C5.31669 4.67125 4.67692 4.03384 4.32149 4.45878C3.61064 5.37949 1.90458 6.0169 1.19372 4.67125C0.767204 3.82137 0.909375 2.05077 1.54915 1.41336C1.90458 0.988417 2.54435 0.775944 3.11303 0.846768C3.82389 0.988415 4.89018 1.90913 3.75281 2.54654C3.46846 2.68819 2.75761 2.54654 2.47326 2.61736C1.90458 2.61736 1.33589 2.68818 0.767203 2.68818C0.198517 2.75901 0.127431 3.6089 0.767203 3.6089Z" transform="translate(15.0997 140.017) scale(2)" fill="#2E555B"/>
<path d="M4.61075 1.21879C3.68663 -0.480981 0.416687 -0.480983 0.132344 1.71455C-0.00982777 2.56444 0.487773 3.27268 1.26972 3.48515C1.90949 3.69762 3.47338 3.55597 3.75772 4.40586C4.11315 5.39739 2.97578 5.46822 2.47818 5.39739C1.76732 5.39739 1.19863 5.04327 0.843202 4.47668C0.558858 3.98092 -0.223085 4.47668 0.0612577 4.90162C0.70103 5.82233 1.69623 6.3181 2.8336 6.24728C3.75772 6.17645 4.82401 5.75151 4.75292 4.68916C4.68183 3.55598 3.54446 2.98938 2.62035 2.77691C1.98057 2.63526 0.558858 2.56444 1.12754 1.50209C1.69623 0.439729 3.3312 0.793846 3.8288 1.64373C4.11315 2.21032 4.89509 1.71456 4.61075 1.21879Z" transform="translate(30.1601 139.84) scale(2)" fill="#2E555B"/>
<path d="M2.44061 0.00748698C1.30324 -0.0633368 0.308037 0.361609 0.09478 1.56561C-0.118477 2.48632 0.09478 3.76115 0.09478 4.68186C0.09478 5.95668 0.165867 7.23151 0.165867 8.50634C0.165867 9.07293 1.08998 9.07293 1.0189 8.50634C1.0189 7.23151 0.94781 5.95668 0.94781 4.68186C0.94781 3.54868 0.379124 0.786552 2.36953 0.857376C3.0093 0.928199 3.0093 0.00748698 2.44061 0.00748698Z" transform="translate(54.6887 134.755) scale(2)" fill="#2E555B"/>
<path d="M0.563265 1.11938C1.62955 0.906905 2.69584 0.765255 3.76212 0.906903C4.33081 0.977727 4.54407 0.127843 3.97538 0.0570197C2.69584 -0.0846279 1.48738 0.0570164 0.278923 0.269488C-0.218677 0.340312 -0.00542155 1.1902 0.563265 1.11938Z" transform="translate(51.9035 139.897) scale(2)" fill="#2E555B"/>
<path d="M0 0.424943C0.0710858 2.26636 0.0710863 4.17861 0.142172 6.02002C0.142172 7.08238 -0.0710869 8.28638 0.781943 9.06544C0.924114 9.20709 1.13737 9.2071 1.35063 9.13627C1.91932 8.85298 1.84823 8.85297 2.34583 8.49886C2.77235 8.14474 2.13257 7.50732 1.70606 7.86144C0.853031 8.49885 0.995202 6.44497 0.995202 6.37414C0.995202 5.73673 0.924115 5.02849 0.924115 4.39107C0.853029 3.04542 0.853028 1.77059 0.781943 0.424943C0.853028 -0.141648 0 -0.141648 0 0.424943Z" transform="translate(63.2664 134.487) scale(2)" fill="#2E555B"/>
<path d="M0.569666 3.41795C1.77812 3.63042 3.12875 3.63042 4.33721 3.48877C5.04807 3.41795 5.33241 2.993 5.26133 2.28477C5.04807 0.584996 3.27092 -0.406537 1.70704 0.160053C-0.212279 0.868291 -0.354451 3.20548 0.498578 4.83443C1.42269 6.67585 3.83961 6.60502 5.04807 5.11772C5.4035 4.69278 4.76373 4.05537 4.4083 4.48031C3.4131 5.68431 1.63595 5.54266 1.13835 3.98454C0.782923 2.92218 0.782921 1.57653 1.92029 1.00994C2.56007 0.726647 3.34201 0.797472 3.83961 1.29324C4.12395 1.57653 4.62155 2.21394 4.19504 2.56806C4.05287 2.70971 2.84441 2.56806 2.56007 2.56806C1.99138 2.56806 1.42269 2.56806 0.854007 2.49724C0.285321 2.49724 0.000979435 3.34713 0.569666 3.41795Z" transform="translate(71.226 140.257) scale(2)" fill="#2E555B"/>
<path d="M1.08468e-06 0.424943C0.142173 1.77059 0.142173 3.11625 0.35543 4.39107C0.497602 5.17014 0.710858 5.80755 1.4928 6.02002C3.34103 6.58661 4.76275 4.95766 5.26035 3.39954C5.40252 2.83295 4.54949 2.62048 4.40732 3.18707C4.19406 3.82449 3.98081 4.32025 3.48321 4.74519C2.77235 5.38261 1.4928 5.52426 1.20846 4.32025C0.924114 3.04542 0.9952 1.69977 0.853028 0.424943C0.853028 -0.141648 1.08468e-06 -0.141648 1.08468e-06 0.424943Z" transform="translate(86.5825 140.152) scale(2)" fill="#2E555B"/>
<path d="M0.00389937 0.424944C0.0749852 2.26636 0.146072 4.10778 0.288244 5.9492C0.359329 6.51579 1.21236 6.51579 1.14127 5.9492C0.999099 4.10778 0.928018 2.26636 0.856932 0.424944C0.856932 -0.141647 -0.0671864 -0.141647 0.00389937 0.424944Z" transform="translate(95.3893 140.011) scale(2)" fill="#2E555B"/>
<path d="M2.16937e-06 0.424941C0.0710879 2.19554 0.14217 3.96613 0.213256 5.73672C0.497599 5.6659 0.781946 5.59508 1.06629 5.52426C1.06629 5.45343 0.995199 5.45343 0.995199 5.38261C0.710856 4.88684 -0.0710869 5.31179 0.213256 5.80755C0.213256 5.87838 0.284341 5.87837 0.284341 5.9492C0.497598 6.37414 1.13737 6.16167 1.13737 5.73672C1.06629 3.96613 0.9952 2.19554 0.924114 0.424941C0.853028 -0.14165 2.16937e-06 -0.14165 2.16937e-06 0.424941Z" transform="translate(102.79 140.436) scale(2)" fill="#2E555B"/>
<path d="M0.821248 2.24878C1.03451 1.82384 2.02971 0.54901 2.59839 1.04478C3.02491 1.46972 3.59359 0.83231 3.23816 0.407367C2.17187 -0.725814 0.607987 0.761482 0.0393004 1.75301C-0.173957 2.3196 0.536905 2.74455 0.821248 2.24878Z" transform="translate(103.28 139.904) scale(2)" fill="#2E555B"/>
<path d="M4.71109 1.1078C3.78697 -0.308679 0.374852 -0.591971 0.161594 1.60357C0.0905084 2.66592 1.08571 3.09086 1.93874 3.23251C2.72068 3.37416 3.92914 3.44498 3.85806 4.57816C3.71589 6.41958 1.37005 5.14476 0.872452 4.43652C0.517023 4.01157 -0.264919 4.43652 0.0905095 4.86146C1.1568 6.34876 4.28457 7.41112 4.71109 4.86146C4.92434 3.7991 4.49783 3.16169 3.50263 2.66592C2.93394 2.38263 1.79657 2.5951 1.29897 2.17015C1.01462 1.39109 1.22788 0.966152 1.93874 0.895329C2.08091 0.895329 2.22308 0.895324 2.36525 0.8245C2.93394 0.8245 3.50263 0.966148 3.85806 1.53274C4.28457 2.0285 5.06651 1.53274 4.71109 1.1078Z" transform="translate(112.845 140.345) scale(2)" fill="#2E555B"/>
<path d="M5.01931 1.26438C4.30846 0.0603781 2.81565 -0.364567 1.53611 0.343671C0.043309 1.19356 -0.312117 3.1058 0.25657 4.66392C0.75417 6.0804 2.53131 6.43452 3.81086 5.79711C5.44583 5.01804 5.51692 3.03498 5.23257 1.54768C5.0904 0.981089 4.23737 1.19356 4.37954 1.76015C4.5928 2.75168 4.66389 4.02651 3.81086 4.73475C2.88674 5.51381 1.32286 5.23051 0.967427 4.09733C0.683084 3.17662 0.825251 2.04344 1.6072 1.40603C2.38914 0.69779 3.66869 0.768614 4.23737 1.76015C4.5928 2.18509 5.37474 1.76015 5.01931 1.26438Z" transform="translate(136.398 140.457) scale(2)" fill="#2E555B"/>
<path d="M0.142169 0.424944C0.213255 3.11625 0.142172 5.87838 0 8.56968C0 9.13627 0.853027 9.13627 0.853027 8.56968C0.995199 5.87838 0.995202 3.11625 0.995202 0.424944C1.06629 -0.141647 0.142169 -0.141647 0.142169 0.424944Z" transform="translate(145.726 140.011) scale(2)" fill="#2E555B"/>
<path d="M0.00390262 0.56659C0.146074 2.26636 -0.280442 6.65743 2.56299 6.30332C5.54859 5.9492 5.40642 2.62048 5.33534 0.424945C5.33534 -0.141645 4.4823 -0.141645 4.4823 0.424945C4.4823 2.26636 4.41122 4.10778 4.41122 6.02002C4.41122 6.58661 5.26425 6.58661 5.26425 6.02002C5.26425 4.1786 5.33534 2.33719 5.33534 0.424945C5.05099 0.424945 4.76665 0.424945 4.4823 0.424945C4.55339 1.98307 4.90882 4.53272 3.06059 5.24096C0.572586 6.23249 0.999102 1.98307 0.85693 0.56659C0.85693 0 -0.0671832 0 0.00390262 0.56659Z" transform="translate(153.253 139.869) scale(2)" fill="#2E555B"/>
<path d="M0.426516 0.853769C0.995202 0.853769 0.995202 0.00388608 0.426516 0.00388608C-0.142171 -0.0669377 -0.142171 0.853769 0.426516 0.853769Z" transform="translate(169.611 140.286) scale(2)" fill="#1D1D1B"/>
<path d="M2.16937e-06 0.424943C0.142174 2.19554 0.213255 3.96613 0.284341 5.73673C0.284341 6.30332 1.20846 6.30332 1.13737 5.73673C1.06629 3.96613 0.995201 2.19554 0.853029 0.424943C0.853029 -0.141648 2.16937e-06 -0.141648 2.16937e-06 0.424943Z" transform="translate(169.611 140.152) scale(2)" fill="#2E555B"/>
<path d="M0.575553 0.0399308C0.29121 0.0399308 0.0779556 0.181582 0.00686976 0.535701C-0.064216 0.960643 0.433385 1.31476 0.717728 0.960642C0.788813 0.889818 0.859896 0.818994 0.930982 0.677346C1.14424 0.18158 0.362297 -0.314186 0.149039 0.252404C0.149039 0.252404 0.14904 0.323227 0.0779545 0.323227C0.291212 0.464875 0.575555 0.606521 0.788812 0.748169V0.818991C0.717727 0.889815 0.575554 0.889818 0.504468 0.960642H0.575553C1.14424 0.889818 1.14424 -0.0308929 0.575553 0.0399308Z" transform="translate(169.739 135.398) scale(2)" fill="#2E555B"/>
<path d="M0.0888529 0.424941C-0.0533187 2.19554 0.0177714 3.89531 0.159943 5.6659C0.231029 6.23249 1.01297 6.23249 1.01297 5.6659C1.01297 4.10778 0.44429 0.424944 3.07446 0.92071C3.64315 0.991534 3.8564 0.141645 3.28771 0.0708216C2.15034 -0.14165 1.08405 0.212474 0.444282 1.20401C-0.266576 2.40801 0.0888529 4.32025 0.0888529 5.6659C0.373196 5.6659 0.657548 5.6659 0.941891 5.6659C0.799719 3.89531 0.728629 2.19554 0.870801 0.424941C1.01297 -0.14165 0.0888529 -0.14165 0.0888529 0.424941Z" transform="translate(186.636 140.436) scale(2)" fill="#2E555B"/>
<path d="M0.711595 3.35485C1.49354 3.35485 2.20441 3.35485 2.98635 3.35485C3.48395 3.35485 4.1948 3.42567 4.6924 3.28402C5.40326 3.07155 5.40326 2.50496 5.26109 1.93837C4.83458 0.167779 2.55983 -0.540464 1.06702 0.451069C-0.354692 1.4426 -0.283597 3.92144 0.853775 5.05462C1.92006 6.1878 4.55023 6.32944 5.19 4.7005C5.40326 4.20473 4.55023 3.92144 4.33697 4.48803C4.05263 5.12544 2.98634 5.05462 2.48874 4.91297C1.77788 4.77132 1.35137 4.4172 1.13811 3.77979C0.782685 2.71743 0.995947 1.15931 2.27549 0.876016C2.91526 0.734369 3.62612 0.946838 4.05264 1.37178C4.19481 1.58425 4.40806 1.86755 4.47914 2.08002C4.55023 2.50496 4.55023 2.29249 4.19481 2.36332C3.12852 2.57579 1.84897 2.36332 0.782685 2.36332C0.142913 2.50496 0.142909 3.35485 0.711595 3.35485Z" transform="translate(196.764 140.383) scale(2)" fill="#2E555B"/>
<path d="M4.82863 0.802298C3.69126 0.0940606 2.19846 -0.401706 0.990001 0.44818C-0.0762852 1.22724 -0.0762874 2.64372 0.0658841 3.7769C0.208056 5.05173 0.776742 6.11408 2.19846 6.32656C3.62017 6.53903 4.75755 5.83079 5.25515 4.55596C5.46841 3.98937 4.61538 3.7769 4.40212 4.34349C4.04669 5.33502 2.69605 5.90161 1.77194 5.33502C0.989995 4.83926 0.918911 3.7769 0.918911 2.92701C0.989997 0.660651 2.83823 0.589831 4.4732 1.58136C4.89971 1.93548 5.32623 1.15642 4.82863 0.802298Z" transform="translate(212.415 140.389) scale(2)" fill="#2E555B"/>
<path d="M0.729345 0.637416C0.658259 0.70824 0.516092 0.708238 0.445006 0.779062C0.302835 0.637414 0.160659 0.495768 0.0184872 0.35412V0.424943C0.160659 0.283295 0.231745 0.141649 0.373916 1.08069e-06H0.302837C0.0895795 0.0708249 -0.0525986 0.283293 0.0184872 0.566588C0.658259 2.47883 1.5113 4.39107 2.43541 6.23249C2.71975 6.72826 3.50169 6.30332 3.21735 5.80755C2.29323 4.03695 1.5113 2.26636 0.871525 0.35412C0.800439 0.566591 0.658261 0.708236 0.587176 0.920707H0.658266C0.871523 0.849883 0.942609 0.708237 1.01369 0.495765V0.424943C1.01369 0.212471 0.800433 1.08069e-06 0.587176 1.08069e-06H0.516096C0.373925 1.08069e-06 0.160667 0.0708216 0.160667 0.212469V0.283297C-0.265847 0.70824 0.516088 1.20401 0.729345 0.637416Z" transform="translate(225.874 140.152) scale(2)" fill="#2E555B"/>
<path d="M5.18774 0.333316C4.83231 1.74979 4.26363 3.16626 3.69495 4.51192C3.26843 5.43262 2.4154 8.69052 0.780427 7.27404C0.353912 6.91993 -0.285856 7.48652 0.140659 7.91146C1.27803 8.97382 2.41541 8.97382 3.19735 7.55734C4.40581 5.3618 5.40101 2.95379 6.04078 0.545784C6.18295 -0.0208065 5.32992 -0.233275 5.18774 0.333316Z" transform="translate(224.776 140.052) scale(2)" fill="#2E555B"/>
<path d="M5.29821 1.32794C4.72952 0.265587 3.37888 -0.159352 2.17042 0.0531189C0.89088 0.336414 0.180022 1.46959 0.0378504 2.6736C-0.104321 4.01925 0.108936 5.43573 1.45957 6.00232C2.95237 6.63973 4.08975 6.21479 4.94278 4.93996C5.29821 4.44419 4.51626 4.01925 4.16083 4.51501C3.52106 5.3649 2.73912 5.6482 1.74392 5.15243C0.819801 4.65666 0.748711 3.31101 0.961968 2.3903C1.3174 0.832177 3.59214 0.194767 4.44517 1.75289C4.8006 2.24866 5.58255 1.82371 5.29821 1.32794Z" transform="translate(240.479 140.046) scale(2)" fill="#2E555B"/>
<path d="M0 0.416478C0 1.90378 0.0710901 3.32026 0.0710901 4.80756C0.0710901 5.79909 -0.0710836 6.93227 0.21326 7.85298C0.568688 9.05698 1.63497 9.34028 2.488 8.49039C2.91452 8.06545 2.27475 7.49886 1.84823 7.85298C0.853034 8.77369 0.924117 6.08238 0.924117 6.08238C0.924117 5.44497 0.924117 4.80755 0.924117 4.24096C0.924117 2.96614 0.924113 1.76213 0.853027 0.487306C0.924113 -0.150108 0 -0.150112 0 0.416478Z" transform="translate(255.909 134.787) scale(2)" fill="#2E555B"/>
<path d="M0.63977 3.49145C1.70606 3.98722 2.91452 3.70393 4.05189 3.6331C4.76275 3.56228 5.40252 3.56228 5.33144 2.71239C5.33144 1.86251 4.76274 0.587679 3.9808 0.162737C3.19886 -0.191382 2.06149 0.0919139 1.35063 0.446033C0.568684 0.870975 2.16937e-06 1.65004 2.16937e-06 2.57075C2.16937e-06 3.49146 0.213253 4.90793 0.781939 5.61617C1.77714 6.89099 4.62058 6.6077 5.11818 5.04958C5.26035 4.48299 4.40732 4.27051 4.26515 4.83711C4.12298 5.4037 3.12778 5.54534 2.70126 5.54534C1.77715 5.61617 1.42172 5.1204 1.20846 4.34134C0.781944 3.06651 0.639774 1.65004 2.13258 1.15427C2.84343 0.870976 3.4832 0.870976 4.05189 1.50839C4.19406 1.79168 4.33623 2.00415 4.40732 2.28745C4.54949 2.49992 4.54949 2.64157 4.26515 2.71239C4.05189 2.92486 2.98561 2.85404 2.70126 2.85404C2.13258 2.92486 1.63497 2.92486 1.13737 2.71239C0.568682 2.49992 0.142169 3.27898 0.63977 3.49145Z" transform="translate(264.155 139.827) scale(2)" fill="#2E555B"/>
<path d="M0 0.424944C0 2.26636 -2.17148e-06 4.10778 0.142169 5.9492C0.142169 6.51579 1.06628 6.51579 0.995197 5.9492C0.924111 4.10778 0.853027 2.26636 0.853027 0.424944C0.853027 -0.141647 0 -0.141647 0 0.424944Z" transform="translate(280.078 140.011) scale(2)" fill="#2E555B"/>
<path d="M0.847529 1.93387C1.27404 1.22563 2.05599 0.588219 2.9801 0.942338C3.76205 1.22563 3.76205 2.0047 3.76205 2.64211C3.76205 3.2087 3.76205 3.77529 3.76205 4.27106C3.76205 4.62518 3.83313 5.47506 3.61987 5.75836C3.83313 5.75836 4.11747 5.68754 4.33073 5.68754C4.33073 5.90001 4.33073 6.11248 4.33073 6.32495C4.68616 5.90001 4.11748 5.26259 3.69096 5.68754C3.54879 5.82918 3.54879 6.11248 3.69096 6.32495C3.90422 6.53742 4.25965 6.46659 4.40182 6.25412C4.82833 5.47506 4.68616 3.91694 4.68616 3.06705C4.68616 2.28799 4.68616 1.43811 4.18856 0.72987C3.69096 0.0216323 2.76685 -0.0491915 1.98491 0.0216323C1.06079 0.16328 0.492096 0.72987 0.0655813 1.43811C-0.218762 1.93387 0.4921 2.42964 0.847529 1.93387Z" transform="translate(280.516 140.109) scale(2)" fill="#2E555B"/>
<path d="M0.00389902 0.424944C0.0749848 1.55812 0.146068 2.6913 0.146068 3.82448C0.146068 4.67437 0.00389467 5.80755 0.288238 6.58661C0.714752 7.86144 1.9943 7.71979 3.06059 7.1532C3.55819 6.86991 3.13167 6.09085 2.63407 6.37414C2.13647 6.72826 1.70996 6.72826 1.21236 6.37414C1.14127 6.02002 1.14127 5.6659 1.14127 5.31179C1.14127 4.81602 1.14127 4.32025 1.07019 3.82448C0.9991 2.6913 0.999102 1.55812 0.928016 0.424944C0.856931 -0.141647 -0.0671868 -0.141647 0.00389902 0.424944Z" transform="translate(296.846 137.178) scale(2)" fill="#2E555B"/>
<path d="M0.426517 0.903005C1.63498 0.832182 2.84343 0.832182 3.98081 0.903005C4.54949 0.903005 4.54949 0.0531168 3.98081 0.0531168C2.77235 -0.017707 1.56389 -0.017707 0.426517 0.0531168C-0.142169 0.0531168 -0.142169 0.903005 0.426517 0.903005Z" transform="translate(294.579 140.329) scale(2)" fill="#2E555B"/>
<path d="M0.0393004 0.758257C0.821244 2.59968 1.60319 4.37027 2.38513 6.21169C2.52731 6.49498 3.02491 6.49498 3.16708 6.21169C3.94903 4.37027 4.65988 2.45803 5.37073 0.545784C5.58399 -0.0208065 4.73096 -0.233275 4.51771 0.333316C3.80685 2.17473 3.16708 4.01615 2.38513 5.78675C2.66948 5.78675 2.88274 5.78675 3.16708 5.78675C2.38514 3.94533 1.60319 2.17473 0.821248 0.333316C0.536905 -0.233275 -0.173957 0.191667 0.0393004 0.758257Z" transform="translate(314.405 140.052) scale(2)" fill="#2E555B"/>
<path d="M2.09399 0.224818C0.672274 0.791409 -0.180751 2.91612 0.0325067 4.3326C0.245764 5.89072 2.16508 6.38649 3.51571 6.03237C6.50131 5.2533 5.22177 -1.47495 2.16508 0.295641C1.66748 0.578936 2.09399 1.358 2.59159 1.0747C3.80005 0.437288 4.22657 1.99541 4.29765 2.8453C4.36874 3.97848 4.01331 5.18248 2.66268 5.25331C1.59639 5.25331 0.743362 4.75754 0.885534 3.55353C0.95662 2.70365 1.45422 1.358 2.30725 1.0747C2.80485 0.86223 2.59159 0.0123469 2.09399 0.224818Z" transform="translate(329.489 139.844) scale(2)" fill="#2E555B"/>
<path d="M0.00390119 0.424944C0.074987 1.7706 0.146064 3.11625 0.21715 4.4619C0.288236 5.24096 0.146064 6.23249 0.572579 6.86991C1.14127 7.93226 2.4919 8.00309 3.27384 7.1532C3.62927 6.72826 2.9895 6.09085 2.63407 6.51579C1.07019 8.28638 1.07019 4.24943 1.07019 3.68284C0.999102 2.62048 0.928008 1.4873 0.928008 0.424944C0.856922 -0.141647 -0.0671846 -0.141647 0.00390119 0.424944Z" transform="translate(346.322 137.178) scale(2)" fill="#2E555B"/>
<path d="M0.453559 1.01951C1.02225 0.948688 1.59094 0.948689 2.15962 0.948689C2.44397 0.948689 2.65722 0.948689 2.94156 0.948689C3.01265 0.948689 3.7235 0.94869 3.65242 0.877866C3.65242 0.665395 3.65242 0.452922 3.65242 0.240451C3.86568 0.240451 4.07894 0.240451 4.2922 0.240451C3.93677 -0.184492 3.29699 0.452924 3.65242 0.877866C3.79459 1.09034 4.07894 1.01951 4.2922 0.877866C4.50546 0.736219 4.43437 0.382099 4.2922 0.240451C4.00785 -0.113668 3.22591 0.0279776 2.79939 0.0279776C2.01745 0.0279776 1.2355 0.0988046 0.453559 0.169628C-0.115127 0.169628 -0.186213 1.01951 0.453559 1.01951Z" transform="translate(344.428 139.813) scale(2)" fill="#2E555B"/>
<path d="M0.0335639 0.448973C-0.108608 2.21957 0.246823 4.06099 0.246823 5.83158C0.246823 6.39817 1.09985 6.39817 1.09985 5.83158C1.09985 4.91087 1.09985 3.91934 1.09985 2.99863C1.09985 2.43204 1.17095 1.86545 1.59746 1.44051C1.81072 1.22804 2.66375 0.732266 3.01918 0.944737C3.01918 0.732266 2.94809 0.448971 2.94809 0.2365C3.16134 0.2365 3.3746 0.2365 3.58785 0.2365C3.16134 -0.188443 2.52157 0.448972 2.94809 0.873915C3.09026 1.01556 3.3746 1.01556 3.58785 0.873915C3.80111 0.661443 3.73003 0.307325 3.51677 0.165677C2.66374 -0.330089 1.24202 0.37815 0.744422 1.08639C-0.108608 2.36122 0.246823 4.4151 0.246823 5.83158C0.531167 5.83158 0.815508 5.83158 1.09985 5.83158C1.09985 4.06099 0.74443 2.21957 0.886602 0.448973C0.957688 -0.117617 0.10465 -0.117617 0.0335639 0.448973Z" transform="translate(356.641 140.104) scale(2)" fill="#2E555B"/>
<path d="M0.540724 3.58395C1.25158 3.58395 2.03351 3.51312 2.74437 3.51312C3.24197 3.51312 3.81066 3.58395 4.30826 3.37148C5.01912 3.08818 5.01912 2.5216 4.94803 1.88418C4.5926 0.113587 2.6022 -0.523827 1.1094 0.467706C-0.312314 1.53006 -0.241237 3.93807 0.611793 5.28372C1.60699 6.77102 4.02391 6.4169 4.94803 4.9296C5.23237 4.43383 4.45042 4.00889 4.16608 4.50466C3.81065 5.14207 3.02873 5.35454 2.31787 5.28372C1.60701 5.2129 1.32266 4.9296 1.1094 4.22136C0.753973 3.22983 0.82505 1.955 1.67808 1.24677C2.10459 0.892647 2.67329 0.751 3.24198 0.892647C3.73958 1.10512 4.45044 2.02583 3.73958 2.45077C3.45524 2.66324 2.46003 2.5216 2.1046 2.5216C1.53591 2.5216 1.03832 2.59242 0.469634 2.59242C-0.0279663 2.73407 -0.027962 3.58395 0.540724 3.58395Z" transform="translate(367.427 139.925) scale(2)" fill="#2E555B"/>
<path d="M0.00389178 0.424945C0.217149 2.90378 0.501505 5.38261 0.217162 7.86144C0.501505 7.86144 0.785835 7.86144 1.07018 7.86144C1.07018 7.79062 1.07018 7.71979 1.07018 7.64897C0.999093 7.08238 0.146076 7.08238 0.217162 7.64897C0.217162 7.71979 0.217162 7.79062 0.217162 7.86144C0.288248 8.42803 1.07018 8.42803 1.07018 7.86144C1.35452 5.38261 1.07019 2.90378 0.85693 0.424945C0.85693 -0.141645 -0.067194 -0.141645 0.00389178 0.424945Z" transform="translate(392.101 140.577) scale(2)" fill="#2E555B"/>
<path d="M0.886965 2.29692C1.24239 1.30538 2.37977 0.384674 3.44606 1.23456C4.01474 1.6595 4.37017 2.50938 4.44125 3.21762C4.51234 3.85504 4.29908 4.91739 3.7304 5.27151C2.59302 5.97975 1.74 4.77575 1.02915 4.06751C0.60263 3.64257 -0.0371373 4.27998 0.389377 4.70493C1.31349 5.62564 2.59302 7.04211 4.01473 6.1214C5.08102 5.48399 5.43646 3.92586 5.2232 2.79268C5.00994 1.58868 4.22799 0.172199 2.94845 0.0305517C1.45565 -0.18192 0.460463 0.738792 0.0339486 2.01362C-0.179309 2.65103 0.673708 2.86351 0.886965 2.29692Z" transform="translate(392.61 139.808) scale(2)" fill="#2E555B"/>
<path d="M0.648328 1.60288C1.07484 1.31958 1.50135 0.965463 1.99895 0.894639C3.2785 0.54052 3.49176 1.3904 3.49176 2.38194C3.49176 3.30265 3.42067 4.29418 3.84719 5.14407C4.2737 6.1356 5.7665 6.41889 5.90867 5.14407C5.97976 4.57748 5.12672 4.57748 5.05563 5.14407C4.77129 4.9316 4.62913 4.6483 4.55805 4.29418C4.48696 4.01089 4.41587 3.72759 4.41587 3.44429C4.41587 3.01935 4.48695 2.52358 4.41587 2.09864C4.41587 1.53205 4.2737 0.89464 3.84719 0.469698C2.7809 -0.521835 1.21701 0.257224 0.221809 0.965462C-0.275792 1.17793 0.150727 1.88617 0.648328 1.60288Z" transform="translate(408.3 140.629) scale(2)" fill="#2E555B"/>
<path d="M3.49611 0.061275C2.92742 0.34457 2.42983 0.557038 1.79006 0.627862C1.29246 0.698686 0.86595 0.769513 0.510521 1.12363C-0.129252 1.76105 -0.129265 2.68175 0.29725 3.46081C1.29245 5.08976 3.63829 3.67328 4.27806 2.39846C4.49132 1.90269 3.78045 1.40692 3.49611 1.97352C3.21177 2.54011 2.78526 2.96505 2.21658 3.10669C1.5768 3.31917 0.86595 3.17752 0.86595 2.32763C0.937035 1.47775 1.79005 1.54857 2.35873 1.40692C2.92742 1.26528 3.42503 1.05281 3.92263 0.769513C4.49132 0.557041 3.99371 -0.22202 3.49611 0.061275Z" transform="translate(408.007 144.846) scale(2)" fill="#2E555B"/>
<path d="M8.67746e-06 0.424942C0.0710945 1.69977 0.142172 2.9746 0.213257 4.1786C0.213257 4.74519 0.284347 5.38261 0.284347 5.9492C0.284347 6.44497 0.4976 7.71979 0.213257 8.14474C0.4976 8.14474 0.710862 8.14474 0.995205 8.14474C0.924119 8.35721 0.924111 8.56968 0.853025 8.78215C1.35063 8.56968 0.924106 7.79062 0.426506 8.00309C0.213249 8.07391 0.142176 8.42803 0.284347 8.6405C0.426519 8.92379 0.853038 8.92379 1.0663 8.6405C1.5639 7.79061 1.20845 6.02002 1.20845 5.09931C1.13737 3.54119 1.06629 1.98306 0.995205 0.424942C0.853034 -0.141649 8.67746e-06 -0.141649 8.67746e-06 0.424942Z" transform="translate(423.245 140.294) scale(2)" fill="#2E555B"/>
<path d="M1.05645 2.15959C1.41188 1.16806 2.54925 0.672293 3.47337 1.16806C4.18422 1.593 4.61074 2.58453 4.61074 3.3636C4.61074 4.21348 4.11314 5.06336 3.18903 5.27584C2.05166 5.55913 1.34081 4.70925 0.843206 3.78854C0.558863 3.29277 -0.223085 3.71771 0.0612583 4.21348C0.772116 5.41748 1.83841 6.47985 3.4023 6.0549C4.75293 5.70078 5.53486 4.35513 5.39269 2.93865C5.25052 1.593 4.46859 0.247352 3.04687 0.0348803C1.69624 -0.177591 0.558859 0.601471 0.0612583 1.80547C0.0612583 2.44289 0.914283 2.72618 1.05645 2.15959Z" transform="translate(423.549 139.941) scale(2)" fill="#2E555B"/>
<path d="M-8.67746e-06 0.416479C-8.67746e-06 2.18707 -4.33767e-06 4.02849 0.0710815 5.79909C0.0710815 6.29485 0.853034 6.4365 0.92412 5.94074C0.92412 5.86991 0.924124 5.79909 0.99521 5.79909C1.13738 5.2325 0.284343 5.02003 0.142172 5.58662C0.142172 5.65744 0.142167 5.72826 0.0710815 5.72826C0.355425 5.79909 0.639776 5.79909 0.92412 5.86991C0.92412 4.09932 0.853029 2.2579 0.853029 0.487302C0.924115 -0.150112 -8.67746e-06 -0.150111 -8.67746e-06 0.416479Z" transform="translate(439.737 140.311) scale(2)" fill="#2E555B"/>
<path d="M0.181218 0.111345C0.181218 0.111345 0.181218 0.182169 0.181218 0.111345C-0.316382 0.607111 0.323381 1.1737 0.749896 0.819583L0.820986 0.74876C1.2475 0.323817 0.607733 -0.242774 0.181218 0.111345Z" transform="translate(439.801 135.68) scale(2)" fill="#2E555B"/>
<path d="M0.624823 3.57298C1.40677 3.6438 2.11763 3.6438 2.89958 3.6438C3.39718 3.6438 4.17912 3.71463 4.67672 3.57298C5.31649 3.36051 5.38757 2.79392 5.2454 2.22733C4.81888 0.102613 3.11282 -0.534801 1.26459 0.456732C-0.441468 1.37744 -0.228197 3.85627 0.767004 5.27275C1.90438 6.76005 3.96586 6.6184 4.96106 5.1311C5.31649 4.63533 4.53454 4.21039 4.17911 4.70616C3.11283 6.12263 1.47786 5.34357 1.05134 3.9271C0.624828 2.65227 0.90918 1.44826 2.25981 1.02332C3.25501 0.740024 3.89477 1.02332 4.17911 1.94403C4.2502 2.1565 4.32129 2.29815 4.32129 2.51062C4.32129 2.79392 4.17911 2.93556 3.82368 2.79391C2.89957 3.07721 1.47787 2.79391 0.482665 2.72309C0.0561501 2.65227 0.0561371 3.50216 0.624823 3.57298Z" transform="translate(447.16 139.947) scale(2)" fill="#2E555B"/>
<path d="M0.00420374 0.424944C0.146375 2.26636 0.21747 4.17861 0.146384 6.02002C0.430727 6.02002 0.715057 6.02002 0.9994 6.02002C0.9994 5.9492 0.9994 5.87837 0.9994 5.80755C0.928315 5.24096 0.0752982 5.24096 0.146384 5.80755C0.146384 5.87837 0.146384 5.9492 0.146384 6.02002C0.21747 6.58661 0.9994 6.58661 0.9994 6.02002C1.07049 4.10778 0.999413 2.26636 0.857242 0.424944C0.786156 -0.141647 -0.066882 -0.141647 0.00420374 0.424944Z" transform="translate(462.76 140.011) scale(2)" fill="#2E555B"/>
<path d="M0.81843 2.30506C1.24495 1.45517 1.88472 0.605289 2.951 1.03023C3.4486 1.2427 3.73296 0.392815 3.16427 0.180343C2.5245 -0.102952 1.88473 -0.0321237 1.31604 0.251171C0.676268 0.60529 0.320826 1.17188 0.0364824 1.80929C-0.176775 2.37588 0.605173 2.80082 0.81843 2.30506Z" transform="translate(463.122 140.217) scale(2)" fill="#2E555B"/>
</svg>
