<?xml version="1.0" encoding="utf-8"?>
<!-- Generator: Adobe Illustrator 21.1.0, SVG Export Plug-In . SVG Version: 6.00 Build 0)  -->
<svg version="1.1" id="Calque_1" xmlns="http://www.w3.org/2000/svg" xmlns:xlink="http://www.w3.org/1999/xlink" x="0px" y="0px"
	 viewBox="0 0 375 583" style="enable-background:new 0 0 375 583;" xml:space="preserve">
<style type="text/css">
	.st0{fill:#DB786F;}
	.st1{fill:#F3F3F3;}
	.st2{fill:#2E555B;}
	.st3{fill:#1D1D1B;}
	.st4{fill:none;stroke:#1D1D1B;stroke-width:1.5;stroke-miterlimit:10;}
	.st5{fill:none;stroke:#1D1D1B;stroke-miterlimit:10;}
</style>
<path class="st0" d="M1.6,267.7c119.9-4.9,240.1-4.2,360,2.1c6.8,0.4,13.8,0.8,20,3.4c5.3,2.2,9.6,5.9,13.3,9.9
	c18.5,19.6,24.6,46.3,27.7,71.9c8.3,66.3,2.2,134.1-19.2,198c-5.4,16.1-12.1,32.5-24.6,45c-25.9,25.6-68.7,28.3-107,29.6
	c-97.3,3.3-194.6,9.2-291.9,4.8c-20.1-0.9-40.7-2.4-58.9-10.2c-4.7-2.1-9.6-4.9-11.4-9.3c-1.7-4.2-0.1-8.9,1.5-13.2
	c17.2-44.8-24.5-89-1.5-131.6s40.6-91.6,29.8-138c-4.9-21.3,55-38.1,62.5-58.8"/>
<path d="M1.9,271.2c49.2,8.6,98.7-4.4,147.9-6c53.1-1.6,105.7,8.7,158.7,9.8c13.3,0.3,26.5,0,39.8,0c6.8,0,13.6,0.1,20.4,0.3
	c6.5,0.2,13.5,0,19.9,1.6c6.2,1.5,10.2,6.5,13.9,11.3c3.6,4.7,6.9,9.7,9.9,14.9c6,10.5,10.5,21.7,13.4,33.4
	c6.1,24.4,5.5,49.9,3.3,74.8c-2.2,25.5-5.8,50.8-6.5,76.3c-0.8,25.4,0.2,50.7-1.3,76c-0.8,12.9-2.1,25.8-4.7,38.4
	c-2.4,12-5.5,24.5-12,35c-12.6,20.4-37.8,25.9-60.2,26.7c-13.1,0.5-26.1-0.2-39.2,0.5c-13,0.7-25.9,2.4-38.8,4.1
	c-25.6,3.5-51.1,6.4-77.1,6c-25.1-0.4-50.1-3.1-74.6-8.2c-12.4-2.6-24.7-5.8-36.9-9.6c-11.9-3.7-23.5-8.2-35.1-12.7
	c-5.8-2.3-11.7-4.4-17.7-6c-5.6-1.5-11.2-2.3-16.9-3c-5.9-0.8-11.8-2.1-16.1-6.5c-3.4-3.4-5.4-8-6.6-12.7
	c-1.4-5.1-1.8-10.4-2.2-15.6c-0.5-6.6-0.9-13.3-1.2-19.9c-0.7-13.5-1-26.9-1.2-40.4c-0.3-26.6,0.3-53.3,0.8-79.8
	c1.1-51.2,2.2-102.9,12.3-153.3c2.4-12.1,5.4-24.1,8.9-36c0.3-0.9-1.1-1.2-1.4-0.4c-15,49.9-18.7,102.3-20.4,154.2
	c-0.8,26.7-1.4,53.4-1.7,80.1c-0.3,27.2-0.1,54.5,1.4,81.7c0.6,10.9,0.5,22.6,4.2,33.1c1.5,4.1,3.6,8.1,6.9,11
	c3.8,3.4,8.7,4.9,13.8,5.7c6,0.9,12,1.5,17.8,3c6.2,1.6,12.2,3.8,18.1,6c12,4.6,24,9.3,36.3,13.1c48.4,15.1,99.9,20.7,150.5,16.3
	c26.6-2.3,52.9-7.7,79.6-8.9c24.3-1.1,49.8,2.5,72.9-7.2c9.7-4.1,18.3-10.4,24.1-19.2c6.7-10.1,9.9-22.4,12.5-34.1
	c5.5-25.2,6.1-51.1,6.2-76.7c0.1-26,0.3-51.8,2.9-77.6c2.5-25.6,6.1-51.2,5.4-77c-0.7-24.4-5.6-48.5-17.6-70
	c-2.9-5.2-6.2-10.2-9.7-15c-3.1-4.1-6.3-8.5-10.8-11.3c-5-3-11.3-3-16.9-3.3c-6.8-0.4-13.6-0.6-20.3-0.6c-13.8-0.1-27.5,0.1-41.2,0
	c-13.7-0.1-27.4-0.8-41.1-1.8c-27-2-54-5.2-81.1-6.9c-13.3-0.8-26.8-1.4-40.1-1.2c-12.6,0.2-25.2,1.3-37.7,2.6
	c-25.4,2.6-50.7,6.1-76.3,6.3c-12.4,0.1-24.7-0.7-36.9-2.8C1.4,269.7,1,271.1,1.9,271.2z"/>
<path d="M39.7,294.8c0.9,0,1.8,0,2.7,0c0.9,0,0.9-1.4,0-1.4c-0.9,0-1.8,0-2.7,0S38.8,294.8,39.7,294.8z"/>
<path d="M62.6,302.5c1.3,1.5,3.3,2.2,5.3,1.6c0.9-0.2,0.5-1.6-0.4-1.4c-1.5,0.4-2.9-0.1-3.9-1.3C63.1,300.8,62.1,301.8,62.6,302.5z"
	/>
<path d="M93.4,290.9c2.1-1.1,4.6-2.3,6.7-0.8c0.8,0.5,1.5-0.7,0.7-1.2c-2.6-1.8-5.6-0.5-8.2,0.8C91.9,290.1,92.6,291.3,93.4,290.9z"
	/>
<path d="M124.7,284.8c0.2-0.5,0.7-0.9,1.2-1c0.9-0.2,0.5-1.6-0.4-1.4c-0.9,0.2-1.6,0.8-2.1,1.7c-0.2,0.3-0.1,0.8,0.2,1
	C124,285.2,124.5,285.1,124.7,284.8z"/>
<path d="M134,313.6c3.1-0.7,6.2-1.2,9.4-1.4c0.9-0.1,0.9-1.5,0-1.4c-3.3,0.3-6.6,0.8-9.8,1.5C132.7,312.4,133.1,313.8,134,313.6z"/>
<path d="M175.8,318.1c0.8,1.5,2.4,2.3,4.1,2c0.9-0.1,0.5-1.5-0.4-1.4c-1,0.1-2-0.4-2.5-1.4C176.6,316.6,175.5,317.3,175.8,318.1z"/>
<path d="M213,318.5c1.2-0.5,2.4-1,3.6-1.5c0.8-0.3,0.5-1.7-0.4-1.4c-1.2,0.5-2.4,1-3.6,1.5C211.8,317.5,212.2,318.8,213,318.5z"/>
<path d="M236.2,284.5c1.1-0.1,2.1,0,3.1,0.2c0.8,0.3,1.2-1.1,0.4-1.4c-1.2-0.4-2.3-0.5-3.5-0.3C235.3,283.2,235.3,284.6,236.2,284.5
	z"/>
<path d="M254,293.6c0.7,0.6,1.7,0.7,2.5,0.2c0.3-0.2,0.5-0.6,0.2-1c-0.2-0.3-0.7-0.5-1-0.2c-0.2,0.1-0.6,0.2-0.8,0
	c-0.3-0.2-0.7-0.3-1,0C253.8,292.8,253.7,293.3,254,293.6z"/>
<path d="M263.1,313.5c1,0,2,0,3,0c0.9,0,0.9-1.4,0-1.4c-1,0-2,0-3,0C262.3,312,262.3,313.5,263.1,313.5z"/>
<path d="M295.1,299.6c1-1.2,2.4-1.7,3.9-1.3c0.9,0.2,1.2-1.1,0.4-1.4c-1.9-0.6-4,0-5.4,1.6C293.5,299.3,294.5,300.3,295.1,299.6z"/>
<path d="M314,290.5c1.5-0.3,3-0.4,4.5-0.3c0.9,0,0.9-1.4,0-1.4c-1.6-0.1-3.2,0-4.8,0.4C312.8,289.4,313.1,290.7,314,290.5z"/>
<path d="M281.5,288.8c1.6-0.1,3.2-0.1,4.8,0.2c0.9,0.1,1.3-1.2,0.4-1.4c-1.7-0.3-3.5-0.4-5.2-0.2
	C280.6,287.5,280.6,288.9,281.5,288.8z"/>
<path d="M308.2,315.5c1.3,0,2.7,0,4,0c0.9,0,0.9-1.4,0-1.4c-1.3,0-2.7,0-4,0C307.3,314.1,307.3,315.5,308.2,315.5z"/>
<path d="M339.9,303.5c0.2,0,0.3,0,0.4,0c0,0,0.2,0.1,0.2,0.1c0.1,0.1,0.1,0.1,0.1,0.1c0.2,0.3,0.6,0.5,1,0.2c0.3-0.2,0.5-0.7,0.2-1
	c-0.4-0.7-1.1-1.1-1.9-1c-0.4,0-0.7,0.3-0.7,0.7C339.2,303.1,339.5,303.5,339.9,303.5z"/>
<path d="M344.9,323.1c0.4,0,0.9,0,1.3,0c0.9,0,0.9-1.4,0-1.4c-0.4,0-0.9,0-1.3,0C344,321.7,343.9,323.1,344.9,323.1z"/>
<path d="M84.8,325.7c-0.2,0-0.5,0-0.7-0.1c-0.3-0.2-0.7-0.3-1,0c-0.2,0.2-0.3,0.8,0,1c0.6,0.5,1.3,0.7,2,0.5
	C86.1,326.9,85.7,325.5,84.8,325.7z"/>
<path d="M65.9,327.1c-1.6-0.4-3.1-1.1-4.3-2.3c-0.7-0.6-1.6,0.4-1,1c1.4,1.3,3.1,2.2,4.9,2.6C66.4,328.6,66.8,327.3,65.9,327.1z"/>
<path d="M51.4,320.1c-1.1-0.1-2.2,0-3.2,0.4c-0.8,0.3-0.5,1.6,0.4,1.4c0.9-0.3,1.8-0.4,2.8-0.3C52.3,321.5,52.3,320.1,51.4,320.1z"
	/>
<path d="M38.5,319.1c-0.9-0.4-1.8-0.7-2.6-1.1c-0.4-0.1-0.8,0.1-0.8,0.5c-0.1,0.4,0.1,0.7,0.5,0.8c0.9,0.4,1.8,0.7,2.6,1.1
	c0.4,0.1,0.8-0.1,0.8-0.5C39.1,319.6,38.9,319.2,38.5,319.1z"/>
<path class="st1" d="M453.2,16.3C430.4,6.2,405.7,0.6,380.8,0c-11.9-0.3-24.7,0.9-34,8.2c-3.7,2.9-6.7,6.7-10.6,9.4
	c-5.1,3.4-11.2,4.5-17.3,5c-26.2,2.2-54.3-5.6-77.8,6.2c-5.8,2.9-11.2,6.9-17.7,7.7c-4.4,0.5-8.9-0.6-13.2-1.4
	c-10-1.7-20.4-1.7-30.4,0c-1.1,6.4,3.9,12.7,9.9,15.4c6,2.6,12.8,2.5,19.4,2.5c50.5-0.1,101,7.9,149.1,23.8
	c21.1,7,42.2,15.6,64.5,15.6c26.6,0,52-12.7,71.4-30.9c5.1-4.7,10.1-11.8,7.1-18c-1.6-3.3-5-5.2-8.3-6.9
	C479,29.5,465,22.3,451.1,15.3"/>
<path class="st1" d="M-73.8,85.6C-51.4,76.5-26.9,71.5-2.3,71c11.8-0.2,24.4,0.8,33.6,7.4c3.6,2.6,6.6,6,10.5,8.4
	c5,3,11.1,4,17.1,4.5c25.9,2,53.7-5,77,5.5c5.7,2.6,11.1,6.2,17.4,6.9c4.4,0.5,8.7-0.5,13.1-1.2c9.9-1.6,20.2-1.6,30,0
	c1.1,5.8-3.9,11.4-9.8,13.8c-5.9,2.4-12.6,2.3-19.2,2.2c-50-0.1-99.9,7.2-147.4,21.4c-20.9,6.3-41.8,14-63.7,14
	c-26.2,0-51.5-11.4-70.6-27.8c-5-4.3-10-10.6-7-16.2c1.6-2.9,5-4.7,8.1-6.2C-99.5,97.4-85.8,91-72,84.7"/>
<path d="M-75.5,89.6c18.1-7.2,37.1-11.9,56.5-13.7c9-0.9,18.2-1.4,27.2-0.4c9.7,1,17.7,4.2,25.1,10.6c6,5.2,12.1,7.9,20.1,8.9
	c9.1,1.1,18.3,0.8,27.4,0.4c17.7-0.7,36.6-2.1,53.2,5.6c4,1.9,7.9,4.2,12,5.6c4.3,1.5,8.5,1.6,12.9,0.9c12-1.6,23.3-2.8,35.4-0.9
	c-0.3-0.4-0.5-0.7-0.8-1c0.9,6.7-5,11.5-10.8,13.4c-6.5,2.1-13.7,1.6-20.4,1.6c-13.1,0.1-26.3,0.6-39.4,1.7
	c-26,2.1-52,6.2-77.3,12.3c-12.7,3.1-25.2,6.7-37.7,10.6c-12.7,3.9-25.5,7.9-38.7,9.7c-24.8,3.4-49.4-2.8-70.4-16.1
	c-5.6-3.6-11.4-7.5-16.2-12.3c-2.6-2.6-5.6-6.2-5.4-10.2c0.3-4.2,4.2-6.3,7.5-7.9c13.9-6.9,28-13.2,42.2-19.7
	c1.3-0.6,0.1-2.4-1.1-1.9c-13.9,6.4-27.9,12.7-41.7,19.5c-4.1,2-8.8,4.7-9.1,9.9c-0.4,5.2,3.7,9.9,7.3,13.2
	c17.9,16.4,42.5,27.2,66.8,28.6c28.5,1.7,55.5-10.2,82.5-17.6c28.7-7.8,58.2-13,87.8-15.7c16.3-1.4,32.5-1.9,48.9-2
	c10.1,0,29.3-2.6,27.4-17.1c-0.1-0.4-0.3-0.9-0.8-1c-9.2-1.4-18.6-1.6-27.9-0.4c-5.4,0.7-10.9,2.3-16.4,1.4
	c-4.6-0.7-8.7-3.1-12.9-5.2c-15.7-7.9-32.8-8.1-50-7.4c-9,0.4-18,0.9-27,0.4c-4.7-0.2-9.5-0.6-14.1-1.9c-5.1-1.5-8.8-4.4-12.7-7.8
	C20.6,72,3,72-13.6,73.2C-35,74.6-56.2,79.4-76,87.4C-77.3,88.1-76.8,90.1-75.5,89.6z"/>
<path d="M455.9,19.7C438.3,12,419.7,6.8,400.6,4.5c-16.4-1.9-37-3.9-51.2,6.4c-3.1,2.3-5.6,5.2-8.6,7.7c-4.1,3.6-8.8,5.5-14,6.5
	c-9.5,1.8-19.4,1.2-29.1,0.9c-17.3-0.7-35.4-2.2-51.8,4.7c-4.9,2.1-9.2,5.1-14.1,7.2c-6,2.6-11.7,1.9-18,0.8
	c-10.7-1.9-21.5-2-32.3-0.2c-0.5,0.1-0.7,0.6-0.8,1c-1.5,12.3,11.5,18,21.7,18.7c7.1,0.5,14.4,0.1,21.5,0.3
	c7.4,0.2,14.9,0.6,22.3,1.1c30.5,2.2,60.8,7.4,90.3,15.5c14.6,4,28.9,9.1,43.2,13.8c13.5,4.4,27.4,8.3,41.6,8.8
	c25.6,0.9,50.3-9.9,69.7-26.1c7.9-6.5,21.3-19.6,9-28.8c-3.1-2.4-6.9-4-10.4-5.8c-4-2.1-8-4.2-11.9-6.2c-8-4.2-16-8.2-24-12.2
	c-1.2-0.6-2.3,1.2-1.1,1.9c12.9,6.5,25.7,13.1,38.5,19.8c6.1,3.2,14.1,6.9,11.1,15.4c-2.1,5.9-7.6,10.3-12.2,14.2
	c-18.9,15.9-43,26.6-68,25.9c-26.9-0.8-52.2-13.1-77.8-20.5c-26.1-7.6-52.8-13-79.8-16c-15.2-1.7-30.6-2.6-45.9-2.9
	c-7.4-0.1-15.2,0.6-22.4-1.1c-7.2-1.8-14.1-7.6-13.1-15.7c-0.3,0.4-0.5,0.7-0.8,1c10.4-1.7,20.8-1.6,31.2,0.2
	c4.1,0.7,8.3,1.6,12.5,1.1c4.1-0.5,7.9-2.4,11.5-4.4c8.5-4.7,16.7-8.1,26.4-9.3c8.9-1.1,17.8-0.9,26.7-0.5c9,0.4,18.1,0.9,27.1,0.4
	c8.2-0.4,16.7-1.5,23.4-6.8c3.4-2.6,6.1-6.1,9.6-8.7c3.6-2.6,7.8-4.4,12.1-5.6c8.7-2.3,18-2.1,27-1.6c22.5,1.3,44.7,6.7,65.2,15.9
	C456.1,22.2,457.2,20.3,455.9,19.7z"/>
<path class="st2" d="M56.2,249.7c-1.6,0.1-3.3,0-5-0.3c-0.7-0.1-1.3-0.3-1.8-0.7c-0.5-0.4-0.8-0.9-1.1-1.5c-1.6-3.3-2.5-7-2.8-10.7
	c0-0.5,0-0.9-0.3-1.3c-0.6-1.2-2.3-1-3.6-1c-3.7,0.2-7.4-1.3-9.9-3.9c-1.3-1.3-2.6-3-4.4-2.8c-1.2,0.1-2.2,1.3-2.5,2.4
	c-0.3,1.2-0.2,2.4-0.1,3.7c0.2,1.9,0.5,4,1.8,5.4c0.9,0.9,2.1,1.5,3.1,2.3c2.9,2.5,2.8,7.1,1.9,10.8c-0.9,3.8-2.4,7.6-1.3,11.3
	c0.3,0.9,0.7,1.9,1.4,2.5c0.8,0.8,1.9,1,3,1.4c3.9,1.1,7.8,2.3,11.7,3.3c3.4,0.9,6.9,1.9,10.3,1.5c1.5-0.2,3.1-0.6,4.3-1.6
	c2.2-1.8,2.7-4.8,3-7.6c0.2-2,0.4-4.1-0.7-5.9c-0.8-1.3-2.3-2.2-3.1-3.6c-0.8-1.4-1.3-3.6-2.9-3.6"/>
<path class="st2" d="M98.2,291.7c11-4.5,18.6-17.3,15.1-28.7c-1.4-4.6-4.4-8.6-7.7-12.2c-2.6-2.9-5.4-5.6-7.6-8.9
	c-2.2-3.2-3.6-7.2-3-11c0.8-4.5,4.2-8.9,2.9-13.3c-1-3.2-4.1-5-6.8-7c-5.5-4-9.9-9.7-12.4-16c-0.4-0.9-0.7-1.9-1.4-2.6
	c-1.6-1.7-4.6-1.2-6.3,0.4c-1.7,1.6-2.3,4-2.6,6.4c-0.9,7.9,1.6,16.5-2,23.6c-2,4-5.6,6.9-8.3,10.5c-3.2,4.3-5.2,9.6-5.4,15
	c0,1.2,0,2.4,0.7,3.3c0.8,1.1,2.2,1.5,3.4,2.2c3.9,2.1,5.4,6.8,6.7,11.1c0.2,0.9,0.5,1.8,0.4,2.7c-0.1,1.3-1,2.3-1.7,3.4
	c-3.4,5.1-4.4,11.6-2.7,17.5c0.3,1.1,0.8,2.3,1.8,2.9c0.8,0.5,1.7,0.6,2.6,0.7c11.4,1,22.8,1.3,34.2,0.8"/>
<path class="st3" d="M27.1,228.5c4.8,8.8,9.4,17.9,14.9,26.3c2.2,3.3,4.5,7.2,7.8,9.5c1.9,1.4,3.7,2.5,5.4,4.2
	c1.4,1.4,2.7,2.6,4.5,3.4c0.3,0.1,0.7-0.4,0.3-0.5c-3.4-1.5-5.8-4.9-8.9-6.9c-4.1-2.7-6.9-7.3-9.4-11.4c-5.1-8-9.4-16.5-14-24.8
	C27.5,227.9,27,228.2,27.1,228.5z"/>
<path class="st4" d="M56.8,249.7c-1.6,0.3-3.3,0.3-5,0c-1.1-0.2-2.2-0.5-2.9-1.3c-0.8-0.9-0.9-2.3-1.1-3.6c-0.2-1.7-0.6-3.5-1.2-5.1
	c-0.5-1.5-1.2-3-2.4-3.9c-2.9-2.3-7.4-0.8-10.4-2.9c-1.1-0.8-1.8-1.9-2.5-3c-0.7-1.1-1.5-2.2-2.6-2.9c-1.1-0.7-2.7-0.7-3.6,0.2
	c-0.5,0.5-0.7,1.1-0.8,1.8c-1.3,4.9,0.5,10.5,4.4,13.7c0.6,0.5,1.2,0.9,1.5,1.5c1.1,1.7,0.2,3.9-0.5,5.9c-1.5,3.9-1.9,8.1-1.3,12.2
	c0.2,1.2,0.5,2.5,1.2,3.5c0.7,1,1.6,1.7,2.6,2.3c4,2.5,8.7,3.9,13.4,4.3c4.7,0.4,9.5-0.1,14.1-1.1"/>
<path class="st3" d="M35.3,241.9c0.7-2.4,2.9-4.3,2.4-7c0-0.4-0.6-0.2-0.6,0.1c0.4,2.5-1.7,4.5-2.4,6.7
	C34.7,242.1,35.2,242.2,35.3,241.9z"/>
<path class="st3" d="M31.2,236.6c-2.1,0-4,0.4-6.2,0c-0.4-0.1-0.5,0.5-0.1,0.6c2.1,0.4,4.1,0,6.3,0
	C31.6,237.1,31.6,236.6,31.2,236.6z"/>
<path class="st3" d="M30.4,244.2c0.8-0.5,1.7-0.2,2.6-0.2c0.8,0,1.4-0.2,2.1-0.6c0.3-0.1,0-0.7-0.3-0.5c-1,0.4-1.9,0.5-3,0.4
	c-0.7,0-1.2,0-1.8,0.4C29.8,243.8,30.2,244.3,30.4,244.2z"/>
<path class="st3" d="M43.2,254.3c2.9-3,4.3-7.5,4.6-11.7c0-0.4-0.6-0.4-0.6,0c-0.2,3.9-1.6,8.5-4.4,11.3
	C42.5,254.2,42.9,254.6,43.2,254.3z"/>
<path class="st3" d="M28.4,258.3c3,0,6-0.4,8.9-1.2c1.1-0.3,4.6-0.8,4.9-2.1c0.1-0.4-0.5-0.5-0.6-0.1c-0.2,1-5.2,1.9-6.1,2.1
	c-2.3,0.5-4.7,0.8-7.1,0.8C28,257.7,28,258.3,28.4,258.3z"/>
<path class="st3" d="M52.5,250.4c0,0,0,3.2,0,3.5c-0.1,1.3-0.3,2.6-0.6,3.8c-0.4,2.2-1,4.3-1.8,6.4c-0.1,0.4,0.4,0.5,0.6,0.1
	c1-2.8,1.8-5.7,2.2-8.6c0.2-1.4,1-4.5-0.1-5.8c-0.1-0.1-0.2-0.1-0.4,0c0,0-0.1,0-0.1,0C51.8,250.1,52.1,250.6,52.5,250.4z"/>
<path class="st3" d="M56.1,250.3c1.3,5.8,0,11.4-1.8,16.9c-0.1,0.4,0.5,0.5,0.6,0.1c1.8-5.6,3.1-11.4,1.8-17.3
	C56.5,249.8,56,250,56.1,250.3z"/>
<path class="st3" d="M33.8,269.8c2.8,0.1,5.5-1,8.1-2.1c2.6-1,5.6-1.8,7.9-3.6c0.3-0.2-0.1-0.7-0.4-0.4c-2.3,1.8-5.6,2.6-8.3,3.7
	c-2.3,0.9-4.8,1.9-7.3,1.8C33.4,269.1,33.4,269.7,33.8,269.8z"/>
<path class="st3" d="M32.5,236.4c0.8-1,1.4-2.1,1.5-3.4c0-0.4-0.5-0.5-0.6-0.1c-0.2,1.2-0.6,2.2-1.4,3.1
	C31.9,236.3,32.3,236.7,32.5,236.4z"/>
<path class="st4" d="M64.7,291.1c-4-1.4-5.6-6.1-6.5-10.3c-0.6-2.6-1-5.7,0.7-7.8c1.4-1.6,3.6-2.1,5.2-3.6c2.8-2.6,2-7.4,0-10.5
	c-2.1-3.2-5.2-5.6-7.2-8.9c-3.4-5.6-2.7-13.3,1.5-18.2"/>
<path class="st4" d="M72,189.5c-4.5,0.6-6.9,7-5.9,11.3c0.6,2.7,2.3,5,3.1,7.6c1.3,4.3,0.1,8.9-2.2,12.8c-2.3,3.8-6.6,7.8-9.1,11"/>
<path class="st4" d="M71.8,189.5c2.3-0.2,5.2-0.1,6.3,1.9c0.6,1.1,0.5,2.3,0.4,3.6c0,2,0.1,4,0.6,5.9c0.3,1.1,0.6,2.3,1.4,3.2
	c1,1.1,2.4,1.6,3.8,2.2c3.1,1.2,6.3,2.4,8.9,4.5c2.6,2.1,4.6,5.2,4.6,8.5c0,3.5-2.1,6.7-2.8,10.1c-0.7,3.2,0,6.8,1.7,9.6
	c3.1,4.9,9.2,7.2,13.3,11.3c2.4,2.4,4.3,5.6,4.6,9c0.3,2.5-0.1,5,0.3,7.4c0.3,1.5,0.9,2.9,1,4.5c0.1,2.8-1.7,5.3-3.5,7.5
	c-4.2,4.9-9.1,9.2-14.5,12.8"/>
<path class="st3" d="M70.5,190.3c1.6,4,3.3,8.1,5,12.1c1.6,4.1,3.3,7.8,3.8,12.2c0.9,8.2,2.3,16.2,3.9,24.3
	c3.4,17.3,7.2,34.8,4.9,52.5c0,0.4,0.5,0.4,0.6,0c2.3-17.4-1.3-34.7-4.7-51.8c-1.7-8.9-3-17.7-4.2-26.6c-0.5-3.7-2.1-7-3.5-10.4
	c-1.7-4.2-3.4-8.3-5.1-12.5C70.9,189.8,70.3,190,70.5,190.3z"/>
<path class="st3" d="M80.8,216.3c2.5-2.4,4.5-5.2,5.9-8.4c0.1-0.3-0.4-0.7-0.5-0.3c-1.4,3.1-3.3,5.9-5.8,8.3
	C80.1,216.1,80.5,216.5,80.8,216.3z"/>
<path class="st3" d="M81.2,221c4.2-2.4,6-7.5,7.8-11.7c0.1-0.3-0.4-0.7-0.5-0.3c-1.8,4-3.5,9.2-7.6,11.5
	C80.6,220.6,80.9,221.1,81.2,221z"/>
<path class="st3" d="M82.6,227.5c4.9-4.6,9.3-10,9.9-17c0-0.4-0.6-0.4-0.6,0c-0.5,6.8-4.9,12.1-9.7,16.6
	C81.9,227.4,82.3,227.8,82.6,227.5z"/>
<path class="st3" d="M68.8,219.9c2.2,0.5,4.4,0.8,6.6,1c1.5,0.1,3.1,0.4,4.4-0.5c0.3-0.2,0-0.8-0.3-0.5c-1.3,1-3.3,0.5-4.9,0.4
	c-1.9-0.2-3.8-0.5-5.6-0.9C68.6,219.2,68.4,219.8,68.8,219.9z"/>
<path class="st3" d="M69.3,216.2c2.7,0,5.3,0.6,8,0.2c0.8-0.1,2.8,0,2.8-1.1c0-0.4-0.6-0.4-0.6,0c0,0.8-4.6,0.8-5.4,0.8
	c-1.6,0-3.2-0.4-4.8-0.4C68.9,215.6,68.9,216.2,69.3,216.2z"/>
<path class="st3" d="M55.5,239.2c5.1,2.9,10.5,5.3,16.1,6.9c2.9,0.9,5.9,1.6,8.9,2.2c1.5,0.3,4.5,1.3,5.9,0.2c0.3-0.2,0-0.8-0.3-0.5
	c-1.2,0.9-3.7,0-5-0.2c-1.2-0.2-2.4-0.5-3.7-0.7c-2.4-0.6-4.8-1.2-7.2-2c-5-1.6-9.8-3.8-14.4-6.4C55.5,238.5,55.2,239,55.5,239.2z"
	/>
<path class="st3" d="M54.9,244.3c5.5,2.5,11.2,4.8,16.9,6.8c2.9,1,5.9,2,8.8,2.9c2,0.6,3.9,1,5.9,0.1c0.3-0.1,0-0.7-0.3-0.5
	c-2.7,1.2-5.8-0.3-8.4-1.1c-2.5-0.8-5-1.6-7.6-2.6c-5.1-1.9-10.1-3.9-15.1-6.1C54.8,243.6,54.6,244.1,54.9,244.3z"/>
<path class="st3" d="M84.3,242.2c4.6-2.4,8-8.3,10.1-12.9c0.1-0.3-0.3-0.7-0.5-0.3c-2.1,4.5-5.4,10.4-9.9,12.7
	C83.7,241.9,84,242.3,84.3,242.2z"/>
<path class="st3" d="M86.4,248.1c2.3-2.3,4.6-4.6,6.6-7.2c0.8-1.1,3.2-3.4,2.7-4.9c-0.1-0.4-0.7-0.2-0.6,0.1
	c0.3,0.8-1.1,2.5-1.5,3.1c-0.8,1.2-1.8,2.3-2.8,3.4c-1.5,1.7-3.1,3.4-4.8,5C85.7,248,86.2,248.4,86.4,248.1z"/>
<path class="st3" d="M58.3,275.8c5.4,1.1,10.7,2.3,16.1,2.7c4.8,0.4,10.1,0.5,14.5-1.6c0.3-0.1,0-0.7-0.3-0.5
	c-4.6,2.2-10.2,1.9-15.1,1.5c-5.1-0.5-10.1-1.5-15.1-2.6C58.1,275.2,57.9,275.7,58.3,275.8z"/>
<path class="st3" d="M89.9,275c10.1-4.5,17.2-14.3,18.4-25.4c0-0.4-0.6-0.4-0.6,0c-1.2,10.8-8.2,20.4-18.1,24.9
	C89.3,274.6,89.6,275.2,89.9,275z"/>
<path class="st3" d="M89.4,282.1c5.8-2,11.9-6.3,15.7-11.1c2.1-2.6,3.8-5.5,5.6-8.3c0.9-1.4,2.2-2.8,2.9-4.4c0.3-0.7,0.5-1,0.1-1.7
	c-0.2-0.3-0.7,0-0.5,0.3c0.6,0.9-1.5,3.3-2,4c-0.8,1.2-1.6,2.4-2.4,3.6c-1.6,2.4-3.1,5-5.2,7.2c-3.8,4.1-9.1,7.9-14.4,9.8
	C88.9,281.6,89.1,282.2,89.4,282.1z"/>
<path class="st3" d="M88.6,282.7c-8.4,6-19.7,6.5-28.5,1.3c-0.3-0.2-0.6,0.3-0.3,0.5c9,5.3,20.7,4.7,29.2-1.3
	C89.2,283,88.9,282.6,88.6,282.7z"/>
<path class="st2" d="M338.1,292.5c0.2,0.8,1,1.1,1.8,1.2c0.8,0,1.5,0,2.3,0.1c0.8,0.2,1.4,0.8,2.1,1.1c0.6,0.3,1.3,0.3,2,0.4
	c2.3,0.2,4.7,0.5,7,0.7c0.9,0.1,1.9,0.1,2.6-0.5c0.8-0.7,0.8-2,0.4-3c-0.1-0.5-0.4-1-0.7-1.4c-0.7-0.8-1.6-1-2.6-1
	c-1,0-1.9,0.2-2.9,0.3c-2.6,0.3-5.2-0.2-7.7-0.2c-0.8,0-1.7,0-2.5,0.3s-1.5,0.8-1.9,1.5"/>
<path class="st2" d="M348.1,282.3c-0.3,0.5-0.7,1.1-0.7,1.7c0,0.9,0.8,1.6,1.6,1.8c0.8,0.2,1.7,0.2,2.6,0.1c1.5,0,3,0.1,4.3,0.7
	c0.8,0.3,1.4,0.8,2.2,0.9c1.4,0.4,3,0,4-1c1-1,1.5-2.5,1.2-3.9c-0.1-0.5-0.4-1.1-0.8-1.4c-0.4-0.3-0.8-0.4-1.3-0.6
	c-2.5-0.6-5.2-0.5-7.7,0.4c-0.5,0.2-1,0.4-1.6,0.5c-0.7,0.1-1.4-0.1-2.1-0.2c-0.7,0-1.5,0.1-1.9,0.6"/>
<path class="st2" d="M342.3,280.4c-0.4-0.8-0.8-1.6-0.8-2.4c-0.1-0.8,0.1-1.8,0.8-2.3c0.6-0.5,1.5-0.6,2.2-1.1
	c1.1-0.8,1.4-2.5,2.6-3c0.3-0.1,0.6-0.1,0.8-0.3c0.5-0.2,0.8-0.8,1.1-1.2c0.7-0.8,1.7-1.3,2.7-0.9c0.9,0.4,1.4,1.4,1.6,2.4
	c0.2,1.2,0,2.6-0.9,3.2c-0.8,0.5-1.7,0.4-2.4,0.8c-0.4,0.3-0.7,0.7-0.9,1.1c-0.6,0.8-1.1,1.7-1.7,2.6c-0.2,0.4-0.5,0.8-0.9,1
	c-0.3,0.2-0.7,0.2-1,0.3c-0.7,0.1-1.3,0.2-2,0.3C342.8,280.9,342.3,280.8,342.3,280.4"/>
<path class="st2" d="M338.6,275.4c-0.8,0.3-1.2,1.1-1.4,1.9c0,0.2-0.1,0.5-0.3,0.6c-0.1,0-0.3,0-0.5,0c-0.9-0.1-1.6,0.8-1.9,1.7
	c-0.2,0.9-0.2,1.9-0.7,2.7c-0.3,0.6-0.9,0.9-1.3,1.5c-0.5,0.7-0.7,1.6-0.5,2.4c0,0.2,0.1,0.4,0.3,0.5c0.1,0.1,0.3,0.2,0.4,0.3
	c1,0.5,2.2,0.9,3.1,0.3c0.6-0.4,0.8-1.1,0.8-1.8c0-0.7,0-1.4,0.3-2c0.3-0.8,0.9-1.3,1.4-2c1.2-1.5,1.6-3.7,1-5.6"/>
<path class="st0" d="M326.7,282.8c0.3-1.4-1.5-2.2-2.6-3.1c-1.3-1.1-1.9-2.8-2.4-4.4c-0.7-2.3-1.3-4.6-0.8-7c0-0.2,0.1-0.5,0.3-0.7
	c0.5-0.4,1.1,0.3,1.4,0.8c0.5,1,1,2,1.5,3c0.9-2,0.4-4.3-0.6-6.2c-0.9-1.9-2.3-3.7-3.1-5.7c-0.7-1.5-1-3.2-1.8-4.7
	c-0.9-1.6-2.3-2.9-3.2-4.5c-1.6-2.8-1.5-6.2-1.4-9.5c0-0.4,0-0.9,0.4-1.2c0.7-0.7,1.8,0.2,2.3,1c2.3,3.5,4.5,6.9,6.8,10.4
	c0.5-5.3-1.3-10.5-1.9-15.8c-0.5-4.6-0.1-9.3,0.3-13.9c0.1-1.4,0.2-2.7,0.3-4.1c0.3-3.4,0.6-6.9,0.9-10.3c0-0.4,0.1-0.8,0.4-0.9
	c0.2-0.1,0.4,0,0.6,0c1.4,0.3,2.3,1.4,2.9,2.7c0.6,1.3,0.8,2.6,1.1,3.9c0.5,2.2,1.4,4.2,2,6.4c1,3.8,1.2,7.7,1.4,11.6
	c0.1,3.5,0.3,6.9,0.5,10.4c1.7-7.6,3.8-15.7,9.6-20.8c1-0.9,2.5-1.7,3.6-0.8c0.4,0.3,0.7,0.8,0.8,1.2c2.4,5.5,2.1,12.1-1,17.3
	c-0.3,0.5-0.6,0.9-0.5,1.5c0.1,0.4,0.4,0.7,0.6,1c1.1,1.6,0.6,3.8,0.6,5.7c0,1.8,0.4,3.6,0,5.3c-0.8,3.4-4.6,5.7-4.7,9.2
	c0,2.2,1.4,4.2,1,6.3c-0.2,1.1-0.9,2-1.6,2.9c-2.1,2.5-4.3,4.9-6.7,7.1c-1.8,1.7-3.8,3.5-4.3,6c-0.1,0.4-0.1,0.9-0.3,1.3
	c-0.2,0.4-0.7,0.7-1.1,0.5c-0.4-0.2-0.3-0.9,0.1-0.9"/>
<path class="st5" d="M333.1,287.9c-0.7-0.8-1.2-1.9-1.3-3c-0.1-0.6-0.1-1.3,0.3-1.7c0.4-0.5,1-0.8,1.5-1.2c0.5-0.6,0.6-1.4,0.7-2.2
	s0.2-1.6,0.8-2.2c0.4-0.3,0.9-0.5,1.4-0.7c0.6-0.3,1-0.9,1.2-1.5c0-0.1,0-0.2,0.1-0.4c0.1-0.1,0.2-0.1,0.3-0.2
	c0.2-0.1,0.6-0.1,0.8,0c0.5,0.1,0.8,0.6,0.9,1.1c0.1,0.5,0.1,1,0,1.5c-0.1,1.6-0.5,3.2-1.5,4.5c-0.3,0.5-0.8,0.9-0.9,1.5
	c-0.1,0.5,0.1,1,0.1,1.6c0,0.6-0.3,1.2-0.7,1.7c-0.4,0.6-0.9,1.1-1.5,1.4c-0.6,0.3-1.4,0.3-2,0"/>
<path class="st3" d="M328.1,294.6c4.8-3.1,7.4-9.4,8.7-14.7c0.1-0.4-0.5-0.5-0.6-0.1c-1.3,5.1-3.8,11.3-8.5,14.3
	C327.5,294.3,327.8,294.8,328.1,294.6z"/>
<path class="st3" d="M337.8,289.4c2.2-4.5,4.9-8.8,8-12.7c0.2-0.3-0.2-0.7-0.4-0.4c-3.2,4-5.9,8.3-8.1,12.8
	C337.1,289.4,337.6,289.7,337.8,289.4z"/>
<path class="st5" d="M342.5,280.6c-0.4-0.9-1.1-2-1.2-3c-0.1-1,0.2-2.2,1-2.8c0.7-0.6,1.5-0.8,2.1-1.4c0.3-0.4,0.5-0.9,0.9-1.2
	c0.4-0.3,0.9-0.3,1.3-0.6c0.7-0.3,1-1,1.5-1.5c0.6-0.7,1.2-1.2,2.1-1.5c0.8-0.2,1.8-0.1,2.4,0.5c0.7,0.6,0.9,1.5,0.8,2.3
	c0,0.8-0.4,1.6-0.8,2.4c-0.4,0.9-1,1.9-2,2.3c-0.7,0.3-1.5,0.2-2.1,0.6c-0.8,0.6-1,1.7-1.5,2.6c-0.8,1.5-2.9,2.3-4.6,1.6"/>
<path class="st5" d="M347.4,283.3c0.2-1.5,1.5-2.5,3.1-2.3c0.4,0,0.8,0.2,1.2,0.3c1.8,0.3,3.4-0.9,5.2-1.3c1.5-0.3,3,0,4.4,0.3
	c0.6,0.1,1.1,0.2,1.6,0.6c1.2,0.8,1.5,2.5,0.8,3.8c-0.6,1.3-1.9,2.2-3.2,2.7c-0.7,0.3-1.5,0.5-2.3,0.5c-1.1,0-2.1-0.6-3.1-1.1
	c-1-0.5-2.2-0.8-3.2-0.6c-0.5,0.1-0.9,0.4-1.4,0.6c-0.8,0.2-1.7,0-2.4-0.6C347.5,285.7,347.2,284.1,347.4,283.3z"/>
<path class="st3" d="M330.2,294.4c4.1-2.4,7.8-5.2,11.5-8.1c4.7-3.8,11.1-3.4,16.8-2.5c0.4,0,0.5-0.5,0.1-0.6
	c-4.6-0.7-10.2-1.4-14.6,0.7c-2.5,1.2-4.6,3.4-6.8,5.1c-2.4,1.8-4.9,3.4-7.5,4.9C329.6,294.1,329.9,294.6,330.2,294.4z"/>
<path class="st3" d="M328.1,294.8c2.8-0.1,5.4-1.1,8-1.8c3.5-1,6.8-0.9,10.4-0.5c0.4,0,0.4-0.6,0-0.6c-3.1-0.4-6-0.7-9.1,0
	c-3.1,0.8-6.1,2.1-9.3,2.2C327.7,294.2,327.7,294.8,328.1,294.8z"/>
<path class="st5" d="M337.8,292.1c1.3-1.3,2.9-2.3,4.7-2.3c1.6,0,3.1,0.4,4.7,0.4c1.5,0,2.9-0.4,4.4-0.5c1.5-0.1,3.1,0,4.2,0.9
	c0.8,0.7,1.4,1.7,1.4,2.8c0,0.7-0.2,1.3-0.6,1.8c-0.9,1.2-2.5,1.4-4,1.1c-1.4-0.2-2.8-0.8-4.3-0.8c-1.2,0-2.5,0.4-3.7,0.1
	c-1.5-0.4-2.6-1.8-4.2-2.1c-0.5-0.1-1.1,0-1.6-0.1c-0.5-0.1-1.1-0.5-1.1-1"/>
<path class="st4" d="M327.2,284.2c0.3-0.7,0-1.5-0.5-2c-0.5-0.6-1.1-0.9-1.7-1.4c-3.6-2.5-5.5-6.9-6-11.2c0-0.7-0.1-1.4,0.3-1.9
	c0.5-0.8,1.7-0.8,2.5-0.4c0.8,0.5,1.3,1.3,1.8,2.1c2.4,4.2,3.8,8.9,4.3,13.7"/>
<path class="st3" d="M319.3,268.6c4.6,3.6,6.4,9.1,7.8,14.5c0.1,0.4,0.7,0.2,0.6-0.1c-1.5-5.5-3.3-11.1-8-14.8
	C319.4,267.9,319.1,268.4,319.3,268.6z"/>
<path class="st3" d="M314.6,237.9c-2.7,0.6-1.7,4-1.5,6c0.5,3.9,1.8,7.5,3.7,10.9c1.8,3.4,4,6.7,5.6,10.2c1.7,3.9,3,8,4,12.1
	c0.1,0.4,0.7,0.2,0.6-0.1c-1.5-6.1-3.6-11.9-6.8-17.4c-1.5-2.7-3.2-5.4-4.5-8.3c-0.9-2-4.5-12.1-1-12.9
	C315.1,238.3,315,237.8,314.6,237.9z"/>
<path class="st3" d="M314.9,238.6c2.9-0.6,5.5,4.7,6.4,6.9c1.2,2.8,2.3,5.7,3.2,8.6c1.7,5.8,2.5,11.9,3.2,17.9c0,0.4,0.6,0.4,0.6,0
	c-0.9-7.4-1.8-14.8-4.5-21.8c-1.1-2.9-2.1-6-3.9-8.6c-1.3-1.7-2.6-4.1-5.1-3.7C314.4,238.1,314.5,238.7,314.9,238.6z"/>
<path class="st3" d="M313.8,239c3.4,3.8,5.5,8.4,7.5,13.1c2.1,4.8,3.2,9.8,4.2,14.9c0.1,0.4,0.7,0.2,0.6-0.1
	c-1.9-9.8-5.1-20.6-11.9-28.2C314,238.3,313.6,238.8,313.8,239z"/>
<path class="st3" d="M324.3,204.5c-2.7,0.9-2.9,4.5-3.1,6.9c-0.5,4.6-0.1,9.2,0.2,13.9c0.8,9,1.5,18.1,2.5,27c0,0.4,0.6,0.4,0.6,0
	c-0.8-7.5-1.5-15-2.1-22.5c-0.3-3.9-0.8-7.8-0.8-11.7c0-1.9,0-3.9,0.1-5.8c0.2-2.1,0.3-6.4,2.8-7.2
	C324.8,204.9,324.7,204.4,324.3,204.5z"/>
<path class="st3" d="M324.2,205.3c2.5-0.3,4,4.5,4.6,6.2c0.7,1.8,1.3,3.7,1.8,5.5c1,4,1.6,8.1,1.9,12.2c0.5,8.8-0.6,17.6-1.9,26.3
	c0,0.4,0.5,0.5,0.6,0.1c1.5-10.1,2.8-20.4,1.6-30.6c-0.5-4.4-1.5-8.8-3.1-12.9c-0.9-2.3-2.3-7.9-5.5-7.5
	C323.8,204.8,323.8,205.4,324.2,205.3z"/>
<path class="st3" d="M324.1,206c1.2,5,2.4,10,3,15.1c0.5,5,0.6,10,0.8,15c0.4,9.5,0.8,18.9,1,28.4c0,0.4,0.6,0.4,0.6,0
	c-0.3-9.8-0.6-19.5-1-29.2c-0.2-5-0.3-10.1-0.8-15.1c-0.6-4.9-1.7-9.6-2.9-14.3C324.6,205.5,324,205.7,324.1,206z"/>
<path class="st3" d="M332.6,244.3c0.3-3.9,1.5-7.7,2.6-11.4c1.2-3.9,3.2-7.8,5.7-11c0.6-0.7,1.1-1.4,1.8-2c0.5-0.4,1-0.8,1.6-1.1
	c1-0.4,1.7-0.2,2,0.6c1.8,1.5,1.5,5.1,1.4,7.2c-0.2,4.6-1.3,9-3.3,13.2c-0.1,0.3,0.3,0.7,0.5,0.3c2.3-4.9,3.5-10.2,3.4-15.6
	c0-2.6-1-8.1-4.6-6c-3.8,2.2-6.3,7.3-7.9,11.1c-1.9,4.5-3.4,9.8-3.8,14.7C332,244.7,332.6,244.7,332.6,244.3z"/>
<path class="st3" d="M334.2,250.4c-0.5-5.4,1.8-10,3.7-15c1-2.5,2-5,3.2-7.4c1.2-2.2,2.7-4.1,3.7-6.4c0.1-0.3-0.3-0.7-0.5-0.3
	c-1.1,2.4-2.7,4.5-3.9,6.8c-1.2,2.3-2.2,4.7-3.1,7.2c-2,5-4.2,9.6-3.8,15.1C333.7,250.8,334.3,250.8,334.2,250.4z"/>
<path class="st3" d="M329.1,278.9c-1.6-5.9-0.5-11.3,1-16.9c1.4-5.2,3.1-10.3,6-14.9c1.4-2.3,3.1-4.8,5.5-6.2
	c4.7-2.8,5.4,3.8,4.7,6.8c-1.1,5-1.6,11-5.1,15c-0.2,0.3,0.2,0.7,0.4,0.4c2-2.3,3-5.1,3.7-8.1c0.7-3,1.8-6.2,1.9-9.3
	c0.1-1.7-0.2-4.9-1.8-6c-1.8-1.2-4.6,0.8-5.9,1.9c-4.7,4.4-7.3,11.1-9.2,17.1c-2.1,6.7-3.8,13.4-1.9,20.3
	C328.6,279.4,329.2,279.2,329.1,278.9z"/>
<path class="st3" d="M330.1,278.9c-0.1-3.1,0.3-6.2,1-9.2c0.8-3.6,2.3-6.6,3.8-9.9c1.4-2.9,2.1-5.8,4-8.4c2.3-3.2,4.7-6.4,7.1-9.7
	c0.2-0.3-0.3-0.6-0.5-0.3c-2.5,3.5-5.1,6.9-7.7,10.4c-2,2.8-2.7,6.1-4.2,9.1c-2.8,5.5-4.4,11.7-4.2,17.9
	C329.6,279.3,330.1,279.3,330.1,278.9z"/>
<path class="st3" d="M329.6,282c0.5-4.4,2.2-8.4,3.8-12.5c0.9-2.3,2.3-4.6,4.5-6c1.6-1,3.7-1.8,4.1,1.4c0.2,1.3-0.5,2.9-1.1,3.9
	c-1.7,3.1-4.8,5.3-7.3,7.7c-2.3,2.4-3.7,5.1-4.6,8.3c-0.1,0.4,0.5,0.5,0.6,0.1c0.8-3.1,2.2-5.7,4.4-8c1.6-1.6,3.4-3,4.9-4.6
	c1.9-2,5.6-6.9,2.9-9.7c-2.5-2.5-6.7,2.3-7.8,4.2c-2.6,4.4-4.4,10-5,15.1C329,282.4,329.6,282.4,329.6,282z"/>
<path class="st3" d="M331.9,278c2.2-5.5,8.4-9.4,8.9-15.6c0-0.4-0.6-0.4-0.6,0c-0.5,6-6.7,10-8.8,15.4
	C331.2,278.2,331.8,278.3,331.9,278z"/>
<path class="st3" d="M326.9,283.9c1.9,3.4-1.8,6.6-3,9.6c-0.1,0.4,0.4,0.5,0.6,0.1c1.2-3.2,4.9-6.4,2.9-10.1
	C327.2,283.2,326.7,283.5,326.9,283.9z"/>
<path class="st3" d="M328.9,285.1c0.5,2.6-0.7,4.6-2.8,6c-1,0.7-1.9,1.3-2.3,2.4c-0.1,0.4,0.5,0.5,0.6,0.1c0.6-1.9,3.1-2.5,4.2-4.1
	c0.9-1.4,1.2-3,0.9-4.7C329.4,284.6,328.9,284.8,328.9,285.1z"/>
</svg>
