<svg width="31" height="22" viewBox="0 0 31 22" fill="none" xmlns="http://www.w3.org/2000/svg">
<path d="M1.25464 3.7552C10.7167 2.66069 20.231 2.34798 29.7454 2.81705C31.4182 2.92129 31.4182 0.315322 29.7454 0.211083C20.1788 -0.257991 10.7167 0.0547254 1.25464 1.14923C-0.418212 1.35771 -0.418212 3.96367 1.25464 3.7552Z" fill="#44666D"/>
<path d="M1.64486 3.67239C10.6364 2.3694 19.6803 2.26516 28.7241 3.30755C30.397 3.51603 30.397 0.910061 28.7241 0.701584C19.4712 -0.392921 10.2182 -0.184444 0.965263 1.17066C-0.707587 1.37913 -0.0279912 3.88086 1.64486 3.67239Z" transform="translate(0.498413 9.46429)" fill="#44666D"/>
<path d="M1.25464 3.136C10.0894 2.51057 19.0287 2.45845 27.8634 2.8754C29.5363 2.97964 29.5363 0.373675 27.8634 0.269437C19.0287 -0.147518 10.0894 -0.0953986 1.25464 0.530033C-0.418212 0.634272 -0.418212 3.24024 1.25464 3.136Z" transform="translate(1.30701 18.861)" fill="#44666D"/>
</svg>
