<svg width="83" height="86" viewBox="0 0 83 86" fill="none" xmlns="http://www.w3.org/2000/svg">
<path d="M28.5771 2.27216C14.4257 5.58188 3.419 18.2982 0.798366 32.5822C0.332476 35.2532 0.0995309 38.0403 0.0412947 40.7694C-0.133414 46.7501 0.157767 52.905 2.66193 58.3632C4.52549 62.4277 7.49554 65.9116 10.815 68.9891C18.211 75.8989 27.5871 81.1828 37.7202 81.5892C39.5255 81.6473 41.2726 81.5892 43.0779 81.4731C48.7851 81.1828 54.6669 80.6602 59.617 77.9311C60.8982 77.2344 62.1212 76.3634 63.2859 75.4343C76.0396 65.2729 81.805 47.7372 79.4173 31.6532C79.0679 29.2144 78.5438 26.7757 77.5538 24.4531C76.7385 22.5369 75.632 20.7369 74.409 19.1111C68.8183 11.5626 60.5488 6.33673 51.8133 2.91088C44.3009 0.00761687 35.5654 -1.56014 28.5771 2.27216Z" transform="translate(2.56689 4.388)" fill="#2E555B"/>
<path d="M29.7463 2.24718C14.1972 6.13755 2.6664 20.1313 0.628133 35.8089C-0.536593 44.7509 -0.478356 55.0285 4.29702 63.0415C8.72298 70.4157 16.3519 76.6287 24.0391 80.403C32.5416 84.5837 41.3935 84.9901 50.6531 83.8869C59.6797 82.7836 66.6098 78.4287 72.2588 71.4028C77.3835 64.9576 80.7613 57.1769 82.1589 49.1058C83.4984 41.0928 83.5566 31.6862 79.9459 24.1958C75.5782 15.1377 66.5516 8.57629 57.5832 4.51172C48.8478 0.563288 38.4817 -2.22384 29.4551 2.42138C27.7662 3.29235 29.2804 5.78916 30.911 4.91818C38.9476 0.853614 48.3819 3.52461 56.1273 7.00853C63.2904 10.2602 70.0458 14.8473 74.7629 21.2345C83.9642 33.6605 80.5865 53.4607 72.7829 65.7705C68.7063 72.1577 62.7662 78.1384 55.2538 80.1126C47.4501 82.1449 38.1323 82.4352 30.4451 79.8804C22.5832 77.3255 15.4201 72.0996 10.0624 65.8867C4.06407 59.093 2.78288 50.9058 3.07406 42.138C3.36524 33.6024 5.46174 25.6475 10.5865 18.6796C15.4784 12.0021 22.525 7.06659 30.5616 5.03431C32.3669 4.56979 31.5516 1.78266 29.7463 2.24718Z" fill="black"/>
</svg>
