<svg width="12" height="13" viewBox="0 0 12 13" fill="none" xmlns="http://www.w3.org/2000/svg">
<path d="M4.13162 0.3237C2.08564 0.795214 0.494313 2.60682 0.115426 4.64178C0.0480688 5.0223 0.01439 5.41936 0.00597031 5.80815C-0.0192888 6.66019 0.0228097 7.53704 0.384857 8.31462C0.654287 8.89367 1.08369 9.39 1.56362 9.82843C2.63292 10.8128 3.98849 11.5656 5.45352 11.6235C5.71453 11.6318 5.96712 11.6235 6.22813 11.6069C7.05326 11.5656 7.90365 11.4911 8.61933 11.1023C8.80456 11.0031 8.98137 10.879 9.14977 10.7466C10.9937 9.29901 11.8272 6.80081 11.482 4.50942C11.4315 4.16199 11.3557 3.81456 11.2126 3.48367C11.0947 3.21069 10.9347 2.95425 10.7579 2.72263C9.94964 1.64725 8.75404 0.902752 7.49109 0.414694C6.40494 0.00108513 5.14199 -0.222264 4.13162 0.3237Z" transform="translate(0.371216 0.625122)" fill="#DB786F"/>
<path d="M4.30067 0.320141C2.05261 0.874377 0.385504 2.86797 0.0908144 5.10146C-0.0775796 6.37537 -0.0691599 7.83955 0.621256 8.98111C1.26115 10.0317 2.36413 10.9168 3.47554 11.4545C4.70481 12.0501 5.98461 12.108 7.32334 11.9508C8.62839 11.7936 9.63034 11.1732 10.447 10.1723C11.188 9.25409 11.6763 8.14562 11.8784 6.99579C12.0721 5.85423 12.0805 4.51413 11.5584 3.44702C10.927 2.15656 9.62192 1.22181 8.32528 0.642756C7.06233 0.0802481 5.56362 -0.316816 4.25857 0.344958C4.0144 0.46904 4.23331 0.824744 4.46906 0.700661C5.63098 0.121609 6.99497 0.502129 8.11479 0.99846C9.15041 1.4617 10.1271 2.1152 10.8091 3.02514C12.1394 4.79539 11.6511 7.6162 10.5228 9.3699C9.93345 10.2798 9.07464 11.1319 7.9885 11.4131C6.86026 11.7027 5.5131 11.744 4.4017 11.38C3.26504 11.0161 2.22942 10.2716 1.45481 9.38645C0.587577 8.4186 0.402343 7.25222 0.444442 6.00313C0.48654 4.78712 0.78965 3.65383 1.53058 2.66117C2.23784 1.70987 3.25662 1.00673 4.41854 0.717206C4.67955 0.651028 4.56168 0.253964 4.30067 0.320141Z" fill="black"/>
<path d="M0.407233 0.189835C0.129383 0.479361 0.129383 0.810248 0.104124 1.19077C0.0704452 1.64574 0.0451863 2.10071 0.0115074 2.55568C-0.0390108 3.32499 0.0957045 4.06121 0.053606 4.82225C0.0115074 5.61638 1.27446 5.61638 1.31656 4.82225C1.35024 4.19357 1.21552 3.58143 1.2492 2.95274C1.26604 2.58049 1.29972 2.19997 1.32498 1.82773C1.3334 1.67055 1.35024 1.50511 1.35866 1.34794C1.36708 1.2404 1.3755 1.13286 1.38392 1.02532C1.4176 0.793704 1.39234 0.810248 1.30814 1.06669C1.86384 0.487633 0.971353 -0.389217 0.407233 0.189835Z" transform="translate(5.36694 1.85083)" fill="black"/>
<path d="M1.10128 0.1237C0.806593 0.024434 0.469805 0.131972 0.259312 0.330504C0.0319803 0.537309 -0.0522171 0.859924 0.03198 1.14945C0.200374 1.75332 1.0255 1.95185 1.46333 1.50515C1.71592 1.25699 1.77486 0.843379 1.58962 0.537309C1.41281 0.239511 1.02551 0.0823393 0.688717 0.19815C0.30983 0.322232 0.0824983 0.727569 0.191954 1.10809C0.301411 1.48861 0.722396 1.71196 1.1097 1.60442C1.50543 1.48861 1.7496 1.05846 1.64856 0.661391C1.56437 0.338777 1.2781 0.1237 0.966567 0.0244342C0.638198 -0.0748319 0.276151 0.140244 0.191954 0.454587C0.107757 0.760658 0.200374 1.05018 0.410867 1.2818C0.629779 1.5217 1.08444 1.5217 1.30335 1.2818C1.54753 1.02537 1.53911 0.661392 1.30335 0.404954C1.29494 0.396682 1.29494 0.38841 1.28652 0.38841C1.32019 0.429771 1.35387 0.471132 1.38755 0.512493C1.37913 0.495948 1.37071 0.479403 1.36229 0.462859C1.38755 0.512492 1.40439 0.562125 1.42965 0.611759C1.42123 0.595214 1.41281 0.57867 1.41281 0.562126C1.42123 0.620031 1.42965 0.669664 1.43807 0.727569C1.43807 0.711025 1.43807 0.69448 1.43807 0.669663C1.42965 0.727569 1.42123 0.777202 1.41281 0.835107C1.41281 0.818563 1.42123 0.802018 1.42123 0.785474C1.16022 0.926101 0.89921 1.075 0.646619 1.21563C0.671878 1.2239 0.697137 1.23217 0.722396 1.24044C0.671878 1.21563 0.621359 1.19908 0.570841 1.17427C0.60452 1.19081 0.629779 1.20736 0.663458 1.2239C0.621359 1.19081 0.579261 1.15772 0.537162 1.12463C0.554002 1.13291 0.562421 1.14945 0.570841 1.15772C0.537162 1.11636 0.503484 1.075 0.469805 1.03364C0.486644 1.05846 0.495063 1.075 0.503483 1.09982C0.478224 1.05018 0.461385 1.00055 0.436126 0.950918C0.444546 0.967462 0.444546 0.984006 0.444546 0.992278C0.436126 0.934373 0.427706 0.88474 0.419286 0.826835C0.419286 0.835107 0.419286 0.84338 0.419286 0.851652C0.427706 0.793746 0.436126 0.744113 0.444546 0.686208C0.444546 0.702753 0.436126 0.711025 0.436126 0.727569C0.461385 0.677936 0.478224 0.628303 0.503483 0.57867C0.495063 0.595214 0.486644 0.603486 0.478224 0.620031C0.511903 0.57867 0.545582 0.537309 0.579261 0.495948C0.570841 0.50422 0.562421 0.520765 0.545582 0.529037C0.58768 0.495948 0.629779 0.46286 0.671877 0.429771C0.663458 0.438043 0.646619 0.446315 0.638199 0.454587C0.688717 0.429771 0.739235 0.413227 0.789753 0.38841C0.781333 0.396682 0.764494 0.396682 0.747655 0.396682C0.806593 0.38841 0.857111 0.380138 0.916049 0.371865C0.907629 0.371865 0.89921 0.371865 0.89921 0.371865C0.958147 0.380138 1.00867 0.38841 1.0676 0.396682C1.05918 0.396682 1.05076 0.396682 1.05076 0.38841C1.10128 0.413227 1.1518 0.429771 1.20232 0.454587C1.1939 0.454587 1.18548 0.446315 1.18548 0.446315C1.22758 0.479404 1.26968 0.512492 1.31178 0.545581C1.30336 0.537309 1.29494 0.529037 1.28652 0.520765C1.32019 0.562126 1.35387 0.603486 1.38755 0.644847C1.38755 0.636575 1.37913 0.636575 1.37913 0.628303C1.40439 0.677936 1.42123 0.727569 1.44649 0.777202C1.44649 0.76893 1.44649 0.760658 1.43807 0.760658C1.44649 0.818563 1.45491 0.868196 1.46333 0.926101C1.46333 0.909557 1.46333 0.901285 1.46333 0.884741C1.45491 0.942646 1.44649 0.992279 1.43807 1.05018C1.43807 1.03364 1.44649 1.02537 1.44649 1.00882C1.42123 1.05846 1.40439 1.10809 1.37913 1.15772C1.38755 1.14118 1.38755 1.13291 1.40439 1.12463C1.37071 1.16599 1.33703 1.20735 1.30335 1.24872C1.31177 1.24044 1.31177 1.24044 1.32019 1.23217C1.2781 1.26526 1.236 1.29835 1.1939 1.33144C1.20232 1.33144 1.20232 1.32317 1.21074 1.32317C1.16022 1.34798 1.1097 1.36453 1.05918 1.38934C1.07602 1.38107 1.08444 1.38107 1.10128 1.3728C1.04234 1.38107 0.991826 1.38934 0.932888 1.39762C0.949728 1.39762 0.966567 1.39762 0.974987 1.39762C0.916049 1.38934 0.865531 1.38107 0.806593 1.3728C0.815013 1.3728 0.823432 1.3728 0.831852 1.38107C0.781333 1.35625 0.730816 1.33971 0.680297 1.31489C0.697137 1.32317 0.705557 1.32317 0.722396 1.33971C0.680297 1.30662 0.638199 1.27353 0.5961 1.24044C0.60452 1.24872 0.621359 1.25699 0.629779 1.27353C0.5961 1.23217 0.562421 1.19081 0.528743 1.14945C0.537162 1.15772 0.545582 1.17427 0.554002 1.19081C0.528743 1.14118 0.511903 1.09154 0.486644 1.04191C0.486644 1.05018 0.495064 1.05846 0.495064 1.06673C0.486644 1.00882 0.478225 0.95919 0.469805 0.901285C0.469805 0.917829 0.469805 0.934373 0.469805 0.950918C0.478225 0.893012 0.486644 0.843379 0.495064 0.785474C0.495064 0.802018 0.486644 0.818563 0.486644 0.835107C0.511903 0.785474 0.528743 0.735841 0.554002 0.686208C0.545582 0.711025 0.528743 0.727569 0.511903 0.752385C0.545582 0.711024 0.579261 0.669663 0.61294 0.628303C0.60452 0.644847 0.58768 0.653119 0.579261 0.661391C0.621359 0.628303 0.663458 0.595214 0.705556 0.562126C0.697136 0.570398 0.680297 0.57867 0.663458 0.57867C0.713976 0.553853 0.764494 0.537309 0.815013 0.512493C0.798173 0.520765 0.789753 0.520765 0.772914 0.520765C0.831852 0.512493 0.88237 0.50422 0.941308 0.495948C0.916049 0.495948 0.899209 0.495948 0.87395 0.495948C0.932888 0.50422 0.983406 0.512493 1.04234 0.520765C1.01709 0.520765 1.00025 0.512492 0.983407 0.50422C1.03392 0.529037 1.08444 0.545581 1.13496 0.570398C1.11812 0.562125 1.09286 0.553853 1.07602 0.537309C1.11812 0.570398 1.16022 0.603487 1.20232 0.636575C1.18548 0.620031 1.16864 0.611759 1.16022 0.595214C1.1939 0.636575 1.22758 0.677936 1.26126 0.719297C1.25284 0.711025 1.24442 0.69448 1.236 0.686208C1.26126 0.735841 1.2781 0.785474 1.30335 0.835107C1.29494 0.81029 1.28652 0.793746 1.28652 0.777202C1.29494 0.835107 1.30336 0.88474 1.31178 0.942646C1.31178 0.926101 1.31178 0.909557 1.31178 0.893013C1.30336 0.950918 1.29494 1.00055 1.28652 1.05846C1.28652 1.04191 1.29494 1.02537 1.30335 1.0171C1.2781 1.06673 1.26126 1.11636 1.236 1.16599C1.24442 1.14118 1.26126 1.12463 1.26968 1.10809C1.236 1.14945 1.20232 1.19081 1.16864 1.23217C1.17706 1.2239 1.1939 1.20735 1.20232 1.19908C1.16022 1.23217 1.11812 1.26526 1.07602 1.29835C1.09286 1.2818 1.11812 1.27353 1.13496 1.26526C1.08444 1.29008 1.03392 1.30662 0.983407 1.33144C1.00867 1.32317 1.0255 1.31489 1.05076 1.31489C0.991826 1.32317 0.941308 1.33144 0.88237 1.33971C0.899209 1.33971 0.916049 1.33971 0.932888 1.33971C0.873951 1.33144 0.823432 1.32317 0.764494 1.31489C0.781334 1.31489 0.798173 1.32317 0.806593 1.32317C1.11812 1.4307 1.51385 1.19908 1.58121 0.893013C1.6233 0.545581 1.43807 0.239511 1.10128 0.1237Z" transform="translate(5.15271 8.40228)" fill="black"/>
</svg>
