<?xml version="1.0" encoding="utf-8"?>
<!-- Generator: Adobe Illustrator 21.1.0, SVG Export Plug-In . SVG Version: 6.00 Build 0)  -->
<svg version="1.1" id="Calque_1" xmlns="http://www.w3.org/2000/svg" xmlns:xlink="http://www.w3.org/1999/xlink" x="0px" y="0px"
	 viewBox="0 0 131 97" style="enable-background:new 0 0 131 97;" xml:space="preserve">
<style type="text/css">
	.st0{fill:#FFFFFF;}
</style>
<path class="st0" d="M123.7,87.8c1.3,0.5,1.9,2,1.3,3.3c-0.2,0.5-0.5,1-0.7,1.5c-0.6,1.2-2.1,1.7-3.4,1l0,0c-1.2-0.7-1.6-2.2-1-3.4
	c0.2-0.3,0.3-0.7,0.5-1C121,87.9,122.5,87.3,123.7,87.8L123.7,87.8z"/>
<path class="st0" d="M127.6,74.6c1.4,0.2,2.3,1.5,2,2.9c-0.1,0.5-0.2,1.1-0.4,1.6c-0.3,1.3-1.7,2.1-3,1.7l0,0
	c-1.3-0.4-2.1-1.8-1.8-3.1c0.1-0.4,0.2-0.7,0.2-1.1C124.9,75.2,126.2,74.3,127.6,74.6L127.6,74.6z"/>
<path class="st0" d="M128.4,60.8c1.4-0.1,2.6,1,2.6,2.4c0,0.3,0,0.5,0,0.8s0,0.5,0,0.8c0,1.4-1.2,2.4-2.6,2.4l0,0
	c-1.4-0.1-2.4-1.2-2.4-2.6c0-0.2,0-0.4,0-0.6c0-0.2,0-0.4,0-0.6C126,62.1,127,60.9,128.4,60.8L128.4,60.8z"/>
<path class="st0" d="M126.2,47.2c1.3-0.4,2.7,0.4,3,1.7c0.1,0.5,0.2,1.1,0.4,1.6c0.3,1.4-0.6,2.6-2,2.9l0,0c-1.4,0.2-2.6-0.7-2.9-2
	c-0.1-0.4-0.2-0.7-0.2-1.1C124.1,49,124.9,47.6,126.2,47.2L126.2,47.2z"/>
<path class="st0" d="M121,34.5c1.2-0.7,2.7-0.2,3.4,1c0.2,0.5,0.5,1,0.7,1.5c0.6,1.3,0,2.7-1.3,3.3l0,0c-1.3,0.5-2.7-0.1-3.3-1.3
	c-0.2-0.3-0.3-0.7-0.5-1C119.3,36.7,119.8,35.1,121,34.5L121,34.5z"/>
<path class="st0" d="M113,23.2c1-0.9,2.6-0.8,3.5,0.2c0.3,0.4,0.7,0.8,1,1.3c0.8,1.1,0.6,2.7-0.5,3.5l0,0c-1.1,0.8-2.7,0.5-3.5-0.5
	c-0.2-0.3-0.5-0.6-0.7-0.9C111.9,25.7,112,24.1,113,23.2L113,23.2z"/>
<path class="st0" d="M102.8,14c0.8-1.1,2.4-1.4,3.5-0.5c0.4,0.3,0.9,0.7,1.3,1c1.1,0.9,1.2,2.5,0.2,3.5l0,0c-0.9,1-2.5,1.1-3.6,0.3
	c-0.3-0.2-0.6-0.5-0.9-0.7C102.3,16.7,102,15.1,102.8,14L102.8,14z"/>
<path class="st0" d="M90.8,7.3C91.3,6,92.8,5.4,94,6c0.5,0.2,1,0.5,1.5,0.7c1.2,0.6,1.7,2.1,1,3.4l0,0c-0.7,1.2-2.2,1.6-3.4,1
	c-0.3-0.2-0.7-0.3-1-0.5C90.9,10,90.3,8.5,90.8,7.3L90.8,7.3z"/>
<path class="st0" d="M77.6,3.4c0.2-1.4,1.5-2.3,2.9-2C81,1.5,81.5,1.7,82,1.8c1.3,0.3,2.1,1.7,1.7,3l0,0c-0.4,1.3-1.8,2.1-3.1,1.8
	c-0.4-0.1-0.7-0.2-1.1-0.2C78.2,6.1,77.3,4.8,77.6,3.4L77.6,3.4z"/>
<path class="st0" d="M63.8,2.6c-0.1-1.4,1-2.6,2.4-2.6c0.3,0,0.5,0,0.8,0s0.5,0,0.8,0c1.4,0,2.4,1.2,2.4,2.6l0,0
	C70.1,4,68.9,5,67.6,5c-0.2,0-0.4,0-0.6,0s-0.4,0-0.6,0C65.1,5,63.9,4,63.8,2.6L63.8,2.6z"/>
<path class="st0" d="M50.2,4.8c-0.4-1.3,0.4-2.7,1.7-3c0.5-0.1,1.1-0.2,1.6-0.4c1.4-0.3,2.6,0.6,2.9,2l0,0c0.2,1.4-0.7,2.6-2,2.9
	c-0.4,0.1-0.7,0.2-1.1,0.2C52,6.9,50.6,6.1,50.2,4.8L50.2,4.8z"/>
<path class="st0" d="M37.5,10c-0.7-1.2-0.2-2.7,1-3.4C39,6.4,39.5,6.2,40,6c1.3-0.6,2.7,0,3.3,1.3l0,0c0.5,1.3-0.1,2.7-1.3,3.3
	c-0.3,0.2-0.7,0.3-1,0.5C39.7,11.7,38.1,11.2,37.5,10L37.5,10z"/>
<path class="st0" d="M26.2,18c-0.9-1-0.8-2.6,0.2-3.5c0.4-0.3,0.8-0.7,1.3-1c1.1-0.8,2.7-0.6,3.5,0.5l0,0c0.8,1.1,0.5,2.7-0.5,3.5
	c-0.3,0.2-0.6,0.5-0.9,0.7C28.7,19.1,27.1,19,26.2,18L26.2,18z"/>
<path class="st0" d="M17,28.2c-1.1-0.8-1.4-2.4-0.5-3.5c0.3-0.4,0.7-0.9,1-1.3c0.9-1.1,2.5-1.2,3.5-0.2l0,0c1,0.9,1.1,2.5,0.3,3.6
	c-0.2,0.3-0.5,0.6-0.7,0.9C19.7,28.7,18.1,29,17,28.2L17,28.2z"/>
<path class="st0" d="M10.3,40.2C9,39.7,8.4,38.2,9,37c0.2-0.5,0.5-1,0.7-1.5c0.6-1.2,2.1-1.7,3.4-1l0,0c1.2,0.7,1.6,2.2,1,3.4
	c-0.2,0.3-0.3,0.7-0.5,1C13,40.1,11.5,40.7,10.3,40.2L10.3,40.2z"/>
<path class="st0" d="M6.4,53.4c-1.4-0.2-2.3-1.5-2-2.9C4.5,50,4.7,49.5,4.8,49c0.3-1.3,1.7-2.1,3-1.7l0,0c1.3,0.4,2.1,1.8,1.8,3.1
	c-0.1,0.4-0.2,0.7-0.2,1.1C9.1,52.8,7.8,53.7,6.4,53.4L6.4,53.4z"/>
<path class="st0" d="M3,64c0-0.3,0-0.5,0-0.8c0-1.4,1.2-2.4,2.6-2.4l0,0C7,60.9,8,62.1,8,63.4c0,0.2,0,0.4,0,0.6s0,0.4,0,0.6
	c0,1.4-1,2.6-2.4,2.6l0,0c-1.4,0.1-2.6-1-2.6-2.4C3,64.5,3,64.3,3,64z"/>
<path class="st0" d="M7.8,80.8c-1.3,0.4-2.7-0.4-3-1.7c-0.1-0.5-0.2-1.1-0.4-1.6c-0.3-1.4,0.6-2.6,2-2.9l0,0c1.4-0.2,2.6,0.7,2.9,2
	c0.1,0.4,0.2,0.7,0.2,1.1C9.9,79,9.1,80.4,7.8,80.8L7.8,80.8z"/>
<path class="st0" d="M13,93.5c-1.2,0.7-2.7,0.2-3.4-1C9.4,92,9.2,91.5,9,91c-0.6-1.3,0-2.7,1.3-3.3l0,0c1.3-0.5,2.7,0.1,3.3,1.3
	c0.2,0.3,0.3,0.7,0.5,1C14.7,91.3,14.2,92.9,13,93.5L13,93.5z"/>
</svg>
