<svg width="208" height="209" viewBox="0 0 208 209" fill="none" xmlns="http://www.w3.org/2000/svg">
<path d="M29.4 0.1C20.4 0.1 11.4 0 2.4 0C-0.8 0 -0.8 5 2.4 5C11.4 5 20.4 5.1 29.4 5.1C32.6 5.1 32.6 0.1 29.4 0.1Z" transform="translate(1.90002 0.5)" fill="white"/>
<path d="M0 2.4C0 11.5 0 20.6 0 29.6C0 32.8 5 32.8 5 29.6C5 20.5 5 11.4 5 2.4C5 -0.8 0 -0.8 0 2.4Z" transform="translate(2 1)" fill="white"/>
<path d="M2.4 5.52548C11.1 5.12548 19.7 4.92548 28.4 5.02548C31.6 5.02548 31.6 0.0254834 28.4 0.0254834C19.7 -0.0745166 11.1 0.125483 2.4 0.525483C-0.8 0.725483 -0.8 5.72548 2.4 5.52548Z" transform="translate(177.1 0.474518)" fill="white"/>
<path d="M0 2.4C0 11.4 0 20.4 0 29.4C0 32.6 5 32.6 5 29.4C5 20.4 5 11.4 5 2.4C5 -0.8 0 -0.8 0 2.4Z" transform="translate(202.5)" fill="white"/>
<path d="M0 2.475C0 11.375 0 20.275 0 29.275C0 32.475 5 32.475 5 29.275C5 20.375 5 11.475 5 2.475C5 -0.825003 0 -0.825003 0 2.475Z" transform="translate(0 176.725)" fill="white"/>
<path d="M2.4 4.99999C11.6 4.99999 20.7 4.99999 29.9 4.99999C33.1 4.99999 33.1 -6.10352e-06 29.9 -6.10352e-06C20.7 -6.10352e-06 11.6 -6.10352e-06 2.4 -6.10352e-06C-0.8 -6.10352e-06 -0.8 4.99999 2.4 4.99999Z" transform="translate(0.0999756 203.4)" fill="white"/>
<path d="M-3.05176e-06 2.475C-3.05176e-06 11.275 -3.05176e-06 20.175 -3.05176e-06 28.975C-3.05176e-06 32.175 5 32.175 5 28.975C5 20.175 5 11.275 5 2.475C5 -0.825003 -3.05176e-06 -0.825003 -3.05176e-06 2.475Z" transform="translate(202.2 176.225)" fill="white"/>
<path d="M2.4 5.16569C11.3 4.96569 20.2 4.86569 29.2 5.06569C32.4 5.16569 32.4 0.165685 29.2 0.0656854C20.3 -0.0343146 11.4 -0.0343085 2.4 0.165692C-0.800003 0.265692 -0.800003 5.26569 2.4 5.16569Z" transform="translate(174.8 202.434)" fill="white"/>
</svg>
