<svg width="26" height="27" viewBox="0 0 26 27" fill="none" xmlns="http://www.w3.org/2000/svg">
<path d="M3.1481 0.586692C1.72919 0.664044 0.617073 1.90168 0.233584 3.29403C-0.149906 4.64769 0.00349008 6.11739 0.233584 7.50973C0.348631 8.28326 0.502027 9.09546 1.00056 9.6756C1.4224 10.1397 1.99764 10.3718 2.57287 10.5652C3.68499 10.9906 4.83546 11.416 5.98593 11.5321C7.17475 11.6481 8.44026 11.416 9.36064 10.6812C10.0126 10.1397 10.4728 9.36619 10.8179 8.59267C11.3164 7.58709 11.7383 6.50415 11.6232 5.42122C11.5082 4.26093 10.8179 3.29403 10.0509 2.40447C9.62908 1.90168 9.20724 1.43757 8.67035 1.08948C7.82668 0.548016 6.86795 0.354635 5.87088 0.161254C4.72041 -0.0708036 3.26315 -0.186832 2.57287 0.780073" transform="translate(6.66406 8.33983)" fill="#F8D24F"/>
<path d="M3.61551 0.717764C-0.296081 1.37526 -0.487826 6.48052 0.509247 9.49726C1.08448 11.2377 2.73349 11.7792 4.34414 12.3206C6.06985 12.8621 8.10234 13.2102 9.75135 12.2046C12.896 10.3481 13.5862 5.90038 11.477 3.11569C9.78969 0.911145 5.18782 -1.40943 2.81018 1.06585C2.31165 1.60732 3.11698 2.41952 3.61551 1.87805C5.34122 0.0989451 9.09941 2.11011 10.2882 3.46378C11.2853 4.62406 11.9372 5.90038 11.5154 7.52478C11.1703 8.76242 10.3266 10.4642 9.17611 11.1603C7.10527 12.398 2.42669 11.1603 1.54467 8.87845C0.624293 6.55787 0.969434 2.26481 3.9223 1.8007C4.65093 1.72335 4.34414 0.601736 3.61551 0.717764Z" transform="translate(6.04297 7.62862)" fill="black"/>
<path d="M0.719043 0.417758C0.565647 1.38466 0.412251 2.35157 0.258856 3.31847C0.143809 4.092 -0.124634 5.17493 0.0671108 5.94846C0.10546 6.18051 0.373902 6.41257 0.603996 6.37389C0.642345 6.37389 0.642345 6.37389 0.680694 6.37389C0.910788 6.37389 1.17923 6.21919 1.21758 5.94846V5.90978C1.37097 5.17493 0.258856 4.86552 0.10546 5.60037V5.63905C0.297205 5.48434 0.488949 5.36831 0.642345 5.21361C0.603996 5.21361 0.603996 5.21361 0.565647 5.21361C0.757392 5.36831 0.949136 5.48434 1.10253 5.63905C0.949136 4.94287 1.29428 3.78259 1.37098 3.08642C1.48602 2.31289 1.60107 1.53937 1.75446 0.765844C1.94621 -0.00768005 0.83409 -0.31709 0.719043 0.417758Z" transform="translate(11.2793)" fill="black"/>
<path d="M0.837554 4.16222C2.25647 3.27266 3.52198 2.18973 4.67245 0.990767C5.17099 0.4493 4.36566 -0.362901 3.86712 0.178566C2.79335 1.33885 1.60453 2.30576 0.26232 3.15663C-0.351264 3.58207 0.223971 4.54898 0.837554 4.16222Z" transform="translate(17.1045 4.53226)" fill="black"/>
<path d="M0.575234 1.16123C2.07084 1.19991 3.5281 1.19991 5.02371 1.23858C5.75234 1.23858 5.75234 0.0782978 5.02371 0.0782978C3.5281 0.0396216 2.07084 0.0396213 0.575234 0.000945097C-0.191745 -0.0377311 -0.191745 1.12256 0.575234 1.16123Z" transform="translate(19.5908 12.9866)" fill="black"/>
<path d="M0.176105 0.970409C0.597944 1.39585 0.904736 1.93731 1.28823 2.40143C1.63337 2.82687 2.0552 3.17495 2.47704 3.52304C2.89888 3.83245 4.47119 4.95406 4.62459 3.7551C4.66293 3.44569 4.54789 3.13628 4.2411 3.05892C4.20275 3.05892 4.20275 3.05892 4.1644 3.02025C3.89595 2.9429 3.66586 3.0976 3.51247 3.29098C3.51247 3.32966 3.47412 3.32966 3.47412 3.36833C3.05228 3.98715 4.04935 4.5673 4.47119 3.94848C4.47119 3.9098 4.50954 3.9098 4.50954 3.87112C4.27944 3.94848 4.0877 4.0645 3.85761 4.14186C3.89596 4.14186 3.89595 4.14186 3.9343 4.18053C3.81926 3.94848 3.66586 3.71642 3.55081 3.48436C3.55081 3.52304 3.55081 3.52304 3.55081 3.56171C3.62751 3.44569 3.74256 3.32966 3.81926 3.21363C3.78091 3.21363 3.78091 3.2523 3.74256 3.2523C3.89595 3.21363 4.04935 3.21363 4.20275 3.17495C2.70714 2.78819 2.0552 1.12511 1.05813 0.158208C0.444548 -0.344583 -0.36078 0.467618 0.176105 0.970409Z" transform="translate(17.1909 18.7081)" fill="black"/>
<path d="M0.423296 1.10421C0.461645 1.14288 0.499994 1.18156 0.576691 1.22024C0.499994 1.06553 0.384947 0.87215 0.308249 0.717445C0.384947 1.41362 0.231551 2.18714 0.193202 2.88331C0.116504 3.65684 0.078155 4.39169 0.00145708 5.16521C-0.0368919 5.62933 0.691738 5.97741 0.99853 5.59065C1.19027 5.35859 1.26697 5.20389 1.26697 4.89448C1.19028 4.15963 0.0398065 4.15963 0.116504 4.89448C0.154853 4.8558 0.154853 4.81713 0.193202 4.77845C0.538342 4.93315 0.845134 5.04918 1.19027 5.20389C1.26697 4.15963 1.38202 3.07669 1.45872 2.03244C1.53542 1.29759 1.72716 0.640093 1.11358 0.137302C0.423295 -0.365488 -0.151939 0.640093 0.423296 1.10421Z" transform="translate(11.6514 21.243)" fill="black"/>
<path d="M2.9137 0.178566C1.99333 1.22282 1.07295 2.30576 0.152576 3.35002C-0.34596 3.89148 0.497717 4.74236 0.957905 4.16222C1.87828 3.11796 2.79865 2.03503 3.71903 0.990767C4.21757 0.4493 3.41224 -0.362901 2.9137 0.178566Z" transform="translate(3.29346 18.8811)" fill="black"/>
<path d="M4.59666 0.20799C3.2928 0.362695 1.98893 0.285342 0.723417 0.0146088C-0.00521322 -0.140096 -0.312005 0.981513 0.416625 1.13622C1.79719 1.44563 3.17775 1.52298 4.59666 1.36828C5.32529 1.29092 5.32529 0.130637 4.59666 0.20799Z" transform="translate(0 12.8956)" fill="black"/>
<path d="M4.2999 2.95914C3.60962 2.61105 2.95768 2.18561 2.45915 1.60547C1.96061 1.02533 1.61547 0.406506 0.886839 0.0584199C0.196558 -0.25099 -0.378676 0.754592 0.311605 1.064C1.04024 1.37341 1.38538 2.18561 1.96061 2.72708C2.4975 3.22987 3.07273 3.65531 3.76301 3.96472C4.3766 4.27413 4.95183 3.26855 4.2999 2.95914Z" transform="translate(3.01953 4.96181)" fill="black"/>
<path d="M3.69109 0.420181C3.46099 1.1937 3.26925 2.00591 2.65567 2.54737C2.08043 3.08884 1.2751 3.24354 0.546473 3.28222C-0.182157 3.3209 -0.182157 4.48118 0.546473 4.44251C1.54355 4.40383 2.54062 4.17177 3.3076 3.51428C4.15127 2.81811 4.49642 1.77385 4.80321 0.72959C5.0333 -0.00525798 3.92118 -0.314667 3.69109 0.420181Z" transform="translate(12.0649 13.4956)" fill="black"/>
</svg>
