<svg width="18" height="26" viewBox="0 0 18 26" fill="none" xmlns="http://www.w3.org/2000/svg">
<path d="M7.98258 0.404399C6.22528 1.03188 5.65314 3.20713 4.42711 4.62941C3.97757 5.13139 3.48716 5.54971 3.07849 6.09352C2.75155 6.55367 2.50635 7.13932 2.30201 7.68313C1.40293 9.98388 0.667314 12.3683 0.217773 14.8364C0.0134361 15.9658 -0.109166 17.1371 0.136038 18.2666C0.381243 19.396 0.994254 20.4 1.72987 21.3203C2.38374 22.1151 3.16023 22.8681 4.10018 23.3282C5.48967 23.9975 7.12436 23.9139 8.63646 23.8302C9.57641 23.7884 10.5164 23.7047 11.3746 23.3282C12.0285 23.0354 12.5597 22.6171 13.091 22.1569C13.9083 21.404 14.6031 20.5673 15.2161 19.6052C16.4013 17.7228 17.096 15.4638 16.6465 13.2886C15.7065 8.77075 10.4755 6.26085 9.41294 1.82668C9.29033 1.36653 9.24947 0.906381 9.00426 0.529895C8.75906 0.153409 8.26865 -0.139414 7.85998 0.0697451C7.85998 0.19524 7.81911 0.320736 7.81911 0.446231" transform="translate(0.518066 0.661636)" fill="#C7E4DD"/>
<path d="M8.29642 0.354889C4.20968 4.5799 0.0412083 10.5618 0.000340906 16.7948C-0.0405265 21.8564 3.59667 26.7089 8.90943 25.9141C13.9361 25.1611 18.7585 20.978 17.9003 15.3725C17.4916 12.7371 15.7343 10.7292 14.1405 8.67941C12.0971 6.04401 11.198 2.78113 9.0729 0.187562C8.54163 -0.398083 7.68341 0.522216 8.17382 1.10786C9.76765 3.03212 10.4215 5.33287 11.6884 7.42446C12.7918 9.22323 14.3039 10.6873 15.4073 12.4443C18.6767 17.6732 15.203 22.9022 9.84938 24.4082C3.67841 26.1651 0.449882 19.8903 1.47157 14.4104C2.45238 9.43239 5.72178 4.78906 9.1955 1.23336C9.72678 0.647711 8.86856 -0.230756 8.29642 0.354889Z" fill="black"/>
<path d="M5.85546 0.731982C6.38674 2.15426 5.20158 3.82753 4.3025 4.87333C3.89383 5.37531 3.40342 5.83546 2.83127 6.17011C2.50434 6.37927 1.36005 7.04858 0.910507 6.79759C0.951374 7.13224 0.992242 7.4669 1.03311 7.80155L1.07398 7.75972C0.787905 7.75972 0.501833 7.75972 0.215762 7.75972L0.256629 7.80155C0.787905 8.42903 1.64612 7.50873 1.11484 6.92308L1.07398 6.88125C0.828773 6.63026 0.460966 6.67209 0.215762 6.88125L0.174894 6.92308C-0.111177 7.17408 -0.029443 7.71789 0.297496 7.92705C1.85046 8.72185 4.0573 7.04858 4.99725 5.96095C6.22327 4.53867 7.73536 2.40525 6.99975 0.439159C6.75454 -0.313813 5.56939 -0.0209902 5.85546 0.731982Z" transform="translate(7.58984 14.6823)" fill="black"/>
</svg>
