<svg width="40" height="36" viewBox="0 0 40 36" fill="none" xmlns="http://www.w3.org/2000/svg">
<path d="M0.178319 2.31397C3.9676 2.31397 7.7123 2.44747 11.457 2.71446C11.5907 2.71446 11.6799 2.71446 11.7691 2.80346C11.9028 2.89246 11.9028 3.07046 11.9028 3.20396C11.9028 4.31644 11.8582 5.38443 11.8582 6.49691C14.4438 6.54141 17.0295 6.63041 19.6151 6.67491C19.5705 5.47342 19.4368 4.27194 19.1693 3.07046C22.9586 3.33745 26.7924 3.29295 30.5817 3.07046C30.7155 2.04697 30.8046 1.02349 30.9383 0L8.50291e-08 0.222497C0.356638 0.845488 0.401218 1.64648 0.178319 2.31397Z" transform="translate(4.146 1.55748)" fill="#46666D"/>
<path d="M8.11352 0.533992L0 24.2522H37.447L29.0214 3.39503e-07L8.11352 0.533992Z" transform="translate(0.891602 10.7689)" fill="#46666D"/>
<path d="M0.0512758 1.20148C0.140435 1.77998 0.185015 2.31397 0.274175 2.84796C0.185015 3.38195 0.497074 3.91595 1.07661 3.91595C3.39476 3.91595 5.7129 3.96045 8.03105 4.09394C8.69975 4.13844 11.0179 3.87145 11.5083 4.27194C12.3107 4.89493 11.9095 6.36341 11.9095 7.2979C11.9095 7.74289 12.3107 8.14339 12.7565 8.14339C15.3421 8.18789 17.9278 8.27689 20.5134 8.32138C20.9592 8.32138 21.3604 7.92089 21.3604 7.4759C21.2712 6.18541 21.1375 4.93943 20.9146 3.64895C20.6471 4.00494 20.3796 4.36094 20.1122 4.71693C23.9014 4.93943 27.7353 4.93943 31.5246 4.71693C32.015 4.67244 32.327 4.36094 32.3716 3.87145C32.5053 2.84796 32.5945 1.82447 32.7282 0.800989C32.862 -0.266996 31.1679 -0.266996 31.0342 0.800989C30.9005 1.82447 30.8113 2.84796 30.6776 3.87145C30.945 3.60445 31.2125 3.29295 31.5246 3.02596C27.7353 3.24845 23.9014 3.24845 20.1122 3.02596C19.5326 2.98146 19.2206 3.60445 19.3097 4.09394C19.5326 5.20643 19.6664 6.31891 19.7109 7.4759C19.9784 7.2089 20.2459 6.8974 20.558 6.63041C17.9723 6.58591 15.3867 6.49691 12.8011 6.45241C13.0686 6.71941 13.336 6.9864 13.6481 7.2979C13.6927 5.29543 14.4505 2.93696 11.9986 2.62546C8.43227 2.22497 4.73215 2.26947 1.12119 2.26947C1.38867 2.62546 1.65615 2.98146 1.92363 3.33745C2.10194 2.40297 2.05736 1.69098 1.74531 0.800989C1.29951 -0.222497 -0.305362 0.222497 0.0512758 1.20148Z" transform="translate(3.42603 0.178009)" fill="black"/>
<path d="M0.802436 1.69098C7.9352 1.69098 15.068 1.69098 22.2007 1.69098C23.2706 1.69098 23.2706 -1.69752e-07 22.2007 -1.69752e-07C15.068 -1.69752e-07 7.9352 -1.69752e-07 0.802436 -1.69752e-07C-0.267478 0.0444992 -0.267478 1.69098 0.802436 1.69098Z" transform="translate(8.3811 9.07788)" fill="black"/>
<path d="M0.802436 1.69098C11.0558 1.69098 21.3091 1.69098 31.5625 1.69098C32.6324 1.69098 32.6324 0 31.5625 0C21.3091 0 11.0558 0 0.802436 0C-0.267478 0 -0.267478 1.69098 0.802436 1.69098Z" transform="translate(3.7002)" fill="black"/>
<path d="M0.835871 1.69098C13.4074 1.69098 25.9789 1.69098 38.5949 1.69098C39.6648 1.69098 39.6648 -6.79007e-07 38.5949 -6.79007e-07C26.0234 -6.79007e-07 13.4519 -6.79007e-07 0.835871 -6.79007e-07C-0.278623 0.0444987 -0.278623 1.69098 0.835871 1.69098Z" transform="translate(0.278564 34.309)" fill="black"/>
<path d="M0.0514049 1.01569C1.6117 5.37663 3.17199 9.78206 4.6877 14.143C6.06967 18.0589 6.78295 22.3754 8.6553 26.0688C9.14568 27.0033 10.5722 26.2023 10.0819 25.2234C9.05652 23.2209 8.6553 21.1739 8.07576 19.0379C7.49622 16.9465 6.69379 14.944 5.98051 12.897C4.50938 8.80308 3.08283 4.70914 1.6117 0.615193C1.29964 -0.452792 -0.305233 -0.00779829 0.0514049 1.01569Z" transform="translate(29.8171 9.26366)" fill="black"/>
<path d="M8.42557 0.378067C6.01827 4.33851 5.21583 8.83295 4.01218 13.2384C2.80852 17.4658 0.0891595 21.4708 0 25.9652C0 27.0332 1.64945 27.0332 1.69403 25.9652C1.78319 21.6933 4.45798 17.7773 5.61705 13.6834C6.8207 9.41144 7.57856 5.0505 9.89671 1.22356C10.4317 0.333568 8.96053 -0.51192 8.42557 0.378067Z" transform="translate(0 9.23381)" fill="black"/>
<path d="M6.47154 0.629947C1.43403 2.89942 -1.3745 8.90683 0.676173 14.1578C2.72684 19.3197 8.52221 21.9007 13.738 20.0317C19.2214 18.0292 21.8516 12.2888 20.2467 6.77086C18.6864 1.34194 11.6874 -1.19453 6.69444 0.540948C5.6691 0.896943 6.1149 2.49892 7.14024 2.14293C11.2862 0.718946 17.3044 2.63242 18.6418 7.21586C20.0684 12.0663 17.6165 17.1392 12.7127 18.6077C8.29931 19.8982 3.52928 17.5397 2.10272 13.1343C0.631593 8.63984 3.17264 3.9229 7.31856 2.05393C8.29931 1.65343 7.45229 0.184953 6.47154 0.629947Z" transform="translate(9.17603 11.6519)" fill="black"/>
<path d="M1.83273 0.417255C0.629079 0.639752 -0.217936 1.84124 0.0495424 3.04272C0.406181 4.4222 1.74357 4.95619 3.03639 4.68919C4.37378 4.4222 5.44369 3.44321 4.9979 1.97473C4.59668 0.684251 3.34845 -0.339235 1.96647 0.105759C0.941139 0.417254 1.38694 2.01923 2.41227 1.70774C2.85807 1.57424 3.21471 1.88573 3.34845 2.28623C3.57134 2.86472 3.08097 2.95372 2.59059 3.04272C2.23395 3.08722 1.69899 3.04272 1.65441 2.55322C1.60984 2.19723 1.96647 2.01923 2.23395 1.97473C3.34845 1.84123 2.90265 0.239257 1.83273 0.417255Z" transform="translate(17.1582 19.83)" fill="black"/>
<path d="M6.80233e-07 0.800989C6.80233e-07 2.62546 6.80233e-07 4.40544 6.80233e-07 6.22991C6.80233e-07 7.2979 1.69403 7.2979 1.69403 6.22991C1.69403 4.40544 1.69403 2.62546 1.69403 0.800989C1.69403 -0.266996 6.80233e-07 -0.266996 6.80233e-07 0.800989Z" transform="translate(18.679 14.7738)" fill="black"/>
</svg>
